<?xml version="1.0" encoding="utf-8" standalone="no"?>
<!DOCTYPE svg PUBLIC "-//W3C//DTD SVG 1.1//EN"
  "http://www.w3.org/Graphics/SVG/1.1/DTD/svg11.dtd">
<svg xmlns:xlink="http://www.w3.org/1999/xlink" width="1140.48pt" height="565.7325pt" viewBox="0 0 1140.48 565.7325" xmlns="http://www.w3.org/2000/svg" version="1.1">
 <metadata>
  <rdf:RDF xmlns:dc="http://purl.org/dc/elements/1.1/" xmlns:cc="http://creativecommons.org/ns#" xmlns:rdf="http://www.w3.org/1999/02/22-rdf-syntax-ns#">
   <cc:Work>
    <dc:type rdf:resource="http://purl.org/dc/dcmitype/StillImage"/>
    <dc:date>2026-07-13T17:35:46.457108</dc:date>
    <dc:format>image/svg+xml</dc:format>
    <dc:creator>
     <cc:Agent>
      <dc:title>Matplotlib v3.10.7, https://matplotlib.org/</dc:title>
     </cc:Agent>
    </dc:creator>
   </cc:Work>
  </rdf:RDF>
 </metadata>
 <defs>
  <style type="text/css">*{stroke-linejoin: round; stroke-linecap: butt}</style>
 </defs>
 <g id="figure_1">
  <g id="patch_1">
   <path d="M 0 565.7325 
L 1140.48 565.7325 
L 1140.48 0 
L 0 0 
z
" style="fill: #1a1a1a"/>
  </g>
  <g id="axes_1">
   <g id="patch_2">
    <path d="M 94.7 529.095 
L 539.749267 529.095 
L 539.749267 52.3875 
L 94.7 52.3875 
z
"/>
   </g>
   <g id="patch_3">
    <path d="M 94.7 507.426477 
L 518.556445 507.426477 
L 518.556445 462.978226 
L 94.7 462.978226 
z
" clip-path="url(#p21ba67ae0a)" style="fill: #e74c3c; opacity: 0.85"/>
   </g>
   <g id="patch_4">
    <path d="M 94.7 451.866163 
L 468.290936 451.866163 
L 468.290936 407.417911 
L 94.7 407.417911 
z
" clip-path="url(#p21ba67ae0a)" style="fill: #e74c3c; opacity: 0.85"/>
   </g>
   <g id="patch_5">
    <path d="M 94.7 396.305848 
L 388.912907 396.305848 
L 388.912907 351.857596 
L 94.7 351.857596 
z
" clip-path="url(#p21ba67ae0a)" style="fill: #e74c3c; opacity: 0.85"/>
   </g>
   <g id="patch_6">
    <path d="M 94.7 340.745533 
L 349.380279 340.745533 
L 349.380279 296.297281 
L 94.7 296.297281 
z
" clip-path="url(#p21ba67ae0a)" style="fill: #e74c3c; opacity: 0.85"/>
   </g>
   <g id="patch_7">
    <path d="M 94.7 285.185219 
L 343.430294 285.185219 
L 343.430294 240.736967 
L 94.7 240.736967 
z
" clip-path="url(#p21ba67ae0a)" style="fill: #e74c3c; opacity: 0.85"/>
   </g>
   <g id="patch_8">
    <path d="M 94.7 229.624904 
L 259.674604 229.624904 
L 259.674604 185.176652 
L 94.7 185.176652 
z
" clip-path="url(#p21ba67ae0a)" style="fill: #e74c3c; opacity: 0.85"/>
   </g>
   <g id="patch_9">
    <path d="M 94.7 174.064589 
L 259.176001 174.064589 
L 259.176001 129.616337 
L 94.7 129.616337 
z
" clip-path="url(#p21ba67ae0a)" style="fill: #e74c3c; opacity: 0.85"/>
   </g>
   <g id="patch_10">
    <path d="M 94.7 118.504274 
L 253.789829 118.504274 
L 253.789829 74.056023 
L 94.7 74.056023 
z
" clip-path="url(#p21ba67ae0a)" style="fill: #e74c3c; opacity: 0.85"/>
   </g>
   <g id="matplotlib.axis_1">
    <g id="xtick_1">
     <g id="line2d_1">
      <path d="M 94.7 529.095 
L 94.7 52.3875 
" clip-path="url(#p21ba67ae0a)" style="fill: none; stroke-dasharray: 2.96,1.28; stroke-dashoffset: 0; stroke: #ffffff; stroke-opacity: 0.3; stroke-width: 0.8"/>
     </g>
     <g id="line2d_2">
      <defs>
       <path id="m32a5fcc831" d="M 0 0 
L 0 -3.5 
" style="stroke: #ffffff; stroke-width: 0.8"/>
      </defs>
      <g>
       <use xlink:href="#m32a5fcc831" x="94.7" y="529.095" style="fill: #ffffff; stroke: #ffffff; stroke-width: 0.8"/>
      </g>
     </g>
     <g id="text_1">
      <!-- 0.0 -->
      <g style="fill: #ffffff" transform="translate(85.7 540.845) scale(0.12 -0.12)">
       <defs>
        <path id="SimHei-30" d="M 225 2537 
Q 250 3200 412 3587 
Q 575 3975 875 4225 
Q 1175 4475 1612 4475 
Q 2050 4475 2375 4112 
Q 2700 3750 2800 3200 
Q 2900 2650 2862 1937 
Q 2825 1225 2612 775 
Q 2400 325 1975 150 
Q 1550 -25 1125 187 
Q 700 400 525 750 
Q 350 1100 275 1487 
Q 200 1875 225 2537 
z
M 750 2687 
Q 675 2000 800 1462 
Q 925 925 1212 700 
Q 1500 475 1800 612 
Q 2100 750 2237 1162 
Q 2375 1575 2375 2062 
Q 2375 2550 2337 2950 
Q 2300 3350 2112 3675 
Q 1925 4000 1612 4012 
Q 1300 4025 1062 3700 
Q 825 3375 750 2687 
z
" transform="scale(0.015625)"/>
        <path id="SimHei-2e" d="M 1075 125 
L 500 125 
L 500 675 
L 1075 675 
L 1075 125 
z
" transform="scale(0.015625)"/>
       </defs>
       <use xlink:href="#SimHei-30"/>
       <use xlink:href="#SimHei-2e" transform="translate(50 0)"/>
       <use xlink:href="#SimHei-30" transform="translate(100 0)"/>
      </g>
     </g>
    </g>
    <g id="xtick_2">
     <g id="line2d_3">
      <path d="M 160.528041 529.095 
L 160.528041 52.3875 
" clip-path="url(#p21ba67ae0a)" style="fill: none; stroke-dasharray: 2.96,1.28; stroke-dashoffset: 0; stroke: #ffffff; stroke-opacity: 0.3; stroke-width: 0.8"/>
     </g>
     <g id="line2d_4">
      <g>
       <use xlink:href="#m32a5fcc831" x="160.528041" y="529.095" style="fill: #ffffff; stroke: #ffffff; stroke-width: 0.8"/>
      </g>
     </g>
     <g id="text_2">
      <!-- 0.5 -->
      <g style="fill: #ffffff" transform="translate(151.528041 540.845) scale(0.12 -0.12)">
       <defs>
        <path id="SimHei-35" d="M 550 1325 
Q 725 650 1150 575 
Q 1575 500 1837 662 
Q 2100 825 2212 1087 
Q 2325 1350 2312 1675 
Q 2300 2000 2137 2225 
Q 1975 2450 1725 2525 
Q 1475 2600 1162 2525 
Q 850 2450 650 2175 
L 225 2225 
Q 275 2375 700 4375 
L 2675 4375 
L 2675 3925 
L 1075 3925 
Q 950 3250 825 2850 
Q 1200 3025 1525 3012 
Q 1850 3000 2150 2862 
Q 2450 2725 2587 2487 
Q 2725 2250 2787 2012 
Q 2850 1775 2837 1500 
Q 2825 1225 2725 937 
Q 2625 650 2425 462 
Q 2225 275 1937 162 
Q 1650 50 1275 75 
Q 900 100 562 350 
Q 225 600 100 1200 
L 550 1325 
z
" transform="scale(0.015625)"/>
       </defs>
       <use xlink:href="#SimHei-30"/>
       <use xlink:href="#SimHei-2e" transform="translate(50 0)"/>
       <use xlink:href="#SimHei-35" transform="translate(100 0)"/>
      </g>
     </g>
    </g>
    <g id="xtick_3">
     <g id="line2d_5">
      <path d="M 226.356081 529.095 
L 226.356081 52.3875 
" clip-path="url(#p21ba67ae0a)" style="fill: none; stroke-dasharray: 2.96,1.28; stroke-dashoffset: 0; stroke: #ffffff; stroke-opacity: 0.3; stroke-width: 0.8"/>
     </g>
     <g id="line2d_6">
      <g>
       <use xlink:href="#m32a5fcc831" x="226.356081" y="529.095" style="fill: #ffffff; stroke: #ffffff; stroke-width: 0.8"/>
      </g>
     </g>
     <g id="text_3">
      <!-- 1.0 -->
      <g style="fill: #ffffff" transform="translate(217.356081 540.845) scale(0.12 -0.12)">
       <defs>
        <path id="SimHei-31" d="M 1400 3600 
Q 1075 3275 575 2975 
L 575 3450 
Q 1200 3875 1600 4450 
L 1900 4450 
L 1900 150 
L 1400 150 
L 1400 3600 
z
" transform="scale(0.015625)"/>
       </defs>
       <use xlink:href="#SimHei-31"/>
       <use xlink:href="#SimHei-2e" transform="translate(50 0)"/>
       <use xlink:href="#SimHei-30" transform="translate(100 0)"/>
      </g>
     </g>
    </g>
    <g id="xtick_4">
     <g id="line2d_7">
      <path d="M 292.184122 529.095 
L 292.184122 52.3875 
" clip-path="url(#p21ba67ae0a)" style="fill: none; stroke-dasharray: 2.96,1.28; stroke-dashoffset: 0; stroke: #ffffff; stroke-opacity: 0.3; stroke-width: 0.8"/>
     </g>
     <g id="line2d_8">
      <g>
       <use xlink:href="#m32a5fcc831" x="292.184122" y="529.095" style="fill: #ffffff; stroke: #ffffff; stroke-width: 0.8"/>
      </g>
     </g>
     <g id="text_4">
      <!-- 1.5 -->
      <g style="fill: #ffffff" transform="translate(283.184122 540.845) scale(0.12 -0.12)">
       <use xlink:href="#SimHei-31"/>
       <use xlink:href="#SimHei-2e" transform="translate(50 0)"/>
       <use xlink:href="#SimHei-35" transform="translate(100 0)"/>
      </g>
     </g>
    </g>
    <g id="xtick_5">
     <g id="line2d_9">
      <path d="M 358.012162 529.095 
L 358.012162 52.3875 
" clip-path="url(#p21ba67ae0a)" style="fill: none; stroke-dasharray: 2.96,1.28; stroke-dashoffset: 0; stroke: #ffffff; stroke-opacity: 0.3; stroke-width: 0.8"/>
     </g>
     <g id="line2d_10">
      <g>
       <use xlink:href="#m32a5fcc831" x="358.012162" y="529.095" style="fill: #ffffff; stroke: #ffffff; stroke-width: 0.8"/>
      </g>
     </g>
     <g id="text_5">
      <!-- 2.0 -->
      <g style="fill: #ffffff" transform="translate(349.012162 540.845) scale(0.12 -0.12)">
       <defs>
        <path id="SimHei-32" d="M 300 250 
Q 325 625 650 925 
Q 975 1225 1475 1862 
Q 1975 2500 2125 2850 
Q 2275 3200 2237 3450 
Q 2200 3700 2000 3862 
Q 1800 4025 1537 4000 
Q 1275 3975 1037 3800 
Q 800 3625 675 3275 
L 200 3350 
Q 400 3925 712 4187 
Q 1025 4450 1450 4475 
Q 1700 4500 1900 4462 
Q 2100 4425 2312 4287 
Q 2525 4150 2662 3875 
Q 2800 3600 2762 3212 
Q 2725 2825 2375 2287 
Q 2025 1750 1025 600 
L 2825 600 
L 2825 150 
L 300 150 
L 300 250 
z
" transform="scale(0.015625)"/>
       </defs>
       <use xlink:href="#SimHei-32"/>
       <use xlink:href="#SimHei-2e" transform="translate(50 0)"/>
       <use xlink:href="#SimHei-30" transform="translate(100 0)"/>
      </g>
     </g>
    </g>
    <g id="xtick_6">
     <g id="line2d_11">
      <path d="M 423.840203 529.095 
L 423.840203 52.3875 
" clip-path="url(#p21ba67ae0a)" style="fill: none; stroke-dasharray: 2.96,1.28; stroke-dashoffset: 0; stroke: #ffffff; stroke-opacity: 0.3; stroke-width: 0.8"/>
     </g>
     <g id="line2d_12">
      <g>
       <use xlink:href="#m32a5fcc831" x="423.840203" y="529.095" style="fill: #ffffff; stroke: #ffffff; stroke-width: 0.8"/>
      </g>
     </g>
     <g id="text_6">
      <!-- 2.5 -->
      <g style="fill: #ffffff" transform="translate(414.840203 540.845) scale(0.12 -0.12)">
       <use xlink:href="#SimHei-32"/>
       <use xlink:href="#SimHei-2e" transform="translate(50 0)"/>
       <use xlink:href="#SimHei-35" transform="translate(100 0)"/>
      </g>
     </g>
    </g>
    <g id="xtick_7">
     <g id="line2d_13">
      <path d="M 489.668243 529.095 
L 489.668243 52.3875 
" clip-path="url(#p21ba67ae0a)" style="fill: none; stroke-dasharray: 2.96,1.28; stroke-dashoffset: 0; stroke: #ffffff; stroke-opacity: 0.3; stroke-width: 0.8"/>
     </g>
     <g id="line2d_14">
      <g>
       <use xlink:href="#m32a5fcc831" x="489.668243" y="529.095" style="fill: #ffffff; stroke: #ffffff; stroke-width: 0.8"/>
      </g>
     </g>
     <g id="text_7">
      <!-- 3.0 -->
      <g style="fill: #ffffff" transform="translate(480.668243 540.845) scale(0.12 -0.12)">
       <defs>
        <path id="SimHei-33" d="M 250 1225 
L 700 1300 
Q 800 975 1025 762 
Q 1250 550 1587 562 
Q 1925 575 2125 837 
Q 2325 1100 2300 1437 
Q 2275 1775 2037 1962 
Q 1800 2150 1275 2225 
L 1275 2550 
Q 1800 2600 2037 2825 
Q 2275 3050 2250 3412 
Q 2225 3775 1925 3937 
Q 1625 4100 1287 3975 
Q 950 3850 750 3275 
L 300 3350 
Q 450 3800 712 4100 
Q 975 4400 1425 4450 
Q 1875 4500 2212 4337 
Q 2550 4175 2687 3837 
Q 2825 3500 2725 3100 
Q 2625 2700 2150 2400 
Q 2500 2250 2687 1950 
Q 2875 1650 2812 1162 
Q 2750 675 2375 375 
Q 2000 75 1525 87 
Q 1050 100 700 387 
Q 350 675 250 1225 
z
" transform="scale(0.015625)"/>
       </defs>
       <use xlink:href="#SimHei-33"/>
       <use xlink:href="#SimHei-2e" transform="translate(50 0)"/>
       <use xlink:href="#SimHei-30" transform="translate(100 0)"/>
      </g>
     </g>
    </g>
    <g id="text_8">
     <!-- 平均涨跌 % -->
     <g style="fill: #ffffff" transform="translate(284.724634 556.704375) scale(0.13 -0.13)">
      <defs>
       <path id="SimHei-5e73" d="M 4525 4825 
Q 4900 4825 5450 4850 
L 5450 4375 
Q 4925 4400 4525 4400 
L 3475 4400 
L 3475 2025 
L 5000 2025 
Q 5550 2025 6025 2050 
L 6025 1575 
Q 5550 1600 5000 1600 
L 3475 1600 
L 3475 450 
Q 3475 -100 3500 -600 
L 2925 -600 
Q 2950 -100 2950 450 
L 2950 1600 
L 1125 1600 
Q 775 1600 375 1575 
L 375 2050 
Q 775 2025 1175 2025 
L 2950 2025 
L 2950 4400 
L 1775 4400 
Q 1400 4400 875 4375 
L 875 4850 
Q 1400 4825 1750 4825 
L 4525 4825 
z
M 3925 2600 
Q 4500 3300 4900 4125 
Q 5150 3950 5400 3825 
Q 4775 2850 4350 2300 
Q 4150 2475 3925 2600 
z
M 1975 2350 
Q 1600 3100 1050 3725 
Q 1250 3875 1450 4050 
Q 2075 3300 2450 2725 
Q 2150 2500 1975 2350 
z
" transform="scale(0.015625)"/>
       <path id="SimHei-5747" d="M 5775 275 
Q 5775 -325 5362 -450 
Q 4950 -575 4425 -600 
Q 4375 -275 4250 25 
Q 4950 -25 5125 62 
Q 5300 150 5300 500 
L 5375 3700 
L 3550 3700 
Q 3425 3375 3262 3037 
Q 3100 2700 2925 2400 
Q 2675 2550 2475 2625 
Q 3150 3625 3500 5200 
Q 3800 5100 4075 5025 
Q 3975 4875 3875 4650 
Q 3775 4425 3675 4125 
L 5900 4125 
L 5775 275 
z
M 1250 3625 
L 1250 4375 
Q 1250 4775 1225 5100 
L 1775 5100 
Q 1750 4725 1750 4375 
L 1750 3625 
L 1900 3625 
Q 2200 3625 2525 3650 
L 2525 3150 
Q 2200 3175 1900 3175 
L 1750 3175 
L 1750 1100 
L 2500 1375 
Q 2475 1125 2525 900 
Q 1225 475 962 362 
Q 700 250 475 150 
Q 375 475 250 750 
Q 575 800 800 850 
Q 1025 900 1250 975 
L 1250 3175 
L 1125 3175 
Q 850 3175 400 3150 
L 400 3650 
Q 850 3625 1100 3625 
L 1250 3625 
z
M 4950 1625 
Q 4675 1425 4137 1050 
Q 3600 675 3175 300 
Q 3000 575 2850 775 
Q 3350 1050 3762 1325 
Q 4175 1600 4775 2075 
Q 4825 1850 4950 1625 
z
M 3775 3150 
Q 4125 2800 4475 2300 
Q 4250 2125 4100 1975 
Q 3900 2325 3450 2825 
Q 3600 3000 3775 3150 
z
" transform="scale(0.015625)"/>
       <path id="SimHei-6da8" d="M 3750 4350 
Q 3750 4700 3725 5075 
L 4225 5075 
Q 4200 4700 4200 4350 
L 4200 2600 
L 5975 2600 
L 5975 2175 
Q 5500 2200 5025 2200 
Q 5175 1325 5512 700 
Q 5850 75 6175 -125 
Q 5875 -300 5750 -475 
Q 5375 -125 5137 337 
Q 4900 800 4775 1300 
Q 4650 1800 4575 2200 
L 4200 2200 
L 4200 275 
Q 4475 500 4725 775 
Q 4800 550 4925 300 
Q 4800 200 4500 -62 
Q 4200 -325 3875 -600 
Q 3775 -425 3575 -175 
Q 3775 -25 3750 350 
L 3750 2200 
Q 3575 2200 3225 2175 
L 3225 2625 
Q 3575 2600 3750 2600 
L 3750 4350 
z
M 1900 0 
Q 2225 0 2437 25 
Q 2650 50 2650 275 
L 2650 1675 
L 1775 1675 
Q 1875 2675 1850 3475 
L 2750 3475 
L 2750 4475 
L 2575 4475 
Q 2125 4475 1775 4450 
L 1775 4900 
Q 2175 4875 2550 4875 
L 3225 4875 
Q 3200 4425 3200 3975 
Q 3200 3525 3225 3075 
L 2325 3075 
L 2275 2075 
L 3125 2075 
Q 3100 1700 3100 1325 
L 3100 100 
Q 3100 -250 2912 -375 
Q 2725 -500 2125 -550 
Q 2100 -250 1900 0 
z
M 1475 1550 
Q 1300 1075 1125 525 
L 775 -575 
Q 550 -400 275 -275 
Q 500 75 712 662 
Q 925 1250 1075 1825 
Q 1250 1650 1475 1550 
z
M 5675 4650 
Q 5525 4375 5337 3950 
Q 5150 3525 4825 2875 
Q 4575 3025 4425 3075 
Q 4625 3425 4875 4000 
Q 5125 4575 5200 4875 
Q 5425 4750 5675 4650 
z
M 500 3550 
Q 1100 3200 1425 2975 
Q 1225 2675 1150 2500 
Q 750 2800 225 3125 
Q 375 3350 500 3550 
z
M 1300 4100 
Q 900 4475 425 4775 
Q 575 4950 725 5150 
Q 1200 4800 1600 4500 
Q 1425 4325 1300 4100 
z
" transform="scale(0.015625)"/>
       <path id="SimHei-8dcc" d="M 1050 2475 
Q 1025 2000 1025 1625 
L 1025 500 
Q 1250 525 1500 575 
L 1500 2975 
L 725 2975 
Q 750 3425 750 3925 
Q 750 4425 725 4900 
L 2650 4900 
Q 2625 4425 2625 3925 
Q 2625 3425 2650 2975 
L 1925 2975 
L 1925 2200 
Q 2325 2200 2650 2225 
L 2650 1750 
Q 2250 1775 1925 1775 
L 1925 650 
Q 2275 725 2825 850 
Q 2775 625 2775 425 
Q 1350 75 1025 -12 
Q 700 -100 450 -200 
Q 400 100 250 375 
Q 400 375 600 425 
L 600 1700 
Q 600 2050 575 2475 
L 1050 2475 
z
M 3325 2725 
Q 3050 2825 2875 2875 
Q 3050 3350 3125 3862 
Q 3200 4375 3200 4750 
Q 3425 4675 3750 4625 
Q 3650 4350 3600 4025 
L 4200 4025 
L 4200 4525 
Q 4200 4825 4150 5250 
Q 4450 5200 4725 5175 
Q 4675 5000 4650 4725 
Q 4625 4450 4625 4025 
Q 5400 4025 5775 4050 
L 5775 3575 
Q 5400 3600 4625 3600 
L 4625 2375 
Q 5650 2375 6050 2400 
L 6050 1950 
Q 5625 1975 4750 1975 
Q 4900 1250 5300 687 
Q 5700 125 6200 -100 
Q 5975 -275 5775 -575 
Q 5275 -100 4962 412 
Q 4650 925 4475 1575 
Q 4325 925 4087 525 
Q 3850 125 3537 -150 
Q 3225 -425 2850 -650 
Q 2675 -425 2475 -275 
Q 2900 -75 3200 187 
Q 3500 450 3737 850 
Q 3975 1250 4100 1975 
Q 3375 1975 2850 1950 
L 2850 2400 
Q 3450 2375 4175 2375 
Q 4200 3175 4200 3600 
L 3550 3600 
Q 3450 3275 3325 2725 
z
M 2225 3350 
L 2225 4525 
L 1175 4525 
L 1175 3350 
L 2225 3350 
z
" transform="scale(0.015625)"/>
       <path id="SimHei-20" transform="scale(0.015625)"/>
       <path id="SimHei-25" d="M 1400 3325 
Q 1400 2600 1187 2400 
Q 975 2200 775 2200 
Q 575 2200 362 2400 
Q 150 2600 150 3325 
Q 150 4050 362 4250 
Q 575 4450 775 4450 
Q 975 4450 1187 4250 
Q 1400 4050 1400 3325 
z
M 2625 4375 
L 700 75 
L 500 150 
L 2425 4450 
L 2625 4375 
z
M 2975 1200 
Q 2975 475 2762 275 
Q 2550 75 2350 75 
Q 2150 75 1937 275 
Q 1725 475 1725 1200 
Q 1725 1925 1937 2125 
Q 2150 2325 2350 2325 
Q 2550 2325 2762 2125 
Q 2975 1925 2975 1200 
z
M 1000 3325 
Q 1000 3775 950 3925 
Q 900 4075 775 4075 
Q 650 4075 600 3925 
Q 550 3775 550 3325 
Q 550 2875 600 2725 
Q 650 2575 775 2575 
Q 900 2575 950 2725 
Q 1000 2875 1000 3325 
z
M 2575 1200 
Q 2575 1650 2525 1800 
Q 2475 1950 2350 1950 
Q 2225 1950 2175 1800 
Q 2125 1650 2125 1200 
Q 2125 750 2175 600 
Q 2225 450 2350 450 
Q 2475 450 2525 600 
Q 2575 750 2575 1200 
z
" transform="scale(0.015625)"/>
      </defs>
      <use xlink:href="#SimHei-5e73"/>
      <use xlink:href="#SimHei-5747" transform="translate(100 0)"/>
      <use xlink:href="#SimHei-6da8" transform="translate(200 0)"/>
      <use xlink:href="#SimHei-8dcc" transform="translate(300 0)"/>
      <use xlink:href="#SimHei-20" transform="translate(400 0)"/>
      <use xlink:href="#SimHei-25" transform="translate(450 0)"/>
     </g>
    </g>
   </g>
   <g id="matplotlib.axis_2">
    <g id="ytick_1">
     <g id="line2d_15">
      <path d="M 94.7 485.202351 
L 539.749267 485.202351 
" clip-path="url(#p21ba67ae0a)" style="fill: none; stroke-dasharray: 2.96,1.28; stroke-dashoffset: 0; stroke: #ffffff; stroke-opacity: 0.25; stroke-width: 0.8"/>
     </g>
     <g id="line2d_16">
      <defs>
       <path id="mfeffb37a70" d="M 0 0 
L 3.5 0 
" style="stroke: #ffffff; stroke-width: 0.8"/>
      </defs>
      <g>
       <use xlink:href="#mfeffb37a70" x="94.7" y="485.202351" style="fill: #ffffff; stroke: #ffffff; stroke-width: 0.8"/>
      </g>
     </g>
     <g id="text_9">
      <!-- 油气开采 -->
      <g style="fill: #ffffff" transform="translate(43.2 490.007039) scale(0.12 -0.12)">
       <defs>
        <path id="SimHei-6cb9" d="M 3775 4250 
Q 3775 4575 3750 5100 
L 4275 5100 
Q 4250 4575 4250 4250 
L 4250 3750 
L 5825 3750 
Q 5800 3150 5800 2825 
L 5800 425 
Q 5800 150 5825 -525 
L 5325 -525 
L 5325 0 
L 2700 0 
L 2700 -525 
L 2200 -525 
Q 2225 125 2225 450 
L 2225 2800 
Q 2225 3125 2200 3750 
L 3775 3750 
L 3775 4250 
z
M 3775 400 
L 3775 1700 
L 2700 1700 
L 2700 400 
L 3775 400 
z
M 5325 400 
L 5325 1700 
L 4250 1700 
L 4250 400 
L 5325 400 
z
M 5325 2100 
L 5325 3350 
L 4250 3350 
L 4250 2100 
L 5325 2100 
z
M 3775 2100 
L 3775 3350 
L 2700 3350 
L 2700 2100 
L 3775 2100 
z
M 1900 1550 
Q 1725 1250 1425 525 
Q 1125 -200 925 -575 
Q 750 -375 400 -250 
Q 725 125 1025 750 
Q 1325 1375 1450 1825 
Q 1700 1650 1900 1550 
z
M 1075 4875 
Q 1600 4550 2150 4175 
Q 1950 4000 1825 3750 
Q 1325 4150 775 4475 
L 1075 4875 
z
M 625 3325 
Q 1175 3075 1800 2725 
Q 1600 2475 1550 2275 
Q 975 2650 400 2900 
Q 500 3125 625 3325 
z
" transform="scale(0.015625)"/>
        <path id="SimHei-6c14" d="M 6150 500 
Q 5800 -525 5450 -587 
Q 5100 -650 4850 -250 
Q 4600 150 4500 662 
Q 4400 1175 4450 2150 
L 1700 2150 
Q 1300 2150 850 2125 
L 850 2575 
Q 1300 2550 1700 2550 
L 4975 2550 
Q 4925 1775 4937 1350 
Q 4950 925 5062 587 
Q 5175 250 5312 75 
Q 5450 -100 5675 875 
Q 5950 550 6150 500 
z
M 2300 5050 
Q 2150 4825 1975 4550 
L 4725 4550 
Q 5175 4550 5575 4575 
L 5575 4125 
Q 5175 4150 4725 4150 
L 1775 4150 
Q 1650 3900 1387 3512 
Q 1125 3125 875 2850 
Q 675 3050 375 3125 
Q 700 3400 1125 4062 
Q 1550 4725 1725 5275 
Q 2000 5150 2300 5050 
z
M 4300 3575 
Q 4700 3575 5100 3600 
L 5100 3150 
Q 4700 3175 4300 3175 
L 2450 3175 
Q 2050 3175 1650 3150 
L 1650 3575 
Q 2050 3550 2450 3575 
L 4300 3575 
z
" transform="scale(0.015625)"/>
        <path id="SimHei-5f00" d="M 2200 4450 
Q 1450 4450 800 4425 
L 800 4925 
Q 1425 4900 1950 4900 
L 4650 4900 
Q 5150 4900 5725 4925 
L 5725 4425 
Q 5175 4450 4500 4450 
L 4500 2600 
L 4975 2600 
Q 5475 2600 6050 2625 
L 6050 2125 
Q 5475 2175 4975 2175 
L 4500 2175 
L 4500 825 
Q 4500 200 4525 -575 
L 3950 -575 
Q 3975 200 3975 825 
L 3975 2175 
L 2725 2175 
Q 2650 1700 2525 1287 
Q 2400 875 2125 450 
Q 1850 25 1100 -575 
Q 900 -350 500 -150 
Q 1000 50 1362 412 
Q 1725 775 1937 1262 
Q 2150 1750 2175 2175 
L 1600 2175 
Q 950 2175 350 2100 
L 350 2625 
Q 975 2600 1600 2600 
L 2200 2600 
L 2200 4450 
z
M 3975 2600 
L 3975 4450 
L 2725 4450 
L 2725 2600 
L 3975 2600 
z
" transform="scale(0.015625)"/>
        <path id="SimHei-91c7" d="M 2900 2250 
Q 2900 2475 2875 2925 
L 3400 2925 
Q 3375 2525 3375 2250 
L 5175 2250 
Q 5550 2250 6075 2275 
L 6075 1775 
Q 5550 1800 5200 1800 
L 3900 1800 
Q 4300 1125 4887 750 
Q 5475 375 6125 200 
Q 5800 0 5650 -350 
Q 4950 -75 4362 450 
Q 3775 975 3400 1750 
L 3375 1750 
L 3375 400 
Q 3375 -25 3400 -625 
L 2825 -625 
Q 2875 0 2875 400 
L 2875 1600 
Q 2500 1025 1950 525 
Q 1400 25 650 -400 
Q 475 -150 200 25 
Q 850 300 1437 775 
Q 2025 1250 2375 1800 
Q 750 1800 300 1775 
L 300 2275 
Q 825 2250 2900 2250 
z
M 5575 4525 
Q 4975 4525 3587 4387 
Q 2200 4250 850 4125 
Q 775 4450 625 4650 
Q 1200 4625 2775 4750 
Q 4350 4875 5250 5150 
Q 5375 4800 5575 4525 
z
M 5475 4025 
Q 5200 3700 5000 3400 
Q 4800 3100 4550 2700 
Q 4375 2850 4100 3000 
Q 4475 3475 4975 4350 
Q 5250 4150 5475 4025 
z
M 1375 4025 
Q 1950 3275 2075 2925 
Q 1875 2825 1600 2650 
Q 1400 3150 925 3750 
Q 1125 3850 1375 4025 
z
M 3000 4250 
Q 3425 3450 3500 3175 
Q 3225 3075 3025 2950 
Q 2900 3400 2550 4025 
Q 2775 4100 3000 4250 
z
" transform="scale(0.015625)"/>
       </defs>
       <use xlink:href="#SimHei-6cb9"/>
       <use xlink:href="#SimHei-6c14" transform="translate(100 0)"/>
       <use xlink:href="#SimHei-5f00" transform="translate(200 0)"/>
       <use xlink:href="#SimHei-91c7" transform="translate(300 0)"/>
      </g>
     </g>
    </g>
    <g id="ytick_2">
     <g id="line2d_17">
      <path d="M 94.7 429.642037 
L 539.749267 429.642037 
" clip-path="url(#p21ba67ae0a)" style="fill: none; stroke-dasharray: 2.96,1.28; stroke-dashoffset: 0; stroke: #ffffff; stroke-opacity: 0.25; stroke-width: 0.8"/>
     </g>
     <g id="line2d_18">
      <g>
       <use xlink:href="#mfeffb37a70" x="94.7" y="429.642037" style="fill: #ffffff; stroke: #ffffff; stroke-width: 0.8"/>
      </g>
     </g>
     <g id="text_10">
      <!-- 中药 -->
      <g style="fill: #ffffff" transform="translate(67.2 434.329537) scale(0.12 -0.12)">
       <defs>
        <path id="SimHei-4e2d" d="M 3475 5200 
Q 3450 4500 3450 3875 
L 5625 3875 
Q 5600 3375 5600 2500 
Q 5600 1650 5625 1225 
L 5075 1225 
L 5075 1600 
L 3450 1600 
L 3450 525 
Q 3450 225 3475 -600 
L 2875 -600 
Q 2925 -150 2925 450 
L 2925 1600 
L 1300 1600 
L 1300 1225 
L 750 1225 
Q 775 1600 775 2500 
Q 775 3425 750 3875 
L 2925 3875 
Q 2925 4550 2900 5200 
L 3475 5200 
z
M 5075 2000 
L 5075 3475 
L 3450 3475 
L 3450 2000 
L 5075 2000 
z
M 2925 2000 
L 2925 3475 
L 1300 3475 
L 1300 2000 
L 2925 2000 
z
" transform="scale(0.015625)"/>
        <path id="SimHei-836f" d="M 4425 3450 
Q 4225 3225 4100 2950 
L 5825 2950 
Q 5800 2500 5775 1975 
L 5725 125 
Q 5700 -225 5450 -350 
Q 5200 -475 4575 -575 
Q 4500 -300 4300 -50 
Q 4975 -50 5100 12 
Q 5225 75 5275 325 
L 5350 2500 
L 3900 2500 
Q 3600 1950 3250 1500 
Q 3100 1700 2775 1850 
Q 3125 2150 3437 2725 
Q 3750 3300 3825 3625 
Q 4075 3525 4425 3450 
z
M 2675 5150 
Q 2625 4900 2625 4525 
L 3875 4525 
Q 3875 4900 3850 5175 
L 4350 5175 
Q 4325 4900 4325 4525 
L 5200 4525 
Q 5675 4525 6125 4550 
L 6125 4075 
Q 5675 4100 5200 4100 
L 4325 4100 
Q 4325 3925 4350 3675 
L 3875 3675 
L 3875 4100 
L 2625 4100 
L 2625 3550 
L 2125 3550 
Q 2150 3850 2150 4100 
L 1175 4100 
Q 750 4100 300 4075 
L 300 4550 
Q 725 4525 1175 4525 
L 2150 4525 
Q 2150 4900 2125 5150 
L 2675 5150 
z
M 2175 3400 
Q 1950 3250 1775 2962 
Q 1600 2675 1275 2250 
L 2000 2250 
Q 2275 2650 2400 2975 
Q 2625 2825 2975 2725 
Q 2700 2550 2362 2050 
Q 2025 1550 1675 1150 
Q 2000 1200 2900 1300 
Q 2825 1100 2800 900 
Q 2475 875 1887 787 
Q 1300 700 1025 575 
Q 925 800 750 1050 
Q 1025 1075 1262 1287 
Q 1500 1500 1800 1925 
Q 1625 1925 1300 1887 
Q 975 1850 775 1750 
Q 675 2025 525 2225 
Q 825 2300 1112 2712 
Q 1400 3125 1625 3650 
Q 1850 3500 2175 3400 
z
M 3025 450 
Q 3000 175 3000 0 
Q 2325 -125 1737 -262 
Q 1150 -400 875 -525 
Q 800 -250 600 25 
Q 1100 75 1737 187 
Q 2375 300 3025 450 
z
M 4075 1775 
Q 4400 1325 4675 800 
Q 4450 700 4225 550 
Q 3975 1100 3650 1525 
Q 3875 1600 4075 1775 
z
" transform="scale(0.015625)"/>
       </defs>
       <use xlink:href="#SimHei-4e2d"/>
       <use xlink:href="#SimHei-836f" transform="translate(100 0)"/>
      </g>
     </g>
    </g>
    <g id="ytick_3">
     <g id="line2d_19">
      <path d="M 94.7 374.081722 
L 539.749267 374.081722 
" clip-path="url(#p21ba67ae0a)" style="fill: none; stroke-dasharray: 2.96,1.28; stroke-dashoffset: 0; stroke: #ffffff; stroke-opacity: 0.25; stroke-width: 0.8"/>
     </g>
     <g id="line2d_20">
      <g>
       <use xlink:href="#mfeffb37a70" x="94.7" y="374.081722" style="fill: #ffffff; stroke: #ffffff; stroke-width: 0.8"/>
      </g>
     </g>
     <g id="text_11">
      <!-- 农商行 -->
      <g style="fill: #ffffff" transform="translate(55.2 378.933285) scale(0.12 -0.12)">
       <defs>
        <path id="SimHei-519c" d="M 3225 3350 
Q 3525 2475 4000 1775 
Q 4575 2250 4950 2775 
Q 5100 2575 5350 2350 
Q 5025 2075 4275 1400 
Q 4850 625 6025 175 
Q 5750 25 5575 -325 
Q 4575 225 3950 1000 
Q 3325 1775 2925 2825 
Q 2625 2400 2325 2050 
L 2325 175 
Q 2800 425 3250 825 
Q 3350 525 3475 300 
Q 2275 -450 1925 -650 
Q 1800 -425 1625 -225 
Q 1800 -100 1825 150 
L 1825 1575 
Q 1300 1125 650 775 
Q 550 1025 250 1200 
Q 950 1450 1737 2200 
Q 2525 2950 2850 3725 
L 1400 3725 
L 1400 3075 
L 875 3075 
Q 900 3325 900 3600 
Q 900 3875 875 4150 
L 2975 4150 
Q 3100 4700 3100 5150 
Q 3350 5075 3725 5025 
Q 3650 4875 3500 4150 
L 5625 4150 
Q 5600 3850 5600 3575 
Q 5600 3300 5625 3100 
L 5125 3100 
L 5125 3725 
L 3375 3725 
Q 3300 3525 3225 3350 
z
" transform="scale(0.015625)"/>
        <path id="SimHei-5546" d="M 3150 5225 
Q 3475 4725 3550 4525 
L 4975 4525 
Q 5475 4525 5975 4550 
L 5975 4100 
Q 5475 4125 4975 4125 
L 2100 4125 
Q 2575 3625 2675 3475 
Q 2500 3400 2300 3250 
L 3650 3250 
Q 3800 3650 3950 4100 
Q 4200 4000 4525 3925 
Q 4350 3700 4125 3250 
L 5525 3250 
Q 5500 2950 5500 2425 
L 5500 -50 
Q 5500 -350 5225 -475 
Q 4950 -600 4475 -675 
Q 4450 -375 4275 -125 
Q 4775 -150 4900 -75 
Q 5025 0 5025 175 
L 5025 2900 
L 1375 2900 
L 1375 -600 
L 875 -600 
Q 900 50 900 325 
L 900 2475 
Q 900 2725 875 3250 
L 2250 3250 
Q 2075 3550 1675 3875 
Q 1875 3975 2050 4125 
L 1475 4125 
Q 900 4125 475 4100 
L 475 4550 
Q 900 4525 1450 4525 
L 3000 4525 
Q 2925 4775 2675 5050 
Q 2925 5125 3150 5225 
z
M 2600 2650 
Q 2850 2475 3075 2350 
Q 2825 2225 2350 1675 
L 4250 1675 
Q 4225 1350 4225 975 
Q 4225 600 4250 225 
L 2300 225 
Q 2325 600 2325 950 
Q 2325 1325 2300 1625 
Q 2125 1475 1950 1350 
Q 1825 1525 1575 1625 
Q 2350 2225 2600 2650 
z
M 3750 600 
L 3750 1300 
L 2775 1300 
L 2775 600 
L 3750 600 
z
M 3775 2675 
Q 4475 2225 4900 1850 
Q 4675 1725 4525 1525 
Q 4275 1825 3475 2350 
Q 3650 2475 3775 2675 
z
" transform="scale(0.015625)"/>
        <path id="SimHei-884c" d="M 5300 3100 
Q 5775 3100 6175 3125 
L 6175 2625 
Q 5775 2650 5325 2650 
L 4975 2650 
L 4975 -75 
Q 5000 -375 4787 -487 
Q 4575 -600 3950 -675 
Q 3900 -375 3675 -75 
Q 4100 -125 4275 -112 
Q 4450 -100 4475 150 
L 4475 2650 
L 3475 2650 
Q 3000 2650 2575 2625 
L 2575 3125 
Q 3025 3100 3475 3100 
L 5300 3100 
z
M 2300 3400 
Q 2075 3275 1962 3075 
Q 1850 2875 1650 2575 
L 1650 325 
Q 1650 0 1675 -675 
L 1150 -675 
Q 1175 75 1175 450 
L 1175 2050 
Q 950 1675 575 1300 
Q 400 1550 250 1725 
Q 825 2275 1150 2775 
Q 1475 3275 1725 3725 
Q 1975 3575 2300 3400 
z
M 4875 4800 
Q 5300 4800 5750 4825 
L 5750 4350 
Q 5300 4375 4825 4375 
L 3900 4375 
Q 3350 4375 2950 4350 
L 2950 4825 
Q 3350 4800 3900 4800 
L 4875 4800 
z
M 2075 4925 
Q 1875 4900 1550 4387 
Q 1225 3875 650 3250 
Q 500 3450 325 3625 
Q 725 4025 1050 4487 
Q 1375 4950 1525 5300 
Q 1775 5150 2075 4925 
z
" transform="scale(0.015625)"/>
       </defs>
       <use xlink:href="#SimHei-519c"/>
       <use xlink:href="#SimHei-5546" transform="translate(100 0)"/>
       <use xlink:href="#SimHei-884c" transform="translate(200 0)"/>
      </g>
     </g>
    </g>
    <g id="ytick_4">
     <g id="line2d_21">
      <path d="M 94.7 318.521407 
L 539.749267 318.521407 
" clip-path="url(#p21ba67ae0a)" style="fill: none; stroke-dasharray: 2.96,1.28; stroke-dashoffset: 0; stroke: #ffffff; stroke-opacity: 0.25; stroke-width: 0.8"/>
     </g>
     <g id="line2d_22">
      <g>
       <use xlink:href="#mfeffb37a70" x="94.7" y="318.521407" style="fill: #ffffff; stroke: #ffffff; stroke-width: 0.8"/>
      </g>
     </g>
     <g id="text_12">
      <!-- 城商行 -->
      <g style="fill: #ffffff" transform="translate(55.2 323.37297) scale(0.12 -0.12)">
       <defs>
        <path id="SimHei-57ce" d="M 5225 3125 
Q 5450 3025 5775 2925 
Q 5650 2575 5562 2175 
Q 5475 1775 5337 1350 
Q 5200 925 5075 700 
Q 5325 250 5500 150 
Q 5675 50 5750 700 
Q 5975 475 6200 375 
Q 6100 -50 5937 -350 
Q 5775 -650 5537 -525 
Q 5300 -400 5100 -162 
Q 4900 75 4750 325 
Q 4550 75 4287 -175 
Q 4025 -425 3700 -625 
Q 3525 -375 3300 -225 
Q 3700 -25 3987 212 
Q 4275 450 4500 775 
Q 4275 1375 4175 2212 
Q 4075 3050 4050 3675 
L 2750 3675 
L 2750 2775 
L 3825 2775 
Q 3800 2425 3800 1975 
L 3775 950 
Q 3775 500 3537 362 
Q 3300 225 2925 150 
Q 2875 475 2750 725 
Q 3175 725 3262 800 
Q 3350 875 3350 1075 
L 3375 2350 
L 2750 2350 
Q 2750 1975 2712 1512 
Q 2675 1050 2462 537 
Q 2250 25 1775 -525 
Q 1600 -375 1300 -250 
Q 1800 250 2012 725 
Q 2225 1200 2262 1637 
Q 2300 2075 2300 2800 
Q 2300 3550 2275 4100 
L 4025 4100 
Q 4025 4575 3975 5225 
Q 4250 5175 4525 5175 
Q 4450 4750 4475 4100 
L 4850 4100 
Q 5400 4100 5925 4125 
L 5925 3650 
Q 5400 3675 4850 3675 
L 4500 3675 
Q 4525 3125 4587 2500 
Q 4650 1875 4825 1225 
Q 4975 1600 5075 2100 
Q 5175 2600 5225 3125 
z
M 1975 925 
Q 1575 800 1162 662 
Q 750 525 425 325 
Q 325 650 225 900 
Q 475 900 950 1050 
L 950 3075 
Q 600 3075 300 3050 
L 300 3500 
Q 600 3475 950 3475 
L 950 4375 
Q 950 4650 925 5025 
L 1425 5025 
Q 1400 4700 1400 4375 
L 1400 3475 
Q 1700 3475 2000 3500 
L 2000 3050 
Q 1700 3075 1400 3075 
L 1400 1200 
Q 1675 1250 2000 1375 
Q 1975 1125 1975 925 
z
M 5225 5200 
Q 5600 4750 5775 4450 
Q 5500 4325 5350 4175 
Q 5125 4575 4825 4950 
Q 5025 5050 5225 5200 
z
" transform="scale(0.015625)"/>
       </defs>
       <use xlink:href="#SimHei-57ce"/>
       <use xlink:href="#SimHei-5546" transform="translate(100 0)"/>
       <use xlink:href="#SimHei-884c" transform="translate(200 0)"/>
      </g>
     </g>
    </g>
    <g id="ytick_5">
     <g id="line2d_23">
      <path d="M 94.7 262.961093 
L 539.749267 262.961093 
" clip-path="url(#p21ba67ae0a)" style="fill: none; stroke-dasharray: 2.96,1.28; stroke-dashoffset: 0; stroke: #ffffff; stroke-opacity: 0.25; stroke-width: 0.8"/>
     </g>
     <g id="line2d_24">
      <g>
       <use xlink:href="#mfeffb37a70" x="94.7" y="262.961093" style="fill: #ffffff; stroke: #ffffff; stroke-width: 0.8"/>
      </g>
     </g>
     <g id="text_13">
      <!-- 国有大型银行 -->
      <g style="fill: #ffffff" transform="translate(19.2 267.812655) scale(0.12 -0.12)">
       <defs>
        <path id="SimHei-56fd" d="M 5775 4975 
Q 5750 4350 5750 3575 
L 5750 900 
Q 5750 125 5775 -625 
L 5275 -625 
L 5275 -275 
L 1125 -275 
L 1125 -650 
L 625 -650 
Q 650 125 650 950 
L 650 3575 
Q 650 4325 625 4975 
L 5775 4975 
z
M 5275 100 
L 5275 4600 
L 1125 4600 
L 1125 100 
L 5275 100 
z
M 3975 3925 
Q 4350 3925 4775 3950 
L 4775 3500 
Q 4400 3525 3975 3525 
L 3350 3525 
L 3350 2700 
L 3800 2700 
Q 4250 2700 4650 2725 
L 4650 2275 
Q 4250 2300 3800 2300 
L 3350 2300 
L 3350 1175 
L 4050 1175 
Q 4500 1175 4900 1200 
L 4900 750 
Q 4525 775 4050 775 
L 2350 775 
Q 1925 775 1500 750 
L 1500 1200 
Q 1925 1175 2350 1175 
L 2900 1175 
L 2900 2300 
L 2550 2300 
Q 2125 2300 1750 2275 
L 1750 2725 
Q 2125 2700 2550 2700 
L 2900 2700 
L 2900 3525 
L 2525 3525 
Q 2075 3525 1650 3500 
L 1650 3950 
Q 2075 3925 2525 3925 
L 3975 3925 
z
M 4050 2125 
Q 4175 2000 4550 1600 
Q 4300 1450 4125 1325 
Q 4050 1425 3700 1850 
Q 3900 2000 4050 2125 
z
" transform="scale(0.015625)"/>
        <path id="SimHei-6709" d="M 275 1625 
Q 850 1975 1400 2537 
Q 1950 3100 2400 3925 
L 1500 3925 
Q 1150 3925 625 3900 
L 625 4375 
Q 1275 4350 1600 4350 
L 2550 4350 
Q 2750 4950 2775 5225 
Q 3150 5125 3375 5075 
Q 3300 5000 3125 4350 
L 5150 4350 
Q 5575 4350 6025 4375 
L 6025 3900 
Q 5575 3925 5225 3925 
L 2975 3925 
Q 2800 3600 2600 3275 
L 5475 3275 
Q 5450 2650 5450 2150 
L 5450 125 
Q 5450 -225 5250 -387 
Q 5050 -550 4400 -600 
Q 4375 -325 4225 0 
Q 4600 -50 4775 -25 
Q 4950 0 4950 250 
L 4950 750 
L 2350 750 
L 2350 -575 
L 1800 -575 
Q 1825 50 1825 500 
L 1825 2275 
Q 1300 1675 725 1225 
Q 625 1400 275 1625 
z
M 4950 2175 
L 4950 2875 
L 2350 2875 
L 2350 2175 
L 4950 2175 
z
M 4950 1150 
L 4950 1775 
L 2350 1775 
L 2350 1150 
L 4950 1150 
z
" transform="scale(0.015625)"/>
        <path id="SimHei-5927" d="M 2900 3400 
Q 2925 4275 2912 4575 
Q 2900 4875 2875 5150 
Q 3175 5100 3550 5075 
Q 3475 4825 3437 4350 
Q 3400 3875 3400 3400 
L 4675 3400 
Q 5350 3400 5925 3450 
L 5925 2900 
Q 5425 2925 4900 2925 
L 3425 2925 
Q 3525 2500 3775 2062 
Q 4025 1625 4287 1287 
Q 4550 950 5012 575 
Q 5475 200 6025 -50 
Q 5825 -200 5625 -550 
Q 5175 -300 4737 75 
Q 4300 450 3862 1062 
Q 3425 1675 3200 2200 
Q 3000 1650 2775 1287 
Q 2550 925 2287 625 
Q 2025 325 1612 25 
Q 1200 -275 675 -575 
Q 475 -275 225 -50 
Q 750 125 1262 450 
Q 1775 775 2100 1187 
Q 2425 1600 2625 2050 
Q 2825 2500 2875 2925 
L 1500 2925 
Q 900 2925 550 2900 
L 550 3450 
Q 900 3425 1500 3400 
L 2900 3400 
z
" transform="scale(0.015625)"/>
        <path id="SimHei-578b" d="M 2625 1775 
Q 2650 2325 2650 2700 
L 2650 3000 
L 1825 3000 
Q 1725 2375 1425 2000 
Q 1125 1625 775 1425 
Q 650 1650 375 1900 
Q 850 2075 1062 2362 
Q 1275 2650 1350 3000 
Q 900 3000 375 2975 
L 375 3450 
Q 925 3425 1400 3425 
Q 1425 3950 1425 4475 
Q 1075 4475 700 4450 
L 700 4900 
Q 1050 4875 1525 4875 
L 3000 4875 
Q 3275 4875 3650 4900 
L 3650 4450 
Q 3325 4475 3125 4475 
L 3125 3425 
Q 3450 3425 3825 3450 
L 3825 2975 
Q 3450 3000 3125 3000 
L 3125 2675 
Q 3125 2225 3150 1775 
L 2625 1775 
z
M 3000 1175 
Q 3000 1375 2975 1725 
L 3500 1725 
Q 3475 1375 3475 1175 
L 4550 1175 
Q 5050 1175 5450 1200 
L 5450 725 
Q 4975 750 4550 750 
L 3475 750 
L 3475 -50 
L 5275 -50 
Q 5700 -50 6100 -25 
L 6100 -500 
Q 5725 -475 5300 -475 
L 1250 -475 
Q 775 -475 400 -500 
L 400 -25 
Q 775 -50 1250 -50 
L 3000 -50 
L 3000 750 
L 2025 750 
Q 1500 750 975 725 
L 1050 1200 
Q 1500 1175 2025 1175 
L 3000 1175 
z
M 5775 5200 
Q 5750 4775 5750 4325 
L 5750 2400 
Q 5775 1950 5612 1775 
Q 5450 1600 4900 1525 
Q 4825 1775 4675 2100 
Q 5175 2075 5237 2150 
Q 5300 2225 5300 2525 
L 5300 4325 
Q 5300 4775 5275 5200 
L 5775 5200 
z
M 4600 4750 
Q 4575 4450 4575 3975 
L 4575 3200 
Q 4575 2825 4600 2425 
L 4100 2425 
Q 4125 2825 4125 3200 
L 4125 3975 
Q 4125 4450 4100 4750 
L 4600 4750 
z
M 2650 3425 
L 2650 4475 
L 1875 4475 
Q 1850 3750 1850 3425 
L 2650 3425 
z
" transform="scale(0.015625)"/>
        <path id="SimHei-94f6" d="M 5675 4900 
Q 5650 4425 5650 3875 
L 5650 3275 
Q 5650 2850 5675 2375 
L 4450 2375 
Q 4525 1925 4725 1500 
Q 5225 1825 5500 2225 
Q 5675 2050 5950 1800 
Q 5225 1400 4925 1100 
Q 5350 375 6200 25 
Q 5900 -175 5725 -450 
Q 5125 -50 4650 712 
Q 4175 1475 4000 2375 
L 3575 2375 
L 3575 150 
Q 3775 250 4200 600 
Q 4275 350 4400 150 
Q 3925 -100 3225 -625 
Q 3075 -375 2975 -200 
Q 3125 25 3150 450 
L 3150 3775 
Q 3150 4300 3125 4900 
L 5675 4900 
z
M 2500 2775 
Q 2100 2800 1850 2800 
L 1850 2075 
Q 2275 2075 2725 2100 
L 2725 1600 
Q 2275 1625 1850 1625 
L 1850 350 
Q 2225 675 2500 950 
Q 2575 625 2650 425 
Q 2500 350 2150 50 
Q 1800 -250 1525 -550 
Q 1375 -325 1200 -125 
Q 1375 125 1400 475 
L 1400 1625 
Q 1050 1625 600 1600 
L 600 2100 
Q 1100 2075 1400 2075 
L 1400 2800 
Q 1250 2800 950 2775 
L 950 3200 
Q 1350 3175 1725 3175 
Q 2125 3175 2500 3200 
L 2500 2775 
z
M 550 2925 
Q 350 3175 200 3350 
Q 575 3700 862 4225 
Q 1150 4750 1350 5275 
Q 1575 5125 1950 5050 
Q 1700 4750 1425 4250 
L 1800 4250 
Q 2125 4250 2675 4275 
L 2675 3800 
Q 2125 3825 1800 3825 
L 1200 3825 
Q 750 3175 550 2925 
z
M 5200 2800 
L 5200 3450 
L 3575 3450 
L 3575 2800 
L 5200 2800 
z
M 5200 3850 
L 5200 4475 
L 3575 4475 
L 3575 3850 
L 5200 3850 
z
" transform="scale(0.015625)"/>
       </defs>
       <use xlink:href="#SimHei-56fd"/>
       <use xlink:href="#SimHei-6709" transform="translate(100 0)"/>
       <use xlink:href="#SimHei-5927" transform="translate(200 0)"/>
       <use xlink:href="#SimHei-578b" transform="translate(300 0)"/>
       <use xlink:href="#SimHei-94f6" transform="translate(400 0)"/>
       <use xlink:href="#SimHei-884c" transform="translate(500 0)"/>
      </g>
     </g>
    </g>
    <g id="ytick_6">
     <g id="line2d_25">
      <path d="M 94.7 207.400778 
L 539.749267 207.400778 
" clip-path="url(#p21ba67ae0a)" style="fill: none; stroke-dasharray: 2.96,1.28; stroke-dashoffset: 0; stroke: #ffffff; stroke-opacity: 0.25; stroke-width: 0.8"/>
     </g>
     <g id="line2d_26">
      <g>
       <use xlink:href="#mfeffb37a70" x="94.7" y="207.400778" style="fill: #ffffff; stroke: #ffffff; stroke-width: 0.8"/>
      </g>
     </g>
     <g id="text_14">
      <!-- 股份制银行 -->
      <g style="fill: #ffffff" transform="translate(31.2 212.275778) scale(0.12 -0.12)">
       <defs>
        <path id="SimHei-80a1" d="M 1575 50 
Q 1925 25 2100 50 
Q 2275 75 2275 450 
L 2275 1625 
L 1325 1625 
Q 1250 900 1125 437 
Q 1000 -25 750 -525 
Q 550 -325 225 -250 
Q 550 150 687 762 
Q 825 1375 837 2150 
Q 850 2925 850 3725 
Q 850 4525 825 4900 
L 2750 4900 
Q 2725 4400 2725 3900 
L 2725 225 
Q 2725 -250 2512 -350 
Q 2300 -450 1750 -550 
Q 1700 -225 1575 50 
z
M 5225 -275 
Q 4950 -150 4450 275 
Q 4200 25 3875 -212 
Q 3550 -450 3100 -700 
Q 2925 -375 2725 -225 
Q 3250 -50 3550 137 
Q 3850 325 4100 600 
Q 3825 950 3625 1375 
Q 3425 1750 3325 2150 
Q 3225 2150 3125 2150 
L 3125 2600 
Q 3550 2575 3950 2575 
L 5725 2575 
Q 5650 2200 5375 1600 
Q 5100 1000 4775 600 
Q 5025 425 5387 237 
Q 5750 50 6200 -50 
Q 5950 -250 5850 -600 
L 5225 -275 
z
M 5325 3750 
Q 5300 3425 5600 3425 
L 6150 3450 
Q 6050 3225 6025 3000 
L 5400 3000 
Q 4825 3000 4825 3450 
L 4825 4500 
L 4000 4500 
Q 4000 3900 3862 3512 
Q 3725 3125 3275 2750 
Q 3150 2950 2900 3125 
Q 3425 3450 3475 3950 
Q 3525 4450 3500 4900 
L 5350 4900 
Q 5325 4675 5325 4375 
L 5325 3750 
z
M 2275 2050 
L 2275 3075 
L 1350 3075 
L 1350 2050 
L 2275 2050 
z
M 2275 3475 
L 2275 4500 
L 1350 4500 
L 1350 3475 
L 2275 3475 
z
M 3800 2175 
Q 3900 1750 4050 1475 
Q 4225 1175 4450 925 
Q 4925 1550 5050 2175 
L 3950 2175 
L 3800 2175 
z
" transform="scale(0.015625)"/>
        <path id="SimHei-4efd" d="M 4750 5100 
Q 4875 4375 5250 3650 
Q 5625 2925 6200 2450 
Q 6025 2375 5775 2075 
Q 5600 2275 5350 2575 
Q 5300 2275 5275 1312 
Q 5250 350 5187 25 
Q 5125 -300 4850 -400 
Q 4575 -500 4075 -550 
Q 4000 -250 3875 0 
Q 4400 -25 4575 25 
Q 4750 75 4775 587 
Q 4800 1100 4825 2250 
L 3700 2250 
Q 3675 1300 3425 650 
Q 3175 0 2375 -625 
Q 2175 -350 2000 -225 
Q 2750 225 2987 800 
Q 3225 1375 3225 2250 
Q 3000 2250 2675 2225 
L 2675 2575 
Q 2475 2300 2150 1950 
Q 2000 2150 1750 2300 
Q 2875 3275 3225 4875 
Q 3450 4775 3750 4675 
Q 3625 4400 3425 3887 
Q 3225 3375 2775 2700 
Q 3050 2675 3400 2675 
L 5300 2675 
Q 4575 3625 4275 4975 
Q 4575 5025 4750 5100 
z
M 225 2525 
Q 575 2875 1025 3687 
Q 1475 4500 1650 5225 
Q 1975 5075 2200 4975 
Q 2050 4750 1600 3775 
L 1600 625 
Q 1600 75 1625 -575 
L 1100 -575 
Q 1125 50 1125 625 
L 1125 2925 
Q 775 2400 575 2175 
Q 425 2350 225 2525 
z
" transform="scale(0.015625)"/>
        <path id="SimHei-5236" d="M 1325 4625 
Q 1175 4375 1075 4150 
L 1800 4150 
Q 1800 4775 1775 5125 
L 2350 5125 
Q 2325 4800 2325 4150 
L 2700 4150 
Q 3200 4150 3600 4175 
L 3600 3725 
Q 3250 3750 2725 3750 
L 2325 3750 
L 2325 3025 
L 2950 3025 
Q 3325 3025 3750 3050 
L 3750 2625 
L 2325 2625 
L 2325 1950 
L 3675 1950 
Q 3650 1650 3637 1125 
Q 3625 600 3612 412 
Q 3600 225 3400 137 
Q 3200 50 2825 -25 
Q 2775 250 2650 550 
Q 2975 550 3050 587 
Q 3125 625 3125 975 
L 3125 1550 
L 2325 1550 
L 2325 175 
Q 2325 -250 2350 -550 
L 1775 -550 
Q 1800 -75 1800 175 
L 1800 1550 
L 1025 1550 
L 1025 -25 
L 500 -25 
Q 525 300 525 650 
L 525 1200 
Q 525 1675 500 1950 
L 1800 1950 
L 1800 2625 
L 1000 2625 
Q 550 2625 225 2600 
L 225 3050 
Q 550 3025 1000 3025 
L 1800 3025 
L 1800 3750 
L 925 3750 
Q 800 3450 675 3250 
Q 450 3400 225 3500 
Q 400 3750 525 4075 
Q 650 4400 750 4800 
Q 1000 4700 1325 4625 
z
M 5875 5075 
Q 5850 4825 5850 4350 
L 5850 25 
Q 5850 -325 5587 -412 
Q 5325 -500 4825 -575 
Q 4750 -250 4625 0 
Q 5050 0 5200 25 
Q 5350 50 5350 350 
L 5350 4350 
Q 5350 4775 5325 5075 
L 5875 5075 
z
M 4675 4325 
Q 4650 3975 4650 3700 
L 4650 1625 
Q 4650 1275 4675 775 
L 4125 775 
Q 4175 1200 4175 1625 
L 4175 3700 
Q 4175 3950 4125 4325 
L 4675 4325 
z
" transform="scale(0.015625)"/>
       </defs>
       <use xlink:href="#SimHei-80a1"/>
       <use xlink:href="#SimHei-4efd" transform="translate(100 0)"/>
       <use xlink:href="#SimHei-5236" transform="translate(200 0)"/>
       <use xlink:href="#SimHei-94f6" transform="translate(300 0)"/>
       <use xlink:href="#SimHei-884c" transform="translate(400 0)"/>
      </g>
     </g>
    </g>
    <g id="ytick_7">
     <g id="line2d_27">
      <path d="M 94.7 151.840463 
L 539.749267 151.840463 
" clip-path="url(#p21ba67ae0a)" style="fill: none; stroke-dasharray: 2.96,1.28; stroke-dashoffset: 0; stroke: #ffffff; stroke-opacity: 0.25; stroke-width: 0.8"/>
     </g>
     <g id="line2d_28">
      <g>
       <use xlink:href="#mfeffb37a70" x="94.7" y="151.840463" style="fill: #ffffff; stroke: #ffffff; stroke-width: 0.8"/>
      </g>
     </g>
     <g id="text_15">
      <!-- 线下药店 -->
      <g style="fill: #ffffff" transform="translate(43.2 156.715463) scale(0.12 -0.12)">
       <defs>
        <path id="SimHei-7ebf" d="M 3450 4300 
Q 3450 4675 3375 5125 
Q 3700 5100 4050 5050 
Q 3975 4900 3950 4562 
Q 3925 4225 3950 3600 
L 4800 3750 
Q 5225 3850 5650 3975 
L 5750 3500 
Q 5325 3450 4875 3375 
L 3975 3200 
Q 3975 2800 4025 2500 
L 5000 2675 
Q 5500 2775 5950 2925 
L 6025 2450 
Q 5575 2375 5075 2275 
L 4100 2100 
Q 4150 1600 4350 1175 
Q 4575 1350 4787 1575 
Q 5000 1800 5175 2075 
Q 5550 1775 5750 1675 
Q 5425 1525 5237 1337 
Q 5050 1150 4625 750 
Q 4925 250 5162 112 
Q 5400 -25 5500 100 
Q 5600 225 5675 625 
Q 5900 450 6200 350 
Q 5775 -750 5275 -537 
Q 4775 -325 4225 450 
Q 3875 175 3537 -62 
Q 3200 -300 2700 -550 
Q 2575 -300 2325 -100 
Q 2825 75 3175 275 
Q 3525 475 3975 850 
Q 3750 1350 3650 2025 
Q 2900 1900 2600 1800 
L 2525 2275 
Q 2825 2275 3550 2425 
Q 3500 2825 3500 3100 
Q 2825 2950 2575 2875 
L 2475 3350 
Q 2725 3350 3450 3500 
L 3450 4300 
z
M 1950 4875 
Q 1700 4650 1462 4237 
Q 1225 3825 825 3225 
Q 1425 3250 1650 3250 
Q 1875 3625 2050 4075 
Q 2300 3900 2600 3800 
Q 2350 3550 2087 3125 
Q 1825 2700 1175 1675 
Q 1850 1725 2375 1775 
Q 2300 1525 2300 1350 
Q 2125 1350 1525 1287 
Q 925 1225 550 1125 
Q 525 1375 400 1650 
Q 700 1725 950 2050 
Q 1200 2375 1475 2875 
Q 650 2825 425 2675 
Q 350 2950 200 3225 
Q 525 3450 825 3962 
Q 1125 4475 1375 5150 
Q 1625 4975 1950 4875 
z
M 2575 875 
Q 2550 600 2575 450 
Q 1950 325 1450 200 
Q 950 75 525 -75 
Q 450 200 250 475 
Q 950 550 1325 612 
Q 1700 675 2575 875 
z
M 4850 4025 
Q 4675 4300 4375 4675 
L 4775 4875 
Q 4875 4750 5275 4275 
Q 5025 4175 4850 4025 
z
" transform="scale(0.015625)"/>
        <path id="SimHei-4e0b" d="M 5000 4700 
Q 5475 4700 5975 4725 
L 5975 4200 
Q 5425 4225 5000 4225 
L 3275 4225 
L 3275 375 
Q 3275 50 3300 -450 
L 2725 -450 
Q 2750 0 2750 375 
L 2750 4225 
L 1375 4225 
Q 875 4225 400 4200 
L 400 4725 
Q 875 4700 1375 4700 
L 5000 4700 
z
M 5650 1400 
Q 5400 1225 5200 1000 
Q 4800 1525 3650 2575 
L 4025 2950 
Q 4700 2400 5650 1400 
z
" transform="scale(0.015625)"/>
        <path id="SimHei-5e97" d="M 3800 3900 
Q 3775 3500 3775 3125 
L 5100 3125 
Q 5500 3125 5800 3150 
L 5800 2675 
Q 5525 2700 5100 2700 
L 3775 2700 
L 3775 1850 
L 5425 1850 
Q 5400 1200 5400 650 
Q 5400 100 5425 -525 
L 4900 -525 
L 4900 -75 
L 2400 -75 
L 2400 -550 
L 1900 -550 
Q 1925 150 1925 700 
Q 1925 1275 1900 1850 
L 3275 1850 
L 3275 3100 
Q 3275 3525 3250 3900 
L 3800 3900 
z
M 3450 5250 
Q 3625 4825 3750 4450 
L 4625 4450 
Q 5275 4450 5750 4475 
L 5750 4025 
Q 5300 4050 4825 4050 
L 1475 4050 
Q 1475 2450 1450 1862 
Q 1425 1275 1300 662 
Q 1175 50 900 -525 
Q 675 -350 375 -225 
Q 750 350 862 1062 
Q 975 1775 987 2612 
Q 1000 3450 950 4450 
L 3150 4450 
Q 3100 4675 2925 5075 
Q 3175 5125 3450 5250 
z
M 4900 325 
L 4900 1425 
L 2400 1425 
L 2400 325 
L 4900 325 
z
" transform="scale(0.015625)"/>
       </defs>
       <use xlink:href="#SimHei-7ebf"/>
       <use xlink:href="#SimHei-4e0b" transform="translate(100 0)"/>
       <use xlink:href="#SimHei-836f" transform="translate(200 0)"/>
       <use xlink:href="#SimHei-5e97" transform="translate(300 0)"/>
      </g>
     </g>
    </g>
    <g id="ytick_8">
     <g id="line2d_29">
      <path d="M 94.7 96.280149 
L 539.749267 96.280149 
" clip-path="url(#p21ba67ae0a)" style="fill: none; stroke-dasharray: 2.96,1.28; stroke-dashoffset: 0; stroke: #ffffff; stroke-opacity: 0.25; stroke-width: 0.8"/>
     </g>
     <g id="line2d_30">
      <g>
       <use xlink:href="#mfeffb37a70" x="94.7" y="96.280149" style="fill: #ffffff; stroke: #ffffff; stroke-width: 0.8"/>
      </g>
     </g>
     <g id="text_16">
      <!-- 其他农产品加工 -->
      <g style="fill: #ffffff" transform="translate(7.2 101.084836) scale(0.12 -0.12)">
       <defs>
        <path id="SimHei-5176" d="M 4725 1375 
Q 5550 1375 6025 1400 
L 6025 1000 
Q 5575 1025 5250 1025 
L 1225 1025 
Q 675 1025 325 1000 
L 325 1400 
Q 525 1375 1650 1375 
L 1650 3950 
Q 1050 3950 675 3925 
L 675 4350 
Q 875 4325 1650 4325 
Q 1650 4875 1625 5125 
L 2225 5125 
Q 2175 4850 2175 4325 
L 4200 4325 
Q 4200 4775 4175 5100 
L 4750 5100 
Q 4725 4775 4725 4325 
Q 5275 4325 5675 4350 
L 5675 3925 
Q 5250 3950 4725 3950 
L 4725 1375 
z
M 4200 1375 
L 4200 2000 
L 2175 2000 
L 2175 1375 
L 4200 1375 
z
M 4200 2375 
L 4200 3000 
L 2175 3000 
L 2175 2375 
L 4200 2375 
z
M 4200 3350 
L 4200 3950 
L 2175 3950 
L 2175 3350 
L 4200 3350 
z
M 4175 875 
Q 5200 225 5750 -225 
Q 5500 -400 5325 -625 
Q 5025 -250 3825 500 
Q 4075 700 4175 875 
z
M 525 -275 
Q 800 -125 1275 212 
Q 1750 550 2075 875 
Q 2275 675 2475 500 
Q 2200 300 900 -650 
Q 750 -425 525 -275 
z
" transform="scale(0.015625)"/>
        <path id="SimHei-4ed6" d="M 2500 2875 
Q 2500 3850 2475 4225 
L 3000 4225 
Q 2975 3900 2975 3025 
L 3775 3275 
L 3775 4300 
Q 3775 4800 3725 5150 
L 4250 5150 
Q 4225 4800 4225 4275 
L 4225 3450 
L 5575 3925 
Q 5550 2600 5550 2075 
Q 5550 1550 5275 1425 
Q 5000 1300 4575 1225 
Q 4525 1475 4375 1750 
Q 4850 1750 4950 1787 
Q 5050 1825 5050 2025 
L 5075 3275 
L 4225 2975 
L 4225 1375 
Q 4225 950 4250 650 
L 3750 650 
Q 3775 950 3775 1375 
L 3775 2850 
L 2975 2575 
L 2975 425 
Q 2975 75 3325 100 
L 5100 100 
Q 5300 100 5400 212 
Q 5500 325 5550 925 
Q 5850 700 6125 650 
Q 5950 0 5750 -175 
Q 5550 -350 5175 -325 
L 3225 -325 
Q 2550 -350 2500 275 
L 2500 2425 
Q 2125 2300 1900 2175 
L 1700 2650 
Q 2025 2700 2500 2875 
z
M 2250 4925 
Q 2025 4625 1650 3775 
L 1650 475 
Q 1650 -150 1700 -575 
L 1175 -575 
Q 1200 -150 1200 475 
L 1200 2925 
Q 875 2325 700 2050 
Q 525 2275 300 2400 
Q 625 2750 1062 3637 
Q 1500 4525 1650 5175 
Q 2050 5000 2250 4925 
z
" transform="scale(0.015625)"/>
        <path id="SimHei-4ea7" d="M 5050 3700 
Q 4925 3550 4762 3262 
Q 4600 2975 4475 2725 
L 5250 2725 
Q 5775 2725 5950 2750 
L 5950 2250 
Q 5750 2275 5300 2275 
L 1525 2275 
Q 1525 300 575 -625 
Q 475 -425 200 -250 
Q 850 475 950 1262 
Q 1050 2050 1000 2725 
L 3950 2725 
Q 4275 3400 4425 3975 
Q 4750 3825 5050 3700 
z
M 3500 5275 
Q 3550 5100 3700 4475 
L 4950 4475 
Q 5400 4475 5800 4500 
L 5800 4025 
Q 5400 4050 5025 4050 
L 2000 4050 
Q 1625 4050 1050 4025 
L 1050 4500 
Q 1650 4475 1825 4475 
L 3125 4475 
Q 3050 4800 2925 5150 
Q 3225 5225 3500 5275 
z
M 2375 3950 
Q 2675 3550 2950 3025 
Q 2700 2925 2425 2775 
Q 2200 3300 1900 3675 
Q 2150 3825 2375 3950 
z
" transform="scale(0.015625)"/>
        <path id="SimHei-54c1" d="M 4900 4875 
Q 4875 4425 4875 3850 
Q 4875 3300 4900 2875 
L 1475 2875 
Q 1525 3300 1525 3875 
Q 1525 4450 1475 4875 
L 4900 4875 
z
M 5850 2300 
Q 5825 1850 5825 925 
Q 5825 25 5850 -350 
L 5375 -350 
L 5375 0 
L 3950 0 
L 3950 -425 
L 3475 -425 
Q 3500 0 3500 925 
Q 3500 1850 3475 2300 
L 5850 2300 
z
M 2400 -400 
L 2400 0 
L 1050 0 
L 1050 -425 
L 575 -425 
Q 600 0 600 925 
Q 600 1875 575 2300 
L 2875 2300 
Q 2825 1875 2825 1100 
Q 2825 350 2875 -400 
L 2400 -400 
z
M 4425 3300 
L 4425 4450 
L 1975 4450 
L 1975 3300 
L 4425 3300 
z
M 5375 450 
L 5375 1850 
L 3950 1850 
L 3950 450 
L 5375 450 
z
M 2400 450 
L 2400 1850 
L 1050 1850 
L 1050 450 
L 2400 450 
z
" transform="scale(0.015625)"/>
        <path id="SimHei-52a0" d="M 5700 4150 
Q 5675 3625 5675 3100 
L 5675 900 
Q 5675 300 5700 -350 
L 5225 -350 
L 5225 225 
L 4150 225 
L 4150 -475 
L 3675 -475 
Q 3700 25 3700 550 
L 3700 3100 
Q 3700 3600 3675 4150 
L 5700 4150 
z
M 3125 225 
Q 3050 -250 2725 -337 
Q 2400 -425 2025 -450 
Q 2025 -225 1875 125 
Q 2300 100 2475 137 
Q 2650 175 2675 425 
L 2850 3425 
L 1975 3425 
Q 1925 2450 1812 1875 
Q 1700 1300 1562 875 
Q 1425 450 1187 37 
Q 950 -375 775 -600 
Q 600 -400 275 -250 
Q 750 225 987 787 
Q 1225 1350 1312 1837 
Q 1400 2325 1425 2637 
Q 1450 2950 1475 3425 
L 1125 3425 
Q 850 3425 550 3400 
L 550 3900 
Q 825 3850 1175 3850 
L 1500 3850 
Q 1525 4375 1525 4475 
Q 1525 4600 1500 5075 
Q 1775 5050 2125 5025 
Q 2075 4825 2050 4600 
Q 2025 4375 2000 3850 
L 3350 3850 
Q 3325 3650 3325 3425 
L 3125 225 
z
M 5225 725 
L 5225 3700 
L 4150 3700 
L 4150 725 
L 5225 725 
z
" transform="scale(0.015625)"/>
        <path id="SimHei-5de5" d="M 4475 4675 
Q 5075 4675 5575 4700 
L 5575 4200 
Q 5075 4225 4475 4225 
L 3450 4225 
L 3450 275 
L 5075 275 
Q 5650 275 6125 300 
L 6125 -200 
Q 5650 -175 5100 -175 
L 1225 -175 
Q 675 -175 275 -200 
L 275 300 
Q 700 275 1250 275 
L 2900 275 
L 2900 4225 
L 1900 4225 
Q 1250 4225 775 4200 
L 775 4700 
Q 1250 4675 1900 4675 
L 4475 4675 
z
" transform="scale(0.015625)"/>
       </defs>
       <use xlink:href="#SimHei-5176"/>
       <use xlink:href="#SimHei-4ed6" transform="translate(100 0)"/>
       <use xlink:href="#SimHei-519c" transform="translate(200 0)"/>
       <use xlink:href="#SimHei-4ea7" transform="translate(300 0)"/>
       <use xlink:href="#SimHei-54c1" transform="translate(400 0)"/>
       <use xlink:href="#SimHei-52a0" transform="translate(500 0)"/>
       <use xlink:href="#SimHei-5de5" transform="translate(600 0)"/>
      </g>
     </g>
    </g>
   </g>
   <g id="line2d_31">
    <path d="M 94.7 529.095 
L 94.7 52.3875 
" clip-path="url(#p21ba67ae0a)" style="fill: none; stroke: #ffffff; stroke-linecap: square"/>
   </g>
   <g id="patch_11">
    <path d="M 94.7 529.095 
L 94.7 52.3875 
" style="fill: none; stroke: #ffffff; stroke-width: 0.8; stroke-linejoin: miter; stroke-linecap: square"/>
   </g>
   <g id="patch_12">
    <path d="M 94.7 529.095 
L 539.749267 529.095 
" style="fill: none; stroke: #ffffff; stroke-width: 0.8; stroke-linejoin: miter; stroke-linecap: square"/>
   </g>
   <g id="text_17">
    <!-- +3.2% (6只) -->
    <g style="fill: #ffffff" transform="translate(538.304857 488.067586) scale(0.09 -0.09)">
     <defs>
      <path id="SimHei-2b" d="M 3000 2125 
L 1775 2125 
L 1775 900 
L 1350 900 
L 1350 2125 
L 125 2125 
L 125 2525 
L 1350 2525 
L 1350 3750 
L 1775 3750 
L 1775 2525 
L 3000 2525 
L 3000 2125 
z
" transform="scale(0.015625)"/>
      <path id="SimHei-28" d="M 2975 -200 
L 2700 -475 
Q 2075 125 1762 775 
Q 1450 1425 1450 2250 
Q 1450 3075 1762 3725 
Q 2075 4375 2700 5000 
L 2975 4725 
Q 2400 4175 2112 3587 
Q 1825 3000 1825 2250 
Q 1825 1500 2112 912 
Q 2400 325 2975 -200 
z
" transform="scale(0.015625)"/>
      <path id="SimHei-36" d="M 250 1612 
Q 275 1975 387 2225 
Q 500 2475 725 2850 
L 1750 4450 
L 2325 4450 
L 1275 2800 
Q 1950 2975 2350 2750 
Q 2750 2525 2887 2237 
Q 3025 1950 3037 1612 
Q 3050 1275 2937 950 
Q 2825 625 2537 362 
Q 2250 100 1737 75 
Q 1225 50 862 262 
Q 500 475 362 862 
Q 225 1250 250 1612 
z
M 1025 787 
Q 1250 550 1625 525 
Q 2000 500 2250 775 
Q 2500 1050 2500 1575 
Q 2500 2100 2187 2300 
Q 1875 2500 1487 2450 
Q 1100 2400 925 2075 
Q 750 1750 775 1387 
Q 800 1025 1025 787 
z
" transform="scale(0.015625)"/>
      <path id="SimHei-53ea" d="M 5150 4800 
Q 5125 4375 5125 3400 
Q 5125 2450 5150 1875 
L 1225 1875 
Q 1250 2325 1250 3300 
Q 1250 4275 1225 4800 
L 5150 4800 
z
M 4600 2325 
L 4600 4375 
L 1775 4375 
L 1775 2325 
L 4600 2325 
z
M 4175 1575 
Q 5400 300 5925 -200 
Q 5850 -250 5425 -600 
Q 4975 0 3750 1225 
Q 3975 1375 4175 1575 
z
M 2575 1200 
Q 2250 850 1775 337 
Q 1300 -175 800 -675 
Q 625 -500 375 -275 
Q 825 50 1300 562 
Q 1775 1075 2125 1600 
Q 2425 1375 2575 1200 
z
" transform="scale(0.015625)"/>
      <path id="SimHei-29" d="M 1675 2250 
Q 1675 1425 1362 775 
Q 1050 125 425 -475 
L 150 -200 
Q 725 325 1012 912 
Q 1300 1500 1300 2250 
Q 1300 3000 1012 3587 
Q 725 4175 150 4725 
L 425 5000 
Q 1050 4375 1362 3725 
Q 1675 3075 1675 2250 
z
" transform="scale(0.015625)"/>
     </defs>
     <use xlink:href="#SimHei-2b"/>
     <use xlink:href="#SimHei-33" transform="translate(50 0)"/>
     <use xlink:href="#SimHei-2e" transform="translate(100 0)"/>
     <use xlink:href="#SimHei-32" transform="translate(150 0)"/>
     <use xlink:href="#SimHei-25" transform="translate(200 0)"/>
     <use xlink:href="#SimHei-20" transform="translate(250 0)"/>
     <use xlink:href="#SimHei-28" transform="translate(300 0)"/>
     <use xlink:href="#SimHei-36" transform="translate(350 0)"/>
     <use xlink:href="#SimHei-53ea" transform="translate(400 0)"/>
     <use xlink:href="#SimHei-29" transform="translate(500 0)"/>
    </g>
   </g>
   <g id="text_18">
    <!-- +2.8% (68只) -->
    <g style="fill: #ffffff" transform="translate(488.039348 432.507271) scale(0.09 -0.09)">
     <defs>
      <path id="SimHei-38" d="M 175 1375 
Q 175 1675 325 1962 
Q 475 2250 825 2425 
Q 525 2600 425 2812 
Q 325 3025 312 3300 
Q 300 3575 387 3775 
Q 475 3975 650 4150 
Q 825 4325 1037 4387 
Q 1250 4450 1500 4450 
Q 1750 4450 1950 4400 
Q 2150 4350 2375 4187 
Q 2600 4025 2700 3725 
Q 2800 3425 2687 3025 
Q 2575 2625 2100 2400 
Q 2525 2275 2700 2012 
Q 2875 1750 2875 1375 
Q 2875 1000 2762 775 
Q 2650 550 2512 400 
Q 2375 250 2137 162 
Q 1900 75 1537 75 
Q 1175 75 912 162 
Q 650 250 475 425 
Q 300 600 237 837 
Q 175 1075 175 1375 
z
M 687 1400 
Q 675 1100 787 875 
Q 900 650 1200 587 
Q 1500 525 1825 600 
Q 2150 675 2275 950 
Q 2400 1225 2362 1500 
Q 2325 1775 2050 1962 
Q 1775 2150 1450 2125 
Q 1125 2100 912 1900 
Q 700 1700 687 1400 
z
M 775 3350 
Q 775 3100 950 2875 
Q 1125 2650 1500 2650 
Q 1875 2650 2062 2875 
Q 2250 3100 2237 3412 
Q 2225 3725 2012 3875 
Q 1800 4025 1437 4000 
Q 1075 3975 925 3787 
Q 775 3600 775 3350 
z
" transform="scale(0.015625)"/>
     </defs>
     <use xlink:href="#SimHei-2b"/>
     <use xlink:href="#SimHei-32" transform="translate(50 0)"/>
     <use xlink:href="#SimHei-2e" transform="translate(100 0)"/>
     <use xlink:href="#SimHei-38" transform="translate(150 0)"/>
     <use xlink:href="#SimHei-25" transform="translate(200 0)"/>
     <use xlink:href="#SimHei-20" transform="translate(250 0)"/>
     <use xlink:href="#SimHei-28" transform="translate(300 0)"/>
     <use xlink:href="#SimHei-36" transform="translate(350 0)"/>
     <use xlink:href="#SimHei-38" transform="translate(400 0)"/>
     <use xlink:href="#SimHei-53ea" transform="translate(450 0)"/>
     <use xlink:href="#SimHei-29" transform="translate(550 0)"/>
    </g>
   </g>
   <g id="text_19">
    <!-- +2.2% (10只) -->
    <g style="fill: #ffffff" transform="translate(408.661319 376.946956) scale(0.09 -0.09)">
     <use xlink:href="#SimHei-2b"/>
     <use xlink:href="#SimHei-32" transform="translate(50 0)"/>
     <use xlink:href="#SimHei-2e" transform="translate(100 0)"/>
     <use xlink:href="#SimHei-32" transform="translate(150 0)"/>
     <use xlink:href="#SimHei-25" transform="translate(200 0)"/>
     <use xlink:href="#SimHei-20" transform="translate(250 0)"/>
     <use xlink:href="#SimHei-28" transform="translate(300 0)"/>
     <use xlink:href="#SimHei-31" transform="translate(350 0)"/>
     <use xlink:href="#SimHei-30" transform="translate(400 0)"/>
     <use xlink:href="#SimHei-53ea" transform="translate(450 0)"/>
     <use xlink:href="#SimHei-29" transform="translate(550 0)"/>
    </g>
   </g>
   <g id="text_20">
    <!-- +1.9% (17只) -->
    <g style="fill: #ffffff" transform="translate(369.128691 321.386642) scale(0.09 -0.09)">
     <defs>
      <path id="SimHei-39" d="M 800 75 
Q 1350 1000 1700 1750 
Q 1075 1650 662 1912 
Q 250 2175 162 2625 
Q 75 3075 175 3437 
Q 275 3800 487 4037 
Q 700 4275 1000 4375 
Q 1300 4475 1537 4475 
Q 1775 4475 2025 4375 
Q 2275 4275 2475 4075 
Q 2675 3875 2750 3662 
Q 2825 3450 2825 3112 
Q 2825 2775 2575 2250 
Q 2325 1725 1350 75 
L 800 75 
z
M 662 2875 
Q 700 2550 937 2337 
Q 1175 2125 1450 2150 
Q 1725 2175 1887 2300 
Q 2050 2425 2200 2725 
Q 2300 3100 2250 3362 
Q 2200 3625 1987 3800 
Q 1775 3975 1525 3975 
Q 1375 4000 1137 3900 
Q 900 3800 762 3500 
Q 625 3200 662 2875 
z
" transform="scale(0.015625)"/>
      <path id="SimHei-37" d="M 850 150 
Q 1300 2050 2425 3925 
L 275 3925 
L 275 4375 
L 2950 4375 
L 2950 3950 
Q 1775 2050 1400 150 
L 850 150 
z
" transform="scale(0.015625)"/>
     </defs>
     <use xlink:href="#SimHei-2b"/>
     <use xlink:href="#SimHei-31" transform="translate(50 0)"/>
     <use xlink:href="#SimHei-2e" transform="translate(100 0)"/>
     <use xlink:href="#SimHei-39" transform="translate(150 0)"/>
     <use xlink:href="#SimHei-25" transform="translate(200 0)"/>
     <use xlink:href="#SimHei-20" transform="translate(250 0)"/>
     <use xlink:href="#SimHei-28" transform="translate(300 0)"/>
     <use xlink:href="#SimHei-31" transform="translate(350 0)"/>
     <use xlink:href="#SimHei-37" transform="translate(400 0)"/>
     <use xlink:href="#SimHei-53ea" transform="translate(450 0)"/>
     <use xlink:href="#SimHei-29" transform="translate(550 0)"/>
    </g>
   </g>
   <g id="text_21">
    <!-- +1.9% (6只) -->
    <g style="fill: #ffffff" transform="translate(363.178706 265.826327) scale(0.09 -0.09)">
     <use xlink:href="#SimHei-2b"/>
     <use xlink:href="#SimHei-31" transform="translate(50 0)"/>
     <use xlink:href="#SimHei-2e" transform="translate(100 0)"/>
     <use xlink:href="#SimHei-39" transform="translate(150 0)"/>
     <use xlink:href="#SimHei-25" transform="translate(200 0)"/>
     <use xlink:href="#SimHei-20" transform="translate(250 0)"/>
     <use xlink:href="#SimHei-28" transform="translate(300 0)"/>
     <use xlink:href="#SimHei-36" transform="translate(350 0)"/>
     <use xlink:href="#SimHei-53ea" transform="translate(400 0)"/>
     <use xlink:href="#SimHei-29" transform="translate(500 0)"/>
    </g>
   </g>
   <g id="text_22">
    <!-- +1.3% (9只) -->
    <g style="fill: #ffffff" transform="translate(279.423016 210.266012) scale(0.09 -0.09)">
     <use xlink:href="#SimHei-2b"/>
     <use xlink:href="#SimHei-31" transform="translate(50 0)"/>
     <use xlink:href="#SimHei-2e" transform="translate(100 0)"/>
     <use xlink:href="#SimHei-33" transform="translate(150 0)"/>
     <use xlink:href="#SimHei-25" transform="translate(200 0)"/>
     <use xlink:href="#SimHei-20" transform="translate(250 0)"/>
     <use xlink:href="#SimHei-28" transform="translate(300 0)"/>
     <use xlink:href="#SimHei-39" transform="translate(350 0)"/>
     <use xlink:href="#SimHei-53ea" transform="translate(400 0)"/>
     <use xlink:href="#SimHei-29" transform="translate(500 0)"/>
    </g>
   </g>
   <g id="text_23">
    <!-- +1.2% (7只) -->
    <g style="fill: #ffffff" transform="translate(278.924413 154.705698) scale(0.09 -0.09)">
     <use xlink:href="#SimHei-2b"/>
     <use xlink:href="#SimHei-31" transform="translate(50 0)"/>
     <use xlink:href="#SimHei-2e" transform="translate(100 0)"/>
     <use xlink:href="#SimHei-32" transform="translate(150 0)"/>
     <use xlink:href="#SimHei-25" transform="translate(200 0)"/>
     <use xlink:href="#SimHei-20" transform="translate(250 0)"/>
     <use xlink:href="#SimHei-28" transform="translate(300 0)"/>
     <use xlink:href="#SimHei-37" transform="translate(350 0)"/>
     <use xlink:href="#SimHei-53ea" transform="translate(400 0)"/>
     <use xlink:href="#SimHei-29" transform="translate(500 0)"/>
    </g>
   </g>
   <g id="text_24">
    <!-- +1.2% (7只) -->
    <g style="fill: #ffffff" transform="translate(273.538241 99.145383) scale(0.09 -0.09)">
     <use xlink:href="#SimHei-2b"/>
     <use xlink:href="#SimHei-31" transform="translate(50 0)"/>
     <use xlink:href="#SimHei-2e" transform="translate(100 0)"/>
     <use xlink:href="#SimHei-32" transform="translate(150 0)"/>
     <use xlink:href="#SimHei-25" transform="translate(200 0)"/>
     <use xlink:href="#SimHei-20" transform="translate(250 0)"/>
     <use xlink:href="#SimHei-28" transform="translate(300 0)"/>
     <use xlink:href="#SimHei-37" transform="translate(350 0)"/>
     <use xlink:href="#SimHei-53ea" transform="translate(400 0)"/>
     <use xlink:href="#SimHei-29" transform="translate(500 0)"/>
    </g>
   </g>
   <g id="text_25">
    <!-- 行业涨跌排行 (Top8) -->
    <g style="fill: #ffffff" transform="translate(255.474634 46.3875) scale(0.13 -0.13)">
     <defs>
      <path id="SimHei-4e1a" d="M 2825 5025 
Q 2775 4325 2775 3825 
L 2775 150 
L 3600 150 
L 3600 4125 
Q 3600 4525 3550 5025 
L 4175 5025 
Q 4125 4625 4125 4175 
L 4125 150 
L 5100 150 
Q 5500 150 6075 200 
L 6075 -350 
Q 5500 -300 5125 -300 
L 1325 -300 
Q 975 -300 325 -350 
L 325 200 
Q 975 150 1300 150 
L 2225 150 
L 2225 3850 
Q 2225 4375 2150 5025 
L 2825 5025 
z
M 1025 3775 
Q 1325 3000 1850 1500 
Q 1575 1450 1275 1300 
Q 825 2750 475 3550 
Q 725 3650 1025 3775 
z
M 5850 3625 
Q 5525 2775 4950 1250 
Q 4700 1400 4425 1475 
Q 4950 2450 5225 3825 
Q 5500 3725 5850 3625 
z
" transform="scale(0.015625)"/>
      <path id="SimHei-6392" d="M 225 1825 
Q 675 1900 1150 2075 
L 1150 3425 
L 950 3425 
Q 650 3425 350 3400 
L 350 3850 
Q 600 3825 950 3825 
L 1150 3825 
L 1150 4500 
Q 1150 4850 1125 5175 
L 1675 5175 
Q 1625 4900 1625 4500 
L 1625 3825 
Q 2075 3825 2275 3850 
L 2275 3400 
Q 1875 3425 1625 3425 
L 1625 2225 
Q 1950 2325 2275 2500 
Q 2275 2200 2300 2050 
Q 2075 1975 1625 1800 
L 1625 -100 
Q 1600 -425 1412 -500 
Q 1225 -575 700 -650 
Q 600 -225 450 -75 
Q 875 -125 1000 -112 
Q 1125 -100 1150 75 
L 1150 1650 
Q 850 1550 450 1300 
Q 375 1525 225 1825 
z
M 5050 5125 
Q 5025 4800 5025 4300 
L 5025 4000 
Q 5700 4000 6100 4050 
L 6100 3575 
Q 5725 3600 5525 3600 
L 5025 3600 
L 5025 2625 
Q 5625 2625 5950 2650 
L 5950 2175 
Q 5625 2200 5025 2200 
L 5025 1075 
Q 5750 1075 6150 1100 
L 6150 625 
Q 5850 650 5025 650 
L 5025 275 
Q 5025 75 5050 -600 
L 4550 -600 
L 4550 4300 
Q 4550 4850 4525 5125 
L 5050 5125 
z
M 3425 4350 
Q 3425 4925 3400 5150 
L 3925 5150 
Q 3900 4800 3900 4250 
L 3900 -600 
L 3400 -600 
Q 3425 -50 3425 275 
L 3425 650 
Q 2625 650 2225 625 
L 2225 1100 
Q 2550 1075 3425 1075 
L 3425 2200 
Q 2775 2200 2525 2150 
L 2525 2650 
Q 2750 2625 3425 2625 
L 3425 3600 
Q 2700 3600 2450 3575 
L 2450 4050 
Q 2725 4000 3425 4000 
L 3425 4350 
z
" transform="scale(0.015625)"/>
      <path id="SimHei-54" d="M 2850 3925 
L 1850 3925 
L 1850 125 
L 1275 125 
L 1275 3925 
L 275 3925 
L 275 4400 
L 2850 4400 
L 2850 3925 
z
" transform="scale(0.015625)"/>
      <path id="SimHei-6f" d="M 2925 1525 
Q 2925 875 2525 475 
Q 2125 75 1575 75 
Q 1025 75 625 475 
Q 225 875 225 1525 
Q 225 2175 625 2575 
Q 1025 2975 1575 2975 
Q 2125 2975 2525 2575 
Q 2925 2175 2925 1525 
z
M 2375 1525 
Q 2375 2025 2125 2275 
Q 1875 2525 1575 2525 
Q 1275 2525 1025 2275 
Q 775 2025 775 1525 
Q 775 1025 1025 775 
Q 1275 525 1575 525 
Q 1875 525 2125 775 
Q 2375 1025 2375 1525 
z
" transform="scale(0.015625)"/>
      <path id="SimHei-70" d="M 2825 1525 
Q 2825 800 2475 425 
Q 2125 50 1625 50 
Q 1350 50 1150 162 
Q 950 275 800 500 
L 800 -800 
L 300 -800 
L 300 2925 
L 800 2925 
L 800 2550 
Q 950 2775 1150 2875 
Q 1350 2975 1625 2975 
Q 2125 2975 2475 2612 
Q 2825 2250 2825 1525 
z
M 2275 1525 
Q 2275 2000 2087 2262 
Q 1900 2525 1525 2525 
Q 1225 2525 1012 2262 
Q 800 2000 800 1525 
Q 800 1050 1012 775 
Q 1225 500 1525 500 
Q 1900 500 2087 775 
Q 2275 1050 2275 1525 
z
" transform="scale(0.015625)"/>
     </defs>
     <use xlink:href="#SimHei-884c"/>
     <use xlink:href="#SimHei-4e1a" transform="translate(100 0)"/>
     <use xlink:href="#SimHei-6da8" transform="translate(200 0)"/>
     <use xlink:href="#SimHei-8dcc" transform="translate(300 0)"/>
     <use xlink:href="#SimHei-6392" transform="translate(400 0)"/>
     <use xlink:href="#SimHei-884c" transform="translate(500 0)"/>
     <use xlink:href="#SimHei-20" transform="translate(600 0)"/>
     <use xlink:href="#SimHei-28" transform="translate(650 0)"/>
     <use xlink:href="#SimHei-54" transform="translate(700 0)"/>
     <use xlink:href="#SimHei-6f" transform="translate(750 0)"/>
     <use xlink:href="#SimHei-70" transform="translate(800 0)"/>
     <use xlink:href="#SimHei-38" transform="translate(850 0)"/>
     <use xlink:href="#SimHei-29" transform="translate(900 0)"/>
    </g>
   </g>
  </g>
  <g id="axes_2">
   <g id="patch_13">
    <path d="M 688.230733 529.095 
L 1133.28 529.095 
L 1133.28 52.3875 
L 688.230733 52.3875 
z
"/>
   </g>
   <g id="patch_14">
    <path d="M 688.230733 507.426477 
L 779.057114 507.426477 
L 779.057114 462.978226 
L 688.230733 462.978226 
z
" clip-path="url(#p21d6cf9937)" style="fill: #2ecc71; opacity: 0.8"/>
   </g>
   <g id="patch_15">
    <path d="M 688.230733 451.866163 
L 1112.087178 451.866163 
L 1112.087178 407.417911 
L 688.230733 407.417911 
z
" clip-path="url(#p21d6cf9937)" style="fill: #27ae60; opacity: 0.8"/>
   </g>
   <g id="patch_16">
    <path d="M 688.230733 396.305848 
L 718.506193 396.305848 
L 718.506193 351.857596 
L 688.230733 351.857596 
z
" clip-path="url(#p21d6cf9937)" style="fill: #1abc9c; opacity: 0.8"/>
   </g>
   <g id="patch_17">
    <path d="M 688.230733 340.745533 
L 733.643923 340.745533 
L 733.643923 296.297281 
L 688.230733 296.297281 
z
" clip-path="url(#p21d6cf9937)" style="fill: #16a085; opacity: 0.8"/>
   </g>
   <g id="patch_18">
    <path d="M 688.230733 285.185219 
L 718.506193 285.185219 
L 718.506193 240.736967 
L 688.230733 240.736967 
z
" clip-path="url(#p21d6cf9937)" style="fill: #f1c40f; opacity: 0.8"/>
   </g>
   <g id="patch_19">
    <path d="M 688.230733 229.624904 
L 741.212788 229.624904 
L 741.212788 185.176652 
L 688.230733 185.176652 
z
" clip-path="url(#p21d6cf9937)" style="fill: #f39c12; opacity: 0.8"/>
   </g>
   <g id="patch_20">
    <path d="M 688.230733 174.064589 
L 779.057114 174.064589 
L 779.057114 129.616337 
L 688.230733 129.616337 
z
" clip-path="url(#p21d6cf9937)" style="fill: #e67e22; opacity: 0.8"/>
   </g>
   <g id="patch_21">
    <path d="M 688.230733 118.504274 
L 847.1769 118.504274 
L 847.1769 74.056023 
L 688.230733 74.056023 
z
" clip-path="url(#p21d6cf9937)" style="fill: #d35400; opacity: 0.8"/>
   </g>
   <g id="matplotlib.axis_3">
    <g id="xtick_8">
     <g id="line2d_32">
      <path d="M 688.230733 529.095 
L 688.230733 52.3875 
" clip-path="url(#p21d6cf9937)" style="fill: none; stroke-dasharray: 2.96,1.28; stroke-dashoffset: 0; stroke: #ffffff; stroke-opacity: 0.3; stroke-width: 0.8"/>
     </g>
     <g id="line2d_33">
      <g>
       <use xlink:href="#m32a5fcc831" x="688.230733" y="529.095" style="fill: #ffffff; stroke: #ffffff; stroke-width: 0.8"/>
      </g>
     </g>
     <g id="text_26">
      <!-- 0 -->
      <g style="fill: #ffffff" transform="translate(685.230733 540.845) scale(0.12 -0.12)">
       <use xlink:href="#SimHei-30"/>
      </g>
     </g>
    </g>
    <g id="xtick_9">
     <g id="line2d_34">
      <path d="M 763.919384 529.095 
L 763.919384 52.3875 
" clip-path="url(#p21d6cf9937)" style="fill: none; stroke-dasharray: 2.96,1.28; stroke-dashoffset: 0; stroke: #ffffff; stroke-opacity: 0.3; stroke-width: 0.8"/>
     </g>
     <g id="line2d_35">
      <g>
       <use xlink:href="#m32a5fcc831" x="763.919384" y="529.095" style="fill: #ffffff; stroke: #ffffff; stroke-width: 0.8"/>
      </g>
     </g>
     <g id="text_27">
      <!-- 10 -->
      <g style="fill: #ffffff" transform="translate(757.919384 540.845) scale(0.12 -0.12)">
       <use xlink:href="#SimHei-31"/>
       <use xlink:href="#SimHei-30" transform="translate(50 0)"/>
      </g>
     </g>
    </g>
    <g id="xtick_10">
     <g id="line2d_36">
      <path d="M 839.608035 529.095 
L 839.608035 52.3875 
" clip-path="url(#p21d6cf9937)" style="fill: none; stroke-dasharray: 2.96,1.28; stroke-dashoffset: 0; stroke: #ffffff; stroke-opacity: 0.3; stroke-width: 0.8"/>
     </g>
     <g id="line2d_37">
      <g>
       <use xlink:href="#m32a5fcc831" x="839.608035" y="529.095" style="fill: #ffffff; stroke: #ffffff; stroke-width: 0.8"/>
      </g>
     </g>
     <g id="text_28">
      <!-- 20 -->
      <g style="fill: #ffffff" transform="translate(833.608035 540.845) scale(0.12 -0.12)">
       <use xlink:href="#SimHei-32"/>
       <use xlink:href="#SimHei-30" transform="translate(50 0)"/>
      </g>
     </g>
    </g>
    <g id="xtick_11">
     <g id="line2d_38">
      <path d="M 915.296685 529.095 
L 915.296685 52.3875 
" clip-path="url(#p21d6cf9937)" style="fill: none; stroke-dasharray: 2.96,1.28; stroke-dashoffset: 0; stroke: #ffffff; stroke-opacity: 0.3; stroke-width: 0.8"/>
     </g>
     <g id="line2d_39">
      <g>
       <use xlink:href="#m32a5fcc831" x="915.296685" y="529.095" style="fill: #ffffff; stroke: #ffffff; stroke-width: 0.8"/>
      </g>
     </g>
     <g id="text_29">
      <!-- 30 -->
      <g style="fill: #ffffff" transform="translate(909.296685 540.845) scale(0.12 -0.12)">
       <use xlink:href="#SimHei-33"/>
       <use xlink:href="#SimHei-30" transform="translate(50 0)"/>
      </g>
     </g>
    </g>
    <g id="xtick_12">
     <g id="line2d_40">
      <path d="M 990.985336 529.095 
L 990.985336 52.3875 
" clip-path="url(#p21d6cf9937)" style="fill: none; stroke-dasharray: 2.96,1.28; stroke-dashoffset: 0; stroke: #ffffff; stroke-opacity: 0.3; stroke-width: 0.8"/>
     </g>
     <g id="line2d_41">
      <g>
       <use xlink:href="#m32a5fcc831" x="990.985336" y="529.095" style="fill: #ffffff; stroke: #ffffff; stroke-width: 0.8"/>
      </g>
     </g>
     <g id="text_30">
      <!-- 40 -->
      <g style="fill: #ffffff" transform="translate(984.985336 540.845) scale(0.12 -0.12)">
       <defs>
        <path id="SimHei-34" d="M 2000 1100 
L 75 1100 
L 75 1525 
L 2100 4450 
L 2475 4450 
L 2475 1525 
L 3075 1525 
L 3075 1100 
L 2475 1100 
L 2475 150 
L 2000 150 
L 2000 1100 
z
M 2000 1525 
L 2000 3500 
L 600 1525 
L 2000 1525 
z
" transform="scale(0.015625)"/>
       </defs>
       <use xlink:href="#SimHei-34"/>
       <use xlink:href="#SimHei-30" transform="translate(50 0)"/>
      </g>
     </g>
    </g>
    <g id="xtick_13">
     <g id="line2d_42">
      <path d="M 1066.673987 529.095 
L 1066.673987 52.3875 
" clip-path="url(#p21d6cf9937)" style="fill: none; stroke-dasharray: 2.96,1.28; stroke-dashoffset: 0; stroke: #ffffff; stroke-opacity: 0.3; stroke-width: 0.8"/>
     </g>
     <g id="line2d_43">
      <g>
       <use xlink:href="#m32a5fcc831" x="1066.673987" y="529.095" style="fill: #ffffff; stroke: #ffffff; stroke-width: 0.8"/>
      </g>
     </g>
     <g id="text_31">
      <!-- 50 -->
      <g style="fill: #ffffff" transform="translate(1060.673987 540.845) scale(0.12 -0.12)">
       <use xlink:href="#SimHei-35"/>
       <use xlink:href="#SimHei-30" transform="translate(50 0)"/>
      </g>
     </g>
    </g>
    <g id="text_32">
     <!-- 概念数 -->
     <g style="fill: #ffffff" transform="translate(891.255366 556.9075) scale(0.13 -0.13)">
      <defs>
       <path id="SimHei-6982" d="M 3100 1150 
Q 3000 1350 2900 1475 
Q 3075 1600 3275 1725 
Q 3425 1475 3537 1262 
Q 3650 1050 3825 750 
Q 3675 625 3425 450 
Q 3375 600 3275 800 
Q 3075 625 2775 412 
Q 2475 200 2250 -50 
Q 2075 200 1925 350 
Q 2100 525 2125 875 
L 2125 4000 
Q 2125 4425 2100 4700 
L 3575 4700 
Q 3550 4325 3550 3475 
Q 3550 2650 3575 2200 
L 2550 2200 
L 2550 750 
Q 2725 850 3100 1150 
z
M 3325 -700 
Q 3200 -500 2950 -325 
Q 3400 -75 3850 637 
Q 4300 1350 4500 2350 
L 3800 2350 
Q 3825 2725 3825 3075 
Q 3825 3425 3800 3750 
L 4275 3750 
Q 4225 3550 4225 3250 
L 4225 2725 
L 4600 2725 
Q 4675 3500 4675 4400 
L 4425 4400 
Q 4075 4400 3800 4375 
L 3800 4800 
Q 4100 4775 4425 4775 
L 5150 4775 
Q 5625 4775 5850 4800 
L 5850 4375 
Q 5650 4400 5100 4400 
Q 5100 3700 5025 2725 
L 5375 2725 
Q 5600 2725 5925 2750 
L 5925 2325 
Q 5600 2350 5425 2350 
L 4950 2350 
Q 4625 1075 4287 462 
Q 3950 -150 3325 -700 
z
M 1000 4425 
Q 1000 4750 975 5050 
L 1475 5050 
Q 1425 4725 1425 4300 
L 1425 3800 
Q 1625 3800 1925 3825 
L 1925 3400 
Q 1600 3425 1425 3425 
L 1425 2650 
Q 1550 2725 1700 2825 
Q 1900 2350 2075 1875 
Q 1850 1825 1700 1700 
Q 1600 2050 1425 2450 
L 1425 300 
Q 1425 -125 1450 -575 
L 975 -575 
Q 1000 -50 1000 300 
L 1000 2025 
Q 825 1450 550 950 
Q 450 1150 175 1350 
Q 500 1825 662 2275 
Q 825 2725 950 3425 
Q 500 3425 350 3400 
L 350 3825 
Q 550 3800 1000 3800 
L 1000 4425 
z
M 5300 1725 
Q 5275 1050 5275 225 
Q 5275 -50 5412 -75 
Q 5550 -100 5625 -87 
Q 5700 -75 5737 37 
Q 5775 150 5775 475 
Q 6000 350 6250 300 
Q 6150 -225 6050 -350 
Q 5950 -475 5650 -475 
L 5350 -475 
Q 4800 -450 4850 50 
Q 4850 925 4850 1725 
L 5300 1725 
z
M 3125 2575 
L 3125 3275 
L 2550 3275 
L 2550 2575 
L 3125 2575 
z
M 3125 3650 
L 3125 4325 
L 2550 4325 
L 2550 3650 
L 3125 3650 
z
" transform="scale(0.015625)"/>
       <path id="SimHei-5ff5" d="M 275 2925 
Q 825 3075 1687 3762 
Q 2550 4450 3075 5300 
Q 3275 5175 3650 5050 
L 3500 4900 
Q 4025 4275 4737 3762 
Q 5450 3250 6150 3025 
Q 5775 2775 5675 2600 
Q 5150 2875 4525 3350 
Q 3900 3825 3200 4600 
Q 2625 3950 2012 3437 
Q 1400 2925 700 2475 
Q 550 2750 275 2925 
z
M 4900 425 
Q 4750 -150 4575 -337 
Q 4400 -525 4075 -500 
L 2525 -500 
Q 2050 -500 2012 -187 
Q 1975 125 1975 600 
Q 1975 1100 1950 1400 
L 2450 1400 
Q 2425 1100 2425 650 
Q 2425 200 2462 50 
Q 2500 -100 2800 -125 
L 3900 -125 
Q 4050 -125 4162 -37 
Q 4275 50 4375 650 
Q 4600 500 4900 425 
z
M 3400 1575 
Q 3800 2075 4100 2525 
L 2400 2525 
Q 2175 2525 1700 2475 
L 1700 2925 
Q 2150 2900 2375 2900 
L 4900 2900 
Q 4675 2625 3875 1400 
Q 3700 1500 3400 1575 
z
M 1650 1500 
Q 1400 775 875 -50 
Q 725 50 475 200 
Q 900 675 1225 1675 
Q 1450 1550 1650 1500 
z
M 5000 1575 
Q 5575 950 6000 400 
Q 5750 275 5600 100 
Q 5175 775 4650 1300 
Q 4825 1400 5000 1575 
z
M 3825 925 
Q 3600 750 3425 600 
Q 3050 1225 2575 1625 
Q 2750 1725 2925 1875 
Q 3500 1325 3825 925 
z
M 3150 3975 
Q 3400 3650 3650 3300 
Q 3425 3175 3250 3050 
Q 3025 3450 2775 3750 
Q 3000 3850 3150 3975 
z
" transform="scale(0.015625)"/>
       <path id="SimHei-6570" d="M 4525 4925 
Q 4475 4800 4400 4587 
Q 4325 4375 4175 3825 
L 5325 3825 
Q 5575 3825 5925 3850 
L 5925 3400 
Q 5650 3425 5500 3425 
Q 5500 3025 5362 2162 
Q 5225 1300 4875 675 
Q 5125 375 5437 137 
Q 5750 -100 6025 -200 
Q 5725 -425 5625 -625 
Q 5325 -450 5075 -225 
Q 4825 0 4575 325 
Q 4300 25 3987 -187 
Q 3675 -400 3200 -650 
Q 3075 -425 2850 -300 
Q 3225 -150 3650 125 
Q 4075 400 4300 675 
Q 4125 1025 3962 1425 
Q 3800 1825 3675 2475 
Q 3600 2275 3425 1950 
Q 3250 2050 3000 2150 
Q 3400 2850 3650 3675 
Q 3900 4500 3975 5100 
Q 4275 4975 4525 4925 
z
M 2100 2250 
Q 2000 2150 1875 1925 
L 3250 1925 
Q 3100 1300 2725 675 
Q 3125 525 3350 400 
Q 3225 225 3125 25 
Q 2900 175 2450 325 
Q 1950 -225 725 -650 
Q 600 -375 400 -275 
Q 1575 0 2000 475 
Q 1300 650 850 775 
Q 1000 1000 1250 1525 
Q 1000 1525 425 1500 
L 425 1950 
Q 900 1925 1400 1925 
Q 1500 2150 1550 2425 
Q 1825 2325 2100 2250 
z
M 1775 3950 
Q 1775 4550 1750 5100 
L 2250 5100 
Q 2225 4575 2225 3950 
Q 3075 3950 3425 3975 
L 3425 3525 
Q 3075 3550 2225 3550 
Q 2225 2825 2250 2425 
L 1750 2425 
Q 1775 2775 1775 3300 
Q 1650 3100 1300 2787 
Q 950 2475 650 2300 
Q 525 2525 275 2625 
Q 500 2700 875 2975 
Q 1250 3250 1450 3550 
Q 950 3550 500 3525 
L 500 3975 
Q 925 3950 1775 3950 
z
M 3975 3175 
Q 4200 1700 4600 1125 
Q 4850 1700 4937 2287 
Q 5025 2875 5050 3425 
L 4075 3425 
L 3975 3175 
z
M 1450 1000 
Q 1750 925 2275 800 
Q 2475 1050 2650 1525 
L 1725 1525 
Q 1600 1275 1450 1000 
z
M 3325 4825 
Q 3200 4625 3125 4450 
Q 3050 4275 2925 4025 
Q 2725 4125 2525 4175 
Q 2725 4500 2900 5000 
Q 3150 4875 3325 4825 
z
M 2575 3375 
Q 2900 3050 3200 2725 
Q 3050 2600 2875 2425 
Q 2525 2850 2300 3100 
Q 2450 3225 2575 3375 
z
M 925 5000 
Q 1275 4650 1500 4300 
L 1125 4075 
Q 950 4425 600 4725 
Q 825 4875 925 5000 
z
" transform="scale(0.015625)"/>
      </defs>
      <use xlink:href="#SimHei-6982"/>
      <use xlink:href="#SimHei-5ff5" transform="translate(100 0)"/>
      <use xlink:href="#SimHei-6570" transform="translate(200 0)"/>
     </g>
    </g>
   </g>
   <g id="matplotlib.axis_4">
    <g id="ytick_9">
     <g id="line2d_44">
      <path d="M 688.230733 485.202351 
L 1133.28 485.202351 
" clip-path="url(#p21d6cf9937)" style="fill: none; stroke-dasharray: 2.96,1.28; stroke-dashoffset: 0; stroke: #ffffff; stroke-opacity: 0.25; stroke-width: 0.8"/>
     </g>
     <g id="line2d_45">
      <g>
       <use xlink:href="#mfeffb37a70" x="688.230733" y="485.202351" style="fill: #ffffff; stroke: #ffffff; stroke-width: 0.8"/>
      </g>
     </g>
     <g id="text_33">
      <!-- 油气开采 -->
      <g style="fill: #ffffff" transform="translate(636.730733 490.007039) scale(0.12 -0.12)">
       <use xlink:href="#SimHei-6cb9"/>
       <use xlink:href="#SimHei-6c14" transform="translate(100 0)"/>
       <use xlink:href="#SimHei-5f00" transform="translate(200 0)"/>
       <use xlink:href="#SimHei-91c7" transform="translate(300 0)"/>
      </g>
     </g>
    </g>
    <g id="ytick_10">
     <g id="line2d_46">
      <path d="M 688.230733 429.642037 
L 1133.28 429.642037 
" clip-path="url(#p21d6cf9937)" style="fill: none; stroke-dasharray: 2.96,1.28; stroke-dashoffset: 0; stroke: #ffffff; stroke-opacity: 0.25; stroke-width: 0.8"/>
     </g>
     <g id="line2d_47">
      <g>
       <use xlink:href="#mfeffb37a70" x="688.230733" y="429.642037" style="fill: #ffffff; stroke: #ffffff; stroke-width: 0.8"/>
      </g>
     </g>
     <g id="text_34">
      <!-- 中药 -->
      <g style="fill: #ffffff" transform="translate(660.730733 434.329537) scale(0.12 -0.12)">
       <use xlink:href="#SimHei-4e2d"/>
       <use xlink:href="#SimHei-836f" transform="translate(100 0)"/>
      </g>
     </g>
    </g>
    <g id="ytick_11">
     <g id="line2d_48">
      <path d="M 688.230733 374.081722 
L 1133.28 374.081722 
" clip-path="url(#p21d6cf9937)" style="fill: none; stroke-dasharray: 2.96,1.28; stroke-dashoffset: 0; stroke: #ffffff; stroke-opacity: 0.25; stroke-width: 0.8"/>
     </g>
     <g id="line2d_49">
      <g>
       <use xlink:href="#mfeffb37a70" x="688.230733" y="374.081722" style="fill: #ffffff; stroke: #ffffff; stroke-width: 0.8"/>
      </g>
     </g>
     <g id="text_35">
      <!-- 农商行 -->
      <g style="fill: #ffffff" transform="translate(648.730733 378.933285) scale(0.12 -0.12)">
       <use xlink:href="#SimHei-519c"/>
       <use xlink:href="#SimHei-5546" transform="translate(100 0)"/>
       <use xlink:href="#SimHei-884c" transform="translate(200 0)"/>
      </g>
     </g>
    </g>
    <g id="ytick_12">
     <g id="line2d_50">
      <path d="M 688.230733 318.521407 
L 1133.28 318.521407 
" clip-path="url(#p21d6cf9937)" style="fill: none; stroke-dasharray: 2.96,1.28; stroke-dashoffset: 0; stroke: #ffffff; stroke-opacity: 0.25; stroke-width: 0.8"/>
     </g>
     <g id="line2d_51">
      <g>
       <use xlink:href="#mfeffb37a70" x="688.230733" y="318.521407" style="fill: #ffffff; stroke: #ffffff; stroke-width: 0.8"/>
      </g>
     </g>
     <g id="text_36">
      <!-- 城商行 -->
      <g style="fill: #ffffff" transform="translate(648.730733 323.37297) scale(0.12 -0.12)">
       <use xlink:href="#SimHei-57ce"/>
       <use xlink:href="#SimHei-5546" transform="translate(100 0)"/>
       <use xlink:href="#SimHei-884c" transform="translate(200 0)"/>
      </g>
     </g>
    </g>
    <g id="ytick_13">
     <g id="line2d_52">
      <path d="M 688.230733 262.961093 
L 1133.28 262.961093 
" clip-path="url(#p21d6cf9937)" style="fill: none; stroke-dasharray: 2.96,1.28; stroke-dashoffset: 0; stroke: #ffffff; stroke-opacity: 0.25; stroke-width: 0.8"/>
     </g>
     <g id="line2d_53">
      <g>
       <use xlink:href="#mfeffb37a70" x="688.230733" y="262.961093" style="fill: #ffffff; stroke: #ffffff; stroke-width: 0.8"/>
      </g>
     </g>
     <g id="text_37">
      <!-- 国有大型银行 -->
      <g style="fill: #ffffff" transform="translate(612.730733 267.812655) scale(0.12 -0.12)">
       <use xlink:href="#SimHei-56fd"/>
       <use xlink:href="#SimHei-6709" transform="translate(100 0)"/>
       <use xlink:href="#SimHei-5927" transform="translate(200 0)"/>
       <use xlink:href="#SimHei-578b" transform="translate(300 0)"/>
       <use xlink:href="#SimHei-94f6" transform="translate(400 0)"/>
       <use xlink:href="#SimHei-884c" transform="translate(500 0)"/>
      </g>
     </g>
    </g>
    <g id="ytick_14">
     <g id="line2d_54">
      <path d="M 688.230733 207.400778 
L 1133.28 207.400778 
" clip-path="url(#p21d6cf9937)" style="fill: none; stroke-dasharray: 2.96,1.28; stroke-dashoffset: 0; stroke: #ffffff; stroke-opacity: 0.25; stroke-width: 0.8"/>
     </g>
     <g id="line2d_55">
      <g>
       <use xlink:href="#mfeffb37a70" x="688.230733" y="207.400778" style="fill: #ffffff; stroke: #ffffff; stroke-width: 0.8"/>
      </g>
     </g>
     <g id="text_38">
      <!-- 股份制银行 -->
      <g style="fill: #ffffff" transform="translate(624.730733 212.275778) scale(0.12 -0.12)">
       <use xlink:href="#SimHei-80a1"/>
       <use xlink:href="#SimHei-4efd" transform="translate(100 0)"/>
       <use xlink:href="#SimHei-5236" transform="translate(200 0)"/>
       <use xlink:href="#SimHei-94f6" transform="translate(300 0)"/>
       <use xlink:href="#SimHei-884c" transform="translate(400 0)"/>
      </g>
     </g>
    </g>
    <g id="ytick_15">
     <g id="line2d_56">
      <path d="M 688.230733 151.840463 
L 1133.28 151.840463 
" clip-path="url(#p21d6cf9937)" style="fill: none; stroke-dasharray: 2.96,1.28; stroke-dashoffset: 0; stroke: #ffffff; stroke-opacity: 0.25; stroke-width: 0.8"/>
     </g>
     <g id="line2d_57">
      <g>
       <use xlink:href="#mfeffb37a70" x="688.230733" y="151.840463" style="fill: #ffffff; stroke: #ffffff; stroke-width: 0.8"/>
      </g>
     </g>
     <g id="text_39">
      <!-- 线下药店 -->
      <g style="fill: #ffffff" transform="translate(636.730733 156.715463) scale(0.12 -0.12)">
       <use xlink:href="#SimHei-7ebf"/>
       <use xlink:href="#SimHei-4e0b" transform="translate(100 0)"/>
       <use xlink:href="#SimHei-836f" transform="translate(200 0)"/>
       <use xlink:href="#SimHei-5e97" transform="translate(300 0)"/>
      </g>
     </g>
    </g>
    <g id="ytick_16">
     <g id="line2d_58">
      <path d="M 688.230733 96.280149 
L 1133.28 96.280149 
" clip-path="url(#p21d6cf9937)" style="fill: none; stroke-dasharray: 2.96,1.28; stroke-dashoffset: 0; stroke: #ffffff; stroke-opacity: 0.25; stroke-width: 0.8"/>
     </g>
     <g id="line2d_59">
      <g>
       <use xlink:href="#mfeffb37a70" x="688.230733" y="96.280149" style="fill: #ffffff; stroke: #ffffff; stroke-width: 0.8"/>
      </g>
     </g>
     <g id="text_40">
      <!-- 其他农产品加工 -->
      <g style="fill: #ffffff" transform="translate(600.730733 101.084836) scale(0.12 -0.12)">
       <use xlink:href="#SimHei-5176"/>
       <use xlink:href="#SimHei-4ed6" transform="translate(100 0)"/>
       <use xlink:href="#SimHei-519c" transform="translate(200 0)"/>
       <use xlink:href="#SimHei-4ea7" transform="translate(300 0)"/>
       <use xlink:href="#SimHei-54c1" transform="translate(400 0)"/>
       <use xlink:href="#SimHei-52a0" transform="translate(500 0)"/>
       <use xlink:href="#SimHei-5de5" transform="translate(600 0)"/>
      </g>
     </g>
    </g>
   </g>
   <g id="patch_22">
    <path d="M 688.230733 529.095 
L 688.230733 52.3875 
" style="fill: none; stroke: #ffffff; stroke-width: 0.8; stroke-linejoin: miter; stroke-linecap: square"/>
   </g>
   <g id="patch_23">
    <path d="M 688.230733 529.095 
L 1133.28 529.095 
" style="fill: none; stroke: #ffffff; stroke-width: 0.8; stroke-linejoin: miter; stroke-linecap: square"/>
   </g>
   <g id="text_41">
    <!-- 12 -->
    <g style="fill: #ffffff" transform="translate(780.570887 488.014851) scale(0.1 -0.1)">
     <use xlink:href="#SimHei-31"/>
     <use xlink:href="#SimHei-32" transform="translate(50 0)"/>
    </g>
   </g>
   <g id="text_42">
    <!-- 56 -->
    <g style="fill: #ffffff" transform="translate(1113.600951 432.454537) scale(0.1 -0.1)">
     <use xlink:href="#SimHei-35"/>
     <use xlink:href="#SimHei-36" transform="translate(50 0)"/>
    </g>
   </g>
   <g id="text_43">
    <!-- 4 -->
    <g style="fill: #ffffff" transform="translate(720.019966 376.894222) scale(0.1 -0.1)">
     <use xlink:href="#SimHei-34"/>
    </g>
   </g>
   <g id="text_44">
    <!-- 6 -->
    <g style="fill: #ffffff" transform="translate(735.157696 321.333907) scale(0.1 -0.1)">
     <use xlink:href="#SimHei-36"/>
    </g>
   </g>
   <g id="text_45">
    <!-- 4 -->
    <g style="fill: #ffffff" transform="translate(720.019966 265.773593) scale(0.1 -0.1)">
     <use xlink:href="#SimHei-34"/>
    </g>
   </g>
   <g id="text_46">
    <!-- 7 -->
    <g style="fill: #ffffff" transform="translate(742.726561 210.213278) scale(0.1 -0.1)">
     <use xlink:href="#SimHei-37"/>
    </g>
   </g>
   <g id="text_47">
    <!-- 12 -->
    <g style="fill: #ffffff" transform="translate(780.570887 154.652963) scale(0.1 -0.1)">
     <use xlink:href="#SimHei-31"/>
     <use xlink:href="#SimHei-32" transform="translate(50 0)"/>
    </g>
   </g>
   <g id="text_48">
    <!-- 21 -->
    <g style="fill: #ffffff" transform="translate(848.690673 99.092649) scale(0.1 -0.1)">
     <use xlink:href="#SimHei-32"/>
     <use xlink:href="#SimHei-31" transform="translate(50 0)"/>
    </g>
   </g>
   <g id="text_49">
    <!-- 关联有效概念数 -->
    <g style="fill: #ffffff" transform="translate(865.255366 46.3875) scale(0.13 -0.13)">
     <defs>
      <path id="SimHei-5173" d="M 4675 4850 
Q 4525 4675 4362 4375 
Q 4200 4075 4075 3825 
L 4625 3825 
Q 5150 3825 5550 3850 
L 5550 3375 
Q 5225 3400 4700 3400 
L 3400 3400 
L 3400 2150 
L 4975 2150 
Q 5475 2150 5875 2175 
L 5875 1700 
Q 5475 1725 5025 1725 
L 3500 1725 
Q 4250 450 6000 75 
Q 5775 -175 5600 -525 
Q 4025 0 3225 1300 
Q 2800 200 875 -600 
Q 775 -350 500 -150 
Q 2425 375 2875 1725 
L 1550 1725 
Q 975 1725 600 1700 
L 600 2150 
Q 875 2125 1450 2125 
L 2925 2125 
L 2925 3400 
L 1750 3400 
Q 1275 3400 900 3375 
L 900 3850 
Q 1275 3825 1775 3825 
L 3575 3825 
Q 3925 4625 4075 5150 
Q 4325 5000 4675 4850 
z
M 2125 5125 
Q 2450 4725 2800 4175 
Q 2500 4025 2325 3875 
Q 2025 4450 1725 4825 
Q 1950 4975 2125 5125 
z
" transform="scale(0.015625)"/>
      <path id="SimHei-8054" d="M 2325 4850 
Q 2625 4850 2975 4875 
L 2975 4450 
Q 2700 4475 2475 4475 
L 2475 1150 
Q 2750 1225 2975 1275 
Q 2925 950 2950 850 
Q 2650 800 2475 750 
L 2475 175 
Q 2475 -200 2500 -675 
L 1975 -675 
Q 2025 -200 2025 175 
L 2025 650 
Q 1750 600 1337 475 
Q 925 350 450 175 
Q 425 350 275 750 
Q 425 750 800 825 
L 800 4475 
Q 550 4475 325 4425 
L 325 4875 
Q 625 4850 950 4850 
L 2325 4850 
z
M 5450 4950 
Q 5250 4675 5162 4487 
Q 5075 4300 4850 3900 
Q 5375 3900 5825 3925 
L 5825 3475 
Q 5375 3525 5050 3525 
L 4550 3525 
Q 4525 2600 4500 2225 
L 5225 2225 
Q 5525 2225 5950 2250 
L 5950 1800 
Q 5525 1825 5225 1825 
L 4575 1825 
Q 4725 1150 5175 625 
Q 5625 100 6175 -25 
Q 6000 -175 5912 -312 
Q 5825 -450 5800 -625 
Q 5275 -250 4925 200 
Q 4575 650 4350 1325 
Q 4175 750 3900 275 
Q 3625 -200 3200 -675 
Q 3125 -575 2975 -450 
Q 2825 -325 2750 -325 
Q 3100 -100 3412 387 
Q 3725 875 3825 1187 
Q 3925 1500 3975 1825 
L 3675 1825 
Q 3275 1825 2825 1800 
L 2825 2250 
Q 3275 2225 3675 2225 
L 4025 2225 
Q 4075 2950 4075 3525 
L 3825 3525 
Q 3475 3525 3000 3475 
L 3000 3925 
Q 3475 3900 3825 3900 
L 4450 3900 
Q 4750 4600 4900 5225 
Q 5050 5125 5450 4950 
z
M 2025 2225 
L 2025 3200 
L 1250 3200 
L 1250 2225 
L 2025 2225 
z
M 2025 3600 
L 2025 4475 
L 1250 4475 
L 1250 3600 
L 2025 3600 
z
M 2025 1825 
L 1250 1825 
L 1250 900 
Q 1525 950 2025 1050 
L 2025 1825 
z
M 3500 5175 
Q 3950 4475 4075 4250 
Q 3775 4125 3675 4000 
Q 3550 4300 3150 4950 
Q 3225 4975 3500 5175 
z
" transform="scale(0.015625)"/>
      <path id="SimHei-6548" d="M 3500 2400 
Q 3400 2675 3200 2900 
Q 3500 3350 3750 4025 
Q 4000 4700 4100 5300 
Q 4400 5150 4750 5075 
Q 4625 4950 4500 4687 
Q 4375 4425 4225 4025 
Q 5800 4025 6150 4050 
L 6150 3625 
Q 5850 3650 5475 3650 
Q 5450 2925 5300 2137 
Q 5150 1350 4825 800 
Q 4900 575 5312 275 
Q 5725 -25 6175 -175 
Q 5875 -350 5775 -650 
Q 5350 -425 5050 -162 
Q 4750 100 4500 425 
Q 4175 125 3837 -112 
Q 3500 -350 2850 -700 
Q 2725 -425 2425 -250 
Q 2750 -200 3325 137 
Q 3900 475 4200 800 
Q 4000 1225 3887 1675 
Q 3775 2125 3675 2700 
L 3500 2400 
z
M 1100 2225 
Q 1525 1875 1925 1575 
Q 2125 1900 2200 2400 
Q 2450 2275 2700 2200 
Q 2475 1625 2300 1250 
L 3000 550 
Q 2775 375 2575 175 
Q 2400 450 2025 825 
Q 1825 600 1550 312 
Q 1275 25 700 -425 
Q 500 -175 250 -25 
Q 575 125 950 400 
Q 1325 675 1675 1175 
Q 1325 1475 850 1875 
L 1100 2225 
z
M 4075 2950 
Q 4100 2700 4212 2187 
Q 4325 1675 4525 1225 
Q 4775 1700 4887 2475 
Q 5000 3250 4975 3650 
L 4100 3650 
Q 3900 3125 3725 2850 
Q 3900 2850 4075 2950 
z
M 2500 4200 
Q 2875 4200 3175 4225 
L 3175 3800 
Q 2875 3825 2525 3825 
L 1000 3825 
Q 600 3825 275 3800 
L 275 4225 
Q 600 4200 1000 4200 
L 2500 4200 
z
M 1125 3650 
Q 1400 3500 1625 3325 
Q 1525 3250 1300 2900 
Q 1050 2525 675 2000 
Q 450 2150 225 2275 
Q 550 2575 787 2975 
Q 1025 3375 1125 3650 
z
M 2475 3625 
Q 2625 3400 2850 3100 
Q 3075 2800 3250 2575 
Q 3025 2450 2825 2275 
Q 2325 3000 2075 3325 
Q 2275 3425 2475 3625 
z
M 1825 5250 
Q 2025 4875 2175 4475 
Q 1950 4375 1700 4275 
Q 1550 4650 1350 5075 
Q 1575 5150 1825 5250 
z
" transform="scale(0.015625)"/>
     </defs>
     <use xlink:href="#SimHei-5173"/>
     <use xlink:href="#SimHei-8054" transform="translate(100 0)"/>
     <use xlink:href="#SimHei-6709" transform="translate(200 0)"/>
     <use xlink:href="#SimHei-6548" transform="translate(300 0)"/>
     <use xlink:href="#SimHei-6982" transform="translate(400 0)"/>
     <use xlink:href="#SimHei-5ff5" transform="translate(500 0)"/>
     <use xlink:href="#SimHei-6570" transform="translate(600 0)"/>
    </g>
   </g>
  </g>
  <g id="text_50">
   <!-- 行业-概念关联分析 — 2026-07-13 -->
   <g style="fill: #ffffff" transform="translate(453.99 19.3875) scale(0.15 -0.15)">
    <defs>
     <path id="SimHei-2d" d="M 2975 2125 
L 125 2125 
L 125 2525 
L 2975 2525 
L 2975 2125 
z
" transform="scale(0.015625)"/>
     <path id="SimHei-5206" d="M 1000 -650 
Q 825 -375 575 -225 
Q 975 -75 1300 137 
Q 1625 350 1875 662 
Q 2125 975 2250 1350 
Q 2375 1725 2425 2275 
Q 1850 2275 1500 2250 
L 1500 2775 
Q 1900 2750 2525 2750 
L 5025 2750 
Q 4975 2375 4950 2100 
L 4750 250 
Q 4700 -200 4350 -350 
Q 4000 -500 3575 -525 
Q 3550 -275 3325 50 
Q 3850 25 4037 87 
Q 4225 150 4275 525 
L 4450 2275 
L 2950 2275 
Q 2875 1625 2737 1187 
Q 2600 750 2350 425 
Q 2100 100 1750 -175 
Q 1400 -450 1000 -650 
z
M 3950 5175 
Q 4125 4650 4662 3975 
Q 5200 3300 6175 2800 
Q 5975 2625 5775 2275 
Q 5325 2600 4987 2887 
Q 4650 3175 4425 3425 
Q 4200 3675 3925 4137 
Q 3650 4600 3475 5000 
Q 3750 5075 3950 5175 
z
M 2700 4825 
Q 2475 4425 2325 4125 
Q 2175 3825 2025 3587 
Q 1875 3350 1575 2950 
Q 1275 2550 850 2125 
Q 625 2350 400 2475 
Q 900 2925 1187 3300 
Q 1475 3675 1737 4112 
Q 2000 4550 2200 5075 
Q 2400 4925 2700 4825 
z
" transform="scale(0.015625)"/>
     <path id="SimHei-6790" d="M 5900 4550 
Q 5575 4525 5087 4450 
Q 4600 4375 3725 4275 
L 3725 3075 
L 5400 3075 
Q 5725 3075 6150 3100 
L 6150 2650 
Q 5700 2675 5250 2675 
L 5250 350 
Q 5250 -100 5275 -475 
L 4750 -475 
Q 4775 -75 4775 375 
L 4775 2675 
L 3725 2675 
Q 3725 2175 3650 1637 
Q 3575 1100 3437 637 
Q 3300 175 2850 -500 
Q 2675 -300 2275 -150 
Q 2825 325 3050 1112 
Q 3275 1900 3262 3000 
Q 3250 4100 3225 4650 
Q 3975 4700 4562 4800 
Q 5150 4900 5500 5050 
Q 5675 4750 5900 4550 
z
M 1900 525 
Q 1900 200 1925 -525 
L 1400 -525 
Q 1425 25 1425 525 
L 1425 2250 
Q 1175 1625 600 800 
Q 425 1075 200 1225 
Q 650 1725 962 2387 
Q 1275 3050 1375 3425 
Q 925 3425 450 3400 
L 450 3850 
Q 925 3825 1425 3825 
L 1425 4450 
Q 1425 4775 1400 5125 
L 1950 5125 
Q 1900 4825 1900 4450 
L 1900 3825 
Q 2300 3825 2775 3850 
L 2775 3400 
Q 2300 3425 1900 3425 
L 1900 525 
z
M 2375 2750 
Q 2800 2050 2925 1800 
Q 2700 1700 2450 1550 
Q 2300 1900 1950 2525 
Q 2175 2625 2375 2750 
z
" transform="scale(0.015625)"/>
     <path id="SimHei-2014" d="M 6375 2500 
L 6375 2125 
L 0 2125 
L 0 2500 
L 6375 2500 
z
" transform="scale(0.015625)"/>
    </defs>
    <use xlink:href="#SimHei-884c"/>
    <use xlink:href="#SimHei-4e1a" transform="translate(100 0)"/>
    <use xlink:href="#SimHei-2d" transform="translate(200 0)"/>
    <use xlink:href="#SimHei-6982" transform="translate(250 0)"/>
    <use xlink:href="#SimHei-5ff5" transform="translate(350 0)"/>
    <use xlink:href="#SimHei-5173" transform="translate(450 0)"/>
    <use xlink:href="#SimHei-8054" transform="translate(550 0)"/>
    <use xlink:href="#SimHei-5206" transform="translate(650 0)"/>
    <use xlink:href="#SimHei-6790" transform="translate(750 0)"/>
    <use xlink:href="#SimHei-20" transform="translate(850 0)"/>
    <use xlink:href="#SimHei-2014" transform="translate(900 0)"/>
    <use xlink:href="#SimHei-20" transform="translate(1000 0)"/>
    <use xlink:href="#SimHei-32" transform="translate(1050 0)"/>
    <use xlink:href="#SimHei-30" transform="translate(1100 0)"/>
    <use xlink:href="#SimHei-32" transform="translate(1150 0)"/>
    <use xlink:href="#SimHei-36" transform="translate(1200 0)"/>
    <use xlink:href="#SimHei-2d" transform="translate(1250 0)"/>
    <use xlink:href="#SimHei-30" transform="translate(1300 0)"/>
    <use xlink:href="#SimHei-37" transform="translate(1350 0)"/>
    <use xlink:href="#SimHei-2d" transform="translate(1400 0)"/>
    <use xlink:href="#SimHei-31" transform="translate(1450 0)"/>
    <use xlink:href="#SimHei-33" transform="translate(1500 0)"/>
   </g>
  </g>
 </g>
 <defs>
  <clipPath id="p21ba67ae0a">
   <rect x="94.7" y="52.3875" width="445.049267" height="476.7075"/>
  </clipPath>
  <clipPath id="p21d6cf9937">
   <rect x="688.230733" y="52.3875" width="445.049267" height="476.7075"/>
  </clipPath>
 </defs>
</svg>
