<?xml version="1.0" encoding="utf-8" standalone="no"?>
<!DOCTYPE svg PUBLIC "-//W3C//DTD SVG 1.1//EN"
  "http://www.w3.org/Graphics/SVG/1.1/DTD/svg11.dtd">
<svg xmlns:xlink="http://www.w3.org/1999/xlink" width="1140.48pt" height="565.7325pt" viewBox="0 0 1140.48 565.7325" xmlns="http://www.w3.org/2000/svg" version="1.1">
 <metadata>
  <rdf:RDF xmlns:dc="http://purl.org/dc/elements/1.1/" xmlns:cc="http://creativecommons.org/ns#" xmlns:rdf="http://www.w3.org/1999/02/22-rdf-syntax-ns#">
   <cc:Work>
    <dc:type rdf:resource="http://purl.org/dc/dcmitype/StillImage"/>
    <dc:date>2026-07-09T11:13:57.973704</dc:date>
    <dc:format>image/svg+xml</dc:format>
    <dc:creator>
     <cc:Agent>
      <dc:title>Matplotlib v3.10.7, https://matplotlib.org/</dc:title>
     </cc:Agent>
    </dc:creator>
   </cc:Work>
  </rdf:RDF>
 </metadata>
 <defs>
  <style type="text/css">*{stroke-linejoin: round; stroke-linecap: butt}</style>
 </defs>
 <g id="figure_1">
  <g id="patch_1">
   <path d="M 0 565.7325 
L 1140.48 565.7325 
L 1140.48 0 
L 0 0 
z
" style="fill: #1a1a1a"/>
  </g>
  <g id="axes_1">
   <g id="patch_2">
    <path d="M 94.7 529.095 
L 541.294051 529.095 
L 541.294051 52.3875 
L 94.7 52.3875 
z
"/>
   </g>
   <g id="patch_3">
    <path d="M 94.7 507.426477 
L 520.027668 507.426477 
L 520.027668 462.978226 
L 94.7 462.978226 
z
" clip-path="url(#p15ab5d34a0)" style="fill: #e74c3c; opacity: 0.85"/>
   </g>
   <g id="patch_4">
    <path d="M 94.7 451.866163 
L 450.133519 451.866163 
L 450.133519 407.417911 
L 94.7 407.417911 
z
" clip-path="url(#p15ab5d34a0)" style="fill: #e74c3c; opacity: 0.85"/>
   </g>
   <g id="patch_5">
    <path d="M 94.7 396.305848 
L 430.044269 396.305848 
L 430.044269 351.857596 
L 94.7 351.857596 
z
" clip-path="url(#p15ab5d34a0)" style="fill: #e74c3c; opacity: 0.85"/>
   </g>
   <g id="patch_6">
    <path d="M 94.7 340.745533 
L 422.793142 340.745533 
L 422.793142 296.297281 
L 94.7 296.297281 
z
" clip-path="url(#p15ab5d34a0)" style="fill: #e74c3c; opacity: 0.85"/>
   </g>
   <g id="patch_7">
    <path d="M 94.7 285.185219 
L 412.510815 285.185219 
L 412.510815 240.736967 
L 94.7 240.736967 
z
" clip-path="url(#p15ab5d34a0)" style="fill: #e74c3c; opacity: 0.85"/>
   </g>
   <g id="patch_8">
    <path d="M 94.7 229.624904 
L 337.170676 229.624904 
L 337.170676 185.176652 
L 94.7 185.176652 
z
" clip-path="url(#p15ab5d34a0)" style="fill: #e74c3c; opacity: 0.85"/>
   </g>
   <g id="patch_9">
    <path d="M 94.7 174.064589 
L 303.746882 174.064589 
L 303.746882 129.616337 
L 94.7 129.616337 
z
" clip-path="url(#p15ab5d34a0)" style="fill: #e74c3c; opacity: 0.85"/>
   </g>
   <g id="patch_10">
    <path d="M 94.7 118.504274 
L 288.779428 118.504274 
L 288.779428 74.056023 
L 94.7 74.056023 
z
" clip-path="url(#p15ab5d34a0)" style="fill: #e74c3c; opacity: 0.85"/>
   </g>
   <g id="matplotlib.axis_1">
    <g id="xtick_1">
     <g id="line2d_1">
      <path d="M 94.7 529.095 
L 94.7 52.3875 
" clip-path="url(#p15ab5d34a0)" style="fill: none; stroke-dasharray: 2.96,1.28; stroke-dashoffset: 0; stroke: #ffffff; stroke-opacity: 0.3; stroke-width: 0.8"/>
     </g>
     <g id="line2d_2">
      <defs>
       <path id="m71f5247c50" d="M 0 0 
L 0 -3.5 
" style="stroke: #ffffff; stroke-width: 0.8"/>
      </defs>
      <g>
       <use xlink:href="#m71f5247c50" x="94.7" y="529.095" style="fill: #ffffff; stroke: #ffffff; stroke-width: 0.8"/>
      </g>
     </g>
     <g id="text_1">
      <!-- 0 -->
      <g style="fill: #ffffff" transform="translate(91.7 540.845) scale(0.12 -0.12)">
       <defs>
        <path id="SimHei-30" d="M 225 2537 
Q 250 3200 412 3587 
Q 575 3975 875 4225 
Q 1175 4475 1612 4475 
Q 2050 4475 2375 4112 
Q 2700 3750 2800 3200 
Q 2900 2650 2862 1937 
Q 2825 1225 2612 775 
Q 2400 325 1975 150 
Q 1550 -25 1125 187 
Q 700 400 525 750 
Q 350 1100 275 1487 
Q 200 1875 225 2537 
z
M 750 2687 
Q 675 2000 800 1462 
Q 925 925 1212 700 
Q 1500 475 1800 612 
Q 2100 750 2237 1162 
Q 2375 1575 2375 2062 
Q 2375 2550 2337 2950 
Q 2300 3350 2112 3675 
Q 1925 4000 1612 4012 
Q 1300 4025 1062 3700 
Q 825 3375 750 2687 
z
" transform="scale(0.015625)"/>
       </defs>
       <use xlink:href="#SimHei-30"/>
      </g>
     </g>
    </g>
    <g id="xtick_2">
     <g id="line2d_3">
      <path d="M 176.820028 529.095 
L 176.820028 52.3875 
" clip-path="url(#p15ab5d34a0)" style="fill: none; stroke-dasharray: 2.96,1.28; stroke-dashoffset: 0; stroke: #ffffff; stroke-opacity: 0.3; stroke-width: 0.8"/>
     </g>
     <g id="line2d_4">
      <g>
       <use xlink:href="#m71f5247c50" x="176.820028" y="529.095" style="fill: #ffffff; stroke: #ffffff; stroke-width: 0.8"/>
      </g>
     </g>
     <g id="text_2">
      <!-- 1 -->
      <g style="fill: #ffffff" transform="translate(173.820028 540.845) scale(0.12 -0.12)">
       <defs>
        <path id="SimHei-31" d="M 1400 3600 
Q 1075 3275 575 2975 
L 575 3450 
Q 1200 3875 1600 4450 
L 1900 4450 
L 1900 150 
L 1400 150 
L 1400 3600 
z
" transform="scale(0.015625)"/>
       </defs>
       <use xlink:href="#SimHei-31"/>
      </g>
     </g>
    </g>
    <g id="xtick_3">
     <g id="line2d_5">
      <path d="M 258.940056 529.095 
L 258.940056 52.3875 
" clip-path="url(#p15ab5d34a0)" style="fill: none; stroke-dasharray: 2.96,1.28; stroke-dashoffset: 0; stroke: #ffffff; stroke-opacity: 0.3; stroke-width: 0.8"/>
     </g>
     <g id="line2d_6">
      <g>
       <use xlink:href="#m71f5247c50" x="258.940056" y="529.095" style="fill: #ffffff; stroke: #ffffff; stroke-width: 0.8"/>
      </g>
     </g>
     <g id="text_3">
      <!-- 2 -->
      <g style="fill: #ffffff" transform="translate(255.940056 540.845) scale(0.12 -0.12)">
       <defs>
        <path id="SimHei-32" d="M 300 250 
Q 325 625 650 925 
Q 975 1225 1475 1862 
Q 1975 2500 2125 2850 
Q 2275 3200 2237 3450 
Q 2200 3700 2000 3862 
Q 1800 4025 1537 4000 
Q 1275 3975 1037 3800 
Q 800 3625 675 3275 
L 200 3350 
Q 400 3925 712 4187 
Q 1025 4450 1450 4475 
Q 1700 4500 1900 4462 
Q 2100 4425 2312 4287 
Q 2525 4150 2662 3875 
Q 2800 3600 2762 3212 
Q 2725 2825 2375 2287 
Q 2025 1750 1025 600 
L 2825 600 
L 2825 150 
L 300 150 
L 300 250 
z
" transform="scale(0.015625)"/>
       </defs>
       <use xlink:href="#SimHei-32"/>
      </g>
     </g>
    </g>
    <g id="xtick_4">
     <g id="line2d_7">
      <path d="M 341.060084 529.095 
L 341.060084 52.3875 
" clip-path="url(#p15ab5d34a0)" style="fill: none; stroke-dasharray: 2.96,1.28; stroke-dashoffset: 0; stroke: #ffffff; stroke-opacity: 0.3; stroke-width: 0.8"/>
     </g>
     <g id="line2d_8">
      <g>
       <use xlink:href="#m71f5247c50" x="341.060084" y="529.095" style="fill: #ffffff; stroke: #ffffff; stroke-width: 0.8"/>
      </g>
     </g>
     <g id="text_4">
      <!-- 3 -->
      <g style="fill: #ffffff" transform="translate(338.060084 540.845) scale(0.12 -0.12)">
       <defs>
        <path id="SimHei-33" d="M 250 1225 
L 700 1300 
Q 800 975 1025 762 
Q 1250 550 1587 562 
Q 1925 575 2125 837 
Q 2325 1100 2300 1437 
Q 2275 1775 2037 1962 
Q 1800 2150 1275 2225 
L 1275 2550 
Q 1800 2600 2037 2825 
Q 2275 3050 2250 3412 
Q 2225 3775 1925 3937 
Q 1625 4100 1287 3975 
Q 950 3850 750 3275 
L 300 3350 
Q 450 3800 712 4100 
Q 975 4400 1425 4450 
Q 1875 4500 2212 4337 
Q 2550 4175 2687 3837 
Q 2825 3500 2725 3100 
Q 2625 2700 2150 2400 
Q 2500 2250 2687 1950 
Q 2875 1650 2812 1162 
Q 2750 675 2375 375 
Q 2000 75 1525 87 
Q 1050 100 700 387 
Q 350 675 250 1225 
z
" transform="scale(0.015625)"/>
       </defs>
       <use xlink:href="#SimHei-33"/>
      </g>
     </g>
    </g>
    <g id="xtick_5">
     <g id="line2d_9">
      <path d="M 423.180112 529.095 
L 423.180112 52.3875 
" clip-path="url(#p15ab5d34a0)" style="fill: none; stroke-dasharray: 2.96,1.28; stroke-dashoffset: 0; stroke: #ffffff; stroke-opacity: 0.3; stroke-width: 0.8"/>
     </g>
     <g id="line2d_10">
      <g>
       <use xlink:href="#m71f5247c50" x="423.180112" y="529.095" style="fill: #ffffff; stroke: #ffffff; stroke-width: 0.8"/>
      </g>
     </g>
     <g id="text_5">
      <!-- 4 -->
      <g style="fill: #ffffff" transform="translate(420.180112 540.845) scale(0.12 -0.12)">
       <defs>
        <path id="SimHei-34" d="M 2000 1100 
L 75 1100 
L 75 1525 
L 2100 4450 
L 2475 4450 
L 2475 1525 
L 3075 1525 
L 3075 1100 
L 2475 1100 
L 2475 150 
L 2000 150 
L 2000 1100 
z
M 2000 1525 
L 2000 3500 
L 600 1525 
L 2000 1525 
z
" transform="scale(0.015625)"/>
       </defs>
       <use xlink:href="#SimHei-34"/>
      </g>
     </g>
    </g>
    <g id="xtick_6">
     <g id="line2d_11">
      <path d="M 505.30014 529.095 
L 505.30014 52.3875 
" clip-path="url(#p15ab5d34a0)" style="fill: none; stroke-dasharray: 2.96,1.28; stroke-dashoffset: 0; stroke: #ffffff; stroke-opacity: 0.3; stroke-width: 0.8"/>
     </g>
     <g id="line2d_12">
      <g>
       <use xlink:href="#m71f5247c50" x="505.30014" y="529.095" style="fill: #ffffff; stroke: #ffffff; stroke-width: 0.8"/>
      </g>
     </g>
     <g id="text_6">
      <!-- 5 -->
      <g style="fill: #ffffff" transform="translate(502.30014 540.845) scale(0.12 -0.12)">
       <defs>
        <path id="SimHei-35" d="M 550 1325 
Q 725 650 1150 575 
Q 1575 500 1837 662 
Q 2100 825 2212 1087 
Q 2325 1350 2312 1675 
Q 2300 2000 2137 2225 
Q 1975 2450 1725 2525 
Q 1475 2600 1162 2525 
Q 850 2450 650 2175 
L 225 2225 
Q 275 2375 700 4375 
L 2675 4375 
L 2675 3925 
L 1075 3925 
Q 950 3250 825 2850 
Q 1200 3025 1525 3012 
Q 1850 3000 2150 2862 
Q 2450 2725 2587 2487 
Q 2725 2250 2787 2012 
Q 2850 1775 2837 1500 
Q 2825 1225 2725 937 
Q 2625 650 2425 462 
Q 2225 275 1937 162 
Q 1650 50 1275 75 
Q 900 100 562 350 
Q 225 600 100 1200 
L 550 1325 
z
" transform="scale(0.015625)"/>
       </defs>
       <use xlink:href="#SimHei-35"/>
      </g>
     </g>
    </g>
    <g id="text_7">
     <!-- 平均涨跌 % -->
     <g style="fill: #ffffff" transform="translate(285.497026 556.704375) scale(0.13 -0.13)">
      <defs>
       <path id="SimHei-5e73" d="M 4525 4825 
Q 4900 4825 5450 4850 
L 5450 4375 
Q 4925 4400 4525 4400 
L 3475 4400 
L 3475 2025 
L 5000 2025 
Q 5550 2025 6025 2050 
L 6025 1575 
Q 5550 1600 5000 1600 
L 3475 1600 
L 3475 450 
Q 3475 -100 3500 -600 
L 2925 -600 
Q 2950 -100 2950 450 
L 2950 1600 
L 1125 1600 
Q 775 1600 375 1575 
L 375 2050 
Q 775 2025 1175 2025 
L 2950 2025 
L 2950 4400 
L 1775 4400 
Q 1400 4400 875 4375 
L 875 4850 
Q 1400 4825 1750 4825 
L 4525 4825 
z
M 3925 2600 
Q 4500 3300 4900 4125 
Q 5150 3950 5400 3825 
Q 4775 2850 4350 2300 
Q 4150 2475 3925 2600 
z
M 1975 2350 
Q 1600 3100 1050 3725 
Q 1250 3875 1450 4050 
Q 2075 3300 2450 2725 
Q 2150 2500 1975 2350 
z
" transform="scale(0.015625)"/>
       <path id="SimHei-5747" d="M 5775 275 
Q 5775 -325 5362 -450 
Q 4950 -575 4425 -600 
Q 4375 -275 4250 25 
Q 4950 -25 5125 62 
Q 5300 150 5300 500 
L 5375 3700 
L 3550 3700 
Q 3425 3375 3262 3037 
Q 3100 2700 2925 2400 
Q 2675 2550 2475 2625 
Q 3150 3625 3500 5200 
Q 3800 5100 4075 5025 
Q 3975 4875 3875 4650 
Q 3775 4425 3675 4125 
L 5900 4125 
L 5775 275 
z
M 1250 3625 
L 1250 4375 
Q 1250 4775 1225 5100 
L 1775 5100 
Q 1750 4725 1750 4375 
L 1750 3625 
L 1900 3625 
Q 2200 3625 2525 3650 
L 2525 3150 
Q 2200 3175 1900 3175 
L 1750 3175 
L 1750 1100 
L 2500 1375 
Q 2475 1125 2525 900 
Q 1225 475 962 362 
Q 700 250 475 150 
Q 375 475 250 750 
Q 575 800 800 850 
Q 1025 900 1250 975 
L 1250 3175 
L 1125 3175 
Q 850 3175 400 3150 
L 400 3650 
Q 850 3625 1100 3625 
L 1250 3625 
z
M 4950 1625 
Q 4675 1425 4137 1050 
Q 3600 675 3175 300 
Q 3000 575 2850 775 
Q 3350 1050 3762 1325 
Q 4175 1600 4775 2075 
Q 4825 1850 4950 1625 
z
M 3775 3150 
Q 4125 2800 4475 2300 
Q 4250 2125 4100 1975 
Q 3900 2325 3450 2825 
Q 3600 3000 3775 3150 
z
" transform="scale(0.015625)"/>
       <path id="SimHei-6da8" d="M 3750 4350 
Q 3750 4700 3725 5075 
L 4225 5075 
Q 4200 4700 4200 4350 
L 4200 2600 
L 5975 2600 
L 5975 2175 
Q 5500 2200 5025 2200 
Q 5175 1325 5512 700 
Q 5850 75 6175 -125 
Q 5875 -300 5750 -475 
Q 5375 -125 5137 337 
Q 4900 800 4775 1300 
Q 4650 1800 4575 2200 
L 4200 2200 
L 4200 275 
Q 4475 500 4725 775 
Q 4800 550 4925 300 
Q 4800 200 4500 -62 
Q 4200 -325 3875 -600 
Q 3775 -425 3575 -175 
Q 3775 -25 3750 350 
L 3750 2200 
Q 3575 2200 3225 2175 
L 3225 2625 
Q 3575 2600 3750 2600 
L 3750 4350 
z
M 1900 0 
Q 2225 0 2437 25 
Q 2650 50 2650 275 
L 2650 1675 
L 1775 1675 
Q 1875 2675 1850 3475 
L 2750 3475 
L 2750 4475 
L 2575 4475 
Q 2125 4475 1775 4450 
L 1775 4900 
Q 2175 4875 2550 4875 
L 3225 4875 
Q 3200 4425 3200 3975 
Q 3200 3525 3225 3075 
L 2325 3075 
L 2275 2075 
L 3125 2075 
Q 3100 1700 3100 1325 
L 3100 100 
Q 3100 -250 2912 -375 
Q 2725 -500 2125 -550 
Q 2100 -250 1900 0 
z
M 1475 1550 
Q 1300 1075 1125 525 
L 775 -575 
Q 550 -400 275 -275 
Q 500 75 712 662 
Q 925 1250 1075 1825 
Q 1250 1650 1475 1550 
z
M 5675 4650 
Q 5525 4375 5337 3950 
Q 5150 3525 4825 2875 
Q 4575 3025 4425 3075 
Q 4625 3425 4875 4000 
Q 5125 4575 5200 4875 
Q 5425 4750 5675 4650 
z
M 500 3550 
Q 1100 3200 1425 2975 
Q 1225 2675 1150 2500 
Q 750 2800 225 3125 
Q 375 3350 500 3550 
z
M 1300 4100 
Q 900 4475 425 4775 
Q 575 4950 725 5150 
Q 1200 4800 1600 4500 
Q 1425 4325 1300 4100 
z
" transform="scale(0.015625)"/>
       <path id="SimHei-8dcc" d="M 1050 2475 
Q 1025 2000 1025 1625 
L 1025 500 
Q 1250 525 1500 575 
L 1500 2975 
L 725 2975 
Q 750 3425 750 3925 
Q 750 4425 725 4900 
L 2650 4900 
Q 2625 4425 2625 3925 
Q 2625 3425 2650 2975 
L 1925 2975 
L 1925 2200 
Q 2325 2200 2650 2225 
L 2650 1750 
Q 2250 1775 1925 1775 
L 1925 650 
Q 2275 725 2825 850 
Q 2775 625 2775 425 
Q 1350 75 1025 -12 
Q 700 -100 450 -200 
Q 400 100 250 375 
Q 400 375 600 425 
L 600 1700 
Q 600 2050 575 2475 
L 1050 2475 
z
M 3325 2725 
Q 3050 2825 2875 2875 
Q 3050 3350 3125 3862 
Q 3200 4375 3200 4750 
Q 3425 4675 3750 4625 
Q 3650 4350 3600 4025 
L 4200 4025 
L 4200 4525 
Q 4200 4825 4150 5250 
Q 4450 5200 4725 5175 
Q 4675 5000 4650 4725 
Q 4625 4450 4625 4025 
Q 5400 4025 5775 4050 
L 5775 3575 
Q 5400 3600 4625 3600 
L 4625 2375 
Q 5650 2375 6050 2400 
L 6050 1950 
Q 5625 1975 4750 1975 
Q 4900 1250 5300 687 
Q 5700 125 6200 -100 
Q 5975 -275 5775 -575 
Q 5275 -100 4962 412 
Q 4650 925 4475 1575 
Q 4325 925 4087 525 
Q 3850 125 3537 -150 
Q 3225 -425 2850 -650 
Q 2675 -425 2475 -275 
Q 2900 -75 3200 187 
Q 3500 450 3737 850 
Q 3975 1250 4100 1975 
Q 3375 1975 2850 1950 
L 2850 2400 
Q 3450 2375 4175 2375 
Q 4200 3175 4200 3600 
L 3550 3600 
Q 3450 3275 3325 2725 
z
M 2225 3350 
L 2225 4525 
L 1175 4525 
L 1175 3350 
L 2225 3350 
z
" transform="scale(0.015625)"/>
       <path id="SimHei-20" transform="scale(0.015625)"/>
       <path id="SimHei-25" d="M 1400 3325 
Q 1400 2600 1187 2400 
Q 975 2200 775 2200 
Q 575 2200 362 2400 
Q 150 2600 150 3325 
Q 150 4050 362 4250 
Q 575 4450 775 4450 
Q 975 4450 1187 4250 
Q 1400 4050 1400 3325 
z
M 2625 4375 
L 700 75 
L 500 150 
L 2425 4450 
L 2625 4375 
z
M 2975 1200 
Q 2975 475 2762 275 
Q 2550 75 2350 75 
Q 2150 75 1937 275 
Q 1725 475 1725 1200 
Q 1725 1925 1937 2125 
Q 2150 2325 2350 2325 
Q 2550 2325 2762 2125 
Q 2975 1925 2975 1200 
z
M 1000 3325 
Q 1000 3775 950 3925 
Q 900 4075 775 4075 
Q 650 4075 600 3925 
Q 550 3775 550 3325 
Q 550 2875 600 2725 
Q 650 2575 775 2575 
Q 900 2575 950 2725 
Q 1000 2875 1000 3325 
z
M 2575 1200 
Q 2575 1650 2525 1800 
Q 2475 1950 2350 1950 
Q 2225 1950 2175 1800 
Q 2125 1650 2125 1200 
Q 2125 750 2175 600 
Q 2225 450 2350 450 
Q 2475 450 2525 600 
Q 2575 750 2575 1200 
z
" transform="scale(0.015625)"/>
      </defs>
      <use xlink:href="#SimHei-5e73"/>
      <use xlink:href="#SimHei-5747" transform="translate(100 0)"/>
      <use xlink:href="#SimHei-6da8" transform="translate(200 0)"/>
      <use xlink:href="#SimHei-8dcc" transform="translate(300 0)"/>
      <use xlink:href="#SimHei-20" transform="translate(400 0)"/>
      <use xlink:href="#SimHei-25" transform="translate(450 0)"/>
     </g>
    </g>
   </g>
   <g id="matplotlib.axis_2">
    <g id="ytick_1">
     <g id="line2d_13">
      <path d="M 94.7 485.202351 
L 541.294051 485.202351 
" clip-path="url(#p15ab5d34a0)" style="fill: none; stroke-dasharray: 2.96,1.28; stroke-dashoffset: 0; stroke: #ffffff; stroke-opacity: 0.25; stroke-width: 0.8"/>
     </g>
     <g id="line2d_14">
      <defs>
       <path id="mf77f4b5f9c" d="M 0 0 
L 3.5 0 
" style="stroke: #ffffff; stroke-width: 0.8"/>
      </defs>
      <g>
       <use xlink:href="#mf77f4b5f9c" x="94.7" y="485.202351" style="fill: #ffffff; stroke: #ffffff; stroke-width: 0.8"/>
      </g>
     </g>
     <g id="text_8">
      <!-- 云基础设施服务 -->
      <g style="fill: #ffffff" transform="translate(7.2 490.100789) scale(0.12 -0.12)">
       <defs>
        <path id="SimHei-4e91" d="M 4925 50 
Q 2750 -125 2012 -212 
Q 1275 -300 1125 -350 
Q 1025 -75 900 200 
Q 1075 250 1375 600 
Q 1675 950 2087 1612 
Q 2500 2275 2550 2600 
L 1250 2600 
Q 950 2600 425 2575 
L 425 3050 
Q 950 3025 1325 3025 
L 5225 3025 
Q 5550 3025 5975 3050 
L 5975 2575 
Q 5575 2600 5200 2600 
L 2675 2600 
Q 2825 2500 3175 2275 
Q 3000 2100 2862 1900 
Q 2725 1700 2437 1275 
Q 2150 850 1600 200 
Q 2425 275 4650 425 
Q 4200 1025 3825 1425 
Q 4025 1575 4200 1750 
Q 5375 375 5700 -100 
Q 5525 -225 5275 -425 
Q 5100 -150 4925 50 
z
M 4525 4725 
Q 4900 4725 5300 4750 
L 5300 4250 
Q 4925 4275 4525 4275 
L 1900 4275 
Q 1600 4275 1225 4250 
L 1225 4750 
Q 1600 4725 1875 4725 
L 4525 4725 
z
" transform="scale(0.015625)"/>
        <path id="SimHei-57fa" d="M 1800 4550 
Q 1800 4900 1775 5200 
L 2300 5200 
Q 2275 4875 2275 4550 
L 4075 4550 
Q 4075 4900 4050 5200 
L 4575 5200 
Q 4550 4875 4550 4550 
L 4925 4550 
Q 5200 4550 5625 4575 
L 5625 4175 
Q 5200 4200 4925 4200 
L 4550 4200 
L 4550 2225 
L 5100 2225 
Q 5600 2225 6025 2250 
L 6025 1800 
Q 5625 1850 5125 1850 
L 4500 1850 
Q 4875 1450 5225 1237 
Q 5575 1025 6125 900 
Q 5900 625 5850 350 
Q 5200 650 4737 1037 
Q 4275 1425 4000 1850 
L 2500 1850 
Q 2200 1375 1712 1000 
Q 1225 625 550 350 
Q 475 575 275 825 
Q 700 925 1212 1212 
Q 1725 1500 1950 1850 
L 1300 1850 
Q 850 1850 400 1800 
L 400 2250 
Q 850 2225 1300 2225 
L 1800 2225 
L 1800 4200 
Q 1200 4200 775 4175 
L 775 4575 
Q 1200 4550 1625 4550 
L 1800 4550 
z
M 2950 950 
Q 2950 1200 2925 1575 
L 3475 1575 
Q 3425 1300 3425 950 
L 3900 950 
Q 4250 950 4575 975 
L 4575 500 
Q 4250 550 3875 550 
L 3425 550 
L 3425 -100 
L 4500 -100 
Q 5075 -100 5550 -75 
L 5550 -525 
Q 5075 -500 4500 -500 
L 1800 -500 
Q 1300 -500 850 -525 
L 850 -75 
Q 1275 -100 1800 -100 
L 2950 -100 
L 2950 550 
L 2550 550 
Q 2125 550 1775 525 
L 1775 975 
Q 2125 950 2500 950 
L 2950 950 
z
M 4075 2225 
L 4075 2650 
L 2275 2650 
L 2275 2225 
L 4075 2225 
z
M 4075 3775 
L 4075 4200 
L 2275 4200 
L 2275 3775 
L 4075 3775 
z
M 4075 3025 
L 4075 3375 
L 2275 3375 
L 2275 3025 
L 4075 3025 
z
" transform="scale(0.015625)"/>
        <path id="SimHei-7840" d="M 3550 4475 
Q 3525 4175 3525 3725 
L 3525 2900 
L 4275 2900 
L 4275 4475 
Q 4250 4900 4225 5250 
L 4775 5250 
Q 4725 4900 4725 4500 
L 4725 2900 
L 5475 2900 
L 5475 3850 
Q 5475 4250 5450 4500 
L 5950 4500 
Q 5925 4250 5925 3850 
L 5925 3150 
Q 5925 2725 5950 2475 
L 4725 2475 
L 4725 75 
L 5550 100 
L 5550 1125 
Q 5550 1500 5525 1850 
L 6025 1850 
Q 6000 1525 6000 1175 
L 6000 275 
Q 6000 -225 6025 -700 
L 5550 -700 
L 5550 -275 
L 3050 -375 
Q 3075 -25 3075 400 
L 3075 1150 
Q 3075 1625 3050 1850 
L 3550 1850 
Q 3525 1550 3525 1150 
L 3525 25 
L 4275 50 
L 4275 2475 
L 3050 2475 
Q 3075 2900 3075 3225 
L 3075 3625 
Q 3075 4150 3050 4475 
L 3550 4475 
z
M 2125 4550 
Q 2425 4550 2725 4575 
L 2725 4125 
Q 2575 4150 2125 4150 
L 1900 4150 
Q 1775 3550 1550 2875 
L 2550 2875 
Q 2525 2425 2525 2100 
L 2525 925 
Q 2525 525 2550 -50 
L 2100 -50 
L 2100 300 
L 1425 300 
L 1425 -375 
L 950 -375 
Q 1000 250 1000 650 
L 1000 1925 
Q 825 1650 575 1400 
Q 475 1625 225 1875 
Q 525 2125 700 2350 
Q 875 2575 1075 3025 
Q 1275 3475 1400 4150 
Q 975 4150 575 4125 
L 575 4575 
Q 875 4550 1150 4550 
L 2125 4550 
z
M 2100 700 
L 2100 2450 
L 1425 2450 
L 1425 700 
L 2100 700 
z
" transform="scale(0.015625)"/>
        <path id="SimHei-8bbe" d="M 2275 2525 
Q 2675 2500 3175 2500 
L 5425 2500 
Q 5275 2050 5012 1512 
Q 4750 975 4300 450 
Q 5100 -75 6150 -100 
Q 5950 -325 5850 -625 
Q 4775 -400 3925 150 
Q 3600 -50 3150 -287 
Q 2700 -525 2175 -675 
Q 2075 -475 1800 -300 
Q 2350 -200 2837 25 
Q 3325 250 3575 475 
Q 3025 1050 2675 2100 
L 2275 2100 
L 2275 2525 
z
M 4825 2775 
Q 4400 2775 4375 3125 
L 4375 4525 
L 3275 4525 
Q 3275 3825 3112 3425 
Q 2950 3025 2425 2600 
Q 2325 2775 2025 2900 
Q 2650 3325 2737 3875 
Q 2825 4425 2800 4925 
L 4900 4925 
Q 4875 4625 4875 4175 
L 4875 3500 
Q 4875 3300 5012 3262 
Q 5150 3225 5400 3237 
Q 5650 3250 5975 3275 
Q 5925 3025 5975 2775 
L 4825 2775 
z
M 1650 3225 
Q 1625 2775 1625 2225 
L 1625 700 
Q 1950 1000 2175 1300 
Q 2250 1050 2425 775 
Q 2100 475 1825 200 
Q 1550 -75 1325 -400 
Q 1150 -125 950 25 
Q 1150 225 1150 600 
L 1150 2800 
Q 625 2800 275 2775 
L 275 3250 
Q 600 3225 950 3225 
L 1650 3225 
z
M 3950 800 
Q 4450 1300 4725 2100 
L 3175 2100 
Q 3350 1325 3950 800 
z
M 1025 5175 
Q 1425 4850 2000 4150 
Q 1800 4025 1600 3825 
Q 1175 4400 700 4850 
Q 850 4950 1025 5175 
z
" transform="scale(0.015625)"/>
        <path id="SimHei-65bd" d="M 3050 2300 
Q 3050 2575 3025 2925 
L 3500 2925 
Q 3475 2600 3475 2450 
L 4125 2650 
Q 4125 3125 4100 3625 
L 4575 3625 
Q 4550 3175 4550 2800 
L 5700 3225 
Q 5675 2850 5675 2575 
L 5650 1475 
Q 5600 1225 5425 1087 
Q 5250 950 4900 850 
Q 4900 1100 4725 1325 
Q 5250 1375 5225 1650 
L 5250 2625 
L 4550 2400 
Q 4550 1050 4575 575 
L 4100 575 
Q 4125 1175 4125 2250 
L 3475 2050 
L 3475 350 
Q 3475 25 3900 25 
L 5050 25 
Q 5275 25 5412 100 
Q 5550 175 5600 650 
Q 5825 425 6100 400 
Q 5975 -350 5375 -350 
L 3550 -350 
Q 3050 -350 3050 200 
L 3050 1850 
Q 2875 1800 2675 1700 
L 2525 2150 
L 3050 2300 
z
M 2575 3700 
Q 2250 3725 1925 3725 
L 1450 3725 
L 1450 2800 
L 2475 2800 
Q 2450 2500 2425 1800 
L 2350 250 
Q 2350 -25 2150 -150 
Q 1950 -275 1600 -400 
Q 1525 -225 1325 100 
Q 1925 150 1925 400 
L 2025 2425 
L 1425 2425 
Q 1350 775 650 -525 
Q 450 -350 200 -250 
Q 1075 1050 1025 3725 
Q 625 3725 300 3700 
L 300 4125 
Q 700 4100 1425 4100 
Q 2175 4100 2575 4125 
L 2575 3700 
z
M 4100 5100 
Q 3950 4975 3675 4400 
L 5075 4400 
Q 5525 4400 6000 4425 
L 6000 4000 
Q 5525 4025 5075 4025 
L 3500 4025 
Q 3175 3375 2850 2975 
Q 2675 3150 2375 3225 
Q 2775 3575 3112 4275 
Q 3450 4975 3525 5325 
Q 3850 5175 4100 5100 
z
M 1550 5225 
Q 1825 4850 2025 4475 
Q 1800 4350 1550 4225 
Q 1375 4725 1175 5025 
Q 1375 5125 1550 5225 
z
" transform="scale(0.015625)"/>
        <path id="SimHei-670d" d="M 3700 -575 
L 3225 -575 
Q 3250 25 3250 550 
L 3250 4025 
Q 3250 4450 3225 4950 
L 5550 4950 
Q 5525 4600 5500 4187 
Q 5475 3775 5425 3562 
Q 5375 3350 5125 3250 
Q 4875 3150 4475 3100 
Q 4400 3400 4250 3600 
Q 4875 3600 4950 3737 
Q 5025 3875 5025 4525 
L 3700 4525 
L 3700 2850 
L 5775 2850 
Q 5675 2200 5525 1687 
Q 5375 1175 5125 675 
Q 5550 175 6100 -75 
Q 5925 -225 5750 -500 
Q 5275 -175 4850 300 
Q 4550 -125 4025 -600 
Q 3900 -375 3750 -200 
Q 4100 50 4525 650 
Q 4200 1075 3875 2425 
L 3700 2425 
L 3700 -575 
z
M 2675 4925 
Q 2650 4725 2650 4000 
L 2650 300 
Q 2650 -225 2425 -337 
Q 2200 -450 1800 -550 
Q 1700 -175 1550 50 
Q 1900 50 2050 75 
Q 2200 100 2200 450 
L 2200 1700 
L 1225 1700 
Q 1175 1075 1050 550 
Q 925 25 700 -475 
Q 500 -300 225 -175 
Q 525 375 637 862 
Q 750 1350 787 1850 
Q 825 2350 825 3425 
Q 825 4500 800 4925 
L 2675 4925 
z
M 2200 2125 
L 2200 3125 
L 1275 3125 
L 1250 2125 
L 2200 2125 
z
M 2200 3550 
L 2200 4500 
L 1275 4500 
L 1275 3550 
L 2200 3550 
z
M 4325 2425 
Q 4525 1475 4800 1050 
Q 5100 1625 5225 2425 
L 4325 2425 
z
" transform="scale(0.015625)"/>
        <path id="SimHei-52a1" d="M 2850 4950 
Q 2650 4775 2500 4550 
L 5275 4550 
Q 5050 4175 4687 3750 
Q 4325 3325 3775 2950 
Q 4125 2725 4725 2612 
Q 5325 2500 6150 2475 
Q 5950 2250 5875 1950 
Q 5175 2000 4500 2200 
Q 3825 2400 3375 2675 
Q 2575 2300 1925 2125 
Q 1275 1950 650 1850 
Q 550 2150 350 2375 
Q 900 2375 1600 2525 
Q 2300 2675 2975 2950 
Q 2450 3450 2075 3975 
Q 1650 3450 1200 3100 
Q 1025 3300 750 3400 
Q 1450 3900 1775 4362 
Q 2100 4825 2250 5225 
Q 2575 5050 2850 4950 
z
M 2800 1650 
Q 2850 1950 2850 2350 
Q 3150 2300 3450 2275 
Q 3375 2125 3300 1650 
L 5325 1650 
Q 5300 1350 5275 962 
Q 5250 575 5187 125 
Q 5125 -325 4825 -400 
Q 4525 -475 3875 -550 
Q 3825 -225 3625 0 
Q 4350 0 4500 50 
Q 4650 100 4700 325 
L 4775 1275 
L 3250 1275 
Q 2900 200 2262 -125 
Q 1625 -450 900 -700 
Q 825 -475 550 -175 
Q 1150 -125 1800 200 
Q 2450 525 2725 1275 
L 2150 1275 
Q 1400 1275 1050 1225 
L 1050 1675 
Q 1425 1650 2175 1650 
L 2800 1650 
z
M 3400 3225 
Q 3900 3525 4375 4175 
L 2500 4175 
Q 2975 3550 3400 3225 
z
" transform="scale(0.015625)"/>
       </defs>
       <use xlink:href="#SimHei-4e91"/>
       <use xlink:href="#SimHei-57fa" transform="translate(100 0)"/>
       <use xlink:href="#SimHei-7840" transform="translate(200 0)"/>
       <use xlink:href="#SimHei-8bbe" transform="translate(300 0)"/>
       <use xlink:href="#SimHei-65bd" transform="translate(400 0)"/>
       <use xlink:href="#SimHei-670d" transform="translate(500 0)"/>
       <use xlink:href="#SimHei-52a1" transform="translate(600 0)"/>
      </g>
     </g>
    </g>
    <g id="ytick_2">
     <g id="line2d_15">
      <path d="M 94.7 429.642037 
L 541.294051 429.642037 
" clip-path="url(#p15ab5d34a0)" style="fill: none; stroke-dasharray: 2.96,1.28; stroke-dashoffset: 0; stroke: #ffffff; stroke-opacity: 0.25; stroke-width: 0.8"/>
     </g>
     <g id="line2d_16">
      <g>
       <use xlink:href="#mf77f4b5f9c" x="94.7" y="429.642037" style="fill: #ffffff; stroke: #ffffff; stroke-width: 0.8"/>
      </g>
     </g>
     <g id="text_9">
      <!-- 油田服务 -->
      <g style="fill: #ffffff" transform="translate(43.2 434.446724) scale(0.12 -0.12)">
       <defs>
        <path id="SimHei-6cb9" d="M 3775 4250 
Q 3775 4575 3750 5100 
L 4275 5100 
Q 4250 4575 4250 4250 
L 4250 3750 
L 5825 3750 
Q 5800 3150 5800 2825 
L 5800 425 
Q 5800 150 5825 -525 
L 5325 -525 
L 5325 0 
L 2700 0 
L 2700 -525 
L 2200 -525 
Q 2225 125 2225 450 
L 2225 2800 
Q 2225 3125 2200 3750 
L 3775 3750 
L 3775 4250 
z
M 3775 400 
L 3775 1700 
L 2700 1700 
L 2700 400 
L 3775 400 
z
M 5325 400 
L 5325 1700 
L 4250 1700 
L 4250 400 
L 5325 400 
z
M 5325 2100 
L 5325 3350 
L 4250 3350 
L 4250 2100 
L 5325 2100 
z
M 3775 2100 
L 3775 3350 
L 2700 3350 
L 2700 2100 
L 3775 2100 
z
M 1900 1550 
Q 1725 1250 1425 525 
Q 1125 -200 925 -575 
Q 750 -375 400 -250 
Q 725 125 1025 750 
Q 1325 1375 1450 1825 
Q 1700 1650 1900 1550 
z
M 1075 4875 
Q 1600 4550 2150 4175 
Q 1950 4000 1825 3750 
Q 1325 4150 775 4475 
L 1075 4875 
z
M 625 3325 
Q 1175 3075 1800 2725 
Q 1600 2475 1550 2275 
Q 975 2650 400 2900 
Q 500 3125 625 3325 
z
" transform="scale(0.015625)"/>
        <path id="SimHei-7530" d="M 5650 4725 
Q 5625 4000 5625 3475 
L 5625 800 
Q 5625 275 5650 -475 
L 5175 -475 
L 5175 -50 
L 1250 -50 
L 1250 -600 
L 725 -600 
Q 750 125 750 750 
L 750 3475 
Q 750 4000 725 4725 
L 5650 4725 
z
M 5150 400 
L 5150 2175 
L 3400 2175 
L 3400 400 
L 5150 400 
z
M 2925 400 
L 2925 2175 
L 1250 2175 
L 1250 400 
L 2925 400 
z
M 5150 2625 
L 5150 4275 
L 3400 4275 
L 3400 2625 
L 5150 2625 
z
M 2925 2625 
L 2925 4275 
L 1250 4275 
L 1250 2625 
L 2925 2625 
z
" transform="scale(0.015625)"/>
       </defs>
       <use xlink:href="#SimHei-6cb9"/>
       <use xlink:href="#SimHei-7530" transform="translate(100 0)"/>
       <use xlink:href="#SimHei-670d" transform="translate(200 0)"/>
       <use xlink:href="#SimHei-52a1" transform="translate(300 0)"/>
      </g>
     </g>
    </g>
    <g id="ytick_3">
     <g id="line2d_17">
      <path d="M 94.7 374.081722 
L 541.294051 374.081722 
" clip-path="url(#p15ab5d34a0)" style="fill: none; stroke-dasharray: 2.96,1.28; stroke-dashoffset: 0; stroke: #ffffff; stroke-opacity: 0.25; stroke-width: 0.8"/>
     </g>
     <g id="line2d_18">
      <g>
       <use xlink:href="#mf77f4b5f9c" x="94.7" y="374.081722" style="fill: #ffffff; stroke: #ffffff; stroke-width: 0.8"/>
      </g>
     </g>
     <g id="text_10">
      <!-- 云软件服务 -->
      <g style="fill: #ffffff" transform="translate(31.2 378.933285) scale(0.12 -0.12)">
       <defs>
        <path id="SimHei-8f6f" d="M 3100 950 
Q 2825 925 2125 825 
Q 2125 -200 2150 -650 
L 1650 -650 
Q 1675 -25 1675 750 
Q 800 600 500 525 
Q 425 825 300 1000 
Q 675 1025 1675 1150 
L 1675 2050 
Q 950 2025 550 1950 
L 350 2400 
Q 575 2525 775 3000 
Q 975 3475 1100 3925 
Q 750 3925 350 3900 
L 350 4325 
Q 800 4300 1200 4300 
Q 1350 4800 1400 5275 
Q 1700 5150 1975 5100 
Q 1875 4975 1675 4300 
L 2000 4300 
Q 2525 4300 2975 4325 
L 2975 3900 
Q 2525 3925 2025 3925 
L 1575 3925 
Q 1175 2750 1025 2425 
L 1675 2425 
Q 1675 3000 1650 3375 
L 2175 3375 
Q 2125 3050 2125 2425 
L 3125 2425 
L 3125 2050 
L 2125 2050 
L 2125 1225 
Q 2750 1300 3125 1375 
Q 3100 1175 3100 950 
z
M 2550 -225 
Q 3050 75 3437 612 
Q 3825 1150 3975 1812 
Q 4125 2475 4075 3125 
Q 4300 3075 4625 3075 
Q 4575 2525 4600 2150 
Q 4625 1775 4787 1350 
Q 4950 925 5275 575 
Q 5600 225 6200 -50 
Q 5900 -275 5775 -525 
Q 5025 50 4737 525 
Q 4450 1000 4350 1325 
Q 4150 775 3837 312 
Q 3525 -150 3000 -625 
Q 2850 -375 2550 -225 
z
M 5100 2875 
Q 5225 3250 5350 3675 
L 3775 3675 
Q 3525 3175 3325 2800 
Q 3125 2975 2850 3025 
Q 3200 3525 3437 4100 
Q 3675 4675 3775 5200 
Q 4100 5075 4400 5025 
Q 4200 4850 3900 4050 
L 6000 4050 
Q 5825 3575 5600 2775 
Q 5325 2850 5100 2875 
z
" transform="scale(0.015625)"/>
        <path id="SimHei-4ef6" d="M 3275 4475 
Q 3150 4375 2925 3775 
L 3900 3775 
L 3900 4275 
Q 3900 4900 3875 5125 
L 4400 5125 
Q 4375 4925 4375 4300 
L 4375 3775 
L 5125 3775 
Q 5450 3775 5725 3800 
L 5725 3325 
Q 5450 3350 5125 3350 
L 4375 3350 
L 4375 2000 
L 5200 2000 
Q 5575 2000 6100 2025 
L 6100 1550 
Q 5675 1575 5175 1575 
L 4375 1575 
L 4375 275 
Q 4375 -100 4400 -550 
L 3875 -550 
Q 3900 -100 3900 275 
L 3900 1575 
L 2925 1575 
Q 2500 1575 1925 1550 
L 1925 2025 
Q 2475 2000 2825 2000 
L 3900 2000 
L 3900 3350 
L 2775 3350 
Q 2700 3150 2350 2425 
Q 2275 2500 1900 2650 
Q 2150 3025 2350 3500 
Q 2550 3975 2700 4700 
Q 2900 4575 3275 4475 
z
M 1150 3200 
Q 900 2825 550 2375 
Q 425 2625 200 2750 
Q 650 3200 1025 3850 
Q 1400 4500 1650 5250 
Q 1950 5050 2175 4975 
Q 2000 4825 1625 4025 
L 1625 625 
Q 1625 -175 1650 -575 
L 1125 -575 
Q 1150 -225 1150 600 
L 1150 3200 
z
" transform="scale(0.015625)"/>
       </defs>
       <use xlink:href="#SimHei-4e91"/>
       <use xlink:href="#SimHei-8f6f" transform="translate(100 0)"/>
       <use xlink:href="#SimHei-4ef6" transform="translate(200 0)"/>
       <use xlink:href="#SimHei-670d" transform="translate(300 0)"/>
       <use xlink:href="#SimHei-52a1" transform="translate(400 0)"/>
      </g>
     </g>
    </g>
    <g id="ytick_4">
     <g id="line2d_19">
      <path d="M 94.7 318.521407 
L 541.294051 318.521407 
" clip-path="url(#p15ab5d34a0)" style="fill: none; stroke-dasharray: 2.96,1.28; stroke-dashoffset: 0; stroke: #ffffff; stroke-opacity: 0.25; stroke-width: 0.8"/>
     </g>
     <g id="line2d_20">
      <g>
       <use xlink:href="#mf77f4b5f9c" x="94.7" y="318.521407" style="fill: #ffffff; stroke: #ffffff; stroke-width: 0.8"/>
      </g>
     </g>
     <g id="text_11">
      <!-- 基础软件 -->
      <g style="fill: #ffffff" transform="translate(43.2 323.37297) scale(0.12 -0.12)">
       <use xlink:href="#SimHei-57fa"/>
       <use xlink:href="#SimHei-7840" transform="translate(100 0)"/>
       <use xlink:href="#SimHei-8f6f" transform="translate(200 0)"/>
       <use xlink:href="#SimHei-4ef6" transform="translate(300 0)"/>
      </g>
     </g>
    </g>
    <g id="ytick_5">
     <g id="line2d_21">
      <path d="M 94.7 262.961093 
L 541.294051 262.961093 
" clip-path="url(#p15ab5d34a0)" style="fill: none; stroke-dasharray: 2.96,1.28; stroke-dashoffset: 0; stroke: #ffffff; stroke-opacity: 0.25; stroke-width: 0.8"/>
     </g>
     <g id="line2d_22">
      <g>
       <use xlink:href="#mf77f4b5f9c" x="94.7" y="262.961093" style="fill: #ffffff; stroke: #ffffff; stroke-width: 0.8"/>
      </g>
     </g>
     <g id="text_12">
      <!-- 半导体制造 -->
      <g style="fill: #ffffff" transform="translate(31.2 267.718905) scale(0.12 -0.12)">
       <defs>
        <path id="SimHei-534a" d="M 2900 2925 
L 2900 4500 
Q 2900 4800 2875 5100 
L 3450 5100 
Q 3425 4850 3425 4400 
L 3425 2925 
L 4625 2925 
Q 5125 2925 5625 2950 
L 5625 2475 
Q 5125 2500 4525 2500 
L 3425 2500 
L 3425 1575 
L 5025 1575 
Q 5575 1575 6050 1600 
L 6050 1125 
Q 5575 1150 5050 1150 
L 3425 1150 
L 3425 200 
Q 3425 -125 3450 -575 
L 2850 -575 
Q 2900 -100 2900 200 
L 2900 1150 
L 1300 1150 
Q 775 1150 250 1125 
L 250 1600 
Q 775 1575 1575 1575 
L 2900 1575 
L 2900 2500 
L 1775 2500 
Q 1250 2500 675 2475 
L 675 2950 
Q 1225 2925 1650 2925 
L 2900 2925 
z
M 1300 4825 
Q 1825 4200 2225 3675 
Q 2025 3550 1725 3325 
Q 1350 3925 825 4475 
Q 1075 4600 1300 4825 
z
M 4125 3575 
Q 4575 4100 4925 4800 
Q 5175 4600 5475 4475 
Q 5400 4400 5100 3975 
Q 4800 3550 4600 3275 
Q 4400 3450 4125 3575 
z
" transform="scale(0.015625)"/>
        <path id="SimHei-5bfc" d="M 5125 5100 
Q 5100 4850 5100 4350 
Q 5100 3875 5125 3550 
L 1600 3550 
L 1600 3200 
Q 1600 2850 2050 2850 
L 4725 2850 
Q 5100 2850 5212 2950 
Q 5325 3050 5350 3500 
Q 5600 3300 5925 3200 
Q 5700 2625 5575 2525 
Q 5450 2425 5075 2425 
L 1675 2425 
Q 1100 2425 1100 3025 
L 1100 4450 
Q 1100 4775 1050 5100 
L 5125 5100 
z
M 4200 1725 
Q 4200 1950 4175 2300 
L 4725 2300 
Q 4700 1900 4700 1725 
L 5200 1725 
Q 5575 1725 6100 1750 
L 6100 1300 
Q 5575 1325 5200 1325 
L 4700 1325 
L 4700 225 
Q 4700 -225 4450 -375 
Q 4200 -525 3550 -650 
Q 3475 -325 3325 -50 
Q 3975 -50 4087 25 
Q 4200 100 4200 300 
L 4200 1325 
L 1425 1325 
Q 900 1325 350 1300 
L 350 1750 
Q 850 1725 1400 1725 
L 4200 1725 
z
M 4625 3975 
L 4625 4700 
L 1600 4700 
L 1600 3975 
L 4625 3975 
z
M 1625 1150 
Q 2000 725 2375 125 
Q 2100 -50 1925 -175 
Q 1650 325 1250 825 
Q 1450 950 1625 1150 
z
" transform="scale(0.015625)"/>
        <path id="SimHei-4f53" d="M 3650 3850 
Q 3650 4750 3625 5125 
L 4125 5125 
Q 4100 4775 4100 3850 
L 5200 3850 
Q 5700 3850 5925 3875 
L 5925 3425 
Q 5700 3450 5200 3450 
L 4525 3450 
Q 4925 1850 6200 1200 
Q 5925 1050 5775 775 
Q 4425 1800 4100 3425 
L 4100 1025 
Q 4825 1025 5050 1050 
L 5050 600 
Q 4825 625 4100 625 
Q 4100 75 4125 -575 
L 3625 -575 
Q 3650 100 3650 625 
Q 3200 625 2700 600 
L 2700 1050 
Q 3200 1025 3650 1025 
L 3650 3450 
Q 3375 1800 2000 650 
Q 1850 875 1550 1025 
Q 2850 1875 3200 3450 
L 2675 3450 
Q 2275 3450 1975 3425 
L 1975 3875 
Q 2275 3850 2675 3850 
L 3650 3850 
z
M 2000 4900 
Q 1825 4675 1525 3775 
L 1525 575 
Q 1525 -200 1550 -550 
L 1050 -550 
Q 1075 -225 1075 550 
L 1075 2900 
Q 950 2625 575 2050 
Q 450 2275 225 2425 
Q 525 2725 925 3612 
Q 1325 4500 1425 5125 
Q 1700 5000 2000 4900 
z
" transform="scale(0.015625)"/>
        <path id="SimHei-5236" d="M 1325 4625 
Q 1175 4375 1075 4150 
L 1800 4150 
Q 1800 4775 1775 5125 
L 2350 5125 
Q 2325 4800 2325 4150 
L 2700 4150 
Q 3200 4150 3600 4175 
L 3600 3725 
Q 3250 3750 2725 3750 
L 2325 3750 
L 2325 3025 
L 2950 3025 
Q 3325 3025 3750 3050 
L 3750 2625 
L 2325 2625 
L 2325 1950 
L 3675 1950 
Q 3650 1650 3637 1125 
Q 3625 600 3612 412 
Q 3600 225 3400 137 
Q 3200 50 2825 -25 
Q 2775 250 2650 550 
Q 2975 550 3050 587 
Q 3125 625 3125 975 
L 3125 1550 
L 2325 1550 
L 2325 175 
Q 2325 -250 2350 -550 
L 1775 -550 
Q 1800 -75 1800 175 
L 1800 1550 
L 1025 1550 
L 1025 -25 
L 500 -25 
Q 525 300 525 650 
L 525 1200 
Q 525 1675 500 1950 
L 1800 1950 
L 1800 2625 
L 1000 2625 
Q 550 2625 225 2600 
L 225 3050 
Q 550 3025 1000 3025 
L 1800 3025 
L 1800 3750 
L 925 3750 
Q 800 3450 675 3250 
Q 450 3400 225 3500 
Q 400 3750 525 4075 
Q 650 4400 750 4800 
Q 1000 4700 1325 4625 
z
M 5875 5075 
Q 5850 4825 5850 4350 
L 5850 25 
Q 5850 -325 5587 -412 
Q 5325 -500 4825 -575 
Q 4750 -250 4625 0 
Q 5050 0 5200 25 
Q 5350 50 5350 350 
L 5350 4350 
Q 5350 4775 5325 5075 
L 5875 5075 
z
M 4675 4325 
Q 4650 3975 4650 3700 
L 4650 1625 
Q 4650 1275 4675 775 
L 4125 775 
Q 4175 1200 4175 1625 
L 4175 3700 
Q 4175 3950 4125 4325 
L 4675 4325 
z
" transform="scale(0.015625)"/>
        <path id="SimHei-9020" d="M 5525 2325 
Q 5500 1825 5500 1350 
Q 5500 875 5525 400 
L 5000 400 
L 5000 750 
L 3025 750 
L 3025 425 
L 2525 425 
Q 2550 900 2550 1375 
Q 2550 1850 2525 2325 
L 5525 2325 
z
M 200 -100 
Q 950 475 1250 625 
L 1250 2600 
Q 775 2600 350 2575 
L 350 3025 
Q 850 3000 1750 3000 
Q 1725 2525 1725 2250 
L 1725 675 
Q 2050 325 2600 175 
Q 3150 25 4075 0 
Q 5000 -25 6200 50 
Q 6000 -200 5975 -525 
Q 3575 -475 3125 -400 
Q 2675 -325 2375 -212 
Q 2075 -100 1762 112 
Q 1450 325 1125 37 
Q 800 -250 600 -525 
Q 425 -300 200 -100 
z
M 3150 4900 
Q 3000 4625 2950 4400 
L 3800 4400 
Q 3800 5000 3775 5225 
L 4275 5225 
Q 4250 4975 4250 4400 
Q 5150 4400 5625 4425 
L 5625 4000 
Q 5175 4025 4250 4025 
L 4250 3200 
Q 5575 3200 6050 3225 
L 6050 2775 
Q 5575 2800 3975 2800 
Q 2400 2800 1950 2775 
L 1950 3225 
Q 2400 3200 3800 3200 
L 3800 4025 
L 2825 4025 
Q 2675 3750 2550 3450 
Q 2325 3550 2100 3625 
Q 2400 4175 2600 5025 
Q 2850 4975 3150 4900 
z
M 5000 1125 
L 5000 1925 
L 3025 1925 
L 3025 1125 
L 5000 1125 
z
M 1775 4000 
Q 1575 3850 1350 3725 
Q 1000 4250 650 4725 
Q 850 4875 1025 5025 
Q 1625 4225 1775 4000 
z
" transform="scale(0.015625)"/>
       </defs>
       <use xlink:href="#SimHei-534a"/>
       <use xlink:href="#SimHei-5bfc" transform="translate(100 0)"/>
       <use xlink:href="#SimHei-4f53" transform="translate(200 0)"/>
       <use xlink:href="#SimHei-5236" transform="translate(300 0)"/>
       <use xlink:href="#SimHei-9020" transform="translate(400 0)"/>
      </g>
     </g>
    </g>
    <g id="ytick_6">
     <g id="line2d_23">
      <path d="M 94.7 207.400778 
L 541.294051 207.400778 
" clip-path="url(#p15ab5d34a0)" style="fill: none; stroke-dasharray: 2.96,1.28; stroke-dashoffset: 0; stroke: #ffffff; stroke-opacity: 0.25; stroke-width: 0.8"/>
     </g>
     <g id="line2d_24">
      <g>
       <use xlink:href="#mf77f4b5f9c" x="94.7" y="207.400778" style="fill: #ffffff; stroke: #ffffff; stroke-width: 0.8"/>
      </g>
     </g>
     <g id="text_13">
      <!-- 其他云服务 -->
      <g style="fill: #ffffff" transform="translate(31.2 212.205465) scale(0.12 -0.12)">
       <defs>
        <path id="SimHei-5176" d="M 4725 1375 
Q 5550 1375 6025 1400 
L 6025 1000 
Q 5575 1025 5250 1025 
L 1225 1025 
Q 675 1025 325 1000 
L 325 1400 
Q 525 1375 1650 1375 
L 1650 3950 
Q 1050 3950 675 3925 
L 675 4350 
Q 875 4325 1650 4325 
Q 1650 4875 1625 5125 
L 2225 5125 
Q 2175 4850 2175 4325 
L 4200 4325 
Q 4200 4775 4175 5100 
L 4750 5100 
Q 4725 4775 4725 4325 
Q 5275 4325 5675 4350 
L 5675 3925 
Q 5250 3950 4725 3950 
L 4725 1375 
z
M 4200 1375 
L 4200 2000 
L 2175 2000 
L 2175 1375 
L 4200 1375 
z
M 4200 2375 
L 4200 3000 
L 2175 3000 
L 2175 2375 
L 4200 2375 
z
M 4200 3350 
L 4200 3950 
L 2175 3950 
L 2175 3350 
L 4200 3350 
z
M 4175 875 
Q 5200 225 5750 -225 
Q 5500 -400 5325 -625 
Q 5025 -250 3825 500 
Q 4075 700 4175 875 
z
M 525 -275 
Q 800 -125 1275 212 
Q 1750 550 2075 875 
Q 2275 675 2475 500 
Q 2200 300 900 -650 
Q 750 -425 525 -275 
z
" transform="scale(0.015625)"/>
        <path id="SimHei-4ed6" d="M 2500 2875 
Q 2500 3850 2475 4225 
L 3000 4225 
Q 2975 3900 2975 3025 
L 3775 3275 
L 3775 4300 
Q 3775 4800 3725 5150 
L 4250 5150 
Q 4225 4800 4225 4275 
L 4225 3450 
L 5575 3925 
Q 5550 2600 5550 2075 
Q 5550 1550 5275 1425 
Q 5000 1300 4575 1225 
Q 4525 1475 4375 1750 
Q 4850 1750 4950 1787 
Q 5050 1825 5050 2025 
L 5075 3275 
L 4225 2975 
L 4225 1375 
Q 4225 950 4250 650 
L 3750 650 
Q 3775 950 3775 1375 
L 3775 2850 
L 2975 2575 
L 2975 425 
Q 2975 75 3325 100 
L 5100 100 
Q 5300 100 5400 212 
Q 5500 325 5550 925 
Q 5850 700 6125 650 
Q 5950 0 5750 -175 
Q 5550 -350 5175 -325 
L 3225 -325 
Q 2550 -350 2500 275 
L 2500 2425 
Q 2125 2300 1900 2175 
L 1700 2650 
Q 2025 2700 2500 2875 
z
M 2250 4925 
Q 2025 4625 1650 3775 
L 1650 475 
Q 1650 -150 1700 -575 
L 1175 -575 
Q 1200 -150 1200 475 
L 1200 2925 
Q 875 2325 700 2050 
Q 525 2275 300 2400 
Q 625 2750 1062 3637 
Q 1500 4525 1650 5175 
Q 2050 5000 2250 4925 
z
" transform="scale(0.015625)"/>
       </defs>
       <use xlink:href="#SimHei-5176"/>
       <use xlink:href="#SimHei-4ed6" transform="translate(100 0)"/>
       <use xlink:href="#SimHei-4e91" transform="translate(200 0)"/>
       <use xlink:href="#SimHei-670d" transform="translate(300 0)"/>
       <use xlink:href="#SimHei-52a1" transform="translate(400 0)"/>
      </g>
     </g>
    </g>
    <g id="ytick_7">
     <g id="line2d_25">
      <path d="M 94.7 151.840463 
L 541.294051 151.840463 
" clip-path="url(#p15ab5d34a0)" style="fill: none; stroke-dasharray: 2.96,1.28; stroke-dashoffset: 0; stroke: #ffffff; stroke-opacity: 0.25; stroke-width: 0.8"/>
     </g>
     <g id="line2d_26">
      <g>
       <use xlink:href="#mf77f4b5f9c" x="94.7" y="151.840463" style="fill: #ffffff; stroke: #ffffff; stroke-width: 0.8"/>
      </g>
     </g>
     <g id="text_14">
      <!-- 油气开采 -->
      <g style="fill: #ffffff" transform="translate(43.2 156.645151) scale(0.12 -0.12)">
       <defs>
        <path id="SimHei-6c14" d="M 6150 500 
Q 5800 -525 5450 -587 
Q 5100 -650 4850 -250 
Q 4600 150 4500 662 
Q 4400 1175 4450 2150 
L 1700 2150 
Q 1300 2150 850 2125 
L 850 2575 
Q 1300 2550 1700 2550 
L 4975 2550 
Q 4925 1775 4937 1350 
Q 4950 925 5062 587 
Q 5175 250 5312 75 
Q 5450 -100 5675 875 
Q 5950 550 6150 500 
z
M 2300 5050 
Q 2150 4825 1975 4550 
L 4725 4550 
Q 5175 4550 5575 4575 
L 5575 4125 
Q 5175 4150 4725 4150 
L 1775 4150 
Q 1650 3900 1387 3512 
Q 1125 3125 875 2850 
Q 675 3050 375 3125 
Q 700 3400 1125 4062 
Q 1550 4725 1725 5275 
Q 2000 5150 2300 5050 
z
M 4300 3575 
Q 4700 3575 5100 3600 
L 5100 3150 
Q 4700 3175 4300 3175 
L 2450 3175 
Q 2050 3175 1650 3150 
L 1650 3575 
Q 2050 3550 2450 3575 
L 4300 3575 
z
" transform="scale(0.015625)"/>
        <path id="SimHei-5f00" d="M 2200 4450 
Q 1450 4450 800 4425 
L 800 4925 
Q 1425 4900 1950 4900 
L 4650 4900 
Q 5150 4900 5725 4925 
L 5725 4425 
Q 5175 4450 4500 4450 
L 4500 2600 
L 4975 2600 
Q 5475 2600 6050 2625 
L 6050 2125 
Q 5475 2175 4975 2175 
L 4500 2175 
L 4500 825 
Q 4500 200 4525 -575 
L 3950 -575 
Q 3975 200 3975 825 
L 3975 2175 
L 2725 2175 
Q 2650 1700 2525 1287 
Q 2400 875 2125 450 
Q 1850 25 1100 -575 
Q 900 -350 500 -150 
Q 1000 50 1362 412 
Q 1725 775 1937 1262 
Q 2150 1750 2175 2175 
L 1600 2175 
Q 950 2175 350 2100 
L 350 2625 
Q 975 2600 1600 2600 
L 2200 2600 
L 2200 4450 
z
M 3975 2600 
L 3975 4450 
L 2725 4450 
L 2725 2600 
L 3975 2600 
z
" transform="scale(0.015625)"/>
        <path id="SimHei-91c7" d="M 2900 2250 
Q 2900 2475 2875 2925 
L 3400 2925 
Q 3375 2525 3375 2250 
L 5175 2250 
Q 5550 2250 6075 2275 
L 6075 1775 
Q 5550 1800 5200 1800 
L 3900 1800 
Q 4300 1125 4887 750 
Q 5475 375 6125 200 
Q 5800 0 5650 -350 
Q 4950 -75 4362 450 
Q 3775 975 3400 1750 
L 3375 1750 
L 3375 400 
Q 3375 -25 3400 -625 
L 2825 -625 
Q 2875 0 2875 400 
L 2875 1600 
Q 2500 1025 1950 525 
Q 1400 25 650 -400 
Q 475 -150 200 25 
Q 850 300 1437 775 
Q 2025 1250 2375 1800 
Q 750 1800 300 1775 
L 300 2275 
Q 825 2250 2900 2250 
z
M 5575 4525 
Q 4975 4525 3587 4387 
Q 2200 4250 850 4125 
Q 775 4450 625 4650 
Q 1200 4625 2775 4750 
Q 4350 4875 5250 5150 
Q 5375 4800 5575 4525 
z
M 5475 4025 
Q 5200 3700 5000 3400 
Q 4800 3100 4550 2700 
Q 4375 2850 4100 3000 
Q 4475 3475 4975 4350 
Q 5250 4150 5475 4025 
z
M 1375 4025 
Q 1950 3275 2075 2925 
Q 1875 2825 1600 2650 
Q 1400 3150 925 3750 
Q 1125 3850 1375 4025 
z
M 3000 4250 
Q 3425 3450 3500 3175 
Q 3225 3075 3025 2950 
Q 2900 3400 2550 4025 
Q 2775 4100 3000 4250 
z
" transform="scale(0.015625)"/>
       </defs>
       <use xlink:href="#SimHei-6cb9"/>
       <use xlink:href="#SimHei-6c14" transform="translate(100 0)"/>
       <use xlink:href="#SimHei-5f00" transform="translate(200 0)"/>
       <use xlink:href="#SimHei-91c7" transform="translate(300 0)"/>
      </g>
     </g>
    </g>
    <g id="ytick_8">
     <g id="line2d_27">
      <path d="M 94.7 96.280149 
L 541.294051 96.280149 
" clip-path="url(#p15ab5d34a0)" style="fill: none; stroke-dasharray: 2.96,1.28; stroke-dashoffset: 0; stroke: #ffffff; stroke-opacity: 0.25; stroke-width: 0.8"/>
     </g>
     <g id="line2d_28">
      <g>
       <use xlink:href="#mf77f4b5f9c" x="94.7" y="96.280149" style="fill: #ffffff; stroke: #ffffff; stroke-width: 0.8"/>
      </g>
     </g>
     <g id="text_15">
      <!-- 旅游景区 -->
      <g style="fill: #ffffff" transform="translate(43.2 101.155149) scale(0.12 -0.12)">
       <defs>
        <path id="SimHei-65c5" d="M 4700 2950 
Q 4675 2250 4775 1650 
Q 5425 2025 5725 2375 
Q 5925 2125 6125 1925 
Q 5700 1775 4875 1200 
Q 5275 225 6200 -100 
Q 5925 -300 5775 -600 
Q 4750 100 4475 1012 
Q 4200 1925 4275 2900 
L 3650 2800 
L 3650 125 
Q 4025 375 4200 525 
Q 4300 275 4400 75 
Q 3575 -400 3300 -675 
Q 3150 -475 3025 -275 
Q 3225 -125 3225 300 
L 3225 2325 
Q 3225 2675 3200 3200 
Q 4050 3250 4737 3375 
Q 5425 3500 5750 3650 
Q 5775 3525 6075 3100 
Q 5750 3100 4700 2950 
z
M 1500 2250 
Q 1500 1250 1312 587 
Q 1125 -75 825 -500 
Q 600 -300 300 -175 
Q 600 125 775 612 
Q 950 1100 1012 1587 
Q 1075 2075 1075 3550 
Q 700 3550 350 3525 
L 350 4000 
Q 725 3975 1450 3975 
Q 2200 3975 2650 4000 
L 2650 3525 
Q 2225 3550 1525 3550 
L 1525 2625 
L 2650 2625 
Q 2600 2175 2587 1412 
Q 2575 650 2550 275 
Q 2525 -100 2300 -250 
Q 2075 -400 1725 -475 
Q 1650 -150 1475 125 
Q 1825 125 1950 175 
Q 2075 225 2100 562 
Q 2125 900 2150 2250 
L 1500 2250 
z
M 4200 5075 
Q 4050 4900 3825 4425 
L 5200 4425 
Q 5650 4425 6050 4450 
L 6050 4000 
Q 5650 4025 5200 4025 
L 3675 4025 
Q 3300 3375 2875 2875 
Q 2675 3075 2450 3225 
Q 2850 3575 3187 4200 
Q 3525 4825 3600 5300 
Q 3900 5175 4200 5075 
z
M 1650 5250 
Q 1875 4775 2075 4350 
Q 1825 4250 1600 4100 
Q 1425 4550 1175 5000 
Q 1425 5125 1650 5250 
z
" transform="scale(0.015625)"/>
        <path id="SimHei-6e38" d="M 3475 3125 
Q 3650 3300 3787 3550 
Q 3925 3800 4025 4062 
Q 4125 4325 4212 4625 
Q 4300 4925 4350 5225 
Q 4625 5100 4950 5050 
Q 4825 4875 4750 4700 
Q 4675 4525 4625 4325 
L 5075 4325 
Q 5575 4325 6150 4350 
L 6150 3925 
Q 5575 3950 5050 3950 
L 4500 3950 
Q 4400 3750 4325 3587 
Q 4250 3425 4150 3225 
L 5925 3225 
L 5925 2750 
Q 5800 2625 5637 2475 
Q 5475 2325 5275 2075 
L 5275 1775 
L 5550 1775 
Q 5725 1775 6175 1800 
L 6175 1375 
Q 5775 1400 5550 1400 
L 5275 1400 
L 5275 0 
Q 5275 -375 5050 -487 
Q 4825 -600 4300 -675 
Q 4275 -450 4100 -125 
Q 4500 -150 4650 -125 
Q 4800 -100 4800 200 
L 4800 1400 
L 4575 1400 
Q 4275 1400 3850 1375 
L 3850 1800 
Q 4250 1775 4550 1775 
L 4800 1775 
Q 4800 2000 4775 2200 
Q 5075 2450 5375 2850 
L 4650 2850 
L 4150 2825 
L 4150 3200 
Q 4000 3000 3900 2800 
Q 3725 2975 3475 3125 
z
M 2425 0 
Q 2900 -25 2975 25 
Q 3050 75 3050 225 
L 3050 2450 
L 2500 2450 
Q 2500 2000 2450 1562 
Q 2400 1125 2312 750 
Q 2225 375 2062 50 
Q 1900 -275 1625 -625 
Q 1475 -400 1200 -275 
Q 1575 50 1762 537 
Q 1950 1025 2000 1525 
Q 2050 2025 2062 2575 
Q 2075 3125 2075 3700 
Q 1900 3700 1575 3675 
L 1575 4075 
Q 2100 4050 2250 4050 
L 3125 4050 
Q 3350 4050 3675 4075 
L 3675 3675 
Q 3375 3700 3100 3700 
L 2525 3700 
L 2525 2850 
L 3525 2850 
Q 3500 2450 3500 2100 
L 3500 125 
Q 3500 -125 3337 -262 
Q 3175 -400 2625 -500 
Q 2600 -275 2425 0 
z
M 1475 1600 
Q 1275 1050 1187 775 
Q 1100 500 987 137 
Q 875 -225 800 -625 
Q 475 -425 225 -350 
Q 525 175 650 575 
Q 775 975 850 1250 
Q 925 1525 1000 1850 
Q 1250 1700 1475 1600 
z
M 1300 2425 
Q 1050 2625 825 2762 
Q 600 2900 275 3050 
Q 425 3250 550 3450 
Q 750 3325 1037 3162 
Q 1325 3000 1575 2825 
Q 1425 2600 1300 2425 
z
M 725 5075 
Q 875 4950 1137 4762 
Q 1400 4575 1600 4400 
Q 1400 4175 1275 4000 
Q 1025 4275 425 4700 
Q 575 4900 725 5075 
z
M 2525 5225 
Q 2925 4625 3000 4450 
Q 2800 4375 2575 4225 
Q 2500 4425 2400 4612 
Q 2300 4800 2150 5000 
Q 2350 5100 2525 5225 
z
" transform="scale(0.015625)"/>
        <path id="SimHei-666f" d="M 5200 5100 
Q 5175 4700 5175 4150 
Q 5175 3625 5225 3225 
L 1175 3225 
Q 1200 3625 1200 4150 
Q 1200 4700 1175 5100 
L 5200 5100 
z
M 5125 2075 
Q 5100 1675 5100 1375 
Q 5100 1075 5125 900 
L 3525 900 
L 3525 -175 
Q 3525 -475 3312 -575 
Q 3100 -675 2575 -700 
Q 2550 -425 2375 -100 
Q 2800 -175 2937 -137 
Q 3075 -100 3050 100 
L 3050 900 
L 1350 900 
Q 1375 1125 1375 1450 
Q 1375 1800 1350 2075 
L 5125 2075 
z
M 3325 3200 
Q 3400 2950 3500 2750 
L 5200 2750 
Q 5625 2750 6050 2800 
L 6050 2350 
Q 5625 2375 5200 2375 
L 1175 2375 
Q 850 2375 350 2350 
L 350 2775 
Q 850 2750 1175 2750 
L 2900 2750 
Q 2875 2900 2800 3125 
Q 3100 3175 3325 3200 
z
M 4650 1250 
L 4650 1700 
L 1825 1700 
L 1825 1250 
L 4650 1250 
z
M 4700 4300 
L 4700 4700 
L 1675 4700 
L 1675 4300 
L 4700 4300 
z
M 4700 3600 
L 4700 3925 
L 1675 3925 
L 1675 3600 
L 4700 3600 
z
M 4325 725 
Q 4600 575 4987 387 
Q 5375 200 5850 -50 
Q 5700 -275 5550 -550 
Q 5325 -350 4925 -125 
Q 4525 100 4075 275 
L 4325 725 
z
M 2450 250 
Q 2225 175 1812 -100 
Q 1400 -375 1000 -600 
Q 850 -375 700 -175 
Q 975 -25 1350 187 
Q 1725 400 2075 700 
Q 2250 500 2450 250 
z
" transform="scale(0.015625)"/>
        <path id="SimHei-533a" d="M 5850 4525 
Q 5475 4550 4850 4550 
L 1150 4550 
L 1150 -75 
L 5225 -75 
Q 5725 -75 6025 -50 
L 6025 -500 
Q 5700 -475 5175 -475 
L 625 -475 
Q 650 125 650 400 
L 650 4200 
Q 650 4625 625 4975 
L 5850 4975 
L 5850 4525 
z
M 2275 3875 
Q 3150 3275 3800 2700 
Q 4375 3375 4650 4050 
Q 4925 3875 5300 3700 
Q 5025 3525 4825 3225 
Q 4625 2925 4225 2375 
Q 5075 1675 5600 1000 
Q 5300 800 5175 575 
Q 4775 1175 3850 1950 
Q 3475 1525 3087 1175 
Q 2700 825 2125 400 
Q 1900 625 1625 775 
Q 2125 1000 2525 1312 
Q 2925 1625 3475 2300 
Q 2850 2875 1925 3450 
Q 2175 3650 2275 3875 
z
" transform="scale(0.015625)"/>
       </defs>
       <use xlink:href="#SimHei-65c5"/>
       <use xlink:href="#SimHei-6e38" transform="translate(100 0)"/>
       <use xlink:href="#SimHei-666f" transform="translate(200 0)"/>
       <use xlink:href="#SimHei-533a" transform="translate(300 0)"/>
      </g>
     </g>
    </g>
   </g>
   <g id="line2d_29">
    <path d="M 94.7 529.095 
L 94.7 52.3875 
" clip-path="url(#p15ab5d34a0)" style="fill: none; stroke: #ffffff; stroke-linecap: square"/>
   </g>
   <g id="patch_11">
    <path d="M 94.7 529.095 
L 94.7 52.3875 
" style="fill: none; stroke: #ffffff; stroke-width: 0.8; stroke-linejoin: miter; stroke-linecap: square"/>
   </g>
   <g id="patch_12">
    <path d="M 94.7 529.095 
L 541.294051 529.095 
" style="fill: none; stroke: #ffffff; stroke-width: 0.8; stroke-linejoin: miter; stroke-linecap: square"/>
   </g>
   <g id="text_16">
    <!-- +5.2% (17只) -->
    <g style="fill: #ffffff" transform="translate(532.345672 488.067586) scale(0.09 -0.09)">
     <defs>
      <path id="SimHei-2b" d="M 3000 2125 
L 1775 2125 
L 1775 900 
L 1350 900 
L 1350 2125 
L 125 2125 
L 125 2525 
L 1350 2525 
L 1350 3750 
L 1775 3750 
L 1775 2525 
L 3000 2525 
L 3000 2125 
z
" transform="scale(0.015625)"/>
      <path id="SimHei-2e" d="M 1075 125 
L 500 125 
L 500 675 
L 1075 675 
L 1075 125 
z
" transform="scale(0.015625)"/>
      <path id="SimHei-28" d="M 2975 -200 
L 2700 -475 
Q 2075 125 1762 775 
Q 1450 1425 1450 2250 
Q 1450 3075 1762 3725 
Q 2075 4375 2700 5000 
L 2975 4725 
Q 2400 4175 2112 3587 
Q 1825 3000 1825 2250 
Q 1825 1500 2112 912 
Q 2400 325 2975 -200 
z
" transform="scale(0.015625)"/>
      <path id="SimHei-37" d="M 850 150 
Q 1300 2050 2425 3925 
L 275 3925 
L 275 4375 
L 2950 4375 
L 2950 3950 
Q 1775 2050 1400 150 
L 850 150 
z
" transform="scale(0.015625)"/>
      <path id="SimHei-53ea" d="M 5150 4800 
Q 5125 4375 5125 3400 
Q 5125 2450 5150 1875 
L 1225 1875 
Q 1250 2325 1250 3300 
Q 1250 4275 1225 4800 
L 5150 4800 
z
M 4600 2325 
L 4600 4375 
L 1775 4375 
L 1775 2325 
L 4600 2325 
z
M 4175 1575 
Q 5400 300 5925 -200 
Q 5850 -250 5425 -600 
Q 4975 0 3750 1225 
Q 3975 1375 4175 1575 
z
M 2575 1200 
Q 2250 850 1775 337 
Q 1300 -175 800 -675 
Q 625 -500 375 -275 
Q 825 50 1300 562 
Q 1775 1075 2125 1600 
Q 2425 1375 2575 1200 
z
" transform="scale(0.015625)"/>
      <path id="SimHei-29" d="M 1675 2250 
Q 1675 1425 1362 775 
Q 1050 125 425 -475 
L 150 -200 
Q 725 325 1012 912 
Q 1300 1500 1300 2250 
Q 1300 3000 1012 3587 
Q 725 4175 150 4725 
L 425 5000 
Q 1050 4375 1362 3725 
Q 1675 3075 1675 2250 
z
" transform="scale(0.015625)"/>
     </defs>
     <use xlink:href="#SimHei-2b"/>
     <use xlink:href="#SimHei-35" transform="translate(50 0)"/>
     <use xlink:href="#SimHei-2e" transform="translate(100 0)"/>
     <use xlink:href="#SimHei-32" transform="translate(150 0)"/>
     <use xlink:href="#SimHei-25" transform="translate(200 0)"/>
     <use xlink:href="#SimHei-20" transform="translate(250 0)"/>
     <use xlink:href="#SimHei-28" transform="translate(300 0)"/>
     <use xlink:href="#SimHei-31" transform="translate(350 0)"/>
     <use xlink:href="#SimHei-37" transform="translate(400 0)"/>
     <use xlink:href="#SimHei-53ea" transform="translate(450 0)"/>
     <use xlink:href="#SimHei-29" transform="translate(550 0)"/>
    </g>
   </g>
   <g id="text_17">
    <!-- +4.3% (9只) -->
    <g style="fill: #ffffff" transform="translate(462.451523 432.507271) scale(0.09 -0.09)">
     <defs>
      <path id="SimHei-39" d="M 800 75 
Q 1350 1000 1700 1750 
Q 1075 1650 662 1912 
Q 250 2175 162 2625 
Q 75 3075 175 3437 
Q 275 3800 487 4037 
Q 700 4275 1000 4375 
Q 1300 4475 1537 4475 
Q 1775 4475 2025 4375 
Q 2275 4275 2475 4075 
Q 2675 3875 2750 3662 
Q 2825 3450 2825 3112 
Q 2825 2775 2575 2250 
Q 2325 1725 1350 75 
L 800 75 
z
M 662 2875 
Q 700 2550 937 2337 
Q 1175 2125 1450 2150 
Q 1725 2175 1887 2300 
Q 2050 2425 2200 2725 
Q 2300 3100 2250 3362 
Q 2200 3625 1987 3800 
Q 1775 3975 1525 3975 
Q 1375 4000 1137 3900 
Q 900 3800 762 3500 
Q 625 3200 662 2875 
z
" transform="scale(0.015625)"/>
     </defs>
     <use xlink:href="#SimHei-2b"/>
     <use xlink:href="#SimHei-34" transform="translate(50 0)"/>
     <use xlink:href="#SimHei-2e" transform="translate(100 0)"/>
     <use xlink:href="#SimHei-33" transform="translate(150 0)"/>
     <use xlink:href="#SimHei-25" transform="translate(200 0)"/>
     <use xlink:href="#SimHei-20" transform="translate(250 0)"/>
     <use xlink:href="#SimHei-28" transform="translate(300 0)"/>
     <use xlink:href="#SimHei-39" transform="translate(350 0)"/>
     <use xlink:href="#SimHei-53ea" transform="translate(400 0)"/>
     <use xlink:href="#SimHei-29" transform="translate(500 0)"/>
    </g>
   </g>
   <g id="text_18">
    <!-- +4.1% (10只) -->
    <g style="fill: #ffffff" transform="translate(442.362273 376.946956) scale(0.09 -0.09)">
     <use xlink:href="#SimHei-2b"/>
     <use xlink:href="#SimHei-34" transform="translate(50 0)"/>
     <use xlink:href="#SimHei-2e" transform="translate(100 0)"/>
     <use xlink:href="#SimHei-31" transform="translate(150 0)"/>
     <use xlink:href="#SimHei-25" transform="translate(200 0)"/>
     <use xlink:href="#SimHei-20" transform="translate(250 0)"/>
     <use xlink:href="#SimHei-28" transform="translate(300 0)"/>
     <use xlink:href="#SimHei-31" transform="translate(350 0)"/>
     <use xlink:href="#SimHei-30" transform="translate(400 0)"/>
     <use xlink:href="#SimHei-53ea" transform="translate(450 0)"/>
     <use xlink:href="#SimHei-29" transform="translate(550 0)"/>
    </g>
   </g>
   <g id="text_19">
    <!-- +4.0% (29只) -->
    <g style="fill: #ffffff" transform="translate(435.111147 321.386642) scale(0.09 -0.09)">
     <use xlink:href="#SimHei-2b"/>
     <use xlink:href="#SimHei-34" transform="translate(50 0)"/>
     <use xlink:href="#SimHei-2e" transform="translate(100 0)"/>
     <use xlink:href="#SimHei-30" transform="translate(150 0)"/>
     <use xlink:href="#SimHei-25" transform="translate(200 0)"/>
     <use xlink:href="#SimHei-20" transform="translate(250 0)"/>
     <use xlink:href="#SimHei-28" transform="translate(300 0)"/>
     <use xlink:href="#SimHei-32" transform="translate(350 0)"/>
     <use xlink:href="#SimHei-39" transform="translate(400 0)"/>
     <use xlink:href="#SimHei-53ea" transform="translate(450 0)"/>
     <use xlink:href="#SimHei-29" transform="translate(550 0)"/>
    </g>
   </g>
   <g id="text_20">
    <!-- +3.9% (7只) -->
    <g style="fill: #ffffff" transform="translate(424.828819 265.826327) scale(0.09 -0.09)">
     <use xlink:href="#SimHei-2b"/>
     <use xlink:href="#SimHei-33" transform="translate(50 0)"/>
     <use xlink:href="#SimHei-2e" transform="translate(100 0)"/>
     <use xlink:href="#SimHei-39" transform="translate(150 0)"/>
     <use xlink:href="#SimHei-25" transform="translate(200 0)"/>
     <use xlink:href="#SimHei-20" transform="translate(250 0)"/>
     <use xlink:href="#SimHei-28" transform="translate(300 0)"/>
     <use xlink:href="#SimHei-37" transform="translate(350 0)"/>
     <use xlink:href="#SimHei-53ea" transform="translate(400 0)"/>
     <use xlink:href="#SimHei-29" transform="translate(500 0)"/>
    </g>
   </g>
   <g id="text_21">
    <!-- +3.0% (8只) -->
    <g style="fill: #ffffff" transform="translate(349.48868 210.266012) scale(0.09 -0.09)">
     <defs>
      <path id="SimHei-38" d="M 175 1375 
Q 175 1675 325 1962 
Q 475 2250 825 2425 
Q 525 2600 425 2812 
Q 325 3025 312 3300 
Q 300 3575 387 3775 
Q 475 3975 650 4150 
Q 825 4325 1037 4387 
Q 1250 4450 1500 4450 
Q 1750 4450 1950 4400 
Q 2150 4350 2375 4187 
Q 2600 4025 2700 3725 
Q 2800 3425 2687 3025 
Q 2575 2625 2100 2400 
Q 2525 2275 2700 2012 
Q 2875 1750 2875 1375 
Q 2875 1000 2762 775 
Q 2650 550 2512 400 
Q 2375 250 2137 162 
Q 1900 75 1537 75 
Q 1175 75 912 162 
Q 650 250 475 425 
Q 300 600 237 837 
Q 175 1075 175 1375 
z
M 687 1400 
Q 675 1100 787 875 
Q 900 650 1200 587 
Q 1500 525 1825 600 
Q 2150 675 2275 950 
Q 2400 1225 2362 1500 
Q 2325 1775 2050 1962 
Q 1775 2150 1450 2125 
Q 1125 2100 912 1900 
Q 700 1700 687 1400 
z
M 775 3350 
Q 775 3100 950 2875 
Q 1125 2650 1500 2650 
Q 1875 2650 2062 2875 
Q 2250 3100 2237 3412 
Q 2225 3725 2012 3875 
Q 1800 4025 1437 4000 
Q 1075 3975 925 3787 
Q 775 3600 775 3350 
z
" transform="scale(0.015625)"/>
     </defs>
     <use xlink:href="#SimHei-2b"/>
     <use xlink:href="#SimHei-33" transform="translate(50 0)"/>
     <use xlink:href="#SimHei-2e" transform="translate(100 0)"/>
     <use xlink:href="#SimHei-30" transform="translate(150 0)"/>
     <use xlink:href="#SimHei-25" transform="translate(200 0)"/>
     <use xlink:href="#SimHei-20" transform="translate(250 0)"/>
     <use xlink:href="#SimHei-28" transform="translate(300 0)"/>
     <use xlink:href="#SimHei-38" transform="translate(350 0)"/>
     <use xlink:href="#SimHei-53ea" transform="translate(400 0)"/>
     <use xlink:href="#SimHei-29" transform="translate(500 0)"/>
    </g>
   </g>
   <g id="text_22">
    <!-- +2.5% (6只) -->
    <g style="fill: #ffffff" transform="translate(316.064886 154.705698) scale(0.09 -0.09)">
     <defs>
      <path id="SimHei-36" d="M 250 1612 
Q 275 1975 387 2225 
Q 500 2475 725 2850 
L 1750 4450 
L 2325 4450 
L 1275 2800 
Q 1950 2975 2350 2750 
Q 2750 2525 2887 2237 
Q 3025 1950 3037 1612 
Q 3050 1275 2937 950 
Q 2825 625 2537 362 
Q 2250 100 1737 75 
Q 1225 50 862 262 
Q 500 475 362 862 
Q 225 1250 250 1612 
z
M 1025 787 
Q 1250 550 1625 525 
Q 2000 500 2250 775 
Q 2500 1050 2500 1575 
Q 2500 2100 2187 2300 
Q 1875 2500 1487 2450 
Q 1100 2400 925 2075 
Q 750 1750 775 1387 
Q 800 1025 1025 787 
z
" transform="scale(0.015625)"/>
     </defs>
     <use xlink:href="#SimHei-2b"/>
     <use xlink:href="#SimHei-32" transform="translate(50 0)"/>
     <use xlink:href="#SimHei-2e" transform="translate(100 0)"/>
     <use xlink:href="#SimHei-35" transform="translate(150 0)"/>
     <use xlink:href="#SimHei-25" transform="translate(200 0)"/>
     <use xlink:href="#SimHei-20" transform="translate(250 0)"/>
     <use xlink:href="#SimHei-28" transform="translate(300 0)"/>
     <use xlink:href="#SimHei-36" transform="translate(350 0)"/>
     <use xlink:href="#SimHei-53ea" transform="translate(400 0)"/>
     <use xlink:href="#SimHei-29" transform="translate(500 0)"/>
    </g>
   </g>
   <g id="text_23">
    <!-- +2.4% (16只) -->
    <g style="fill: #ffffff" transform="translate(301.097432 99.145383) scale(0.09 -0.09)">
     <use xlink:href="#SimHei-2b"/>
     <use xlink:href="#SimHei-32" transform="translate(50 0)"/>
     <use xlink:href="#SimHei-2e" transform="translate(100 0)"/>
     <use xlink:href="#SimHei-34" transform="translate(150 0)"/>
     <use xlink:href="#SimHei-25" transform="translate(200 0)"/>
     <use xlink:href="#SimHei-20" transform="translate(250 0)"/>
     <use xlink:href="#SimHei-28" transform="translate(300 0)"/>
     <use xlink:href="#SimHei-31" transform="translate(350 0)"/>
     <use xlink:href="#SimHei-36" transform="translate(400 0)"/>
     <use xlink:href="#SimHei-53ea" transform="translate(450 0)"/>
     <use xlink:href="#SimHei-29" transform="translate(550 0)"/>
    </g>
   </g>
   <g id="text_24">
    <!-- 行业涨跌排行 (Top8) -->
    <g style="fill: #ffffff" transform="translate(256.247026 46.3875) scale(0.13 -0.13)">
     <defs>
      <path id="SimHei-884c" d="M 5300 3100 
Q 5775 3100 6175 3125 
L 6175 2625 
Q 5775 2650 5325 2650 
L 4975 2650 
L 4975 -75 
Q 5000 -375 4787 -487 
Q 4575 -600 3950 -675 
Q 3900 -375 3675 -75 
Q 4100 -125 4275 -112 
Q 4450 -100 4475 150 
L 4475 2650 
L 3475 2650 
Q 3000 2650 2575 2625 
L 2575 3125 
Q 3025 3100 3475 3100 
L 5300 3100 
z
M 2300 3400 
Q 2075 3275 1962 3075 
Q 1850 2875 1650 2575 
L 1650 325 
Q 1650 0 1675 -675 
L 1150 -675 
Q 1175 75 1175 450 
L 1175 2050 
Q 950 1675 575 1300 
Q 400 1550 250 1725 
Q 825 2275 1150 2775 
Q 1475 3275 1725 3725 
Q 1975 3575 2300 3400 
z
M 4875 4800 
Q 5300 4800 5750 4825 
L 5750 4350 
Q 5300 4375 4825 4375 
L 3900 4375 
Q 3350 4375 2950 4350 
L 2950 4825 
Q 3350 4800 3900 4800 
L 4875 4800 
z
M 2075 4925 
Q 1875 4900 1550 4387 
Q 1225 3875 650 3250 
Q 500 3450 325 3625 
Q 725 4025 1050 4487 
Q 1375 4950 1525 5300 
Q 1775 5150 2075 4925 
z
" transform="scale(0.015625)"/>
      <path id="SimHei-4e1a" d="M 2825 5025 
Q 2775 4325 2775 3825 
L 2775 150 
L 3600 150 
L 3600 4125 
Q 3600 4525 3550 5025 
L 4175 5025 
Q 4125 4625 4125 4175 
L 4125 150 
L 5100 150 
Q 5500 150 6075 200 
L 6075 -350 
Q 5500 -300 5125 -300 
L 1325 -300 
Q 975 -300 325 -350 
L 325 200 
Q 975 150 1300 150 
L 2225 150 
L 2225 3850 
Q 2225 4375 2150 5025 
L 2825 5025 
z
M 1025 3775 
Q 1325 3000 1850 1500 
Q 1575 1450 1275 1300 
Q 825 2750 475 3550 
Q 725 3650 1025 3775 
z
M 5850 3625 
Q 5525 2775 4950 1250 
Q 4700 1400 4425 1475 
Q 4950 2450 5225 3825 
Q 5500 3725 5850 3625 
z
" transform="scale(0.015625)"/>
      <path id="SimHei-6392" d="M 225 1825 
Q 675 1900 1150 2075 
L 1150 3425 
L 950 3425 
Q 650 3425 350 3400 
L 350 3850 
Q 600 3825 950 3825 
L 1150 3825 
L 1150 4500 
Q 1150 4850 1125 5175 
L 1675 5175 
Q 1625 4900 1625 4500 
L 1625 3825 
Q 2075 3825 2275 3850 
L 2275 3400 
Q 1875 3425 1625 3425 
L 1625 2225 
Q 1950 2325 2275 2500 
Q 2275 2200 2300 2050 
Q 2075 1975 1625 1800 
L 1625 -100 
Q 1600 -425 1412 -500 
Q 1225 -575 700 -650 
Q 600 -225 450 -75 
Q 875 -125 1000 -112 
Q 1125 -100 1150 75 
L 1150 1650 
Q 850 1550 450 1300 
Q 375 1525 225 1825 
z
M 5050 5125 
Q 5025 4800 5025 4300 
L 5025 4000 
Q 5700 4000 6100 4050 
L 6100 3575 
Q 5725 3600 5525 3600 
L 5025 3600 
L 5025 2625 
Q 5625 2625 5950 2650 
L 5950 2175 
Q 5625 2200 5025 2200 
L 5025 1075 
Q 5750 1075 6150 1100 
L 6150 625 
Q 5850 650 5025 650 
L 5025 275 
Q 5025 75 5050 -600 
L 4550 -600 
L 4550 4300 
Q 4550 4850 4525 5125 
L 5050 5125 
z
M 3425 4350 
Q 3425 4925 3400 5150 
L 3925 5150 
Q 3900 4800 3900 4250 
L 3900 -600 
L 3400 -600 
Q 3425 -50 3425 275 
L 3425 650 
Q 2625 650 2225 625 
L 2225 1100 
Q 2550 1075 3425 1075 
L 3425 2200 
Q 2775 2200 2525 2150 
L 2525 2650 
Q 2750 2625 3425 2625 
L 3425 3600 
Q 2700 3600 2450 3575 
L 2450 4050 
Q 2725 4000 3425 4000 
L 3425 4350 
z
" transform="scale(0.015625)"/>
      <path id="SimHei-54" d="M 2850 3925 
L 1850 3925 
L 1850 125 
L 1275 125 
L 1275 3925 
L 275 3925 
L 275 4400 
L 2850 4400 
L 2850 3925 
z
" transform="scale(0.015625)"/>
      <path id="SimHei-6f" d="M 2925 1525 
Q 2925 875 2525 475 
Q 2125 75 1575 75 
Q 1025 75 625 475 
Q 225 875 225 1525 
Q 225 2175 625 2575 
Q 1025 2975 1575 2975 
Q 2125 2975 2525 2575 
Q 2925 2175 2925 1525 
z
M 2375 1525 
Q 2375 2025 2125 2275 
Q 1875 2525 1575 2525 
Q 1275 2525 1025 2275 
Q 775 2025 775 1525 
Q 775 1025 1025 775 
Q 1275 525 1575 525 
Q 1875 525 2125 775 
Q 2375 1025 2375 1525 
z
" transform="scale(0.015625)"/>
      <path id="SimHei-70" d="M 2825 1525 
Q 2825 800 2475 425 
Q 2125 50 1625 50 
Q 1350 50 1150 162 
Q 950 275 800 500 
L 800 -800 
L 300 -800 
L 300 2925 
L 800 2925 
L 800 2550 
Q 950 2775 1150 2875 
Q 1350 2975 1625 2975 
Q 2125 2975 2475 2612 
Q 2825 2250 2825 1525 
z
M 2275 1525 
Q 2275 2000 2087 2262 
Q 1900 2525 1525 2525 
Q 1225 2525 1012 2262 
Q 800 2000 800 1525 
Q 800 1050 1012 775 
Q 1225 500 1525 500 
Q 1900 500 2087 775 
Q 2275 1050 2275 1525 
z
" transform="scale(0.015625)"/>
     </defs>
     <use xlink:href="#SimHei-884c"/>
     <use xlink:href="#SimHei-4e1a" transform="translate(100 0)"/>
     <use xlink:href="#SimHei-6da8" transform="translate(200 0)"/>
     <use xlink:href="#SimHei-8dcc" transform="translate(300 0)"/>
     <use xlink:href="#SimHei-6392" transform="translate(400 0)"/>
     <use xlink:href="#SimHei-884c" transform="translate(500 0)"/>
     <use xlink:href="#SimHei-20" transform="translate(600 0)"/>
     <use xlink:href="#SimHei-28" transform="translate(650 0)"/>
     <use xlink:href="#SimHei-54" transform="translate(700 0)"/>
     <use xlink:href="#SimHei-6f" transform="translate(750 0)"/>
     <use xlink:href="#SimHei-70" transform="translate(800 0)"/>
     <use xlink:href="#SimHei-38" transform="translate(850 0)"/>
     <use xlink:href="#SimHei-29" transform="translate(900 0)"/>
    </g>
   </g>
  </g>
  <g id="axes_2">
   <g id="patch_13">
    <path d="M 686.685949 529.095 
L 1133.28 529.095 
L 1133.28 52.3875 
L 686.685949 52.3875 
z
"/>
   </g>
   <g id="patch_14">
    <path d="M 686.685949 507.426477 
L 1084.573122 507.426477 
L 1084.573122 462.978226 
L 686.685949 462.978226 
z
" clip-path="url(#pb856c72f3f)" style="fill: #2ecc71; opacity: 0.8"/>
   </g>
   <g id="patch_15">
    <path d="M 686.685949 451.866163 
L 787.301096 451.866163 
L 787.301096 407.417911 
L 686.685949 407.417911 
z
" clip-path="url(#pb856c72f3f)" style="fill: #27ae60; opacity: 0.8"/>
   </g>
   <g id="patch_16">
    <path d="M 686.685949 396.305848 
L 965.664312 396.305848 
L 965.664312 351.857596 
L 686.685949 351.857596 
z
" clip-path="url(#pb856c72f3f)" style="fill: #1abc9c; opacity: 0.8"/>
   </g>
   <g id="patch_17">
    <path d="M 686.685949 340.745533 
L 1112.013617 340.745533 
L 1112.013617 296.297281 
L 686.685949 296.297281 
z
" clip-path="url(#pb856c72f3f)" style="fill: #16a085; opacity: 0.8"/>
   </g>
   <g id="patch_18">
    <path d="M 686.685949 285.185219 
L 865.049164 285.185219 
L 865.049164 240.736967 
L 686.685949 240.736967 
z
" clip-path="url(#pb856c72f3f)" style="fill: #f1c40f; opacity: 0.8"/>
   </g>
   <g id="patch_19">
    <path d="M 686.685949 229.624904 
L 1006.825054 229.624904 
L 1006.825054 185.176652 
L 686.685949 185.176652 
z
" clip-path="url(#pb856c72f3f)" style="fill: #f39c12; opacity: 0.8"/>
   </g>
   <g id="patch_20">
    <path d="M 686.685949 174.064589 
L 741.566938 174.064589 
L 741.566938 129.616337 
L 686.685949 129.616337 
z
" clip-path="url(#pb856c72f3f)" style="fill: #e67e22; opacity: 0.8"/>
   </g>
   <g id="patch_21">
    <path d="M 686.685949 118.504274 
L 801.021343 118.504274 
L 801.021343 74.056023 
L 686.685949 74.056023 
z
" clip-path="url(#pb856c72f3f)" style="fill: #d35400; opacity: 0.8"/>
   </g>
   <g id="matplotlib.axis_3">
    <g id="xtick_7">
     <g id="line2d_30">
      <path d="M 686.685949 529.095 
L 686.685949 52.3875 
" clip-path="url(#pb856c72f3f)" style="fill: none; stroke-dasharray: 2.96,1.28; stroke-dashoffset: 0; stroke: #ffffff; stroke-opacity: 0.3; stroke-width: 0.8"/>
     </g>
     <g id="line2d_31">
      <g>
       <use xlink:href="#m71f5247c50" x="686.685949" y="529.095" style="fill: #ffffff; stroke: #ffffff; stroke-width: 0.8"/>
      </g>
     </g>
     <g id="text_25">
      <!-- 0 -->
      <g style="fill: #ffffff" transform="translate(683.685949 540.845) scale(0.12 -0.12)">
       <use xlink:href="#SimHei-30"/>
      </g>
     </g>
    </g>
    <g id="xtick_8">
     <g id="line2d_32">
      <path d="M 778.154265 529.095 
L 778.154265 52.3875 
" clip-path="url(#pb856c72f3f)" style="fill: none; stroke-dasharray: 2.96,1.28; stroke-dashoffset: 0; stroke: #ffffff; stroke-opacity: 0.3; stroke-width: 0.8"/>
     </g>
     <g id="line2d_33">
      <g>
       <use xlink:href="#m71f5247c50" x="778.154265" y="529.095" style="fill: #ffffff; stroke: #ffffff; stroke-width: 0.8"/>
      </g>
     </g>
     <g id="text_26">
      <!-- 20 -->
      <g style="fill: #ffffff" transform="translate(772.154265 540.845) scale(0.12 -0.12)">
       <use xlink:href="#SimHei-32"/>
       <use xlink:href="#SimHei-30" transform="translate(50 0)"/>
      </g>
     </g>
    </g>
    <g id="xtick_9">
     <g id="line2d_34">
      <path d="M 869.62258 529.095 
L 869.62258 52.3875 
" clip-path="url(#pb856c72f3f)" style="fill: none; stroke-dasharray: 2.96,1.28; stroke-dashoffset: 0; stroke: #ffffff; stroke-opacity: 0.3; stroke-width: 0.8"/>
     </g>
     <g id="line2d_35">
      <g>
       <use xlink:href="#m71f5247c50" x="869.62258" y="529.095" style="fill: #ffffff; stroke: #ffffff; stroke-width: 0.8"/>
      </g>
     </g>
     <g id="text_27">
      <!-- 40 -->
      <g style="fill: #ffffff" transform="translate(863.62258 540.845) scale(0.12 -0.12)">
       <use xlink:href="#SimHei-34"/>
       <use xlink:href="#SimHei-30" transform="translate(50 0)"/>
      </g>
     </g>
    </g>
    <g id="xtick_10">
     <g id="line2d_36">
      <path d="M 961.090896 529.095 
L 961.090896 52.3875 
" clip-path="url(#pb856c72f3f)" style="fill: none; stroke-dasharray: 2.96,1.28; stroke-dashoffset: 0; stroke: #ffffff; stroke-opacity: 0.3; stroke-width: 0.8"/>
     </g>
     <g id="line2d_37">
      <g>
       <use xlink:href="#m71f5247c50" x="961.090896" y="529.095" style="fill: #ffffff; stroke: #ffffff; stroke-width: 0.8"/>
      </g>
     </g>
     <g id="text_28">
      <!-- 60 -->
      <g style="fill: #ffffff" transform="translate(955.090896 540.845) scale(0.12 -0.12)">
       <use xlink:href="#SimHei-36"/>
       <use xlink:href="#SimHei-30" transform="translate(50 0)"/>
      </g>
     </g>
    </g>
    <g id="xtick_11">
     <g id="line2d_38">
      <path d="M 1052.559211 529.095 
L 1052.559211 52.3875 
" clip-path="url(#pb856c72f3f)" style="fill: none; stroke-dasharray: 2.96,1.28; stroke-dashoffset: 0; stroke: #ffffff; stroke-opacity: 0.3; stroke-width: 0.8"/>
     </g>
     <g id="line2d_39">
      <g>
       <use xlink:href="#m71f5247c50" x="1052.559211" y="529.095" style="fill: #ffffff; stroke: #ffffff; stroke-width: 0.8"/>
      </g>
     </g>
     <g id="text_29">
      <!-- 80 -->
      <g style="fill: #ffffff" transform="translate(1046.559211 540.845) scale(0.12 -0.12)">
       <use xlink:href="#SimHei-38"/>
       <use xlink:href="#SimHei-30" transform="translate(50 0)"/>
      </g>
     </g>
    </g>
    <g id="text_30">
     <!-- 概念数 -->
     <g style="fill: #ffffff" transform="translate(890.482974 556.9075) scale(0.13 -0.13)">
      <defs>
       <path id="SimHei-6982" d="M 3100 1150 
Q 3000 1350 2900 1475 
Q 3075 1600 3275 1725 
Q 3425 1475 3537 1262 
Q 3650 1050 3825 750 
Q 3675 625 3425 450 
Q 3375 600 3275 800 
Q 3075 625 2775 412 
Q 2475 200 2250 -50 
Q 2075 200 1925 350 
Q 2100 525 2125 875 
L 2125 4000 
Q 2125 4425 2100 4700 
L 3575 4700 
Q 3550 4325 3550 3475 
Q 3550 2650 3575 2200 
L 2550 2200 
L 2550 750 
Q 2725 850 3100 1150 
z
M 3325 -700 
Q 3200 -500 2950 -325 
Q 3400 -75 3850 637 
Q 4300 1350 4500 2350 
L 3800 2350 
Q 3825 2725 3825 3075 
Q 3825 3425 3800 3750 
L 4275 3750 
Q 4225 3550 4225 3250 
L 4225 2725 
L 4600 2725 
Q 4675 3500 4675 4400 
L 4425 4400 
Q 4075 4400 3800 4375 
L 3800 4800 
Q 4100 4775 4425 4775 
L 5150 4775 
Q 5625 4775 5850 4800 
L 5850 4375 
Q 5650 4400 5100 4400 
Q 5100 3700 5025 2725 
L 5375 2725 
Q 5600 2725 5925 2750 
L 5925 2325 
Q 5600 2350 5425 2350 
L 4950 2350 
Q 4625 1075 4287 462 
Q 3950 -150 3325 -700 
z
M 1000 4425 
Q 1000 4750 975 5050 
L 1475 5050 
Q 1425 4725 1425 4300 
L 1425 3800 
Q 1625 3800 1925 3825 
L 1925 3400 
Q 1600 3425 1425 3425 
L 1425 2650 
Q 1550 2725 1700 2825 
Q 1900 2350 2075 1875 
Q 1850 1825 1700 1700 
Q 1600 2050 1425 2450 
L 1425 300 
Q 1425 -125 1450 -575 
L 975 -575 
Q 1000 -50 1000 300 
L 1000 2025 
Q 825 1450 550 950 
Q 450 1150 175 1350 
Q 500 1825 662 2275 
Q 825 2725 950 3425 
Q 500 3425 350 3400 
L 350 3825 
Q 550 3800 1000 3800 
L 1000 4425 
z
M 5300 1725 
Q 5275 1050 5275 225 
Q 5275 -50 5412 -75 
Q 5550 -100 5625 -87 
Q 5700 -75 5737 37 
Q 5775 150 5775 475 
Q 6000 350 6250 300 
Q 6150 -225 6050 -350 
Q 5950 -475 5650 -475 
L 5350 -475 
Q 4800 -450 4850 50 
Q 4850 925 4850 1725 
L 5300 1725 
z
M 3125 2575 
L 3125 3275 
L 2550 3275 
L 2550 2575 
L 3125 2575 
z
M 3125 3650 
L 3125 4325 
L 2550 4325 
L 2550 3650 
L 3125 3650 
z
" transform="scale(0.015625)"/>
       <path id="SimHei-5ff5" d="M 275 2925 
Q 825 3075 1687 3762 
Q 2550 4450 3075 5300 
Q 3275 5175 3650 5050 
L 3500 4900 
Q 4025 4275 4737 3762 
Q 5450 3250 6150 3025 
Q 5775 2775 5675 2600 
Q 5150 2875 4525 3350 
Q 3900 3825 3200 4600 
Q 2625 3950 2012 3437 
Q 1400 2925 700 2475 
Q 550 2750 275 2925 
z
M 4900 425 
Q 4750 -150 4575 -337 
Q 4400 -525 4075 -500 
L 2525 -500 
Q 2050 -500 2012 -187 
Q 1975 125 1975 600 
Q 1975 1100 1950 1400 
L 2450 1400 
Q 2425 1100 2425 650 
Q 2425 200 2462 50 
Q 2500 -100 2800 -125 
L 3900 -125 
Q 4050 -125 4162 -37 
Q 4275 50 4375 650 
Q 4600 500 4900 425 
z
M 3400 1575 
Q 3800 2075 4100 2525 
L 2400 2525 
Q 2175 2525 1700 2475 
L 1700 2925 
Q 2150 2900 2375 2900 
L 4900 2900 
Q 4675 2625 3875 1400 
Q 3700 1500 3400 1575 
z
M 1650 1500 
Q 1400 775 875 -50 
Q 725 50 475 200 
Q 900 675 1225 1675 
Q 1450 1550 1650 1500 
z
M 5000 1575 
Q 5575 950 6000 400 
Q 5750 275 5600 100 
Q 5175 775 4650 1300 
Q 4825 1400 5000 1575 
z
M 3825 925 
Q 3600 750 3425 600 
Q 3050 1225 2575 1625 
Q 2750 1725 2925 1875 
Q 3500 1325 3825 925 
z
M 3150 3975 
Q 3400 3650 3650 3300 
Q 3425 3175 3250 3050 
Q 3025 3450 2775 3750 
Q 3000 3850 3150 3975 
z
" transform="scale(0.015625)"/>
       <path id="SimHei-6570" d="M 4525 4925 
Q 4475 4800 4400 4587 
Q 4325 4375 4175 3825 
L 5325 3825 
Q 5575 3825 5925 3850 
L 5925 3400 
Q 5650 3425 5500 3425 
Q 5500 3025 5362 2162 
Q 5225 1300 4875 675 
Q 5125 375 5437 137 
Q 5750 -100 6025 -200 
Q 5725 -425 5625 -625 
Q 5325 -450 5075 -225 
Q 4825 0 4575 325 
Q 4300 25 3987 -187 
Q 3675 -400 3200 -650 
Q 3075 -425 2850 -300 
Q 3225 -150 3650 125 
Q 4075 400 4300 675 
Q 4125 1025 3962 1425 
Q 3800 1825 3675 2475 
Q 3600 2275 3425 1950 
Q 3250 2050 3000 2150 
Q 3400 2850 3650 3675 
Q 3900 4500 3975 5100 
Q 4275 4975 4525 4925 
z
M 2100 2250 
Q 2000 2150 1875 1925 
L 3250 1925 
Q 3100 1300 2725 675 
Q 3125 525 3350 400 
Q 3225 225 3125 25 
Q 2900 175 2450 325 
Q 1950 -225 725 -650 
Q 600 -375 400 -275 
Q 1575 0 2000 475 
Q 1300 650 850 775 
Q 1000 1000 1250 1525 
Q 1000 1525 425 1500 
L 425 1950 
Q 900 1925 1400 1925 
Q 1500 2150 1550 2425 
Q 1825 2325 2100 2250 
z
M 1775 3950 
Q 1775 4550 1750 5100 
L 2250 5100 
Q 2225 4575 2225 3950 
Q 3075 3950 3425 3975 
L 3425 3525 
Q 3075 3550 2225 3550 
Q 2225 2825 2250 2425 
L 1750 2425 
Q 1775 2775 1775 3300 
Q 1650 3100 1300 2787 
Q 950 2475 650 2300 
Q 525 2525 275 2625 
Q 500 2700 875 2975 
Q 1250 3250 1450 3550 
Q 950 3550 500 3525 
L 500 3975 
Q 925 3950 1775 3950 
z
M 3975 3175 
Q 4200 1700 4600 1125 
Q 4850 1700 4937 2287 
Q 5025 2875 5050 3425 
L 4075 3425 
L 3975 3175 
z
M 1450 1000 
Q 1750 925 2275 800 
Q 2475 1050 2650 1525 
L 1725 1525 
Q 1600 1275 1450 1000 
z
M 3325 4825 
Q 3200 4625 3125 4450 
Q 3050 4275 2925 4025 
Q 2725 4125 2525 4175 
Q 2725 4500 2900 5000 
Q 3150 4875 3325 4825 
z
M 2575 3375 
Q 2900 3050 3200 2725 
Q 3050 2600 2875 2425 
Q 2525 2850 2300 3100 
Q 2450 3225 2575 3375 
z
M 925 5000 
Q 1275 4650 1500 4300 
L 1125 4075 
Q 950 4425 600 4725 
Q 825 4875 925 5000 
z
" transform="scale(0.015625)"/>
      </defs>
      <use xlink:href="#SimHei-6982"/>
      <use xlink:href="#SimHei-5ff5" transform="translate(100 0)"/>
      <use xlink:href="#SimHei-6570" transform="translate(200 0)"/>
     </g>
    </g>
   </g>
   <g id="matplotlib.axis_4">
    <g id="ytick_9">
     <g id="line2d_40">
      <path d="M 686.685949 485.202351 
L 1133.28 485.202351 
" clip-path="url(#pb856c72f3f)" style="fill: none; stroke-dasharray: 2.96,1.28; stroke-dashoffset: 0; stroke: #ffffff; stroke-opacity: 0.25; stroke-width: 0.8"/>
     </g>
     <g id="line2d_41">
      <g>
       <use xlink:href="#mf77f4b5f9c" x="686.685949" y="485.202351" style="fill: #ffffff; stroke: #ffffff; stroke-width: 0.8"/>
      </g>
     </g>
     <g id="text_31">
      <!-- 云基础设施服务 -->
      <g style="fill: #ffffff" transform="translate(599.185949 490.100789) scale(0.12 -0.12)">
       <use xlink:href="#SimHei-4e91"/>
       <use xlink:href="#SimHei-57fa" transform="translate(100 0)"/>
       <use xlink:href="#SimHei-7840" transform="translate(200 0)"/>
       <use xlink:href="#SimHei-8bbe" transform="translate(300 0)"/>
       <use xlink:href="#SimHei-65bd" transform="translate(400 0)"/>
       <use xlink:href="#SimHei-670d" transform="translate(500 0)"/>
       <use xlink:href="#SimHei-52a1" transform="translate(600 0)"/>
      </g>
     </g>
    </g>
    <g id="ytick_10">
     <g id="line2d_42">
      <path d="M 686.685949 429.642037 
L 1133.28 429.642037 
" clip-path="url(#pb856c72f3f)" style="fill: none; stroke-dasharray: 2.96,1.28; stroke-dashoffset: 0; stroke: #ffffff; stroke-opacity: 0.25; stroke-width: 0.8"/>
     </g>
     <g id="line2d_43">
      <g>
       <use xlink:href="#mf77f4b5f9c" x="686.685949" y="429.642037" style="fill: #ffffff; stroke: #ffffff; stroke-width: 0.8"/>
      </g>
     </g>
     <g id="text_32">
      <!-- 油田服务 -->
      <g style="fill: #ffffff" transform="translate(635.185949 434.446724) scale(0.12 -0.12)">
       <use xlink:href="#SimHei-6cb9"/>
       <use xlink:href="#SimHei-7530" transform="translate(100 0)"/>
       <use xlink:href="#SimHei-670d" transform="translate(200 0)"/>
       <use xlink:href="#SimHei-52a1" transform="translate(300 0)"/>
      </g>
     </g>
    </g>
    <g id="ytick_11">
     <g id="line2d_44">
      <path d="M 686.685949 374.081722 
L 1133.28 374.081722 
" clip-path="url(#pb856c72f3f)" style="fill: none; stroke-dasharray: 2.96,1.28; stroke-dashoffset: 0; stroke: #ffffff; stroke-opacity: 0.25; stroke-width: 0.8"/>
     </g>
     <g id="line2d_45">
      <g>
       <use xlink:href="#mf77f4b5f9c" x="686.685949" y="374.081722" style="fill: #ffffff; stroke: #ffffff; stroke-width: 0.8"/>
      </g>
     </g>
     <g id="text_33">
      <!-- 云软件服务 -->
      <g style="fill: #ffffff" transform="translate(623.185949 378.933285) scale(0.12 -0.12)">
       <use xlink:href="#SimHei-4e91"/>
       <use xlink:href="#SimHei-8f6f" transform="translate(100 0)"/>
       <use xlink:href="#SimHei-4ef6" transform="translate(200 0)"/>
       <use xlink:href="#SimHei-670d" transform="translate(300 0)"/>
       <use xlink:href="#SimHei-52a1" transform="translate(400 0)"/>
      </g>
     </g>
    </g>
    <g id="ytick_12">
     <g id="line2d_46">
      <path d="M 686.685949 318.521407 
L 1133.28 318.521407 
" clip-path="url(#pb856c72f3f)" style="fill: none; stroke-dasharray: 2.96,1.28; stroke-dashoffset: 0; stroke: #ffffff; stroke-opacity: 0.25; stroke-width: 0.8"/>
     </g>
     <g id="line2d_47">
      <g>
       <use xlink:href="#mf77f4b5f9c" x="686.685949" y="318.521407" style="fill: #ffffff; stroke: #ffffff; stroke-width: 0.8"/>
      </g>
     </g>
     <g id="text_34">
      <!-- 基础软件 -->
      <g style="fill: #ffffff" transform="translate(635.185949 323.37297) scale(0.12 -0.12)">
       <use xlink:href="#SimHei-57fa"/>
       <use xlink:href="#SimHei-7840" transform="translate(100 0)"/>
       <use xlink:href="#SimHei-8f6f" transform="translate(200 0)"/>
       <use xlink:href="#SimHei-4ef6" transform="translate(300 0)"/>
      </g>
     </g>
    </g>
    <g id="ytick_13">
     <g id="line2d_48">
      <path d="M 686.685949 262.961093 
L 1133.28 262.961093 
" clip-path="url(#pb856c72f3f)" style="fill: none; stroke-dasharray: 2.96,1.28; stroke-dashoffset: 0; stroke: #ffffff; stroke-opacity: 0.25; stroke-width: 0.8"/>
     </g>
     <g id="line2d_49">
      <g>
       <use xlink:href="#mf77f4b5f9c" x="686.685949" y="262.961093" style="fill: #ffffff; stroke: #ffffff; stroke-width: 0.8"/>
      </g>
     </g>
     <g id="text_35">
      <!-- 半导体制造 -->
      <g style="fill: #ffffff" transform="translate(623.185949 267.718905) scale(0.12 -0.12)">
       <use xlink:href="#SimHei-534a"/>
       <use xlink:href="#SimHei-5bfc" transform="translate(100 0)"/>
       <use xlink:href="#SimHei-4f53" transform="translate(200 0)"/>
       <use xlink:href="#SimHei-5236" transform="translate(300 0)"/>
       <use xlink:href="#SimHei-9020" transform="translate(400 0)"/>
      </g>
     </g>
    </g>
    <g id="ytick_14">
     <g id="line2d_50">
      <path d="M 686.685949 207.400778 
L 1133.28 207.400778 
" clip-path="url(#pb856c72f3f)" style="fill: none; stroke-dasharray: 2.96,1.28; stroke-dashoffset: 0; stroke: #ffffff; stroke-opacity: 0.25; stroke-width: 0.8"/>
     </g>
     <g id="line2d_51">
      <g>
       <use xlink:href="#mf77f4b5f9c" x="686.685949" y="207.400778" style="fill: #ffffff; stroke: #ffffff; stroke-width: 0.8"/>
      </g>
     </g>
     <g id="text_36">
      <!-- 其他云服务 -->
      <g style="fill: #ffffff" transform="translate(623.185949 212.205465) scale(0.12 -0.12)">
       <use xlink:href="#SimHei-5176"/>
       <use xlink:href="#SimHei-4ed6" transform="translate(100 0)"/>
       <use xlink:href="#SimHei-4e91" transform="translate(200 0)"/>
       <use xlink:href="#SimHei-670d" transform="translate(300 0)"/>
       <use xlink:href="#SimHei-52a1" transform="translate(400 0)"/>
      </g>
     </g>
    </g>
    <g id="ytick_15">
     <g id="line2d_52">
      <path d="M 686.685949 151.840463 
L 1133.28 151.840463 
" clip-path="url(#pb856c72f3f)" style="fill: none; stroke-dasharray: 2.96,1.28; stroke-dashoffset: 0; stroke: #ffffff; stroke-opacity: 0.25; stroke-width: 0.8"/>
     </g>
     <g id="line2d_53">
      <g>
       <use xlink:href="#mf77f4b5f9c" x="686.685949" y="151.840463" style="fill: #ffffff; stroke: #ffffff; stroke-width: 0.8"/>
      </g>
     </g>
     <g id="text_37">
      <!-- 油气开采 -->
      <g style="fill: #ffffff" transform="translate(635.185949 156.645151) scale(0.12 -0.12)">
       <use xlink:href="#SimHei-6cb9"/>
       <use xlink:href="#SimHei-6c14" transform="translate(100 0)"/>
       <use xlink:href="#SimHei-5f00" transform="translate(200 0)"/>
       <use xlink:href="#SimHei-91c7" transform="translate(300 0)"/>
      </g>
     </g>
    </g>
    <g id="ytick_16">
     <g id="line2d_54">
      <path d="M 686.685949 96.280149 
L 1133.28 96.280149 
" clip-path="url(#pb856c72f3f)" style="fill: none; stroke-dasharray: 2.96,1.28; stroke-dashoffset: 0; stroke: #ffffff; stroke-opacity: 0.25; stroke-width: 0.8"/>
     </g>
     <g id="line2d_55">
      <g>
       <use xlink:href="#mf77f4b5f9c" x="686.685949" y="96.280149" style="fill: #ffffff; stroke: #ffffff; stroke-width: 0.8"/>
      </g>
     </g>
     <g id="text_38">
      <!-- 旅游景区 -->
      <g style="fill: #ffffff" transform="translate(635.185949 101.155149) scale(0.12 -0.12)">
       <use xlink:href="#SimHei-65c5"/>
       <use xlink:href="#SimHei-6e38" transform="translate(100 0)"/>
       <use xlink:href="#SimHei-666f" transform="translate(200 0)"/>
       <use xlink:href="#SimHei-533a" transform="translate(300 0)"/>
      </g>
     </g>
    </g>
   </g>
   <g id="patch_22">
    <path d="M 686.685949 529.095 
L 686.685949 52.3875 
" style="fill: none; stroke: #ffffff; stroke-width: 0.8; stroke-linejoin: miter; stroke-linecap: square"/>
   </g>
   <g id="patch_23">
    <path d="M 686.685949 529.095 
L 1133.28 529.095 
" style="fill: none; stroke: #ffffff; stroke-width: 0.8; stroke-linejoin: miter; stroke-linecap: square"/>
   </g>
   <g id="text_39">
    <!-- 87 -->
    <g style="fill: #ffffff" transform="translate(1085.487805 488.014851) scale(0.1 -0.1)">
     <use xlink:href="#SimHei-38"/>
     <use xlink:href="#SimHei-37" transform="translate(50 0)"/>
    </g>
   </g>
   <g id="text_40">
    <!-- 22 -->
    <g style="fill: #ffffff" transform="translate(788.215779 432.454537) scale(0.1 -0.1)">
     <use xlink:href="#SimHei-32"/>
     <use xlink:href="#SimHei-32" transform="translate(50 0)"/>
    </g>
   </g>
   <g id="text_41">
    <!-- 61 -->
    <g style="fill: #ffffff" transform="translate(966.578995 376.894222) scale(0.1 -0.1)">
     <use xlink:href="#SimHei-36"/>
     <use xlink:href="#SimHei-31" transform="translate(50 0)"/>
    </g>
   </g>
   <g id="text_42">
    <!-- 93 -->
    <g style="fill: #ffffff" transform="translate(1112.9283 321.333907) scale(0.1 -0.1)">
     <use xlink:href="#SimHei-39"/>
     <use xlink:href="#SimHei-33" transform="translate(50 0)"/>
    </g>
   </g>
   <g id="text_43">
    <!-- 39 -->
    <g style="fill: #ffffff" transform="translate(865.963848 265.773593) scale(0.1 -0.1)">
     <use xlink:href="#SimHei-33"/>
     <use xlink:href="#SimHei-39" transform="translate(50 0)"/>
    </g>
   </g>
   <g id="text_44">
    <!-- 70 -->
    <g style="fill: #ffffff" transform="translate(1007.739737 210.213278) scale(0.1 -0.1)">
     <use xlink:href="#SimHei-37"/>
     <use xlink:href="#SimHei-30" transform="translate(50 0)"/>
    </g>
   </g>
   <g id="text_45">
    <!-- 12 -->
    <g style="fill: #ffffff" transform="translate(742.481621 154.652963) scale(0.1 -0.1)">
     <use xlink:href="#SimHei-31"/>
     <use xlink:href="#SimHei-32" transform="translate(50 0)"/>
    </g>
   </g>
   <g id="text_46">
    <!-- 25 -->
    <g style="fill: #ffffff" transform="translate(801.936027 99.092649) scale(0.1 -0.1)">
     <use xlink:href="#SimHei-32"/>
     <use xlink:href="#SimHei-35" transform="translate(50 0)"/>
    </g>
   </g>
   <g id="text_47">
    <!-- 关联有效概念数 -->
    <g style="fill: #ffffff" transform="translate(864.482974 46.3875) scale(0.13 -0.13)">
     <defs>
      <path id="SimHei-5173" d="M 4675 4850 
Q 4525 4675 4362 4375 
Q 4200 4075 4075 3825 
L 4625 3825 
Q 5150 3825 5550 3850 
L 5550 3375 
Q 5225 3400 4700 3400 
L 3400 3400 
L 3400 2150 
L 4975 2150 
Q 5475 2150 5875 2175 
L 5875 1700 
Q 5475 1725 5025 1725 
L 3500 1725 
Q 4250 450 6000 75 
Q 5775 -175 5600 -525 
Q 4025 0 3225 1300 
Q 2800 200 875 -600 
Q 775 -350 500 -150 
Q 2425 375 2875 1725 
L 1550 1725 
Q 975 1725 600 1700 
L 600 2150 
Q 875 2125 1450 2125 
L 2925 2125 
L 2925 3400 
L 1750 3400 
Q 1275 3400 900 3375 
L 900 3850 
Q 1275 3825 1775 3825 
L 3575 3825 
Q 3925 4625 4075 5150 
Q 4325 5000 4675 4850 
z
M 2125 5125 
Q 2450 4725 2800 4175 
Q 2500 4025 2325 3875 
Q 2025 4450 1725 4825 
Q 1950 4975 2125 5125 
z
" transform="scale(0.015625)"/>
      <path id="SimHei-8054" d="M 2325 4850 
Q 2625 4850 2975 4875 
L 2975 4450 
Q 2700 4475 2475 4475 
L 2475 1150 
Q 2750 1225 2975 1275 
Q 2925 950 2950 850 
Q 2650 800 2475 750 
L 2475 175 
Q 2475 -200 2500 -675 
L 1975 -675 
Q 2025 -200 2025 175 
L 2025 650 
Q 1750 600 1337 475 
Q 925 350 450 175 
Q 425 350 275 750 
Q 425 750 800 825 
L 800 4475 
Q 550 4475 325 4425 
L 325 4875 
Q 625 4850 950 4850 
L 2325 4850 
z
M 5450 4950 
Q 5250 4675 5162 4487 
Q 5075 4300 4850 3900 
Q 5375 3900 5825 3925 
L 5825 3475 
Q 5375 3525 5050 3525 
L 4550 3525 
Q 4525 2600 4500 2225 
L 5225 2225 
Q 5525 2225 5950 2250 
L 5950 1800 
Q 5525 1825 5225 1825 
L 4575 1825 
Q 4725 1150 5175 625 
Q 5625 100 6175 -25 
Q 6000 -175 5912 -312 
Q 5825 -450 5800 -625 
Q 5275 -250 4925 200 
Q 4575 650 4350 1325 
Q 4175 750 3900 275 
Q 3625 -200 3200 -675 
Q 3125 -575 2975 -450 
Q 2825 -325 2750 -325 
Q 3100 -100 3412 387 
Q 3725 875 3825 1187 
Q 3925 1500 3975 1825 
L 3675 1825 
Q 3275 1825 2825 1800 
L 2825 2250 
Q 3275 2225 3675 2225 
L 4025 2225 
Q 4075 2950 4075 3525 
L 3825 3525 
Q 3475 3525 3000 3475 
L 3000 3925 
Q 3475 3900 3825 3900 
L 4450 3900 
Q 4750 4600 4900 5225 
Q 5050 5125 5450 4950 
z
M 2025 2225 
L 2025 3200 
L 1250 3200 
L 1250 2225 
L 2025 2225 
z
M 2025 3600 
L 2025 4475 
L 1250 4475 
L 1250 3600 
L 2025 3600 
z
M 2025 1825 
L 1250 1825 
L 1250 900 
Q 1525 950 2025 1050 
L 2025 1825 
z
M 3500 5175 
Q 3950 4475 4075 4250 
Q 3775 4125 3675 4000 
Q 3550 4300 3150 4950 
Q 3225 4975 3500 5175 
z
" transform="scale(0.015625)"/>
      <path id="SimHei-6709" d="M 275 1625 
Q 850 1975 1400 2537 
Q 1950 3100 2400 3925 
L 1500 3925 
Q 1150 3925 625 3900 
L 625 4375 
Q 1275 4350 1600 4350 
L 2550 4350 
Q 2750 4950 2775 5225 
Q 3150 5125 3375 5075 
Q 3300 5000 3125 4350 
L 5150 4350 
Q 5575 4350 6025 4375 
L 6025 3900 
Q 5575 3925 5225 3925 
L 2975 3925 
Q 2800 3600 2600 3275 
L 5475 3275 
Q 5450 2650 5450 2150 
L 5450 125 
Q 5450 -225 5250 -387 
Q 5050 -550 4400 -600 
Q 4375 -325 4225 0 
Q 4600 -50 4775 -25 
Q 4950 0 4950 250 
L 4950 750 
L 2350 750 
L 2350 -575 
L 1800 -575 
Q 1825 50 1825 500 
L 1825 2275 
Q 1300 1675 725 1225 
Q 625 1400 275 1625 
z
M 4950 2175 
L 4950 2875 
L 2350 2875 
L 2350 2175 
L 4950 2175 
z
M 4950 1150 
L 4950 1775 
L 2350 1775 
L 2350 1150 
L 4950 1150 
z
" transform="scale(0.015625)"/>
      <path id="SimHei-6548" d="M 3500 2400 
Q 3400 2675 3200 2900 
Q 3500 3350 3750 4025 
Q 4000 4700 4100 5300 
Q 4400 5150 4750 5075 
Q 4625 4950 4500 4687 
Q 4375 4425 4225 4025 
Q 5800 4025 6150 4050 
L 6150 3625 
Q 5850 3650 5475 3650 
Q 5450 2925 5300 2137 
Q 5150 1350 4825 800 
Q 4900 575 5312 275 
Q 5725 -25 6175 -175 
Q 5875 -350 5775 -650 
Q 5350 -425 5050 -162 
Q 4750 100 4500 425 
Q 4175 125 3837 -112 
Q 3500 -350 2850 -700 
Q 2725 -425 2425 -250 
Q 2750 -200 3325 137 
Q 3900 475 4200 800 
Q 4000 1225 3887 1675 
Q 3775 2125 3675 2700 
L 3500 2400 
z
M 1100 2225 
Q 1525 1875 1925 1575 
Q 2125 1900 2200 2400 
Q 2450 2275 2700 2200 
Q 2475 1625 2300 1250 
L 3000 550 
Q 2775 375 2575 175 
Q 2400 450 2025 825 
Q 1825 600 1550 312 
Q 1275 25 700 -425 
Q 500 -175 250 -25 
Q 575 125 950 400 
Q 1325 675 1675 1175 
Q 1325 1475 850 1875 
L 1100 2225 
z
M 4075 2950 
Q 4100 2700 4212 2187 
Q 4325 1675 4525 1225 
Q 4775 1700 4887 2475 
Q 5000 3250 4975 3650 
L 4100 3650 
Q 3900 3125 3725 2850 
Q 3900 2850 4075 2950 
z
M 2500 4200 
Q 2875 4200 3175 4225 
L 3175 3800 
Q 2875 3825 2525 3825 
L 1000 3825 
Q 600 3825 275 3800 
L 275 4225 
Q 600 4200 1000 4200 
L 2500 4200 
z
M 1125 3650 
Q 1400 3500 1625 3325 
Q 1525 3250 1300 2900 
Q 1050 2525 675 2000 
Q 450 2150 225 2275 
Q 550 2575 787 2975 
Q 1025 3375 1125 3650 
z
M 2475 3625 
Q 2625 3400 2850 3100 
Q 3075 2800 3250 2575 
Q 3025 2450 2825 2275 
Q 2325 3000 2075 3325 
Q 2275 3425 2475 3625 
z
M 1825 5250 
Q 2025 4875 2175 4475 
Q 1950 4375 1700 4275 
Q 1550 4650 1350 5075 
Q 1575 5150 1825 5250 
z
" transform="scale(0.015625)"/>
     </defs>
     <use xlink:href="#SimHei-5173"/>
     <use xlink:href="#SimHei-8054" transform="translate(100 0)"/>
     <use xlink:href="#SimHei-6709" transform="translate(200 0)"/>
     <use xlink:href="#SimHei-6548" transform="translate(300 0)"/>
     <use xlink:href="#SimHei-6982" transform="translate(400 0)"/>
     <use xlink:href="#SimHei-5ff5" transform="translate(500 0)"/>
     <use xlink:href="#SimHei-6570" transform="translate(600 0)"/>
    </g>
   </g>
  </g>
  <g id="text_48">
   <!-- 行业-概念关联分析 — 2026-07-08 -->
   <g style="fill: #ffffff" transform="translate(453.99 19.3875) scale(0.15 -0.15)">
    <defs>
     <path id="SimHei-2d" d="M 2975 2125 
L 125 2125 
L 125 2525 
L 2975 2525 
L 2975 2125 
z
" transform="scale(0.015625)"/>
     <path id="SimHei-5206" d="M 1000 -650 
Q 825 -375 575 -225 
Q 975 -75 1300 137 
Q 1625 350 1875 662 
Q 2125 975 2250 1350 
Q 2375 1725 2425 2275 
Q 1850 2275 1500 2250 
L 1500 2775 
Q 1900 2750 2525 2750 
L 5025 2750 
Q 4975 2375 4950 2100 
L 4750 250 
Q 4700 -200 4350 -350 
Q 4000 -500 3575 -525 
Q 3550 -275 3325 50 
Q 3850 25 4037 87 
Q 4225 150 4275 525 
L 4450 2275 
L 2950 2275 
Q 2875 1625 2737 1187 
Q 2600 750 2350 425 
Q 2100 100 1750 -175 
Q 1400 -450 1000 -650 
z
M 3950 5175 
Q 4125 4650 4662 3975 
Q 5200 3300 6175 2800 
Q 5975 2625 5775 2275 
Q 5325 2600 4987 2887 
Q 4650 3175 4425 3425 
Q 4200 3675 3925 4137 
Q 3650 4600 3475 5000 
Q 3750 5075 3950 5175 
z
M 2700 4825 
Q 2475 4425 2325 4125 
Q 2175 3825 2025 3587 
Q 1875 3350 1575 2950 
Q 1275 2550 850 2125 
Q 625 2350 400 2475 
Q 900 2925 1187 3300 
Q 1475 3675 1737 4112 
Q 2000 4550 2200 5075 
Q 2400 4925 2700 4825 
z
" transform="scale(0.015625)"/>
     <path id="SimHei-6790" d="M 5900 4550 
Q 5575 4525 5087 4450 
Q 4600 4375 3725 4275 
L 3725 3075 
L 5400 3075 
Q 5725 3075 6150 3100 
L 6150 2650 
Q 5700 2675 5250 2675 
L 5250 350 
Q 5250 -100 5275 -475 
L 4750 -475 
Q 4775 -75 4775 375 
L 4775 2675 
L 3725 2675 
Q 3725 2175 3650 1637 
Q 3575 1100 3437 637 
Q 3300 175 2850 -500 
Q 2675 -300 2275 -150 
Q 2825 325 3050 1112 
Q 3275 1900 3262 3000 
Q 3250 4100 3225 4650 
Q 3975 4700 4562 4800 
Q 5150 4900 5500 5050 
Q 5675 4750 5900 4550 
z
M 1900 525 
Q 1900 200 1925 -525 
L 1400 -525 
Q 1425 25 1425 525 
L 1425 2250 
Q 1175 1625 600 800 
Q 425 1075 200 1225 
Q 650 1725 962 2387 
Q 1275 3050 1375 3425 
Q 925 3425 450 3400 
L 450 3850 
Q 925 3825 1425 3825 
L 1425 4450 
Q 1425 4775 1400 5125 
L 1950 5125 
Q 1900 4825 1900 4450 
L 1900 3825 
Q 2300 3825 2775 3850 
L 2775 3400 
Q 2300 3425 1900 3425 
L 1900 525 
z
M 2375 2750 
Q 2800 2050 2925 1800 
Q 2700 1700 2450 1550 
Q 2300 1900 1950 2525 
Q 2175 2625 2375 2750 
z
" transform="scale(0.015625)"/>
     <path id="SimHei-2014" d="M 6375 2500 
L 6375 2125 
L 0 2125 
L 0 2500 
L 6375 2500 
z
" transform="scale(0.015625)"/>
    </defs>
    <use xlink:href="#SimHei-884c"/>
    <use xlink:href="#SimHei-4e1a" transform="translate(100 0)"/>
    <use xlink:href="#SimHei-2d" transform="translate(200 0)"/>
    <use xlink:href="#SimHei-6982" transform="translate(250 0)"/>
    <use xlink:href="#SimHei-5ff5" transform="translate(350 0)"/>
    <use xlink:href="#SimHei-5173" transform="translate(450 0)"/>
    <use xlink:href="#SimHei-8054" transform="translate(550 0)"/>
    <use xlink:href="#SimHei-5206" transform="translate(650 0)"/>
    <use xlink:href="#SimHei-6790" transform="translate(750 0)"/>
    <use xlink:href="#SimHei-20" transform="translate(850 0)"/>
    <use xlink:href="#SimHei-2014" transform="translate(900 0)"/>
    <use xlink:href="#SimHei-20" transform="translate(1000 0)"/>
    <use xlink:href="#SimHei-32" transform="translate(1050 0)"/>
    <use xlink:href="#SimHei-30" transform="translate(1100 0)"/>
    <use xlink:href="#SimHei-32" transform="translate(1150 0)"/>
    <use xlink:href="#SimHei-36" transform="translate(1200 0)"/>
    <use xlink:href="#SimHei-2d" transform="translate(1250 0)"/>
    <use xlink:href="#SimHei-30" transform="translate(1300 0)"/>
    <use xlink:href="#SimHei-37" transform="translate(1350 0)"/>
    <use xlink:href="#SimHei-2d" transform="translate(1400 0)"/>
    <use xlink:href="#SimHei-30" transform="translate(1450 0)"/>
    <use xlink:href="#SimHei-38" transform="translate(1500 0)"/>
   </g>
  </g>
 </g>
 <defs>
  <clipPath id="p15ab5d34a0">
   <rect x="94.7" y="52.3875" width="446.594051" height="476.7075"/>
  </clipPath>
  <clipPath id="pb856c72f3f">
   <rect x="686.685949" y="52.3875" width="446.594051" height="476.7075"/>
  </clipPath>
 </defs>
</svg>
