<?xml version="1.0" encoding="utf-8" standalone="no"?>
<!DOCTYPE svg PUBLIC "-//W3C//DTD SVG 1.1//EN"
  "http://www.w3.org/Graphics/SVG/1.1/DTD/svg11.dtd">
<svg xmlns:xlink="http://www.w3.org/1999/xlink" width="1140.48pt" height="565.7325pt" viewBox="0 0 1140.48 565.7325" xmlns="http://www.w3.org/2000/svg" version="1.1">
 <metadata>
  <rdf:RDF xmlns:dc="http://purl.org/dc/elements/1.1/" xmlns:cc="http://creativecommons.org/ns#" xmlns:rdf="http://www.w3.org/1999/02/22-rdf-syntax-ns#">
   <cc:Work>
    <dc:type rdf:resource="http://purl.org/dc/dcmitype/StillImage"/>
    <dc:date>2026-07-23T14:44:39.548447</dc:date>
    <dc:format>image/svg+xml</dc:format>
    <dc:creator>
     <cc:Agent>
      <dc:title>Matplotlib v3.10.7, https://matplotlib.org/</dc:title>
     </cc:Agent>
    </dc:creator>
   </cc:Work>
  </rdf:RDF>
 </metadata>
 <defs>
  <style type="text/css">*{stroke-linejoin: round; stroke-linecap: butt}</style>
 </defs>
 <g id="figure_1">
  <g id="patch_1">
   <path d="M 0 565.7325 
L 1140.48 565.7325 
L 1140.48 0 
L 0 0 
z
" style="fill: #1a1a1a"/>
  </g>
  <g id="axes_1">
   <g id="patch_2">
    <path d="M 82.7 529.095 
L 542.494356 529.095 
L 542.494356 52.3875 
L 82.7 52.3875 
z
"/>
   </g>
   <g id="patch_3">
    <path d="M 82.7 507.426477 
L 520.599386 507.426477 
L 520.599386 462.978226 
L 82.7 462.978226 
z
" clip-path="url(#pdf7742c849)" style="fill: #e74c3c; opacity: 0.85"/>
   </g>
   <g id="patch_4">
    <path d="M 82.7 451.866163 
L 369.221991 451.866163 
L 369.221991 407.417911 
L 82.7 407.417911 
z
" clip-path="url(#pdf7742c849)" style="fill: #e74c3c; opacity: 0.85"/>
   </g>
   <g id="patch_5">
    <path d="M 82.7 396.305848 
L 331.625098 396.305848 
L 331.625098 351.857596 
L 82.7 351.857596 
z
" clip-path="url(#pdf7742c849)" style="fill: #e74c3c; opacity: 0.85"/>
   </g>
   <g id="patch_6">
    <path d="M 82.7 340.745533 
L 290.186969 340.745533 
L 290.186969 296.297281 
L 82.7 296.297281 
z
" clip-path="url(#pdf7742c849)" style="fill: #e74c3c; opacity: 0.85"/>
   </g>
   <g id="patch_7">
    <path d="M 82.7 285.185219 
L 288.123445 285.185219 
L 288.123445 240.736967 
L 82.7 240.736967 
z
" clip-path="url(#pdf7742c849)" style="fill: #e74c3c; opacity: 0.85"/>
   </g>
   <g id="patch_8">
    <path d="M 82.7 229.624904 
L 283.452852 229.624904 
L 283.452852 185.176652 
L 82.7 185.176652 
z
" clip-path="url(#pdf7742c849)" style="fill: #e74c3c; opacity: 0.85"/>
   </g>
   <g id="patch_9">
    <path d="M 82.7 174.064589 
L 282.814104 174.064589 
L 282.814104 129.616337 
L 82.7 129.616337 
z
" clip-path="url(#pdf7742c849)" style="fill: #e74c3c; opacity: 0.85"/>
   </g>
   <g id="patch_10">
    <path d="M 82.7 118.504274 
L 279.455596 118.504274 
L 279.455596 74.056023 
L 82.7 74.056023 
z
" clip-path="url(#pdf7742c849)" style="fill: #e74c3c; opacity: 0.85"/>
   </g>
   <g id="matplotlib.axis_1">
    <g id="xtick_1">
     <g id="line2d_1">
      <path d="M 82.7 529.095 
L 82.7 52.3875 
" clip-path="url(#pdf7742c849)" style="fill: none; stroke-dasharray: 2.96,1.28; stroke-dashoffset: 0; stroke: #ffffff; stroke-opacity: 0.3; stroke-width: 0.8"/>
     </g>
     <g id="line2d_2">
      <defs>
       <path id="mdc4623e9bf" d="M 0 0 
L 0 -3.5 
" style="stroke: #ffffff; stroke-width: 0.8"/>
      </defs>
      <g>
       <use xlink:href="#mdc4623e9bf" x="82.7" y="529.095" style="fill: #ffffff; stroke: #ffffff; stroke-width: 0.8"/>
      </g>
     </g>
     <g id="text_1">
      <!-- 0 -->
      <g style="fill: #ffffff" transform="translate(79.7 540.845) scale(0.12 -0.12)">
       <defs>
        <path id="SimHei-30" d="M 225 2537 
Q 250 3200 412 3587 
Q 575 3975 875 4225 
Q 1175 4475 1612 4475 
Q 2050 4475 2375 4112 
Q 2700 3750 2800 3200 
Q 2900 2650 2862 1937 
Q 2825 1225 2612 775 
Q 2400 325 1975 150 
Q 1550 -25 1125 187 
Q 700 400 525 750 
Q 350 1100 275 1487 
Q 200 1875 225 2537 
z
M 750 2687 
Q 675 2000 800 1462 
Q 925 925 1212 700 
Q 1500 475 1800 612 
Q 2100 750 2237 1162 
Q 2375 1575 2375 2062 
Q 2375 2550 2337 2950 
Q 2300 3350 2112 3675 
Q 1925 4000 1612 4012 
Q 1300 4025 1062 3700 
Q 825 3375 750 2687 
z
" transform="scale(0.015625)"/>
       </defs>
       <use xlink:href="#SimHei-30"/>
      </g>
     </g>
    </g>
    <g id="xtick_2">
     <g id="line2d_3">
      <path d="M 151.498339 529.095 
L 151.498339 52.3875 
" clip-path="url(#pdf7742c849)" style="fill: none; stroke-dasharray: 2.96,1.28; stroke-dashoffset: 0; stroke: #ffffff; stroke-opacity: 0.3; stroke-width: 0.8"/>
     </g>
     <g id="line2d_4">
      <g>
       <use xlink:href="#mdc4623e9bf" x="151.498339" y="529.095" style="fill: #ffffff; stroke: #ffffff; stroke-width: 0.8"/>
      </g>
     </g>
     <g id="text_2">
      <!-- 1 -->
      <g style="fill: #ffffff" transform="translate(148.498339 540.845) scale(0.12 -0.12)">
       <defs>
        <path id="SimHei-31" d="M 1400 3600 
Q 1075 3275 575 2975 
L 575 3450 
Q 1200 3875 1600 4450 
L 1900 4450 
L 1900 150 
L 1400 150 
L 1400 3600 
z
" transform="scale(0.015625)"/>
       </defs>
       <use xlink:href="#SimHei-31"/>
      </g>
     </g>
    </g>
    <g id="xtick_3">
     <g id="line2d_5">
      <path d="M 220.296677 529.095 
L 220.296677 52.3875 
" clip-path="url(#pdf7742c849)" style="fill: none; stroke-dasharray: 2.96,1.28; stroke-dashoffset: 0; stroke: #ffffff; stroke-opacity: 0.3; stroke-width: 0.8"/>
     </g>
     <g id="line2d_6">
      <g>
       <use xlink:href="#mdc4623e9bf" x="220.296677" y="529.095" style="fill: #ffffff; stroke: #ffffff; stroke-width: 0.8"/>
      </g>
     </g>
     <g id="text_3">
      <!-- 2 -->
      <g style="fill: #ffffff" transform="translate(217.296677 540.845) scale(0.12 -0.12)">
       <defs>
        <path id="SimHei-32" d="M 300 250 
Q 325 625 650 925 
Q 975 1225 1475 1862 
Q 1975 2500 2125 2850 
Q 2275 3200 2237 3450 
Q 2200 3700 2000 3862 
Q 1800 4025 1537 4000 
Q 1275 3975 1037 3800 
Q 800 3625 675 3275 
L 200 3350 
Q 400 3925 712 4187 
Q 1025 4450 1450 4475 
Q 1700 4500 1900 4462 
Q 2100 4425 2312 4287 
Q 2525 4150 2662 3875 
Q 2800 3600 2762 3212 
Q 2725 2825 2375 2287 
Q 2025 1750 1025 600 
L 2825 600 
L 2825 150 
L 300 150 
L 300 250 
z
" transform="scale(0.015625)"/>
       </defs>
       <use xlink:href="#SimHei-32"/>
      </g>
     </g>
    </g>
    <g id="xtick_4">
     <g id="line2d_7">
      <path d="M 289.095016 529.095 
L 289.095016 52.3875 
" clip-path="url(#pdf7742c849)" style="fill: none; stroke-dasharray: 2.96,1.28; stroke-dashoffset: 0; stroke: #ffffff; stroke-opacity: 0.3; stroke-width: 0.8"/>
     </g>
     <g id="line2d_8">
      <g>
       <use xlink:href="#mdc4623e9bf" x="289.095016" y="529.095" style="fill: #ffffff; stroke: #ffffff; stroke-width: 0.8"/>
      </g>
     </g>
     <g id="text_4">
      <!-- 3 -->
      <g style="fill: #ffffff" transform="translate(286.095016 540.845) scale(0.12 -0.12)">
       <defs>
        <path id="SimHei-33" d="M 250 1225 
L 700 1300 
Q 800 975 1025 762 
Q 1250 550 1587 562 
Q 1925 575 2125 837 
Q 2325 1100 2300 1437 
Q 2275 1775 2037 1962 
Q 1800 2150 1275 2225 
L 1275 2550 
Q 1800 2600 2037 2825 
Q 2275 3050 2250 3412 
Q 2225 3775 1925 3937 
Q 1625 4100 1287 3975 
Q 950 3850 750 3275 
L 300 3350 
Q 450 3800 712 4100 
Q 975 4400 1425 4450 
Q 1875 4500 2212 4337 
Q 2550 4175 2687 3837 
Q 2825 3500 2725 3100 
Q 2625 2700 2150 2400 
Q 2500 2250 2687 1950 
Q 2875 1650 2812 1162 
Q 2750 675 2375 375 
Q 2000 75 1525 87 
Q 1050 100 700 387 
Q 350 675 250 1225 
z
" transform="scale(0.015625)"/>
       </defs>
       <use xlink:href="#SimHei-33"/>
      </g>
     </g>
    </g>
    <g id="xtick_5">
     <g id="line2d_9">
      <path d="M 357.893355 529.095 
L 357.893355 52.3875 
" clip-path="url(#pdf7742c849)" style="fill: none; stroke-dasharray: 2.96,1.28; stroke-dashoffset: 0; stroke: #ffffff; stroke-opacity: 0.3; stroke-width: 0.8"/>
     </g>
     <g id="line2d_10">
      <g>
       <use xlink:href="#mdc4623e9bf" x="357.893355" y="529.095" style="fill: #ffffff; stroke: #ffffff; stroke-width: 0.8"/>
      </g>
     </g>
     <g id="text_5">
      <!-- 4 -->
      <g style="fill: #ffffff" transform="translate(354.893355 540.845) scale(0.12 -0.12)">
       <defs>
        <path id="SimHei-34" d="M 2000 1100 
L 75 1100 
L 75 1525 
L 2100 4450 
L 2475 4450 
L 2475 1525 
L 3075 1525 
L 3075 1100 
L 2475 1100 
L 2475 150 
L 2000 150 
L 2000 1100 
z
M 2000 1525 
L 2000 3500 
L 600 1525 
L 2000 1525 
z
" transform="scale(0.015625)"/>
       </defs>
       <use xlink:href="#SimHei-34"/>
      </g>
     </g>
    </g>
    <g id="xtick_6">
     <g id="line2d_11">
      <path d="M 426.691694 529.095 
L 426.691694 52.3875 
" clip-path="url(#pdf7742c849)" style="fill: none; stroke-dasharray: 2.96,1.28; stroke-dashoffset: 0; stroke: #ffffff; stroke-opacity: 0.3; stroke-width: 0.8"/>
     </g>
     <g id="line2d_12">
      <g>
       <use xlink:href="#mdc4623e9bf" x="426.691694" y="529.095" style="fill: #ffffff; stroke: #ffffff; stroke-width: 0.8"/>
      </g>
     </g>
     <g id="text_6">
      <!-- 5 -->
      <g style="fill: #ffffff" transform="translate(423.691694 540.845) scale(0.12 -0.12)">
       <defs>
        <path id="SimHei-35" d="M 550 1325 
Q 725 650 1150 575 
Q 1575 500 1837 662 
Q 2100 825 2212 1087 
Q 2325 1350 2312 1675 
Q 2300 2000 2137 2225 
Q 1975 2450 1725 2525 
Q 1475 2600 1162 2525 
Q 850 2450 650 2175 
L 225 2225 
Q 275 2375 700 4375 
L 2675 4375 
L 2675 3925 
L 1075 3925 
Q 950 3250 825 2850 
Q 1200 3025 1525 3012 
Q 1850 3000 2150 2862 
Q 2450 2725 2587 2487 
Q 2725 2250 2787 2012 
Q 2850 1775 2837 1500 
Q 2825 1225 2725 937 
Q 2625 650 2425 462 
Q 2225 275 1937 162 
Q 1650 50 1275 75 
Q 900 100 562 350 
Q 225 600 100 1200 
L 550 1325 
z
" transform="scale(0.015625)"/>
       </defs>
       <use xlink:href="#SimHei-35"/>
      </g>
     </g>
    </g>
    <g id="xtick_7">
     <g id="line2d_13">
      <path d="M 495.490032 529.095 
L 495.490032 52.3875 
" clip-path="url(#pdf7742c849)" style="fill: none; stroke-dasharray: 2.96,1.28; stroke-dashoffset: 0; stroke: #ffffff; stroke-opacity: 0.3; stroke-width: 0.8"/>
     </g>
     <g id="line2d_14">
      <g>
       <use xlink:href="#mdc4623e9bf" x="495.490032" y="529.095" style="fill: #ffffff; stroke: #ffffff; stroke-width: 0.8"/>
      </g>
     </g>
     <g id="text_7">
      <!-- 6 -->
      <g style="fill: #ffffff" transform="translate(492.490032 540.845) scale(0.12 -0.12)">
       <defs>
        <path id="SimHei-36" d="M 250 1612 
Q 275 1975 387 2225 
Q 500 2475 725 2850 
L 1750 4450 
L 2325 4450 
L 1275 2800 
Q 1950 2975 2350 2750 
Q 2750 2525 2887 2237 
Q 3025 1950 3037 1612 
Q 3050 1275 2937 950 
Q 2825 625 2537 362 
Q 2250 100 1737 75 
Q 1225 50 862 262 
Q 500 475 362 862 
Q 225 1250 250 1612 
z
M 1025 787 
Q 1250 550 1625 525 
Q 2000 500 2250 775 
Q 2500 1050 2500 1575 
Q 2500 2100 2187 2300 
Q 1875 2500 1487 2450 
Q 1100 2400 925 2075 
Q 750 1750 775 1387 
Q 800 1025 1025 787 
z
" transform="scale(0.015625)"/>
       </defs>
       <use xlink:href="#SimHei-36"/>
      </g>
     </g>
    </g>
    <g id="text_8">
     <!-- 平均涨跌 % -->
     <g style="fill: #ffffff" transform="translate(280.097178 556.704375) scale(0.13 -0.13)">
      <defs>
       <path id="SimHei-5e73" d="M 4525 4825 
Q 4900 4825 5450 4850 
L 5450 4375 
Q 4925 4400 4525 4400 
L 3475 4400 
L 3475 2025 
L 5000 2025 
Q 5550 2025 6025 2050 
L 6025 1575 
Q 5550 1600 5000 1600 
L 3475 1600 
L 3475 450 
Q 3475 -100 3500 -600 
L 2925 -600 
Q 2950 -100 2950 450 
L 2950 1600 
L 1125 1600 
Q 775 1600 375 1575 
L 375 2050 
Q 775 2025 1175 2025 
L 2950 2025 
L 2950 4400 
L 1775 4400 
Q 1400 4400 875 4375 
L 875 4850 
Q 1400 4825 1750 4825 
L 4525 4825 
z
M 3925 2600 
Q 4500 3300 4900 4125 
Q 5150 3950 5400 3825 
Q 4775 2850 4350 2300 
Q 4150 2475 3925 2600 
z
M 1975 2350 
Q 1600 3100 1050 3725 
Q 1250 3875 1450 4050 
Q 2075 3300 2450 2725 
Q 2150 2500 1975 2350 
z
" transform="scale(0.015625)"/>
       <path id="SimHei-5747" d="M 5775 275 
Q 5775 -325 5362 -450 
Q 4950 -575 4425 -600 
Q 4375 -275 4250 25 
Q 4950 -25 5125 62 
Q 5300 150 5300 500 
L 5375 3700 
L 3550 3700 
Q 3425 3375 3262 3037 
Q 3100 2700 2925 2400 
Q 2675 2550 2475 2625 
Q 3150 3625 3500 5200 
Q 3800 5100 4075 5025 
Q 3975 4875 3875 4650 
Q 3775 4425 3675 4125 
L 5900 4125 
L 5775 275 
z
M 1250 3625 
L 1250 4375 
Q 1250 4775 1225 5100 
L 1775 5100 
Q 1750 4725 1750 4375 
L 1750 3625 
L 1900 3625 
Q 2200 3625 2525 3650 
L 2525 3150 
Q 2200 3175 1900 3175 
L 1750 3175 
L 1750 1100 
L 2500 1375 
Q 2475 1125 2525 900 
Q 1225 475 962 362 
Q 700 250 475 150 
Q 375 475 250 750 
Q 575 800 800 850 
Q 1025 900 1250 975 
L 1250 3175 
L 1125 3175 
Q 850 3175 400 3150 
L 400 3650 
Q 850 3625 1100 3625 
L 1250 3625 
z
M 4950 1625 
Q 4675 1425 4137 1050 
Q 3600 675 3175 300 
Q 3000 575 2850 775 
Q 3350 1050 3762 1325 
Q 4175 1600 4775 2075 
Q 4825 1850 4950 1625 
z
M 3775 3150 
Q 4125 2800 4475 2300 
Q 4250 2125 4100 1975 
Q 3900 2325 3450 2825 
Q 3600 3000 3775 3150 
z
" transform="scale(0.015625)"/>
       <path id="SimHei-6da8" d="M 3750 4350 
Q 3750 4700 3725 5075 
L 4225 5075 
Q 4200 4700 4200 4350 
L 4200 2600 
L 5975 2600 
L 5975 2175 
Q 5500 2200 5025 2200 
Q 5175 1325 5512 700 
Q 5850 75 6175 -125 
Q 5875 -300 5750 -475 
Q 5375 -125 5137 337 
Q 4900 800 4775 1300 
Q 4650 1800 4575 2200 
L 4200 2200 
L 4200 275 
Q 4475 500 4725 775 
Q 4800 550 4925 300 
Q 4800 200 4500 -62 
Q 4200 -325 3875 -600 
Q 3775 -425 3575 -175 
Q 3775 -25 3750 350 
L 3750 2200 
Q 3575 2200 3225 2175 
L 3225 2625 
Q 3575 2600 3750 2600 
L 3750 4350 
z
M 1900 0 
Q 2225 0 2437 25 
Q 2650 50 2650 275 
L 2650 1675 
L 1775 1675 
Q 1875 2675 1850 3475 
L 2750 3475 
L 2750 4475 
L 2575 4475 
Q 2125 4475 1775 4450 
L 1775 4900 
Q 2175 4875 2550 4875 
L 3225 4875 
Q 3200 4425 3200 3975 
Q 3200 3525 3225 3075 
L 2325 3075 
L 2275 2075 
L 3125 2075 
Q 3100 1700 3100 1325 
L 3100 100 
Q 3100 -250 2912 -375 
Q 2725 -500 2125 -550 
Q 2100 -250 1900 0 
z
M 1475 1550 
Q 1300 1075 1125 525 
L 775 -575 
Q 550 -400 275 -275 
Q 500 75 712 662 
Q 925 1250 1075 1825 
Q 1250 1650 1475 1550 
z
M 5675 4650 
Q 5525 4375 5337 3950 
Q 5150 3525 4825 2875 
Q 4575 3025 4425 3075 
Q 4625 3425 4875 4000 
Q 5125 4575 5200 4875 
Q 5425 4750 5675 4650 
z
M 500 3550 
Q 1100 3200 1425 2975 
Q 1225 2675 1150 2500 
Q 750 2800 225 3125 
Q 375 3350 500 3550 
z
M 1300 4100 
Q 900 4475 425 4775 
Q 575 4950 725 5150 
Q 1200 4800 1600 4500 
Q 1425 4325 1300 4100 
z
" transform="scale(0.015625)"/>
       <path id="SimHei-8dcc" d="M 1050 2475 
Q 1025 2000 1025 1625 
L 1025 500 
Q 1250 525 1500 575 
L 1500 2975 
L 725 2975 
Q 750 3425 750 3925 
Q 750 4425 725 4900 
L 2650 4900 
Q 2625 4425 2625 3925 
Q 2625 3425 2650 2975 
L 1925 2975 
L 1925 2200 
Q 2325 2200 2650 2225 
L 2650 1750 
Q 2250 1775 1925 1775 
L 1925 650 
Q 2275 725 2825 850 
Q 2775 625 2775 425 
Q 1350 75 1025 -12 
Q 700 -100 450 -200 
Q 400 100 250 375 
Q 400 375 600 425 
L 600 1700 
Q 600 2050 575 2475 
L 1050 2475 
z
M 3325 2725 
Q 3050 2825 2875 2875 
Q 3050 3350 3125 3862 
Q 3200 4375 3200 4750 
Q 3425 4675 3750 4625 
Q 3650 4350 3600 4025 
L 4200 4025 
L 4200 4525 
Q 4200 4825 4150 5250 
Q 4450 5200 4725 5175 
Q 4675 5000 4650 4725 
Q 4625 4450 4625 4025 
Q 5400 4025 5775 4050 
L 5775 3575 
Q 5400 3600 4625 3600 
L 4625 2375 
Q 5650 2375 6050 2400 
L 6050 1950 
Q 5625 1975 4750 1975 
Q 4900 1250 5300 687 
Q 5700 125 6200 -100 
Q 5975 -275 5775 -575 
Q 5275 -100 4962 412 
Q 4650 925 4475 1575 
Q 4325 925 4087 525 
Q 3850 125 3537 -150 
Q 3225 -425 2850 -650 
Q 2675 -425 2475 -275 
Q 2900 -75 3200 187 
Q 3500 450 3737 850 
Q 3975 1250 4100 1975 
Q 3375 1975 2850 1950 
L 2850 2400 
Q 3450 2375 4175 2375 
Q 4200 3175 4200 3600 
L 3550 3600 
Q 3450 3275 3325 2725 
z
M 2225 3350 
L 2225 4525 
L 1175 4525 
L 1175 3350 
L 2225 3350 
z
" transform="scale(0.015625)"/>
       <path id="SimHei-20" transform="scale(0.015625)"/>
       <path id="SimHei-25" d="M 1400 3325 
Q 1400 2600 1187 2400 
Q 975 2200 775 2200 
Q 575 2200 362 2400 
Q 150 2600 150 3325 
Q 150 4050 362 4250 
Q 575 4450 775 4450 
Q 975 4450 1187 4250 
Q 1400 4050 1400 3325 
z
M 2625 4375 
L 700 75 
L 500 150 
L 2425 4450 
L 2625 4375 
z
M 2975 1200 
Q 2975 475 2762 275 
Q 2550 75 2350 75 
Q 2150 75 1937 275 
Q 1725 475 1725 1200 
Q 1725 1925 1937 2125 
Q 2150 2325 2350 2325 
Q 2550 2325 2762 2125 
Q 2975 1925 2975 1200 
z
M 1000 3325 
Q 1000 3775 950 3925 
Q 900 4075 775 4075 
Q 650 4075 600 3925 
Q 550 3775 550 3325 
Q 550 2875 600 2725 
Q 650 2575 775 2575 
Q 900 2575 950 2725 
Q 1000 2875 1000 3325 
z
M 2575 1200 
Q 2575 1650 2525 1800 
Q 2475 1950 2350 1950 
Q 2225 1950 2175 1800 
Q 2125 1650 2125 1200 
Q 2125 750 2175 600 
Q 2225 450 2350 450 
Q 2475 450 2525 600 
Q 2575 750 2575 1200 
z
" transform="scale(0.015625)"/>
      </defs>
      <use xlink:href="#SimHei-5e73"/>
      <use xlink:href="#SimHei-5747" transform="translate(100 0)"/>
      <use xlink:href="#SimHei-6da8" transform="translate(200 0)"/>
      <use xlink:href="#SimHei-8dcc" transform="translate(300 0)"/>
      <use xlink:href="#SimHei-20" transform="translate(400 0)"/>
      <use xlink:href="#SimHei-25" transform="translate(450 0)"/>
     </g>
    </g>
   </g>
   <g id="matplotlib.axis_2">
    <g id="ytick_1">
     <g id="line2d_15">
      <path d="M 82.7 485.202351 
L 542.494356 485.202351 
" clip-path="url(#pdf7742c849)" style="fill: none; stroke-dasharray: 2.96,1.28; stroke-dashoffset: 0; stroke: #ffffff; stroke-opacity: 0.25; stroke-width: 0.8"/>
     </g>
     <g id="line2d_16">
      <defs>
       <path id="m7591d8f540" d="M 0 0 
L 3.5 0 
" style="stroke: #ffffff; stroke-width: 0.8"/>
      </defs>
      <g>
       <use xlink:href="#m7591d8f540" x="82.7" y="485.202351" style="fill: #ffffff; stroke: #ffffff; stroke-width: 0.8"/>
      </g>
     </g>
     <g id="text_9">
      <!-- 黄金 -->
      <g style="fill: #ffffff" transform="translate(55.2 490.007039) scale(0.12 -0.12)">
       <defs>
        <path id="SimHei-9ec4" d="M 2700 350 
Q 2425 225 1837 -125 
Q 1250 -475 900 -675 
L 525 -300 
Q 1100 -75 1475 162 
Q 1850 400 2200 675 
L 1100 675 
Q 1125 900 1150 1400 
L 1150 2175 
Q 1150 2450 1125 2800 
L 3000 2800 
L 3000 3250 
L 1250 3250 
Q 675 3250 275 3225 
L 275 3650 
Q 650 3625 1225 3625 
L 2125 3625 
L 2125 4300 
L 1525 4300 
Q 1050 4300 725 4275 
L 725 4700 
Q 1000 4675 1475 4675 
L 2125 4675 
Q 2125 4975 2100 5250 
L 2650 5250 
Q 2600 4975 2600 4675 
L 3975 4675 
Q 3975 4975 3950 5250 
L 4475 5250 
Q 4450 4950 4450 4675 
L 4950 4675 
Q 5425 4675 5800 4700 
L 5800 4275 
Q 5450 4300 4975 4300 
L 4450 4300 
L 4450 3625 
L 5225 3625 
Q 5750 3625 6175 3650 
L 6175 3225 
Q 5775 3250 5250 3250 
L 3475 3250 
L 3475 2800 
L 5350 2800 
Q 5325 2425 5325 2200 
L 5325 1400 
Q 5325 950 5350 675 
L 4350 675 
Q 4650 500 5125 225 
Q 5625 -50 6025 -275 
Q 5825 -475 5675 -675 
Q 5150 -325 4787 -112 
Q 4425 100 4000 300 
Q 4125 425 4275 675 
L 2300 675 
Q 2525 475 2700 350 
z
M 3975 3625 
L 3975 4300 
L 2600 4300 
L 2600 3625 
L 3975 3625 
z
M 4875 1050 
L 4875 1550 
L 3475 1550 
L 3475 1050 
L 4875 1050 
z
M 3000 1050 
L 3000 1550 
L 1625 1550 
L 1625 1050 
L 3000 1050 
z
M 4875 1925 
L 4875 2400 
L 3475 2400 
L 3475 1925 
L 4875 1925 
z
M 3000 1925 
L 3000 2400 
L 1625 2400 
L 1625 1925 
L 3000 1925 
z
" transform="scale(0.015625)"/>
        <path id="SimHei-91d1" d="M 1800 1250 
Q 2200 700 2500 225 
Q 2325 125 2150 -50 
L 2925 -50 
L 2925 1400 
L 2075 1400 
Q 1725 1400 1100 1375 
L 1100 1850 
Q 1725 1825 2050 1825 
L 2925 1825 
L 2925 2600 
Q 2100 2600 1625 2575 
L 1625 2975 
Q 1225 2675 650 2350 
Q 500 2575 275 2775 
Q 750 2950 1250 3300 
Q 1750 3650 2225 4162 
Q 2700 4675 3000 5250 
Q 3050 5200 3525 4975 
L 3375 4825 
Q 3650 4525 4050 4150 
Q 4450 3775 5000 3487 
Q 5550 3200 6150 3025 
Q 5950 2825 5825 2550 
Q 5325 2725 4800 3000 
L 4800 2575 
Q 4300 2600 4000 2600 
L 3400 2600 
L 3400 1825 
L 4275 1825 
Q 4700 1825 5325 1850 
L 5325 1375 
Q 4725 1400 4275 1400 
L 3400 1400 
L 3400 -50 
L 3875 -50 
Q 4450 950 4500 1300 
Q 4725 1150 5050 1000 
Q 4875 775 4375 -50 
Q 5150 -50 5875 -25 
L 5875 -500 
Q 5150 -475 4700 -475 
L 1725 -475 
Q 1200 -475 700 -500 
L 700 -25 
Q 1225 -50 1725 -50 
L 2025 -50 
Q 1850 350 1400 950 
Q 1625 1100 1800 1250 
z
M 1700 3050 
Q 2075 3025 2400 3025 
L 3900 3025 
Q 4275 3050 4700 3050 
Q 4275 3350 3837 3762 
Q 3400 4175 3125 4525 
Q 2850 4150 2462 3762 
Q 2075 3375 1700 3050 
z
" transform="scale(0.015625)"/>
       </defs>
       <use xlink:href="#SimHei-9ec4"/>
       <use xlink:href="#SimHei-91d1" transform="translate(100 0)"/>
      </g>
     </g>
    </g>
    <g id="ytick_2">
     <g id="line2d_17">
      <path d="M 82.7 429.642037 
L 542.494356 429.642037 
" clip-path="url(#pdf7742c849)" style="fill: none; stroke-dasharray: 2.96,1.28; stroke-dashoffset: 0; stroke: #ffffff; stroke-opacity: 0.25; stroke-width: 0.8"/>
     </g>
     <g id="line2d_18">
      <g>
       <use xlink:href="#m7591d8f540" x="82.7" y="429.642037" style="fill: #ffffff; stroke: #ffffff; stroke-width: 0.8"/>
      </g>
     </g>
     <g id="text_10">
      <!-- 油田服务 -->
      <g style="fill: #ffffff" transform="translate(31.2 434.446724) scale(0.12 -0.12)">
       <defs>
        <path id="SimHei-6cb9" d="M 3775 4250 
Q 3775 4575 3750 5100 
L 4275 5100 
Q 4250 4575 4250 4250 
L 4250 3750 
L 5825 3750 
Q 5800 3150 5800 2825 
L 5800 425 
Q 5800 150 5825 -525 
L 5325 -525 
L 5325 0 
L 2700 0 
L 2700 -525 
L 2200 -525 
Q 2225 125 2225 450 
L 2225 2800 
Q 2225 3125 2200 3750 
L 3775 3750 
L 3775 4250 
z
M 3775 400 
L 3775 1700 
L 2700 1700 
L 2700 400 
L 3775 400 
z
M 5325 400 
L 5325 1700 
L 4250 1700 
L 4250 400 
L 5325 400 
z
M 5325 2100 
L 5325 3350 
L 4250 3350 
L 4250 2100 
L 5325 2100 
z
M 3775 2100 
L 3775 3350 
L 2700 3350 
L 2700 2100 
L 3775 2100 
z
M 1900 1550 
Q 1725 1250 1425 525 
Q 1125 -200 925 -575 
Q 750 -375 400 -250 
Q 725 125 1025 750 
Q 1325 1375 1450 1825 
Q 1700 1650 1900 1550 
z
M 1075 4875 
Q 1600 4550 2150 4175 
Q 1950 4000 1825 3750 
Q 1325 4150 775 4475 
L 1075 4875 
z
M 625 3325 
Q 1175 3075 1800 2725 
Q 1600 2475 1550 2275 
Q 975 2650 400 2900 
Q 500 3125 625 3325 
z
" transform="scale(0.015625)"/>
        <path id="SimHei-7530" d="M 5650 4725 
Q 5625 4000 5625 3475 
L 5625 800 
Q 5625 275 5650 -475 
L 5175 -475 
L 5175 -50 
L 1250 -50 
L 1250 -600 
L 725 -600 
Q 750 125 750 750 
L 750 3475 
Q 750 4000 725 4725 
L 5650 4725 
z
M 5150 400 
L 5150 2175 
L 3400 2175 
L 3400 400 
L 5150 400 
z
M 2925 400 
L 2925 2175 
L 1250 2175 
L 1250 400 
L 2925 400 
z
M 5150 2625 
L 5150 4275 
L 3400 4275 
L 3400 2625 
L 5150 2625 
z
M 2925 2625 
L 2925 4275 
L 1250 4275 
L 1250 2625 
L 2925 2625 
z
" transform="scale(0.015625)"/>
        <path id="SimHei-670d" d="M 3700 -575 
L 3225 -575 
Q 3250 25 3250 550 
L 3250 4025 
Q 3250 4450 3225 4950 
L 5550 4950 
Q 5525 4600 5500 4187 
Q 5475 3775 5425 3562 
Q 5375 3350 5125 3250 
Q 4875 3150 4475 3100 
Q 4400 3400 4250 3600 
Q 4875 3600 4950 3737 
Q 5025 3875 5025 4525 
L 3700 4525 
L 3700 2850 
L 5775 2850 
Q 5675 2200 5525 1687 
Q 5375 1175 5125 675 
Q 5550 175 6100 -75 
Q 5925 -225 5750 -500 
Q 5275 -175 4850 300 
Q 4550 -125 4025 -600 
Q 3900 -375 3750 -200 
Q 4100 50 4525 650 
Q 4200 1075 3875 2425 
L 3700 2425 
L 3700 -575 
z
M 2675 4925 
Q 2650 4725 2650 4000 
L 2650 300 
Q 2650 -225 2425 -337 
Q 2200 -450 1800 -550 
Q 1700 -175 1550 50 
Q 1900 50 2050 75 
Q 2200 100 2200 450 
L 2200 1700 
L 1225 1700 
Q 1175 1075 1050 550 
Q 925 25 700 -475 
Q 500 -300 225 -175 
Q 525 375 637 862 
Q 750 1350 787 1850 
Q 825 2350 825 3425 
Q 825 4500 800 4925 
L 2675 4925 
z
M 2200 2125 
L 2200 3125 
L 1275 3125 
L 1250 2125 
L 2200 2125 
z
M 2200 3550 
L 2200 4500 
L 1275 4500 
L 1275 3550 
L 2200 3550 
z
M 4325 2425 
Q 4525 1475 4800 1050 
Q 5100 1625 5225 2425 
L 4325 2425 
z
" transform="scale(0.015625)"/>
        <path id="SimHei-52a1" d="M 2850 4950 
Q 2650 4775 2500 4550 
L 5275 4550 
Q 5050 4175 4687 3750 
Q 4325 3325 3775 2950 
Q 4125 2725 4725 2612 
Q 5325 2500 6150 2475 
Q 5950 2250 5875 1950 
Q 5175 2000 4500 2200 
Q 3825 2400 3375 2675 
Q 2575 2300 1925 2125 
Q 1275 1950 650 1850 
Q 550 2150 350 2375 
Q 900 2375 1600 2525 
Q 2300 2675 2975 2950 
Q 2450 3450 2075 3975 
Q 1650 3450 1200 3100 
Q 1025 3300 750 3400 
Q 1450 3900 1775 4362 
Q 2100 4825 2250 5225 
Q 2575 5050 2850 4950 
z
M 2800 1650 
Q 2850 1950 2850 2350 
Q 3150 2300 3450 2275 
Q 3375 2125 3300 1650 
L 5325 1650 
Q 5300 1350 5275 962 
Q 5250 575 5187 125 
Q 5125 -325 4825 -400 
Q 4525 -475 3875 -550 
Q 3825 -225 3625 0 
Q 4350 0 4500 50 
Q 4650 100 4700 325 
L 4775 1275 
L 3250 1275 
Q 2900 200 2262 -125 
Q 1625 -450 900 -700 
Q 825 -475 550 -175 
Q 1150 -125 1800 200 
Q 2450 525 2725 1275 
L 2150 1275 
Q 1400 1275 1050 1225 
L 1050 1675 
Q 1425 1650 2175 1650 
L 2800 1650 
z
M 3400 3225 
Q 3900 3525 4375 4175 
L 2500 4175 
Q 2975 3550 3400 3225 
z
" transform="scale(0.015625)"/>
       </defs>
       <use xlink:href="#SimHei-6cb9"/>
       <use xlink:href="#SimHei-7530" transform="translate(100 0)"/>
       <use xlink:href="#SimHei-670d" transform="translate(200 0)"/>
       <use xlink:href="#SimHei-52a1" transform="translate(300 0)"/>
      </g>
     </g>
    </g>
    <g id="ytick_3">
     <g id="line2d_19">
      <path d="M 82.7 374.081722 
L 542.494356 374.081722 
" clip-path="url(#pdf7742c849)" style="fill: none; stroke-dasharray: 2.96,1.28; stroke-dashoffset: 0; stroke: #ffffff; stroke-opacity: 0.25; stroke-width: 0.8"/>
     </g>
     <g id="line2d_20">
      <g>
       <use xlink:href="#m7591d8f540" x="82.7" y="374.081722" style="fill: #ffffff; stroke: #ffffff; stroke-width: 0.8"/>
      </g>
     </g>
     <g id="text_11">
      <!-- 油气开采 -->
      <g style="fill: #ffffff" transform="translate(31.2 378.88641) scale(0.12 -0.12)">
       <defs>
        <path id="SimHei-6c14" d="M 6150 500 
Q 5800 -525 5450 -587 
Q 5100 -650 4850 -250 
Q 4600 150 4500 662 
Q 4400 1175 4450 2150 
L 1700 2150 
Q 1300 2150 850 2125 
L 850 2575 
Q 1300 2550 1700 2550 
L 4975 2550 
Q 4925 1775 4937 1350 
Q 4950 925 5062 587 
Q 5175 250 5312 75 
Q 5450 -100 5675 875 
Q 5950 550 6150 500 
z
M 2300 5050 
Q 2150 4825 1975 4550 
L 4725 4550 
Q 5175 4550 5575 4575 
L 5575 4125 
Q 5175 4150 4725 4150 
L 1775 4150 
Q 1650 3900 1387 3512 
Q 1125 3125 875 2850 
Q 675 3050 375 3125 
Q 700 3400 1125 4062 
Q 1550 4725 1725 5275 
Q 2000 5150 2300 5050 
z
M 4300 3575 
Q 4700 3575 5100 3600 
L 5100 3150 
Q 4700 3175 4300 3175 
L 2450 3175 
Q 2050 3175 1650 3150 
L 1650 3575 
Q 2050 3550 2450 3575 
L 4300 3575 
z
" transform="scale(0.015625)"/>
        <path id="SimHei-5f00" d="M 2200 4450 
Q 1450 4450 800 4425 
L 800 4925 
Q 1425 4900 1950 4900 
L 4650 4900 
Q 5150 4900 5725 4925 
L 5725 4425 
Q 5175 4450 4500 4450 
L 4500 2600 
L 4975 2600 
Q 5475 2600 6050 2625 
L 6050 2125 
Q 5475 2175 4975 2175 
L 4500 2175 
L 4500 825 
Q 4500 200 4525 -575 
L 3950 -575 
Q 3975 200 3975 825 
L 3975 2175 
L 2725 2175 
Q 2650 1700 2525 1287 
Q 2400 875 2125 450 
Q 1850 25 1100 -575 
Q 900 -350 500 -150 
Q 1000 50 1362 412 
Q 1725 775 1937 1262 
Q 2150 1750 2175 2175 
L 1600 2175 
Q 950 2175 350 2100 
L 350 2625 
Q 975 2600 1600 2600 
L 2200 2600 
L 2200 4450 
z
M 3975 2600 
L 3975 4450 
L 2725 4450 
L 2725 2600 
L 3975 2600 
z
" transform="scale(0.015625)"/>
        <path id="SimHei-91c7" d="M 2900 2250 
Q 2900 2475 2875 2925 
L 3400 2925 
Q 3375 2525 3375 2250 
L 5175 2250 
Q 5550 2250 6075 2275 
L 6075 1775 
Q 5550 1800 5200 1800 
L 3900 1800 
Q 4300 1125 4887 750 
Q 5475 375 6125 200 
Q 5800 0 5650 -350 
Q 4950 -75 4362 450 
Q 3775 975 3400 1750 
L 3375 1750 
L 3375 400 
Q 3375 -25 3400 -625 
L 2825 -625 
Q 2875 0 2875 400 
L 2875 1600 
Q 2500 1025 1950 525 
Q 1400 25 650 -400 
Q 475 -150 200 25 
Q 850 300 1437 775 
Q 2025 1250 2375 1800 
Q 750 1800 300 1775 
L 300 2275 
Q 825 2250 2900 2250 
z
M 5575 4525 
Q 4975 4525 3587 4387 
Q 2200 4250 850 4125 
Q 775 4450 625 4650 
Q 1200 4625 2775 4750 
Q 4350 4875 5250 5150 
Q 5375 4800 5575 4525 
z
M 5475 4025 
Q 5200 3700 5000 3400 
Q 4800 3100 4550 2700 
Q 4375 2850 4100 3000 
Q 4475 3475 4975 4350 
Q 5250 4150 5475 4025 
z
M 1375 4025 
Q 1950 3275 2075 2925 
Q 1875 2825 1600 2650 
Q 1400 3150 925 3750 
Q 1125 3850 1375 4025 
z
M 3000 4250 
Q 3425 3450 3500 3175 
Q 3225 3075 3025 2950 
Q 2900 3400 2550 4025 
Q 2775 4100 3000 4250 
z
" transform="scale(0.015625)"/>
       </defs>
       <use xlink:href="#SimHei-6cb9"/>
       <use xlink:href="#SimHei-6c14" transform="translate(100 0)"/>
       <use xlink:href="#SimHei-5f00" transform="translate(200 0)"/>
       <use xlink:href="#SimHei-91c7" transform="translate(300 0)"/>
      </g>
     </g>
    </g>
    <g id="ytick_4">
     <g id="line2d_21">
      <path d="M 82.7 318.521407 
L 542.494356 318.521407 
" clip-path="url(#pdf7742c849)" style="fill: none; stroke-dasharray: 2.96,1.28; stroke-dashoffset: 0; stroke: #ffffff; stroke-opacity: 0.25; stroke-width: 0.8"/>
     </g>
     <g id="line2d_22">
      <g>
       <use xlink:href="#m7591d8f540" x="82.7" y="318.521407" style="fill: #ffffff; stroke: #ffffff; stroke-width: 0.8"/>
      </g>
     </g>
     <g id="text_12">
      <!-- 煤化工 -->
      <g style="fill: #ffffff" transform="translate(43.2 323.255782) scale(0.12 -0.12)">
       <defs>
        <path id="SimHei-7164" d="M 4850 4575 
Q 4850 4925 4825 5175 
L 5375 5175 
Q 5325 5000 5325 4575 
Q 5725 4575 5975 4600 
L 5975 4175 
Q 5750 4200 5325 4200 
L 5325 3200 
Q 5325 2725 5375 2325 
L 4300 2325 
L 4300 1850 
L 5125 1850 
Q 5650 1850 6025 1875 
L 6025 1425 
Q 5650 1450 5125 1450 
L 4700 1450 
Q 4950 975 5362 612 
Q 5775 250 6175 75 
Q 5900 -150 5775 -400 
Q 5175 0 4850 400 
Q 4525 800 4300 1350 
L 4300 375 
Q 4300 -225 4325 -675 
L 3775 -675 
Q 3825 -225 3825 375 
L 3825 1250 
Q 3650 775 3237 312 
Q 2825 -150 2350 -475 
Q 2250 -225 2000 50 
Q 2375 225 2800 600 
Q 3225 975 3450 1450 
L 3100 1450 
Q 2650 1450 2275 1425 
L 2275 1875 
Q 2650 1850 3100 1850 
L 3825 1850 
L 3825 2325 
L 2825 2325 
Q 2850 2725 2850 3225 
L 2850 4200 
Q 2575 4200 2250 4175 
L 2250 4600 
Q 2550 4575 2850 4575 
Q 2850 4875 2825 5175 
L 3350 5175 
Q 3325 4900 3325 4575 
L 4850 4575 
z
M 2650 3250 
Q 2350 3075 1750 2625 
Q 1700 1975 1675 1675 
Q 2225 1175 2625 750 
Q 2450 575 2225 300 
Q 1975 750 1575 1175 
Q 1400 600 1187 187 
Q 975 -225 725 -575 
Q 525 -375 225 -225 
Q 600 150 825 612 
Q 1050 1075 1162 1700 
Q 1275 2325 1287 3150 
Q 1300 3975 1275 5125 
Q 1550 5075 1825 5050 
Q 1775 4700 1762 4150 
Q 1750 3600 1750 3150 
Q 2050 3375 2300 3700 
Q 2475 3450 2650 3250 
z
M 4875 3650 
L 4875 4200 
L 3325 4200 
L 3325 3650 
L 4875 3650 
z
M 4875 2725 
L 4875 3275 
L 3325 3275 
L 3325 2725 
L 4875 2725 
z
M 1050 3575 
Q 875 2325 825 1900 
Q 575 1950 275 1975 
Q 425 2375 525 3625 
Q 825 3625 1050 3575 
z
" transform="scale(0.015625)"/>
        <path id="SimHei-5316" d="M 3925 5025 
Q 3900 4900 3900 4400 
L 3900 2625 
Q 4375 3025 4775 3450 
Q 5175 3875 5400 4300 
Q 5600 4100 5900 3925 
Q 5700 3700 5225 3212 
Q 4750 2725 4487 2512 
Q 4225 2300 3900 2025 
L 3900 450 
Q 3900 50 4225 50 
L 5200 50 
Q 5400 75 5462 262 
Q 5525 450 5575 850 
Q 5800 650 6150 600 
Q 6000 -100 5825 -250 
Q 5650 -400 5350 -400 
L 3950 -400 
Q 3425 -400 3400 200 
L 3400 1675 
Q 3225 1525 2962 1350 
Q 2700 1175 2375 975 
Q 2225 1225 2025 1400 
Q 2350 1550 2737 1787 
Q 3125 2025 3400 2250 
L 3400 4500 
Q 3400 4800 3375 5025 
L 3925 5025 
z
M 2400 4850 
Q 2175 4550 2075 4337 
Q 1975 4125 1825 3775 
L 1825 675 
Q 1825 -75 1850 -550 
L 1325 -550 
Q 1350 -125 1350 650 
L 1350 3050 
Q 1125 2725 962 2525 
Q 800 2325 675 2175 
Q 500 2375 275 2525 
Q 625 2850 875 3212 
Q 1125 3575 1312 3912 
Q 1500 4250 1625 4575 
Q 1750 4900 1825 5100 
Q 1975 4975 2400 4850 
z
" transform="scale(0.015625)"/>
        <path id="SimHei-5de5" d="M 4475 4675 
Q 5075 4675 5575 4700 
L 5575 4200 
Q 5075 4225 4475 4225 
L 3450 4225 
L 3450 275 
L 5075 275 
Q 5650 275 6125 300 
L 6125 -200 
Q 5650 -175 5100 -175 
L 1225 -175 
Q 675 -175 275 -200 
L 275 300 
Q 700 275 1250 275 
L 2900 275 
L 2900 4225 
L 1900 4225 
Q 1250 4225 775 4200 
L 775 4700 
Q 1250 4675 1900 4675 
L 4475 4675 
z
" transform="scale(0.015625)"/>
       </defs>
       <use xlink:href="#SimHei-7164"/>
       <use xlink:href="#SimHei-5316" transform="translate(100 0)"/>
       <use xlink:href="#SimHei-5de5" transform="translate(200 0)"/>
      </g>
     </g>
    </g>
    <g id="ytick_5">
     <g id="line2d_23">
      <path d="M 82.7 262.961093 
L 542.494356 262.961093 
" clip-path="url(#pdf7742c849)" style="fill: none; stroke-dasharray: 2.96,1.28; stroke-dashoffset: 0; stroke: #ffffff; stroke-opacity: 0.25; stroke-width: 0.8"/>
     </g>
     <g id="line2d_24">
      <g>
       <use xlink:href="#m7591d8f540" x="82.7" y="262.961093" style="fill: #ffffff; stroke: #ffffff; stroke-width: 0.8"/>
      </g>
     </g>
     <g id="text_13">
      <!-- 炼焦煤 -->
      <g style="fill: #ffffff" transform="translate(43.2 267.812655) scale(0.12 -0.12)">
       <defs>
        <path id="SimHei-70bc" d="M 4400 5025 
Q 4175 4600 4075 4225 
L 5075 4225 
Q 5400 4225 5850 4250 
L 5850 3825 
Q 5400 3850 5075 3850 
L 3975 3850 
Q 3875 3600 3700 3150 
L 4700 3150 
Q 4675 2725 4675 1950 
Q 5475 1975 5850 1975 
L 5850 1525 
Q 5475 1550 4675 1550 
L 4675 -75 
Q 4650 -400 4475 -500 
Q 4300 -600 3800 -675 
Q 3775 -425 3575 -125 
Q 4000 -150 4112 -75 
Q 4225 0 4225 150 
L 4225 1550 
L 3300 1550 
Q 3000 1550 2700 1475 
L 2525 1925 
Q 2700 2025 2812 2200 
Q 2925 2375 3075 2725 
Q 2850 2725 2450 2700 
L 2450 3175 
Q 3000 3150 3250 3150 
L 3500 3850 
Q 2975 3850 2450 3825 
L 2450 4250 
Q 2975 4225 3600 4225 
Q 3750 4675 3875 5200 
Q 4100 5100 4400 5025 
z
M 1750 5050 
Q 1675 4750 1675 4200 
L 1675 3275 
Q 1925 3625 2100 3975 
Q 2300 3800 2500 3700 
Q 2100 3200 1675 2700 
Q 1625 1950 1575 1625 
Q 2225 1100 2625 675 
Q 2400 500 2250 325 
Q 1950 750 1500 1175 
Q 1325 625 1125 212 
Q 925 -200 625 -625 
Q 425 -425 225 -325 
Q 625 175 825 650 
Q 1025 1125 1125 1750 
Q 1225 2375 1237 3212 
Q 1250 4050 1200 5150 
Q 1525 5075 1750 5050 
z
M 3675 800 
Q 3525 675 2375 -525 
L 2025 -175 
Q 2525 200 3275 1150 
Q 3475 950 3675 800 
z
M 925 3750 
Q 850 2475 800 2025 
Q 550 2050 300 2050 
Q 425 2625 450 3775 
Q 675 3775 925 3750 
z
M 5250 1225 
Q 6000 325 6225 -50 
Q 6000 -175 5800 -350 
Q 5575 75 4900 950 
Q 5125 1075 5250 1225 
z
M 4225 1950 
L 4225 2725 
L 3550 2725 
Q 3250 2125 3175 1950 
L 4225 1950 
z
" transform="scale(0.015625)"/>
        <path id="SimHei-7126" d="M 2375 4900 
Q 2125 4625 1975 4300 
L 5075 4300 
Q 5400 4300 5900 4325 
L 5900 3850 
Q 5400 3875 5075 3875 
L 3875 3875 
L 3875 3300 
L 4700 3300 
Q 5200 3300 5600 3325 
L 5600 2875 
Q 5200 2900 4700 2900 
L 3875 2900 
L 3875 2325 
L 4750 2325 
Q 5150 2325 5600 2350 
L 5600 1900 
Q 5150 1925 4750 1925 
L 3875 1925 
L 3875 1400 
L 5025 1400 
Q 5500 1400 5950 1425 
L 5950 950 
Q 5500 1000 5050 1000 
L 1750 1000 
L 1750 675 
L 1200 675 
Q 1225 1250 1225 1700 
L 1225 3075 
Q 925 2625 600 2275 
Q 400 2525 200 2675 
Q 800 3225 1225 3950 
Q 1650 4675 1800 5200 
Q 2100 5025 2375 4900 
z
M 3350 2325 
L 3350 2900 
L 1750 2900 
L 1750 2325 
L 3350 2325 
z
M 3350 3300 
L 3350 3875 
L 1750 3875 
L 1750 3300 
L 3350 3300 
z
M 3350 1400 
L 3350 1925 
L 1750 1925 
L 1750 1400 
L 3350 1400 
z
M 350 -500 
Q 775 -25 975 525 
Q 1225 450 1500 375 
Q 1250 -25 925 -700 
Q 700 -575 350 -500 
z
M 3000 -525 
Q 2675 -575 2450 -650 
Q 2375 -175 2225 375 
Q 2450 425 2775 525 
L 3000 -525 
z
M 5675 -575 
Q 5500 -225 5125 425 
Q 5350 525 5550 700 
Q 5850 150 6175 -250 
Q 5850 -400 5675 -575 
z
M 4175 600 
Q 4425 -100 4525 -425 
Q 4225 -500 4000 -575 
Q 3900 -150 3650 450 
Q 3950 525 4175 600 
z
M 3600 5275 
Q 3800 5025 4175 4625 
Q 3925 4525 3700 4350 
Q 3500 4650 3200 5025 
Q 3400 5125 3600 5275 
z
" transform="scale(0.015625)"/>
       </defs>
       <use xlink:href="#SimHei-70bc"/>
       <use xlink:href="#SimHei-7126" transform="translate(100 0)"/>
       <use xlink:href="#SimHei-7164" transform="translate(200 0)"/>
      </g>
     </g>
    </g>
    <g id="ytick_6">
     <g id="line2d_25">
      <path d="M 82.7 207.400778 
L 542.494356 207.400778 
" clip-path="url(#pdf7742c849)" style="fill: none; stroke-dasharray: 2.96,1.28; stroke-dashoffset: 0; stroke: #ffffff; stroke-opacity: 0.25; stroke-width: 0.8"/>
     </g>
     <g id="line2d_26">
      <g>
       <use xlink:href="#m7591d8f540" x="82.7" y="207.400778" style="fill: #ffffff; stroke: #ffffff; stroke-width: 0.8"/>
      </g>
     </g>
     <g id="text_14">
      <!-- 其他能源发电 -->
      <g style="fill: #ffffff" transform="translate(7.2 212.182028) scale(0.12 -0.12)">
       <defs>
        <path id="SimHei-5176" d="M 4725 1375 
Q 5550 1375 6025 1400 
L 6025 1000 
Q 5575 1025 5250 1025 
L 1225 1025 
Q 675 1025 325 1000 
L 325 1400 
Q 525 1375 1650 1375 
L 1650 3950 
Q 1050 3950 675 3925 
L 675 4350 
Q 875 4325 1650 4325 
Q 1650 4875 1625 5125 
L 2225 5125 
Q 2175 4850 2175 4325 
L 4200 4325 
Q 4200 4775 4175 5100 
L 4750 5100 
Q 4725 4775 4725 4325 
Q 5275 4325 5675 4350 
L 5675 3925 
Q 5250 3950 4725 3950 
L 4725 1375 
z
M 4200 1375 
L 4200 2000 
L 2175 2000 
L 2175 1375 
L 4200 1375 
z
M 4200 2375 
L 4200 3000 
L 2175 3000 
L 2175 2375 
L 4200 2375 
z
M 4200 3350 
L 4200 3950 
L 2175 3950 
L 2175 3350 
L 4200 3350 
z
M 4175 875 
Q 5200 225 5750 -225 
Q 5500 -400 5325 -625 
Q 5025 -250 3825 500 
Q 4075 700 4175 875 
z
M 525 -275 
Q 800 -125 1275 212 
Q 1750 550 2075 875 
Q 2275 675 2475 500 
Q 2200 300 900 -650 
Q 750 -425 525 -275 
z
" transform="scale(0.015625)"/>
        <path id="SimHei-4ed6" d="M 2500 2875 
Q 2500 3850 2475 4225 
L 3000 4225 
Q 2975 3900 2975 3025 
L 3775 3275 
L 3775 4300 
Q 3775 4800 3725 5150 
L 4250 5150 
Q 4225 4800 4225 4275 
L 4225 3450 
L 5575 3925 
Q 5550 2600 5550 2075 
Q 5550 1550 5275 1425 
Q 5000 1300 4575 1225 
Q 4525 1475 4375 1750 
Q 4850 1750 4950 1787 
Q 5050 1825 5050 2025 
L 5075 3275 
L 4225 2975 
L 4225 1375 
Q 4225 950 4250 650 
L 3750 650 
Q 3775 950 3775 1375 
L 3775 2850 
L 2975 2575 
L 2975 425 
Q 2975 75 3325 100 
L 5100 100 
Q 5300 100 5400 212 
Q 5500 325 5550 925 
Q 5850 700 6125 650 
Q 5950 0 5750 -175 
Q 5550 -350 5175 -325 
L 3225 -325 
Q 2550 -350 2500 275 
L 2500 2425 
Q 2125 2300 1900 2175 
L 1700 2650 
Q 2025 2700 2500 2875 
z
M 2250 4925 
Q 2025 4625 1650 3775 
L 1650 475 
Q 1650 -150 1700 -575 
L 1175 -575 
Q 1200 -150 1200 475 
L 1200 2925 
Q 875 2325 700 2050 
Q 525 2275 300 2400 
Q 625 2750 1062 3637 
Q 1500 4525 1650 5175 
Q 2050 5000 2250 4925 
z
" transform="scale(0.015625)"/>
        <path id="SimHei-80fd" d="M 2025 -150 
Q 2475 -150 2525 -62 
Q 2575 25 2575 200 
L 2575 550 
L 1225 550 
L 1225 -625 
L 750 -625 
Q 775 -125 775 275 
L 775 1950 
Q 775 2400 750 2750 
L 3050 2750 
Q 3025 2375 3025 1925 
L 3025 -175 
Q 3000 -450 2800 -525 
Q 2600 -600 2225 -650 
Q 2175 -425 2025 -150 
z
M 5800 1625 
Q 5700 1600 5212 1375 
Q 4725 1150 4100 950 
L 4100 250 
Q 4100 -50 4375 -50 
L 5275 -50 
Q 5475 0 5550 575 
Q 5750 475 6050 375 
Q 5875 -425 5475 -425 
L 4125 -425 
Q 3650 -425 3650 50 
L 3650 1675 
Q 3650 2050 3625 2350 
L 4125 2350 
Q 4100 2050 4100 1700 
L 4100 1375 
Q 4350 1450 4762 1650 
Q 5175 1850 5425 2075 
Q 5650 1775 5800 1625 
z
M 4100 4100 
Q 4450 4250 4775 4412 
Q 5100 4575 5425 4825 
Q 5625 4575 5775 4400 
Q 5625 4350 5137 4112 
Q 4650 3875 4100 3700 
L 4100 3325 
Q 4100 3025 4450 3025 
L 5175 3025 
Q 5425 3025 5500 3675 
Q 5750 3550 6000 3450 
Q 5825 2650 5375 2650 
L 4250 2650 
Q 3650 2650 3650 3200 
L 3650 4475 
Q 3650 4775 3625 5125 
L 4125 5125 
Q 4100 4950 4100 4400 
L 4100 4100 
z
M 3025 3075 
Q 2950 3200 2825 3350 
Q 2000 3300 1450 3250 
Q 900 3200 625 3125 
Q 550 3425 450 3650 
Q 625 3725 987 4187 
Q 1350 4650 1575 5175 
Q 1700 5075 1850 5025 
Q 2000 4975 2175 4900 
Q 1975 4750 1762 4450 
Q 1550 4150 1075 3600 
Q 2125 3650 2625 3675 
Q 2325 4075 2200 4200 
Q 2375 4300 2600 4475 
Q 2800 4200 2987 3975 
Q 3175 3750 3475 3400 
Q 3200 3200 3025 3075 
z
M 2575 950 
L 2575 1475 
L 1225 1475 
L 1225 950 
L 2575 950 
z
M 2575 1875 
L 2575 2350 
L 1225 2350 
L 1225 1875 
L 2575 1875 
z
" transform="scale(0.015625)"/>
        <path id="SimHei-6e90" d="M 4475 4300 
Q 4350 4100 4225 3800 
L 5650 3800 
Q 5625 3425 5625 3050 
L 5625 2425 
Q 5625 2150 5650 1650 
L 4575 1650 
L 4575 -25 
Q 4575 -325 4387 -487 
Q 4200 -650 3800 -700 
Q 3725 -425 3575 -150 
Q 4100 -225 4100 100 
L 4100 1650 
L 3050 1650 
Q 3075 2050 3075 2400 
L 3075 3075 
Q 3075 3400 3050 3800 
L 3725 3800 
Q 3825 4025 3925 4425 
Q 4175 4350 4475 4300 
z
M 1200 -175 
Q 1550 150 1725 537 
Q 1900 925 1987 1450 
Q 2075 1975 2087 2537 
Q 2100 3100 2100 3750 
Q 2100 4425 2075 4975 
L 4925 4975 
Q 5500 4975 6025 5000 
L 6025 4525 
Q 5500 4550 4925 4550 
L 2575 4550 
L 2575 2875 
Q 2575 2275 2537 1787 
Q 2500 1300 2362 837 
Q 2225 375 2050 37 
Q 1875 -300 1625 -625 
Q 1500 -375 1200 -175 
z
M 1550 1775 
Q 1375 1275 1150 575 
Q 925 -125 825 -450 
Q 600 -275 250 -125 
Q 400 75 650 687 
Q 900 1300 1075 2100 
Q 1325 1900 1550 1775 
z
M 5150 2900 
L 5150 3400 
L 3550 3400 
L 3550 2900 
L 5150 2900 
z
M 2275 -100 
Q 2475 100 2700 412 
Q 2925 725 3150 1150 
Q 3325 975 3650 825 
Q 3400 600 3200 287 
Q 3000 -25 2700 -400 
Q 2475 -225 2275 -100 
z
M 5150 2050 
L 5150 2500 
L 3550 2500 
L 3550 2050 
L 5150 2050 
z
M 5300 1125 
Q 6000 350 6175 100 
Q 5950 -75 5775 -250 
Q 5575 25 5400 262 
Q 5225 500 4925 825 
Q 5100 950 5300 1125 
z
M 1325 2575 
Q 1125 2775 850 2925 
L 300 3225 
Q 400 3400 525 3625 
Q 750 3500 1062 3337 
Q 1375 3175 1625 3025 
L 1325 2575 
z
M 1425 3975 
Q 975 4475 550 4775 
Q 700 4950 875 5125 
Q 1550 4600 1775 4350 
Q 1600 4175 1425 3975 
z
" transform="scale(0.015625)"/>
        <path id="SimHei-53d1" d="M 3475 4925 
Q 3350 4650 3275 4362 
Q 3200 4075 3075 3575 
L 5075 3575 
Q 5325 3575 5825 3600 
L 5825 3125 
Q 5325 3150 5075 3150 
L 2975 3150 
Q 2825 2775 2650 2400 
L 5300 2400 
Q 4825 1250 3975 475 
Q 4650 0 5950 -150 
Q 5775 -350 5650 -650 
Q 5150 -550 4625 -362 
Q 4100 -175 3600 175 
Q 3200 -75 2625 -312 
Q 2050 -550 1450 -700 
Q 1400 -450 1200 -225 
Q 1750 -150 2300 37 
Q 2850 225 3275 500 
Q 2850 925 2325 1725 
Q 2050 1275 1625 850 
Q 1200 425 700 75 
Q 600 250 300 450 
Q 675 650 1037 975 
Q 1400 1300 1800 1837 
Q 2200 2375 2475 3150 
Q 1825 3150 1475 3125 
Q 1125 3100 950 3025 
Q 875 3250 750 3500 
Q 1000 3550 1112 3875 
Q 1225 4200 1350 4875 
Q 1550 4775 1900 4675 
Q 1775 4425 1675 4162 
Q 1575 3900 1450 3575 
L 2600 3575 
Q 2800 4375 2900 5100 
Q 3175 4950 3475 4925 
z
M 2675 2000 
Q 3025 1375 3650 750 
Q 4200 1200 4625 2000 
L 2675 2000 
z
M 4400 5075 
Q 4825 4600 5250 4100 
Q 5075 4000 4825 3775 
Q 4425 4350 4050 4750 
Q 4225 4875 4400 5075 
z
" transform="scale(0.015625)"/>
        <path id="SimHei-7535" d="M 6150 325 
Q 5975 -250 5825 -412 
Q 5675 -575 5325 -575 
L 3375 -575 
Q 2700 -600 2675 100 
L 2675 975 
L 1225 975 
L 1225 500 
L 650 500 
Q 675 750 675 2225 
Q 675 3700 650 4150 
L 2675 4150 
Q 2675 4825 2650 5200 
L 3200 5200 
Q 3175 4875 3175 4150 
L 5200 4150 
Q 5175 3775 5175 2600 
Q 5175 1450 5200 975 
L 3175 975 
L 3175 300 
Q 3175 -150 3650 -150 
L 4975 -150 
Q 5375 -150 5450 25 
Q 5525 200 5575 575 
Q 5825 400 6150 325 
z
M 4675 1400 
L 4675 2400 
L 3175 2400 
L 3175 1400 
L 4675 1400 
z
M 2675 1400 
L 2675 2400 
L 1225 2400 
L 1225 1400 
L 2675 1400 
z
M 4675 2800 
L 4675 3725 
L 3175 3725 
L 3175 2800 
L 4675 2800 
z
M 2675 2800 
L 2675 3725 
L 1225 3725 
L 1225 2800 
L 2675 2800 
z
" transform="scale(0.015625)"/>
       </defs>
       <use xlink:href="#SimHei-5176"/>
       <use xlink:href="#SimHei-4ed6" transform="translate(100 0)"/>
       <use xlink:href="#SimHei-80fd" transform="translate(200 0)"/>
       <use xlink:href="#SimHei-6e90" transform="translate(300 0)"/>
       <use xlink:href="#SimHei-53d1" transform="translate(400 0)"/>
       <use xlink:href="#SimHei-7535" transform="translate(500 0)"/>
      </g>
     </g>
    </g>
    <g id="ytick_7">
     <g id="line2d_27">
      <path d="M 82.7 151.840463 
L 542.494356 151.840463 
" clip-path="url(#pdf7742c849)" style="fill: none; stroke-dasharray: 2.96,1.28; stroke-dashoffset: 0; stroke: #ffffff; stroke-opacity: 0.25; stroke-width: 0.8"/>
     </g>
     <g id="line2d_28">
      <g>
       <use xlink:href="#m7591d8f540" x="82.7" y="151.840463" style="fill: #ffffff; stroke: #ffffff; stroke-width: 0.8"/>
      </g>
     </g>
     <g id="text_15">
      <!-- 油气工程 -->
      <g style="fill: #ffffff" transform="translate(31.2 156.668588) scale(0.12 -0.12)">
       <defs>
        <path id="SimHei-7a0b" d="M 5825 4975 
Q 5800 4425 5800 3975 
Q 5800 3550 5825 3125 
L 3025 3125 
Q 3050 3600 3050 4025 
Q 3050 4450 3025 4975 
L 5825 4975 
z
M 400 4825 
Q 825 4875 1362 4987 
Q 1900 5100 2275 5275 
Q 2450 4950 2625 4725 
Q 2450 4750 2262 4712 
Q 2075 4675 1850 4650 
L 1850 3425 
Q 2200 3425 2600 3450 
L 2600 2975 
Q 2200 3000 1850 3000 
L 1850 800 
Q 1850 250 1875 -675 
L 1375 -675 
Q 1400 250 1400 775 
L 1400 1925 
Q 1050 1225 625 600 
Q 450 850 225 1050 
Q 575 1400 850 1850 
Q 1125 2300 1350 3000 
Q 725 3000 425 2975 
L 425 3450 
Q 850 3425 1050 3425 
L 1400 3425 
L 1400 4550 
Q 1075 4475 575 4400 
Q 500 4625 400 4825 
z
M 5100 2500 
Q 5500 2500 5950 2525 
L 5950 2075 
Q 5500 2100 5100 2100 
L 4625 2100 
L 4625 1300 
L 4900 1300 
Q 5275 1300 5775 1325 
L 5775 850 
Q 5275 875 4975 875 
L 4625 875 
L 4625 0 
L 5225 0 
Q 5675 0 6175 25 
L 6175 -450 
Q 5775 -425 5225 -425 
L 3550 -425 
Q 3000 -425 2600 -475 
L 2600 25 
Q 3000 0 3550 0 
L 4150 0 
L 4150 875 
L 3800 875 
Q 3400 875 3050 825 
L 3050 1325 
Q 3400 1300 3800 1300 
L 4150 1300 
L 4150 2100 
L 3750 2100 
Q 3300 2100 2900 2075 
L 2900 2525 
Q 3300 2500 3750 2500 
L 5100 2500 
z
M 5275 3575 
L 5275 4550 
L 3500 4550 
L 3500 3575 
L 5275 3575 
z
M 2300 2400 
Q 2550 2025 2825 1525 
Q 2675 1425 2425 1225 
Q 2175 1775 1925 2125 
Q 2075 2250 2300 2400 
z
" transform="scale(0.015625)"/>
       </defs>
       <use xlink:href="#SimHei-6cb9"/>
       <use xlink:href="#SimHei-6c14" transform="translate(100 0)"/>
       <use xlink:href="#SimHei-5de5" transform="translate(200 0)"/>
       <use xlink:href="#SimHei-7a0b" transform="translate(300 0)"/>
      </g>
     </g>
    </g>
    <g id="ytick_8">
     <g id="line2d_29">
      <path d="M 82.7 96.280149 
L 542.494356 96.280149 
" clip-path="url(#pdf7742c849)" style="fill: none; stroke-dasharray: 2.96,1.28; stroke-dashoffset: 0; stroke: #ffffff; stroke-opacity: 0.25; stroke-width: 0.8"/>
     </g>
     <g id="line2d_30">
      <g>
       <use xlink:href="#m7591d8f540" x="82.7" y="96.280149" style="fill: #ffffff; stroke: #ffffff; stroke-width: 0.8"/>
      </g>
     </g>
     <g id="text_16">
      <!-- 焦炭加工 -->
      <g style="fill: #ffffff" transform="translate(31.2 101.131711) scale(0.12 -0.12)">
       <defs>
        <path id="SimHei-70ad" d="M 2475 3425 
Q 2375 3300 2325 3125 
L 4975 3125 
Q 5525 3125 6075 3150 
L 6075 2650 
Q 5550 2700 4975 2700 
L 2250 2700 
Q 2075 1725 1700 1187 
Q 1325 650 650 50 
Q 500 250 225 375 
Q 700 700 1162 1287 
Q 1625 1875 1775 2700 
Q 950 2700 550 2650 
L 550 3150 
Q 975 3125 1825 3125 
Q 1850 3325 1850 3575 
Q 2175 3475 2475 3425 
z
M 1475 4900 
Q 1425 4475 1425 4100 
L 3025 4100 
Q 3025 4900 3000 5250 
L 3550 5250 
Q 3525 4800 3525 4100 
L 5100 4100 
Q 5100 4625 5075 4875 
L 5625 4875 
Q 5575 4250 5600 3650 
L 925 3650 
Q 950 4325 925 4900 
L 1475 4900 
z
M 3975 2375 
Q 3850 1875 3937 1462 
Q 4025 1050 4362 725 
Q 4700 400 5162 187 
Q 5625 -25 6100 -125 
Q 5875 -300 5750 -625 
Q 5075 -425 4537 -75 
Q 4000 275 3675 925 
Q 3475 475 2987 50 
Q 2500 -375 1825 -700 
Q 1700 -450 1450 -300 
Q 2175 -50 2600 287 
Q 3025 625 3187 1012 
Q 3350 1400 3387 1737 
Q 3425 2075 3425 2450 
Q 3700 2375 3975 2375 
z
M 3000 1925 
Q 2875 1775 2500 750 
Q 2300 875 2025 925 
Q 2350 1625 2500 2100 
Q 2725 2000 3000 1925 
z
M 5475 1825 
Q 5275 1475 5000 850 
Q 4775 950 4550 1000 
Q 4925 1700 5000 1975 
Q 5275 1900 5475 1825 
z
" transform="scale(0.015625)"/>
        <path id="SimHei-52a0" d="M 5700 4150 
Q 5675 3625 5675 3100 
L 5675 900 
Q 5675 300 5700 -350 
L 5225 -350 
L 5225 225 
L 4150 225 
L 4150 -475 
L 3675 -475 
Q 3700 25 3700 550 
L 3700 3100 
Q 3700 3600 3675 4150 
L 5700 4150 
z
M 3125 225 
Q 3050 -250 2725 -337 
Q 2400 -425 2025 -450 
Q 2025 -225 1875 125 
Q 2300 100 2475 137 
Q 2650 175 2675 425 
L 2850 3425 
L 1975 3425 
Q 1925 2450 1812 1875 
Q 1700 1300 1562 875 
Q 1425 450 1187 37 
Q 950 -375 775 -600 
Q 600 -400 275 -250 
Q 750 225 987 787 
Q 1225 1350 1312 1837 
Q 1400 2325 1425 2637 
Q 1450 2950 1475 3425 
L 1125 3425 
Q 850 3425 550 3400 
L 550 3900 
Q 825 3850 1175 3850 
L 1500 3850 
Q 1525 4375 1525 4475 
Q 1525 4600 1500 5075 
Q 1775 5050 2125 5025 
Q 2075 4825 2050 4600 
Q 2025 4375 2000 3850 
L 3350 3850 
Q 3325 3650 3325 3425 
L 3125 225 
z
M 5225 725 
L 5225 3700 
L 4150 3700 
L 4150 725 
L 5225 725 
z
" transform="scale(0.015625)"/>
       </defs>
       <use xlink:href="#SimHei-7126"/>
       <use xlink:href="#SimHei-70ad" transform="translate(100 0)"/>
       <use xlink:href="#SimHei-52a0" transform="translate(200 0)"/>
       <use xlink:href="#SimHei-5de5" transform="translate(300 0)"/>
      </g>
     </g>
    </g>
   </g>
   <g id="line2d_31">
    <path d="M 82.7 529.095 
L 82.7 52.3875 
" clip-path="url(#pdf7742c849)" style="fill: none; stroke: #ffffff; stroke-linecap: square"/>
   </g>
   <g id="patch_11">
    <path d="M 82.7 529.095 
L 82.7 52.3875 
" style="fill: none; stroke: #ffffff; stroke-width: 0.8; stroke-linejoin: miter; stroke-linecap: square"/>
   </g>
   <g id="patch_12">
    <path d="M 82.7 529.095 
L 542.494356 529.095 
" style="fill: none; stroke: #ffffff; stroke-width: 0.8; stroke-linejoin: miter; stroke-linecap: square"/>
   </g>
   <g id="text_17">
    <!-- +6.4% (10只) -->
    <g style="fill: #ffffff" transform="translate(530.919137 488.067586) scale(0.09 -0.09)">
     <defs>
      <path id="SimHei-2b" d="M 3000 2125 
L 1775 2125 
L 1775 900 
L 1350 900 
L 1350 2125 
L 125 2125 
L 125 2525 
L 1350 2525 
L 1350 3750 
L 1775 3750 
L 1775 2525 
L 3000 2525 
L 3000 2125 
z
" transform="scale(0.015625)"/>
      <path id="SimHei-2e" d="M 1075 125 
L 500 125 
L 500 675 
L 1075 675 
L 1075 125 
z
" transform="scale(0.015625)"/>
      <path id="SimHei-28" d="M 2975 -200 
L 2700 -475 
Q 2075 125 1762 775 
Q 1450 1425 1450 2250 
Q 1450 3075 1762 3725 
Q 2075 4375 2700 5000 
L 2975 4725 
Q 2400 4175 2112 3587 
Q 1825 3000 1825 2250 
Q 1825 1500 2112 912 
Q 2400 325 2975 -200 
z
" transform="scale(0.015625)"/>
      <path id="SimHei-53ea" d="M 5150 4800 
Q 5125 4375 5125 3400 
Q 5125 2450 5150 1875 
L 1225 1875 
Q 1250 2325 1250 3300 
Q 1250 4275 1225 4800 
L 5150 4800 
z
M 4600 2325 
L 4600 4375 
L 1775 4375 
L 1775 2325 
L 4600 2325 
z
M 4175 1575 
Q 5400 300 5925 -200 
Q 5850 -250 5425 -600 
Q 4975 0 3750 1225 
Q 3975 1375 4175 1575 
z
M 2575 1200 
Q 2250 850 1775 337 
Q 1300 -175 800 -675 
Q 625 -500 375 -275 
Q 825 50 1300 562 
Q 1775 1075 2125 1600 
Q 2425 1375 2575 1200 
z
" transform="scale(0.015625)"/>
      <path id="SimHei-29" d="M 1675 2250 
Q 1675 1425 1362 775 
Q 1050 125 425 -475 
L 150 -200 
Q 725 325 1012 912 
Q 1300 1500 1300 2250 
Q 1300 3000 1012 3587 
Q 725 4175 150 4725 
L 425 5000 
Q 1050 4375 1362 3725 
Q 1675 3075 1675 2250 
z
" transform="scale(0.015625)"/>
     </defs>
     <use xlink:href="#SimHei-2b"/>
     <use xlink:href="#SimHei-36" transform="translate(50 0)"/>
     <use xlink:href="#SimHei-2e" transform="translate(100 0)"/>
     <use xlink:href="#SimHei-34" transform="translate(150 0)"/>
     <use xlink:href="#SimHei-25" transform="translate(200 0)"/>
     <use xlink:href="#SimHei-20" transform="translate(250 0)"/>
     <use xlink:href="#SimHei-28" transform="translate(300 0)"/>
     <use xlink:href="#SimHei-31" transform="translate(350 0)"/>
     <use xlink:href="#SimHei-30" transform="translate(400 0)"/>
     <use xlink:href="#SimHei-53ea" transform="translate(450 0)"/>
     <use xlink:href="#SimHei-29" transform="translate(550 0)"/>
    </g>
   </g>
   <g id="text_18">
    <!-- +4.2% (8只) -->
    <g style="fill: #ffffff" transform="translate(379.541742 432.507271) scale(0.09 -0.09)">
     <defs>
      <path id="SimHei-38" d="M 175 1375 
Q 175 1675 325 1962 
Q 475 2250 825 2425 
Q 525 2600 425 2812 
Q 325 3025 312 3300 
Q 300 3575 387 3775 
Q 475 3975 650 4150 
Q 825 4325 1037 4387 
Q 1250 4450 1500 4450 
Q 1750 4450 1950 4400 
Q 2150 4350 2375 4187 
Q 2600 4025 2700 3725 
Q 2800 3425 2687 3025 
Q 2575 2625 2100 2400 
Q 2525 2275 2700 2012 
Q 2875 1750 2875 1375 
Q 2875 1000 2762 775 
Q 2650 550 2512 400 
Q 2375 250 2137 162 
Q 1900 75 1537 75 
Q 1175 75 912 162 
Q 650 250 475 425 
Q 300 600 237 837 
Q 175 1075 175 1375 
z
M 687 1400 
Q 675 1100 787 875 
Q 900 650 1200 587 
Q 1500 525 1825 600 
Q 2150 675 2275 950 
Q 2400 1225 2362 1500 
Q 2325 1775 2050 1962 
Q 1775 2150 1450 2125 
Q 1125 2100 912 1900 
Q 700 1700 687 1400 
z
M 775 3350 
Q 775 3100 950 2875 
Q 1125 2650 1500 2650 
Q 1875 2650 2062 2875 
Q 2250 3100 2237 3412 
Q 2225 3725 2012 3875 
Q 1800 4025 1437 4000 
Q 1075 3975 925 3787 
Q 775 3600 775 3350 
z
" transform="scale(0.015625)"/>
     </defs>
     <use xlink:href="#SimHei-2b"/>
     <use xlink:href="#SimHei-34" transform="translate(50 0)"/>
     <use xlink:href="#SimHei-2e" transform="translate(100 0)"/>
     <use xlink:href="#SimHei-32" transform="translate(150 0)"/>
     <use xlink:href="#SimHei-25" transform="translate(200 0)"/>
     <use xlink:href="#SimHei-20" transform="translate(250 0)"/>
     <use xlink:href="#SimHei-28" transform="translate(300 0)"/>
     <use xlink:href="#SimHei-38" transform="translate(350 0)"/>
     <use xlink:href="#SimHei-53ea" transform="translate(400 0)"/>
     <use xlink:href="#SimHei-29" transform="translate(500 0)"/>
    </g>
   </g>
   <g id="text_19">
    <!-- +3.6% (6只) -->
    <g style="fill: #ffffff" transform="translate(341.944849 376.946956) scale(0.09 -0.09)">
     <use xlink:href="#SimHei-2b"/>
     <use xlink:href="#SimHei-33" transform="translate(50 0)"/>
     <use xlink:href="#SimHei-2e" transform="translate(100 0)"/>
     <use xlink:href="#SimHei-36" transform="translate(150 0)"/>
     <use xlink:href="#SimHei-25" transform="translate(200 0)"/>
     <use xlink:href="#SimHei-20" transform="translate(250 0)"/>
     <use xlink:href="#SimHei-28" transform="translate(300 0)"/>
     <use xlink:href="#SimHei-36" transform="translate(350 0)"/>
     <use xlink:href="#SimHei-53ea" transform="translate(400 0)"/>
     <use xlink:href="#SimHei-29" transform="translate(500 0)"/>
    </g>
   </g>
   <g id="text_20">
    <!-- +3.0% (9只) -->
    <g style="fill: #ffffff" transform="translate(300.50672 321.386642) scale(0.09 -0.09)">
     <defs>
      <path id="SimHei-39" d="M 800 75 
Q 1350 1000 1700 1750 
Q 1075 1650 662 1912 
Q 250 2175 162 2625 
Q 75 3075 175 3437 
Q 275 3800 487 4037 
Q 700 4275 1000 4375 
Q 1300 4475 1537 4475 
Q 1775 4475 2025 4375 
Q 2275 4275 2475 4075 
Q 2675 3875 2750 3662 
Q 2825 3450 2825 3112 
Q 2825 2775 2575 2250 
Q 2325 1725 1350 75 
L 800 75 
z
M 662 2875 
Q 700 2550 937 2337 
Q 1175 2125 1450 2150 
Q 1725 2175 1887 2300 
Q 2050 2425 2200 2725 
Q 2300 3100 2250 3362 
Q 2200 3625 1987 3800 
Q 1775 3975 1525 3975 
Q 1375 4000 1137 3900 
Q 900 3800 762 3500 
Q 625 3200 662 2875 
z
" transform="scale(0.015625)"/>
     </defs>
     <use xlink:href="#SimHei-2b"/>
     <use xlink:href="#SimHei-33" transform="translate(50 0)"/>
     <use xlink:href="#SimHei-2e" transform="translate(100 0)"/>
     <use xlink:href="#SimHei-30" transform="translate(150 0)"/>
     <use xlink:href="#SimHei-25" transform="translate(200 0)"/>
     <use xlink:href="#SimHei-20" transform="translate(250 0)"/>
     <use xlink:href="#SimHei-28" transform="translate(300 0)"/>
     <use xlink:href="#SimHei-39" transform="translate(350 0)"/>
     <use xlink:href="#SimHei-53ea" transform="translate(400 0)"/>
     <use xlink:href="#SimHei-29" transform="translate(500 0)"/>
    </g>
   </g>
   <g id="text_21">
    <!-- +3.0% (10只) -->
    <g style="fill: #ffffff" transform="translate(298.443196 265.826327) scale(0.09 -0.09)">
     <use xlink:href="#SimHei-2b"/>
     <use xlink:href="#SimHei-33" transform="translate(50 0)"/>
     <use xlink:href="#SimHei-2e" transform="translate(100 0)"/>
     <use xlink:href="#SimHei-30" transform="translate(150 0)"/>
     <use xlink:href="#SimHei-25" transform="translate(200 0)"/>
     <use xlink:href="#SimHei-20" transform="translate(250 0)"/>
     <use xlink:href="#SimHei-28" transform="translate(300 0)"/>
     <use xlink:href="#SimHei-31" transform="translate(350 0)"/>
     <use xlink:href="#SimHei-30" transform="translate(400 0)"/>
     <use xlink:href="#SimHei-53ea" transform="translate(450 0)"/>
     <use xlink:href="#SimHei-29" transform="translate(550 0)"/>
    </g>
   </g>
   <g id="text_22">
    <!-- +2.9% (11只) -->
    <g style="fill: #ffffff" transform="translate(293.772603 210.266012) scale(0.09 -0.09)">
     <use xlink:href="#SimHei-2b"/>
     <use xlink:href="#SimHei-32" transform="translate(50 0)"/>
     <use xlink:href="#SimHei-2e" transform="translate(100 0)"/>
     <use xlink:href="#SimHei-39" transform="translate(150 0)"/>
     <use xlink:href="#SimHei-25" transform="translate(200 0)"/>
     <use xlink:href="#SimHei-20" transform="translate(250 0)"/>
     <use xlink:href="#SimHei-28" transform="translate(300 0)"/>
     <use xlink:href="#SimHei-31" transform="translate(350 0)"/>
     <use xlink:href="#SimHei-31" transform="translate(400 0)"/>
     <use xlink:href="#SimHei-53ea" transform="translate(450 0)"/>
     <use xlink:href="#SimHei-29" transform="translate(550 0)"/>
    </g>
   </g>
   <g id="text_23">
    <!-- +2.9% (5只) -->
    <g style="fill: #ffffff" transform="translate(293.133855 154.705698) scale(0.09 -0.09)">
     <use xlink:href="#SimHei-2b"/>
     <use xlink:href="#SimHei-32" transform="translate(50 0)"/>
     <use xlink:href="#SimHei-2e" transform="translate(100 0)"/>
     <use xlink:href="#SimHei-39" transform="translate(150 0)"/>
     <use xlink:href="#SimHei-25" transform="translate(200 0)"/>
     <use xlink:href="#SimHei-20" transform="translate(250 0)"/>
     <use xlink:href="#SimHei-28" transform="translate(300 0)"/>
     <use xlink:href="#SimHei-35" transform="translate(350 0)"/>
     <use xlink:href="#SimHei-53ea" transform="translate(400 0)"/>
     <use xlink:href="#SimHei-29" transform="translate(500 0)"/>
    </g>
   </g>
   <g id="text_24">
    <!-- +2.9% (7只) -->
    <g style="fill: #ffffff" transform="translate(289.775346 99.145383) scale(0.09 -0.09)">
     <defs>
      <path id="SimHei-37" d="M 850 150 
Q 1300 2050 2425 3925 
L 275 3925 
L 275 4375 
L 2950 4375 
L 2950 3950 
Q 1775 2050 1400 150 
L 850 150 
z
" transform="scale(0.015625)"/>
     </defs>
     <use xlink:href="#SimHei-2b"/>
     <use xlink:href="#SimHei-32" transform="translate(50 0)"/>
     <use xlink:href="#SimHei-2e" transform="translate(100 0)"/>
     <use xlink:href="#SimHei-39" transform="translate(150 0)"/>
     <use xlink:href="#SimHei-25" transform="translate(200 0)"/>
     <use xlink:href="#SimHei-20" transform="translate(250 0)"/>
     <use xlink:href="#SimHei-28" transform="translate(300 0)"/>
     <use xlink:href="#SimHei-37" transform="translate(350 0)"/>
     <use xlink:href="#SimHei-53ea" transform="translate(400 0)"/>
     <use xlink:href="#SimHei-29" transform="translate(500 0)"/>
    </g>
   </g>
   <g id="text_25">
    <!-- 行业涨跌排行 (Top8) -->
    <g style="fill: #ffffff" transform="translate(250.847178 46.3875) scale(0.13 -0.13)">
     <defs>
      <path id="SimHei-884c" d="M 5300 3100 
Q 5775 3100 6175 3125 
L 6175 2625 
Q 5775 2650 5325 2650 
L 4975 2650 
L 4975 -75 
Q 5000 -375 4787 -487 
Q 4575 -600 3950 -675 
Q 3900 -375 3675 -75 
Q 4100 -125 4275 -112 
Q 4450 -100 4475 150 
L 4475 2650 
L 3475 2650 
Q 3000 2650 2575 2625 
L 2575 3125 
Q 3025 3100 3475 3100 
L 5300 3100 
z
M 2300 3400 
Q 2075 3275 1962 3075 
Q 1850 2875 1650 2575 
L 1650 325 
Q 1650 0 1675 -675 
L 1150 -675 
Q 1175 75 1175 450 
L 1175 2050 
Q 950 1675 575 1300 
Q 400 1550 250 1725 
Q 825 2275 1150 2775 
Q 1475 3275 1725 3725 
Q 1975 3575 2300 3400 
z
M 4875 4800 
Q 5300 4800 5750 4825 
L 5750 4350 
Q 5300 4375 4825 4375 
L 3900 4375 
Q 3350 4375 2950 4350 
L 2950 4825 
Q 3350 4800 3900 4800 
L 4875 4800 
z
M 2075 4925 
Q 1875 4900 1550 4387 
Q 1225 3875 650 3250 
Q 500 3450 325 3625 
Q 725 4025 1050 4487 
Q 1375 4950 1525 5300 
Q 1775 5150 2075 4925 
z
" transform="scale(0.015625)"/>
      <path id="SimHei-4e1a" d="M 2825 5025 
Q 2775 4325 2775 3825 
L 2775 150 
L 3600 150 
L 3600 4125 
Q 3600 4525 3550 5025 
L 4175 5025 
Q 4125 4625 4125 4175 
L 4125 150 
L 5100 150 
Q 5500 150 6075 200 
L 6075 -350 
Q 5500 -300 5125 -300 
L 1325 -300 
Q 975 -300 325 -350 
L 325 200 
Q 975 150 1300 150 
L 2225 150 
L 2225 3850 
Q 2225 4375 2150 5025 
L 2825 5025 
z
M 1025 3775 
Q 1325 3000 1850 1500 
Q 1575 1450 1275 1300 
Q 825 2750 475 3550 
Q 725 3650 1025 3775 
z
M 5850 3625 
Q 5525 2775 4950 1250 
Q 4700 1400 4425 1475 
Q 4950 2450 5225 3825 
Q 5500 3725 5850 3625 
z
" transform="scale(0.015625)"/>
      <path id="SimHei-6392" d="M 225 1825 
Q 675 1900 1150 2075 
L 1150 3425 
L 950 3425 
Q 650 3425 350 3400 
L 350 3850 
Q 600 3825 950 3825 
L 1150 3825 
L 1150 4500 
Q 1150 4850 1125 5175 
L 1675 5175 
Q 1625 4900 1625 4500 
L 1625 3825 
Q 2075 3825 2275 3850 
L 2275 3400 
Q 1875 3425 1625 3425 
L 1625 2225 
Q 1950 2325 2275 2500 
Q 2275 2200 2300 2050 
Q 2075 1975 1625 1800 
L 1625 -100 
Q 1600 -425 1412 -500 
Q 1225 -575 700 -650 
Q 600 -225 450 -75 
Q 875 -125 1000 -112 
Q 1125 -100 1150 75 
L 1150 1650 
Q 850 1550 450 1300 
Q 375 1525 225 1825 
z
M 5050 5125 
Q 5025 4800 5025 4300 
L 5025 4000 
Q 5700 4000 6100 4050 
L 6100 3575 
Q 5725 3600 5525 3600 
L 5025 3600 
L 5025 2625 
Q 5625 2625 5950 2650 
L 5950 2175 
Q 5625 2200 5025 2200 
L 5025 1075 
Q 5750 1075 6150 1100 
L 6150 625 
Q 5850 650 5025 650 
L 5025 275 
Q 5025 75 5050 -600 
L 4550 -600 
L 4550 4300 
Q 4550 4850 4525 5125 
L 5050 5125 
z
M 3425 4350 
Q 3425 4925 3400 5150 
L 3925 5150 
Q 3900 4800 3900 4250 
L 3900 -600 
L 3400 -600 
Q 3425 -50 3425 275 
L 3425 650 
Q 2625 650 2225 625 
L 2225 1100 
Q 2550 1075 3425 1075 
L 3425 2200 
Q 2775 2200 2525 2150 
L 2525 2650 
Q 2750 2625 3425 2625 
L 3425 3600 
Q 2700 3600 2450 3575 
L 2450 4050 
Q 2725 4000 3425 4000 
L 3425 4350 
z
" transform="scale(0.015625)"/>
      <path id="SimHei-54" d="M 2850 3925 
L 1850 3925 
L 1850 125 
L 1275 125 
L 1275 3925 
L 275 3925 
L 275 4400 
L 2850 4400 
L 2850 3925 
z
" transform="scale(0.015625)"/>
      <path id="SimHei-6f" d="M 2925 1525 
Q 2925 875 2525 475 
Q 2125 75 1575 75 
Q 1025 75 625 475 
Q 225 875 225 1525 
Q 225 2175 625 2575 
Q 1025 2975 1575 2975 
Q 2125 2975 2525 2575 
Q 2925 2175 2925 1525 
z
M 2375 1525 
Q 2375 2025 2125 2275 
Q 1875 2525 1575 2525 
Q 1275 2525 1025 2275 
Q 775 2025 775 1525 
Q 775 1025 1025 775 
Q 1275 525 1575 525 
Q 1875 525 2125 775 
Q 2375 1025 2375 1525 
z
" transform="scale(0.015625)"/>
      <path id="SimHei-70" d="M 2825 1525 
Q 2825 800 2475 425 
Q 2125 50 1625 50 
Q 1350 50 1150 162 
Q 950 275 800 500 
L 800 -800 
L 300 -800 
L 300 2925 
L 800 2925 
L 800 2550 
Q 950 2775 1150 2875 
Q 1350 2975 1625 2975 
Q 2125 2975 2475 2612 
Q 2825 2250 2825 1525 
z
M 2275 1525 
Q 2275 2000 2087 2262 
Q 1900 2525 1525 2525 
Q 1225 2525 1012 2262 
Q 800 2000 800 1525 
Q 800 1050 1012 775 
Q 1225 500 1525 500 
Q 1900 500 2087 775 
Q 2275 1050 2275 1525 
z
" transform="scale(0.015625)"/>
     </defs>
     <use xlink:href="#SimHei-884c"/>
     <use xlink:href="#SimHei-4e1a" transform="translate(100 0)"/>
     <use xlink:href="#SimHei-6da8" transform="translate(200 0)"/>
     <use xlink:href="#SimHei-8dcc" transform="translate(300 0)"/>
     <use xlink:href="#SimHei-6392" transform="translate(400 0)"/>
     <use xlink:href="#SimHei-884c" transform="translate(500 0)"/>
     <use xlink:href="#SimHei-20" transform="translate(600 0)"/>
     <use xlink:href="#SimHei-28" transform="translate(650 0)"/>
     <use xlink:href="#SimHei-54" transform="translate(700 0)"/>
     <use xlink:href="#SimHei-6f" transform="translate(750 0)"/>
     <use xlink:href="#SimHei-70" transform="translate(800 0)"/>
     <use xlink:href="#SimHei-38" transform="translate(850 0)"/>
     <use xlink:href="#SimHei-29" transform="translate(900 0)"/>
    </g>
   </g>
  </g>
  <g id="axes_2">
   <g id="patch_13">
    <path d="M 673.485644 529.095 
L 1133.28 529.095 
L 1133.28 52.3875 
L 673.485644 52.3875 
z
"/>
   </g>
   <g id="patch_14">
    <path d="M 673.485644 507.426477 
L 797.239819 507.426477 
L 797.239819 462.978226 
L 673.485644 462.978226 
z
" clip-path="url(#p4e91451309)" style="fill: #2ecc71; opacity: 0.8"/>
   </g>
   <g id="patch_15">
    <path d="M 673.485644 451.866163 
L 863.876682 451.866163 
L 863.876682 407.417911 
L 673.485644 407.417911 
z
" clip-path="url(#p4e91451309)" style="fill: #27ae60; opacity: 0.8"/>
   </g>
   <g id="patch_16">
    <path d="M 673.485644 396.305848 
L 787.720267 396.305848 
L 787.720267 351.857596 
L 673.485644 351.857596 
z
" clip-path="url(#p4e91451309)" style="fill: #1abc9c; opacity: 0.8"/>
   </g>
   <g id="patch_17">
    <path d="M 673.485644 340.745533 
L 968.591753 340.745533 
L 968.591753 296.297281 
L 673.485644 296.297281 
z
" clip-path="url(#p4e91451309)" style="fill: #16a085; opacity: 0.8"/>
   </g>
   <g id="patch_18">
    <path d="M 673.485644 285.185219 
L 797.239819 285.185219 
L 797.239819 240.736967 
L 673.485644 240.736967 
z
" clip-path="url(#p4e91451309)" style="fill: #f1c40f; opacity: 0.8"/>
   </g>
   <g id="patch_19">
    <path d="M 673.485644 229.624904 
L 1111.385031 229.624904 
L 1111.385031 185.176652 
L 673.485644 185.176652 
z
" clip-path="url(#p4e91451309)" style="fill: #f39c12; opacity: 0.8"/>
   </g>
   <g id="patch_20">
    <path d="M 673.485644 174.064589 
L 863.876682 174.064589 
L 863.876682 129.616337 
L 673.485644 129.616337 
z
" clip-path="url(#p4e91451309)" style="fill: #e67e22; opacity: 0.8"/>
   </g>
   <g id="patch_21">
    <path d="M 673.485644 118.504274 
L 816.278923 118.504274 
L 816.278923 74.056023 
L 673.485644 74.056023 
z
" clip-path="url(#p4e91451309)" style="fill: #d35400; opacity: 0.8"/>
   </g>
   <g id="matplotlib.axis_3">
    <g id="xtick_8">
     <g id="line2d_32">
      <path d="M 673.485644 529.095 
L 673.485644 52.3875 
" clip-path="url(#p4e91451309)" style="fill: none; stroke-dasharray: 2.96,1.28; stroke-dashoffset: 0; stroke: #ffffff; stroke-opacity: 0.3; stroke-width: 0.8"/>
     </g>
     <g id="line2d_33">
      <g>
       <use xlink:href="#mdc4623e9bf" x="673.485644" y="529.095" style="fill: #ffffff; stroke: #ffffff; stroke-width: 0.8"/>
      </g>
     </g>
     <g id="text_26">
      <!-- 0 -->
      <g style="fill: #ffffff" transform="translate(670.485644 540.845) scale(0.12 -0.12)">
       <use xlink:href="#SimHei-30"/>
      </g>
     </g>
    </g>
    <g id="xtick_9">
     <g id="line2d_34">
      <path d="M 768.681163 529.095 
L 768.681163 52.3875 
" clip-path="url(#p4e91451309)" style="fill: none; stroke-dasharray: 2.96,1.28; stroke-dashoffset: 0; stroke: #ffffff; stroke-opacity: 0.3; stroke-width: 0.8"/>
     </g>
     <g id="line2d_35">
      <g>
       <use xlink:href="#mdc4623e9bf" x="768.681163" y="529.095" style="fill: #ffffff; stroke: #ffffff; stroke-width: 0.8"/>
      </g>
     </g>
     <g id="text_27">
      <!-- 10 -->
      <g style="fill: #ffffff" transform="translate(762.681163 540.845) scale(0.12 -0.12)">
       <use xlink:href="#SimHei-31"/>
       <use xlink:href="#SimHei-30" transform="translate(50 0)"/>
      </g>
     </g>
    </g>
    <g id="xtick_10">
     <g id="line2d_36">
      <path d="M 863.876682 529.095 
L 863.876682 52.3875 
" clip-path="url(#p4e91451309)" style="fill: none; stroke-dasharray: 2.96,1.28; stroke-dashoffset: 0; stroke: #ffffff; stroke-opacity: 0.3; stroke-width: 0.8"/>
     </g>
     <g id="line2d_37">
      <g>
       <use xlink:href="#mdc4623e9bf" x="863.876682" y="529.095" style="fill: #ffffff; stroke: #ffffff; stroke-width: 0.8"/>
      </g>
     </g>
     <g id="text_28">
      <!-- 20 -->
      <g style="fill: #ffffff" transform="translate(857.876682 540.845) scale(0.12 -0.12)">
       <use xlink:href="#SimHei-32"/>
       <use xlink:href="#SimHei-30" transform="translate(50 0)"/>
      </g>
     </g>
    </g>
    <g id="xtick_11">
     <g id="line2d_38">
      <path d="M 959.072201 529.095 
L 959.072201 52.3875 
" clip-path="url(#p4e91451309)" style="fill: none; stroke-dasharray: 2.96,1.28; stroke-dashoffset: 0; stroke: #ffffff; stroke-opacity: 0.3; stroke-width: 0.8"/>
     </g>
     <g id="line2d_39">
      <g>
       <use xlink:href="#mdc4623e9bf" x="959.072201" y="529.095" style="fill: #ffffff; stroke: #ffffff; stroke-width: 0.8"/>
      </g>
     </g>
     <g id="text_29">
      <!-- 30 -->
      <g style="fill: #ffffff" transform="translate(953.072201 540.845) scale(0.12 -0.12)">
       <use xlink:href="#SimHei-33"/>
       <use xlink:href="#SimHei-30" transform="translate(50 0)"/>
      </g>
     </g>
    </g>
    <g id="xtick_12">
     <g id="line2d_40">
      <path d="M 1054.267719 529.095 
L 1054.267719 52.3875 
" clip-path="url(#p4e91451309)" style="fill: none; stroke-dasharray: 2.96,1.28; stroke-dashoffset: 0; stroke: #ffffff; stroke-opacity: 0.3; stroke-width: 0.8"/>
     </g>
     <g id="line2d_41">
      <g>
       <use xlink:href="#mdc4623e9bf" x="1054.267719" y="529.095" style="fill: #ffffff; stroke: #ffffff; stroke-width: 0.8"/>
      </g>
     </g>
     <g id="text_30">
      <!-- 40 -->
      <g style="fill: #ffffff" transform="translate(1048.267719 540.845) scale(0.12 -0.12)">
       <use xlink:href="#SimHei-34"/>
       <use xlink:href="#SimHei-30" transform="translate(50 0)"/>
      </g>
     </g>
    </g>
    <g id="text_31">
     <!-- 概念数 -->
     <g style="fill: #ffffff" transform="translate(883.882822 556.9075) scale(0.13 -0.13)">
      <defs>
       <path id="SimHei-6982" d="M 3100 1150 
Q 3000 1350 2900 1475 
Q 3075 1600 3275 1725 
Q 3425 1475 3537 1262 
Q 3650 1050 3825 750 
Q 3675 625 3425 450 
Q 3375 600 3275 800 
Q 3075 625 2775 412 
Q 2475 200 2250 -50 
Q 2075 200 1925 350 
Q 2100 525 2125 875 
L 2125 4000 
Q 2125 4425 2100 4700 
L 3575 4700 
Q 3550 4325 3550 3475 
Q 3550 2650 3575 2200 
L 2550 2200 
L 2550 750 
Q 2725 850 3100 1150 
z
M 3325 -700 
Q 3200 -500 2950 -325 
Q 3400 -75 3850 637 
Q 4300 1350 4500 2350 
L 3800 2350 
Q 3825 2725 3825 3075 
Q 3825 3425 3800 3750 
L 4275 3750 
Q 4225 3550 4225 3250 
L 4225 2725 
L 4600 2725 
Q 4675 3500 4675 4400 
L 4425 4400 
Q 4075 4400 3800 4375 
L 3800 4800 
Q 4100 4775 4425 4775 
L 5150 4775 
Q 5625 4775 5850 4800 
L 5850 4375 
Q 5650 4400 5100 4400 
Q 5100 3700 5025 2725 
L 5375 2725 
Q 5600 2725 5925 2750 
L 5925 2325 
Q 5600 2350 5425 2350 
L 4950 2350 
Q 4625 1075 4287 462 
Q 3950 -150 3325 -700 
z
M 1000 4425 
Q 1000 4750 975 5050 
L 1475 5050 
Q 1425 4725 1425 4300 
L 1425 3800 
Q 1625 3800 1925 3825 
L 1925 3400 
Q 1600 3425 1425 3425 
L 1425 2650 
Q 1550 2725 1700 2825 
Q 1900 2350 2075 1875 
Q 1850 1825 1700 1700 
Q 1600 2050 1425 2450 
L 1425 300 
Q 1425 -125 1450 -575 
L 975 -575 
Q 1000 -50 1000 300 
L 1000 2025 
Q 825 1450 550 950 
Q 450 1150 175 1350 
Q 500 1825 662 2275 
Q 825 2725 950 3425 
Q 500 3425 350 3400 
L 350 3825 
Q 550 3800 1000 3800 
L 1000 4425 
z
M 5300 1725 
Q 5275 1050 5275 225 
Q 5275 -50 5412 -75 
Q 5550 -100 5625 -87 
Q 5700 -75 5737 37 
Q 5775 150 5775 475 
Q 6000 350 6250 300 
Q 6150 -225 6050 -350 
Q 5950 -475 5650 -475 
L 5350 -475 
Q 4800 -450 4850 50 
Q 4850 925 4850 1725 
L 5300 1725 
z
M 3125 2575 
L 3125 3275 
L 2550 3275 
L 2550 2575 
L 3125 2575 
z
M 3125 3650 
L 3125 4325 
L 2550 4325 
L 2550 3650 
L 3125 3650 
z
" transform="scale(0.015625)"/>
       <path id="SimHei-5ff5" d="M 275 2925 
Q 825 3075 1687 3762 
Q 2550 4450 3075 5300 
Q 3275 5175 3650 5050 
L 3500 4900 
Q 4025 4275 4737 3762 
Q 5450 3250 6150 3025 
Q 5775 2775 5675 2600 
Q 5150 2875 4525 3350 
Q 3900 3825 3200 4600 
Q 2625 3950 2012 3437 
Q 1400 2925 700 2475 
Q 550 2750 275 2925 
z
M 4900 425 
Q 4750 -150 4575 -337 
Q 4400 -525 4075 -500 
L 2525 -500 
Q 2050 -500 2012 -187 
Q 1975 125 1975 600 
Q 1975 1100 1950 1400 
L 2450 1400 
Q 2425 1100 2425 650 
Q 2425 200 2462 50 
Q 2500 -100 2800 -125 
L 3900 -125 
Q 4050 -125 4162 -37 
Q 4275 50 4375 650 
Q 4600 500 4900 425 
z
M 3400 1575 
Q 3800 2075 4100 2525 
L 2400 2525 
Q 2175 2525 1700 2475 
L 1700 2925 
Q 2150 2900 2375 2900 
L 4900 2900 
Q 4675 2625 3875 1400 
Q 3700 1500 3400 1575 
z
M 1650 1500 
Q 1400 775 875 -50 
Q 725 50 475 200 
Q 900 675 1225 1675 
Q 1450 1550 1650 1500 
z
M 5000 1575 
Q 5575 950 6000 400 
Q 5750 275 5600 100 
Q 5175 775 4650 1300 
Q 4825 1400 5000 1575 
z
M 3825 925 
Q 3600 750 3425 600 
Q 3050 1225 2575 1625 
Q 2750 1725 2925 1875 
Q 3500 1325 3825 925 
z
M 3150 3975 
Q 3400 3650 3650 3300 
Q 3425 3175 3250 3050 
Q 3025 3450 2775 3750 
Q 3000 3850 3150 3975 
z
" transform="scale(0.015625)"/>
       <path id="SimHei-6570" d="M 4525 4925 
Q 4475 4800 4400 4587 
Q 4325 4375 4175 3825 
L 5325 3825 
Q 5575 3825 5925 3850 
L 5925 3400 
Q 5650 3425 5500 3425 
Q 5500 3025 5362 2162 
Q 5225 1300 4875 675 
Q 5125 375 5437 137 
Q 5750 -100 6025 -200 
Q 5725 -425 5625 -625 
Q 5325 -450 5075 -225 
Q 4825 0 4575 325 
Q 4300 25 3987 -187 
Q 3675 -400 3200 -650 
Q 3075 -425 2850 -300 
Q 3225 -150 3650 125 
Q 4075 400 4300 675 
Q 4125 1025 3962 1425 
Q 3800 1825 3675 2475 
Q 3600 2275 3425 1950 
Q 3250 2050 3000 2150 
Q 3400 2850 3650 3675 
Q 3900 4500 3975 5100 
Q 4275 4975 4525 4925 
z
M 2100 2250 
Q 2000 2150 1875 1925 
L 3250 1925 
Q 3100 1300 2725 675 
Q 3125 525 3350 400 
Q 3225 225 3125 25 
Q 2900 175 2450 325 
Q 1950 -225 725 -650 
Q 600 -375 400 -275 
Q 1575 0 2000 475 
Q 1300 650 850 775 
Q 1000 1000 1250 1525 
Q 1000 1525 425 1500 
L 425 1950 
Q 900 1925 1400 1925 
Q 1500 2150 1550 2425 
Q 1825 2325 2100 2250 
z
M 1775 3950 
Q 1775 4550 1750 5100 
L 2250 5100 
Q 2225 4575 2225 3950 
Q 3075 3950 3425 3975 
L 3425 3525 
Q 3075 3550 2225 3550 
Q 2225 2825 2250 2425 
L 1750 2425 
Q 1775 2775 1775 3300 
Q 1650 3100 1300 2787 
Q 950 2475 650 2300 
Q 525 2525 275 2625 
Q 500 2700 875 2975 
Q 1250 3250 1450 3550 
Q 950 3550 500 3525 
L 500 3975 
Q 925 3950 1775 3950 
z
M 3975 3175 
Q 4200 1700 4600 1125 
Q 4850 1700 4937 2287 
Q 5025 2875 5050 3425 
L 4075 3425 
L 3975 3175 
z
M 1450 1000 
Q 1750 925 2275 800 
Q 2475 1050 2650 1525 
L 1725 1525 
Q 1600 1275 1450 1000 
z
M 3325 4825 
Q 3200 4625 3125 4450 
Q 3050 4275 2925 4025 
Q 2725 4125 2525 4175 
Q 2725 4500 2900 5000 
Q 3150 4875 3325 4825 
z
M 2575 3375 
Q 2900 3050 3200 2725 
Q 3050 2600 2875 2425 
Q 2525 2850 2300 3100 
Q 2450 3225 2575 3375 
z
M 925 5000 
Q 1275 4650 1500 4300 
L 1125 4075 
Q 950 4425 600 4725 
Q 825 4875 925 5000 
z
" transform="scale(0.015625)"/>
      </defs>
      <use xlink:href="#SimHei-6982"/>
      <use xlink:href="#SimHei-5ff5" transform="translate(100 0)"/>
      <use xlink:href="#SimHei-6570" transform="translate(200 0)"/>
     </g>
    </g>
   </g>
   <g id="matplotlib.axis_4">
    <g id="ytick_9">
     <g id="line2d_42">
      <path d="M 673.485644 485.202351 
L 1133.28 485.202351 
" clip-path="url(#p4e91451309)" style="fill: none; stroke-dasharray: 2.96,1.28; stroke-dashoffset: 0; stroke: #ffffff; stroke-opacity: 0.25; stroke-width: 0.8"/>
     </g>
     <g id="line2d_43">
      <g>
       <use xlink:href="#m7591d8f540" x="673.485644" y="485.202351" style="fill: #ffffff; stroke: #ffffff; stroke-width: 0.8"/>
      </g>
     </g>
     <g id="text_32">
      <!-- 黄金 -->
      <g style="fill: #ffffff" transform="translate(645.985644 490.007039) scale(0.12 -0.12)">
       <use xlink:href="#SimHei-9ec4"/>
       <use xlink:href="#SimHei-91d1" transform="translate(100 0)"/>
      </g>
     </g>
    </g>
    <g id="ytick_10">
     <g id="line2d_44">
      <path d="M 673.485644 429.642037 
L 1133.28 429.642037 
" clip-path="url(#p4e91451309)" style="fill: none; stroke-dasharray: 2.96,1.28; stroke-dashoffset: 0; stroke: #ffffff; stroke-opacity: 0.25; stroke-width: 0.8"/>
     </g>
     <g id="line2d_45">
      <g>
       <use xlink:href="#m7591d8f540" x="673.485644" y="429.642037" style="fill: #ffffff; stroke: #ffffff; stroke-width: 0.8"/>
      </g>
     </g>
     <g id="text_33">
      <!-- 油田服务 -->
      <g style="fill: #ffffff" transform="translate(621.985644 434.446724) scale(0.12 -0.12)">
       <use xlink:href="#SimHei-6cb9"/>
       <use xlink:href="#SimHei-7530" transform="translate(100 0)"/>
       <use xlink:href="#SimHei-670d" transform="translate(200 0)"/>
       <use xlink:href="#SimHei-52a1" transform="translate(300 0)"/>
      </g>
     </g>
    </g>
    <g id="ytick_11">
     <g id="line2d_46">
      <path d="M 673.485644 374.081722 
L 1133.28 374.081722 
" clip-path="url(#p4e91451309)" style="fill: none; stroke-dasharray: 2.96,1.28; stroke-dashoffset: 0; stroke: #ffffff; stroke-opacity: 0.25; stroke-width: 0.8"/>
     </g>
     <g id="line2d_47">
      <g>
       <use xlink:href="#m7591d8f540" x="673.485644" y="374.081722" style="fill: #ffffff; stroke: #ffffff; stroke-width: 0.8"/>
      </g>
     </g>
     <g id="text_34">
      <!-- 油气开采 -->
      <g style="fill: #ffffff" transform="translate(621.985644 378.88641) scale(0.12 -0.12)">
       <use xlink:href="#SimHei-6cb9"/>
       <use xlink:href="#SimHei-6c14" transform="translate(100 0)"/>
       <use xlink:href="#SimHei-5f00" transform="translate(200 0)"/>
       <use xlink:href="#SimHei-91c7" transform="translate(300 0)"/>
      </g>
     </g>
    </g>
    <g id="ytick_12">
     <g id="line2d_48">
      <path d="M 673.485644 318.521407 
L 1133.28 318.521407 
" clip-path="url(#p4e91451309)" style="fill: none; stroke-dasharray: 2.96,1.28; stroke-dashoffset: 0; stroke: #ffffff; stroke-opacity: 0.25; stroke-width: 0.8"/>
     </g>
     <g id="line2d_49">
      <g>
       <use xlink:href="#m7591d8f540" x="673.485644" y="318.521407" style="fill: #ffffff; stroke: #ffffff; stroke-width: 0.8"/>
      </g>
     </g>
     <g id="text_35">
      <!-- 煤化工 -->
      <g style="fill: #ffffff" transform="translate(633.985644 323.255782) scale(0.12 -0.12)">
       <use xlink:href="#SimHei-7164"/>
       <use xlink:href="#SimHei-5316" transform="translate(100 0)"/>
       <use xlink:href="#SimHei-5de5" transform="translate(200 0)"/>
      </g>
     </g>
    </g>
    <g id="ytick_13">
     <g id="line2d_50">
      <path d="M 673.485644 262.961093 
L 1133.28 262.961093 
" clip-path="url(#p4e91451309)" style="fill: none; stroke-dasharray: 2.96,1.28; stroke-dashoffset: 0; stroke: #ffffff; stroke-opacity: 0.25; stroke-width: 0.8"/>
     </g>
     <g id="line2d_51">
      <g>
       <use xlink:href="#m7591d8f540" x="673.485644" y="262.961093" style="fill: #ffffff; stroke: #ffffff; stroke-width: 0.8"/>
      </g>
     </g>
     <g id="text_36">
      <!-- 炼焦煤 -->
      <g style="fill: #ffffff" transform="translate(633.985644 267.812655) scale(0.12 -0.12)">
       <use xlink:href="#SimHei-70bc"/>
       <use xlink:href="#SimHei-7126" transform="translate(100 0)"/>
       <use xlink:href="#SimHei-7164" transform="translate(200 0)"/>
      </g>
     </g>
    </g>
    <g id="ytick_14">
     <g id="line2d_52">
      <path d="M 673.485644 207.400778 
L 1133.28 207.400778 
" clip-path="url(#p4e91451309)" style="fill: none; stroke-dasharray: 2.96,1.28; stroke-dashoffset: 0; stroke: #ffffff; stroke-opacity: 0.25; stroke-width: 0.8"/>
     </g>
     <g id="line2d_53">
      <g>
       <use xlink:href="#m7591d8f540" x="673.485644" y="207.400778" style="fill: #ffffff; stroke: #ffffff; stroke-width: 0.8"/>
      </g>
     </g>
     <g id="text_37">
      <!-- 其他能源发电 -->
      <g style="fill: #ffffff" transform="translate(597.985644 212.182028) scale(0.12 -0.12)">
       <use xlink:href="#SimHei-5176"/>
       <use xlink:href="#SimHei-4ed6" transform="translate(100 0)"/>
       <use xlink:href="#SimHei-80fd" transform="translate(200 0)"/>
       <use xlink:href="#SimHei-6e90" transform="translate(300 0)"/>
       <use xlink:href="#SimHei-53d1" transform="translate(400 0)"/>
       <use xlink:href="#SimHei-7535" transform="translate(500 0)"/>
      </g>
     </g>
    </g>
    <g id="ytick_15">
     <g id="line2d_54">
      <path d="M 673.485644 151.840463 
L 1133.28 151.840463 
" clip-path="url(#p4e91451309)" style="fill: none; stroke-dasharray: 2.96,1.28; stroke-dashoffset: 0; stroke: #ffffff; stroke-opacity: 0.25; stroke-width: 0.8"/>
     </g>
     <g id="line2d_55">
      <g>
       <use xlink:href="#m7591d8f540" x="673.485644" y="151.840463" style="fill: #ffffff; stroke: #ffffff; stroke-width: 0.8"/>
      </g>
     </g>
     <g id="text_38">
      <!-- 油气工程 -->
      <g style="fill: #ffffff" transform="translate(621.985644 156.668588) scale(0.12 -0.12)">
       <use xlink:href="#SimHei-6cb9"/>
       <use xlink:href="#SimHei-6c14" transform="translate(100 0)"/>
       <use xlink:href="#SimHei-5de5" transform="translate(200 0)"/>
       <use xlink:href="#SimHei-7a0b" transform="translate(300 0)"/>
      </g>
     </g>
    </g>
    <g id="ytick_16">
     <g id="line2d_56">
      <path d="M 673.485644 96.280149 
L 1133.28 96.280149 
" clip-path="url(#p4e91451309)" style="fill: none; stroke-dasharray: 2.96,1.28; stroke-dashoffset: 0; stroke: #ffffff; stroke-opacity: 0.25; stroke-width: 0.8"/>
     </g>
     <g id="line2d_57">
      <g>
       <use xlink:href="#m7591d8f540" x="673.485644" y="96.280149" style="fill: #ffffff; stroke: #ffffff; stroke-width: 0.8"/>
      </g>
     </g>
     <g id="text_39">
      <!-- 焦炭加工 -->
      <g style="fill: #ffffff" transform="translate(621.985644 101.131711) scale(0.12 -0.12)">
       <use xlink:href="#SimHei-7126"/>
       <use xlink:href="#SimHei-70ad" transform="translate(100 0)"/>
       <use xlink:href="#SimHei-52a0" transform="translate(200 0)"/>
       <use xlink:href="#SimHei-5de5" transform="translate(300 0)"/>
      </g>
     </g>
    </g>
   </g>
   <g id="patch_22">
    <path d="M 673.485644 529.095 
L 673.485644 52.3875 
" style="fill: none; stroke: #ffffff; stroke-width: 0.8; stroke-linejoin: miter; stroke-linecap: square"/>
   </g>
   <g id="patch_23">
    <path d="M 673.485644 529.095 
L 1133.28 529.095 
" style="fill: none; stroke: #ffffff; stroke-width: 0.8; stroke-linejoin: miter; stroke-linecap: square"/>
   </g>
   <g id="text_40">
    <!-- 13 -->
    <g style="fill: #ffffff" transform="translate(799.143729 488.014851) scale(0.1 -0.1)">
     <use xlink:href="#SimHei-31"/>
     <use xlink:href="#SimHei-33" transform="translate(50 0)"/>
    </g>
   </g>
   <g id="text_41">
    <!-- 20 -->
    <g style="fill: #ffffff" transform="translate(865.780592 432.454537) scale(0.1 -0.1)">
     <use xlink:href="#SimHei-32"/>
     <use xlink:href="#SimHei-30" transform="translate(50 0)"/>
    </g>
   </g>
   <g id="text_42">
    <!-- 12 -->
    <g style="fill: #ffffff" transform="translate(789.624177 376.894222) scale(0.1 -0.1)">
     <use xlink:href="#SimHei-31"/>
     <use xlink:href="#SimHei-32" transform="translate(50 0)"/>
    </g>
   </g>
   <g id="text_43">
    <!-- 31 -->
    <g style="fill: #ffffff" transform="translate(970.495663 321.333907) scale(0.1 -0.1)">
     <use xlink:href="#SimHei-33"/>
     <use xlink:href="#SimHei-31" transform="translate(50 0)"/>
    </g>
   </g>
   <g id="text_44">
    <!-- 13 -->
    <g style="fill: #ffffff" transform="translate(799.143729 265.773593) scale(0.1 -0.1)">
     <use xlink:href="#SimHei-31"/>
     <use xlink:href="#SimHei-33" transform="translate(50 0)"/>
    </g>
   </g>
   <g id="text_45">
    <!-- 46 -->
    <g style="fill: #ffffff" transform="translate(1113.288941 210.213278) scale(0.1 -0.1)">
     <use xlink:href="#SimHei-34"/>
     <use xlink:href="#SimHei-36" transform="translate(50 0)"/>
    </g>
   </g>
   <g id="text_46">
    <!-- 20 -->
    <g style="fill: #ffffff" transform="translate(865.780592 154.652963) scale(0.1 -0.1)">
     <use xlink:href="#SimHei-32"/>
     <use xlink:href="#SimHei-30" transform="translate(50 0)"/>
    </g>
   </g>
   <g id="text_47">
    <!-- 15 -->
    <g style="fill: #ffffff" transform="translate(818.182833 99.092649) scale(0.1 -0.1)">
     <use xlink:href="#SimHei-31"/>
     <use xlink:href="#SimHei-35" transform="translate(50 0)"/>
    </g>
   </g>
   <g id="text_48">
    <!-- 关联有效概念数 -->
    <g style="fill: #ffffff" transform="translate(857.882822 46.3875) scale(0.13 -0.13)">
     <defs>
      <path id="SimHei-5173" d="M 4675 4850 
Q 4525 4675 4362 4375 
Q 4200 4075 4075 3825 
L 4625 3825 
Q 5150 3825 5550 3850 
L 5550 3375 
Q 5225 3400 4700 3400 
L 3400 3400 
L 3400 2150 
L 4975 2150 
Q 5475 2150 5875 2175 
L 5875 1700 
Q 5475 1725 5025 1725 
L 3500 1725 
Q 4250 450 6000 75 
Q 5775 -175 5600 -525 
Q 4025 0 3225 1300 
Q 2800 200 875 -600 
Q 775 -350 500 -150 
Q 2425 375 2875 1725 
L 1550 1725 
Q 975 1725 600 1700 
L 600 2150 
Q 875 2125 1450 2125 
L 2925 2125 
L 2925 3400 
L 1750 3400 
Q 1275 3400 900 3375 
L 900 3850 
Q 1275 3825 1775 3825 
L 3575 3825 
Q 3925 4625 4075 5150 
Q 4325 5000 4675 4850 
z
M 2125 5125 
Q 2450 4725 2800 4175 
Q 2500 4025 2325 3875 
Q 2025 4450 1725 4825 
Q 1950 4975 2125 5125 
z
" transform="scale(0.015625)"/>
      <path id="SimHei-8054" d="M 2325 4850 
Q 2625 4850 2975 4875 
L 2975 4450 
Q 2700 4475 2475 4475 
L 2475 1150 
Q 2750 1225 2975 1275 
Q 2925 950 2950 850 
Q 2650 800 2475 750 
L 2475 175 
Q 2475 -200 2500 -675 
L 1975 -675 
Q 2025 -200 2025 175 
L 2025 650 
Q 1750 600 1337 475 
Q 925 350 450 175 
Q 425 350 275 750 
Q 425 750 800 825 
L 800 4475 
Q 550 4475 325 4425 
L 325 4875 
Q 625 4850 950 4850 
L 2325 4850 
z
M 5450 4950 
Q 5250 4675 5162 4487 
Q 5075 4300 4850 3900 
Q 5375 3900 5825 3925 
L 5825 3475 
Q 5375 3525 5050 3525 
L 4550 3525 
Q 4525 2600 4500 2225 
L 5225 2225 
Q 5525 2225 5950 2250 
L 5950 1800 
Q 5525 1825 5225 1825 
L 4575 1825 
Q 4725 1150 5175 625 
Q 5625 100 6175 -25 
Q 6000 -175 5912 -312 
Q 5825 -450 5800 -625 
Q 5275 -250 4925 200 
Q 4575 650 4350 1325 
Q 4175 750 3900 275 
Q 3625 -200 3200 -675 
Q 3125 -575 2975 -450 
Q 2825 -325 2750 -325 
Q 3100 -100 3412 387 
Q 3725 875 3825 1187 
Q 3925 1500 3975 1825 
L 3675 1825 
Q 3275 1825 2825 1800 
L 2825 2250 
Q 3275 2225 3675 2225 
L 4025 2225 
Q 4075 2950 4075 3525 
L 3825 3525 
Q 3475 3525 3000 3475 
L 3000 3925 
Q 3475 3900 3825 3900 
L 4450 3900 
Q 4750 4600 4900 5225 
Q 5050 5125 5450 4950 
z
M 2025 2225 
L 2025 3200 
L 1250 3200 
L 1250 2225 
L 2025 2225 
z
M 2025 3600 
L 2025 4475 
L 1250 4475 
L 1250 3600 
L 2025 3600 
z
M 2025 1825 
L 1250 1825 
L 1250 900 
Q 1525 950 2025 1050 
L 2025 1825 
z
M 3500 5175 
Q 3950 4475 4075 4250 
Q 3775 4125 3675 4000 
Q 3550 4300 3150 4950 
Q 3225 4975 3500 5175 
z
" transform="scale(0.015625)"/>
      <path id="SimHei-6709" d="M 275 1625 
Q 850 1975 1400 2537 
Q 1950 3100 2400 3925 
L 1500 3925 
Q 1150 3925 625 3900 
L 625 4375 
Q 1275 4350 1600 4350 
L 2550 4350 
Q 2750 4950 2775 5225 
Q 3150 5125 3375 5075 
Q 3300 5000 3125 4350 
L 5150 4350 
Q 5575 4350 6025 4375 
L 6025 3900 
Q 5575 3925 5225 3925 
L 2975 3925 
Q 2800 3600 2600 3275 
L 5475 3275 
Q 5450 2650 5450 2150 
L 5450 125 
Q 5450 -225 5250 -387 
Q 5050 -550 4400 -600 
Q 4375 -325 4225 0 
Q 4600 -50 4775 -25 
Q 4950 0 4950 250 
L 4950 750 
L 2350 750 
L 2350 -575 
L 1800 -575 
Q 1825 50 1825 500 
L 1825 2275 
Q 1300 1675 725 1225 
Q 625 1400 275 1625 
z
M 4950 2175 
L 4950 2875 
L 2350 2875 
L 2350 2175 
L 4950 2175 
z
M 4950 1150 
L 4950 1775 
L 2350 1775 
L 2350 1150 
L 4950 1150 
z
" transform="scale(0.015625)"/>
      <path id="SimHei-6548" d="M 3500 2400 
Q 3400 2675 3200 2900 
Q 3500 3350 3750 4025 
Q 4000 4700 4100 5300 
Q 4400 5150 4750 5075 
Q 4625 4950 4500 4687 
Q 4375 4425 4225 4025 
Q 5800 4025 6150 4050 
L 6150 3625 
Q 5850 3650 5475 3650 
Q 5450 2925 5300 2137 
Q 5150 1350 4825 800 
Q 4900 575 5312 275 
Q 5725 -25 6175 -175 
Q 5875 -350 5775 -650 
Q 5350 -425 5050 -162 
Q 4750 100 4500 425 
Q 4175 125 3837 -112 
Q 3500 -350 2850 -700 
Q 2725 -425 2425 -250 
Q 2750 -200 3325 137 
Q 3900 475 4200 800 
Q 4000 1225 3887 1675 
Q 3775 2125 3675 2700 
L 3500 2400 
z
M 1100 2225 
Q 1525 1875 1925 1575 
Q 2125 1900 2200 2400 
Q 2450 2275 2700 2200 
Q 2475 1625 2300 1250 
L 3000 550 
Q 2775 375 2575 175 
Q 2400 450 2025 825 
Q 1825 600 1550 312 
Q 1275 25 700 -425 
Q 500 -175 250 -25 
Q 575 125 950 400 
Q 1325 675 1675 1175 
Q 1325 1475 850 1875 
L 1100 2225 
z
M 4075 2950 
Q 4100 2700 4212 2187 
Q 4325 1675 4525 1225 
Q 4775 1700 4887 2475 
Q 5000 3250 4975 3650 
L 4100 3650 
Q 3900 3125 3725 2850 
Q 3900 2850 4075 2950 
z
M 2500 4200 
Q 2875 4200 3175 4225 
L 3175 3800 
Q 2875 3825 2525 3825 
L 1000 3825 
Q 600 3825 275 3800 
L 275 4225 
Q 600 4200 1000 4200 
L 2500 4200 
z
M 1125 3650 
Q 1400 3500 1625 3325 
Q 1525 3250 1300 2900 
Q 1050 2525 675 2000 
Q 450 2150 225 2275 
Q 550 2575 787 2975 
Q 1025 3375 1125 3650 
z
M 2475 3625 
Q 2625 3400 2850 3100 
Q 3075 2800 3250 2575 
Q 3025 2450 2825 2275 
Q 2325 3000 2075 3325 
Q 2275 3425 2475 3625 
z
M 1825 5250 
Q 2025 4875 2175 4475 
Q 1950 4375 1700 4275 
Q 1550 4650 1350 5075 
Q 1575 5150 1825 5250 
z
" transform="scale(0.015625)"/>
     </defs>
     <use xlink:href="#SimHei-5173"/>
     <use xlink:href="#SimHei-8054" transform="translate(100 0)"/>
     <use xlink:href="#SimHei-6709" transform="translate(200 0)"/>
     <use xlink:href="#SimHei-6548" transform="translate(300 0)"/>
     <use xlink:href="#SimHei-6982" transform="translate(400 0)"/>
     <use xlink:href="#SimHei-5ff5" transform="translate(500 0)"/>
     <use xlink:href="#SimHei-6570" transform="translate(600 0)"/>
    </g>
   </g>
  </g>
  <g id="text_49">
   <!-- 行业-概念关联分析 — 2026-07-22 -->
   <g style="fill: #ffffff" transform="translate(453.99 19.3875) scale(0.15 -0.15)">
    <defs>
     <path id="SimHei-2d" d="M 2975 2125 
L 125 2125 
L 125 2525 
L 2975 2525 
L 2975 2125 
z
" transform="scale(0.015625)"/>
     <path id="SimHei-5206" d="M 1000 -650 
Q 825 -375 575 -225 
Q 975 -75 1300 137 
Q 1625 350 1875 662 
Q 2125 975 2250 1350 
Q 2375 1725 2425 2275 
Q 1850 2275 1500 2250 
L 1500 2775 
Q 1900 2750 2525 2750 
L 5025 2750 
Q 4975 2375 4950 2100 
L 4750 250 
Q 4700 -200 4350 -350 
Q 4000 -500 3575 -525 
Q 3550 -275 3325 50 
Q 3850 25 4037 87 
Q 4225 150 4275 525 
L 4450 2275 
L 2950 2275 
Q 2875 1625 2737 1187 
Q 2600 750 2350 425 
Q 2100 100 1750 -175 
Q 1400 -450 1000 -650 
z
M 3950 5175 
Q 4125 4650 4662 3975 
Q 5200 3300 6175 2800 
Q 5975 2625 5775 2275 
Q 5325 2600 4987 2887 
Q 4650 3175 4425 3425 
Q 4200 3675 3925 4137 
Q 3650 4600 3475 5000 
Q 3750 5075 3950 5175 
z
M 2700 4825 
Q 2475 4425 2325 4125 
Q 2175 3825 2025 3587 
Q 1875 3350 1575 2950 
Q 1275 2550 850 2125 
Q 625 2350 400 2475 
Q 900 2925 1187 3300 
Q 1475 3675 1737 4112 
Q 2000 4550 2200 5075 
Q 2400 4925 2700 4825 
z
" transform="scale(0.015625)"/>
     <path id="SimHei-6790" d="M 5900 4550 
Q 5575 4525 5087 4450 
Q 4600 4375 3725 4275 
L 3725 3075 
L 5400 3075 
Q 5725 3075 6150 3100 
L 6150 2650 
Q 5700 2675 5250 2675 
L 5250 350 
Q 5250 -100 5275 -475 
L 4750 -475 
Q 4775 -75 4775 375 
L 4775 2675 
L 3725 2675 
Q 3725 2175 3650 1637 
Q 3575 1100 3437 637 
Q 3300 175 2850 -500 
Q 2675 -300 2275 -150 
Q 2825 325 3050 1112 
Q 3275 1900 3262 3000 
Q 3250 4100 3225 4650 
Q 3975 4700 4562 4800 
Q 5150 4900 5500 5050 
Q 5675 4750 5900 4550 
z
M 1900 525 
Q 1900 200 1925 -525 
L 1400 -525 
Q 1425 25 1425 525 
L 1425 2250 
Q 1175 1625 600 800 
Q 425 1075 200 1225 
Q 650 1725 962 2387 
Q 1275 3050 1375 3425 
Q 925 3425 450 3400 
L 450 3850 
Q 925 3825 1425 3825 
L 1425 4450 
Q 1425 4775 1400 5125 
L 1950 5125 
Q 1900 4825 1900 4450 
L 1900 3825 
Q 2300 3825 2775 3850 
L 2775 3400 
Q 2300 3425 1900 3425 
L 1900 525 
z
M 2375 2750 
Q 2800 2050 2925 1800 
Q 2700 1700 2450 1550 
Q 2300 1900 1950 2525 
Q 2175 2625 2375 2750 
z
" transform="scale(0.015625)"/>
     <path id="SimHei-2014" d="M 6375 2500 
L 6375 2125 
L 0 2125 
L 0 2500 
L 6375 2500 
z
" transform="scale(0.015625)"/>
    </defs>
    <use xlink:href="#SimHei-884c"/>
    <use xlink:href="#SimHei-4e1a" transform="translate(100 0)"/>
    <use xlink:href="#SimHei-2d" transform="translate(200 0)"/>
    <use xlink:href="#SimHei-6982" transform="translate(250 0)"/>
    <use xlink:href="#SimHei-5ff5" transform="translate(350 0)"/>
    <use xlink:href="#SimHei-5173" transform="translate(450 0)"/>
    <use xlink:href="#SimHei-8054" transform="translate(550 0)"/>
    <use xlink:href="#SimHei-5206" transform="translate(650 0)"/>
    <use xlink:href="#SimHei-6790" transform="translate(750 0)"/>
    <use xlink:href="#SimHei-20" transform="translate(850 0)"/>
    <use xlink:href="#SimHei-2014" transform="translate(900 0)"/>
    <use xlink:href="#SimHei-20" transform="translate(1000 0)"/>
    <use xlink:href="#SimHei-32" transform="translate(1050 0)"/>
    <use xlink:href="#SimHei-30" transform="translate(1100 0)"/>
    <use xlink:href="#SimHei-32" transform="translate(1150 0)"/>
    <use xlink:href="#SimHei-36" transform="translate(1200 0)"/>
    <use xlink:href="#SimHei-2d" transform="translate(1250 0)"/>
    <use xlink:href="#SimHei-30" transform="translate(1300 0)"/>
    <use xlink:href="#SimHei-37" transform="translate(1350 0)"/>
    <use xlink:href="#SimHei-2d" transform="translate(1400 0)"/>
    <use xlink:href="#SimHei-32" transform="translate(1450 0)"/>
    <use xlink:href="#SimHei-32" transform="translate(1500 0)"/>
   </g>
  </g>
 </g>
 <defs>
  <clipPath id="pdf7742c849">
   <rect x="82.7" y="52.3875" width="459.794356" height="476.7075"/>
  </clipPath>
  <clipPath id="p4e91451309">
   <rect x="673.485644" y="52.3875" width="459.794356" height="476.7075"/>
  </clipPath>
 </defs>
</svg>
