<?xml version="1.0" encoding="utf-8" standalone="no"?>
<!DOCTYPE svg PUBLIC "-//W3C//DTD SVG 1.1//EN"
  "http://www.w3.org/Graphics/SVG/1.1/DTD/svg11.dtd">
<svg xmlns:xlink="http://www.w3.org/1999/xlink" width="554.606314pt" height="356.414601pt" viewBox="0 0 554.606314 356.414601" xmlns="http://www.w3.org/2000/svg" version="1.1">
 <metadata>
  <rdf:RDF xmlns:dc="http://purl.org/dc/elements/1.1/" xmlns:cc="http://creativecommons.org/ns#" xmlns:rdf="http://www.w3.org/1999/02/22-rdf-syntax-ns#">
   <cc:Work>
    <dc:type rdf:resource="http://purl.org/dc/dcmitype/StillImage"/>
    <dc:date>2026-07-23T10:28:58.413032</dc:date>
    <dc:format>image/svg+xml</dc:format>
    <dc:creator>
     <cc:Agent>
      <dc:title>Matplotlib v3.10.9, https://matplotlib.org/</dc:title>
     </cc:Agent>
    </dc:creator>
   </cc:Work>
  </rdf:RDF>
 </metadata>
 <defs>
  <style type="text/css">*{stroke-linejoin: round; stroke-linecap: butt}</style>
 </defs>
 <g id="figure_1">
  <g id="patch_1">
   <path d="M 0 356.414601 
L 554.606314 356.414601 
L 554.606314 0 
L 0 0 
z
" style="fill: #0d1117"/>
  </g>
  <g id="axes_1">
   <g id="patch_2">
    <path d="M 59.897482 317.921824 
L 541.295763 317.921824 
L 541.295763 10.264741 
L 59.897482 10.264741 
z
" style="fill: #0d1117"/>
   </g>
   <g id="matplotlib.axis_1">
    <g id="xtick_1">
     <g id="line2d_1">
      <path d="M 70.262517 317.921824 
L 70.262517 10.264741 
" clip-path="url(#p9b88aa5d5c)" style="fill: none; stroke-dasharray: 1.48,0.64; stroke-dashoffset: 0; stroke: #21262d; stroke-width: 0.4"/>
     </g>
     <g id="line2d_2">
      <defs>
       <path id="m30f467c668" d="M 0 0 
L 0 3.5 
" style="stroke: #000000; stroke-width: 0.8"/>
      </defs>
      <g>
       <use xlink:href="#m30f467c668" x="70.262517" y="317.921824" style="stroke: #000000; stroke-width: 0.8"/>
      </g>
     </g>
     <g id="text_1">
      <!-- Jun 24 -->
      <g transform="translate(62.506439 348.388931) rotate(-45) scale(0.09 -0.09)">
       <defs>
        <path id="SimHei-4a" d="M 2800 1550 
Q 2800 775 2462 425 
Q 2125 75 1550 75 
Q 1025 75 675 412 
Q 325 750 325 1500 
L 325 1775 
L 900 1775 
L 900 1425 
Q 900 975 1087 787 
Q 1275 600 1525 600 
Q 1875 600 2050 800 
Q 2225 1000 2225 1525 
L 2225 4400 
L 2800 4400 
L 2800 1550 
z
" transform="scale(0.015625)"/>
        <path id="SimHei-75" d="M 2800 125 
L 2300 125 
L 2300 650 
Q 2100 375 1862 225 
Q 1625 75 1250 75 
Q 800 75 575 325 
Q 350 575 350 950 
L 350 2925 
L 850 2925 
L 850 1125 
Q 850 825 1000 650 
Q 1150 475 1400 475 
Q 1725 475 2012 812 
Q 2300 1150 2300 1650 
L 2300 2925 
L 2800 2925 
L 2800 125 
z
" transform="scale(0.015625)"/>
        <path id="SimHei-6e" d="M 2800 125 
L 2300 125 
L 2300 1925 
Q 2300 2225 2150 2400 
Q 2000 2575 1750 2575 
Q 1425 2575 1137 2237 
Q 850 1900 850 1400 
L 850 125 
L 350 125 
L 350 2925 
L 850 2925 
L 850 2400 
Q 1050 2675 1287 2825 
Q 1525 2975 1900 2975 
Q 2350 2975 2575 2725 
Q 2800 2475 2800 2100 
L 2800 125 
z
" transform="scale(0.015625)"/>
        <path id="SimHei-20" transform="scale(0.015625)"/>
        <path id="SimHei-32" d="M 300 250 
Q 325 625 650 925 
Q 975 1225 1475 1862 
Q 1975 2500 2125 2850 
Q 2275 3200 2237 3450 
Q 2200 3700 2000 3862 
Q 1800 4025 1537 4000 
Q 1275 3975 1037 3800 
Q 800 3625 675 3275 
L 200 3350 
Q 400 3925 712 4187 
Q 1025 4450 1450 4475 
Q 1700 4500 1900 4462 
Q 2100 4425 2312 4287 
Q 2525 4150 2662 3875 
Q 2800 3600 2762 3212 
Q 2725 2825 2375 2287 
Q 2025 1750 1025 600 
L 2825 600 
L 2825 150 
L 300 150 
L 300 250 
z
" transform="scale(0.015625)"/>
        <path id="SimHei-34" d="M 2000 1100 
L 75 1100 
L 75 1525 
L 2100 4450 
L 2475 4450 
L 2475 1525 
L 3075 1525 
L 3075 1100 
L 2475 1100 
L 2475 150 
L 2000 150 
L 2000 1100 
z
M 2000 1525 
L 2000 3500 
L 600 1525 
L 2000 1525 
z
" transform="scale(0.015625)"/>
       </defs>
       <use xlink:href="#SimHei-4a"/>
       <use xlink:href="#SimHei-75" transform="translate(50 0)"/>
       <use xlink:href="#SimHei-6e" transform="translate(100 0)"/>
       <use xlink:href="#SimHei-20" transform="translate(150 0)"/>
       <use xlink:href="#SimHei-32" transform="translate(200 0)"/>
       <use xlink:href="#SimHei-34" transform="translate(250 0)"/>
      </g>
     </g>
    </g>
    <g id="xtick_2">
     <g id="line2d_3">
      <path d="M 130.876755 317.921824 
L 130.876755 10.264741 
" clip-path="url(#p9b88aa5d5c)" style="fill: none; stroke-dasharray: 1.48,0.64; stroke-dashoffset: 0; stroke: #21262d; stroke-width: 0.4"/>
     </g>
     <g id="line2d_4">
      <g>
       <use xlink:href="#m30f467c668" x="130.876755" y="317.921824" style="stroke: #000000; stroke-width: 0.8"/>
      </g>
     </g>
     <g id="text_2">
      <!-- Jun 26 -->
      <g transform="translate(123.120678 348.388931) rotate(-45) scale(0.09 -0.09)">
       <defs>
        <path id="SimHei-36" d="M 250 1612 
Q 275 1975 387 2225 
Q 500 2475 725 2850 
L 1750 4450 
L 2325 4450 
L 1275 2800 
Q 1950 2975 2350 2750 
Q 2750 2525 2887 2237 
Q 3025 1950 3037 1612 
Q 3050 1275 2937 950 
Q 2825 625 2537 362 
Q 2250 100 1737 75 
Q 1225 50 862 262 
Q 500 475 362 862 
Q 225 1250 250 1612 
z
M 1025 787 
Q 1250 550 1625 525 
Q 2000 500 2250 775 
Q 2500 1050 2500 1575 
Q 2500 2100 2187 2300 
Q 1875 2500 1487 2450 
Q 1100 2400 925 2075 
Q 750 1750 775 1387 
Q 800 1025 1025 787 
z
" transform="scale(0.015625)"/>
       </defs>
       <use xlink:href="#SimHei-4a"/>
       <use xlink:href="#SimHei-75" transform="translate(50 0)"/>
       <use xlink:href="#SimHei-6e" transform="translate(100 0)"/>
       <use xlink:href="#SimHei-20" transform="translate(150 0)"/>
       <use xlink:href="#SimHei-32" transform="translate(200 0)"/>
       <use xlink:href="#SimHei-36" transform="translate(250 0)"/>
      </g>
     </g>
    </g>
    <g id="xtick_3">
     <g id="line2d_5">
      <path d="M 191.490993 317.921824 
L 191.490993 10.264741 
" clip-path="url(#p9b88aa5d5c)" style="fill: none; stroke-dasharray: 1.48,0.64; stroke-dashoffset: 0; stroke: #21262d; stroke-width: 0.4"/>
     </g>
     <g id="line2d_6">
      <g>
       <use xlink:href="#m30f467c668" x="191.490993" y="317.921824" style="stroke: #000000; stroke-width: 0.8"/>
      </g>
     </g>
     <g id="text_3">
      <!-- Jul 01 -->
      <g transform="translate(183.734916 348.388931) rotate(-45) scale(0.09 -0.09)">
       <defs>
        <path id="SimHei-6c" d="M 1825 125 
L 1325 125 
L 1325 4400 
L 1825 4400 
L 1825 125 
z
" transform="scale(0.015625)"/>
        <path id="SimHei-30" d="M 225 2537 
Q 250 3200 412 3587 
Q 575 3975 875 4225 
Q 1175 4475 1612 4475 
Q 2050 4475 2375 4112 
Q 2700 3750 2800 3200 
Q 2900 2650 2862 1937 
Q 2825 1225 2612 775 
Q 2400 325 1975 150 
Q 1550 -25 1125 187 
Q 700 400 525 750 
Q 350 1100 275 1487 
Q 200 1875 225 2537 
z
M 750 2687 
Q 675 2000 800 1462 
Q 925 925 1212 700 
Q 1500 475 1800 612 
Q 2100 750 2237 1162 
Q 2375 1575 2375 2062 
Q 2375 2550 2337 2950 
Q 2300 3350 2112 3675 
Q 1925 4000 1612 4012 
Q 1300 4025 1062 3700 
Q 825 3375 750 2687 
z
" transform="scale(0.015625)"/>
        <path id="SimHei-31" d="M 1400 3600 
Q 1075 3275 575 2975 
L 575 3450 
Q 1200 3875 1600 4450 
L 1900 4450 
L 1900 150 
L 1400 150 
L 1400 3600 
z
" transform="scale(0.015625)"/>
       </defs>
       <use xlink:href="#SimHei-4a"/>
       <use xlink:href="#SimHei-75" transform="translate(50 0)"/>
       <use xlink:href="#SimHei-6c" transform="translate(100 0)"/>
       <use xlink:href="#SimHei-20" transform="translate(150 0)"/>
       <use xlink:href="#SimHei-30" transform="translate(200 0)"/>
       <use xlink:href="#SimHei-31" transform="translate(250 0)"/>
      </g>
     </g>
    </g>
    <g id="xtick_4">
     <g id="line2d_7">
      <path d="M 252.105232 317.921824 
L 252.105232 10.264741 
" clip-path="url(#p9b88aa5d5c)" style="fill: none; stroke-dasharray: 1.48,0.64; stroke-dashoffset: 0; stroke: #21262d; stroke-width: 0.4"/>
     </g>
     <g id="line2d_8">
      <g>
       <use xlink:href="#m30f467c668" x="252.105232" y="317.921824" style="stroke: #000000; stroke-width: 0.8"/>
      </g>
     </g>
     <g id="text_4">
      <!-- Jul 07 -->
      <g transform="translate(244.349154 348.388931) rotate(-45) scale(0.09 -0.09)">
       <defs>
        <path id="SimHei-37" d="M 850 150 
Q 1300 2050 2425 3925 
L 275 3925 
L 275 4375 
L 2950 4375 
L 2950 3950 
Q 1775 2050 1400 150 
L 850 150 
z
" transform="scale(0.015625)"/>
       </defs>
       <use xlink:href="#SimHei-4a"/>
       <use xlink:href="#SimHei-75" transform="translate(50 0)"/>
       <use xlink:href="#SimHei-6c" transform="translate(100 0)"/>
       <use xlink:href="#SimHei-20" transform="translate(150 0)"/>
       <use xlink:href="#SimHei-30" transform="translate(200 0)"/>
       <use xlink:href="#SimHei-37" transform="translate(250 0)"/>
      </g>
     </g>
    </g>
    <g id="xtick_5">
     <g id="line2d_9">
      <path d="M 312.71947 317.921824 
L 312.71947 10.264741 
" clip-path="url(#p9b88aa5d5c)" style="fill: none; stroke-dasharray: 1.48,0.64; stroke-dashoffset: 0; stroke: #21262d; stroke-width: 0.4"/>
     </g>
     <g id="line2d_10">
      <g>
       <use xlink:href="#m30f467c668" x="312.71947" y="317.921824" style="stroke: #000000; stroke-width: 0.8"/>
      </g>
     </g>
     <g id="text_5">
      <!-- Jul 09 -->
      <g transform="translate(304.963393 348.388931) rotate(-45) scale(0.09 -0.09)">
       <defs>
        <path id="SimHei-39" d="M 800 75 
Q 1350 1000 1700 1750 
Q 1075 1650 662 1912 
Q 250 2175 162 2625 
Q 75 3075 175 3437 
Q 275 3800 487 4037 
Q 700 4275 1000 4375 
Q 1300 4475 1537 4475 
Q 1775 4475 2025 4375 
Q 2275 4275 2475 4075 
Q 2675 3875 2750 3662 
Q 2825 3450 2825 3112 
Q 2825 2775 2575 2250 
Q 2325 1725 1350 75 
L 800 75 
z
M 662 2875 
Q 700 2550 937 2337 
Q 1175 2125 1450 2150 
Q 1725 2175 1887 2300 
Q 2050 2425 2200 2725 
Q 2300 3100 2250 3362 
Q 2200 3625 1987 3800 
Q 1775 3975 1525 3975 
Q 1375 4000 1137 3900 
Q 900 3800 762 3500 
Q 625 3200 662 2875 
z
" transform="scale(0.015625)"/>
       </defs>
       <use xlink:href="#SimHei-4a"/>
       <use xlink:href="#SimHei-75" transform="translate(50 0)"/>
       <use xlink:href="#SimHei-6c" transform="translate(100 0)"/>
       <use xlink:href="#SimHei-20" transform="translate(150 0)"/>
       <use xlink:href="#SimHei-30" transform="translate(200 0)"/>
       <use xlink:href="#SimHei-39" transform="translate(250 0)"/>
      </g>
     </g>
    </g>
    <g id="xtick_6">
     <g id="line2d_11">
      <path d="M 373.333708 317.921824 
L 373.333708 10.264741 
" clip-path="url(#p9b88aa5d5c)" style="fill: none; stroke-dasharray: 1.48,0.64; stroke-dashoffset: 0; stroke: #21262d; stroke-width: 0.4"/>
     </g>
     <g id="line2d_12">
      <g>
       <use xlink:href="#m30f467c668" x="373.333708" y="317.921824" style="stroke: #000000; stroke-width: 0.8"/>
      </g>
     </g>
     <g id="text_6">
      <!-- Jul 13 -->
      <g transform="translate(365.577631 348.388931) rotate(-45) scale(0.09 -0.09)">
       <defs>
        <path id="SimHei-33" d="M 250 1225 
L 700 1300 
Q 800 975 1025 762 
Q 1250 550 1587 562 
Q 1925 575 2125 837 
Q 2325 1100 2300 1437 
Q 2275 1775 2037 1962 
Q 1800 2150 1275 2225 
L 1275 2550 
Q 1800 2600 2037 2825 
Q 2275 3050 2250 3412 
Q 2225 3775 1925 3937 
Q 1625 4100 1287 3975 
Q 950 3850 750 3275 
L 300 3350 
Q 450 3800 712 4100 
Q 975 4400 1425 4450 
Q 1875 4500 2212 4337 
Q 2550 4175 2687 3837 
Q 2825 3500 2725 3100 
Q 2625 2700 2150 2400 
Q 2500 2250 2687 1950 
Q 2875 1650 2812 1162 
Q 2750 675 2375 375 
Q 2000 75 1525 87 
Q 1050 100 700 387 
Q 350 675 250 1225 
z
" transform="scale(0.015625)"/>
       </defs>
       <use xlink:href="#SimHei-4a"/>
       <use xlink:href="#SimHei-75" transform="translate(50 0)"/>
       <use xlink:href="#SimHei-6c" transform="translate(100 0)"/>
       <use xlink:href="#SimHei-20" transform="translate(150 0)"/>
       <use xlink:href="#SimHei-31" transform="translate(200 0)"/>
       <use xlink:href="#SimHei-33" transform="translate(250 0)"/>
      </g>
     </g>
    </g>
    <g id="xtick_7">
     <g id="line2d_13">
      <path d="M 433.947947 317.921824 
L 433.947947 10.264741 
" clip-path="url(#p9b88aa5d5c)" style="fill: none; stroke-dasharray: 1.48,0.64; stroke-dashoffset: 0; stroke: #21262d; stroke-width: 0.4"/>
     </g>
     <g id="line2d_14">
      <g>
       <use xlink:href="#m30f467c668" x="433.947947" y="317.921824" style="stroke: #000000; stroke-width: 0.8"/>
      </g>
     </g>
     <g id="text_7">
      <!-- Jul 16 -->
      <g transform="translate(426.191869 348.388931) rotate(-45) scale(0.09 -0.09)">
       <use xlink:href="#SimHei-4a"/>
       <use xlink:href="#SimHei-75" transform="translate(50 0)"/>
       <use xlink:href="#SimHei-6c" transform="translate(100 0)"/>
       <use xlink:href="#SimHei-20" transform="translate(150 0)"/>
       <use xlink:href="#SimHei-31" transform="translate(200 0)"/>
       <use xlink:href="#SimHei-36" transform="translate(250 0)"/>
      </g>
     </g>
    </g>
    <g id="xtick_8">
     <g id="line2d_15">
      <path d="M 494.562185 317.921824 
L 494.562185 10.264741 
" clip-path="url(#p9b88aa5d5c)" style="fill: none; stroke-dasharray: 1.48,0.64; stroke-dashoffset: 0; stroke: #21262d; stroke-width: 0.4"/>
     </g>
     <g id="line2d_16">
      <g>
       <use xlink:href="#m30f467c668" x="494.562185" y="317.921824" style="stroke: #000000; stroke-width: 0.8"/>
      </g>
     </g>
     <g id="text_8">
      <!-- Jul 21 -->
      <g transform="translate(486.806108 348.388931) rotate(-45) scale(0.09 -0.09)">
       <use xlink:href="#SimHei-4a"/>
       <use xlink:href="#SimHei-75" transform="translate(50 0)"/>
       <use xlink:href="#SimHei-6c" transform="translate(100 0)"/>
       <use xlink:href="#SimHei-20" transform="translate(150 0)"/>
       <use xlink:href="#SimHei-32" transform="translate(200 0)"/>
       <use xlink:href="#SimHei-31" transform="translate(250 0)"/>
      </g>
     </g>
    </g>
   </g>
   <g id="matplotlib.axis_2">
    <g id="ytick_1">
     <g id="line2d_17">
      <path d="M 59.897482 277.455443 
L 541.295763 277.455443 
" clip-path="url(#p9b88aa5d5c)" style="fill: none; stroke-dasharray: 1.48,0.64; stroke-dashoffset: 0; stroke: #21262d; stroke-width: 0.4"/>
     </g>
     <g id="line2d_18">
      <defs>
       <path id="m3ab0611e59" d="M 0 0 
L 3.5 0 
" style="stroke: #000000; stroke-width: 0.8"/>
      </defs>
      <g>
       <use xlink:href="#m3ab0611e59" x="541.295763" y="277.455443" style="stroke: #000000; stroke-width: 0.8"/>
      </g>
     </g>
     <g id="text_9">
      <!-- 4.40 -->
      <g transform="translate(548.295763 280.549193) scale(0.09 -0.09)">
       <defs>
        <path id="SimHei-2e" d="M 1075 125 
L 500 125 
L 500 675 
L 1075 675 
L 1075 125 
z
" transform="scale(0.015625)"/>
       </defs>
       <use xlink:href="#SimHei-34"/>
       <use xlink:href="#SimHei-2e" transform="translate(50 0)"/>
       <use xlink:href="#SimHei-34" transform="translate(100 0)"/>
       <use xlink:href="#SimHei-30" transform="translate(150 0)"/>
      </g>
     </g>
    </g>
    <g id="ytick_2">
     <g id="line2d_19">
      <path d="M 59.897482 226.847266 
L 541.295763 226.847266 
" clip-path="url(#p9b88aa5d5c)" style="fill: none; stroke-dasharray: 1.48,0.64; stroke-dashoffset: 0; stroke: #21262d; stroke-width: 0.4"/>
     </g>
     <g id="line2d_20">
      <g>
       <use xlink:href="#m3ab0611e59" x="541.295763" y="226.847266" style="stroke: #000000; stroke-width: 0.8"/>
      </g>
     </g>
     <g id="text_10">
      <!-- 4.45 -->
      <g transform="translate(548.295763 229.941016) scale(0.09 -0.09)">
       <defs>
        <path id="SimHei-35" d="M 550 1325 
Q 725 650 1150 575 
Q 1575 500 1837 662 
Q 2100 825 2212 1087 
Q 2325 1350 2312 1675 
Q 2300 2000 2137 2225 
Q 1975 2450 1725 2525 
Q 1475 2600 1162 2525 
Q 850 2450 650 2175 
L 225 2225 
Q 275 2375 700 4375 
L 2675 4375 
L 2675 3925 
L 1075 3925 
Q 950 3250 825 2850 
Q 1200 3025 1525 3012 
Q 1850 3000 2150 2862 
Q 2450 2725 2587 2487 
Q 2725 2250 2787 2012 
Q 2850 1775 2837 1500 
Q 2825 1225 2725 937 
Q 2625 650 2425 462 
Q 2225 275 1937 162 
Q 1650 50 1275 75 
Q 900 100 562 350 
Q 225 600 100 1200 
L 550 1325 
z
" transform="scale(0.015625)"/>
       </defs>
       <use xlink:href="#SimHei-34"/>
       <use xlink:href="#SimHei-2e" transform="translate(50 0)"/>
       <use xlink:href="#SimHei-34" transform="translate(100 0)"/>
       <use xlink:href="#SimHei-35" transform="translate(150 0)"/>
      </g>
     </g>
    </g>
    <g id="ytick_3">
     <g id="line2d_21">
      <path d="M 59.897482 176.239089 
L 541.295763 176.239089 
" clip-path="url(#p9b88aa5d5c)" style="fill: none; stroke-dasharray: 1.48,0.64; stroke-dashoffset: 0; stroke: #21262d; stroke-width: 0.4"/>
     </g>
     <g id="line2d_22">
      <g>
       <use xlink:href="#m3ab0611e59" x="541.295763" y="176.239089" style="stroke: #000000; stroke-width: 0.8"/>
      </g>
     </g>
     <g id="text_11">
      <!-- 4.50 -->
      <g transform="translate(548.295763 179.332839) scale(0.09 -0.09)">
       <use xlink:href="#SimHei-34"/>
       <use xlink:href="#SimHei-2e" transform="translate(50 0)"/>
       <use xlink:href="#SimHei-35" transform="translate(100 0)"/>
       <use xlink:href="#SimHei-30" transform="translate(150 0)"/>
      </g>
     </g>
    </g>
    <g id="ytick_4">
     <g id="line2d_23">
      <path d="M 59.897482 125.630912 
L 541.295763 125.630912 
" clip-path="url(#p9b88aa5d5c)" style="fill: none; stroke-dasharray: 1.48,0.64; stroke-dashoffset: 0; stroke: #21262d; stroke-width: 0.4"/>
     </g>
     <g id="line2d_24">
      <g>
       <use xlink:href="#m3ab0611e59" x="541.295763" y="125.630912" style="stroke: #000000; stroke-width: 0.8"/>
      </g>
     </g>
     <g id="text_12">
      <!-- 4.55 -->
      <g transform="translate(548.295763 128.724662) scale(0.09 -0.09)">
       <use xlink:href="#SimHei-34"/>
       <use xlink:href="#SimHei-2e" transform="translate(50 0)"/>
       <use xlink:href="#SimHei-35" transform="translate(100 0)"/>
       <use xlink:href="#SimHei-35" transform="translate(150 0)"/>
      </g>
     </g>
    </g>
    <g id="ytick_5">
     <g id="line2d_25">
      <path d="M 59.897482 75.022735 
L 541.295763 75.022735 
" clip-path="url(#p9b88aa5d5c)" style="fill: none; stroke-dasharray: 1.48,0.64; stroke-dashoffset: 0; stroke: #21262d; stroke-width: 0.4"/>
     </g>
     <g id="line2d_26">
      <g>
       <use xlink:href="#m3ab0611e59" x="541.295763" y="75.022735" style="stroke: #000000; stroke-width: 0.8"/>
      </g>
     </g>
     <g id="text_13">
      <!-- 4.60 -->
      <g transform="translate(548.295763 78.116485) scale(0.09 -0.09)">
       <use xlink:href="#SimHei-34"/>
       <use xlink:href="#SimHei-2e" transform="translate(50 0)"/>
       <use xlink:href="#SimHei-36" transform="translate(100 0)"/>
       <use xlink:href="#SimHei-30" transform="translate(150 0)"/>
      </g>
     </g>
    </g>
    <g id="ytick_6">
     <g id="line2d_27">
      <path d="M 59.897482 24.414558 
L 541.295763 24.414558 
" clip-path="url(#p9b88aa5d5c)" style="fill: none; stroke-dasharray: 1.48,0.64; stroke-dashoffset: 0; stroke: #21262d; stroke-width: 0.4"/>
     </g>
     <g id="line2d_28">
      <g>
       <use xlink:href="#m3ab0611e59" x="541.295763" y="24.414558" style="stroke: #000000; stroke-width: 0.8"/>
      </g>
     </g>
     <g id="text_14">
      <!-- 4.65 -->
      <g transform="translate(548.295763 27.508308) scale(0.09 -0.09)">
       <use xlink:href="#SimHei-34"/>
       <use xlink:href="#SimHei-2e" transform="translate(50 0)"/>
       <use xlink:href="#SimHei-36" transform="translate(100 0)"/>
       <use xlink:href="#SimHei-35" transform="translate(150 0)"/>
      </g>
     </g>
    </g>
    <g id="text_15">
     <!-- 价格 -->
     <g transform="translate(578.817638 174.893282) rotate(-90) scale(0.108 -0.108)">
      <defs>
       <path id="SimHei-4ef7" d="M 2200 4975 
Q 2050 4725 1650 3775 
L 1650 450 
Q 1650 -225 1675 -650 
L 1175 -650 
Q 1175 -225 1200 450 
L 1200 2975 
Q 900 2425 650 2100 
Q 525 2275 225 2450 
Q 750 3025 1125 3800 
Q 1500 4575 1625 5175 
Q 1950 5025 2200 4975 
z
M 4175 4700 
Q 4850 3525 6150 2950 
Q 5925 2750 5775 2500 
Q 4725 3100 3950 4300 
Q 3300 3125 2250 2350 
Q 2125 2525 1900 2725 
Q 2825 3325 3250 4050 
Q 3675 4775 3750 5150 
Q 4150 4950 4325 4900 
L 4175 4700 
z
M 3475 2650 
Q 3400 2075 3325 1087 
Q 3250 100 2325 -675 
Q 2175 -450 1925 -300 
Q 2850 350 2912 1262 
Q 2975 2175 2950 2700 
Q 3275 2650 3475 2650 
z
M 5075 2700 
Q 5050 2150 5050 1725 
L 5050 150 
Q 5050 -225 5075 -650 
L 4550 -650 
Q 4575 -225 4575 175 
L 4575 1875 
Q 4575 2150 4550 2700 
L 5075 2700 
z
" transform="scale(0.015625)"/>
       <path id="SimHei-683c" d="M 4075 4875 
Q 3975 4750 3750 4350 
L 5625 4350 
Q 5450 3850 5212 3437 
Q 4975 3025 4650 2650 
Q 4950 2450 5412 2287 
Q 5875 2125 6150 2100 
Q 5975 1900 5875 1600 
Q 5550 1725 5125 1912 
Q 4700 2100 4300 2400 
Q 3925 2125 3537 1937 
Q 3150 1750 2575 1550 
Q 2475 1775 2300 1925 
Q 2825 2050 3262 2250 
Q 3700 2450 3975 2675 
Q 3625 3050 3325 3575 
Q 3175 3350 2875 2950 
Q 2700 3100 2475 3200 
Q 2825 3550 3112 4075 
Q 3400 4600 3550 5100 
Q 3775 4950 4075 4875 
z
M 5575 1650 
Q 5550 1350 5550 575 
Q 5550 -200 5575 -575 
L 5050 -575 
L 5050 -175 
L 3500 -175 
L 3500 -600 
L 2975 -600 
Q 3000 -200 3000 550 
Q 3000 1325 2975 1650 
L 5575 1650 
z
M 1850 5100 
Q 1825 4775 1825 4475 
L 1825 3825 
Q 2300 3825 2525 3850 
L 2525 3400 
Q 2300 3425 1825 3425 
L 1825 2725 
Q 1950 2800 2125 2950 
Q 2350 2600 2550 2200 
Q 2350 2075 2175 1950 
Q 1975 2375 1825 2625 
L 1825 275 
Q 1825 -275 1850 -625 
L 1350 -625 
Q 1375 -275 1375 275 
L 1375 2425 
Q 1150 1850 625 850 
Q 475 1025 250 1150 
Q 650 1775 900 2375 
Q 1150 2975 1250 3425 
Q 900 3425 475 3400 
L 475 3850 
Q 925 3825 1375 3825 
L 1375 4475 
Q 1375 4750 1350 5100 
L 1850 5100 
z
M 5050 200 
L 5050 1275 
L 3500 1275 
L 3500 200 
L 5050 200 
z
M 4300 2925 
Q 4675 3300 4975 3975 
L 3550 3975 
Q 3850 3350 4300 2925 
z
" transform="scale(0.015625)"/>
      </defs>
      <use xlink:href="#SimHei-4ef7"/>
      <use xlink:href="#SimHei-683c" transform="translate(100 0)"/>
     </g>
    </g>
   </g>
   <g id="PolyCollection_1">
    <path d="M 62.382666 223.810705 
L 62.382666 275.431166 
L 78.142368 275.431166 
L 78.142368 223.810705 
z
" clip-path="url(#p9b88aa5d5c)" style="fill: #f85149; fill-opacity: 0.9; stroke: #f85149"/>
    <path d="M 86.628361 265.309299 
L 86.628361 285.55255 
L 102.388063 285.55255 
L 102.388063 265.309299 
z
" clip-path="url(#p9b88aa5d5c)" style="fill: #f85149; fill-opacity: 0.9; stroke: #f85149"/>
    <path d="M 110.874056 289.601394 
L 110.874056 305.795802 
L 126.633758 305.795802 
L 126.633758 289.601394 
z
" clip-path="url(#p9b88aa5d5c)" style="fill: #f85149; fill-opacity: 0.9; stroke: #f85149"/>
    <path d="M 135.119752 299.723261 
L 135.119752 303.771621 
L 150.879454 303.771621 
L 150.879454 299.723261 
z
" clip-path="url(#p9b88aa5d5c)" style="fill: #f85149; fill-opacity: 0.9; stroke: #f85149"/>
    <path d="M 159.365447 285.55255 
L 159.365447 259.236275 
L 175.125149 259.236275 
L 175.125149 285.55255 
z
" clip-path="url(#p9b88aa5d5c)" style="fill: #3fb950; fill-opacity: 0.9; stroke: #3fb950"/>
    <path d="M 183.611142 193.44607 
L 183.611142 201.543274 
L 199.370844 201.543274 
L 199.370844 193.44607 
z
" clip-path="url(#p9b88aa5d5c)" style="fill: #f85149; fill-opacity: 0.9; stroke: #f85149"/>
    <path d="M 207.856838 173.202818 
L 207.856838 191.421407 
L 223.61654 191.421407 
L 223.61654 173.202818 
z
" clip-path="url(#p9b88aa5d5c)" style="fill: #f85149; fill-opacity: 0.9; stroke: #f85149"/>
    <path d="M 232.102533 219.762345 
L 232.102533 197.49443 
L 247.862235 197.49443 
L 247.862235 219.762345 
z
" clip-path="url(#p9b88aa5d5c)" style="fill: #3fb950; fill-opacity: 0.9; stroke: #3fb950"/>
    <path d="M 256.348228 179.275359 
L 256.348228 146.886543 
L 272.10793 146.886543 
L 272.10793 179.275359 
z
" clip-path="url(#p9b88aa5d5c)" style="fill: #3fb950; fill-opacity: 0.9; stroke: #3fb950"/>
    <path d="M 280.593924 114.497244 
L 280.593924 106.40004 
L 296.353626 106.40004 
L 296.353626 114.497244 
z
" clip-path="url(#p9b88aa5d5c)" style="fill: #3fb950; fill-opacity: 0.9; stroke: #3fb950"/>
    <path d="M 304.839619 98.302353 
L 304.839619 136.764676 
L 320.599321 136.764676 
L 320.599321 98.302353 
z
" clip-path="url(#p9b88aa5d5c)" style="fill: #f85149; fill-opacity: 0.9; stroke: #f85149"/>
    <path d="M 329.085314 134.740495 
L 329.085314 106.40004 
L 344.845016 106.40004 
L 344.845016 134.740495 
z
" clip-path="url(#p9b88aa5d5c)" style="fill: #3fb950; fill-opacity: 0.9; stroke: #3fb950"/>
    <path d="M 353.33101 90.205149 
L 353.33101 65.913054 
L 369.090712 65.913054 
L 369.090712 90.205149 
z
" clip-path="url(#p9b88aa5d5c)" style="fill: #3fb950; fill-opacity: 0.9; stroke: #3fb950"/>
    <path d="M 377.576705 60.852603 
L 377.576705 90.205149 
L 393.336407 90.205149 
L 393.336407 60.852603 
z
" clip-path="url(#p9b88aa5d5c)" style="fill: #f85149; fill-opacity: 0.9; stroke: #f85149"/>
    <path d="M 401.8224 66.925627 
L 401.8224 130.691652 
L 417.582102 130.691652 
L 417.582102 66.925627 
z
" clip-path="url(#p9b88aa5d5c)" style="fill: #f85149; fill-opacity: 0.9; stroke: #f85149"/>
    <path d="M 426.068096 93.241902 
L 426.068096 106.40004 
L 441.827798 106.40004 
L 441.827798 93.241902 
z
" clip-path="url(#p9b88aa5d5c)" style="fill: #f85149; fill-opacity: 0.9; stroke: #f85149"/>
    <path d="M 450.313791 154.983747 
L 450.313791 134.740495 
L 466.073493 134.740495 
L 466.073493 154.983747 
z
" clip-path="url(#p9b88aa5d5c)" style="fill: #3fb950; fill-opacity: 0.9; stroke: #3fb950"/>
    <path d="M 474.559487 109.43631 
L 474.559487 77.047011 
L 490.319188 77.047011 
L 490.319188 109.43631 
z
" clip-path="url(#p9b88aa5d5c)" style="fill: #3fb950; fill-opacity: 0.9; stroke: #3fb950"/>
    <path d="M 498.805182 75.022831 
L 498.805182 46.682376 
L 514.564884 46.682376 
L 514.564884 75.022831 
z
" clip-path="url(#p9b88aa5d5c)" style="fill: #3fb950; fill-opacity: 0.9; stroke: #3fb950"/>
    <path d="M 523.050877 34.536328 
L 523.050877 17.329347 
L 538.810579 17.329347 
L 538.810579 34.536328 
z
" clip-path="url(#p9b88aa5d5c)" style="fill: #3fb950; fill-opacity: 0.9; stroke: #3fb950"/>
   </g>
   <g id="LineCollection_1">
    <path d="M 70.262517 279.480009 
L 70.262517 275.431166 
" clip-path="url(#p9b88aa5d5c)" style="fill: none; stroke: #f85149"/>
    <path d="M 94.508212 314.905579 
L 94.508212 285.55255 
" clip-path="url(#p9b88aa5d5c)" style="fill: none; stroke: #f85149"/>
    <path d="M 118.753907 310.856735 
L 118.753907 305.795802 
" clip-path="url(#p9b88aa5d5c)" style="fill: none; stroke: #f85149"/>
    <path d="M 142.999603 310.856735 
L 142.999603 303.771621 
" clip-path="url(#p9b88aa5d5c)" style="fill: none; stroke: #f85149"/>
    <path d="M 167.245298 289.601394 
L 167.245298 285.55255 
" clip-path="url(#p9b88aa5d5c)" style="fill: none; stroke: #3fb950"/>
    <path d="M 191.490993 219.762345 
L 191.490993 201.543274 
" clip-path="url(#p9b88aa5d5c)" style="fill: none; stroke: #f85149"/>
    <path d="M 215.736689 223.810705 
L 215.736689 191.421407 
" clip-path="url(#p9b88aa5d5c)" style="fill: none; stroke: #f85149"/>
    <path d="M 239.982384 219.762345 
L 239.982384 219.762345 
" clip-path="url(#p9b88aa5d5c)" style="fill: none; stroke: #3fb950"/>
    <path d="M 264.228079 191.421407 
L 264.228079 179.275359 
" clip-path="url(#p9b88aa5d5c)" style="fill: none; stroke: #3fb950"/>
    <path d="M 288.473775 118.545605 
L 288.473775 114.497244 
" clip-path="url(#p9b88aa5d5c)" style="fill: none; stroke: #3fb950"/>
    <path d="M 312.71947 146.886543 
L 312.71947 136.764676 
" clip-path="url(#p9b88aa5d5c)" style="fill: none; stroke: #f85149"/>
    <path d="M 336.965165 136.764676 
L 336.965165 134.740495 
" clip-path="url(#p9b88aa5d5c)" style="fill: none; stroke: #3fb950"/>
    <path d="M 361.210861 102.351197 
L 361.210861 90.205149 
" clip-path="url(#p9b88aa5d5c)" style="fill: none; stroke: #3fb950"/>
    <path d="M 385.456556 150.934904 
L 385.456556 90.205149 
" clip-path="url(#p9b88aa5d5c)" style="fill: none; stroke: #f85149"/>
    <path d="M 409.702251 136.764676 
L 409.702251 130.691652 
" clip-path="url(#p9b88aa5d5c)" style="fill: none; stroke: #f85149"/>
    <path d="M 433.947947 114.497244 
L 433.947947 106.40004 
" clip-path="url(#p9b88aa5d5c)" style="fill: none; stroke: #f85149"/>
    <path d="M 458.193642 165.105131 
L 458.193642 154.983747 
" clip-path="url(#p9b88aa5d5c)" style="fill: none; stroke: #3fb950"/>
    <path d="M 482.439337 115.509334 
L 482.439337 109.43631 
" clip-path="url(#p9b88aa5d5c)" style="fill: none; stroke: #3fb950"/>
    <path d="M 506.685033 77.047011 
L 506.685033 75.022831 
" clip-path="url(#p9b88aa5d5c)" style="fill: none; stroke: #3fb950"/>
    <path d="M 530.930728 42.633532 
L 530.930728 34.536328 
" clip-path="url(#p9b88aa5d5c)" style="fill: none; stroke: #3fb950"/>
    <path d="M 70.262517 221.786525 
L 70.262517 223.810705 
" clip-path="url(#p9b88aa5d5c)" style="fill: none; stroke: #f85149"/>
    <path d="M 94.508212 263.285118 
L 94.508212 265.309299 
" clip-path="url(#p9b88aa5d5c)" style="fill: none; stroke: #f85149"/>
    <path d="M 118.753907 267.333962 
L 118.753907 289.601394 
" clip-path="url(#p9b88aa5d5c)" style="fill: none; stroke: #f85149"/>
    <path d="M 142.999603 287.577213 
L 142.999603 299.723261 
" clip-path="url(#p9b88aa5d5c)" style="fill: none; stroke: #f85149"/>
    <path d="M 167.245298 255.187914 
L 167.245298 259.236275 
" clip-path="url(#p9b88aa5d5c)" style="fill: none; stroke: #3fb950"/>
    <path d="M 191.490993 175.226998 
L 191.490993 193.44607 
" clip-path="url(#p9b88aa5d5c)" style="fill: none; stroke: #f85149"/>
    <path d="M 215.736689 171.178155 
L 215.736689 173.202818 
" clip-path="url(#p9b88aa5d5c)" style="fill: none; stroke: #f85149"/>
    <path d="M 239.982384 185.348383 
L 239.982384 197.49443 
" clip-path="url(#p9b88aa5d5c)" style="fill: none; stroke: #3fb950"/>
    <path d="M 264.228079 142.8377 
L 264.228079 146.886543 
" clip-path="url(#p9b88aa5d5c)" style="fill: none; stroke: #3fb950"/>
    <path d="M 288.473775 78.059102 
L 288.473775 106.40004 
" clip-path="url(#p9b88aa5d5c)" style="fill: none; stroke: #3fb950"/>
    <path d="M 312.71947 94.253992 
L 312.71947 98.302353 
" clip-path="url(#p9b88aa5d5c)" style="fill: none; stroke: #f85149"/>
    <path d="M 336.965165 104.375377 
L 336.965165 106.40004 
" clip-path="url(#p9b88aa5d5c)" style="fill: none; stroke: #3fb950"/>
    <path d="M 361.210861 56.80376 
L 361.210861 65.913054 
" clip-path="url(#p9b88aa5d5c)" style="fill: none; stroke: #3fb950"/>
    <path d="M 385.456556 60.852603 
L 385.456556 60.852603 
" clip-path="url(#p9b88aa5d5c)" style="fill: none; stroke: #f85149"/>
    <path d="M 409.702251 64.900964 
L 409.702251 66.925627 
" clip-path="url(#p9b88aa5d5c)" style="fill: none; stroke: #f85149"/>
    <path d="M 433.947947 79.071192 
L 433.947947 93.241902 
" clip-path="url(#p9b88aa5d5c)" style="fill: none; stroke: #f85149"/>
    <path d="M 458.193642 125.630719 
L 458.193642 134.740495 
" clip-path="url(#p9b88aa5d5c)" style="fill: none; stroke: #3fb950"/>
    <path d="M 482.439337 66.925627 
L 482.439337 77.047011 
" clip-path="url(#p9b88aa5d5c)" style="fill: none; stroke: #3fb950"/>
    <path d="M 506.685033 34.536328 
L 506.685033 46.682376 
" clip-path="url(#p9b88aa5d5c)" style="fill: none; stroke: #3fb950"/>
    <path d="M 530.930728 13.280986 
L 530.930728 17.329347 
" clip-path="url(#p9b88aa5d5c)" style="fill: none; stroke: #3fb950"/>
   </g>
   <g id="patch_3">
    <path d="M 59.897482 317.921824 
L 59.897482 10.264741 
" style="fill: none; stroke: #30363d; stroke-width: 1.5; stroke-linejoin: miter; stroke-linecap: square"/>
   </g>
   <g id="patch_4">
    <path d="M 541.295763 317.921824 
L 541.295763 10.264741 
" style="fill: none; stroke: #30363d; stroke-width: 1.5; stroke-linejoin: miter; stroke-linecap: square"/>
   </g>
   <g id="patch_5">
    <path d="M 59.897482 317.921824 
L 541.295763 317.921824 
" style="fill: none; stroke: #30363d; stroke-width: 1.5; stroke-linejoin: miter; stroke-linecap: square"/>
   </g>
   <g id="patch_6">
    <path d="M 59.897482 10.264741 
L 541.295763 10.264741 
" style="fill: none; stroke: #30363d; stroke-width: 1.5; stroke-linejoin: miter; stroke-linecap: square"/>
   </g>
  </g>
  <g id="text_16">
   <!-- ^TNX -->
   <g transform="translate(264.343157 37.585606) scale(0.1296 -0.1296)">
    <defs>
     <path id="SimHei-5e" d="M 2750 4125 
L 2300 4125 
L 1550 4750 
L 800 4125 
L 350 4125 
L 1250 5150 
L 1850 5150 
L 2750 4125 
z
" transform="scale(0.015625)"/>
     <path id="SimHei-54" d="M 2850 3925 
L 1850 3925 
L 1850 125 
L 1275 125 
L 1275 3925 
L 275 3925 
L 275 4400 
L 2850 4400 
L 2850 3925 
z
" transform="scale(0.015625)"/>
     <path id="SimHei-4e" d="M 2850 125 
L 2225 125 
L 850 3225 
L 825 3225 
L 825 125 
L 250 125 
L 250 4400 
L 875 4400 
L 2250 1300 
L 2275 1300 
L 2275 4400 
L 2850 4400 
L 2850 125 
z
" transform="scale(0.015625)"/>
     <path id="SimHei-58" d="M 3000 125 
L 2400 125 
L 1550 1875 
L 700 125 
L 100 125 
L 1275 2375 
L 225 4400 
L 825 4400 
L 1550 2850 
L 2275 4400 
L 2875 4400 
L 1825 2375 
L 3000 125 
z
" transform="scale(0.015625)"/>
    </defs>
    <use xlink:href="#SimHei-5e"/>
    <use xlink:href="#SimHei-54" transform="translate(50 0)"/>
    <use xlink:href="#SimHei-4e" transform="translate(100 0)"/>
    <use xlink:href="#SimHei-58" transform="translate(150 0)"/>
   </g>
  </g>
 </g>
 <defs>
  <clipPath id="p9b88aa5d5c">
   <rect x="59.897482" y="10.264741" width="481.398281" height="307.657084"/>
  </clipPath>
 </defs>
</svg>
