<?xml version="1.0" encoding="utf-8" standalone="no"?>
<!DOCTYPE svg PUBLIC "-//W3C//DTD SVG 1.1//EN"
  "http://www.w3.org/Graphics/SVG/1.1/DTD/svg11.dtd">
<svg xmlns:xlink="http://www.w3.org/1999/xlink" width="215.914273pt" height="142.005257pt" viewBox="0 0 215.914273 142.005257" xmlns="http://www.w3.org/2000/svg" version="1.1">
 <metadata>
  <rdf:RDF xmlns:dc="http://purl.org/dc/elements/1.1/" xmlns:cc="http://creativecommons.org/ns#" xmlns:rdf="http://www.w3.org/1999/02/22-rdf-syntax-ns#">
   <cc:Work>
    <dc:type rdf:resource="http://purl.org/dc/dcmitype/StillImage"/>
    <dc:date>2026-07-21T10:29:26.995894</dc:date>
    <dc:format>image/svg+xml</dc:format>
    <dc:creator>
     <cc:Agent>
      <dc:title>Matplotlib v3.10.9, https://matplotlib.org/</dc:title>
     </cc:Agent>
    </dc:creator>
   </cc:Work>
  </rdf:RDF>
 </metadata>
 <defs>
  <style type="text/css">*{stroke-linejoin: round; stroke-linecap: butt}</style>
 </defs>
 <g id="figure_1">
  <g id="patch_1">
   <path d="M 0 142.005257 
L 215.914273 142.005257 
L 215.914273 0 
L 0 0 
z
" style="fill: #0d1117"/>
  </g>
  <g id="axes_1">
   <g id="patch_2">
    <path d="M 26.171094 119.059857 
L 199.474475 119.059857 
L 199.474475 8.303307 
L 26.171094 8.303307 
z
" style="fill: #0d1117"/>
   </g>
   <g id="matplotlib.axis_1">
    <g id="xtick_1">
     <g id="line2d_1">
      <path d="M 72.972861 103.125257 
L 72.972861 -1 
" clip-path="url(#p7cb0c49367)" style="fill: none; stroke-dasharray: 1.48,0.64; stroke-dashoffset: 0; stroke: #21262d; stroke-width: 0.4"/>
     </g>
     <g id="line2d_2">
      <defs>
       <path id="m21a4af2ae8" d="M 0 0 
L 0 3.5 
" style="stroke: #000000; stroke-width: 0.8"/>
      </defs>
      <g>
       <use xlink:href="#m21a4af2ae8" x="72.972861" y="103.125257" style="stroke: #000000; stroke-width: 0.8"/>
      </g>
     </g>
     <g id="text_1">
      <!-- Jun 22 -->
      <g transform="translate(65.216784 133.592363) rotate(-45) scale(0.09 -0.09)">
       <defs>
        <path id="SimHei-4a" d="M 2800 1550 
Q 2800 775 2462 425 
Q 2125 75 1550 75 
Q 1025 75 675 412 
Q 325 750 325 1500 
L 325 1775 
L 900 1775 
L 900 1425 
Q 900 975 1087 787 
Q 1275 600 1525 600 
Q 1875 600 2050 800 
Q 2225 1000 2225 1525 
L 2225 4400 
L 2800 4400 
L 2800 1550 
z
" transform="scale(0.015625)"/>
        <path id="SimHei-75" d="M 2800 125 
L 2300 125 
L 2300 650 
Q 2100 375 1862 225 
Q 1625 75 1250 75 
Q 800 75 575 325 
Q 350 575 350 950 
L 350 2925 
L 850 2925 
L 850 1125 
Q 850 825 1000 650 
Q 1150 475 1400 475 
Q 1725 475 2012 812 
Q 2300 1150 2300 1650 
L 2300 2925 
L 2800 2925 
L 2800 125 
z
" transform="scale(0.015625)"/>
        <path id="SimHei-6e" d="M 2800 125 
L 2300 125 
L 2300 1925 
Q 2300 2225 2150 2400 
Q 2000 2575 1750 2575 
Q 1425 2575 1137 2237 
Q 850 1900 850 1400 
L 850 125 
L 350 125 
L 350 2925 
L 850 2925 
L 850 2400 
Q 1050 2675 1287 2825 
Q 1525 2975 1900 2975 
Q 2350 2975 2575 2725 
Q 2800 2475 2800 2100 
L 2800 125 
z
" transform="scale(0.015625)"/>
        <path id="SimHei-20" transform="scale(0.015625)"/>
        <path id="SimHei-32" d="M 300 250 
Q 325 625 650 925 
Q 975 1225 1475 1862 
Q 1975 2500 2125 2850 
Q 2275 3200 2237 3450 
Q 2200 3700 2000 3862 
Q 1800 4025 1537 4000 
Q 1275 3975 1037 3800 
Q 800 3625 675 3275 
L 200 3350 
Q 400 3925 712 4187 
Q 1025 4450 1450 4475 
Q 1700 4500 1900 4462 
Q 2100 4425 2312 4287 
Q 2525 4150 2662 3875 
Q 2800 3600 2762 3212 
Q 2725 2825 2375 2287 
Q 2025 1750 1025 600 
L 2825 600 
L 2825 150 
L 300 150 
L 300 250 
z
" transform="scale(0.015625)"/>
       </defs>
       <use xlink:href="#SimHei-4a"/>
       <use xlink:href="#SimHei-75" transform="translate(50 0)"/>
       <use xlink:href="#SimHei-6e" transform="translate(100 0)"/>
       <use xlink:href="#SimHei-20" transform="translate(150 0)"/>
       <use xlink:href="#SimHei-32" transform="translate(200 0)"/>
       <use xlink:href="#SimHei-32" transform="translate(250 0)"/>
      </g>
     </g>
    </g>
    <g id="xtick_2">
     <g id="line2d_3">
      <path d="M 198.877671 103.125257 
L 198.877671 -1 
" clip-path="url(#p7cb0c49367)" style="fill: none; stroke-dasharray: 1.48,0.64; stroke-dashoffset: 0; stroke: #21262d; stroke-width: 0.4"/>
     </g>
     <g id="line2d_4">
      <g>
       <use xlink:href="#m21a4af2ae8" x="198.877671" y="103.125257" style="stroke: #000000; stroke-width: 0.8"/>
      </g>
     </g>
     <g id="text_2">
      <!-- Jun 29 -->
      <g transform="translate(191.121594 133.592363) rotate(-45) scale(0.09 -0.09)">
       <defs>
        <path id="SimHei-39" d="M 800 75 
Q 1350 1000 1700 1750 
Q 1075 1650 662 1912 
Q 250 2175 162 2625 
Q 75 3075 175 3437 
Q 275 3800 487 4037 
Q 700 4275 1000 4375 
Q 1300 4475 1537 4475 
Q 1775 4475 2025 4375 
Q 2275 4275 2475 4075 
Q 2675 3875 2750 3662 
Q 2825 3450 2825 3112 
Q 2825 2775 2575 2250 
Q 2325 1725 1350 75 
L 800 75 
z
M 662 2875 
Q 700 2550 937 2337 
Q 1175 2125 1450 2150 
Q 1725 2175 1887 2300 
Q 2050 2425 2200 2725 
Q 2300 3100 2250 3362 
Q 2200 3625 1987 3800 
Q 1775 3975 1525 3975 
Q 1375 4000 1137 3900 
Q 900 3800 762 3500 
Q 625 3200 662 2875 
z
" transform="scale(0.015625)"/>
       </defs>
       <use xlink:href="#SimHei-4a"/>
       <use xlink:href="#SimHei-75" transform="translate(50 0)"/>
       <use xlink:href="#SimHei-6e" transform="translate(100 0)"/>
       <use xlink:href="#SimHei-20" transform="translate(150 0)"/>
       <use xlink:href="#SimHei-32" transform="translate(200 0)"/>
       <use xlink:href="#SimHei-39" transform="translate(250 0)"/>
      </g>
     </g>
    </g>
    <g id="xtick_3">
     <g id="line2d_5">
      <path clip-path="url(#p7cb0c49367)" style="fill: none; stroke-dasharray: 1.48,0.64; stroke-dashoffset: 0; stroke: #21262d; stroke-width: 0.4"/>
     </g>
     <g id="line2d_6">
      <g>
       <use xlink:href="#m21a4af2ae8" x="324.782481" y="103.125257" style="stroke: #000000; stroke-width: 0.8"/>
      </g>
     </g>
     <g id="text_3">
      <!-- Jul 07 -->
      <g transform="translate(317.026403 133.592363) rotate(-45) scale(0.09 -0.09)">
       <defs>
        <path id="SimHei-6c" d="M 1825 125 
L 1325 125 
L 1325 4400 
L 1825 4400 
L 1825 125 
z
" transform="scale(0.015625)"/>
        <path id="SimHei-30" d="M 225 2537 
Q 250 3200 412 3587 
Q 575 3975 875 4225 
Q 1175 4475 1612 4475 
Q 2050 4475 2375 4112 
Q 2700 3750 2800 3200 
Q 2900 2650 2862 1937 
Q 2825 1225 2612 775 
Q 2400 325 1975 150 
Q 1550 -25 1125 187 
Q 700 400 525 750 
Q 350 1100 275 1487 
Q 200 1875 225 2537 
z
M 750 2687 
Q 675 2000 800 1462 
Q 925 925 1212 700 
Q 1500 475 1800 612 
Q 2100 750 2237 1162 
Q 2375 1575 2375 2062 
Q 2375 2550 2337 2950 
Q 2300 3350 2112 3675 
Q 1925 4000 1612 4012 
Q 1300 4025 1062 3700 
Q 825 3375 750 2687 
z
" transform="scale(0.015625)"/>
        <path id="SimHei-37" d="M 850 150 
Q 1300 2050 2425 3925 
L 275 3925 
L 275 4375 
L 2950 4375 
L 2950 3950 
Q 1775 2050 1400 150 
L 850 150 
z
" transform="scale(0.015625)"/>
       </defs>
       <use xlink:href="#SimHei-4a"/>
       <use xlink:href="#SimHei-75" transform="translate(50 0)"/>
       <use xlink:href="#SimHei-6c" transform="translate(100 0)"/>
       <use xlink:href="#SimHei-20" transform="translate(150 0)"/>
       <use xlink:href="#SimHei-30" transform="translate(200 0)"/>
       <use xlink:href="#SimHei-37" transform="translate(250 0)"/>
      </g>
     </g>
    </g>
    <g id="xtick_4">
     <g id="line2d_7">
      <path clip-path="url(#p7cb0c49367)" style="fill: none; stroke-dasharray: 1.48,0.64; stroke-dashoffset: 0; stroke: #21262d; stroke-width: 0.4"/>
     </g>
     <g id="line2d_8">
      <g>
       <use xlink:href="#m21a4af2ae8" x="450.687291" y="103.125257" style="stroke: #000000; stroke-width: 0.8"/>
      </g>
     </g>
     <g id="text_4">
      <!-- Jul 14 -->
      <g transform="translate(442.931213 133.592363) rotate(-45) scale(0.09 -0.09)">
       <defs>
        <path id="SimHei-31" d="M 1400 3600 
Q 1075 3275 575 2975 
L 575 3450 
Q 1200 3875 1600 4450 
L 1900 4450 
L 1900 150 
L 1400 150 
L 1400 3600 
z
" transform="scale(0.015625)"/>
        <path id="SimHei-34" d="M 2000 1100 
L 75 1100 
L 75 1525 
L 2100 4450 
L 2475 4450 
L 2475 1525 
L 3075 1525 
L 3075 1100 
L 2475 1100 
L 2475 150 
L 2000 150 
L 2000 1100 
z
M 2000 1525 
L 2000 3500 
L 600 1525 
L 2000 1525 
z
" transform="scale(0.015625)"/>
       </defs>
       <use xlink:href="#SimHei-4a"/>
       <use xlink:href="#SimHei-75" transform="translate(50 0)"/>
       <use xlink:href="#SimHei-6c" transform="translate(100 0)"/>
       <use xlink:href="#SimHei-20" transform="translate(150 0)"/>
       <use xlink:href="#SimHei-31" transform="translate(200 0)"/>
       <use xlink:href="#SimHei-34" transform="translate(250 0)"/>
      </g>
     </g>
    </g>
   </g>
   <g id="matplotlib.axis_2">
    <g id="ytick_1">
     <g id="line2d_9">
      <path d="M 62.208 55.87319 
L 216.914273 55.87319 
" clip-path="url(#p7cb0c49367)" style="fill: none; stroke-dasharray: 1.48,0.64; stroke-dashoffset: 0; stroke: #21262d; stroke-width: 0.4"/>
     </g>
     <g id="line2d_10">
      <defs>
       <path id="m6db60330ed" d="M 0 0 
L 3.5 0 
" style="stroke: #000000; stroke-width: 0.8"/>
      </defs>
      <g>
       <use xlink:href="#m6db60330ed" x="562.176" y="55.87319" style="stroke: #000000; stroke-width: 0.8"/>
      </g>
     </g>
     <g id="text_5">
      <!-- 4.40 -->
      <g transform="translate(569.176 58.96694) scale(0.09 -0.09)">
       <defs>
        <path id="SimHei-2e" d="M 1075 125 
L 500 125 
L 500 675 
L 1075 675 
L 1075 125 
z
" transform="scale(0.015625)"/>
       </defs>
       <use xlink:href="#SimHei-34"/>
       <use xlink:href="#SimHei-2e" transform="translate(50 0)"/>
       <use xlink:href="#SimHei-34" transform="translate(100 0)"/>
       <use xlink:href="#SimHei-30" transform="translate(150 0)"/>
      </g>
     </g>
    </g>
    <g id="ytick_2">
     <g id="line2d_11">
      <path clip-path="url(#p7cb0c49367)" style="fill: none; stroke-dasharray: 1.48,0.64; stroke-dashoffset: 0; stroke: #21262d; stroke-width: 0.4"/>
     </g>
     <g id="line2d_12">
      <g/>
     </g>
     <g id="text_6">
      <!-- 4.45 -->
      <g transform="translate(569.176 -0.770057) scale(0.09 -0.09)">
       <defs>
        <path id="SimHei-35" d="M 550 1325 
Q 725 650 1150 575 
Q 1575 500 1837 662 
Q 2100 825 2212 1087 
Q 2325 1350 2312 1675 
Q 2300 2000 2137 2225 
Q 1975 2450 1725 2525 
Q 1475 2600 1162 2525 
Q 850 2450 650 2175 
L 225 2225 
Q 275 2375 700 4375 
L 2675 4375 
L 2675 3925 
L 1075 3925 
Q 950 3250 825 2850 
Q 1200 3025 1525 3012 
Q 1850 3000 2150 2862 
Q 2450 2725 2587 2487 
Q 2725 2250 2787 2012 
Q 2850 1775 2837 1500 
Q 2825 1225 2725 937 
Q 2625 650 2425 462 
Q 2225 275 1937 162 
Q 1650 50 1275 75 
Q 900 100 562 350 
Q 225 600 100 1200 
L 550 1325 
z
" transform="scale(0.015625)"/>
       </defs>
       <use xlink:href="#SimHei-34"/>
       <use xlink:href="#SimHei-2e" transform="translate(50 0)"/>
       <use xlink:href="#SimHei-34" transform="translate(100 0)"/>
       <use xlink:href="#SimHei-35" transform="translate(150 0)"/>
      </g>
     </g>
    </g>
    <g id="ytick_3">
     <g id="line2d_13">
      <path clip-path="url(#p7cb0c49367)" style="fill: none; stroke-dasharray: 1.48,0.64; stroke-dashoffset: 0; stroke: #21262d; stroke-width: 0.4"/>
     </g>
     <g id="line2d_14">
      <g/>
     </g>
     <g id="text_7">
      <!-- 4.50 -->
      <g transform="translate(569.176 -60.507055) scale(0.09 -0.09)">
       <use xlink:href="#SimHei-34"/>
       <use xlink:href="#SimHei-2e" transform="translate(50 0)"/>
       <use xlink:href="#SimHei-35" transform="translate(100 0)"/>
       <use xlink:href="#SimHei-30" transform="translate(150 0)"/>
      </g>
     </g>
    </g>
    <g id="ytick_4">
     <g id="line2d_15">
      <path clip-path="url(#p7cb0c49367)" style="fill: none; stroke-dasharray: 1.48,0.64; stroke-dashoffset: 0; stroke: #21262d; stroke-width: 0.4"/>
     </g>
     <g id="line2d_16">
      <g/>
     </g>
     <g id="text_8">
      <!-- 4.55 -->
      <g transform="translate(569.176 -120.244052) scale(0.09 -0.09)">
       <use xlink:href="#SimHei-34"/>
       <use xlink:href="#SimHei-2e" transform="translate(50 0)"/>
       <use xlink:href="#SimHei-35" transform="translate(100 0)"/>
       <use xlink:href="#SimHei-35" transform="translate(150 0)"/>
      </g>
     </g>
    </g>
    <g id="ytick_5">
     <g id="line2d_17">
      <path clip-path="url(#p7cb0c49367)" style="fill: none; stroke-dasharray: 1.48,0.64; stroke-dashoffset: 0; stroke: #21262d; stroke-width: 0.4"/>
     </g>
     <g id="line2d_18">
      <g/>
     </g>
     <g id="text_9">
      <!-- 4.60 -->
      <g transform="translate(569.176 -179.98105) scale(0.09 -0.09)">
       <defs>
        <path id="SimHei-36" d="M 250 1612 
Q 275 1975 387 2225 
Q 500 2475 725 2850 
L 1750 4450 
L 2325 4450 
L 1275 2800 
Q 1950 2975 2350 2750 
Q 2750 2525 2887 2237 
Q 3025 1950 3037 1612 
Q 3050 1275 2937 950 
Q 2825 625 2537 362 
Q 2250 100 1737 75 
Q 1225 50 862 262 
Q 500 475 362 862 
Q 225 1250 250 1612 
z
M 1025 787 
Q 1250 550 1625 525 
Q 2000 500 2250 775 
Q 2500 1050 2500 1575 
Q 2500 2100 2187 2300 
Q 1875 2500 1487 2450 
Q 1100 2400 925 2075 
Q 750 1750 775 1387 
Q 800 1025 1025 787 
z
" transform="scale(0.015625)"/>
       </defs>
       <use xlink:href="#SimHei-34"/>
       <use xlink:href="#SimHei-2e" transform="translate(50 0)"/>
       <use xlink:href="#SimHei-36" transform="translate(100 0)"/>
       <use xlink:href="#SimHei-30" transform="translate(150 0)"/>
      </g>
     </g>
    </g>
    <g id="text_10">
     <!-- 价格 -->
     <g transform="translate(599.697875 -41.450743) rotate(-90) scale(0.108 -0.108)">
      <defs>
       <path id="SimHei-4ef7" d="M 2200 4975 
Q 2050 4725 1650 3775 
L 1650 450 
Q 1650 -225 1675 -650 
L 1175 -650 
Q 1175 -225 1200 450 
L 1200 2975 
Q 900 2425 650 2100 
Q 525 2275 225 2450 
Q 750 3025 1125 3800 
Q 1500 4575 1625 5175 
Q 1950 5025 2200 4975 
z
M 4175 4700 
Q 4850 3525 6150 2950 
Q 5925 2750 5775 2500 
Q 4725 3100 3950 4300 
Q 3300 3125 2250 2350 
Q 2125 2525 1900 2725 
Q 2825 3325 3250 4050 
Q 3675 4775 3750 5150 
Q 4150 4950 4325 4900 
L 4175 4700 
z
M 3475 2650 
Q 3400 2075 3325 1087 
Q 3250 100 2325 -675 
Q 2175 -450 1925 -300 
Q 2850 350 2912 1262 
Q 2975 2175 2950 2700 
Q 3275 2650 3475 2650 
z
M 5075 2700 
Q 5050 2150 5050 1725 
L 5050 150 
Q 5050 -225 5075 -650 
L 4550 -650 
Q 4575 -225 4575 175 
L 4575 1875 
Q 4575 2150 4550 2700 
L 5075 2700 
z
" transform="scale(0.015625)"/>
       <path id="SimHei-683c" d="M 4075 4875 
Q 3975 4750 3750 4350 
L 5625 4350 
Q 5450 3850 5212 3437 
Q 4975 3025 4650 2650 
Q 4950 2450 5412 2287 
Q 5875 2125 6150 2100 
Q 5975 1900 5875 1600 
Q 5550 1725 5125 1912 
Q 4700 2100 4300 2400 
Q 3925 2125 3537 1937 
Q 3150 1750 2575 1550 
Q 2475 1775 2300 1925 
Q 2825 2050 3262 2250 
Q 3700 2450 3975 2675 
Q 3625 3050 3325 3575 
Q 3175 3350 2875 2950 
Q 2700 3100 2475 3200 
Q 2825 3550 3112 4075 
Q 3400 4600 3550 5100 
Q 3775 4950 4075 4875 
z
M 5575 1650 
Q 5550 1350 5550 575 
Q 5550 -200 5575 -575 
L 5050 -575 
L 5050 -175 
L 3500 -175 
L 3500 -600 
L 2975 -600 
Q 3000 -200 3000 550 
Q 3000 1325 2975 1650 
L 5575 1650 
z
M 1850 5100 
Q 1825 4775 1825 4475 
L 1825 3825 
Q 2300 3825 2525 3850 
L 2525 3400 
Q 2300 3425 1825 3425 
L 1825 2725 
Q 1950 2800 2125 2950 
Q 2350 2600 2550 2200 
Q 2350 2075 2175 1950 
Q 1975 2375 1825 2625 
L 1825 275 
Q 1825 -275 1850 -625 
L 1350 -625 
Q 1375 -275 1375 275 
L 1375 2425 
Q 1150 1850 625 850 
Q 475 1025 250 1150 
Q 650 1775 900 2375 
Q 1150 2975 1250 3425 
Q 900 3425 475 3400 
L 475 3850 
Q 925 3825 1375 3825 
L 1375 4475 
Q 1375 4750 1350 5100 
L 1850 5100 
z
M 5050 200 
L 5050 1275 
L 3500 1275 
L 3500 200 
L 5050 200 
z
M 4300 2925 
Q 4675 3300 4975 3975 
L 3550 3975 
Q 3850 3350 4300 2925 
z
" transform="scale(0.015625)"/>
      </defs>
      <use xlink:href="#SimHei-4ef7"/>
      <use xlink:href="#SimHei-683c" transform="translate(100 0)"/>
     </g>
    </g>
   </g>
   <g id="PolyCollection_1">
    <path d="M 64.789049 -57.626968 
L 64.789049 -74.353255 
L 81.156674 -74.353255 
L 81.156674 -57.626968 
z
" clip-path="url(#p7cb0c49367)" style="fill: #3fb950; fill-opacity: 0.9; stroke: #3fb950"/>
    <path d="M 89.970011 -48.069172 
L 89.970011 -55.237662 
L 106.337636 -55.237662 
L 106.337636 -48.069172 
z
" clip-path="url(#p7cb0c49367)" style="fill: #3fb950; fill-opacity: 0.9; stroke: #3fb950"/>
    <path d="M 115.150973 -7.448109 
L 115.150973 53.483769 
L 131.518598 53.483769 
L 131.518598 -7.448109 
z
" clip-path="url(#p7cb0c49367)" style="fill: #f85149; fill-opacity: 0.9; stroke: #f85149"/>
    <path d="M 140.331935 41.536096 
L 140.331935 65.430873 
L 156.69956 65.430873 
L 156.69956 41.536096 
z
" clip-path="url(#p7cb0c49367)" style="fill: #f85149; fill-opacity: 0.9; stroke: #f85149"/>
    <path d="M 165.512896 70.210056 
L 165.512896 89.325649 
L 181.880522 89.325649 
L 181.880522 70.210056 
z
" clip-path="url(#p7cb0c49367)" style="fill: #f85149; fill-opacity: 0.9; stroke: #f85149"/>
    <path d="M 190.693858 82.157729 
L 190.693858 86.936342 
L 207.061484 86.936342 
L 207.061484 82.157729 
z
" clip-path="url(#p7cb0c49367)" style="fill: #f85149; fill-opacity: 0.9; stroke: #f85149"/>
    <path d="M 215.87482 65.430873 
L 215.87482 34.367607 
L 232.242446 34.367607 
L 232.242446 65.430873 
z
" clip-path="url(#p7cb0c49367)" style="fill: #3fb950; fill-opacity: 0.9; stroke: #3fb950"/>
    <path d="M 241.055782 -43.289989 
L 241.055782 -33.732192 
L 257.423408 -33.732192 
L 257.423408 -43.289989 
z
" clip-path="url(#p7cb0c49367)" style="fill: #f85149; fill-opacity: 0.9; stroke: #f85149"/>
    <path d="M 266.236744 -67.184765 
L 266.236744 -45.679865 
L 282.60437 -45.679865 
L 282.60437 -67.184765 
z
" clip-path="url(#p7cb0c49367)" style="fill: #f85149; fill-opacity: 0.9; stroke: #f85149"/>
    <path d="M 291.417706 -12.226723 
L 291.417706 -38.511375 
L 307.785332 -38.511375 
L 307.785332 -12.226723 
z
" clip-path="url(#p7cb0c49367)" style="fill: #3fb950; fill-opacity: 0.9; stroke: #3fb950"/>
    <path d="M 316.598668 -60.016845 
L 316.598668 -98.248031 
L 332.966294 -98.248031 
L 332.966294 -60.016845 
z
" clip-path="url(#p7cb0c49367)" style="fill: #3fb950; fill-opacity: 0.9; stroke: #3fb950"/>
    <path d="M 341.77963 -136.479787 
L 341.77963 -146.037583 
L 358.147256 -146.037583 
L 358.147256 -136.479787 
z
" clip-path="url(#p7cb0c49367)" style="fill: #3fb950; fill-opacity: 0.9; stroke: #3fb950"/>
    <path d="M 366.960592 -155.59595 
L 366.960592 -110.195704 
L 383.328218 -110.195704 
L 383.328218 -155.59595 
z
" clip-path="url(#p7cb0c49367)" style="fill: #f85149; fill-opacity: 0.9; stroke: #f85149"/>
    <path d="M 392.141554 -112.585011 
L 392.141554 -146.037583 
L 408.50918 -146.037583 
L 408.50918 -112.585011 
z
" clip-path="url(#p7cb0c49367)" style="fill: #3fb950; fill-opacity: 0.9; stroke: #3fb950"/>
    <path d="M 417.322516 -165.153746 
L 417.322516 -193.827705 
L 433.690142 -193.827705 
L 433.690142 -165.153746 
z
" clip-path="url(#p7cb0c49367)" style="fill: #3fb950; fill-opacity: 0.9; stroke: #3fb950"/>
    <path d="M 442.503478 -199.800972 
L 442.503478 -165.153746 
L 458.871104 -165.153746 
L 458.871104 -199.800972 
z
" clip-path="url(#p7cb0c49367)" style="fill: #f85149; fill-opacity: 0.9; stroke: #f85149"/>
    <path d="M 467.68444 -192.632482 
L 467.68444 -117.364194 
L 484.052065 -117.364194 
L 484.052065 -192.632482 
z
" clip-path="url(#p7cb0c49367)" style="fill: #f85149; fill-opacity: 0.9; stroke: #f85149"/>
    <path d="M 492.865402 -161.569216 
L 492.865402 -146.037583 
L 509.233027 -146.037583 
L 509.233027 -161.569216 
z
" clip-path="url(#p7cb0c49367)" style="fill: #f85149; fill-opacity: 0.9; stroke: #f85149"/>
    <path d="M 518.046364 -88.690234 
L 518.046364 -112.585011 
L 534.413989 -112.585011 
L 534.413989 -88.690234 
z
" clip-path="url(#p7cb0c49367)" style="fill: #3fb950; fill-opacity: 0.9; stroke: #3fb950"/>
    <path d="M 543.227326 -142.453623 
L 543.227326 -180.685379 
L 559.594951 -180.685379 
L 559.594951 -142.453623 
z
" clip-path="url(#p7cb0c49367)" style="fill: #3fb950; fill-opacity: 0.9; stroke: #3fb950"/>
   </g>
   <g id="LineCollection_1">
    <path clip-path="url(#p7cb0c49367)" style="fill: none; stroke: #3fb950"/>
    <path clip-path="url(#p7cb0c49367)" style="fill: none; stroke: #3fb950"/>
    <path d="M 123.334785 58.262952 
L 123.334785 53.483769 
" clip-path="url(#p7cb0c49367)" style="fill: none; stroke: #f85149"/>
    <path d="M 148.515747 100.078668 
L 148.515747 65.430873 
" clip-path="url(#p7cb0c49367)" style="fill: none; stroke: #f85149"/>
    <path d="M 173.696709 95.299485 
L 173.696709 89.325649 
" clip-path="url(#p7cb0c49367)" style="fill: none; stroke: #f85149"/>
    <path d="M 198.877671 95.299485 
L 198.877671 86.936342 
" clip-path="url(#p7cb0c49367)" style="fill: none; stroke: #f85149"/>
    <path clip-path="url(#p7cb0c49367)" style="fill: none; stroke: #3fb950"/>
    <path clip-path="url(#p7cb0c49367)" style="fill: none; stroke: #f85149"/>
    <path clip-path="url(#p7cb0c49367)" style="fill: none; stroke: #f85149"/>
    <path clip-path="url(#p7cb0c49367)" style="fill: none; stroke: #3fb950"/>
    <path clip-path="url(#p7cb0c49367)" style="fill: none; stroke: #3fb950"/>
    <path clip-path="url(#p7cb0c49367)" style="fill: none; stroke: #3fb950"/>
    <path clip-path="url(#p7cb0c49367)" style="fill: none; stroke: #f85149"/>
    <path clip-path="url(#p7cb0c49367)" style="fill: none; stroke: #3fb950"/>
    <path clip-path="url(#p7cb0c49367)" style="fill: none; stroke: #3fb950"/>
    <path clip-path="url(#p7cb0c49367)" style="fill: none; stroke: #f85149"/>
    <path clip-path="url(#p7cb0c49367)" style="fill: none; stroke: #f85149"/>
    <path clip-path="url(#p7cb0c49367)" style="fill: none; stroke: #f85149"/>
    <path clip-path="url(#p7cb0c49367)" style="fill: none; stroke: #3fb950"/>
    <path clip-path="url(#p7cb0c49367)" style="fill: none; stroke: #3fb950"/>
    <path clip-path="url(#p7cb0c49367)" style="fill: none; stroke: #3fb950"/>
    <path clip-path="url(#p7cb0c49367)" style="fill: none; stroke: #3fb950"/>
    <path clip-path="url(#p7cb0c49367)" style="fill: none; stroke: #f85149"/>
    <path d="M 148.515747 39.14679 
L 148.515747 41.536096 
" clip-path="url(#p7cb0c49367)" style="fill: none; stroke: #f85149"/>
    <path d="M 173.696709 43.925973 
L 173.696709 70.210056 
" clip-path="url(#p7cb0c49367)" style="fill: none; stroke: #f85149"/>
    <path d="M 198.877671 67.820749 
L 198.877671 82.157729 
" clip-path="url(#p7cb0c49367)" style="fill: none; stroke: #f85149"/>
    <path clip-path="url(#p7cb0c49367)" style="fill: none; stroke: #3fb950"/>
    <path clip-path="url(#p7cb0c49367)" style="fill: none; stroke: #f85149"/>
    <path clip-path="url(#p7cb0c49367)" style="fill: none; stroke: #f85149"/>
    <path clip-path="url(#p7cb0c49367)" style="fill: none; stroke: #3fb950"/>
    <path clip-path="url(#p7cb0c49367)" style="fill: none; stroke: #3fb950"/>
    <path clip-path="url(#p7cb0c49367)" style="fill: none; stroke: #3fb950"/>
    <path clip-path="url(#p7cb0c49367)" style="fill: none; stroke: #f85149"/>
    <path clip-path="url(#p7cb0c49367)" style="fill: none; stroke: #3fb950"/>
    <path clip-path="url(#p7cb0c49367)" style="fill: none; stroke: #3fb950"/>
    <path clip-path="url(#p7cb0c49367)" style="fill: none; stroke: #f85149"/>
    <path clip-path="url(#p7cb0c49367)" style="fill: none; stroke: #f85149"/>
    <path clip-path="url(#p7cb0c49367)" style="fill: none; stroke: #f85149"/>
    <path clip-path="url(#p7cb0c49367)" style="fill: none; stroke: #3fb950"/>
    <path clip-path="url(#p7cb0c49367)" style="fill: none; stroke: #3fb950"/>
   </g>
   <g id="patch_3">
    <path d="M 62.208 103.125257 
L 62.208 -1 
" style="fill: none; stroke: #30363d; stroke-width: 1.5; stroke-linejoin: miter; stroke-linecap: square"/>
   </g>
   <g id="patch_4">
    <path style="fill: none; stroke: #30363d; stroke-width: 1.5; stroke-linejoin: miter; stroke-linecap: square"/>
   </g>
   <g id="patch_5">
    <path d="M 62.208 103.125257 
L 216.914273 103.125257 
" style="fill: none; stroke: #30363d; stroke-width: 1.5; stroke-linejoin: miter; stroke-linecap: square"/>
   </g>
   <g id="patch_6">
    <path style="fill: none; stroke: #30363d; stroke-width: 1.5; stroke-linejoin: miter; stroke-linecap: square"/>
   </g>
  </g>
  <g id="text_11">
   <!-- ^TNX -->
   <g transform="translate(275.04 -180.014743) scale(0.1296 -0.1296)">
    <defs>
     <path id="SimHei-5e" d="M 2750 4125 
L 2300 4125 
L 1550 4750 
L 800 4125 
L 350 4125 
L 1250 5150 
L 1850 5150 
L 2750 4125 
z
" transform="scale(0.015625)"/>
     <path id="SimHei-54" d="M 2850 3925 
L 1850 3925 
L 1850 125 
L 1275 125 
L 1275 3925 
L 275 3925 
L 275 4400 
L 2850 4400 
L 2850 3925 
z
" transform="scale(0.015625)"/>
     <path id="SimHei-4e" d="M 2850 125 
L 2225 125 
L 850 3225 
L 825 3225 
L 825 125 
L 250 125 
L 250 4400 
L 875 4400 
L 2250 1300 
L 2275 1300 
L 2275 4400 
L 2850 4400 
L 2850 125 
z
" transform="scale(0.015625)"/>
     <path id="SimHei-58" d="M 3000 125 
L 2400 125 
L 1550 1875 
L 700 125 
L 100 125 
L 1275 2375 
L 225 4400 
L 825 4400 
L 1550 2850 
L 2275 4400 
L 2875 4400 
L 1825 2375 
L 3000 125 
z
" transform="scale(0.015625)"/>
    </defs>
    <use xlink:href="#SimHei-5e"/>
    <use xlink:href="#SimHei-54" transform="translate(50 0)"/>
    <use xlink:href="#SimHei-4e" transform="translate(100 0)"/>
    <use xlink:href="#SimHei-58" transform="translate(150 0)"/>
   </g>
  </g>
 </g>
 <defs>
  <clipPath id="p7cb0c49367">
   <rect x="62.208" y="-207.626743" width="499.968" height="310.752"/>
  </clipPath>
 </defs>
</svg>
