<?xml version="1.0" encoding="utf-8" standalone="no"?>
<!DOCTYPE svg PUBLIC "-//W3C//DTD SVG 1.1//EN"
  "http://www.w3.org/Graphics/SVG/1.1/DTD/svg11.dtd">
<svg xmlns:xlink="http://www.w3.org/1999/xlink" width="1056.68pt" height="595.606769pt" viewBox="0 0 1056.68 595.606769" xmlns="http://www.w3.org/2000/svg" version="1.1">
 <metadata>
  <rdf:RDF xmlns:dc="http://purl.org/dc/elements/1.1/" xmlns:cc="http://creativecommons.org/ns#" xmlns:rdf="http://www.w3.org/1999/02/22-rdf-syntax-ns#">
   <cc:Work>
    <dc:type rdf:resource="http://purl.org/dc/dcmitype/StillImage"/>
    <dc:date>2026-07-21T22:26:46.397386</dc:date>
    <dc:format>image/svg+xml</dc:format>
    <dc:creator>
     <cc:Agent>
      <dc:title>Matplotlib v3.10.9, https://matplotlib.org/</dc:title>
     </cc:Agent>
    </dc:creator>
   </cc:Work>
  </rdf:RDF>
 </metadata>
 <defs>
  <style type="text/css">*{stroke-linejoin: round; stroke-linecap: butt}</style>
 </defs>
 <g id="figure_1">
  <g id="patch_1">
   <path d="M 0 595.606769 
L 1056.68 595.606769 
L 1056.68 0 
L 0 0 
z
" style="fill: #0d1117"/>
  </g>
  <g id="axes_1">
   <g id="patch_2">
    <path d="M 24.2 556.870312 
L 1049.48 556.870312 
L 1049.48 31.270312 
L 24.2 31.270312 
z
" style="fill: #161b22"/>
   </g>
   <g id="FillBetweenPolyCollection_1">
    <defs>
     <path id="m8098bab086" d="M 70.803636 -540.445547 
L 70.803636 -67.940253 
L 73.060471 -67.5727 
L 75.317306 -68.87752 
L 77.57414 -67.6891 
L 84.344645 -66.143848 
L 86.601479 -65.12085 
L 88.858314 -67.448681 
L 91.115149 -66.709462 
L 93.371983 -64.330612 
L 100.142487 -70.194995 
L 102.399322 -70.840596 
L 104.656157 -71.492712 
L 106.912991 -76.466336 
L 109.169826 -79.393709 
L 115.94033 -84.628312 
L 118.197165 -90.016143 
L 120.454 -94.350175 
L 122.710834 -93.847853 
L 124.967669 -84.89785 
L 131.738173 -86.452666 
L 133.995008 -88.235311 
L 136.251842 -88.50719 
L 138.508677 -87.076261 
L 140.765512 -91.706286 
L 147.536016 -90.058677 
L 149.792851 -91.77367 
L 152.049685 -92.769639 
L 154.30652 -97.710927 
L 156.563355 -96.481643 
L 163.333859 -97.41501 
L 165.590693 -95.406514 
L 167.847528 -94.797363 
L 170.104363 -92.913083 
L 172.361197 -96.475517 
L 179.131702 -97.709052 
L 181.388536 -99.977146 
L 183.645371 -103.203135 
L 185.902206 -104.775982 
L 188.15904 -100.592105 
L 194.929544 -99.014653 
L 197.186379 -100.487018 
L 199.443214 -102.614117 
L 201.700048 -95.941494 
L 203.956883 -92.070108 
L 210.727387 -95.194921 
L 212.984222 -99.952491 
L 215.241057 -101.023459 
L 217.497891 -101.34314 
L 219.754726 -100.361864 
L 226.52523 -100.337052 
L 228.782065 -104.132765 
L 231.038899 -102.634563 
L 233.295734 -105.040898 
L 235.552569 -104.359992 
L 242.323073 -108.293737 
L 244.579908 -104.988112 
L 246.836742 -110.833415 
L 249.093577 -113.660525 
L 251.350412 -123.770267 
L 258.120916 -127.616681 
L 260.37775 -124.669695 
L 262.634585 -117.025042 
L 264.89142 -125.091207 
L 267.148254 -125.849328 
L 273.918759 -122.365724 
L 276.175593 -127.707431 
L 278.432428 -121.151373 
L 280.689263 -120.700122 
L 282.946097 -120.544102 
L 289.716601 -122.100074 
L 291.973436 -121.025238 
L 294.230271 -124.566244 
L 296.487105 -127.625069 
L 298.74394 -125.810943 
L 305.514444 -125.226507 
L 307.771279 -120.791303 
L 310.028114 -120.164505 
L 312.284948 -112.422576 
L 314.541783 -112.470649 
L 321.312287 -111.118899 
L 323.569122 -115.227664 
L 325.825956 -118.670156 
L 328.082791 -118.027856 
L 330.339626 -117.114184 
L 337.11013 -120.562285 
L 339.366965 -119.873445 
L 359.678477 -124.104044 
L 361.935311 -120.38087 
L 368.705816 -119.909178 
L 370.96265 -123.045696 
L 373.219485 -128.08666 
L 375.47632 -133.622313 
L 377.733154 -127.2933 
L 384.503658 -130.182982 
L 386.760493 -133.756344 
L 389.017328 -134.680793 
L 391.274162 -138.759385 
L 393.530997 -140.633672 
L 400.301501 -143.662416 
L 402.558336 -141.318303 
L 404.815171 -135.03406 
L 407.072005 -133.048155 
L 409.32884 -114.950984 
L 416.099344 -118.146328 
L 418.356179 -121.151373 
L 420.613013 -119.652438 
L 422.869848 -124.140209 
L 425.126683 -123.488559 
L 431.897187 -126.637832 
L 434.154022 -125.614155 
L 436.410856 -129.795229 
L 438.667691 -131.900943 
L 440.924526 -128.43704 
L 447.69503 -123.741265 
L 449.951864 -121.990617 
L 452.208699 -128.228828 
L 454.465534 -128.406411 
L 456.722368 -122.266282 
L 463.492873 -119.77581 
L 465.749707 -124.006928 
L 468.006542 -122.242725 
L 470.263377 -124.538981 
L 472.520211 -121.475235 
L 479.290715 -123.491456 
L 481.54755 -123.499011 
L 483.804385 -120.277882 
L 486.061219 -121.961345 
L 488.318054 -122.352991 
L 495.088558 -123.848186 
L 497.345393 -121.554871 
L 499.602228 -117.502555 
L 501.859062 -116.769836 
L 504.115897 -116.250701 
L 510.886401 -112.067275 
L 513.143236 -108.025024 
L 515.40007 -112.593539 
L 517.656905 -116.9451 
L 519.91374 -115.711624 
L 526.684244 -119.175566 
L 528.941079 -120.182883 
L 531.197913 -119.279364 
L 533.454748 -119.46314 
L 535.711583 -119.401882 
L 542.482087 -121.604085 
L 544.738921 -122.054635 
L 546.995756 -122.770508 
L 558.27993 -129.363846 
L 560.536764 -137.526169 
L 562.793599 -135.158477 
L 565.050434 -130.429092 
L 567.307268 -131.026191 
L 574.077772 -131.163054 
L 576.334607 -132.09554 
L 578.591442 -126.099726 
L 580.848276 -123.665045 
L 583.105111 -117.36166 
L 589.875615 -115.289591 
L 592.13245 -117.229809 
L 594.389285 -112.897962 
L 596.646119 -111.202024 
L 598.902954 -104.605296 
L 605.673458 -110.56031 
L 607.930293 -111.9391 
L 610.187127 -113.414156 
L 612.443962 -120.478474 
L 614.700797 -115.450387 
L 621.471301 -107.414312 
L 623.728136 -107.242787 
L 625.98497 -114.536196 
L 628.241805 -113.444786 
L 630.49864 -111.135581 
L 637.269144 -116.398791 
L 639.525978 -117.674385 
L 641.782813 -117.98982 
L 644.039648 -114.10882 
L 646.296483 -105.748074 
L 671.121664 -108.739422 
L 673.378499 -110.045737 
L 675.635333 -105.522486 
L 677.892168 -103.492667 
L 684.662672 -109.046657 
L 686.919507 -115.451034 
L 689.176342 -108.612751 
L 691.433176 -108.202505 
L 693.690011 -106.95444 
L 700.460515 -107.486256 
L 702.71735 -104.583073 
L 704.974184 -108.096775 
L 707.231019 -106.991272 
L 709.487854 -114.700855 
L 716.258358 -115.736128 
L 718.515193 -118.556853 
L 720.772027 -117.23932 
L 723.028862 -117.244161 
L 725.285697 -113.293435 
L 732.056201 -97.264091 
L 734.313035 -99.999329 
L 736.56987 -102.732859 
L 738.826705 -102.49395 
L 741.08354 -104.811885 
L 747.854044 -105.119126 
L 750.110878 -104.805759 
L 752.367713 -110.572562 
L 754.624548 -108.917642 
L 756.881382 -103.998834 
L 765.908721 -103.336772 
L 768.165556 -108.951475 
L 770.42239 -106.395541 
L 772.679225 -106.488799 
L 779.449729 -106.262293 
L 781.706564 -108.986429 
L 783.963399 -111.71208 
L 786.220233 -112.202238 
L 788.477068 -109.152344 
L 795.247572 -115.278017 
L 797.504407 -115.024897 
L 799.761241 -109.610993 
L 802.018076 -111.995394 
L 804.274911 -114.654329 
L 811.045415 -113.844301 
L 813.30225 -115.907023 
L 815.559084 -115.545389 
L 817.815919 -116.184236 
L 831.356927 -119.587055 
L 833.613762 -117.612522 
L 835.870597 -114.47702 
L 842.641101 -117.557389 
L 844.897935 -117.833213 
L 847.15477 -114.585793 
L 849.411605 -110.830042 
L 851.668439 -106.9828 
L 858.438943 -103.646899 
L 860.695778 -106.021506 
L 862.952613 -103.851544 
L 865.209448 -98.907765 
L 867.466282 -98.851284 
L 874.236786 -104.476383 
L 876.493621 -104.953632 
L 878.750456 -97.486562 
L 881.00729 -94.87974 
L 883.264125 -96.714702 
L 890.034629 -95.727088 
L 892.291464 -97.852892 
L 894.548298 -97.927685 
L 896.805133 -92.204877 
L 899.061968 -91.475714 
L 905.832472 -92.39352 
L 908.089307 -92.510987 
L 910.346141 -96.117514 
L 912.602976 -95.614646 
L 914.859811 -103.162601 
L 921.630315 -112.306707 
L 923.887149 -104.936758 
L 926.143984 -103.646468 
L 928.400819 -97.011293 
L 937.428158 -109.525231 
L 939.684992 -103.22386 
L 941.941827 -100.901423 
L 944.198662 -101.728994 
L 946.455496 -90.117095 
L 953.226 -99.64872 
L 955.482835 -96.708012 
L 957.73967 -98.416347 
L 959.996505 -90.705179 
L 962.253339 -93.043938 
L 969.023843 -98.975618 
L 971.280678 -97.666761 
L 973.537513 -101.451961 
L 975.794347 -109.059577 
L 978.051182 -104.910751 
L 984.821686 -106.138086 
L 987.078521 -111.569501 
L 989.335355 -113.924199 
L 991.59219 -105.14966 
L 993.849025 -100.595129 
L 1000.619529 -118.812186 
L 1002.876364 -120.158391 
L 1002.876364 -540.445547 
L 1002.876364 -540.445547 
L 1000.619529 -540.445547 
L 993.849025 -540.445547 
L 991.59219 -540.445547 
L 989.335355 -540.445547 
L 987.078521 -540.445547 
L 984.821686 -540.445547 
L 978.051182 -540.445547 
L 975.794347 -540.445547 
L 973.537513 -540.445547 
L 971.280678 -540.445547 
L 969.023843 -540.445547 
L 962.253339 -540.445547 
L 959.996505 -540.445547 
L 957.73967 -540.445547 
L 955.482835 -540.445547 
L 953.226 -540.445547 
L 946.455496 -540.445547 
L 944.198662 -540.445547 
L 941.941827 -540.445547 
L 939.684992 -540.445547 
L 937.428158 -540.445547 
L 928.400819 -540.445547 
L 926.143984 -540.445547 
L 923.887149 -540.445547 
L 921.630315 -540.445547 
L 914.859811 -540.445547 
L 912.602976 -540.445547 
L 910.346141 -540.445547 
L 908.089307 -540.445547 
L 905.832472 -540.445547 
L 899.061968 -540.445547 
L 896.805133 -540.445547 
L 894.548298 -540.445547 
L 892.291464 -540.445547 
L 890.034629 -540.445547 
L 883.264125 -540.445547 
L 881.00729 -540.445547 
L 878.750456 -540.445547 
L 876.493621 -540.445547 
L 874.236786 -540.445547 
L 867.466282 -540.445547 
L 865.209448 -540.445547 
L 862.952613 -540.445547 
L 860.695778 -540.445547 
L 858.438943 -540.445547 
L 851.668439 -540.445547 
L 849.411605 -540.445547 
L 847.15477 -540.445547 
L 844.897935 -540.445547 
L 842.641101 -540.445547 
L 835.870597 -540.445547 
L 833.613762 -540.445547 
L 831.356927 -540.445547 
L 817.815919 -540.445547 
L 815.559084 -540.445547 
L 813.30225 -540.445547 
L 811.045415 -540.445547 
L 804.274911 -540.445547 
L 802.018076 -540.445547 
L 799.761241 -540.445547 
L 797.504407 -540.445547 
L 795.247572 -540.445547 
L 788.477068 -540.445547 
L 786.220233 -540.445547 
L 783.963399 -540.445547 
L 781.706564 -540.445547 
L 779.449729 -540.445547 
L 772.679225 -540.445547 
L 770.42239 -540.445547 
L 768.165556 -540.445547 
L 765.908721 -540.445547 
L 756.881382 -540.445547 
L 754.624548 -540.445547 
L 752.367713 -540.445547 
L 750.110878 -540.445547 
L 747.854044 -540.445547 
L 741.08354 -540.445547 
L 738.826705 -540.445547 
L 736.56987 -540.445547 
L 734.313035 -540.445547 
L 732.056201 -540.445547 
L 725.285697 -540.445547 
L 723.028862 -540.445547 
L 720.772027 -540.445547 
L 718.515193 -540.445547 
L 716.258358 -540.445547 
L 709.487854 -540.445547 
L 707.231019 -540.445547 
L 704.974184 -540.445547 
L 702.71735 -540.445547 
L 700.460515 -540.445547 
L 693.690011 -540.445547 
L 691.433176 -540.445547 
L 689.176342 -540.445547 
L 686.919507 -540.445547 
L 684.662672 -540.445547 
L 677.892168 -540.445547 
L 675.635333 -540.445547 
L 673.378499 -540.445547 
L 671.121664 -540.445547 
L 646.296483 -540.445547 
L 644.039648 -540.445547 
L 641.782813 -540.445547 
L 639.525978 -540.445547 
L 637.269144 -540.445547 
L 630.49864 -540.445547 
L 628.241805 -540.445547 
L 625.98497 -540.445547 
L 623.728136 -540.445547 
L 621.471301 -540.445547 
L 614.700797 -540.445547 
L 612.443962 -540.445547 
L 610.187127 -540.445547 
L 607.930293 -540.445547 
L 605.673458 -540.445547 
L 598.902954 -540.445547 
L 596.646119 -540.445547 
L 594.389285 -540.445547 
L 592.13245 -540.445547 
L 589.875615 -540.445547 
L 583.105111 -540.445547 
L 580.848276 -540.445547 
L 578.591442 -540.445547 
L 576.334607 -540.445547 
L 574.077772 -540.445547 
L 567.307268 -540.445547 
L 565.050434 -540.445547 
L 562.793599 -540.445547 
L 560.536764 -540.445547 
L 558.27993 -540.445547 
L 546.995756 -540.445547 
L 544.738921 -540.445547 
L 542.482087 -540.445547 
L 535.711583 -540.445547 
L 533.454748 -540.445547 
L 531.197913 -540.445547 
L 528.941079 -540.445547 
L 526.684244 -540.445547 
L 519.91374 -540.445547 
L 517.656905 -540.445547 
L 515.40007 -540.445547 
L 513.143236 -540.445547 
L 510.886401 -540.445547 
L 504.115897 -540.445547 
L 501.859062 -540.445547 
L 499.602228 -540.445547 
L 497.345393 -540.445547 
L 495.088558 -540.445547 
L 488.318054 -540.445547 
L 486.061219 -540.445547 
L 483.804385 -540.445547 
L 481.54755 -540.445547 
L 479.290715 -540.445547 
L 472.520211 -540.445547 
L 470.263377 -540.445547 
L 468.006542 -540.445547 
L 465.749707 -540.445547 
L 463.492873 -540.445547 
L 456.722368 -540.445547 
L 454.465534 -540.445547 
L 452.208699 -540.445547 
L 449.951864 -540.445547 
L 447.69503 -540.445547 
L 440.924526 -540.445547 
L 438.667691 -540.445547 
L 436.410856 -540.445547 
L 434.154022 -540.445547 
L 431.897187 -540.445547 
L 425.126683 -540.445547 
L 422.869848 -540.445547 
L 420.613013 -540.445547 
L 418.356179 -540.445547 
L 416.099344 -540.445547 
L 409.32884 -540.445547 
L 407.072005 -540.445547 
L 404.815171 -540.445547 
L 402.558336 -540.445547 
L 400.301501 -540.445547 
L 393.530997 -540.445547 
L 391.274162 -540.445547 
L 389.017328 -540.445547 
L 386.760493 -540.445547 
L 384.503658 -540.445547 
L 377.733154 -540.445547 
L 375.47632 -540.445547 
L 373.219485 -540.445547 
L 370.96265 -540.445547 
L 368.705816 -540.445547 
L 361.935311 -540.445547 
L 359.678477 -540.445547 
L 339.366965 -540.445547 
L 337.11013 -540.445547 
L 330.339626 -540.445547 
L 328.082791 -540.445547 
L 325.825956 -540.445547 
L 323.569122 -540.445547 
L 321.312287 -540.445547 
L 314.541783 -540.445547 
L 312.284948 -540.445547 
L 310.028114 -540.445547 
L 307.771279 -540.445547 
L 305.514444 -540.445547 
L 298.74394 -540.445547 
L 296.487105 -540.445547 
L 294.230271 -540.445547 
L 291.973436 -540.445547 
L 289.716601 -540.445547 
L 282.946097 -540.445547 
L 280.689263 -540.445547 
L 278.432428 -540.445547 
L 276.175593 -540.445547 
L 273.918759 -540.445547 
L 267.148254 -540.445547 
L 264.89142 -540.445547 
L 262.634585 -540.445547 
L 260.37775 -540.445547 
L 258.120916 -540.445547 
L 251.350412 -540.445547 
L 249.093577 -540.445547 
L 246.836742 -540.445547 
L 244.579908 -540.445547 
L 242.323073 -540.445547 
L 235.552569 -540.445547 
L 233.295734 -540.445547 
L 231.038899 -540.445547 
L 228.782065 -540.445547 
L 226.52523 -540.445547 
L 219.754726 -540.445547 
L 217.497891 -540.445547 
L 215.241057 -540.445547 
L 212.984222 -540.445547 
L 210.727387 -540.445547 
L 203.956883 -540.445547 
L 201.700048 -540.445547 
L 199.443214 -540.445547 
L 197.186379 -540.445547 
L 194.929544 -540.445547 
L 188.15904 -540.445547 
L 185.902206 -540.445547 
L 183.645371 -540.445547 
L 181.388536 -540.445547 
L 179.131702 -540.445547 
L 172.361197 -540.445547 
L 170.104363 -540.445547 
L 167.847528 -540.445547 
L 165.590693 -540.445547 
L 163.333859 -540.445547 
L 156.563355 -540.445547 
L 154.30652 -540.445547 
L 152.049685 -540.445547 
L 149.792851 -540.445547 
L 147.536016 -540.445547 
L 140.765512 -540.445547 
L 138.508677 -540.445547 
L 136.251842 -540.445547 
L 133.995008 -540.445547 
L 131.738173 -540.445547 
L 124.967669 -540.445547 
L 122.710834 -540.445547 
L 120.454 -540.445547 
L 118.197165 -540.445547 
L 115.94033 -540.445547 
L 109.169826 -540.445547 
L 106.912991 -540.445547 
L 104.656157 -540.445547 
L 102.399322 -540.445547 
L 100.142487 -540.445547 
L 93.371983 -540.445547 
L 91.115149 -540.445547 
L 88.858314 -540.445547 
L 86.601479 -540.445547 
L 84.344645 -540.445547 
L 77.57414 -540.445547 
L 75.317306 -540.445547 
L 73.060471 -540.445547 
L 70.803636 -540.445547 
z
" style="stroke: #58a6ff; stroke-opacity: 0.08"/>
    </defs>
    <g clip-path="url(#p3a63bf3e57)">
     <use xlink:href="#m8098bab086" x="0" y="595.606769" style="fill: #58a6ff; fill-opacity: 0.08; stroke: #58a6ff; stroke-opacity: 0.08"/>
    </g>
   </g>
   <g id="matplotlib.axis_1">
    <g id="xtick_1">
     <g id="line2d_1">
      <path d="M 133.995008 556.870312 
L 133.995008 31.270312 
" clip-path="url(#p3a63bf3e57)" style="fill: none; stroke-dasharray: 1.48,0.64; stroke-dashoffset: 0; stroke: #21262d; stroke-opacity: 0.4; stroke-width: 0.4"/>
     </g>
     <g id="line2d_2">
      <defs>
       <path id="m355642b2e8" d="M 0 0 
L 0 3.5 
" style="stroke: #c9d1d9; stroke-width: 0.8"/>
      </defs>
      <g>
       <use xlink:href="#m355642b2e8" x="133.995008" y="556.870312" style="fill: #c9d1d9; stroke: #c9d1d9; stroke-width: 0.8"/>
      </g>
     </g>
     <g id="text_1">
      <!-- 2025-07 -->
      <g style="fill: #c9d1d9" transform="translate(103.059119 587.324237) rotate(-30) scale(0.1 -0.1)">
       <defs>
        <path id="SimHei-32" d="M 300 250 
Q 325 625 650 925 
Q 975 1225 1475 1862 
Q 1975 2500 2125 2850 
Q 2275 3200 2237 3450 
Q 2200 3700 2000 3862 
Q 1800 4025 1537 4000 
Q 1275 3975 1037 3800 
Q 800 3625 675 3275 
L 200 3350 
Q 400 3925 712 4187 
Q 1025 4450 1450 4475 
Q 1700 4500 1900 4462 
Q 2100 4425 2312 4287 
Q 2525 4150 2662 3875 
Q 2800 3600 2762 3212 
Q 2725 2825 2375 2287 
Q 2025 1750 1025 600 
L 2825 600 
L 2825 150 
L 300 150 
L 300 250 
z
" transform="scale(0.015625)"/>
        <path id="SimHei-30" d="M 225 2537 
Q 250 3200 412 3587 
Q 575 3975 875 4225 
Q 1175 4475 1612 4475 
Q 2050 4475 2375 4112 
Q 2700 3750 2800 3200 
Q 2900 2650 2862 1937 
Q 2825 1225 2612 775 
Q 2400 325 1975 150 
Q 1550 -25 1125 187 
Q 700 400 525 750 
Q 350 1100 275 1487 
Q 200 1875 225 2537 
z
M 750 2687 
Q 675 2000 800 1462 
Q 925 925 1212 700 
Q 1500 475 1800 612 
Q 2100 750 2237 1162 
Q 2375 1575 2375 2062 
Q 2375 2550 2337 2950 
Q 2300 3350 2112 3675 
Q 1925 4000 1612 4012 
Q 1300 4025 1062 3700 
Q 825 3375 750 2687 
z
" transform="scale(0.015625)"/>
        <path id="SimHei-35" d="M 550 1325 
Q 725 650 1150 575 
Q 1575 500 1837 662 
Q 2100 825 2212 1087 
Q 2325 1350 2312 1675 
Q 2300 2000 2137 2225 
Q 1975 2450 1725 2525 
Q 1475 2600 1162 2525 
Q 850 2450 650 2175 
L 225 2225 
Q 275 2375 700 4375 
L 2675 4375 
L 2675 3925 
L 1075 3925 
Q 950 3250 825 2850 
Q 1200 3025 1525 3012 
Q 1850 3000 2150 2862 
Q 2450 2725 2587 2487 
Q 2725 2250 2787 2012 
Q 2850 1775 2837 1500 
Q 2825 1225 2725 937 
Q 2625 650 2425 462 
Q 2225 275 1937 162 
Q 1650 50 1275 75 
Q 900 100 562 350 
Q 225 600 100 1200 
L 550 1325 
z
" transform="scale(0.015625)"/>
        <path id="SimHei-2d" d="M 2975 2125 
L 125 2125 
L 125 2525 
L 2975 2525 
L 2975 2125 
z
" transform="scale(0.015625)"/>
        <path id="SimHei-37" d="M 850 150 
Q 1300 2050 2425 3925 
L 275 3925 
L 275 4375 
L 2950 4375 
L 2950 3950 
Q 1775 2050 1400 150 
L 850 150 
z
" transform="scale(0.015625)"/>
       </defs>
       <use xlink:href="#SimHei-32"/>
       <use xlink:href="#SimHei-30" transform="translate(50 0)"/>
       <use xlink:href="#SimHei-32" transform="translate(100 0)"/>
       <use xlink:href="#SimHei-35" transform="translate(150 0)"/>
       <use xlink:href="#SimHei-2d" transform="translate(200 0)"/>
       <use xlink:href="#SimHei-30" transform="translate(250 0)"/>
       <use xlink:href="#SimHei-37" transform="translate(300 0)"/>
      </g>
     </g>
    </g>
    <g id="xtick_2">
     <g id="line2d_3">
      <path d="M 273.918759 556.870312 
L 273.918759 31.270312 
" clip-path="url(#p3a63bf3e57)" style="fill: none; stroke-dasharray: 1.48,0.64; stroke-dashoffset: 0; stroke: #21262d; stroke-opacity: 0.4; stroke-width: 0.4"/>
     </g>
     <g id="line2d_4">
      <g>
       <use xlink:href="#m355642b2e8" x="273.918759" y="556.870312" style="fill: #c9d1d9; stroke: #c9d1d9; stroke-width: 0.8"/>
      </g>
     </g>
     <g id="text_2">
      <!-- 2025-09 -->
      <g style="fill: #c9d1d9" transform="translate(242.982869 587.324237) rotate(-30) scale(0.1 -0.1)">
       <defs>
        <path id="SimHei-39" d="M 800 75 
Q 1350 1000 1700 1750 
Q 1075 1650 662 1912 
Q 250 2175 162 2625 
Q 75 3075 175 3437 
Q 275 3800 487 4037 
Q 700 4275 1000 4375 
Q 1300 4475 1537 4475 
Q 1775 4475 2025 4375 
Q 2275 4275 2475 4075 
Q 2675 3875 2750 3662 
Q 2825 3450 2825 3112 
Q 2825 2775 2575 2250 
Q 2325 1725 1350 75 
L 800 75 
z
M 662 2875 
Q 700 2550 937 2337 
Q 1175 2125 1450 2150 
Q 1725 2175 1887 2300 
Q 2050 2425 2200 2725 
Q 2300 3100 2250 3362 
Q 2200 3625 1987 3800 
Q 1775 3975 1525 3975 
Q 1375 4000 1137 3900 
Q 900 3800 762 3500 
Q 625 3200 662 2875 
z
" transform="scale(0.015625)"/>
       </defs>
       <use xlink:href="#SimHei-32"/>
       <use xlink:href="#SimHei-30" transform="translate(50 0)"/>
       <use xlink:href="#SimHei-32" transform="translate(100 0)"/>
       <use xlink:href="#SimHei-35" transform="translate(150 0)"/>
       <use xlink:href="#SimHei-2d" transform="translate(200 0)"/>
       <use xlink:href="#SimHei-30" transform="translate(250 0)"/>
       <use xlink:href="#SimHei-39" transform="translate(300 0)"/>
      </g>
     </g>
    </g>
    <g id="xtick_3">
     <g id="line2d_5">
      <path d="M 411.585675 556.870312 
L 411.585675 31.270312 
" clip-path="url(#p3a63bf3e57)" style="fill: none; stroke-dasharray: 1.48,0.64; stroke-dashoffset: 0; stroke: #21262d; stroke-opacity: 0.4; stroke-width: 0.4"/>
     </g>
     <g id="line2d_6">
      <g>
       <use xlink:href="#m355642b2e8" x="411.585675" y="556.870312" style="fill: #c9d1d9; stroke: #c9d1d9; stroke-width: 0.8"/>
      </g>
     </g>
     <g id="text_3">
      <!-- 2025-11 -->
      <g style="fill: #c9d1d9" transform="translate(380.649786 587.324237) rotate(-30) scale(0.1 -0.1)">
       <defs>
        <path id="SimHei-31" d="M 1400 3600 
Q 1075 3275 575 2975 
L 575 3450 
Q 1200 3875 1600 4450 
L 1900 4450 
L 1900 150 
L 1400 150 
L 1400 3600 
z
" transform="scale(0.015625)"/>
       </defs>
       <use xlink:href="#SimHei-32"/>
       <use xlink:href="#SimHei-30" transform="translate(50 0)"/>
       <use xlink:href="#SimHei-32" transform="translate(100 0)"/>
       <use xlink:href="#SimHei-35" transform="translate(150 0)"/>
       <use xlink:href="#SimHei-2d" transform="translate(200 0)"/>
       <use xlink:href="#SimHei-31" transform="translate(250 0)"/>
       <use xlink:href="#SimHei-31" transform="translate(300 0)"/>
      </g>
     </g>
    </g>
    <g id="xtick_4">
     <g id="line2d_7">
      <path d="M 549.252591 556.870312 
L 549.252591 31.270312 
" clip-path="url(#p3a63bf3e57)" style="fill: none; stroke-dasharray: 1.48,0.64; stroke-dashoffset: 0; stroke: #21262d; stroke-opacity: 0.4; stroke-width: 0.4"/>
     </g>
     <g id="line2d_8">
      <g>
       <use xlink:href="#m355642b2e8" x="549.252591" y="556.870312" style="fill: #c9d1d9; stroke: #c9d1d9; stroke-width: 0.8"/>
      </g>
     </g>
     <g id="text_4">
      <!-- 2026-01 -->
      <g style="fill: #c9d1d9" transform="translate(518.316702 587.324237) rotate(-30) scale(0.1 -0.1)">
       <defs>
        <path id="SimHei-36" d="M 250 1612 
Q 275 1975 387 2225 
Q 500 2475 725 2850 
L 1750 4450 
L 2325 4450 
L 1275 2800 
Q 1950 2975 2350 2750 
Q 2750 2525 2887 2237 
Q 3025 1950 3037 1612 
Q 3050 1275 2937 950 
Q 2825 625 2537 362 
Q 2250 100 1737 75 
Q 1225 50 862 262 
Q 500 475 362 862 
Q 225 1250 250 1612 
z
M 1025 787 
Q 1250 550 1625 525 
Q 2000 500 2250 775 
Q 2500 1050 2500 1575 
Q 2500 2100 2187 2300 
Q 1875 2500 1487 2450 
Q 1100 2400 925 2075 
Q 750 1750 775 1387 
Q 800 1025 1025 787 
z
" transform="scale(0.015625)"/>
       </defs>
       <use xlink:href="#SimHei-32"/>
       <use xlink:href="#SimHei-30" transform="translate(50 0)"/>
       <use xlink:href="#SimHei-32" transform="translate(100 0)"/>
       <use xlink:href="#SimHei-36" transform="translate(150 0)"/>
       <use xlink:href="#SimHei-2d" transform="translate(200 0)"/>
       <use xlink:href="#SimHei-30" transform="translate(250 0)"/>
       <use xlink:href="#SimHei-31" transform="translate(300 0)"/>
      </g>
     </g>
    </g>
    <g id="xtick_5">
     <g id="line2d_9">
      <path d="M 682.405838 556.870312 
L 682.405838 31.270312 
" clip-path="url(#p3a63bf3e57)" style="fill: none; stroke-dasharray: 1.48,0.64; stroke-dashoffset: 0; stroke: #21262d; stroke-opacity: 0.4; stroke-width: 0.4"/>
     </g>
     <g id="line2d_10">
      <g>
       <use xlink:href="#m355642b2e8" x="682.405838" y="556.870312" style="fill: #c9d1d9; stroke: #c9d1d9; stroke-width: 0.8"/>
      </g>
     </g>
     <g id="text_5">
      <!-- 2026-03 -->
      <g style="fill: #c9d1d9" transform="translate(651.469948 587.324237) rotate(-30) scale(0.1 -0.1)">
       <defs>
        <path id="SimHei-33" d="M 250 1225 
L 700 1300 
Q 800 975 1025 762 
Q 1250 550 1587 562 
Q 1925 575 2125 837 
Q 2325 1100 2300 1437 
Q 2275 1775 2037 1962 
Q 1800 2150 1275 2225 
L 1275 2550 
Q 1800 2600 2037 2825 
Q 2275 3050 2250 3412 
Q 2225 3775 1925 3937 
Q 1625 4100 1287 3975 
Q 950 3850 750 3275 
L 300 3350 
Q 450 3800 712 4100 
Q 975 4400 1425 4450 
Q 1875 4500 2212 4337 
Q 2550 4175 2687 3837 
Q 2825 3500 2725 3100 
Q 2625 2700 2150 2400 
Q 2500 2250 2687 1950 
Q 2875 1650 2812 1162 
Q 2750 675 2375 375 
Q 2000 75 1525 87 
Q 1050 100 700 387 
Q 350 675 250 1225 
z
" transform="scale(0.015625)"/>
       </defs>
       <use xlink:href="#SimHei-32"/>
       <use xlink:href="#SimHei-30" transform="translate(50 0)"/>
       <use xlink:href="#SimHei-32" transform="translate(100 0)"/>
       <use xlink:href="#SimHei-36" transform="translate(150 0)"/>
       <use xlink:href="#SimHei-2d" transform="translate(200 0)"/>
       <use xlink:href="#SimHei-30" transform="translate(250 0)"/>
       <use xlink:href="#SimHei-33" transform="translate(300 0)"/>
      </g>
     </g>
    </g>
    <g id="xtick_6">
     <g id="line2d_11">
      <path d="M 820.072754 556.870312 
L 820.072754 31.270312 
" clip-path="url(#p3a63bf3e57)" style="fill: none; stroke-dasharray: 1.48,0.64; stroke-dashoffset: 0; stroke: #21262d; stroke-opacity: 0.4; stroke-width: 0.4"/>
     </g>
     <g id="line2d_12">
      <g>
       <use xlink:href="#m355642b2e8" x="820.072754" y="556.870312" style="fill: #c9d1d9; stroke: #c9d1d9; stroke-width: 0.8"/>
      </g>
     </g>
     <g id="text_6">
      <!-- 2026-05 -->
      <g style="fill: #c9d1d9" transform="translate(789.136865 587.324237) rotate(-30) scale(0.1 -0.1)">
       <use xlink:href="#SimHei-32"/>
       <use xlink:href="#SimHei-30" transform="translate(50 0)"/>
       <use xlink:href="#SimHei-32" transform="translate(100 0)"/>
       <use xlink:href="#SimHei-36" transform="translate(150 0)"/>
       <use xlink:href="#SimHei-2d" transform="translate(200 0)"/>
       <use xlink:href="#SimHei-30" transform="translate(250 0)"/>
       <use xlink:href="#SimHei-35" transform="translate(300 0)"/>
      </g>
     </g>
    </g>
    <g id="xtick_7">
     <g id="line2d_13">
      <path d="M 957.73967 556.870312 
L 957.73967 31.270312 
" clip-path="url(#p3a63bf3e57)" style="fill: none; stroke-dasharray: 1.48,0.64; stroke-dashoffset: 0; stroke: #21262d; stroke-opacity: 0.4; stroke-width: 0.4"/>
     </g>
     <g id="line2d_14">
      <g>
       <use xlink:href="#m355642b2e8" x="957.73967" y="556.870312" style="fill: #c9d1d9; stroke: #c9d1d9; stroke-width: 0.8"/>
      </g>
     </g>
     <g id="text_7">
      <!-- 2026-07 -->
      <g style="fill: #c9d1d9" transform="translate(926.803781 587.324237) rotate(-30) scale(0.1 -0.1)">
       <use xlink:href="#SimHei-32"/>
       <use xlink:href="#SimHei-30" transform="translate(50 0)"/>
       <use xlink:href="#SimHei-32" transform="translate(100 0)"/>
       <use xlink:href="#SimHei-36" transform="translate(150 0)"/>
       <use xlink:href="#SimHei-2d" transform="translate(200 0)"/>
       <use xlink:href="#SimHei-30" transform="translate(250 0)"/>
       <use xlink:href="#SimHei-37" transform="translate(300 0)"/>
      </g>
     </g>
    </g>
   </g>
   <g id="matplotlib.axis_2">
    <g id="ytick_1">
     <g id="line2d_15">
      <path d="M 24.2 545.231152 
L 1049.48 545.231152 
" clip-path="url(#p3a63bf3e57)" style="fill: none; stroke-dasharray: 1.48,0.64; stroke-dashoffset: 0; stroke: #21262d; stroke-opacity: 0.4; stroke-width: 0.4"/>
     </g>
     <g id="line2d_16">
      <defs>
       <path id="m50bc343e01" d="M 0 0 
L -3.5 0 
" style="stroke: #c9d1d9; stroke-width: 0.8"/>
      </defs>
      <g>
       <use xlink:href="#m50bc343e01" x="24.2" y="545.231152" style="fill: #c9d1d9; stroke: #c9d1d9; stroke-width: 0.8"/>
      </g>
     </g>
     <g id="text_8">
      <!-- -8 -->
      <g style="fill: #c9d1d9" transform="translate(7.2 548.668652) scale(0.1 -0.1)">
       <defs>
        <path id="SimHei-38" d="M 175 1375 
Q 175 1675 325 1962 
Q 475 2250 825 2425 
Q 525 2600 425 2812 
Q 325 3025 312 3300 
Q 300 3575 387 3775 
Q 475 3975 650 4150 
Q 825 4325 1037 4387 
Q 1250 4450 1500 4450 
Q 1750 4450 1950 4400 
Q 2150 4350 2375 4187 
Q 2600 4025 2700 3725 
Q 2800 3425 2687 3025 
Q 2575 2625 2100 2400 
Q 2525 2275 2700 2012 
Q 2875 1750 2875 1375 
Q 2875 1000 2762 775 
Q 2650 550 2512 400 
Q 2375 250 2137 162 
Q 1900 75 1537 75 
Q 1175 75 912 162 
Q 650 250 475 425 
Q 300 600 237 837 
Q 175 1075 175 1375 
z
M 687 1400 
Q 675 1100 787 875 
Q 900 650 1200 587 
Q 1500 525 1825 600 
Q 2150 675 2275 950 
Q 2400 1225 2362 1500 
Q 2325 1775 2050 1962 
Q 1775 2150 1450 2125 
Q 1125 2100 912 1900 
Q 700 1700 687 1400 
z
M 775 3350 
Q 775 3100 950 2875 
Q 1125 2650 1500 2650 
Q 1875 2650 2062 2875 
Q 2250 3100 2237 3412 
Q 2225 3725 2012 3875 
Q 1800 4025 1437 4000 
Q 1075 3975 925 3787 
Q 775 3600 775 3350 
z
" transform="scale(0.015625)"/>
       </defs>
       <use xlink:href="#SimHei-2d"/>
       <use xlink:href="#SimHei-38" transform="translate(50 0)"/>
      </g>
     </g>
    </g>
    <g id="ytick_2">
     <g id="line2d_17">
      <path d="M 24.2 483.97241 
L 1049.48 483.97241 
" clip-path="url(#p3a63bf3e57)" style="fill: none; stroke-dasharray: 1.48,0.64; stroke-dashoffset: 0; stroke: #21262d; stroke-opacity: 0.4; stroke-width: 0.4"/>
     </g>
     <g id="line2d_18">
      <g>
       <use xlink:href="#m50bc343e01" x="24.2" y="483.97241" style="fill: #c9d1d9; stroke: #c9d1d9; stroke-width: 0.8"/>
      </g>
     </g>
     <g id="text_9">
      <!-- -7 -->
      <g style="fill: #c9d1d9" transform="translate(7.2 487.40991) scale(0.1 -0.1)">
       <use xlink:href="#SimHei-2d"/>
       <use xlink:href="#SimHei-37" transform="translate(50 0)"/>
      </g>
     </g>
    </g>
    <g id="ytick_3">
     <g id="line2d_19">
      <path d="M 24.2 422.713669 
L 1049.48 422.713669 
" clip-path="url(#p3a63bf3e57)" style="fill: none; stroke-dasharray: 1.48,0.64; stroke-dashoffset: 0; stroke: #21262d; stroke-opacity: 0.4; stroke-width: 0.4"/>
     </g>
     <g id="line2d_20">
      <g>
       <use xlink:href="#m50bc343e01" x="24.2" y="422.713669" style="fill: #c9d1d9; stroke: #c9d1d9; stroke-width: 0.8"/>
      </g>
     </g>
     <g id="text_10">
      <!-- -6 -->
      <g style="fill: #c9d1d9" transform="translate(7.2 426.151169) scale(0.1 -0.1)">
       <use xlink:href="#SimHei-2d"/>
       <use xlink:href="#SimHei-36" transform="translate(50 0)"/>
      </g>
     </g>
    </g>
    <g id="ytick_4">
     <g id="line2d_21">
      <path d="M 24.2 361.454928 
L 1049.48 361.454928 
" clip-path="url(#p3a63bf3e57)" style="fill: none; stroke-dasharray: 1.48,0.64; stroke-dashoffset: 0; stroke: #21262d; stroke-opacity: 0.4; stroke-width: 0.4"/>
     </g>
     <g id="line2d_22">
      <g>
       <use xlink:href="#m50bc343e01" x="24.2" y="361.454928" style="fill: #c9d1d9; stroke: #c9d1d9; stroke-width: 0.8"/>
      </g>
     </g>
     <g id="text_11">
      <!-- -5 -->
      <g style="fill: #c9d1d9" transform="translate(7.2 364.892428) scale(0.1 -0.1)">
       <use xlink:href="#SimHei-2d"/>
       <use xlink:href="#SimHei-35" transform="translate(50 0)"/>
      </g>
     </g>
    </g>
    <g id="ytick_5">
     <g id="line2d_23">
      <path d="M 24.2 300.196187 
L 1049.48 300.196187 
" clip-path="url(#p3a63bf3e57)" style="fill: none; stroke-dasharray: 1.48,0.64; stroke-dashoffset: 0; stroke: #21262d; stroke-opacity: 0.4; stroke-width: 0.4"/>
     </g>
     <g id="line2d_24">
      <g>
       <use xlink:href="#m50bc343e01" x="24.2" y="300.196187" style="fill: #c9d1d9; stroke: #c9d1d9; stroke-width: 0.8"/>
      </g>
     </g>
     <g id="text_12">
      <!-- -4 -->
      <g style="fill: #c9d1d9" transform="translate(7.2 303.633687) scale(0.1 -0.1)">
       <defs>
        <path id="SimHei-34" d="M 2000 1100 
L 75 1100 
L 75 1525 
L 2100 4450 
L 2475 4450 
L 2475 1525 
L 3075 1525 
L 3075 1100 
L 2475 1100 
L 2475 150 
L 2000 150 
L 2000 1100 
z
M 2000 1525 
L 2000 3500 
L 600 1525 
L 2000 1525 
z
" transform="scale(0.015625)"/>
       </defs>
       <use xlink:href="#SimHei-2d"/>
       <use xlink:href="#SimHei-34" transform="translate(50 0)"/>
      </g>
     </g>
    </g>
    <g id="ytick_6">
     <g id="line2d_25">
      <path d="M 24.2 238.937445 
L 1049.48 238.937445 
" clip-path="url(#p3a63bf3e57)" style="fill: none; stroke-dasharray: 1.48,0.64; stroke-dashoffset: 0; stroke: #21262d; stroke-opacity: 0.4; stroke-width: 0.4"/>
     </g>
     <g id="line2d_26">
      <g>
       <use xlink:href="#m50bc343e01" x="24.2" y="238.937445" style="fill: #c9d1d9; stroke: #c9d1d9; stroke-width: 0.8"/>
      </g>
     </g>
     <g id="text_13">
      <!-- -3 -->
      <g style="fill: #c9d1d9" transform="translate(7.2 242.374945) scale(0.1 -0.1)">
       <use xlink:href="#SimHei-2d"/>
       <use xlink:href="#SimHei-33" transform="translate(50 0)"/>
      </g>
     </g>
    </g>
    <g id="ytick_7">
     <g id="line2d_27">
      <path d="M 24.2 177.678704 
L 1049.48 177.678704 
" clip-path="url(#p3a63bf3e57)" style="fill: none; stroke-dasharray: 1.48,0.64; stroke-dashoffset: 0; stroke: #21262d; stroke-opacity: 0.4; stroke-width: 0.4"/>
     </g>
     <g id="line2d_28">
      <g>
       <use xlink:href="#m50bc343e01" x="24.2" y="177.678704" style="fill: #c9d1d9; stroke: #c9d1d9; stroke-width: 0.8"/>
      </g>
     </g>
     <g id="text_14">
      <!-- -2 -->
      <g style="fill: #c9d1d9" transform="translate(7.2 181.116204) scale(0.1 -0.1)">
       <use xlink:href="#SimHei-2d"/>
       <use xlink:href="#SimHei-32" transform="translate(50 0)"/>
      </g>
     </g>
    </g>
    <g id="ytick_8">
     <g id="line2d_29">
      <path d="M 24.2 116.419963 
L 1049.48 116.419963 
" clip-path="url(#p3a63bf3e57)" style="fill: none; stroke-dasharray: 1.48,0.64; stroke-dashoffset: 0; stroke: #21262d; stroke-opacity: 0.4; stroke-width: 0.4"/>
     </g>
     <g id="line2d_30">
      <g>
       <use xlink:href="#m50bc343e01" x="24.2" y="116.419963" style="fill: #c9d1d9; stroke: #c9d1d9; stroke-width: 0.8"/>
      </g>
     </g>
     <g id="text_15">
      <!-- -1 -->
      <g style="fill: #c9d1d9" transform="translate(7.2 119.857463) scale(0.1 -0.1)">
       <use xlink:href="#SimHei-2d"/>
       <use xlink:href="#SimHei-31" transform="translate(50 0)"/>
      </g>
     </g>
    </g>
    <g id="ytick_9">
     <g id="line2d_31">
      <path d="M 24.2 55.161222 
L 1049.48 55.161222 
" clip-path="url(#p3a63bf3e57)" style="fill: none; stroke-dasharray: 1.48,0.64; stroke-dashoffset: 0; stroke: #21262d; stroke-opacity: 0.4; stroke-width: 0.4"/>
     </g>
     <g id="line2d_32">
      <g>
       <use xlink:href="#m50bc343e01" x="24.2" y="55.161222" style="fill: #c9d1d9; stroke: #c9d1d9; stroke-width: 0.8"/>
      </g>
     </g>
     <g id="text_16">
      <!-- 0 -->
      <g style="fill: #c9d1d9" transform="translate(12.2 58.598722) scale(0.1 -0.1)">
       <use xlink:href="#SimHei-30"/>
      </g>
     </g>
    </g>
   </g>
   <g id="line2d_33">
    <path d="M 70.803636 527.666516 
L 73.060471 528.034069 
L 75.317306 526.729249 
L 77.57414 527.917669 
L 86.601479 530.485919 
L 88.858314 528.158088 
L 91.115149 528.897307 
L 93.371983 531.276157 
L 102.399322 524.766173 
L 104.656157 524.114057 
L 109.169826 516.21306 
L 115.94033 510.978457 
L 120.454 501.256594 
L 122.710834 501.758916 
L 124.967669 510.708919 
L 131.738173 509.154103 
L 133.995008 507.371458 
L 136.251842 507.099579 
L 138.508677 508.530508 
L 140.765512 503.900483 
L 147.536016 505.548092 
L 152.049685 502.83713 
L 154.30652 497.895842 
L 156.563355 499.125126 
L 163.333859 498.191759 
L 165.590693 500.200255 
L 167.847528 500.809406 
L 170.104363 502.693686 
L 172.361197 499.131252 
L 179.131702 497.897717 
L 185.902206 490.830787 
L 188.15904 495.014664 
L 194.929544 496.592115 
L 199.443214 492.992651 
L 203.956883 503.536661 
L 210.727387 500.411848 
L 212.984222 495.654278 
L 217.497891 494.263629 
L 219.754726 495.244905 
L 226.52523 495.269717 
L 228.782065 491.474004 
L 231.038899 492.972205 
L 233.295734 490.565871 
L 235.552569 491.246777 
L 242.323073 487.313032 
L 244.579908 490.618657 
L 246.836742 484.773354 
L 249.093577 481.946244 
L 251.350412 471.836502 
L 258.120916 467.990088 
L 260.37775 470.937074 
L 262.634585 478.581727 
L 264.89142 470.515562 
L 267.148254 469.757441 
L 273.918759 473.241045 
L 276.175593 467.899338 
L 278.432428 474.455396 
L 282.946097 475.062667 
L 289.716601 473.506695 
L 291.973436 474.581531 
L 296.487105 467.9817 
L 298.74394 469.795826 
L 305.514444 470.380262 
L 307.771279 474.815465 
L 310.028114 475.442264 
L 312.284948 483.184193 
L 314.541783 483.13612 
L 321.312287 484.48787 
L 325.825956 476.936612 
L 330.339626 478.492585 
L 337.11013 475.044484 
L 339.366965 475.733324 
L 359.678477 471.502725 
L 361.935311 475.225899 
L 368.705816 475.697591 
L 370.96265 472.561073 
L 375.47632 461.984456 
L 377.733154 468.313469 
L 384.503658 465.423787 
L 386.760493 461.850425 
L 389.017328 460.925976 
L 391.274162 456.847384 
L 393.530997 454.973097 
L 400.301501 451.944353 
L 402.558336 454.288466 
L 404.815171 460.572709 
L 407.072005 462.558614 
L 409.32884 480.655785 
L 416.099344 477.460441 
L 418.356179 474.455396 
L 420.613013 475.954331 
L 422.869848 471.46656 
L 425.126683 472.11821 
L 431.897187 468.968937 
L 434.154022 469.992614 
L 438.667691 463.705826 
L 440.924526 467.169729 
L 449.951864 473.616152 
L 452.208699 467.377941 
L 454.465534 467.200358 
L 456.722368 473.340487 
L 463.492873 475.830959 
L 465.749707 471.599841 
L 468.006542 473.364043 
L 470.263377 471.067788 
L 472.520211 474.131534 
L 481.54755 472.107758 
L 483.804385 475.328887 
L 486.061219 473.645424 
L 495.088558 471.758583 
L 497.345393 474.051898 
L 499.602228 478.104214 
L 504.115897 479.356068 
L 510.886401 483.539494 
L 513.143236 487.581745 
L 517.656905 478.661669 
L 519.91374 479.895145 
L 528.941079 475.423886 
L 531.197913 476.327405 
L 535.711583 476.204887 
L 546.995756 472.836261 
L 558.27993 466.242923 
L 560.536764 458.0806 
L 562.793599 460.448292 
L 565.050434 465.177676 
L 567.307268 464.580578 
L 576.334607 463.511229 
L 578.591442 469.507042 
L 580.848276 471.941724 
L 583.105111 478.245109 
L 589.875615 480.317178 
L 592.13245 478.37696 
L 594.389285 482.708807 
L 596.646119 484.404745 
L 598.902954 491.001473 
L 610.187127 482.192612 
L 612.443962 475.128295 
L 614.700797 480.156382 
L 621.471301 488.192457 
L 623.728136 488.363981 
L 625.98497 481.070573 
L 628.241805 482.161983 
L 630.49864 484.471188 
L 639.525978 477.932384 
L 641.782813 477.616949 
L 644.039648 481.497948 
L 646.296483 489.858695 
L 671.121664 486.867347 
L 673.378499 485.561032 
L 675.635333 490.084283 
L 677.892168 492.114101 
L 684.662672 486.560111 
L 686.919507 480.155734 
L 689.176342 486.994018 
L 700.460515 488.120513 
L 702.71735 491.023696 
L 704.974184 487.509994 
L 707.231019 488.615497 
L 709.487854 480.905914 
L 716.258358 479.870641 
L 718.515193 477.049916 
L 720.772027 478.367449 
L 723.028862 478.362608 
L 725.285697 482.313334 
L 732.056201 498.342678 
L 736.56987 492.87391 
L 738.826705 493.112819 
L 741.08354 490.794884 
L 750.110878 490.80101 
L 752.367713 485.034207 
L 754.624548 486.689127 
L 756.881382 491.607934 
L 765.908721 492.269997 
L 768.165556 486.655294 
L 770.42239 489.211227 
L 779.449729 489.344476 
L 783.963399 483.894689 
L 786.220233 483.404531 
L 788.477068 486.454425 
L 795.247572 480.328752 
L 797.504407 480.581872 
L 799.761241 485.995776 
L 804.274911 480.95244 
L 811.045415 481.762468 
L 813.30225 479.699746 
L 817.815919 479.422533 
L 831.356927 476.019714 
L 835.870597 481.129748 
L 844.897935 477.773556 
L 851.668439 488.623969 
L 858.438943 491.95987 
L 860.695778 489.585263 
L 862.952613 491.755225 
L 865.209448 496.699004 
L 867.466282 496.755485 
L 874.236786 491.130386 
L 876.493621 490.653137 
L 878.750456 498.120207 
L 881.00729 500.727029 
L 883.264125 498.892067 
L 890.034629 499.879681 
L 892.291464 497.753877 
L 894.548298 497.679084 
L 896.805133 503.401892 
L 899.061968 504.131054 
L 908.089307 503.095782 
L 910.346141 499.489255 
L 912.602976 499.992123 
L 914.859811 492.444168 
L 921.630315 483.300062 
L 923.887149 490.670011 
L 926.143984 491.960301 
L 928.400819 498.595476 
L 937.428158 486.081538 
L 939.684992 492.382909 
L 941.941827 494.705346 
L 944.198662 493.877774 
L 946.455496 505.489674 
L 953.226 495.958049 
L 955.482835 498.898757 
L 957.73967 497.190422 
L 959.996505 504.90159 
L 969.023843 496.631151 
L 971.280678 497.940008 
L 973.537513 494.154808 
L 975.794347 486.547192 
L 978.051182 490.696018 
L 984.821686 489.468683 
L 987.078521 484.037268 
L 989.335355 481.68257 
L 991.59219 490.457109 
L 993.849025 495.01164 
L 1000.619529 476.794583 
L 1002.876364 475.448378 
L 1002.876364 475.448378 
" clip-path="url(#p3a63bf3e57)" style="fill: none; stroke: #58a6ff; stroke-width: 2; stroke-linecap: square"/>
   </g>
   <g id="line2d_34">
    <path d="M 24.2 214.433949 
L 1049.48 214.433949 
" clip-path="url(#p3a63bf3e57)" style="fill: none; stroke-dasharray: 1,1.65; stroke-dashoffset: 0; stroke: #f85149; stroke-opacity: 0.6"/>
   </g>
   <g id="line2d_35">
    <path d="M 24.2 392.084299 
L 1049.48 392.084299 
" clip-path="url(#p3a63bf3e57)" style="fill: none; stroke-dasharray: 1,1.65; stroke-dashoffset: 0; stroke: #f85149; stroke-opacity: 0.6"/>
   </g>
   <g id="line2d_36">
    <path d="M 24.2 532.979403 
L 1049.48 532.979403 
" clip-path="url(#p3a63bf3e57)" style="fill: none; stroke-dasharray: 1,1.65; stroke-dashoffset: 0; stroke: #f85149; stroke-opacity: 0.6"/>
   </g>
   <g id="patch_3">
    <path d="M 24.2 556.870312 
L 24.2 31.270312 
" style="fill: none; stroke: #30363d; stroke-width: 0.8; stroke-linejoin: miter; stroke-linecap: square"/>
   </g>
   <g id="patch_4">
    <path d="M 1049.48 556.870312 
L 1049.48 31.270312 
" style="fill: none; stroke: #30363d; stroke-width: 0.8; stroke-linejoin: miter; stroke-linecap: square"/>
   </g>
   <g id="patch_5">
    <path d="M 24.2 556.870312 
L 1049.48 556.870312 
" style="fill: none; stroke: #30363d; stroke-width: 0.8; stroke-linejoin: miter; stroke-linecap: square"/>
   </g>
   <g id="patch_6">
    <path d="M 24.2 31.270312 
L 1049.48 31.270312 
" style="fill: none; stroke: #30363d; stroke-width: 0.8; stroke-linejoin: miter; stroke-linecap: square"/>
   </g>
   <g id="text_17">
    <!--  高息 -->
    <g style="fill: #f85149; opacity: 0.7" transform="translate(1002.876364 217.439808) scale(0.09 -0.09)">
     <defs>
      <path id="SimHei-20" transform="scale(0.015625)"/>
      <path id="SimHei-9ad8" d="M 5825 -25 
Q 5850 -400 5550 -500 
Q 5250 -600 4975 -625 
Q 4875 -325 4725 -100 
Q 4975 -100 5175 -87 
Q 5375 -75 5350 250 
L 5350 1825 
L 1100 1825 
L 1100 -575 
L 600 -575 
Q 625 -225 625 850 
Q 625 1950 600 2200 
L 5850 2200 
Q 5825 1850 5825 1425 
L 5825 -25 
z
M 4925 3800 
Q 4900 3475 4900 3175 
Q 4900 2900 4925 2600 
L 1400 2600 
Q 1425 2825 1425 3175 
Q 1425 3525 1400 3800 
L 4925 3800 
z
M 4500 1400 
Q 4475 1125 4475 800 
Q 4475 500 4500 200 
L 1950 200 
Q 2000 500 2000 800 
Q 2000 1125 1950 1400 
L 4500 1400 
z
M 425 4600 
Q 750 4575 1125 4575 
L 2925 4575 
Q 2850 4875 2750 5100 
Q 3050 5125 3350 5200 
Q 3400 4950 3525 4575 
L 5250 4575 
Q 5600 4575 5975 4600 
L 5975 4150 
Q 5600 4175 5050 4175 
L 1150 4175 
Q 750 4175 425 4150 
L 425 4600 
z
M 4450 2975 
L 4450 3425 
L 1900 3425 
L 1900 2975 
L 4450 2975 
z
M 4025 550 
L 4025 1050 
L 2400 1050 
L 2400 550 
L 4025 550 
z
" transform="scale(0.015625)"/>
      <path id="SimHei-606f" d="M 3100 5100 
Q 2850 4725 2775 4525 
L 5300 4525 
Q 5275 4025 5275 3175 
Q 5275 2350 5300 1775 
L 1150 1775 
Q 1175 2350 1175 3175 
Q 1175 4025 1150 4525 
L 2325 4525 
Q 2400 4725 2475 5250 
Q 2750 5175 3100 5100 
z
M 2350 1350 
Q 2325 675 2325 375 
Q 2325 75 2387 12 
Q 2450 -50 2775 -50 
L 4025 -50 
Q 4200 -50 4262 25 
Q 4325 100 4350 550 
Q 4550 425 4875 350 
Q 4750 -150 4650 -275 
Q 4550 -400 4200 -425 
L 2350 -425 
Q 1950 -400 1887 -212 
Q 1825 -25 1837 325 
Q 1850 675 1825 1350 
L 2350 1350 
z
M 4800 3725 
L 4800 4175 
L 1650 4175 
L 1650 3725 
L 4800 3725 
z
M 4800 2125 
L 4800 2575 
L 1650 2575 
L 1650 2125 
L 4800 2125 
z
M 4800 2925 
L 4800 3375 
L 1650 3375 
L 1650 2925 
L 4800 2925 
z
M 5225 1425 
Q 5650 875 6125 325 
Q 5875 150 5700 -25 
Q 5225 700 4825 1100 
Q 5025 1225 5225 1425 
z
M 1275 1075 
Q 975 150 800 -225 
Q 575 -125 300 -50 
Q 600 375 800 1200 
Q 1000 1125 1275 1075 
z
M 3350 1500 
Q 3625 1100 3800 750 
Q 3625 675 3350 500 
Q 3175 925 2925 1250 
Q 3150 1375 3350 1500 
z
" transform="scale(0.015625)"/>
     </defs>
     <use xlink:href="#SimHei-20"/>
     <use xlink:href="#SimHei-9ad8" transform="translate(50 0)"/>
     <use xlink:href="#SimHei-606f" transform="translate(150 0)"/>
    </g>
   </g>
   <g id="text_18">
    <!--  正常 -->
    <g style="fill: #f85149; opacity: 0.7" transform="translate(1002.876364 395.07258) scale(0.09 -0.09)">
     <defs>
      <path id="SimHei-6b63" d="M 4825 4625 
Q 5300 4625 5675 4650 
L 5675 4150 
Q 5300 4175 4775 4175 
L 3575 4175 
L 3575 2600 
L 4850 2600 
Q 5250 2600 5550 2625 
L 5550 2150 
Q 5250 2175 4850 2175 
L 3575 2175 
L 3575 150 
L 4850 150 
Q 5375 150 5900 175 
L 5900 -325 
Q 5375 -300 4975 -300 
L 1175 -300 
Q 700 -300 375 -325 
L 375 175 
Q 700 150 1175 150 
L 1325 150 
L 1325 2350 
Q 1325 2800 1300 3125 
L 1875 3125 
Q 1850 2825 1850 2350 
L 1850 150 
L 3075 150 
L 3075 4175 
L 1625 4175 
Q 1150 4175 800 4150 
L 800 4650 
Q 1150 4625 1625 4625 
L 4825 4625 
z
" transform="scale(0.015625)"/>
      <path id="SimHei-5e38" d="M 5000 3225 
Q 4975 2875 4975 2525 
Q 4975 2175 5000 1875 
L 3450 1875 
L 3450 1400 
L 5550 1400 
Q 5525 1125 5525 800 
L 5525 300 
Q 5525 -100 5187 -225 
Q 4850 -350 4350 -375 
Q 4300 -100 4175 150 
Q 4675 100 4875 162 
Q 5075 225 5050 450 
L 5050 1000 
L 3450 1000 
L 3450 50 
Q 3450 -250 3475 -650 
L 2950 -650 
Q 2950 -250 2975 50 
L 2975 1000 
L 1400 1000 
L 1400 -250 
L 900 -250 
Q 925 100 925 600 
Q 925 1125 900 1400 
L 2975 1400 
L 2975 1875 
L 1400 1875 
Q 1425 2225 1425 2550 
Q 1425 2875 1400 3225 
L 5000 3225 
z
M 5175 4825 
Q 4975 4625 4625 4075 
L 5925 4075 
Q 5900 3725 5900 3475 
Q 5900 3250 5925 2875 
L 5425 2875 
L 5425 3675 
L 1000 3675 
L 1000 2850 
L 500 2850 
Q 525 3150 525 3425 
Q 525 3725 500 4075 
L 1750 4075 
Q 1525 4500 1225 4800 
Q 1425 4900 1575 5100 
Q 1850 4800 2175 4375 
Q 2000 4250 1800 4075 
L 2975 4075 
Q 2975 4775 2950 5200 
L 3475 5200 
Q 3450 4775 3450 4075 
L 4150 4075 
Q 4475 4650 4675 5125 
Q 4925 4950 5175 4825 
z
M 4525 2275 
L 4525 2825 
L 1875 2825 
L 1875 2275 
L 4525 2275 
z
" transform="scale(0.015625)"/>
     </defs>
     <use xlink:href="#SimHei-20"/>
     <use xlink:href="#SimHei-6b63" transform="translate(50 0)"/>
     <use xlink:href="#SimHei-5e38" transform="translate(150 0)"/>
    </g>
   </g>
   <g id="text_19">
    <!--  低息 -->
    <g style="fill: #f85149; opacity: 0.7" transform="translate(1002.876364 536.002841) scale(0.09 -0.09)">
     <defs>
      <path id="SimHei-4f4e" d="M 2300 4550 
Q 2750 4525 3750 4637 
Q 4750 4750 5275 5000 
Q 5425 4725 5600 4475 
Q 5125 4400 4350 4300 
Q 4350 3825 4400 2850 
L 5000 2850 
Q 5425 2850 5850 2875 
L 5850 2425 
Q 5425 2450 5025 2450 
L 4450 2450 
Q 4575 1325 4862 762 
Q 5150 200 5325 75 
Q 5500 -50 5562 125 
Q 5625 300 5675 775 
Q 5925 575 6150 525 
Q 6000 -100 5850 -337 
Q 5700 -575 5350 -500 
Q 5000 -425 4587 262 
Q 4175 950 4000 2450 
L 2775 2450 
L 2775 500 
Q 3275 950 3575 1275 
Q 3675 975 3775 800 
Q 2775 -50 2500 -350 
Q 2325 -175 2175 25 
Q 2300 150 2325 500 
L 2325 3725 
Q 2325 4075 2300 4550 
z
M 2050 5075 
Q 1900 4900 1600 3950 
L 1600 425 
Q 1600 -75 1625 -625 
L 1100 -625 
Q 1125 -75 1125 450 
L 1125 3025 
Q 875 2500 625 2125 
Q 400 2350 225 2425 
Q 600 2900 962 3687 
Q 1325 4475 1500 5275 
Q 1575 5200 2050 5075 
z
M 3950 2850 
Q 3900 3775 3900 4225 
Q 3125 4175 2775 4150 
L 2775 2850 
L 3950 2850 
z
M 3850 -625 
Q 3450 -75 3250 100 
Q 3450 275 3575 425 
Q 3925 50 4225 -300 
Q 4025 -450 3850 -625 
z
" transform="scale(0.015625)"/>
     </defs>
     <use xlink:href="#SimHei-20"/>
     <use xlink:href="#SimHei-4f4e" transform="translate(50 0)"/>
     <use xlink:href="#SimHei-606f" transform="translate(150 0)"/>
    </g>
   </g>
   <g id="text_20">
    <!-- 2026-07-21 -->
    <g style="fill: #8b949e; opacity: 0.6" transform="translate(994.2272 550.489312) scale(0.09 -0.09)">
     <use xlink:href="#SimHei-32"/>
     <use xlink:href="#SimHei-30" transform="translate(50 0)"/>
     <use xlink:href="#SimHei-32" transform="translate(100 0)"/>
     <use xlink:href="#SimHei-36" transform="translate(150 0)"/>
     <use xlink:href="#SimHei-2d" transform="translate(200 0)"/>
     <use xlink:href="#SimHei-30" transform="translate(250 0)"/>
     <use xlink:href="#SimHei-37" transform="translate(300 0)"/>
     <use xlink:href="#SimHei-2d" transform="translate(350 0)"/>
     <use xlink:href="#SimHei-32" transform="translate(400 0)"/>
     <use xlink:href="#SimHei-31" transform="translate(450 0)"/>
    </g>
   </g>
   <g id="text_21">
    <!-- 股债利差 -->
    <g style="fill: #c9d1d9" transform="translate(506.84 19.270312) scale(0.15 -0.15)">
     <defs>
      <path id="SimHei-80a1" d="M 1575 50 
Q 1925 25 2100 50 
Q 2275 75 2275 450 
L 2275 1625 
L 1325 1625 
Q 1250 900 1125 437 
Q 1000 -25 750 -525 
Q 550 -325 225 -250 
Q 550 150 687 762 
Q 825 1375 837 2150 
Q 850 2925 850 3725 
Q 850 4525 825 4900 
L 2750 4900 
Q 2725 4400 2725 3900 
L 2725 225 
Q 2725 -250 2512 -350 
Q 2300 -450 1750 -550 
Q 1700 -225 1575 50 
z
M 5225 -275 
Q 4950 -150 4450 275 
Q 4200 25 3875 -212 
Q 3550 -450 3100 -700 
Q 2925 -375 2725 -225 
Q 3250 -50 3550 137 
Q 3850 325 4100 600 
Q 3825 950 3625 1375 
Q 3425 1750 3325 2150 
Q 3225 2150 3125 2150 
L 3125 2600 
Q 3550 2575 3950 2575 
L 5725 2575 
Q 5650 2200 5375 1600 
Q 5100 1000 4775 600 
Q 5025 425 5387 237 
Q 5750 50 6200 -50 
Q 5950 -250 5850 -600 
L 5225 -275 
z
M 5325 3750 
Q 5300 3425 5600 3425 
L 6150 3450 
Q 6050 3225 6025 3000 
L 5400 3000 
Q 4825 3000 4825 3450 
L 4825 4500 
L 4000 4500 
Q 4000 3900 3862 3512 
Q 3725 3125 3275 2750 
Q 3150 2950 2900 3125 
Q 3425 3450 3475 3950 
Q 3525 4450 3500 4900 
L 5350 4900 
Q 5325 4675 5325 4375 
L 5325 3750 
z
M 2275 2050 
L 2275 3075 
L 1350 3075 
L 1350 2050 
L 2275 2050 
z
M 2275 3475 
L 2275 4500 
L 1350 4500 
L 1350 3475 
L 2275 3475 
z
M 3800 2175 
Q 3900 1750 4050 1475 
Q 4225 1175 4450 925 
Q 4925 1550 5050 2175 
L 3950 2175 
L 3800 2175 
z
" transform="scale(0.015625)"/>
      <path id="SimHei-503a" d="M 3750 4600 
Q 3750 4900 3725 5200 
L 4275 5200 
Q 4250 4875 4250 4600 
L 5000 4600 
Q 5550 4600 5800 4625 
L 5800 4200 
Q 5525 4225 5000 4225 
L 4250 4225 
L 4250 3850 
L 4875 3850 
Q 5250 3850 5625 3875 
L 5625 3450 
Q 5325 3475 4875 3475 
L 4250 3475 
L 4250 3100 
L 5150 3100 
Q 5725 3100 6050 3125 
L 6050 2700 
Q 5675 2725 5150 2725 
L 2875 2725 
Q 2400 2725 2000 2700 
L 2000 3125 
Q 2375 3100 2850 3100 
L 3750 3100 
L 3750 3475 
L 3325 3475 
Q 2850 3475 2500 3450 
L 2500 3875 
Q 2850 3850 3300 3850 
L 3750 3850 
L 3750 4225 
L 3225 4225 
Q 2675 4225 2300 4200 
L 2300 4625 
Q 2650 4600 3125 4600 
L 3750 4600 
z
M 250 2600 
Q 500 2875 887 3550 
Q 1275 4225 1500 5075 
Q 1750 4950 2100 4850 
Q 1900 4625 1550 3775 
L 1550 800 
Q 1550 -25 1575 -500 
L 1050 -500 
Q 1075 0 1075 825 
L 1075 2950 
Q 775 2450 625 2225 
L 250 2600 
z
M 5650 2300 
Q 5625 2100 5625 1550 
Q 5625 1025 5650 775 
L 5150 775 
L 5150 1925 
L 2975 1925 
L 2975 700 
L 2475 700 
Q 2500 1075 2500 1550 
Q 2500 2050 2475 2300 
L 5650 2300 
z
M 1950 -150 
Q 3250 25 3562 562 
Q 3875 1100 3800 1650 
L 4350 1600 
Q 4275 600 3825 112 
Q 3375 -375 2250 -600 
Q 2125 -350 1950 -150 
z
M 4675 675 
Q 5075 475 5412 300 
Q 5750 125 6050 -75 
Q 5900 -250 5750 -525 
Q 4875 125 4400 300 
Q 4525 500 4675 675 
z
" transform="scale(0.015625)"/>
      <path id="SimHei-5229" d="M 2400 2650 
Q 2950 2150 3500 1525 
Q 3325 1375 3125 1150 
Q 2775 1675 2400 2075 
L 2400 225 
Q 2400 -375 2425 -675 
L 1875 -675 
Q 1900 -350 1900 225 
L 1900 1975 
Q 1625 1450 1375 1100 
Q 1125 750 725 275 
Q 575 525 300 700 
Q 850 1150 1287 1837 
Q 1725 2525 1850 2950 
L 1375 2950 
Q 775 2950 500 2925 
L 500 3400 
Q 800 3375 1375 3375 
L 1900 3375 
L 1900 4350 
Q 1400 4250 825 4150 
Q 750 4400 625 4625 
Q 1050 4650 1800 4800 
Q 2550 4950 3225 5175 
Q 3350 4875 3550 4650 
Q 3050 4575 2400 4450 
L 2400 3375 
L 2825 3375 
Q 3350 3375 3750 3400 
L 3750 2925 
Q 3350 2950 2850 2950 
L 2400 2950 
L 2400 2650 
z
M 5775 5125 
Q 5750 4875 5750 4275 
L 5750 -100 
Q 5750 -400 5512 -487 
Q 5275 -575 4675 -675 
Q 4600 -300 4500 -75 
Q 5025 -100 5137 -50 
Q 5250 0 5250 150 
L 5250 4300 
Q 5250 4650 5225 5125 
L 5775 5125 
z
M 4625 4100 
Q 4600 3800 4600 3300 
L 4600 1725 
Q 4600 1200 4625 825 
L 4075 825 
Q 4100 1275 4100 1725 
L 4100 3300 
Q 4100 3700 4075 4100 
L 4625 4100 
z
" transform="scale(0.015625)"/>
      <path id="SimHei-5dee" d="M 4725 4975 
Q 4500 4725 4250 4275 
L 4850 4275 
Q 5450 4275 5825 4300 
L 5825 3850 
Q 5425 3875 4850 3875 
L 3275 3875 
Q 3225 3600 3150 3275 
L 4525 3275 
Q 5075 3275 5525 3300 
L 5525 2850 
Q 5075 2875 4500 2875 
L 3050 2875 
Q 2975 2650 2850 2325 
L 5125 2325 
Q 5675 2325 6025 2350 
L 6025 1900 
Q 5700 1925 5150 1925 
L 2650 1925 
Q 2425 1550 2250 1300 
Q 2650 1275 3100 1275 
L 4525 1275 
Q 4975 1275 5350 1300 
L 5350 850 
Q 4975 875 4575 875 
L 3925 875 
L 3925 -50 
L 5000 -50 
Q 5200 -50 5900 -25 
L 5900 -500 
Q 5275 -475 5025 -475 
L 2100 -475 
Q 1700 -475 1400 -500 
L 1400 -25 
Q 1775 -50 2125 -50 
L 3425 -50 
L 3425 875 
L 3100 875 
Q 2625 875 2175 850 
L 2175 1200 
Q 1925 875 1487 475 
Q 1050 75 625 -250 
Q 425 -25 200 150 
Q 750 475 1262 925 
Q 1775 1375 2100 1925 
L 1325 1925 
Q 750 1925 375 1900 
L 375 2350 
Q 750 2325 1350 2325 
L 2325 2325 
Q 2450 2575 2550 2875 
L 1725 2875 
Q 1375 2875 1000 2850 
L 1000 3300 
Q 1500 3275 1700 3275 
L 2650 3275 
Q 2725 3575 2775 3875 
L 1500 3875 
Q 1100 3875 650 3850 
L 650 4300 
Q 1025 4275 1425 4275 
L 2275 4275 
Q 2075 4675 1850 4950 
Q 2025 5050 2250 5225 
Q 2450 4975 2725 4550 
Q 2525 4450 2325 4275 
L 3750 4275 
Q 4000 4700 4150 5250 
Q 4400 5100 4725 4975 
z
" transform="scale(0.015625)"/>
     </defs>
     <use xlink:href="#SimHei-80a1"/>
     <use xlink:href="#SimHei-503a" transform="translate(100 0)"/>
     <use xlink:href="#SimHei-5229" transform="translate(200 0)"/>
     <use xlink:href="#SimHei-5dee" transform="translate(300 0)"/>
    </g>
   </g>
  </g>
 </g>
 <defs>
  <clipPath id="p3a63bf3e57">
   <rect x="24.2" y="31.270312" width="1025.28" height="525.6"/>
  </clipPath>
 </defs>
</svg>
