<?xml version="1.0" encoding="utf-8" standalone="no"?>
<!DOCTYPE svg PUBLIC "-//W3C//DTD SVG 1.1//EN"
  "http://www.w3.org/Graphics/SVG/1.1/DTD/svg11.dtd">
<svg xmlns:xlink="http://www.w3.org/1999/xlink" width="1056.68pt" height="595.606769pt" viewBox="0 0 1056.68 595.606769" xmlns="http://www.w3.org/2000/svg" version="1.1">
 <metadata>
  <rdf:RDF xmlns:dc="http://purl.org/dc/elements/1.1/" xmlns:cc="http://creativecommons.org/ns#" xmlns:rdf="http://www.w3.org/1999/02/22-rdf-syntax-ns#">
   <cc:Work>
    <dc:type rdf:resource="http://purl.org/dc/dcmitype/StillImage"/>
    <dc:date>2026-07-20T22:30:22.831412</dc:date>
    <dc:format>image/svg+xml</dc:format>
    <dc:creator>
     <cc:Agent>
      <dc:title>Matplotlib v3.10.9, https://matplotlib.org/</dc:title>
     </cc:Agent>
    </dc:creator>
   </cc:Work>
  </rdf:RDF>
 </metadata>
 <defs>
  <style type="text/css">*{stroke-linejoin: round; stroke-linecap: butt}</style>
 </defs>
 <g id="figure_1">
  <g id="patch_1">
   <path d="M 0 595.606769 
L 1056.68 595.606769 
L 1056.68 0 
L 0 0 
z
" style="fill: #0d1117"/>
  </g>
  <g id="axes_1">
   <g id="patch_2">
    <path d="M 24.2 556.870312 
L 1049.48 556.870312 
L 1049.48 31.270312 
L 24.2 31.270312 
z
" style="fill: #161b22"/>
   </g>
   <g id="FillBetweenPolyCollection_1">
    <defs>
     <path id="ma1a7f7d1c0" d="M 70.803636 -540.445547 
L 70.803636 -65.453189 
L 79.765874 -67.940253 
L 82.006434 -67.5727 
L 84.246993 -68.87752 
L 86.487552 -67.6891 
L 93.209231 -66.143848 
L 95.44979 -65.12085 
L 97.69035 -67.448681 
L 99.930909 -66.709462 
L 102.171469 -64.330612 
L 108.893147 -70.194995 
L 111.133706 -70.840596 
L 113.374266 -71.492712 
L 115.614825 -76.466336 
L 117.855385 -79.393709 
L 124.577063 -84.628312 
L 126.817622 -90.016143 
L 129.058182 -94.350175 
L 131.298741 -93.847853 
L 133.539301 -84.89785 
L 140.260979 -86.452666 
L 142.501538 -88.235311 
L 144.742098 -88.50719 
L 146.982657 -87.076261 
L 149.223217 -91.706286 
L 155.944895 -90.058677 
L 158.185455 -91.77367 
L 160.426014 -92.769639 
L 162.666573 -97.710927 
L 164.907133 -96.481643 
L 171.628811 -97.41501 
L 173.869371 -95.406514 
L 176.10993 -94.797363 
L 178.35049 -92.913083 
L 180.591049 -96.475517 
L 187.312727 -97.709052 
L 189.553287 -99.977146 
L 191.793846 -103.203135 
L 194.034406 -104.775982 
L 196.274965 -100.592105 
L 202.996643 -99.014653 
L 205.237203 -100.487018 
L 207.477762 -102.614117 
L 209.718322 -95.941494 
L 211.958881 -92.070108 
L 218.680559 -95.194921 
L 220.921119 -99.952491 
L 223.161678 -101.023459 
L 225.402238 -101.34314 
L 227.642797 -100.361864 
L 234.364476 -100.337052 
L 236.605035 -104.132765 
L 238.845594 -102.634563 
L 241.086154 -105.040898 
L 243.326713 -104.359992 
L 250.048392 -108.293737 
L 252.288951 -104.988112 
L 254.52951 -110.833415 
L 256.77007 -113.660525 
L 259.010629 -123.770267 
L 265.732308 -127.616681 
L 267.972867 -124.669695 
L 270.213427 -117.025042 
L 272.453986 -125.091207 
L 274.694545 -125.849328 
L 281.416224 -122.365724 
L 283.656783 -127.707431 
L 285.897343 -121.151373 
L 288.137902 -120.700122 
L 290.378462 -120.544102 
L 297.10014 -122.100074 
L 299.340699 -121.025238 
L 301.581259 -124.566244 
L 303.821818 -127.625069 
L 306.062378 -125.810943 
L 312.784056 -125.226507 
L 315.024615 -120.791303 
L 317.265175 -120.164505 
L 319.505734 -112.422576 
L 321.746294 -112.470649 
L 328.467972 -111.118899 
L 330.708531 -115.227664 
L 332.949091 -118.670156 
L 335.18965 -118.027856 
L 337.43021 -117.114184 
L 344.151888 -120.562285 
L 346.392448 -119.873445 
L 366.557483 -124.104044 
L 368.798042 -120.38087 
L 375.51972 -119.909178 
L 377.76028 -123.045696 
L 380.000839 -128.08666 
L 382.241399 -133.622313 
L 384.481958 -127.2933 
L 391.203636 -130.182982 
L 393.444196 -133.756344 
L 395.684755 -134.680793 
L 397.925315 -138.759385 
L 400.165874 -140.633672 
L 406.887552 -143.662416 
L 409.128112 -141.318303 
L 411.368671 -135.03406 
L 413.609231 -133.048155 
L 415.84979 -114.950984 
L 422.571469 -118.146328 
L 424.812028 -121.151373 
L 427.052587 -119.652438 
L 429.293147 -124.140209 
L 431.533706 -123.488559 
L 438.255385 -126.637832 
L 440.495944 -125.614155 
L 442.736503 -129.795229 
L 444.977063 -131.900943 
L 447.217622 -128.43704 
L 453.939301 -123.741265 
L 456.17986 -121.990617 
L 458.42042 -128.228828 
L 460.660979 -128.406411 
L 462.901538 -122.266282 
L 469.623217 -119.77581 
L 471.863776 -124.006928 
L 474.104336 -122.242725 
L 476.344895 -124.538981 
L 478.585455 -121.475235 
L 485.307133 -123.491456 
L 487.547692 -123.499011 
L 489.788252 -120.277882 
L 492.028811 -121.961345 
L 494.269371 -122.352991 
L 500.991049 -123.848186 
L 503.231608 -121.554871 
L 505.472168 -117.502555 
L 507.712727 -116.769836 
L 509.953287 -116.250701 
L 516.674965 -112.067275 
L 518.915524 -108.025024 
L 521.156084 -112.593539 
L 523.396643 -116.9451 
L 525.637203 -115.711624 
L 532.358881 -119.175566 
L 534.599441 -120.182883 
L 536.84 -119.279364 
L 539.080559 -119.46314 
L 541.321119 -119.401882 
L 548.042797 -121.604085 
L 550.283357 -122.054635 
L 552.523916 -122.770508 
L 563.726713 -129.363846 
L 565.967273 -137.526169 
L 568.207832 -135.158477 
L 570.448392 -130.429092 
L 572.688951 -131.026191 
L 579.410629 -131.163054 
L 581.651189 -132.09554 
L 583.891748 -126.099726 
L 586.132308 -123.665045 
L 588.372867 -117.36166 
L 595.094545 -115.289591 
L 597.335105 -117.229809 
L 599.575664 -112.897962 
L 601.816224 -111.202024 
L 604.056783 -104.605296 
L 610.778462 -110.56031 
L 613.019021 -111.9391 
L 615.25958 -113.414156 
L 617.50014 -120.478474 
L 619.740699 -115.450387 
L 626.462378 -107.414312 
L 628.702937 -107.242787 
L 630.943497 -114.536196 
L 633.184056 -113.444786 
L 635.424615 -111.135581 
L 642.146294 -116.398791 
L 644.386853 -117.674385 
L 646.627413 -117.98982 
L 648.867972 -114.10882 
L 651.108531 -105.748074 
L 675.754685 -108.739422 
L 677.995245 -110.045737 
L 680.235804 -105.522486 
L 682.476364 -103.492667 
L 689.198042 -109.046657 
L 691.438601 -115.451034 
L 693.679161 -108.612751 
L 695.91972 -108.202505 
L 698.16028 -106.95444 
L 704.881958 -107.486256 
L 707.122517 -104.583073 
L 709.363077 -108.096775 
L 711.603636 -106.991272 
L 713.844196 -114.700855 
L 720.565874 -115.736128 
L 722.806434 -118.556853 
L 725.046993 -117.23932 
L 727.287552 -117.244161 
L 729.528112 -113.293435 
L 736.24979 -97.264091 
L 738.49035 -99.999329 
L 740.730909 -102.732859 
L 742.971469 -102.49395 
L 745.212028 -104.811885 
L 751.933706 -105.119126 
L 754.174266 -104.805759 
L 756.414825 -110.572562 
L 758.655385 -108.917642 
L 760.895944 -103.998834 
L 769.858182 -103.336772 
L 772.098741 -108.951475 
L 774.339301 -106.395541 
L 776.57986 -106.488799 
L 783.301538 -106.262293 
L 785.542098 -108.986429 
L 787.782657 -111.71208 
L 790.023217 -112.202238 
L 792.263776 -109.152344 
L 798.985455 -115.278017 
L 801.226014 -115.024897 
L 803.466573 -109.610993 
L 805.707133 -111.995394 
L 807.947692 -114.654329 
L 814.669371 -113.844301 
L 816.90993 -115.907023 
L 819.15049 -115.545389 
L 821.391049 -116.184236 
L 834.834406 -119.587055 
L 837.074965 -117.612522 
L 839.315524 -114.47702 
L 846.037203 -117.557389 
L 848.277762 -117.833213 
L 850.518322 -114.585793 
L 852.758881 -110.830042 
L 854.999441 -106.9828 
L 861.721119 -103.646899 
L 863.961678 -106.021506 
L 866.202238 -103.851544 
L 868.442797 -98.907765 
L 870.683357 -98.851284 
L 877.405035 -104.476383 
L 879.645594 -104.953632 
L 881.886154 -97.486562 
L 884.126713 -94.87974 
L 886.367273 -96.714702 
L 893.088951 -95.727088 
L 895.32951 -97.852892 
L 897.57007 -97.927685 
L 899.810629 -92.204877 
L 902.051189 -91.475714 
L 908.772867 -92.39352 
L 911.013427 -92.510987 
L 913.253986 -96.117514 
L 915.494545 -95.614646 
L 917.735105 -103.162601 
L 924.456783 -112.306707 
L 926.697343 -104.936758 
L 928.937902 -103.646468 
L 931.178462 -97.011293 
L 940.140699 -109.525231 
L 942.381259 -103.22386 
L 944.621818 -100.901423 
L 946.862378 -101.728994 
L 949.102937 -90.117095 
L 955.824615 -99.64872 
L 958.065175 -96.708012 
L 960.305734 -98.416347 
L 962.546294 -90.705179 
L 964.786853 -93.043938 
L 971.508531 -98.975618 
L 973.749091 -97.666761 
L 975.98965 -101.451961 
L 978.23021 -109.059577 
L 980.470769 -104.910751 
L 987.192448 -106.138086 
L 989.433007 -111.569501 
L 991.673566 -113.924199 
L 993.914126 -105.14966 
L 996.154685 -100.595129 
L 1002.876364 -118.812186 
L 1002.876364 -540.445547 
L 1002.876364 -540.445547 
L 996.154685 -540.445547 
L 993.914126 -540.445547 
L 991.673566 -540.445547 
L 989.433007 -540.445547 
L 987.192448 -540.445547 
L 980.470769 -540.445547 
L 978.23021 -540.445547 
L 975.98965 -540.445547 
L 973.749091 -540.445547 
L 971.508531 -540.445547 
L 964.786853 -540.445547 
L 962.546294 -540.445547 
L 960.305734 -540.445547 
L 958.065175 -540.445547 
L 955.824615 -540.445547 
L 949.102937 -540.445547 
L 946.862378 -540.445547 
L 944.621818 -540.445547 
L 942.381259 -540.445547 
L 940.140699 -540.445547 
L 931.178462 -540.445547 
L 928.937902 -540.445547 
L 926.697343 -540.445547 
L 924.456783 -540.445547 
L 917.735105 -540.445547 
L 915.494545 -540.445547 
L 913.253986 -540.445547 
L 911.013427 -540.445547 
L 908.772867 -540.445547 
L 902.051189 -540.445547 
L 899.810629 -540.445547 
L 897.57007 -540.445547 
L 895.32951 -540.445547 
L 893.088951 -540.445547 
L 886.367273 -540.445547 
L 884.126713 -540.445547 
L 881.886154 -540.445547 
L 879.645594 -540.445547 
L 877.405035 -540.445547 
L 870.683357 -540.445547 
L 868.442797 -540.445547 
L 866.202238 -540.445547 
L 863.961678 -540.445547 
L 861.721119 -540.445547 
L 854.999441 -540.445547 
L 852.758881 -540.445547 
L 850.518322 -540.445547 
L 848.277762 -540.445547 
L 846.037203 -540.445547 
L 839.315524 -540.445547 
L 837.074965 -540.445547 
L 834.834406 -540.445547 
L 821.391049 -540.445547 
L 819.15049 -540.445547 
L 816.90993 -540.445547 
L 814.669371 -540.445547 
L 807.947692 -540.445547 
L 805.707133 -540.445547 
L 803.466573 -540.445547 
L 801.226014 -540.445547 
L 798.985455 -540.445547 
L 792.263776 -540.445547 
L 790.023217 -540.445547 
L 787.782657 -540.445547 
L 785.542098 -540.445547 
L 783.301538 -540.445547 
L 776.57986 -540.445547 
L 774.339301 -540.445547 
L 772.098741 -540.445547 
L 769.858182 -540.445547 
L 760.895944 -540.445547 
L 758.655385 -540.445547 
L 756.414825 -540.445547 
L 754.174266 -540.445547 
L 751.933706 -540.445547 
L 745.212028 -540.445547 
L 742.971469 -540.445547 
L 740.730909 -540.445547 
L 738.49035 -540.445547 
L 736.24979 -540.445547 
L 729.528112 -540.445547 
L 727.287552 -540.445547 
L 725.046993 -540.445547 
L 722.806434 -540.445547 
L 720.565874 -540.445547 
L 713.844196 -540.445547 
L 711.603636 -540.445547 
L 709.363077 -540.445547 
L 707.122517 -540.445547 
L 704.881958 -540.445547 
L 698.16028 -540.445547 
L 695.91972 -540.445547 
L 693.679161 -540.445547 
L 691.438601 -540.445547 
L 689.198042 -540.445547 
L 682.476364 -540.445547 
L 680.235804 -540.445547 
L 677.995245 -540.445547 
L 675.754685 -540.445547 
L 651.108531 -540.445547 
L 648.867972 -540.445547 
L 646.627413 -540.445547 
L 644.386853 -540.445547 
L 642.146294 -540.445547 
L 635.424615 -540.445547 
L 633.184056 -540.445547 
L 630.943497 -540.445547 
L 628.702937 -540.445547 
L 626.462378 -540.445547 
L 619.740699 -540.445547 
L 617.50014 -540.445547 
L 615.25958 -540.445547 
L 613.019021 -540.445547 
L 610.778462 -540.445547 
L 604.056783 -540.445547 
L 601.816224 -540.445547 
L 599.575664 -540.445547 
L 597.335105 -540.445547 
L 595.094545 -540.445547 
L 588.372867 -540.445547 
L 586.132308 -540.445547 
L 583.891748 -540.445547 
L 581.651189 -540.445547 
L 579.410629 -540.445547 
L 572.688951 -540.445547 
L 570.448392 -540.445547 
L 568.207832 -540.445547 
L 565.967273 -540.445547 
L 563.726713 -540.445547 
L 552.523916 -540.445547 
L 550.283357 -540.445547 
L 548.042797 -540.445547 
L 541.321119 -540.445547 
L 539.080559 -540.445547 
L 536.84 -540.445547 
L 534.599441 -540.445547 
L 532.358881 -540.445547 
L 525.637203 -540.445547 
L 523.396643 -540.445547 
L 521.156084 -540.445547 
L 518.915524 -540.445547 
L 516.674965 -540.445547 
L 509.953287 -540.445547 
L 507.712727 -540.445547 
L 505.472168 -540.445547 
L 503.231608 -540.445547 
L 500.991049 -540.445547 
L 494.269371 -540.445547 
L 492.028811 -540.445547 
L 489.788252 -540.445547 
L 487.547692 -540.445547 
L 485.307133 -540.445547 
L 478.585455 -540.445547 
L 476.344895 -540.445547 
L 474.104336 -540.445547 
L 471.863776 -540.445547 
L 469.623217 -540.445547 
L 462.901538 -540.445547 
L 460.660979 -540.445547 
L 458.42042 -540.445547 
L 456.17986 -540.445547 
L 453.939301 -540.445547 
L 447.217622 -540.445547 
L 444.977063 -540.445547 
L 442.736503 -540.445547 
L 440.495944 -540.445547 
L 438.255385 -540.445547 
L 431.533706 -540.445547 
L 429.293147 -540.445547 
L 427.052587 -540.445547 
L 424.812028 -540.445547 
L 422.571469 -540.445547 
L 415.84979 -540.445547 
L 413.609231 -540.445547 
L 411.368671 -540.445547 
L 409.128112 -540.445547 
L 406.887552 -540.445547 
L 400.165874 -540.445547 
L 397.925315 -540.445547 
L 395.684755 -540.445547 
L 393.444196 -540.445547 
L 391.203636 -540.445547 
L 384.481958 -540.445547 
L 382.241399 -540.445547 
L 380.000839 -540.445547 
L 377.76028 -540.445547 
L 375.51972 -540.445547 
L 368.798042 -540.445547 
L 366.557483 -540.445547 
L 346.392448 -540.445547 
L 344.151888 -540.445547 
L 337.43021 -540.445547 
L 335.18965 -540.445547 
L 332.949091 -540.445547 
L 330.708531 -540.445547 
L 328.467972 -540.445547 
L 321.746294 -540.445547 
L 319.505734 -540.445547 
L 317.265175 -540.445547 
L 315.024615 -540.445547 
L 312.784056 -540.445547 
L 306.062378 -540.445547 
L 303.821818 -540.445547 
L 301.581259 -540.445547 
L 299.340699 -540.445547 
L 297.10014 -540.445547 
L 290.378462 -540.445547 
L 288.137902 -540.445547 
L 285.897343 -540.445547 
L 283.656783 -540.445547 
L 281.416224 -540.445547 
L 274.694545 -540.445547 
L 272.453986 -540.445547 
L 270.213427 -540.445547 
L 267.972867 -540.445547 
L 265.732308 -540.445547 
L 259.010629 -540.445547 
L 256.77007 -540.445547 
L 254.52951 -540.445547 
L 252.288951 -540.445547 
L 250.048392 -540.445547 
L 243.326713 -540.445547 
L 241.086154 -540.445547 
L 238.845594 -540.445547 
L 236.605035 -540.445547 
L 234.364476 -540.445547 
L 227.642797 -540.445547 
L 225.402238 -540.445547 
L 223.161678 -540.445547 
L 220.921119 -540.445547 
L 218.680559 -540.445547 
L 211.958881 -540.445547 
L 209.718322 -540.445547 
L 207.477762 -540.445547 
L 205.237203 -540.445547 
L 202.996643 -540.445547 
L 196.274965 -540.445547 
L 194.034406 -540.445547 
L 191.793846 -540.445547 
L 189.553287 -540.445547 
L 187.312727 -540.445547 
L 180.591049 -540.445547 
L 178.35049 -540.445547 
L 176.10993 -540.445547 
L 173.869371 -540.445547 
L 171.628811 -540.445547 
L 164.907133 -540.445547 
L 162.666573 -540.445547 
L 160.426014 -540.445547 
L 158.185455 -540.445547 
L 155.944895 -540.445547 
L 149.223217 -540.445547 
L 146.982657 -540.445547 
L 144.742098 -540.445547 
L 142.501538 -540.445547 
L 140.260979 -540.445547 
L 133.539301 -540.445547 
L 131.298741 -540.445547 
L 129.058182 -540.445547 
L 126.817622 -540.445547 
L 124.577063 -540.445547 
L 117.855385 -540.445547 
L 115.614825 -540.445547 
L 113.374266 -540.445547 
L 111.133706 -540.445547 
L 108.893147 -540.445547 
L 102.171469 -540.445547 
L 99.930909 -540.445547 
L 97.69035 -540.445547 
L 95.44979 -540.445547 
L 93.209231 -540.445547 
L 86.487552 -540.445547 
L 84.246993 -540.445547 
L 82.006434 -540.445547 
L 79.765874 -540.445547 
L 70.803636 -540.445547 
z
" style="stroke: #58a6ff; stroke-opacity: 0.08"/>
    </defs>
    <g clip-path="url(#pd7c000fd99)">
     <use xlink:href="#ma1a7f7d1c0" x="0" y="595.606769" style="fill: #58a6ff; fill-opacity: 0.08; stroke: #58a6ff; stroke-opacity: 0.08"/>
    </g>
   </g>
   <g id="matplotlib.axis_1">
    <g id="xtick_1">
     <g id="line2d_1">
      <path d="M 142.501538 556.870312 
L 142.501538 31.270312 
" clip-path="url(#pd7c000fd99)" style="fill: none; stroke-dasharray: 1.48,0.64; stroke-dashoffset: 0; stroke: #21262d; stroke-opacity: 0.4; stroke-width: 0.4"/>
     </g>
     <g id="line2d_2">
      <defs>
       <path id="mecca9867d1" d="M 0 0 
L 0 3.5 
" style="stroke: #c9d1d9; stroke-width: 0.8"/>
      </defs>
      <g>
       <use xlink:href="#mecca9867d1" x="142.501538" y="556.870312" style="fill: #c9d1d9; stroke: #c9d1d9; stroke-width: 0.8"/>
      </g>
     </g>
     <g id="text_1">
      <!-- 2025-07 -->
      <g style="fill: #c9d1d9" transform="translate(111.565649 587.324237) rotate(-30) scale(0.1 -0.1)">
       <defs>
        <path id="SimHei-32" d="M 300 250 
Q 325 625 650 925 
Q 975 1225 1475 1862 
Q 1975 2500 2125 2850 
Q 2275 3200 2237 3450 
Q 2200 3700 2000 3862 
Q 1800 4025 1537 4000 
Q 1275 3975 1037 3800 
Q 800 3625 675 3275 
L 200 3350 
Q 400 3925 712 4187 
Q 1025 4450 1450 4475 
Q 1700 4500 1900 4462 
Q 2100 4425 2312 4287 
Q 2525 4150 2662 3875 
Q 2800 3600 2762 3212 
Q 2725 2825 2375 2287 
Q 2025 1750 1025 600 
L 2825 600 
L 2825 150 
L 300 150 
L 300 250 
z
" transform="scale(0.015625)"/>
        <path id="SimHei-30" d="M 225 2537 
Q 250 3200 412 3587 
Q 575 3975 875 4225 
Q 1175 4475 1612 4475 
Q 2050 4475 2375 4112 
Q 2700 3750 2800 3200 
Q 2900 2650 2862 1937 
Q 2825 1225 2612 775 
Q 2400 325 1975 150 
Q 1550 -25 1125 187 
Q 700 400 525 750 
Q 350 1100 275 1487 
Q 200 1875 225 2537 
z
M 750 2687 
Q 675 2000 800 1462 
Q 925 925 1212 700 
Q 1500 475 1800 612 
Q 2100 750 2237 1162 
Q 2375 1575 2375 2062 
Q 2375 2550 2337 2950 
Q 2300 3350 2112 3675 
Q 1925 4000 1612 4012 
Q 1300 4025 1062 3700 
Q 825 3375 750 2687 
z
" transform="scale(0.015625)"/>
        <path id="SimHei-35" d="M 550 1325 
Q 725 650 1150 575 
Q 1575 500 1837 662 
Q 2100 825 2212 1087 
Q 2325 1350 2312 1675 
Q 2300 2000 2137 2225 
Q 1975 2450 1725 2525 
Q 1475 2600 1162 2525 
Q 850 2450 650 2175 
L 225 2225 
Q 275 2375 700 4375 
L 2675 4375 
L 2675 3925 
L 1075 3925 
Q 950 3250 825 2850 
Q 1200 3025 1525 3012 
Q 1850 3000 2150 2862 
Q 2450 2725 2587 2487 
Q 2725 2250 2787 2012 
Q 2850 1775 2837 1500 
Q 2825 1225 2725 937 
Q 2625 650 2425 462 
Q 2225 275 1937 162 
Q 1650 50 1275 75 
Q 900 100 562 350 
Q 225 600 100 1200 
L 550 1325 
z
" transform="scale(0.015625)"/>
        <path id="SimHei-2d" d="M 2975 2125 
L 125 2125 
L 125 2525 
L 2975 2525 
L 2975 2125 
z
" transform="scale(0.015625)"/>
        <path id="SimHei-37" d="M 850 150 
Q 1300 2050 2425 3925 
L 275 3925 
L 275 4375 
L 2950 4375 
L 2950 3950 
Q 1775 2050 1400 150 
L 850 150 
z
" transform="scale(0.015625)"/>
       </defs>
       <use xlink:href="#SimHei-32"/>
       <use xlink:href="#SimHei-30" transform="translate(50 0)"/>
       <use xlink:href="#SimHei-32" transform="translate(100 0)"/>
       <use xlink:href="#SimHei-35" transform="translate(150 0)"/>
       <use xlink:href="#SimHei-2d" transform="translate(200 0)"/>
       <use xlink:href="#SimHei-30" transform="translate(250 0)"/>
       <use xlink:href="#SimHei-37" transform="translate(300 0)"/>
      </g>
     </g>
    </g>
    <g id="xtick_2">
     <g id="line2d_3">
      <path d="M 281.416224 556.870312 
L 281.416224 31.270312 
" clip-path="url(#pd7c000fd99)" style="fill: none; stroke-dasharray: 1.48,0.64; stroke-dashoffset: 0; stroke: #21262d; stroke-opacity: 0.4; stroke-width: 0.4"/>
     </g>
     <g id="line2d_4">
      <g>
       <use xlink:href="#mecca9867d1" x="281.416224" y="556.870312" style="fill: #c9d1d9; stroke: #c9d1d9; stroke-width: 0.8"/>
      </g>
     </g>
     <g id="text_2">
      <!-- 2025-09 -->
      <g style="fill: #c9d1d9" transform="translate(250.480335 587.324237) rotate(-30) scale(0.1 -0.1)">
       <defs>
        <path id="SimHei-39" d="M 800 75 
Q 1350 1000 1700 1750 
Q 1075 1650 662 1912 
Q 250 2175 162 2625 
Q 75 3075 175 3437 
Q 275 3800 487 4037 
Q 700 4275 1000 4375 
Q 1300 4475 1537 4475 
Q 1775 4475 2025 4375 
Q 2275 4275 2475 4075 
Q 2675 3875 2750 3662 
Q 2825 3450 2825 3112 
Q 2825 2775 2575 2250 
Q 2325 1725 1350 75 
L 800 75 
z
M 662 2875 
Q 700 2550 937 2337 
Q 1175 2125 1450 2150 
Q 1725 2175 1887 2300 
Q 2050 2425 2200 2725 
Q 2300 3100 2250 3362 
Q 2200 3625 1987 3800 
Q 1775 3975 1525 3975 
Q 1375 4000 1137 3900 
Q 900 3800 762 3500 
Q 625 3200 662 2875 
z
" transform="scale(0.015625)"/>
       </defs>
       <use xlink:href="#SimHei-32"/>
       <use xlink:href="#SimHei-30" transform="translate(50 0)"/>
       <use xlink:href="#SimHei-32" transform="translate(100 0)"/>
       <use xlink:href="#SimHei-35" transform="translate(150 0)"/>
       <use xlink:href="#SimHei-2d" transform="translate(200 0)"/>
       <use xlink:href="#SimHei-30" transform="translate(250 0)"/>
       <use xlink:href="#SimHei-39" transform="translate(300 0)"/>
      </g>
     </g>
    </g>
    <g id="xtick_3">
     <g id="line2d_5">
      <path d="M 418.09035 556.870312 
L 418.09035 31.270312 
" clip-path="url(#pd7c000fd99)" style="fill: none; stroke-dasharray: 1.48,0.64; stroke-dashoffset: 0; stroke: #21262d; stroke-opacity: 0.4; stroke-width: 0.4"/>
     </g>
     <g id="line2d_6">
      <g>
       <use xlink:href="#mecca9867d1" x="418.09035" y="556.870312" style="fill: #c9d1d9; stroke: #c9d1d9; stroke-width: 0.8"/>
      </g>
     </g>
     <g id="text_3">
      <!-- 2025-11 -->
      <g style="fill: #c9d1d9" transform="translate(387.154461 587.324237) rotate(-30) scale(0.1 -0.1)">
       <defs>
        <path id="SimHei-31" d="M 1400 3600 
Q 1075 3275 575 2975 
L 575 3450 
Q 1200 3875 1600 4450 
L 1900 4450 
L 1900 150 
L 1400 150 
L 1400 3600 
z
" transform="scale(0.015625)"/>
       </defs>
       <use xlink:href="#SimHei-32"/>
       <use xlink:href="#SimHei-30" transform="translate(50 0)"/>
       <use xlink:href="#SimHei-32" transform="translate(100 0)"/>
       <use xlink:href="#SimHei-35" transform="translate(150 0)"/>
       <use xlink:href="#SimHei-2d" transform="translate(200 0)"/>
       <use xlink:href="#SimHei-31" transform="translate(250 0)"/>
       <use xlink:href="#SimHei-31" transform="translate(300 0)"/>
      </g>
     </g>
    </g>
    <g id="xtick_4">
     <g id="line2d_7">
      <path d="M 554.764476 556.870312 
L 554.764476 31.270312 
" clip-path="url(#pd7c000fd99)" style="fill: none; stroke-dasharray: 1.48,0.64; stroke-dashoffset: 0; stroke: #21262d; stroke-opacity: 0.4; stroke-width: 0.4"/>
     </g>
     <g id="line2d_8">
      <g>
       <use xlink:href="#mecca9867d1" x="554.764476" y="556.870312" style="fill: #c9d1d9; stroke: #c9d1d9; stroke-width: 0.8"/>
      </g>
     </g>
     <g id="text_4">
      <!-- 2026-01 -->
      <g style="fill: #c9d1d9" transform="translate(523.828586 587.324237) rotate(-30) scale(0.1 -0.1)">
       <defs>
        <path id="SimHei-36" d="M 250 1612 
Q 275 1975 387 2225 
Q 500 2475 725 2850 
L 1750 4450 
L 2325 4450 
L 1275 2800 
Q 1950 2975 2350 2750 
Q 2750 2525 2887 2237 
Q 3025 1950 3037 1612 
Q 3050 1275 2937 950 
Q 2825 625 2537 362 
Q 2250 100 1737 75 
Q 1225 50 862 262 
Q 500 475 362 862 
Q 225 1250 250 1612 
z
M 1025 787 
Q 1250 550 1625 525 
Q 2000 500 2250 775 
Q 2500 1050 2500 1575 
Q 2500 2100 2187 2300 
Q 1875 2500 1487 2450 
Q 1100 2400 925 2075 
Q 750 1750 775 1387 
Q 800 1025 1025 787 
z
" transform="scale(0.015625)"/>
       </defs>
       <use xlink:href="#SimHei-32"/>
       <use xlink:href="#SimHei-30" transform="translate(50 0)"/>
       <use xlink:href="#SimHei-32" transform="translate(100 0)"/>
       <use xlink:href="#SimHei-36" transform="translate(150 0)"/>
       <use xlink:href="#SimHei-2d" transform="translate(200 0)"/>
       <use xlink:href="#SimHei-30" transform="translate(250 0)"/>
       <use xlink:href="#SimHei-31" transform="translate(300 0)"/>
      </g>
     </g>
    </g>
    <g id="xtick_5">
     <g id="line2d_9">
      <path d="M 686.957483 556.870312 
L 686.957483 31.270312 
" clip-path="url(#pd7c000fd99)" style="fill: none; stroke-dasharray: 1.48,0.64; stroke-dashoffset: 0; stroke: #21262d; stroke-opacity: 0.4; stroke-width: 0.4"/>
     </g>
     <g id="line2d_10">
      <g>
       <use xlink:href="#mecca9867d1" x="686.957483" y="556.870312" style="fill: #c9d1d9; stroke: #c9d1d9; stroke-width: 0.8"/>
      </g>
     </g>
     <g id="text_5">
      <!-- 2026-03 -->
      <g style="fill: #c9d1d9" transform="translate(656.021593 587.324237) rotate(-30) scale(0.1 -0.1)">
       <defs>
        <path id="SimHei-33" d="M 250 1225 
L 700 1300 
Q 800 975 1025 762 
Q 1250 550 1587 562 
Q 1925 575 2125 837 
Q 2325 1100 2300 1437 
Q 2275 1775 2037 1962 
Q 1800 2150 1275 2225 
L 1275 2550 
Q 1800 2600 2037 2825 
Q 2275 3050 2250 3412 
Q 2225 3775 1925 3937 
Q 1625 4100 1287 3975 
Q 950 3850 750 3275 
L 300 3350 
Q 450 3800 712 4100 
Q 975 4400 1425 4450 
Q 1875 4500 2212 4337 
Q 2550 4175 2687 3837 
Q 2825 3500 2725 3100 
Q 2625 2700 2150 2400 
Q 2500 2250 2687 1950 
Q 2875 1650 2812 1162 
Q 2750 675 2375 375 
Q 2000 75 1525 87 
Q 1050 100 700 387 
Q 350 675 250 1225 
z
" transform="scale(0.015625)"/>
       </defs>
       <use xlink:href="#SimHei-32"/>
       <use xlink:href="#SimHei-30" transform="translate(50 0)"/>
       <use xlink:href="#SimHei-32" transform="translate(100 0)"/>
       <use xlink:href="#SimHei-36" transform="translate(150 0)"/>
       <use xlink:href="#SimHei-2d" transform="translate(200 0)"/>
       <use xlink:href="#SimHei-30" transform="translate(250 0)"/>
       <use xlink:href="#SimHei-33" transform="translate(300 0)"/>
      </g>
     </g>
    </g>
    <g id="xtick_6">
     <g id="line2d_11">
      <path d="M 823.631608 556.870312 
L 823.631608 31.270312 
" clip-path="url(#pd7c000fd99)" style="fill: none; stroke-dasharray: 1.48,0.64; stroke-dashoffset: 0; stroke: #21262d; stroke-opacity: 0.4; stroke-width: 0.4"/>
     </g>
     <g id="line2d_12">
      <g>
       <use xlink:href="#mecca9867d1" x="823.631608" y="556.870312" style="fill: #c9d1d9; stroke: #c9d1d9; stroke-width: 0.8"/>
      </g>
     </g>
     <g id="text_6">
      <!-- 2026-05 -->
      <g style="fill: #c9d1d9" transform="translate(792.695719 587.324237) rotate(-30) scale(0.1 -0.1)">
       <use xlink:href="#SimHei-32"/>
       <use xlink:href="#SimHei-30" transform="translate(50 0)"/>
       <use xlink:href="#SimHei-32" transform="translate(100 0)"/>
       <use xlink:href="#SimHei-36" transform="translate(150 0)"/>
       <use xlink:href="#SimHei-2d" transform="translate(200 0)"/>
       <use xlink:href="#SimHei-30" transform="translate(250 0)"/>
       <use xlink:href="#SimHei-35" transform="translate(300 0)"/>
      </g>
     </g>
    </g>
    <g id="xtick_7">
     <g id="line2d_13">
      <path d="M 960.305734 556.870312 
L 960.305734 31.270312 
" clip-path="url(#pd7c000fd99)" style="fill: none; stroke-dasharray: 1.48,0.64; stroke-dashoffset: 0; stroke: #21262d; stroke-opacity: 0.4; stroke-width: 0.4"/>
     </g>
     <g id="line2d_14">
      <g>
       <use xlink:href="#mecca9867d1" x="960.305734" y="556.870312" style="fill: #c9d1d9; stroke: #c9d1d9; stroke-width: 0.8"/>
      </g>
     </g>
     <g id="text_7">
      <!-- 2026-07 -->
      <g style="fill: #c9d1d9" transform="translate(929.369845 587.324237) rotate(-30) scale(0.1 -0.1)">
       <use xlink:href="#SimHei-32"/>
       <use xlink:href="#SimHei-30" transform="translate(50 0)"/>
       <use xlink:href="#SimHei-32" transform="translate(100 0)"/>
       <use xlink:href="#SimHei-36" transform="translate(150 0)"/>
       <use xlink:href="#SimHei-2d" transform="translate(200 0)"/>
       <use xlink:href="#SimHei-30" transform="translate(250 0)"/>
       <use xlink:href="#SimHei-37" transform="translate(300 0)"/>
      </g>
     </g>
    </g>
   </g>
   <g id="matplotlib.axis_2">
    <g id="ytick_1">
     <g id="line2d_15">
      <path d="M 24.2 545.231152 
L 1049.48 545.231152 
" clip-path="url(#pd7c000fd99)" style="fill: none; stroke-dasharray: 1.48,0.64; stroke-dashoffset: 0; stroke: #21262d; stroke-opacity: 0.4; stroke-width: 0.4"/>
     </g>
     <g id="line2d_16">
      <defs>
       <path id="m4ed4faa030" d="M 0 0 
L -3.5 0 
" style="stroke: #c9d1d9; stroke-width: 0.8"/>
      </defs>
      <g>
       <use xlink:href="#m4ed4faa030" x="24.2" y="545.231152" style="fill: #c9d1d9; stroke: #c9d1d9; stroke-width: 0.8"/>
      </g>
     </g>
     <g id="text_8">
      <!-- -8 -->
      <g style="fill: #c9d1d9" transform="translate(7.2 548.668652) scale(0.1 -0.1)">
       <defs>
        <path id="SimHei-38" d="M 175 1375 
Q 175 1675 325 1962 
Q 475 2250 825 2425 
Q 525 2600 425 2812 
Q 325 3025 312 3300 
Q 300 3575 387 3775 
Q 475 3975 650 4150 
Q 825 4325 1037 4387 
Q 1250 4450 1500 4450 
Q 1750 4450 1950 4400 
Q 2150 4350 2375 4187 
Q 2600 4025 2700 3725 
Q 2800 3425 2687 3025 
Q 2575 2625 2100 2400 
Q 2525 2275 2700 2012 
Q 2875 1750 2875 1375 
Q 2875 1000 2762 775 
Q 2650 550 2512 400 
Q 2375 250 2137 162 
Q 1900 75 1537 75 
Q 1175 75 912 162 
Q 650 250 475 425 
Q 300 600 237 837 
Q 175 1075 175 1375 
z
M 687 1400 
Q 675 1100 787 875 
Q 900 650 1200 587 
Q 1500 525 1825 600 
Q 2150 675 2275 950 
Q 2400 1225 2362 1500 
Q 2325 1775 2050 1962 
Q 1775 2150 1450 2125 
Q 1125 2100 912 1900 
Q 700 1700 687 1400 
z
M 775 3350 
Q 775 3100 950 2875 
Q 1125 2650 1500 2650 
Q 1875 2650 2062 2875 
Q 2250 3100 2237 3412 
Q 2225 3725 2012 3875 
Q 1800 4025 1437 4000 
Q 1075 3975 925 3787 
Q 775 3600 775 3350 
z
" transform="scale(0.015625)"/>
       </defs>
       <use xlink:href="#SimHei-2d"/>
       <use xlink:href="#SimHei-38" transform="translate(50 0)"/>
      </g>
     </g>
    </g>
    <g id="ytick_2">
     <g id="line2d_17">
      <path d="M 24.2 483.97241 
L 1049.48 483.97241 
" clip-path="url(#pd7c000fd99)" style="fill: none; stroke-dasharray: 1.48,0.64; stroke-dashoffset: 0; stroke: #21262d; stroke-opacity: 0.4; stroke-width: 0.4"/>
     </g>
     <g id="line2d_18">
      <g>
       <use xlink:href="#m4ed4faa030" x="24.2" y="483.97241" style="fill: #c9d1d9; stroke: #c9d1d9; stroke-width: 0.8"/>
      </g>
     </g>
     <g id="text_9">
      <!-- -7 -->
      <g style="fill: #c9d1d9" transform="translate(7.2 487.40991) scale(0.1 -0.1)">
       <use xlink:href="#SimHei-2d"/>
       <use xlink:href="#SimHei-37" transform="translate(50 0)"/>
      </g>
     </g>
    </g>
    <g id="ytick_3">
     <g id="line2d_19">
      <path d="M 24.2 422.713669 
L 1049.48 422.713669 
" clip-path="url(#pd7c000fd99)" style="fill: none; stroke-dasharray: 1.48,0.64; stroke-dashoffset: 0; stroke: #21262d; stroke-opacity: 0.4; stroke-width: 0.4"/>
     </g>
     <g id="line2d_20">
      <g>
       <use xlink:href="#m4ed4faa030" x="24.2" y="422.713669" style="fill: #c9d1d9; stroke: #c9d1d9; stroke-width: 0.8"/>
      </g>
     </g>
     <g id="text_10">
      <!-- -6 -->
      <g style="fill: #c9d1d9" transform="translate(7.2 426.151169) scale(0.1 -0.1)">
       <use xlink:href="#SimHei-2d"/>
       <use xlink:href="#SimHei-36" transform="translate(50 0)"/>
      </g>
     </g>
    </g>
    <g id="ytick_4">
     <g id="line2d_21">
      <path d="M 24.2 361.454928 
L 1049.48 361.454928 
" clip-path="url(#pd7c000fd99)" style="fill: none; stroke-dasharray: 1.48,0.64; stroke-dashoffset: 0; stroke: #21262d; stroke-opacity: 0.4; stroke-width: 0.4"/>
     </g>
     <g id="line2d_22">
      <g>
       <use xlink:href="#m4ed4faa030" x="24.2" y="361.454928" style="fill: #c9d1d9; stroke: #c9d1d9; stroke-width: 0.8"/>
      </g>
     </g>
     <g id="text_11">
      <!-- -5 -->
      <g style="fill: #c9d1d9" transform="translate(7.2 364.892428) scale(0.1 -0.1)">
       <use xlink:href="#SimHei-2d"/>
       <use xlink:href="#SimHei-35" transform="translate(50 0)"/>
      </g>
     </g>
    </g>
    <g id="ytick_5">
     <g id="line2d_23">
      <path d="M 24.2 300.196187 
L 1049.48 300.196187 
" clip-path="url(#pd7c000fd99)" style="fill: none; stroke-dasharray: 1.48,0.64; stroke-dashoffset: 0; stroke: #21262d; stroke-opacity: 0.4; stroke-width: 0.4"/>
     </g>
     <g id="line2d_24">
      <g>
       <use xlink:href="#m4ed4faa030" x="24.2" y="300.196187" style="fill: #c9d1d9; stroke: #c9d1d9; stroke-width: 0.8"/>
      </g>
     </g>
     <g id="text_12">
      <!-- -4 -->
      <g style="fill: #c9d1d9" transform="translate(7.2 303.633687) scale(0.1 -0.1)">
       <defs>
        <path id="SimHei-34" d="M 2000 1100 
L 75 1100 
L 75 1525 
L 2100 4450 
L 2475 4450 
L 2475 1525 
L 3075 1525 
L 3075 1100 
L 2475 1100 
L 2475 150 
L 2000 150 
L 2000 1100 
z
M 2000 1525 
L 2000 3500 
L 600 1525 
L 2000 1525 
z
" transform="scale(0.015625)"/>
       </defs>
       <use xlink:href="#SimHei-2d"/>
       <use xlink:href="#SimHei-34" transform="translate(50 0)"/>
      </g>
     </g>
    </g>
    <g id="ytick_6">
     <g id="line2d_25">
      <path d="M 24.2 238.937445 
L 1049.48 238.937445 
" clip-path="url(#pd7c000fd99)" style="fill: none; stroke-dasharray: 1.48,0.64; stroke-dashoffset: 0; stroke: #21262d; stroke-opacity: 0.4; stroke-width: 0.4"/>
     </g>
     <g id="line2d_26">
      <g>
       <use xlink:href="#m4ed4faa030" x="24.2" y="238.937445" style="fill: #c9d1d9; stroke: #c9d1d9; stroke-width: 0.8"/>
      </g>
     </g>
     <g id="text_13">
      <!-- -3 -->
      <g style="fill: #c9d1d9" transform="translate(7.2 242.374945) scale(0.1 -0.1)">
       <use xlink:href="#SimHei-2d"/>
       <use xlink:href="#SimHei-33" transform="translate(50 0)"/>
      </g>
     </g>
    </g>
    <g id="ytick_7">
     <g id="line2d_27">
      <path d="M 24.2 177.678704 
L 1049.48 177.678704 
" clip-path="url(#pd7c000fd99)" style="fill: none; stroke-dasharray: 1.48,0.64; stroke-dashoffset: 0; stroke: #21262d; stroke-opacity: 0.4; stroke-width: 0.4"/>
     </g>
     <g id="line2d_28">
      <g>
       <use xlink:href="#m4ed4faa030" x="24.2" y="177.678704" style="fill: #c9d1d9; stroke: #c9d1d9; stroke-width: 0.8"/>
      </g>
     </g>
     <g id="text_14">
      <!-- -2 -->
      <g style="fill: #c9d1d9" transform="translate(7.2 181.116204) scale(0.1 -0.1)">
       <use xlink:href="#SimHei-2d"/>
       <use xlink:href="#SimHei-32" transform="translate(50 0)"/>
      </g>
     </g>
    </g>
    <g id="ytick_8">
     <g id="line2d_29">
      <path d="M 24.2 116.419963 
L 1049.48 116.419963 
" clip-path="url(#pd7c000fd99)" style="fill: none; stroke-dasharray: 1.48,0.64; stroke-dashoffset: 0; stroke: #21262d; stroke-opacity: 0.4; stroke-width: 0.4"/>
     </g>
     <g id="line2d_30">
      <g>
       <use xlink:href="#m4ed4faa030" x="24.2" y="116.419963" style="fill: #c9d1d9; stroke: #c9d1d9; stroke-width: 0.8"/>
      </g>
     </g>
     <g id="text_15">
      <!-- -1 -->
      <g style="fill: #c9d1d9" transform="translate(7.2 119.857463) scale(0.1 -0.1)">
       <use xlink:href="#SimHei-2d"/>
       <use xlink:href="#SimHei-31" transform="translate(50 0)"/>
      </g>
     </g>
    </g>
    <g id="ytick_9">
     <g id="line2d_31">
      <path d="M 24.2 55.161222 
L 1049.48 55.161222 
" clip-path="url(#pd7c000fd99)" style="fill: none; stroke-dasharray: 1.48,0.64; stroke-dashoffset: 0; stroke: #21262d; stroke-opacity: 0.4; stroke-width: 0.4"/>
     </g>
     <g id="line2d_32">
      <g>
       <use xlink:href="#m4ed4faa030" x="24.2" y="55.161222" style="fill: #c9d1d9; stroke: #c9d1d9; stroke-width: 0.8"/>
      </g>
     </g>
     <g id="text_16">
      <!-- 0 -->
      <g style="fill: #c9d1d9" transform="translate(12.2 58.598722) scale(0.1 -0.1)">
       <use xlink:href="#SimHei-30"/>
      </g>
     </g>
    </g>
   </g>
   <g id="line2d_33">
    <path d="M 70.803636 530.15358 
L 84.246993 526.729249 
L 86.487552 527.917669 
L 95.44979 530.485919 
L 97.69035 528.158088 
L 99.930909 528.897307 
L 102.171469 531.276157 
L 111.133706 524.766173 
L 113.374266 524.114057 
L 117.855385 516.21306 
L 124.577063 510.978457 
L 129.058182 501.256594 
L 131.298741 501.758916 
L 133.539301 510.708919 
L 140.260979 509.154103 
L 142.501538 507.371458 
L 144.742098 507.099579 
L 146.982657 508.530508 
L 149.223217 503.900483 
L 155.944895 505.548092 
L 160.426014 502.83713 
L 162.666573 497.895842 
L 164.907133 499.125126 
L 171.628811 498.191759 
L 173.869371 500.200255 
L 176.10993 500.809406 
L 178.35049 502.693686 
L 180.591049 499.131252 
L 187.312727 497.897717 
L 194.034406 490.830787 
L 196.274965 495.014664 
L 202.996643 496.592115 
L 207.477762 492.992651 
L 211.958881 503.536661 
L 218.680559 500.411848 
L 220.921119 495.654278 
L 225.402238 494.263629 
L 227.642797 495.244905 
L 234.364476 495.269717 
L 236.605035 491.474004 
L 238.845594 492.972205 
L 241.086154 490.565871 
L 243.326713 491.246777 
L 250.048392 487.313032 
L 252.288951 490.618657 
L 254.52951 484.773354 
L 256.77007 481.946244 
L 259.010629 471.836502 
L 265.732308 467.990088 
L 267.972867 470.937074 
L 270.213427 478.581727 
L 272.453986 470.515562 
L 274.694545 469.757441 
L 281.416224 473.241045 
L 283.656783 467.899338 
L 285.897343 474.455396 
L 290.378462 475.062667 
L 297.10014 473.506695 
L 299.340699 474.581531 
L 303.821818 467.9817 
L 306.062378 469.795826 
L 312.784056 470.380262 
L 315.024615 474.815465 
L 317.265175 475.442264 
L 319.505734 483.184193 
L 321.746294 483.13612 
L 328.467972 484.48787 
L 332.949091 476.936612 
L 337.43021 478.492585 
L 344.151888 475.044484 
L 346.392448 475.733324 
L 366.557483 471.502725 
L 368.798042 475.225899 
L 375.51972 475.697591 
L 377.76028 472.561073 
L 382.241399 461.984456 
L 384.481958 468.313469 
L 391.203636 465.423787 
L 393.444196 461.850425 
L 395.684755 460.925976 
L 397.925315 456.847384 
L 400.165874 454.973097 
L 406.887552 451.944353 
L 409.128112 454.288466 
L 411.368671 460.572709 
L 413.609231 462.558614 
L 415.84979 480.655785 
L 422.571469 477.460441 
L 424.812028 474.455396 
L 427.052587 475.954331 
L 429.293147 471.46656 
L 431.533706 472.11821 
L 438.255385 468.968937 
L 440.495944 469.992614 
L 444.977063 463.705826 
L 447.217622 467.169729 
L 456.17986 473.616152 
L 458.42042 467.377941 
L 460.660979 467.200358 
L 462.901538 473.340487 
L 469.623217 475.830959 
L 471.863776 471.599841 
L 474.104336 473.364043 
L 476.344895 471.067788 
L 478.585455 474.131534 
L 487.547692 472.107758 
L 489.788252 475.328887 
L 492.028811 473.645424 
L 500.991049 471.758583 
L 503.231608 474.051898 
L 505.472168 478.104214 
L 509.953287 479.356068 
L 516.674965 483.539494 
L 518.915524 487.581745 
L 523.396643 478.661669 
L 525.637203 479.895145 
L 534.599441 475.423886 
L 536.84 476.327405 
L 541.321119 476.204887 
L 552.523916 472.836261 
L 563.726713 466.242923 
L 565.967273 458.0806 
L 568.207832 460.448292 
L 570.448392 465.177676 
L 572.688951 464.580578 
L 581.651189 463.511229 
L 583.891748 469.507042 
L 586.132308 471.941724 
L 588.372867 478.245109 
L 595.094545 480.317178 
L 597.335105 478.37696 
L 599.575664 482.708807 
L 601.816224 484.404745 
L 604.056783 491.001473 
L 615.25958 482.192612 
L 617.50014 475.128295 
L 619.740699 480.156382 
L 626.462378 488.192457 
L 628.702937 488.363981 
L 630.943497 481.070573 
L 633.184056 482.161983 
L 635.424615 484.471188 
L 644.386853 477.932384 
L 646.627413 477.616949 
L 648.867972 481.497948 
L 651.108531 489.858695 
L 675.754685 486.867347 
L 677.995245 485.561032 
L 680.235804 490.084283 
L 682.476364 492.114101 
L 689.198042 486.560111 
L 691.438601 480.155734 
L 693.679161 486.994018 
L 704.881958 488.120513 
L 707.122517 491.023696 
L 709.363077 487.509994 
L 711.603636 488.615497 
L 713.844196 480.905914 
L 720.565874 479.870641 
L 722.806434 477.049916 
L 725.046993 478.367449 
L 727.287552 478.362608 
L 729.528112 482.313334 
L 736.24979 498.342678 
L 740.730909 492.87391 
L 742.971469 493.112819 
L 745.212028 490.794884 
L 754.174266 490.80101 
L 756.414825 485.034207 
L 758.655385 486.689127 
L 760.895944 491.607934 
L 769.858182 492.269997 
L 772.098741 486.655294 
L 774.339301 489.211227 
L 783.301538 489.344476 
L 787.782657 483.894689 
L 790.023217 483.404531 
L 792.263776 486.454425 
L 798.985455 480.328752 
L 801.226014 480.581872 
L 803.466573 485.995776 
L 807.947692 480.95244 
L 814.669371 481.762468 
L 816.90993 479.699746 
L 821.391049 479.422533 
L 834.834406 476.019714 
L 839.315524 481.129748 
L 848.277762 477.773556 
L 854.999441 488.623969 
L 861.721119 491.95987 
L 863.961678 489.585263 
L 866.202238 491.755225 
L 868.442797 496.699004 
L 870.683357 496.755485 
L 877.405035 491.130386 
L 879.645594 490.653137 
L 881.886154 498.120207 
L 884.126713 500.727029 
L 886.367273 498.892067 
L 893.088951 499.879681 
L 895.32951 497.753877 
L 897.57007 497.679084 
L 899.810629 503.401892 
L 902.051189 504.131054 
L 911.013427 503.095782 
L 913.253986 499.489255 
L 915.494545 499.992123 
L 917.735105 492.444168 
L 924.456783 483.300062 
L 926.697343 490.670011 
L 928.937902 491.960301 
L 931.178462 498.595476 
L 940.140699 486.081538 
L 942.381259 492.382909 
L 944.621818 494.705346 
L 946.862378 493.877774 
L 949.102937 505.489674 
L 955.824615 495.958049 
L 958.065175 498.898757 
L 960.305734 497.190422 
L 962.546294 504.90159 
L 971.508531 496.631151 
L 973.749091 497.940008 
L 975.98965 494.154808 
L 978.23021 486.547192 
L 980.470769 490.696018 
L 987.192448 489.468683 
L 989.433007 484.037268 
L 991.673566 481.68257 
L 993.914126 490.457109 
L 996.154685 495.01164 
L 1002.876364 476.794583 
L 1002.876364 476.794583 
" clip-path="url(#pd7c000fd99)" style="fill: none; stroke: #58a6ff; stroke-width: 2; stroke-linecap: square"/>
   </g>
   <g id="line2d_34">
    <path d="M 24.2 214.433949 
L 1049.48 214.433949 
" clip-path="url(#pd7c000fd99)" style="fill: none; stroke-dasharray: 1,1.65; stroke-dashoffset: 0; stroke: #f85149; stroke-opacity: 0.6"/>
   </g>
   <g id="line2d_35">
    <path d="M 24.2 392.084299 
L 1049.48 392.084299 
" clip-path="url(#pd7c000fd99)" style="fill: none; stroke-dasharray: 1,1.65; stroke-dashoffset: 0; stroke: #f85149; stroke-opacity: 0.6"/>
   </g>
   <g id="line2d_36">
    <path d="M 24.2 532.979403 
L 1049.48 532.979403 
" clip-path="url(#pd7c000fd99)" style="fill: none; stroke-dasharray: 1,1.65; stroke-dashoffset: 0; stroke: #f85149; stroke-opacity: 0.6"/>
   </g>
   <g id="patch_3">
    <path d="M 24.2 556.870312 
L 24.2 31.270312 
" style="fill: none; stroke: #30363d; stroke-width: 0.8; stroke-linejoin: miter; stroke-linecap: square"/>
   </g>
   <g id="patch_4">
    <path d="M 1049.48 556.870312 
L 1049.48 31.270312 
" style="fill: none; stroke: #30363d; stroke-width: 0.8; stroke-linejoin: miter; stroke-linecap: square"/>
   </g>
   <g id="patch_5">
    <path d="M 24.2 556.870312 
L 1049.48 556.870312 
" style="fill: none; stroke: #30363d; stroke-width: 0.8; stroke-linejoin: miter; stroke-linecap: square"/>
   </g>
   <g id="patch_6">
    <path d="M 24.2 31.270312 
L 1049.48 31.270312 
" style="fill: none; stroke: #30363d; stroke-width: 0.8; stroke-linejoin: miter; stroke-linecap: square"/>
   </g>
   <g id="text_17">
    <!--  高息 -->
    <g style="fill: #f85149; opacity: 0.7" transform="translate(1002.876364 217.439808) scale(0.09 -0.09)">
     <defs>
      <path id="SimHei-20" transform="scale(0.015625)"/>
      <path id="SimHei-9ad8" d="M 5825 -25 
Q 5850 -400 5550 -500 
Q 5250 -600 4975 -625 
Q 4875 -325 4725 -100 
Q 4975 -100 5175 -87 
Q 5375 -75 5350 250 
L 5350 1825 
L 1100 1825 
L 1100 -575 
L 600 -575 
Q 625 -225 625 850 
Q 625 1950 600 2200 
L 5850 2200 
Q 5825 1850 5825 1425 
L 5825 -25 
z
M 4925 3800 
Q 4900 3475 4900 3175 
Q 4900 2900 4925 2600 
L 1400 2600 
Q 1425 2825 1425 3175 
Q 1425 3525 1400 3800 
L 4925 3800 
z
M 4500 1400 
Q 4475 1125 4475 800 
Q 4475 500 4500 200 
L 1950 200 
Q 2000 500 2000 800 
Q 2000 1125 1950 1400 
L 4500 1400 
z
M 425 4600 
Q 750 4575 1125 4575 
L 2925 4575 
Q 2850 4875 2750 5100 
Q 3050 5125 3350 5200 
Q 3400 4950 3525 4575 
L 5250 4575 
Q 5600 4575 5975 4600 
L 5975 4150 
Q 5600 4175 5050 4175 
L 1150 4175 
Q 750 4175 425 4150 
L 425 4600 
z
M 4450 2975 
L 4450 3425 
L 1900 3425 
L 1900 2975 
L 4450 2975 
z
M 4025 550 
L 4025 1050 
L 2400 1050 
L 2400 550 
L 4025 550 
z
" transform="scale(0.015625)"/>
      <path id="SimHei-606f" d="M 3100 5100 
Q 2850 4725 2775 4525 
L 5300 4525 
Q 5275 4025 5275 3175 
Q 5275 2350 5300 1775 
L 1150 1775 
Q 1175 2350 1175 3175 
Q 1175 4025 1150 4525 
L 2325 4525 
Q 2400 4725 2475 5250 
Q 2750 5175 3100 5100 
z
M 2350 1350 
Q 2325 675 2325 375 
Q 2325 75 2387 12 
Q 2450 -50 2775 -50 
L 4025 -50 
Q 4200 -50 4262 25 
Q 4325 100 4350 550 
Q 4550 425 4875 350 
Q 4750 -150 4650 -275 
Q 4550 -400 4200 -425 
L 2350 -425 
Q 1950 -400 1887 -212 
Q 1825 -25 1837 325 
Q 1850 675 1825 1350 
L 2350 1350 
z
M 4800 3725 
L 4800 4175 
L 1650 4175 
L 1650 3725 
L 4800 3725 
z
M 4800 2125 
L 4800 2575 
L 1650 2575 
L 1650 2125 
L 4800 2125 
z
M 4800 2925 
L 4800 3375 
L 1650 3375 
L 1650 2925 
L 4800 2925 
z
M 5225 1425 
Q 5650 875 6125 325 
Q 5875 150 5700 -25 
Q 5225 700 4825 1100 
Q 5025 1225 5225 1425 
z
M 1275 1075 
Q 975 150 800 -225 
Q 575 -125 300 -50 
Q 600 375 800 1200 
Q 1000 1125 1275 1075 
z
M 3350 1500 
Q 3625 1100 3800 750 
Q 3625 675 3350 500 
Q 3175 925 2925 1250 
Q 3150 1375 3350 1500 
z
" transform="scale(0.015625)"/>
     </defs>
     <use xlink:href="#SimHei-20"/>
     <use xlink:href="#SimHei-9ad8" transform="translate(50 0)"/>
     <use xlink:href="#SimHei-606f" transform="translate(150 0)"/>
    </g>
   </g>
   <g id="text_18">
    <!--  正常 -->
    <g style="fill: #f85149; opacity: 0.7" transform="translate(1002.876364 395.07258) scale(0.09 -0.09)">
     <defs>
      <path id="SimHei-6b63" d="M 4825 4625 
Q 5300 4625 5675 4650 
L 5675 4150 
Q 5300 4175 4775 4175 
L 3575 4175 
L 3575 2600 
L 4850 2600 
Q 5250 2600 5550 2625 
L 5550 2150 
Q 5250 2175 4850 2175 
L 3575 2175 
L 3575 150 
L 4850 150 
Q 5375 150 5900 175 
L 5900 -325 
Q 5375 -300 4975 -300 
L 1175 -300 
Q 700 -300 375 -325 
L 375 175 
Q 700 150 1175 150 
L 1325 150 
L 1325 2350 
Q 1325 2800 1300 3125 
L 1875 3125 
Q 1850 2825 1850 2350 
L 1850 150 
L 3075 150 
L 3075 4175 
L 1625 4175 
Q 1150 4175 800 4150 
L 800 4650 
Q 1150 4625 1625 4625 
L 4825 4625 
z
" transform="scale(0.015625)"/>
      <path id="SimHei-5e38" d="M 5000 3225 
Q 4975 2875 4975 2525 
Q 4975 2175 5000 1875 
L 3450 1875 
L 3450 1400 
L 5550 1400 
Q 5525 1125 5525 800 
L 5525 300 
Q 5525 -100 5187 -225 
Q 4850 -350 4350 -375 
Q 4300 -100 4175 150 
Q 4675 100 4875 162 
Q 5075 225 5050 450 
L 5050 1000 
L 3450 1000 
L 3450 50 
Q 3450 -250 3475 -650 
L 2950 -650 
Q 2950 -250 2975 50 
L 2975 1000 
L 1400 1000 
L 1400 -250 
L 900 -250 
Q 925 100 925 600 
Q 925 1125 900 1400 
L 2975 1400 
L 2975 1875 
L 1400 1875 
Q 1425 2225 1425 2550 
Q 1425 2875 1400 3225 
L 5000 3225 
z
M 5175 4825 
Q 4975 4625 4625 4075 
L 5925 4075 
Q 5900 3725 5900 3475 
Q 5900 3250 5925 2875 
L 5425 2875 
L 5425 3675 
L 1000 3675 
L 1000 2850 
L 500 2850 
Q 525 3150 525 3425 
Q 525 3725 500 4075 
L 1750 4075 
Q 1525 4500 1225 4800 
Q 1425 4900 1575 5100 
Q 1850 4800 2175 4375 
Q 2000 4250 1800 4075 
L 2975 4075 
Q 2975 4775 2950 5200 
L 3475 5200 
Q 3450 4775 3450 4075 
L 4150 4075 
Q 4475 4650 4675 5125 
Q 4925 4950 5175 4825 
z
M 4525 2275 
L 4525 2825 
L 1875 2825 
L 1875 2275 
L 4525 2275 
z
" transform="scale(0.015625)"/>
     </defs>
     <use xlink:href="#SimHei-20"/>
     <use xlink:href="#SimHei-6b63" transform="translate(50 0)"/>
     <use xlink:href="#SimHei-5e38" transform="translate(150 0)"/>
    </g>
   </g>
   <g id="text_19">
    <!--  低息 -->
    <g style="fill: #f85149; opacity: 0.7" transform="translate(1002.876364 536.002841) scale(0.09 -0.09)">
     <defs>
      <path id="SimHei-4f4e" d="M 2300 4550 
Q 2750 4525 3750 4637 
Q 4750 4750 5275 5000 
Q 5425 4725 5600 4475 
Q 5125 4400 4350 4300 
Q 4350 3825 4400 2850 
L 5000 2850 
Q 5425 2850 5850 2875 
L 5850 2425 
Q 5425 2450 5025 2450 
L 4450 2450 
Q 4575 1325 4862 762 
Q 5150 200 5325 75 
Q 5500 -50 5562 125 
Q 5625 300 5675 775 
Q 5925 575 6150 525 
Q 6000 -100 5850 -337 
Q 5700 -575 5350 -500 
Q 5000 -425 4587 262 
Q 4175 950 4000 2450 
L 2775 2450 
L 2775 500 
Q 3275 950 3575 1275 
Q 3675 975 3775 800 
Q 2775 -50 2500 -350 
Q 2325 -175 2175 25 
Q 2300 150 2325 500 
L 2325 3725 
Q 2325 4075 2300 4550 
z
M 2050 5075 
Q 1900 4900 1600 3950 
L 1600 425 
Q 1600 -75 1625 -625 
L 1100 -625 
Q 1125 -75 1125 450 
L 1125 3025 
Q 875 2500 625 2125 
Q 400 2350 225 2425 
Q 600 2900 962 3687 
Q 1325 4475 1500 5275 
Q 1575 5200 2050 5075 
z
M 3950 2850 
Q 3900 3775 3900 4225 
Q 3125 4175 2775 4150 
L 2775 2850 
L 3950 2850 
z
M 3850 -625 
Q 3450 -75 3250 100 
Q 3450 275 3575 425 
Q 3925 50 4225 -300 
Q 4025 -450 3850 -625 
z
" transform="scale(0.015625)"/>
     </defs>
     <use xlink:href="#SimHei-20"/>
     <use xlink:href="#SimHei-4f4e" transform="translate(50 0)"/>
     <use xlink:href="#SimHei-606f" transform="translate(150 0)"/>
    </g>
   </g>
   <g id="text_20">
    <!-- 2026-07-20 -->
    <g style="fill: #8b949e; opacity: 0.6" transform="translate(994.2272 550.489312) scale(0.09 -0.09)">
     <use xlink:href="#SimHei-32"/>
     <use xlink:href="#SimHei-30" transform="translate(50 0)"/>
     <use xlink:href="#SimHei-32" transform="translate(100 0)"/>
     <use xlink:href="#SimHei-36" transform="translate(150 0)"/>
     <use xlink:href="#SimHei-2d" transform="translate(200 0)"/>
     <use xlink:href="#SimHei-30" transform="translate(250 0)"/>
     <use xlink:href="#SimHei-37" transform="translate(300 0)"/>
     <use xlink:href="#SimHei-2d" transform="translate(350 0)"/>
     <use xlink:href="#SimHei-32" transform="translate(400 0)"/>
     <use xlink:href="#SimHei-30" transform="translate(450 0)"/>
    </g>
   </g>
   <g id="text_21">
    <!-- 股债利差 -->
    <g style="fill: #c9d1d9" transform="translate(506.84 19.270312) scale(0.15 -0.15)">
     <defs>
      <path id="SimHei-80a1" d="M 1575 50 
Q 1925 25 2100 50 
Q 2275 75 2275 450 
L 2275 1625 
L 1325 1625 
Q 1250 900 1125 437 
Q 1000 -25 750 -525 
Q 550 -325 225 -250 
Q 550 150 687 762 
Q 825 1375 837 2150 
Q 850 2925 850 3725 
Q 850 4525 825 4900 
L 2750 4900 
Q 2725 4400 2725 3900 
L 2725 225 
Q 2725 -250 2512 -350 
Q 2300 -450 1750 -550 
Q 1700 -225 1575 50 
z
M 5225 -275 
Q 4950 -150 4450 275 
Q 4200 25 3875 -212 
Q 3550 -450 3100 -700 
Q 2925 -375 2725 -225 
Q 3250 -50 3550 137 
Q 3850 325 4100 600 
Q 3825 950 3625 1375 
Q 3425 1750 3325 2150 
Q 3225 2150 3125 2150 
L 3125 2600 
Q 3550 2575 3950 2575 
L 5725 2575 
Q 5650 2200 5375 1600 
Q 5100 1000 4775 600 
Q 5025 425 5387 237 
Q 5750 50 6200 -50 
Q 5950 -250 5850 -600 
L 5225 -275 
z
M 5325 3750 
Q 5300 3425 5600 3425 
L 6150 3450 
Q 6050 3225 6025 3000 
L 5400 3000 
Q 4825 3000 4825 3450 
L 4825 4500 
L 4000 4500 
Q 4000 3900 3862 3512 
Q 3725 3125 3275 2750 
Q 3150 2950 2900 3125 
Q 3425 3450 3475 3950 
Q 3525 4450 3500 4900 
L 5350 4900 
Q 5325 4675 5325 4375 
L 5325 3750 
z
M 2275 2050 
L 2275 3075 
L 1350 3075 
L 1350 2050 
L 2275 2050 
z
M 2275 3475 
L 2275 4500 
L 1350 4500 
L 1350 3475 
L 2275 3475 
z
M 3800 2175 
Q 3900 1750 4050 1475 
Q 4225 1175 4450 925 
Q 4925 1550 5050 2175 
L 3950 2175 
L 3800 2175 
z
" transform="scale(0.015625)"/>
      <path id="SimHei-503a" d="M 3750 4600 
Q 3750 4900 3725 5200 
L 4275 5200 
Q 4250 4875 4250 4600 
L 5000 4600 
Q 5550 4600 5800 4625 
L 5800 4200 
Q 5525 4225 5000 4225 
L 4250 4225 
L 4250 3850 
L 4875 3850 
Q 5250 3850 5625 3875 
L 5625 3450 
Q 5325 3475 4875 3475 
L 4250 3475 
L 4250 3100 
L 5150 3100 
Q 5725 3100 6050 3125 
L 6050 2700 
Q 5675 2725 5150 2725 
L 2875 2725 
Q 2400 2725 2000 2700 
L 2000 3125 
Q 2375 3100 2850 3100 
L 3750 3100 
L 3750 3475 
L 3325 3475 
Q 2850 3475 2500 3450 
L 2500 3875 
Q 2850 3850 3300 3850 
L 3750 3850 
L 3750 4225 
L 3225 4225 
Q 2675 4225 2300 4200 
L 2300 4625 
Q 2650 4600 3125 4600 
L 3750 4600 
z
M 250 2600 
Q 500 2875 887 3550 
Q 1275 4225 1500 5075 
Q 1750 4950 2100 4850 
Q 1900 4625 1550 3775 
L 1550 800 
Q 1550 -25 1575 -500 
L 1050 -500 
Q 1075 0 1075 825 
L 1075 2950 
Q 775 2450 625 2225 
L 250 2600 
z
M 5650 2300 
Q 5625 2100 5625 1550 
Q 5625 1025 5650 775 
L 5150 775 
L 5150 1925 
L 2975 1925 
L 2975 700 
L 2475 700 
Q 2500 1075 2500 1550 
Q 2500 2050 2475 2300 
L 5650 2300 
z
M 1950 -150 
Q 3250 25 3562 562 
Q 3875 1100 3800 1650 
L 4350 1600 
Q 4275 600 3825 112 
Q 3375 -375 2250 -600 
Q 2125 -350 1950 -150 
z
M 4675 675 
Q 5075 475 5412 300 
Q 5750 125 6050 -75 
Q 5900 -250 5750 -525 
Q 4875 125 4400 300 
Q 4525 500 4675 675 
z
" transform="scale(0.015625)"/>
      <path id="SimHei-5229" d="M 2400 2650 
Q 2950 2150 3500 1525 
Q 3325 1375 3125 1150 
Q 2775 1675 2400 2075 
L 2400 225 
Q 2400 -375 2425 -675 
L 1875 -675 
Q 1900 -350 1900 225 
L 1900 1975 
Q 1625 1450 1375 1100 
Q 1125 750 725 275 
Q 575 525 300 700 
Q 850 1150 1287 1837 
Q 1725 2525 1850 2950 
L 1375 2950 
Q 775 2950 500 2925 
L 500 3400 
Q 800 3375 1375 3375 
L 1900 3375 
L 1900 4350 
Q 1400 4250 825 4150 
Q 750 4400 625 4625 
Q 1050 4650 1800 4800 
Q 2550 4950 3225 5175 
Q 3350 4875 3550 4650 
Q 3050 4575 2400 4450 
L 2400 3375 
L 2825 3375 
Q 3350 3375 3750 3400 
L 3750 2925 
Q 3350 2950 2850 2950 
L 2400 2950 
L 2400 2650 
z
M 5775 5125 
Q 5750 4875 5750 4275 
L 5750 -100 
Q 5750 -400 5512 -487 
Q 5275 -575 4675 -675 
Q 4600 -300 4500 -75 
Q 5025 -100 5137 -50 
Q 5250 0 5250 150 
L 5250 4300 
Q 5250 4650 5225 5125 
L 5775 5125 
z
M 4625 4100 
Q 4600 3800 4600 3300 
L 4600 1725 
Q 4600 1200 4625 825 
L 4075 825 
Q 4100 1275 4100 1725 
L 4100 3300 
Q 4100 3700 4075 4100 
L 4625 4100 
z
" transform="scale(0.015625)"/>
      <path id="SimHei-5dee" d="M 4725 4975 
Q 4500 4725 4250 4275 
L 4850 4275 
Q 5450 4275 5825 4300 
L 5825 3850 
Q 5425 3875 4850 3875 
L 3275 3875 
Q 3225 3600 3150 3275 
L 4525 3275 
Q 5075 3275 5525 3300 
L 5525 2850 
Q 5075 2875 4500 2875 
L 3050 2875 
Q 2975 2650 2850 2325 
L 5125 2325 
Q 5675 2325 6025 2350 
L 6025 1900 
Q 5700 1925 5150 1925 
L 2650 1925 
Q 2425 1550 2250 1300 
Q 2650 1275 3100 1275 
L 4525 1275 
Q 4975 1275 5350 1300 
L 5350 850 
Q 4975 875 4575 875 
L 3925 875 
L 3925 -50 
L 5000 -50 
Q 5200 -50 5900 -25 
L 5900 -500 
Q 5275 -475 5025 -475 
L 2100 -475 
Q 1700 -475 1400 -500 
L 1400 -25 
Q 1775 -50 2125 -50 
L 3425 -50 
L 3425 875 
L 3100 875 
Q 2625 875 2175 850 
L 2175 1200 
Q 1925 875 1487 475 
Q 1050 75 625 -250 
Q 425 -25 200 150 
Q 750 475 1262 925 
Q 1775 1375 2100 1925 
L 1325 1925 
Q 750 1925 375 1900 
L 375 2350 
Q 750 2325 1350 2325 
L 2325 2325 
Q 2450 2575 2550 2875 
L 1725 2875 
Q 1375 2875 1000 2850 
L 1000 3300 
Q 1500 3275 1700 3275 
L 2650 3275 
Q 2725 3575 2775 3875 
L 1500 3875 
Q 1100 3875 650 3850 
L 650 4300 
Q 1025 4275 1425 4275 
L 2275 4275 
Q 2075 4675 1850 4950 
Q 2025 5050 2250 5225 
Q 2450 4975 2725 4550 
Q 2525 4450 2325 4275 
L 3750 4275 
Q 4000 4700 4150 5250 
Q 4400 5100 4725 4975 
z
" transform="scale(0.015625)"/>
     </defs>
     <use xlink:href="#SimHei-80a1"/>
     <use xlink:href="#SimHei-503a" transform="translate(100 0)"/>
     <use xlink:href="#SimHei-5229" transform="translate(200 0)"/>
     <use xlink:href="#SimHei-5dee" transform="translate(300 0)"/>
    </g>
   </g>
  </g>
 </g>
 <defs>
  <clipPath id="pd7c000fd99">
   <rect x="24.2" y="31.270312" width="1025.28" height="525.6"/>
  </clipPath>
 </defs>
</svg>
