<?xml version="1.0" encoding="utf-8" standalone="no"?>
<!DOCTYPE svg PUBLIC "-//W3C//DTD SVG 1.1//EN"
  "http://www.w3.org/Graphics/SVG/1.1/DTD/svg11.dtd">
<svg xmlns:xlink="http://www.w3.org/1999/xlink" width="1140.38pt" height="708.100625pt" viewBox="0 0 1140.38 708.100625" xmlns="http://www.w3.org/2000/svg" version="1.1">
 <metadata>
  <rdf:RDF xmlns:dc="http://purl.org/dc/elements/1.1/" xmlns:cc="http://creativecommons.org/ns#" xmlns:rdf="http://www.w3.org/1999/02/22-rdf-syntax-ns#">
   <cc:Work>
    <dc:type rdf:resource="http://purl.org/dc/dcmitype/StillImage"/>
    <dc:date>2026-07-04T15:06:11.201115</dc:date>
    <dc:format>image/svg+xml</dc:format>
    <dc:creator>
     <cc:Agent>
      <dc:title>Matplotlib v3.10.7, https://matplotlib.org/</dc:title>
     </cc:Agent>
    </dc:creator>
   </cc:Work>
  </rdf:RDF>
 </metadata>
 <defs>
  <style type="text/css">*{stroke-linejoin: round; stroke-linecap: butt}</style>
 </defs>
 <g id="figure_1">
  <g id="patch_1">
   <path d="M 0 708.100625 
L 1140.38 708.100625 
L 1140.38 0 
L 0 0 
z
" style="fill: #1a1a1a"/>
  </g>
  <g id="axes_1">
   <g id="patch_2">
    <path d="M 60.7 672.4475 
L 1133.18 672.4475 
L 1133.18 24.575 
L 60.7 24.575 
z
" style="fill: #1a1a1a"/>
   </g>
   <g id="patch_3">
    <path d="M 596.94 642.99875 
L 596.94 642.99875 
L 596.94 422.133125 
L 596.94 422.133125 
z
" clip-path="url(#p9077d1d48b)" style="fill: #ff0000; opacity: 0.8"/>
   </g>
   <g id="patch_4">
    <path d="M 596.94 274.889375 
L 596.94 274.889375 
L 596.94 54.02375 
L 596.94 54.02375 
z
" clip-path="url(#p9077d1d48b)" style="fill: #ff0000; opacity: 0.8"/>
   </g>
   <g id="patch_5">
    <path d="M 596.94 642.99875 
L 596.94 642.99875 
L 596.94 422.133125 
L 596.94 422.133125 
z
" clip-path="url(#p9077d1d48b)" style="fill: #ff6b6b; opacity: 0.8"/>
   </g>
   <g id="patch_6">
    <path d="M 596.94 274.889375 
L 596.94 274.889375 
L 596.94 54.02375 
L 596.94 54.02375 
z
" clip-path="url(#p9077d1d48b)" style="fill: #ff6b6b; opacity: 0.8"/>
   </g>
   <g id="patch_7">
    <path d="M 596.94 642.99875 
L 596.94 642.99875 
L 596.94 422.133125 
L 596.94 422.133125 
z
" clip-path="url(#p9077d1d48b)" style="fill: #ff9f1c; opacity: 0.8"/>
   </g>
   <g id="patch_8">
    <path d="M 596.94 274.889375 
L 596.94 274.889375 
L 596.94 54.02375 
L 596.94 54.02375 
z
" clip-path="url(#p9077d1d48b)" style="fill: #ff9f1c; opacity: 0.8"/>
   </g>
   <g id="patch_9">
    <path d="M 596.94 642.99875 
L 596.94 642.99875 
L 596.94 422.133125 
L 596.94 422.133125 
z
" clip-path="url(#p9077d1d48b)" style="fill: #4ecdc4; opacity: 0.8"/>
   </g>
   <g id="patch_10">
    <path d="M 596.94 274.889375 
L 596.94 274.889375 
L 596.94 54.02375 
L 596.94 54.02375 
z
" clip-path="url(#p9077d1d48b)" style="fill: #4ecdc4; opacity: 0.8"/>
   </g>
   <g id="patch_11">
    <path d="M 596.94 642.99875 
L 596.94 642.99875 
L 596.94 422.133125 
L 596.94 422.133125 
z
" clip-path="url(#p9077d1d48b)" style="fill: #95e1d3; opacity: 0.8"/>
   </g>
   <g id="patch_12">
    <path d="M 596.94 274.889375 
L 596.94 274.889375 
L 596.94 54.02375 
L 596.94 54.02375 
z
" clip-path="url(#p9077d1d48b)" style="fill: #95e1d3; opacity: 0.8"/>
   </g>
   <g id="matplotlib.axis_1">
    <g id="xtick_1">
     <g id="line2d_1">
      <path d="M 206.947273 672.4475 
L 206.947273 24.575 
" clip-path="url(#p9077d1d48b)" style="fill: none; stroke-dasharray: 2.96,1.28; stroke-dashoffset: 0; stroke: #555555; stroke-opacity: 0.3; stroke-width: 0.8"/>
     </g>
     <g id="line2d_2">
      <defs>
       <path id="maa056ed804" d="M 0 0 
L 0 -3.5 
" style="stroke: #cccccc; stroke-width: 0.8"/>
      </defs>
      <g>
       <use xlink:href="#maa056ed804" x="206.947273" y="672.4475" style="fill: #cccccc; stroke: #cccccc; stroke-width: 0.8"/>
      </g>
     </g>
     <g id="text_1">
      <!-- -0.04 -->
      <g style="fill: #cccccc" transform="translate(191.947273 684.1975) scale(0.12 -0.12)">
       <defs>
        <path id="SimHei-2d" d="M 2975 2125 
L 125 2125 
L 125 2525 
L 2975 2525 
L 2975 2125 
z
" transform="scale(0.015625)"/>
        <path id="SimHei-30" d="M 225 2537 
Q 250 3200 412 3587 
Q 575 3975 875 4225 
Q 1175 4475 1612 4475 
Q 2050 4475 2375 4112 
Q 2700 3750 2800 3200 
Q 2900 2650 2862 1937 
Q 2825 1225 2612 775 
Q 2400 325 1975 150 
Q 1550 -25 1125 187 
Q 700 400 525 750 
Q 350 1100 275 1487 
Q 200 1875 225 2537 
z
M 750 2687 
Q 675 2000 800 1462 
Q 925 925 1212 700 
Q 1500 475 1800 612 
Q 2100 750 2237 1162 
Q 2375 1575 2375 2062 
Q 2375 2550 2337 2950 
Q 2300 3350 2112 3675 
Q 1925 4000 1612 4012 
Q 1300 4025 1062 3700 
Q 825 3375 750 2687 
z
" transform="scale(0.015625)"/>
        <path id="SimHei-2e" d="M 1075 125 
L 500 125 
L 500 675 
L 1075 675 
L 1075 125 
z
" transform="scale(0.015625)"/>
        <path id="SimHei-34" d="M 2000 1100 
L 75 1100 
L 75 1525 
L 2100 4450 
L 2475 4450 
L 2475 1525 
L 3075 1525 
L 3075 1100 
L 2475 1100 
L 2475 150 
L 2000 150 
L 2000 1100 
z
M 2000 1525 
L 2000 3500 
L 600 1525 
L 2000 1525 
z
" transform="scale(0.015625)"/>
       </defs>
       <use xlink:href="#SimHei-2d"/>
       <use xlink:href="#SimHei-30" transform="translate(50 0)"/>
       <use xlink:href="#SimHei-2e" transform="translate(100 0)"/>
       <use xlink:href="#SimHei-30" transform="translate(150 0)"/>
       <use xlink:href="#SimHei-34" transform="translate(200 0)"/>
      </g>
     </g>
    </g>
    <g id="xtick_2">
     <g id="line2d_3">
      <path d="M 401.943636 672.4475 
L 401.943636 24.575 
" clip-path="url(#p9077d1d48b)" style="fill: none; stroke-dasharray: 2.96,1.28; stroke-dashoffset: 0; stroke: #555555; stroke-opacity: 0.3; stroke-width: 0.8"/>
     </g>
     <g id="line2d_4">
      <g>
       <use xlink:href="#maa056ed804" x="401.943636" y="672.4475" style="fill: #cccccc; stroke: #cccccc; stroke-width: 0.8"/>
      </g>
     </g>
     <g id="text_2">
      <!-- -0.02 -->
      <g style="fill: #cccccc" transform="translate(386.943636 684.1975) scale(0.12 -0.12)">
       <defs>
        <path id="SimHei-32" d="M 300 250 
Q 325 625 650 925 
Q 975 1225 1475 1862 
Q 1975 2500 2125 2850 
Q 2275 3200 2237 3450 
Q 2200 3700 2000 3862 
Q 1800 4025 1537 4000 
Q 1275 3975 1037 3800 
Q 800 3625 675 3275 
L 200 3350 
Q 400 3925 712 4187 
Q 1025 4450 1450 4475 
Q 1700 4500 1900 4462 
Q 2100 4425 2312 4287 
Q 2525 4150 2662 3875 
Q 2800 3600 2762 3212 
Q 2725 2825 2375 2287 
Q 2025 1750 1025 600 
L 2825 600 
L 2825 150 
L 300 150 
L 300 250 
z
" transform="scale(0.015625)"/>
       </defs>
       <use xlink:href="#SimHei-2d"/>
       <use xlink:href="#SimHei-30" transform="translate(50 0)"/>
       <use xlink:href="#SimHei-2e" transform="translate(100 0)"/>
       <use xlink:href="#SimHei-30" transform="translate(150 0)"/>
       <use xlink:href="#SimHei-32" transform="translate(200 0)"/>
      </g>
     </g>
    </g>
    <g id="xtick_3">
     <g id="line2d_5">
      <path d="M 596.94 672.4475 
L 596.94 24.575 
" clip-path="url(#p9077d1d48b)" style="fill: none; stroke-dasharray: 2.96,1.28; stroke-dashoffset: 0; stroke: #555555; stroke-opacity: 0.3; stroke-width: 0.8"/>
     </g>
     <g id="line2d_6">
      <g>
       <use xlink:href="#maa056ed804" x="596.94" y="672.4475" style="fill: #cccccc; stroke: #cccccc; stroke-width: 0.8"/>
      </g>
     </g>
     <g id="text_3">
      <!-- 0.00 -->
      <g style="fill: #cccccc" transform="translate(584.94 684.1975) scale(0.12 -0.12)">
       <use xlink:href="#SimHei-30"/>
       <use xlink:href="#SimHei-2e" transform="translate(50 0)"/>
       <use xlink:href="#SimHei-30" transform="translate(100 0)"/>
       <use xlink:href="#SimHei-30" transform="translate(150 0)"/>
      </g>
     </g>
    </g>
    <g id="xtick_4">
     <g id="line2d_7">
      <path d="M 791.936364 672.4475 
L 791.936364 24.575 
" clip-path="url(#p9077d1d48b)" style="fill: none; stroke-dasharray: 2.96,1.28; stroke-dashoffset: 0; stroke: #555555; stroke-opacity: 0.3; stroke-width: 0.8"/>
     </g>
     <g id="line2d_8">
      <g>
       <use xlink:href="#maa056ed804" x="791.936364" y="672.4475" style="fill: #cccccc; stroke: #cccccc; stroke-width: 0.8"/>
      </g>
     </g>
     <g id="text_4">
      <!-- 0.02 -->
      <g style="fill: #cccccc" transform="translate(779.936364 684.1975) scale(0.12 -0.12)">
       <use xlink:href="#SimHei-30"/>
       <use xlink:href="#SimHei-2e" transform="translate(50 0)"/>
       <use xlink:href="#SimHei-30" transform="translate(100 0)"/>
       <use xlink:href="#SimHei-32" transform="translate(150 0)"/>
      </g>
     </g>
    </g>
    <g id="xtick_5">
     <g id="line2d_9">
      <path d="M 986.932727 672.4475 
L 986.932727 24.575 
" clip-path="url(#p9077d1d48b)" style="fill: none; stroke-dasharray: 2.96,1.28; stroke-dashoffset: 0; stroke: #555555; stroke-opacity: 0.3; stroke-width: 0.8"/>
     </g>
     <g id="line2d_10">
      <g>
       <use xlink:href="#maa056ed804" x="986.932727" y="672.4475" style="fill: #cccccc; stroke: #cccccc; stroke-width: 0.8"/>
      </g>
     </g>
     <g id="text_5">
      <!-- 0.04 -->
      <g style="fill: #cccccc" transform="translate(974.932727 684.1975) scale(0.12 -0.12)">
       <use xlink:href="#SimHei-30"/>
       <use xlink:href="#SimHei-2e" transform="translate(50 0)"/>
       <use xlink:href="#SimHei-30" transform="translate(100 0)"/>
       <use xlink:href="#SimHei-34" transform="translate(150 0)"/>
      </g>
     </g>
    </g>
    <g id="text_6">
     <!-- 主升浪股票数量 -->
     <g style="fill: #cccccc" transform="translate(554.94 699.400625) scale(0.12 -0.12)">
      <defs>
       <path id="SimHei-4e3b" d="M 4750 3850 
Q 5150 3850 5750 3875 
L 5750 3400 
Q 5150 3425 4750 3425 
L 3425 3425 
L 3425 2175 
L 4425 2175 
Q 4825 2175 5375 2200 
L 5375 1725 
Q 4825 1750 4425 1750 
L 3425 1750 
L 3425 150 
L 5000 150 
Q 5450 150 6050 175 
L 6050 -300 
Q 5450 -275 5000 -275 
L 350 -275 
L 350 200 
Q 950 150 1425 150 
L 2900 150 
L 2900 1750 
L 1925 1750 
Q 1525 1750 975 1725 
L 975 2200 
Q 1575 2175 1925 2175 
L 2900 2175 
L 2900 3425 
L 1650 3425 
Q 1125 3425 625 3400 
L 625 3875 
Q 1175 3850 1675 3850 
L 4750 3850 
z
M 3175 3900 
Q 2875 4350 2400 4875 
Q 2650 5050 2800 5200 
Q 3325 4600 3625 4175 
Q 3475 4100 3175 3900 
z
" transform="scale(0.015625)"/>
       <path id="SimHei-5347" d="M 3600 4600 
Q 3275 4550 2650 4300 
Q 2650 3650 2625 2825 
L 4100 2825 
L 4100 4275 
Q 4100 4775 4075 5100 
L 4650 5100 
Q 4625 4775 4625 4275 
L 4625 2825 
Q 5675 2825 6175 2850 
L 6175 2350 
Q 5725 2375 4625 2375 
L 4625 450 
Q 4625 50 4650 -500 
L 4075 -500 
Q 4100 25 4100 450 
L 4100 2375 
L 2625 2375 
Q 2550 1500 2050 812 
Q 1550 125 700 -450 
Q 575 -225 225 -50 
Q 800 200 1412 887 
Q 2025 1575 2075 2375 
L 875 2375 
Q 575 2375 225 2350 
L 225 2850 
Q 575 2825 875 2825 
L 2100 2825 
Q 2125 3325 2125 4150 
Q 1250 3925 950 3825 
Q 850 4100 600 4300 
Q 1050 4350 1812 4575 
Q 2575 4800 3125 5125 
L 3600 4600 
z
" transform="scale(0.015625)"/>
       <path id="SimHei-6d6a" d="M 3675 775 
Q 3750 450 3900 300 
Q 3650 100 3225 -187 
Q 2800 -475 2550 -650 
Q 2425 -450 2200 -225 
Q 2400 -50 2375 200 
L 2375 3325 
Q 2375 3875 2350 4350 
L 3775 4350 
Q 3575 4725 3300 5025 
Q 3575 5150 3750 5275 
Q 4075 4875 4250 4600 
Q 4075 4500 3850 4350 
L 5475 4350 
Q 5450 3950 5450 3050 
Q 5450 2175 5475 1875 
L 4025 1875 
Q 4175 1350 4475 950 
Q 5000 1300 5325 1675 
Q 5500 1500 5825 1325 
Q 5625 1225 5387 1062 
Q 5150 900 4800 625 
Q 5400 125 6150 0 
Q 5900 -250 5800 -550 
Q 4950 -225 4375 325 
Q 3800 875 3525 1875 
L 2850 1875 
L 2850 150 
Q 3300 425 3675 775 
z
M 4950 3300 
L 4950 3950 
L 2850 3950 
L 2850 3300 
L 4950 3300 
z
M 4950 2275 
L 4950 2900 
L 2850 2900 
L 2850 2275 
L 4950 2275 
z
M 1850 1350 
Q 1575 950 1275 425 
Q 975 -100 825 -500 
Q 525 -275 225 -75 
Q 500 175 875 737 
Q 1250 1300 1400 1725 
Q 1625 1500 1850 1350 
z
M 550 3300 
Q 1125 3050 1800 2650 
Q 1600 2450 1450 2200 
Q 950 2550 250 2875 
Q 400 3075 550 3300 
z
M 975 4875 
Q 1425 4575 2050 4150 
Q 1825 3975 1650 3700 
Q 1250 4100 575 4500 
Q 775 4675 975 4875 
z
" transform="scale(0.015625)"/>
       <path id="SimHei-80a1" d="M 1575 50 
Q 1925 25 2100 50 
Q 2275 75 2275 450 
L 2275 1625 
L 1325 1625 
Q 1250 900 1125 437 
Q 1000 -25 750 -525 
Q 550 -325 225 -250 
Q 550 150 687 762 
Q 825 1375 837 2150 
Q 850 2925 850 3725 
Q 850 4525 825 4900 
L 2750 4900 
Q 2725 4400 2725 3900 
L 2725 225 
Q 2725 -250 2512 -350 
Q 2300 -450 1750 -550 
Q 1700 -225 1575 50 
z
M 5225 -275 
Q 4950 -150 4450 275 
Q 4200 25 3875 -212 
Q 3550 -450 3100 -700 
Q 2925 -375 2725 -225 
Q 3250 -50 3550 137 
Q 3850 325 4100 600 
Q 3825 950 3625 1375 
Q 3425 1750 3325 2150 
Q 3225 2150 3125 2150 
L 3125 2600 
Q 3550 2575 3950 2575 
L 5725 2575 
Q 5650 2200 5375 1600 
Q 5100 1000 4775 600 
Q 5025 425 5387 237 
Q 5750 50 6200 -50 
Q 5950 -250 5850 -600 
L 5225 -275 
z
M 5325 3750 
Q 5300 3425 5600 3425 
L 6150 3450 
Q 6050 3225 6025 3000 
L 5400 3000 
Q 4825 3000 4825 3450 
L 4825 4500 
L 4000 4500 
Q 4000 3900 3862 3512 
Q 3725 3125 3275 2750 
Q 3150 2950 2900 3125 
Q 3425 3450 3475 3950 
Q 3525 4450 3500 4900 
L 5350 4900 
Q 5325 4675 5325 4375 
L 5325 3750 
z
M 2275 2050 
L 2275 3075 
L 1350 3075 
L 1350 2050 
L 2275 2050 
z
M 2275 3475 
L 2275 4500 
L 1350 4500 
L 1350 3475 
L 2275 3475 
z
M 3800 2175 
Q 3900 1750 4050 1475 
Q 4225 1175 4450 925 
Q 4925 1550 5050 2175 
L 3950 2175 
L 3800 2175 
z
" transform="scale(0.015625)"/>
       <path id="SimHei-7968" d="M 825 2800 
Q 850 3175 850 3500 
Q 850 3850 825 4225 
L 2275 4225 
L 2275 4700 
L 1375 4700 
Q 775 4700 475 4675 
L 475 5100 
Q 850 5075 1425 5075 
L 4900 5075 
Q 5350 5075 5925 5100 
L 5925 4675 
Q 5350 4700 4900 4700 
L 4025 4700 
L 4025 4225 
L 5550 4225 
Q 5525 3850 5525 3500 
Q 5525 3175 5550 2800 
L 825 2800 
z
M 300 1500 
Q 575 1475 925 1475 
L 5325 1475 
Q 5675 1475 6150 1500 
L 6150 1075 
Q 5675 1100 5325 1100 
L 3475 1100 
L 3475 -50 
Q 3475 -375 3212 -500 
Q 2950 -625 2550 -675 
Q 2500 -375 2325 -100 
Q 2700 -125 2837 -100 
Q 2975 -75 2975 100 
L 2975 1100 
L 925 1100 
Q 575 1100 300 1075 
L 300 1500 
z
M 4600 2325 
Q 5025 2325 5450 2350 
L 5450 1925 
Q 5000 1950 4625 1950 
L 1725 1950 
Q 1325 1950 925 1925 
L 925 2350 
Q 1325 2325 1750 2325 
L 4600 2325 
z
M 4550 775 
Q 5575 250 5975 25 
Q 5750 -175 5625 -425 
Q 5200 -100 4250 350 
Q 4450 525 4550 775 
z
M 400 -25 
Q 650 75 1012 262 
Q 1375 450 1725 850 
Q 1900 650 2175 450 
Q 2000 375 1650 125 
Q 1300 -125 800 -425 
Q 675 -200 400 -25 
z
M 5050 3200 
L 5050 3800 
L 4025 3800 
L 4025 3200 
L 5050 3200 
z
M 2275 3200 
L 2275 3800 
L 1325 3800 
L 1325 3200 
L 2275 3200 
z
M 3550 3200 
L 3550 3800 
L 2725 3800 
L 2725 3200 
L 3550 3200 
z
M 3550 4225 
L 3550 4700 
L 2725 4700 
L 2725 4225 
L 3550 4225 
z
" transform="scale(0.015625)"/>
       <path id="SimHei-6570" d="M 4525 4925 
Q 4475 4800 4400 4587 
Q 4325 4375 4175 3825 
L 5325 3825 
Q 5575 3825 5925 3850 
L 5925 3400 
Q 5650 3425 5500 3425 
Q 5500 3025 5362 2162 
Q 5225 1300 4875 675 
Q 5125 375 5437 137 
Q 5750 -100 6025 -200 
Q 5725 -425 5625 -625 
Q 5325 -450 5075 -225 
Q 4825 0 4575 325 
Q 4300 25 3987 -187 
Q 3675 -400 3200 -650 
Q 3075 -425 2850 -300 
Q 3225 -150 3650 125 
Q 4075 400 4300 675 
Q 4125 1025 3962 1425 
Q 3800 1825 3675 2475 
Q 3600 2275 3425 1950 
Q 3250 2050 3000 2150 
Q 3400 2850 3650 3675 
Q 3900 4500 3975 5100 
Q 4275 4975 4525 4925 
z
M 2100 2250 
Q 2000 2150 1875 1925 
L 3250 1925 
Q 3100 1300 2725 675 
Q 3125 525 3350 400 
Q 3225 225 3125 25 
Q 2900 175 2450 325 
Q 1950 -225 725 -650 
Q 600 -375 400 -275 
Q 1575 0 2000 475 
Q 1300 650 850 775 
Q 1000 1000 1250 1525 
Q 1000 1525 425 1500 
L 425 1950 
Q 900 1925 1400 1925 
Q 1500 2150 1550 2425 
Q 1825 2325 2100 2250 
z
M 1775 3950 
Q 1775 4550 1750 5100 
L 2250 5100 
Q 2225 4575 2225 3950 
Q 3075 3950 3425 3975 
L 3425 3525 
Q 3075 3550 2225 3550 
Q 2225 2825 2250 2425 
L 1750 2425 
Q 1775 2775 1775 3300 
Q 1650 3100 1300 2787 
Q 950 2475 650 2300 
Q 525 2525 275 2625 
Q 500 2700 875 2975 
Q 1250 3250 1450 3550 
Q 950 3550 500 3525 
L 500 3975 
Q 925 3950 1775 3950 
z
M 3975 3175 
Q 4200 1700 4600 1125 
Q 4850 1700 4937 2287 
Q 5025 2875 5050 3425 
L 4075 3425 
L 3975 3175 
z
M 1450 1000 
Q 1750 925 2275 800 
Q 2475 1050 2650 1525 
L 1725 1525 
Q 1600 1275 1450 1000 
z
M 3325 4825 
Q 3200 4625 3125 4450 
Q 3050 4275 2925 4025 
Q 2725 4125 2525 4175 
Q 2725 4500 2900 5000 
Q 3150 4875 3325 4825 
z
M 2575 3375 
Q 2900 3050 3200 2725 
Q 3050 2600 2875 2425 
Q 2525 2850 2300 3100 
Q 2450 3225 2575 3375 
z
M 925 5000 
Q 1275 4650 1500 4300 
L 1125 4075 
Q 950 4425 600 4725 
Q 825 4875 925 5000 
z
" transform="scale(0.015625)"/>
       <path id="SimHei-91cf" d="M 5250 2500 
Q 5225 2200 5225 1700 
Q 5225 1225 5250 950 
L 3425 950 
L 3425 625 
L 4575 625 
Q 5000 625 5375 650 
L 5375 275 
Q 5025 300 4575 300 
L 3425 300 
L 3425 -75 
L 5125 -75 
Q 5525 -75 5925 -50 
L 5925 -425 
Q 5525 -400 5125 -400 
L 1275 -400 
Q 900 -400 475 -425 
L 475 -50 
Q 925 -50 1275 -75 
L 2975 -75 
L 2975 300 
L 1725 300 
Q 1350 300 975 250 
L 975 650 
Q 1375 625 1725 625 
L 2975 625 
L 2975 950 
L 1150 950 
Q 1175 1375 1175 1775 
Q 1175 2175 1150 2500 
L 5250 2500 
z
M 5200 4950 
Q 5175 4575 5175 4250 
Q 5175 3925 5200 3400 
L 1200 3400 
Q 1225 3925 1225 4250 
Q 1225 4575 1200 4950 
L 5200 4950 
z
M 4900 3100 
Q 5500 3125 6000 3150 
L 6000 2750 
Q 5500 2775 4925 2775 
L 1650 2775 
Q 975 2775 325 2750 
L 325 3150 
Q 975 3125 1650 3100 
L 4900 3100 
z
M 4725 3700 
L 4725 4025 
L 1675 4025 
L 1675 3700 
L 4725 3700 
z
M 4725 4350 
L 4725 4650 
L 1675 4650 
L 1675 4350 
L 4725 4350 
z
M 4750 1875 
L 4750 2175 
L 3425 2175 
L 3425 1875 
L 4750 1875 
z
M 2975 1875 
L 2975 2175 
L 1650 2175 
L 1650 1875 
L 2975 1875 
z
M 2975 1275 
L 2975 1550 
L 1650 1550 
L 1650 1275 
L 2975 1275 
z
M 4750 1275 
L 4750 1550 
L 3425 1550 
L 3425 1275 
L 4750 1275 
z
" transform="scale(0.015625)"/>
      </defs>
      <use xlink:href="#SimHei-4e3b"/>
      <use xlink:href="#SimHei-5347" transform="translate(100 0)"/>
      <use xlink:href="#SimHei-6d6a" transform="translate(200 0)"/>
      <use xlink:href="#SimHei-80a1" transform="translate(300 0)"/>
      <use xlink:href="#SimHei-7968" transform="translate(400 0)"/>
      <use xlink:href="#SimHei-6570" transform="translate(500 0)"/>
      <use xlink:href="#SimHei-91cf" transform="translate(600 0)"/>
     </g>
    </g>
   </g>
   <g id="matplotlib.axis_2">
    <g id="ytick_1">
     <g id="line2d_11">
      <path d="M 60.7 532.565938 
L 1133.18 532.565938 
" clip-path="url(#p9077d1d48b)" style="fill: none; stroke-dasharray: 2.96,1.28; stroke-dashoffset: 0; stroke: #555555; stroke-opacity: 0.25; stroke-width: 0.8"/>
     </g>
     <g id="line2d_12">
      <defs>
       <path id="m8bbb68b15f" d="M 0 0 
L 3.5 0 
" style="stroke: #cccccc; stroke-width: 0.8"/>
      </defs>
      <g>
       <use xlink:href="#m8bbb68b15f" x="60.7" y="532.565938" style="fill: #cccccc; stroke: #cccccc; stroke-width: 0.8"/>
      </g>
     </g>
     <g id="text_7">
      <!-- 机器人概念 -->
      <g style="fill: #cccccc" transform="translate(7.2 536.628438) scale(0.1 -0.1)">
       <defs>
        <path id="SimHei-673a" d="M 5100 4775 
Q 5075 4075 5075 3575 
L 5075 325 
Q 5075 0 5225 -25 
Q 5375 -50 5475 -37 
Q 5575 -25 5612 137 
Q 5650 300 5650 625 
Q 5875 500 6175 425 
Q 6075 -100 5975 -275 
Q 5875 -450 5650 -450 
L 5125 -450 
Q 4825 -450 4687 -312 
Q 4550 -175 4575 250 
L 4575 4350 
L 3625 4350 
Q 3625 2925 3587 2137 
Q 3550 1350 3362 712 
Q 3175 75 2625 -575 
Q 2500 -425 2175 -175 
Q 2525 100 2737 500 
Q 2950 900 3025 1325 
Q 3100 1750 3125 2225 
Q 3150 2700 3150 3425 
Q 3150 4175 3125 4775 
L 5100 4775 
z
M 2150 2725 
Q 2550 2175 2750 1875 
Q 2575 1725 2325 1550 
Q 2175 1875 1800 2425 
L 1800 600 
Q 1800 100 1825 -525 
L 1275 -525 
Q 1300 100 1300 600 
L 1300 2200 
Q 1175 1825 1025 1487 
Q 875 1150 600 725 
Q 375 975 200 1125 
Q 400 1350 725 2000 
Q 1050 2650 1225 3450 
L 1075 3450 
Q 725 3450 375 3400 
L 375 3875 
Q 725 3850 1050 3850 
L 1300 3850 
L 1300 4350 
Q 1300 4750 1275 5100 
L 1850 5100 
Q 1800 4850 1800 4350 
L 1800 3850 
L 2075 3850 
Q 2350 3850 2700 3875 
L 2700 3425 
Q 2150 3450 1800 3450 
L 1800 2450 
Q 1950 2575 2150 2725 
z
" transform="scale(0.015625)"/>
        <path id="SimHei-5668" d="M 275 1925 
Q 775 1925 1212 2000 
Q 1650 2075 1987 2200 
Q 2325 2325 2625 2625 
L 1525 2625 
Q 1250 2625 550 2600 
L 550 3025 
Q 1250 3000 1525 3000 
L 2750 3000 
Q 2825 3225 2800 3550 
Q 3125 3500 3475 3450 
Q 3325 3300 3300 3000 
L 4425 3000 
Q 4250 3175 4075 3300 
L 4425 3550 
Q 4625 3400 4800 3200 
Q 4650 3125 4500 3000 
L 4875 3000 
Q 5425 3000 5875 3025 
L 5875 2600 
Q 5450 2625 4875 2625 
L 3625 2625 
Q 4100 2225 4837 2112 
Q 5575 2000 6100 2050 
Q 5900 1800 5850 1500 
Q 5225 1550 4787 1637 
Q 4350 1725 3987 1900 
Q 3625 2075 3150 2575 
Q 2700 2000 1975 1762 
Q 1250 1525 525 1425 
Q 450 1725 275 1925 
z
M 5025 -575 
L 5025 -100 
L 3825 -100 
L 3825 -550 
L 3400 -550 
Q 3425 0 3425 475 
Q 3425 975 3400 1425 
L 5475 1425 
Q 5450 1125 5450 400 
Q 5450 -300 5475 -575 
L 5025 -575 
z
M 2400 -550 
L 2400 -100 
L 1325 -100 
L 1325 -575 
L 875 -575 
Q 900 -150 900 475 
Q 900 1100 875 1425 
L 2825 1425 
Q 2800 1025 2800 425 
Q 2800 -150 2825 -550 
L 2400 -550 
z
M 5475 5025 
Q 5450 4700 5450 4350 
Q 5450 4000 5475 3625 
L 3375 3625 
Q 3400 4000 3400 4350 
Q 3400 4725 3375 5025 
L 5475 5025 
z
M 2825 5025 
Q 2800 4700 2800 4325 
Q 2800 3975 2825 3625 
L 875 3625 
Q 900 3975 900 4325 
Q 900 4700 875 5025 
L 2825 5025 
z
M 5025 250 
L 5025 1050 
L 3825 1050 
L 3825 250 
L 5025 250 
z
M 2400 250 
L 2400 1050 
L 1325 1050 
L 1325 250 
L 2400 250 
z
M 5025 3975 
L 5025 4675 
L 3825 4675 
L 3825 3975 
L 5025 3975 
z
M 2400 3975 
L 2400 4675 
L 1325 4675 
L 1325 3975 
L 2400 3975 
z
" transform="scale(0.015625)"/>
        <path id="SimHei-4eba" d="M 350 -150 
Q 1325 325 1875 1025 
Q 2425 1725 2637 2462 
Q 2850 3200 2875 3837 
Q 2900 4475 2850 5175 
Q 3125 5150 3475 5125 
Q 3400 4725 3400 4300 
Q 3400 3875 3450 3325 
Q 3500 2775 4162 1662 
Q 4825 550 6100 0 
Q 5800 -300 5700 -500 
Q 3950 350 3200 2575 
Q 2700 600 775 -575 
Q 625 -375 350 -150 
z
" transform="scale(0.015625)"/>
        <path id="SimHei-6982" d="M 3100 1150 
Q 3000 1350 2900 1475 
Q 3075 1600 3275 1725 
Q 3425 1475 3537 1262 
Q 3650 1050 3825 750 
Q 3675 625 3425 450 
Q 3375 600 3275 800 
Q 3075 625 2775 412 
Q 2475 200 2250 -50 
Q 2075 200 1925 350 
Q 2100 525 2125 875 
L 2125 4000 
Q 2125 4425 2100 4700 
L 3575 4700 
Q 3550 4325 3550 3475 
Q 3550 2650 3575 2200 
L 2550 2200 
L 2550 750 
Q 2725 850 3100 1150 
z
M 3325 -700 
Q 3200 -500 2950 -325 
Q 3400 -75 3850 637 
Q 4300 1350 4500 2350 
L 3800 2350 
Q 3825 2725 3825 3075 
Q 3825 3425 3800 3750 
L 4275 3750 
Q 4225 3550 4225 3250 
L 4225 2725 
L 4600 2725 
Q 4675 3500 4675 4400 
L 4425 4400 
Q 4075 4400 3800 4375 
L 3800 4800 
Q 4100 4775 4425 4775 
L 5150 4775 
Q 5625 4775 5850 4800 
L 5850 4375 
Q 5650 4400 5100 4400 
Q 5100 3700 5025 2725 
L 5375 2725 
Q 5600 2725 5925 2750 
L 5925 2325 
Q 5600 2350 5425 2350 
L 4950 2350 
Q 4625 1075 4287 462 
Q 3950 -150 3325 -700 
z
M 1000 4425 
Q 1000 4750 975 5050 
L 1475 5050 
Q 1425 4725 1425 4300 
L 1425 3800 
Q 1625 3800 1925 3825 
L 1925 3400 
Q 1600 3425 1425 3425 
L 1425 2650 
Q 1550 2725 1700 2825 
Q 1900 2350 2075 1875 
Q 1850 1825 1700 1700 
Q 1600 2050 1425 2450 
L 1425 300 
Q 1425 -125 1450 -575 
L 975 -575 
Q 1000 -50 1000 300 
L 1000 2025 
Q 825 1450 550 950 
Q 450 1150 175 1350 
Q 500 1825 662 2275 
Q 825 2725 950 3425 
Q 500 3425 350 3400 
L 350 3825 
Q 550 3800 1000 3800 
L 1000 4425 
z
M 5300 1725 
Q 5275 1050 5275 225 
Q 5275 -50 5412 -75 
Q 5550 -100 5625 -87 
Q 5700 -75 5737 37 
Q 5775 150 5775 475 
Q 6000 350 6250 300 
Q 6150 -225 6050 -350 
Q 5950 -475 5650 -475 
L 5350 -475 
Q 4800 -450 4850 50 
Q 4850 925 4850 1725 
L 5300 1725 
z
M 3125 2575 
L 3125 3275 
L 2550 3275 
L 2550 2575 
L 3125 2575 
z
M 3125 3650 
L 3125 4325 
L 2550 4325 
L 2550 3650 
L 3125 3650 
z
" transform="scale(0.015625)"/>
        <path id="SimHei-5ff5" d="M 275 2925 
Q 825 3075 1687 3762 
Q 2550 4450 3075 5300 
Q 3275 5175 3650 5050 
L 3500 4900 
Q 4025 4275 4737 3762 
Q 5450 3250 6150 3025 
Q 5775 2775 5675 2600 
Q 5150 2875 4525 3350 
Q 3900 3825 3200 4600 
Q 2625 3950 2012 3437 
Q 1400 2925 700 2475 
Q 550 2750 275 2925 
z
M 4900 425 
Q 4750 -150 4575 -337 
Q 4400 -525 4075 -500 
L 2525 -500 
Q 2050 -500 2012 -187 
Q 1975 125 1975 600 
Q 1975 1100 1950 1400 
L 2450 1400 
Q 2425 1100 2425 650 
Q 2425 200 2462 50 
Q 2500 -100 2800 -125 
L 3900 -125 
Q 4050 -125 4162 -37 
Q 4275 50 4375 650 
Q 4600 500 4900 425 
z
M 3400 1575 
Q 3800 2075 4100 2525 
L 2400 2525 
Q 2175 2525 1700 2475 
L 1700 2925 
Q 2150 2900 2375 2900 
L 4900 2900 
Q 4675 2625 3875 1400 
Q 3700 1500 3400 1575 
z
M 1650 1500 
Q 1400 775 875 -50 
Q 725 50 475 200 
Q 900 675 1225 1675 
Q 1450 1550 1650 1500 
z
M 5000 1575 
Q 5575 950 6000 400 
Q 5750 275 5600 100 
Q 5175 775 4650 1300 
Q 4825 1400 5000 1575 
z
M 3825 925 
Q 3600 750 3425 600 
Q 3050 1225 2575 1625 
Q 2750 1725 2925 1875 
Q 3500 1325 3825 925 
z
M 3150 3975 
Q 3400 3650 3650 3300 
Q 3425 3175 3250 3050 
Q 3025 3450 2775 3750 
Q 3000 3850 3150 3975 
z
" transform="scale(0.015625)"/>
       </defs>
       <use xlink:href="#SimHei-673a"/>
       <use xlink:href="#SimHei-5668" transform="translate(100 0)"/>
       <use xlink:href="#SimHei-4eba" transform="translate(200 0)"/>
       <use xlink:href="#SimHei-6982" transform="translate(300 0)"/>
       <use xlink:href="#SimHei-5ff5" transform="translate(400 0)"/>
      </g>
     </g>
    </g>
    <g id="ytick_2">
     <g id="line2d_13">
      <path d="M 60.7 164.456562 
L 1133.18 164.456562 
" clip-path="url(#p9077d1d48b)" style="fill: none; stroke-dasharray: 2.96,1.28; stroke-dashoffset: 0; stroke: #555555; stroke-opacity: 0.25; stroke-width: 0.8"/>
     </g>
     <g id="line2d_14">
      <g>
       <use xlink:href="#m8bbb68b15f" x="60.7" y="164.456562" style="fill: #cccccc; stroke: #cccccc; stroke-width: 0.8"/>
      </g>
     </g>
     <g id="text_8">
      <!-- 央国企改革 -->
      <g style="fill: #cccccc" transform="translate(7.2 168.48) scale(0.1 -0.1)">
       <defs>
        <path id="SimHei-592e" d="M 2950 4475 
Q 2950 4675 2900 5275 
Q 3225 5200 3525 5200 
Q 3450 4675 3450 4500 
L 3450 4050 
L 5225 4050 
Q 5200 3675 5200 3375 
L 5200 2150 
Q 5600 2150 6075 2175 
L 6075 1725 
Q 5575 1750 5225 1750 
L 3825 1750 
Q 4025 1275 4475 825 
Q 4925 375 5387 175 
Q 5850 -25 6175 -50 
Q 5900 -300 5775 -575 
Q 4825 -275 4200 337 
Q 3575 950 3325 1725 
L 3150 1725 
Q 2875 1000 2387 462 
Q 1900 -75 725 -675 
Q 600 -400 300 -200 
Q 750 -100 1162 125 
Q 1575 350 1987 750 
Q 2400 1150 2650 1750 
L 1075 1750 
Q 725 1750 300 1725 
L 300 2175 
Q 725 2150 1125 2150 
L 1125 3375 
Q 1100 3700 1100 4050 
L 2950 4050 
L 2950 4475 
z
M 4725 2150 
L 4725 3625 
L 3450 3625 
Q 3400 2750 3275 2150 
L 4725 2150 
z
M 2775 2150 
Q 2950 2975 2950 3625 
L 1625 3625 
L 1625 2150 
L 2775 2150 
z
" transform="scale(0.015625)"/>
        <path id="SimHei-56fd" d="M 5775 4975 
Q 5750 4350 5750 3575 
L 5750 900 
Q 5750 125 5775 -625 
L 5275 -625 
L 5275 -275 
L 1125 -275 
L 1125 -650 
L 625 -650 
Q 650 125 650 950 
L 650 3575 
Q 650 4325 625 4975 
L 5775 4975 
z
M 5275 100 
L 5275 4600 
L 1125 4600 
L 1125 100 
L 5275 100 
z
M 3975 3925 
Q 4350 3925 4775 3950 
L 4775 3500 
Q 4400 3525 3975 3525 
L 3350 3525 
L 3350 2700 
L 3800 2700 
Q 4250 2700 4650 2725 
L 4650 2275 
Q 4250 2300 3800 2300 
L 3350 2300 
L 3350 1175 
L 4050 1175 
Q 4500 1175 4900 1200 
L 4900 750 
Q 4525 775 4050 775 
L 2350 775 
Q 1925 775 1500 750 
L 1500 1200 
Q 1925 1175 2350 1175 
L 2900 1175 
L 2900 2300 
L 2550 2300 
Q 2125 2300 1750 2275 
L 1750 2725 
Q 2125 2700 2550 2700 
L 2900 2700 
L 2900 3525 
L 2525 3525 
Q 2075 3525 1650 3500 
L 1650 3950 
Q 2075 3925 2525 3925 
L 3975 3925 
z
M 4050 2125 
Q 4175 2000 4550 1600 
Q 4300 1450 4125 1325 
Q 4050 1425 3700 1850 
Q 3900 2000 4050 2125 
z
" transform="scale(0.015625)"/>
        <path id="SimHei-4f01" d="M 1450 -300 
Q 1300 -300 700 -325 
L 700 150 
Q 1375 125 1350 125 
L 1625 125 
L 1625 1725 
Q 1625 2025 1575 2500 
L 2175 2500 
Q 2125 2025 2125 1725 
L 2125 125 
L 3100 125 
L 3100 2550 
Q 3100 2850 3075 3325 
L 3625 3325 
Q 3600 2875 3600 2075 
L 4375 2075 
Q 4775 2075 5250 2100 
L 5250 1625 
Q 4800 1650 4400 1650 
L 3600 1650 
L 3600 125 
L 5150 125 
Q 5225 125 5675 150 
L 5675 -325 
Q 5225 -300 5125 -300 
L 1450 -300 
z
M 3450 4800 
Q 4275 3525 6150 3000 
Q 5900 2825 5775 2450 
Q 3825 3275 3175 4475 
Q 2325 3225 575 2300 
Q 400 2625 200 2800 
Q 1475 3300 2162 4037 
Q 2850 4775 3000 5225 
Q 3150 5125 3575 4975 
L 3450 4800 
z
" transform="scale(0.015625)"/>
        <path id="SimHei-6539" d="M 4600 900 
Q 4850 575 5337 250 
Q 5825 -75 6175 -200 
Q 6000 -325 5775 -675 
Q 5450 -475 5087 -200 
Q 4725 75 4275 525 
Q 3850 125 3387 -150 
Q 2925 -425 2350 -675 
Q 2250 -450 2000 -225 
Q 2525 -75 3087 225 
Q 3650 525 4025 950 
Q 3825 1250 3600 1675 
Q 3375 2100 3175 2500 
L 3050 2325 
Q 2800 2500 2650 2600 
Q 2900 2900 3237 3562 
Q 3575 4225 3800 5125 
Q 4100 4975 4350 4950 
Q 4200 4700 4075 4387 
Q 3950 4075 3825 3775 
L 5075 3775 
Q 5600 3775 5950 3800 
L 5950 3350 
Q 5700 3375 5300 3375 
Q 5150 1850 4600 900 
z
M 2600 4500 
Q 2575 3925 2575 3350 
Q 2575 2775 2600 2275 
L 1125 2275 
L 1125 325 
Q 2050 825 2500 1175 
Q 2550 875 2650 700 
Q 2175 425 1725 150 
Q 1275 -125 800 -450 
Q 650 -225 450 -25 
Q 675 175 650 500 
L 650 1875 
Q 650 2225 625 2675 
L 2125 2675 
L 2125 4100 
L 1300 4100 
Q 875 4100 425 4075 
L 425 4525 
Q 875 4500 1300 4500 
L 2600 4500 
z
M 3200 2575 
Q 3425 2650 3575 2750 
Q 3750 2325 3950 1937 
Q 4150 1550 4325 1300 
Q 4725 2050 4825 3375 
L 3675 3375 
Q 3450 2975 3200 2575 
z
" transform="scale(0.015625)"/>
        <path id="SimHei-9769" d="M 1775 4550 
Q 1775 4925 1750 5125 
L 2275 5125 
Q 2250 4925 2250 4550 
L 4100 4550 
Q 4100 5000 4075 5175 
L 4625 5175 
Q 4600 4925 4600 4550 
L 5325 4550 
Q 5650 4550 6000 4575 
L 6000 4125 
Q 5650 4150 5325 4150 
L 4600 4150 
Q 4600 3675 4625 3300 
L 3475 3300 
L 3475 2825 
L 5375 2825 
Q 5350 2450 5350 2075 
Q 5350 1700 5375 1375 
L 3475 1375 
L 3475 850 
L 5200 850 
Q 5625 850 6075 875 
L 6075 425 
Q 5625 450 5200 450 
L 3475 450 
L 3475 150 
Q 3475 -200 3500 -625 
L 2975 -625 
Q 3000 -225 3000 150 
L 3000 450 
L 1350 450 
Q 825 450 400 425 
L 400 875 
Q 825 850 1350 850 
L 3000 850 
L 3000 1375 
L 1025 1375 
Q 1050 1700 1050 2025 
Q 1050 2375 1025 2825 
L 3000 2825 
L 3000 3300 
L 1750 3300 
Q 1775 3500 1775 3675 
L 1775 4150 
L 1125 4150 
Q 800 4150 450 4125 
L 450 4575 
Q 800 4550 1125 4550 
L 1775 4550 
z
M 3000 1775 
L 3000 2425 
L 1550 2425 
L 1550 1775 
L 3000 1775 
z
M 4875 1775 
L 4875 2425 
L 3475 2425 
L 3475 1775 
L 4875 1775 
z
M 4100 3675 
L 4100 4150 
L 2250 4150 
L 2250 3675 
L 4100 3675 
z
" transform="scale(0.015625)"/>
       </defs>
       <use xlink:href="#SimHei-592e"/>
       <use xlink:href="#SimHei-56fd" transform="translate(100 0)"/>
       <use xlink:href="#SimHei-4f01" transform="translate(200 0)"/>
       <use xlink:href="#SimHei-6539" transform="translate(300 0)"/>
       <use xlink:href="#SimHei-9769" transform="translate(400 0)"/>
      </g>
     </g>
    </g>
   </g>
   <g id="patch_13">
    <path d="M 60.7 672.4475 
L 60.7 24.575 
" style="fill: none; stroke: #555555; stroke-width: 0.8; stroke-linejoin: miter; stroke-linecap: square"/>
   </g>
   <g id="patch_14">
    <path d="M 60.7 672.4475 
L 1133.18 672.4475 
" style="fill: none; stroke: #555555; stroke-width: 0.8; stroke-linejoin: miter; stroke-linecap: square"/>
   </g>
   <g id="text_9">
    <!-- 2026-07-03 热点概念主升浪分类分布 -->
    <g style="fill: #ffffff" transform="translate(481.44 18.575) scale(0.14 -0.14)">
     <defs>
      <path id="SimHei-36" d="M 250 1612 
Q 275 1975 387 2225 
Q 500 2475 725 2850 
L 1750 4450 
L 2325 4450 
L 1275 2800 
Q 1950 2975 2350 2750 
Q 2750 2525 2887 2237 
Q 3025 1950 3037 1612 
Q 3050 1275 2937 950 
Q 2825 625 2537 362 
Q 2250 100 1737 75 
Q 1225 50 862 262 
Q 500 475 362 862 
Q 225 1250 250 1612 
z
M 1025 787 
Q 1250 550 1625 525 
Q 2000 500 2250 775 
Q 2500 1050 2500 1575 
Q 2500 2100 2187 2300 
Q 1875 2500 1487 2450 
Q 1100 2400 925 2075 
Q 750 1750 775 1387 
Q 800 1025 1025 787 
z
" transform="scale(0.015625)"/>
      <path id="SimHei-37" d="M 850 150 
Q 1300 2050 2425 3925 
L 275 3925 
L 275 4375 
L 2950 4375 
L 2950 3950 
Q 1775 2050 1400 150 
L 850 150 
z
" transform="scale(0.015625)"/>
      <path id="SimHei-33" d="M 250 1225 
L 700 1300 
Q 800 975 1025 762 
Q 1250 550 1587 562 
Q 1925 575 2125 837 
Q 2325 1100 2300 1437 
Q 2275 1775 2037 1962 
Q 1800 2150 1275 2225 
L 1275 2550 
Q 1800 2600 2037 2825 
Q 2275 3050 2250 3412 
Q 2225 3775 1925 3937 
Q 1625 4100 1287 3975 
Q 950 3850 750 3275 
L 300 3350 
Q 450 3800 712 4100 
Q 975 4400 1425 4450 
Q 1875 4500 2212 4337 
Q 2550 4175 2687 3837 
Q 2825 3500 2725 3100 
Q 2625 2700 2150 2400 
Q 2500 2250 2687 1950 
Q 2875 1650 2812 1162 
Q 2750 675 2375 375 
Q 2000 75 1525 87 
Q 1050 100 700 387 
Q 350 675 250 1225 
z
" transform="scale(0.015625)"/>
      <path id="SimHei-20" transform="scale(0.015625)"/>
      <path id="SimHei-70ed" d="M 2350 1175 
Q 3050 1700 3350 2400 
Q 3175 2575 2750 2825 
Q 2900 3025 3000 3200 
Q 3300 3025 3500 2875 
Q 3600 3200 3600 3775 
Q 3300 3775 2875 3725 
L 2850 4125 
Q 3250 4150 3600 4150 
Q 3600 4750 3575 5175 
Q 3750 5100 4125 5075 
Q 4050 4700 4050 4150 
L 5150 4200 
Q 5075 3800 5050 3087 
Q 5025 2375 5175 1975 
Q 5325 1575 5462 1600 
Q 5600 1625 5675 2250 
Q 5900 2100 6150 2050 
Q 5950 1425 5812 1262 
Q 5675 1100 5500 1100 
Q 5325 1100 5075 1287 
Q 4825 1475 4700 2100 
Q 4575 2725 4625 3800 
L 4050 3775 
Q 4025 3175 3875 2600 
Q 4400 2200 4650 2000 
Q 4500 1775 4375 1575 
Q 3950 2025 3725 2150 
Q 3425 1475 2775 850 
Q 2625 1075 2350 1175 
z
M 750 1525 
Q 1275 1500 1350 1550 
Q 1425 1600 1425 1800 
L 1425 2475 
Q 1025 2375 550 2225 
Q 500 2450 375 2725 
Q 750 2750 1425 2900 
L 1425 3725 
Q 925 3725 500 3700 
L 500 4125 
Q 900 4100 1425 4100 
Q 1425 4775 1400 5175 
L 1875 5175 
Q 1850 4850 1850 4100 
Q 2150 4100 2575 4125 
L 2575 3700 
Q 2150 3725 1850 3725 
L 1850 3000 
Q 2200 3075 2575 3175 
L 2575 2775 
Q 2200 2675 1850 2575 
L 1850 1825 
Q 1850 1300 1675 1200 
Q 1500 1100 975 1000 
Q 900 1275 750 1525 
z
M 5525 -550 
Q 5350 -125 4825 775 
Q 5025 850 5225 975 
Q 5775 75 5975 -325 
L 5525 -550 
z
M 1450 575 
Q 1275 350 775 -650 
Q 550 -500 300 -425 
Q 600 0 975 825 
Q 1200 675 1450 575 
z
M 3875 -525 
Q 3675 75 3425 600 
Q 3675 675 3850 775 
Q 4150 150 4350 -350 
Q 4075 -425 3875 -525 
z
M 2400 -575 
Q 2300 -150 2000 500 
Q 2225 575 2425 675 
Q 2775 -100 2850 -425 
Q 2600 -500 2400 -575 
z
" transform="scale(0.015625)"/>
      <path id="SimHei-70b9" d="M 3325 5200 
Q 3300 4925 3300 4375 
L 4900 4375 
Q 5275 4375 5725 4400 
L 5725 3925 
Q 5300 3950 4900 3950 
L 3300 3950 
L 3300 3225 
L 5225 3225 
Q 5200 2700 5200 2150 
Q 5200 1625 5225 1175 
L 1175 1175 
Q 1200 1625 1200 2175 
Q 1200 2725 1175 3225 
L 2775 3225 
L 2775 4500 
Q 2775 4900 2750 5200 
L 3325 5200 
z
M 4700 1600 
L 4700 2800 
L 1725 2800 
L 1725 1600 
L 4700 1600 
z
M 1500 750 
Q 1025 -250 825 -625 
Q 625 -475 325 -375 
Q 650 50 950 925 
Q 1200 800 1500 750 
z
M 5325 850 
Q 5775 150 6075 -350 
Q 5925 -425 5575 -625 
Q 5375 -150 4900 575 
Q 5150 700 5325 850 
z
M 3975 -575 
Q 3775 -100 3400 575 
Q 3575 675 3825 825 
Q 4350 -75 4450 -325 
Q 4200 -450 3975 -575 
z
M 2375 -575 
Q 2350 -300 1975 550 
Q 2200 625 2425 775 
Q 2800 -75 2900 -350 
Q 2625 -450 2375 -575 
z
" transform="scale(0.015625)"/>
      <path id="SimHei-5206" d="M 1000 -650 
Q 825 -375 575 -225 
Q 975 -75 1300 137 
Q 1625 350 1875 662 
Q 2125 975 2250 1350 
Q 2375 1725 2425 2275 
Q 1850 2275 1500 2250 
L 1500 2775 
Q 1900 2750 2525 2750 
L 5025 2750 
Q 4975 2375 4950 2100 
L 4750 250 
Q 4700 -200 4350 -350 
Q 4000 -500 3575 -525 
Q 3550 -275 3325 50 
Q 3850 25 4037 87 
Q 4225 150 4275 525 
L 4450 2275 
L 2950 2275 
Q 2875 1625 2737 1187 
Q 2600 750 2350 425 
Q 2100 100 1750 -175 
Q 1400 -450 1000 -650 
z
M 3950 5175 
Q 4125 4650 4662 3975 
Q 5200 3300 6175 2800 
Q 5975 2625 5775 2275 
Q 5325 2600 4987 2887 
Q 4650 3175 4425 3425 
Q 4200 3675 3925 4137 
Q 3650 4600 3475 5000 
Q 3750 5075 3950 5175 
z
M 2700 4825 
Q 2475 4425 2325 4125 
Q 2175 3825 2025 3587 
Q 1875 3350 1575 2950 
Q 1275 2550 850 2125 
Q 625 2350 400 2475 
Q 900 2925 1187 3300 
Q 1475 3675 1737 4112 
Q 2000 4550 2200 5075 
Q 2400 4925 2700 4825 
z
" transform="scale(0.015625)"/>
      <path id="SimHei-7c7b" d="M 2125 3875 
Q 1750 4375 1325 4725 
Q 1525 4875 1675 5050 
L 2525 4225 
Q 2400 4125 2200 3875 
L 3025 3875 
L 3025 4550 
Q 3025 4900 3000 5125 
L 3525 5125 
Q 3500 4850 3500 4550 
L 3500 3875 
L 4325 3875 
Q 4125 4050 4000 4150 
Q 4450 4575 4800 5175 
Q 5000 5000 5275 4825 
Q 5100 4675 4912 4475 
Q 4725 4275 4400 3875 
L 5025 3875 
Q 5425 3875 5900 3900 
L 5900 3450 
Q 5425 3475 5025 3475 
L 3500 3475 
L 3500 3050 
Q 3500 2650 3525 2175 
L 3175 2175 
Q 3475 2075 3675 2000 
Q 3575 1875 3525 1575 
L 5025 1575 
Q 5525 1575 6025 1600 
L 6025 1150 
Q 5550 1175 5050 1175 
L 3675 1175 
Q 4050 600 4712 275 
Q 5375 -50 6050 -175 
Q 5850 -350 5725 -675 
Q 4975 -450 4350 -37 
Q 3725 375 3300 950 
Q 3050 350 2425 -50 
Q 1800 -450 775 -700 
Q 650 -425 475 -225 
Q 1375 -100 2012 225 
Q 2650 550 2900 1175 
L 1625 1175 
Q 1025 1175 525 1150 
L 525 1600 
Q 950 1575 1600 1575 
L 3025 1575 
Q 3075 1825 3100 2175 
L 3000 2175 
Q 3025 2675 3025 3050 
L 3025 3325 
Q 2725 2900 2237 2550 
Q 1750 2200 925 1825 
Q 850 2025 625 2275 
Q 1175 2400 1725 2737 
Q 2275 3075 2600 3475 
L 1550 3475 
Q 1050 3475 600 3425 
L 600 3900 
Q 1075 3875 1550 3875 
L 2125 3875 
z
M 4100 3450 
Q 4850 3000 5800 2350 
Q 5575 2125 5425 1925 
Q 4700 2550 3825 3075 
Q 3975 3250 4100 3450 
z
" transform="scale(0.015625)"/>
      <path id="SimHei-5e03" d="M 2375 4225 
Q 2650 4775 2775 5300 
Q 3125 5175 3400 5075 
Q 3275 4975 2950 4225 
L 4800 4225 
Q 5550 4225 6025 4250 
L 6025 3800 
L 2725 3800 
Q 2325 3100 1975 2675 
L 3275 2675 
Q 3275 3225 3250 3575 
L 3775 3575 
Q 3750 3225 3750 2675 
L 5500 2675 
Q 5475 2225 5475 1775 
L 5475 750 
Q 5475 275 5212 150 
Q 4950 25 4450 -25 
Q 4400 325 4225 550 
Q 4800 550 4912 625 
Q 5025 700 5000 1025 
L 5000 2250 
L 3750 2250 
L 3750 550 
Q 3750 25 3775 -600 
L 3250 -600 
Q 3275 25 3275 550 
L 3275 2250 
L 2100 2250 
L 2100 0 
L 1600 0 
Q 1625 525 1625 1025 
L 1625 2225 
Q 1300 1850 650 1275 
Q 475 1475 200 1650 
Q 750 2025 1262 2562 
Q 1775 3100 2150 3800 
L 1550 3800 
Q 925 3800 400 3775 
L 400 4250 
Q 925 4225 1550 4225 
L 2375 4225 
z
" transform="scale(0.015625)"/>
     </defs>
     <use xlink:href="#SimHei-32"/>
     <use xlink:href="#SimHei-30" transform="translate(50 0)"/>
     <use xlink:href="#SimHei-32" transform="translate(100 0)"/>
     <use xlink:href="#SimHei-36" transform="translate(150 0)"/>
     <use xlink:href="#SimHei-2d" transform="translate(200 0)"/>
     <use xlink:href="#SimHei-30" transform="translate(250 0)"/>
     <use xlink:href="#SimHei-37" transform="translate(300 0)"/>
     <use xlink:href="#SimHei-2d" transform="translate(350 0)"/>
     <use xlink:href="#SimHei-30" transform="translate(400 0)"/>
     <use xlink:href="#SimHei-33" transform="translate(450 0)"/>
     <use xlink:href="#SimHei-20" transform="translate(500 0)"/>
     <use xlink:href="#SimHei-70ed" transform="translate(550 0)"/>
     <use xlink:href="#SimHei-70b9" transform="translate(650 0)"/>
     <use xlink:href="#SimHei-6982" transform="translate(750 0)"/>
     <use xlink:href="#SimHei-5ff5" transform="translate(850 0)"/>
     <use xlink:href="#SimHei-4e3b" transform="translate(950 0)"/>
     <use xlink:href="#SimHei-5347" transform="translate(1050 0)"/>
     <use xlink:href="#SimHei-6d6a" transform="translate(1150 0)"/>
     <use xlink:href="#SimHei-5206" transform="translate(1250 0)"/>
     <use xlink:href="#SimHei-7c7b" transform="translate(1350 0)"/>
     <use xlink:href="#SimHei-5206" transform="translate(1450 0)"/>
     <use xlink:href="#SimHei-5e03" transform="translate(1550 0)"/>
    </g>
   </g>
   <g id="legend_1">
    <g id="patch_15">
     <path d="M 1044.18 667.4475 
L 1126.18 667.4475 
Q 1128.18 667.4475 1128.18 665.4475 
L 1128.18 595.158437 
Q 1128.18 593.158437 1126.18 593.158437 
L 1044.18 593.158437 
Q 1042.18 593.158437 1042.18 595.158437 
L 1042.18 665.4475 
Q 1042.18 667.4475 1044.18 667.4475 
z
" style="fill: #2d2d2d; opacity: 0.85; stroke: #cccccc; stroke-linejoin: miter"/>
    </g>
    <g id="patch_16">
     <path d="M 1046.18 605.16625 
L 1066.18 605.16625 
L 1066.18 598.16625 
L 1046.18 598.16625 
z
" style="fill: #ff0000; opacity: 0.8"/>
    </g>
    <g id="text_10">
     <!-- 超强主升浪 -->
     <g style="fill: #cccccc" transform="translate(1074.18 605.16625) scale(0.1 -0.1)">
      <defs>
       <path id="SimHei-8d85" d="M 1750 2700 
Q 950 2700 475 2675 
L 475 3125 
Q 950 3100 1625 3100 
L 1625 3900 
Q 1075 3900 625 3875 
L 625 4350 
Q 1075 4325 1625 4325 
Q 1625 4750 1600 5200 
L 2100 5200 
Q 2075 4800 2075 4325 
Q 2500 4325 2925 4350 
L 2925 3875 
Q 2525 3900 2075 3900 
L 2075 3100 
Q 2550 3100 3075 3125 
L 3075 2900 
Q 3500 3150 3725 3575 
Q 3950 4000 3975 4450 
Q 3600 4450 3225 4425 
L 3225 4875 
Q 3600 4850 3900 4850 
L 5850 4850 
Q 5800 4525 5800 4200 
L 5750 3325 
Q 5725 2900 5462 2762 
Q 5200 2625 4725 2550 
Q 4675 2825 4525 3075 
Q 4925 3075 5087 3125 
Q 5250 3175 5275 3400 
L 5325 4450 
L 4475 4450 
Q 4375 3725 4112 3262 
Q 3850 2800 3450 2500 
Q 3350 2600 3075 2800 
L 3075 2675 
Q 2550 2700 2200 2700 
L 2200 1850 
Q 2525 1850 3000 1875 
L 3000 1400 
Q 2550 1425 2200 1425 
L 2200 300 
Q 2825 25 3925 0 
Q 5025 -25 6175 100 
Q 5950 -225 5925 -500 
Q 4925 -525 4250 -525 
Q 3575 -525 3025 -437 
Q 2475 -350 2000 -125 
Q 1525 100 1075 625 
Q 950 75 675 -475 
Q 425 -275 200 -175 
Q 475 225 575 637 
Q 675 1050 712 1387 
Q 750 1725 750 2200 
L 1350 2100 
Q 1225 1750 1175 1100 
Q 1400 800 1750 550 
L 1750 2700 
z
M 5800 2400 
Q 5775 1900 5775 1375 
Q 5775 850 5800 450 
L 3500 450 
Q 3525 775 3525 1325 
Q 3525 1900 3500 2400 
L 5800 2400 
z
M 5325 875 
L 5325 1975 
L 3975 1975 
L 3975 875 
L 5325 875 
z
" transform="scale(0.015625)"/>
       <path id="SimHei-5f3a" d="M 2350 25 
Q 3100 75 3950 225 
L 3950 1200 
L 3100 1200 
L 3100 975 
L 2625 975 
Q 2650 1725 2650 2050 
L 2650 2875 
L 3950 2875 
L 3950 3500 
L 2850 3500 
Q 2875 3900 2875 4275 
Q 2875 4675 2850 5025 
L 5525 5025 
Q 5500 4675 5500 4275 
Q 5500 3900 5525 3500 
L 4400 3500 
L 4400 2875 
L 5750 2875 
Q 5725 2575 5725 2075 
Q 5725 1575 5750 1200 
L 4400 1200 
L 4400 275 
L 5250 425 
Q 5150 575 5050 750 
Q 5300 825 5475 925 
Q 5925 200 6175 -250 
Q 5925 -350 5725 -500 
Q 5625 -250 5425 100 
Q 5125 50 4225 -137 
Q 3325 -325 2600 -525 
Q 2525 -200 2350 25 
z
M 600 -25 
Q 1250 -25 1400 50 
Q 1550 125 1575 325 
L 1675 1850 
L 500 1850 
Q 550 2350 562 2762 
Q 575 3175 575 3575 
L 1800 3575 
L 1800 4550 
L 1275 4550 
Q 825 4550 425 4525 
L 425 4950 
Q 850 4925 1275 4925 
L 2275 4925 
Q 2250 4525 2250 4075 
Q 2250 3650 2275 3200 
L 1075 3200 
L 1025 2225 
L 2175 2225 
Q 2125 1775 2100 1425 
L 2025 150 
Q 1975 -250 1637 -387 
Q 1300 -525 850 -600 
Q 775 -275 600 -25 
z
M 5050 3875 
L 5050 4650 
L 3325 4650 
L 3325 3875 
L 5050 3875 
z
M 3950 1575 
L 3950 2500 
L 3100 2500 
L 3100 1575 
L 3950 1575 
z
M 5250 1575 
L 5250 2500 
L 4400 2500 
L 4400 1575 
L 5250 1575 
z
" transform="scale(0.015625)"/>
      </defs>
      <use xlink:href="#SimHei-8d85"/>
      <use xlink:href="#SimHei-5f3a" transform="translate(100 0)"/>
      <use xlink:href="#SimHei-4e3b" transform="translate(200 0)"/>
      <use xlink:href="#SimHei-5347" transform="translate(300 0)"/>
      <use xlink:href="#SimHei-6d6a" transform="translate(400 0)"/>
     </g>
    </g>
    <g id="patch_17">
     <path d="M 1046.18 619.424062 
L 1066.18 619.424062 
L 1066.18 612.424062 
L 1046.18 612.424062 
z
" style="fill: #ff6b6b; opacity: 0.8"/>
    </g>
    <g id="text_11">
     <!-- 强主升浪 -->
     <g style="fill: #cccccc" transform="translate(1074.18 619.424062) scale(0.1 -0.1)">
      <use xlink:href="#SimHei-5f3a"/>
      <use xlink:href="#SimHei-4e3b" transform="translate(100 0)"/>
      <use xlink:href="#SimHei-5347" transform="translate(200 0)"/>
      <use xlink:href="#SimHei-6d6a" transform="translate(300 0)"/>
     </g>
    </g>
    <g id="patch_18">
     <path d="M 1046.18 633.681875 
L 1066.18 633.681875 
L 1066.18 626.681875 
L 1046.18 626.681875 
z
" style="fill: #ff9f1c; opacity: 0.8"/>
    </g>
    <g id="text_12">
     <!-- 中主升浪 -->
     <g style="fill: #cccccc" transform="translate(1074.18 633.681875) scale(0.1 -0.1)">
      <defs>
       <path id="SimHei-4e2d" d="M 3475 5200 
Q 3450 4500 3450 3875 
L 5625 3875 
Q 5600 3375 5600 2500 
Q 5600 1650 5625 1225 
L 5075 1225 
L 5075 1600 
L 3450 1600 
L 3450 525 
Q 3450 225 3475 -600 
L 2875 -600 
Q 2925 -150 2925 450 
L 2925 1600 
L 1300 1600 
L 1300 1225 
L 750 1225 
Q 775 1600 775 2500 
Q 775 3425 750 3875 
L 2925 3875 
Q 2925 4550 2900 5200 
L 3475 5200 
z
M 5075 2000 
L 5075 3475 
L 3450 3475 
L 3450 2000 
L 5075 2000 
z
M 2925 2000 
L 2925 3475 
L 1300 3475 
L 1300 2000 
L 2925 2000 
z
" transform="scale(0.015625)"/>
      </defs>
      <use xlink:href="#SimHei-4e2d"/>
      <use xlink:href="#SimHei-4e3b" transform="translate(100 0)"/>
      <use xlink:href="#SimHei-5347" transform="translate(200 0)"/>
      <use xlink:href="#SimHei-6d6a" transform="translate(300 0)"/>
     </g>
    </g>
    <g id="patch_19">
     <path d="M 1046.18 647.939687 
L 1066.18 647.939687 
L 1066.18 640.939687 
L 1046.18 640.939687 
z
" style="fill: #4ecdc4; opacity: 0.8"/>
    </g>
    <g id="text_13">
     <!-- 弱主升浪 -->
     <g style="fill: #cccccc" transform="translate(1074.18 647.939687) scale(0.1 -0.1)">
      <defs>
       <path id="SimHei-5f31" d="M 4475 -100 
Q 4975 -75 5112 -25 
Q 5250 25 5262 137 
Q 5275 250 5300 1025 
Q 4100 600 3475 275 
Q 3425 525 3200 775 
Q 3675 875 4187 1050 
Q 4700 1225 5300 1450 
L 5300 2325 
L 3475 2325 
Q 3500 2775 3525 3137 
Q 3550 3500 3550 3875 
L 5300 3875 
L 5300 4600 
L 4325 4600 
Q 3975 4600 3450 4575 
L 3450 5000 
Q 3975 4975 4325 4975 
L 5750 4975 
Q 5725 4625 5725 4225 
Q 5725 3850 5750 3450 
L 4000 3450 
L 3950 2700 
L 5800 2700 
Q 5750 2150 5725 1187 
Q 5700 225 5675 -12 
Q 5650 -250 5475 -387 
Q 5300 -525 4675 -625 
Q 4650 -325 4475 -100 
z
M 1650 -100 
Q 2225 -75 2350 12 
Q 2475 100 2475 950 
Q 1250 450 750 150 
Q 625 425 450 600 
Q 850 750 1300 912 
Q 1750 1075 2475 1400 
L 2475 2325 
L 750 2325 
Q 800 2875 812 3200 
Q 825 3525 875 3875 
L 2475 3875 
L 2475 4600 
L 1600 4600 
Q 1075 4600 750 4550 
L 750 5000 
Q 1075 4975 1550 4975 
L 2950 4975 
Q 2925 4625 2925 4225 
Q 2925 3850 2950 3450 
L 1275 3450 
L 1225 2700 
L 2950 2700 
Q 2925 2125 2912 1100 
Q 2900 75 2850 -100 
Q 2800 -275 2612 -375 
Q 2425 -475 1875 -625 
Q 1800 -350 1650 -100 
z
M 3600 1925 
Q 3800 2025 3975 2175 
Q 4250 1850 4600 1425 
Q 4375 1350 4200 1175 
Q 3925 1650 3600 1925 
z
M 1200 2175 
Q 1475 1900 1825 1475 
Q 1650 1350 1500 1200 
Q 1125 1650 900 1900 
Q 1075 2050 1200 2175 
z
" transform="scale(0.015625)"/>
      </defs>
      <use xlink:href="#SimHei-5f31"/>
      <use xlink:href="#SimHei-4e3b" transform="translate(100 0)"/>
      <use xlink:href="#SimHei-5347" transform="translate(200 0)"/>
      <use xlink:href="#SimHei-6d6a" transform="translate(300 0)"/>
     </g>
    </g>
    <g id="patch_20">
     <path d="M 1046.18 662.1975 
L 1066.18 662.1975 
L 1066.18 655.1975 
L 1046.18 655.1975 
z
" style="fill: #95e1d3; opacity: 0.8"/>
    </g>
    <g id="text_14">
     <!-- 微升浪 -->
     <g style="fill: #cccccc" transform="translate(1074.18 662.1975) scale(0.1 -0.1)">
      <defs>
       <path id="SimHei-5fae" d="M 4050 2075 
Q 3850 2250 3675 2300 
Q 4050 3025 4262 3837 
Q 4475 4650 4500 5175 
Q 4775 5075 5025 5050 
Q 4875 4700 4725 3850 
L 5525 3850 
Q 5800 3850 6050 3875 
L 6050 3475 
Q 5675 3500 5600 3500 
Q 5600 2800 5525 2162 
Q 5450 1525 5100 775 
Q 5225 525 5487 312 
Q 5750 100 6125 -75 
Q 5825 -275 5800 -525 
Q 5175 -150 4800 400 
Q 4275 -175 3625 -600 
Q 3450 -400 3150 -225 
Q 3675 0 3975 225 
Q 4275 450 4550 800 
Q 4275 1475 4200 2450 
L 4050 2075 
z
M 1875 3550 
Q 1650 3375 1375 2875 
L 1375 475 
Q 1375 25 1400 -550 
L 950 -550 
Q 975 25 975 475 
L 975 2300 
Q 750 2000 550 1700 
Q 425 1950 275 2100 
Q 575 2400 925 2900 
Q 1275 3400 1475 3925 
Q 1650 3650 1875 3550 
z
M 3450 1975 
Q 3425 1500 3425 725 
Q 3650 900 3850 1125 
L 4050 725 
Q 3875 625 3637 425 
Q 3400 225 3175 0 
L 2925 375 
Q 3050 475 3050 700 
L 3050 1650 
L 2500 1650 
Q 2500 1100 2412 662 
Q 2325 225 2000 -275 
Q 1825 -75 1600 25 
Q 1975 450 2037 1037 
Q 2100 1625 2075 1975 
L 3450 1975 
z
M 2350 4600 
Q 2325 4175 2325 3575 
L 2700 3575 
Q 2700 4575 2675 5100 
L 3100 5100 
Q 3075 4600 3075 3575 
L 3500 3575 
Q 3500 4075 3475 4600 
L 3875 4600 
Q 3850 4325 3850 3925 
Q 3850 3550 3875 3250 
L 1900 3250 
Q 1925 3600 1925 3925 
Q 1925 4250 1900 4600 
L 2350 4600 
z
M 4525 2825 
Q 4625 1775 4850 1200 
Q 5050 1700 5112 2212 
Q 5175 2725 5200 3500 
L 4625 3500 
Q 4525 3175 4350 2775 
L 4525 2825 
z
M 1700 4850 
Q 1275 4300 675 3625 
Q 525 3800 300 3925 
Q 1025 4575 1300 5150 
Q 1450 5000 1700 4850 
z
M 3700 2475 
Q 3325 2500 2750 2500 
Q 2175 2500 1800 2475 
L 1800 2850 
Q 2175 2825 2750 2825 
Q 3325 2825 3700 2850 
L 3700 2475 
z
" transform="scale(0.015625)"/>
      </defs>
      <use xlink:href="#SimHei-5fae"/>
      <use xlink:href="#SimHei-5347" transform="translate(100 0)"/>
      <use xlink:href="#SimHei-6d6a" transform="translate(200 0)"/>
     </g>
    </g>
   </g>
  </g>
 </g>
 <defs>
  <clipPath id="p9077d1d48b">
   <rect x="60.7" y="24.575" width="1072.48" height="647.8725"/>
  </clipPath>
 </defs>
</svg>
