<?xml version="1.0" encoding="utf-8" standalone="no"?>
<!DOCTYPE svg PUBLIC "-//W3C//DTD SVG 1.1//EN"
  "http://www.w3.org/Graphics/SVG/1.1/DTD/svg11.dtd">
<svg xmlns:xlink="http://www.w3.org/1999/xlink" width="1139.41934pt" height="563.41934pt" viewBox="0 0 1139.41934 563.41934" xmlns="http://www.w3.org/2000/svg" version="1.1">
 <metadata>
  <rdf:RDF xmlns:dc="http://purl.org/dc/elements/1.1/" xmlns:cc="http://creativecommons.org/ns#" xmlns:rdf="http://www.w3.org/1999/02/22-rdf-syntax-ns#">
   <cc:Work>
    <dc:type rdf:resource="http://purl.org/dc/dcmitype/StillImage"/>
    <dc:date>2026-07-08T16:43:14.053061</dc:date>
    <dc:format>image/svg+xml</dc:format>
    <dc:creator>
     <cc:Agent>
      <dc:title>Matplotlib v3.11.0, https://matplotlib.org/</dc:title>
     </cc:Agent>
    </dc:creator>
   </cc:Work>
  </rdf:RDF>
 </metadata>
 <defs>
  <style type="text/css">*{stroke-linejoin: round; stroke-linecap: butt}</style>
 </defs>
 <g id="figure_1">
  <g id="patch_1">
   <path d="M 0 563.41934 
L 1139.41934 563.41934 
L 1139.41934 0 
L 0 0 
z
" style="fill: #1a1a1a"/>
  </g>
  <g id="axes_1">
   <g id="patch_2">
    <path d="M 18.336932 530.445476 
L 1121.082408 530.445476 
L 1121.082408 25.23125 
L 18.336932 25.23125 
z
"/>
   </g>
   <g id="matplotlib.axis_1">
    <g id="xtick_1">
     <g id="line2d_1">
      <path d="M 18.336932 530.445476 
L 18.336932 25.23125 
" clip-path="url(#p352d446ee4)" style="fill: none; stroke-dasharray: 2.96,1.28; stroke-dashoffset: 0; stroke: #ffffff; stroke-opacity: 0.2; stroke-width: 0.8"/>
     </g>
     <g id="line2d_2">
      <defs>
       <path id="m156910b49f" d="M 0 0 
L 0 -3.5 
" style="stroke: #ffffff; stroke-width: 0.8"/>
      </defs>
      <g>
       <use xlink:href="#m156910b49f" x="18.336932" y="530.445476" style="fill: #ffffff; stroke: #ffffff; stroke-width: 0.8"/>
      </g>
     </g>
     <g id="text_1">
      <!-- 06-24 -->
      <g style="fill: #ffffff" transform="translate(12.669029 555.324408) rotate(-45) scale(0.09 -0.09)">
       <defs>
        <path id="SimHei-13" d="M 225 2537 
Q 250 3200 412 3587 
Q 575 3975 875 4225 
Q 1175 4475 1612 4475 
Q 2050 4475 2375 4112 
Q 2700 3750 2800 3200 
Q 2900 2650 2862 1937 
Q 2825 1225 2612 775 
Q 2400 325 1975 150 
Q 1550 -25 1125 187 
Q 700 400 525 750 
Q 350 1100 275 1487 
Q 200 1875 225 2537 
z
M 750 2687 
Q 675 2000 800 1462 
Q 925 925 1212 700 
Q 1500 475 1800 612 
Q 2100 750 2237 1162 
Q 2375 1575 2375 2062 
Q 2375 2550 2337 2950 
Q 2300 3350 2112 3675 
Q 1925 4000 1612 4012 
Q 1300 4025 1062 3700 
Q 825 3375 750 2687 
z
" transform="scale(0.015625)"/>
        <path id="SimHei-19" d="M 250 1612 
Q 275 1975 387 2225 
Q 500 2475 725 2850 
L 1750 4450 
L 2325 4450 
L 1275 2800 
Q 1950 2975 2350 2750 
Q 2750 2525 2887 2237 
Q 3025 1950 3037 1612 
Q 3050 1275 2937 950 
Q 2825 625 2537 362 
Q 2250 100 1737 75 
Q 1225 50 862 262 
Q 500 475 362 862 
Q 225 1250 250 1612 
z
M 1025 787 
Q 1250 550 1625 525 
Q 2000 500 2250 775 
Q 2500 1050 2500 1575 
Q 2500 2100 2187 2300 
Q 1875 2500 1487 2450 
Q 1100 2400 925 2075 
Q 750 1750 775 1387 
Q 800 1025 1025 787 
z
" transform="scale(0.015625)"/>
        <path id="SimHei-10" d="M 2975 2125 
L 125 2125 
L 125 2525 
L 2975 2525 
L 2975 2125 
z
" transform="scale(0.015625)"/>
        <path id="SimHei-15" d="M 300 250 
Q 325 625 650 925 
Q 975 1225 1475 1862 
Q 1975 2500 2125 2850 
Q 2275 3200 2237 3450 
Q 2200 3700 2000 3862 
Q 1800 4025 1537 4000 
Q 1275 3975 1037 3800 
Q 800 3625 675 3275 
L 200 3350 
Q 400 3925 712 4187 
Q 1025 4450 1450 4475 
Q 1700 4500 1900 4462 
Q 2100 4425 2312 4287 
Q 2525 4150 2662 3875 
Q 2800 3600 2762 3212 
Q 2725 2825 2375 2287 
Q 2025 1750 1025 600 
L 2825 600 
L 2825 150 
L 300 150 
L 300 250 
z
" transform="scale(0.015625)"/>
        <path id="SimHei-17" d="M 2000 1100 
L 75 1100 
L 75 1525 
L 2100 4450 
L 2475 4450 
L 2475 1525 
L 3075 1525 
L 3075 1100 
L 2475 1100 
L 2475 150 
L 2000 150 
L 2000 1100 
z
M 2000 1525 
L 2000 3500 
L 600 1525 
L 2000 1525 
z
" transform="scale(0.015625)"/>
       </defs>
       <use xlink:href="#SimHei-13"/>
       <use xlink:href="#SimHei-19" transform="translate(50 0)"/>
       <use xlink:href="#SimHei-10" transform="translate(100 0)"/>
       <use xlink:href="#SimHei-15" transform="translate(150 0)"/>
       <use xlink:href="#SimHei-17" transform="translate(200 0)"/>
      </g>
     </g>
    </g>
    <g id="xtick_2">
     <g id="line2d_3">
      <path d="M 140.864207 530.445476 
L 140.864207 25.23125 
" clip-path="url(#p352d446ee4)" style="fill: none; stroke-dasharray: 2.96,1.28; stroke-dashoffset: 0; stroke: #ffffff; stroke-opacity: 0.2; stroke-width: 0.8"/>
     </g>
     <g id="line2d_4">
      <g>
       <use xlink:href="#m156910b49f" x="140.864207" y="530.445476" style="fill: #ffffff; stroke: #ffffff; stroke-width: 0.8"/>
      </g>
     </g>
     <g id="text_2">
      <!-- 06-25 -->
      <g style="fill: #ffffff" transform="translate(135.196304 555.324408) rotate(-45) scale(0.09 -0.09)">
       <defs>
        <path id="SimHei-18" d="M 550 1325 
Q 725 650 1150 575 
Q 1575 500 1837 662 
Q 2100 825 2212 1087 
Q 2325 1350 2312 1675 
Q 2300 2000 2137 2225 
Q 1975 2450 1725 2525 
Q 1475 2600 1162 2525 
Q 850 2450 650 2175 
L 225 2225 
Q 275 2375 700 4375 
L 2675 4375 
L 2675 3925 
L 1075 3925 
Q 950 3250 825 2850 
Q 1200 3025 1525 3012 
Q 1850 3000 2150 2862 
Q 2450 2725 2587 2487 
Q 2725 2250 2787 2012 
Q 2850 1775 2837 1500 
Q 2825 1225 2725 937 
Q 2625 650 2425 462 
Q 2225 275 1937 162 
Q 1650 50 1275 75 
Q 900 100 562 350 
Q 225 600 100 1200 
L 550 1325 
z
" transform="scale(0.015625)"/>
       </defs>
       <use xlink:href="#SimHei-13"/>
       <use xlink:href="#SimHei-19" transform="translate(50 0)"/>
       <use xlink:href="#SimHei-10" transform="translate(100 0)"/>
       <use xlink:href="#SimHei-15" transform="translate(150 0)"/>
       <use xlink:href="#SimHei-18" transform="translate(200 0)"/>
      </g>
     </g>
    </g>
    <g id="xtick_3">
     <g id="line2d_5">
      <path d="M 263.391482 530.445476 
L 263.391482 25.23125 
" clip-path="url(#p352d446ee4)" style="fill: none; stroke-dasharray: 2.96,1.28; stroke-dashoffset: 0; stroke: #ffffff; stroke-opacity: 0.2; stroke-width: 0.8"/>
     </g>
     <g id="line2d_6">
      <g>
       <use xlink:href="#m156910b49f" x="263.391482" y="530.445476" style="fill: #ffffff; stroke: #ffffff; stroke-width: 0.8"/>
      </g>
     </g>
     <g id="text_3">
      <!-- 06-26 -->
      <g style="fill: #ffffff" transform="translate(257.723579 555.324408) rotate(-45) scale(0.09 -0.09)">
       <use xlink:href="#SimHei-13"/>
       <use xlink:href="#SimHei-19" transform="translate(50 0)"/>
       <use xlink:href="#SimHei-10" transform="translate(100 0)"/>
       <use xlink:href="#SimHei-15" transform="translate(150 0)"/>
       <use xlink:href="#SimHei-19" transform="translate(200 0)"/>
      </g>
     </g>
    </g>
    <g id="xtick_4">
     <g id="line2d_7">
      <path d="M 385.918757 530.445476 
L 385.918757 25.23125 
" clip-path="url(#p352d446ee4)" style="fill: none; stroke-dasharray: 2.96,1.28; stroke-dashoffset: 0; stroke: #ffffff; stroke-opacity: 0.2; stroke-width: 0.8"/>
     </g>
     <g id="line2d_8">
      <g>
       <use xlink:href="#m156910b49f" x="385.918757" y="530.445476" style="fill: #ffffff; stroke: #ffffff; stroke-width: 0.8"/>
      </g>
     </g>
     <g id="text_4">
      <!-- 06-29 -->
      <g style="fill: #ffffff" transform="translate(380.250854 555.324408) rotate(-45) scale(0.09 -0.09)">
       <defs>
        <path id="SimHei-1c" d="M 800 75 
Q 1350 1000 1700 1750 
Q 1075 1650 662 1912 
Q 250 2175 162 2625 
Q 75 3075 175 3437 
Q 275 3800 487 4037 
Q 700 4275 1000 4375 
Q 1300 4475 1537 4475 
Q 1775 4475 2025 4375 
Q 2275 4275 2475 4075 
Q 2675 3875 2750 3662 
Q 2825 3450 2825 3112 
Q 2825 2775 2575 2250 
Q 2325 1725 1350 75 
L 800 75 
z
M 662 2875 
Q 700 2550 937 2337 
Q 1175 2125 1450 2150 
Q 1725 2175 1887 2300 
Q 2050 2425 2200 2725 
Q 2300 3100 2250 3362 
Q 2200 3625 1987 3800 
Q 1775 3975 1525 3975 
Q 1375 4000 1137 3900 
Q 900 3800 762 3500 
Q 625 3200 662 2875 
z
" transform="scale(0.015625)"/>
       </defs>
       <use xlink:href="#SimHei-13"/>
       <use xlink:href="#SimHei-19" transform="translate(50 0)"/>
       <use xlink:href="#SimHei-10" transform="translate(100 0)"/>
       <use xlink:href="#SimHei-15" transform="translate(150 0)"/>
       <use xlink:href="#SimHei-1c" transform="translate(200 0)"/>
      </g>
     </g>
    </g>
    <g id="xtick_5">
     <g id="line2d_9">
      <path d="M 508.446032 530.445476 
L 508.446032 25.23125 
" clip-path="url(#p352d446ee4)" style="fill: none; stroke-dasharray: 2.96,1.28; stroke-dashoffset: 0; stroke: #ffffff; stroke-opacity: 0.2; stroke-width: 0.8"/>
     </g>
     <g id="line2d_10">
      <g>
       <use xlink:href="#m156910b49f" x="508.446032" y="530.445476" style="fill: #ffffff; stroke: #ffffff; stroke-width: 0.8"/>
      </g>
     </g>
     <g id="text_5">
      <!-- 06-30 -->
      <g style="fill: #ffffff" transform="translate(502.77813 555.324408) rotate(-45) scale(0.09 -0.09)">
       <defs>
        <path id="SimHei-16" d="M 250 1225 
L 700 1300 
Q 800 975 1025 762 
Q 1250 550 1587 562 
Q 1925 575 2125 837 
Q 2325 1100 2300 1437 
Q 2275 1775 2037 1962 
Q 1800 2150 1275 2225 
L 1275 2550 
Q 1800 2600 2037 2825 
Q 2275 3050 2250 3412 
Q 2225 3775 1925 3937 
Q 1625 4100 1287 3975 
Q 950 3850 750 3275 
L 300 3350 
Q 450 3800 712 4100 
Q 975 4400 1425 4450 
Q 1875 4500 2212 4337 
Q 2550 4175 2687 3837 
Q 2825 3500 2725 3100 
Q 2625 2700 2150 2400 
Q 2500 2250 2687 1950 
Q 2875 1650 2812 1162 
Q 2750 675 2375 375 
Q 2000 75 1525 87 
Q 1050 100 700 387 
Q 350 675 250 1225 
z
" transform="scale(0.015625)"/>
       </defs>
       <use xlink:href="#SimHei-13"/>
       <use xlink:href="#SimHei-19" transform="translate(50 0)"/>
       <use xlink:href="#SimHei-10" transform="translate(100 0)"/>
       <use xlink:href="#SimHei-16" transform="translate(150 0)"/>
       <use xlink:href="#SimHei-13" transform="translate(200 0)"/>
      </g>
     </g>
    </g>
    <g id="xtick_6">
     <g id="line2d_11">
      <path d="M 630.973307 530.445476 
L 630.973307 25.23125 
" clip-path="url(#p352d446ee4)" style="fill: none; stroke-dasharray: 2.96,1.28; stroke-dashoffset: 0; stroke: #ffffff; stroke-opacity: 0.2; stroke-width: 0.8"/>
     </g>
     <g id="line2d_12">
      <g>
       <use xlink:href="#m156910b49f" x="630.973307" y="530.445476" style="fill: #ffffff; stroke: #ffffff; stroke-width: 0.8"/>
      </g>
     </g>
     <g id="text_6">
      <!-- 07-01 -->
      <g style="fill: #ffffff" transform="translate(625.305405 555.324408) rotate(-45) scale(0.09 -0.09)">
       <defs>
        <path id="SimHei-1a" d="M 850 150 
Q 1300 2050 2425 3925 
L 275 3925 
L 275 4375 
L 2950 4375 
L 2950 3950 
Q 1775 2050 1400 150 
L 850 150 
z
" transform="scale(0.015625)"/>
        <path id="SimHei-14" d="M 1400 3600 
Q 1075 3275 575 2975 
L 575 3450 
Q 1200 3875 1600 4450 
L 1900 4450 
L 1900 150 
L 1400 150 
L 1400 3600 
z
" transform="scale(0.015625)"/>
       </defs>
       <use xlink:href="#SimHei-13"/>
       <use xlink:href="#SimHei-1a" transform="translate(50 0)"/>
       <use xlink:href="#SimHei-10" transform="translate(100 0)"/>
       <use xlink:href="#SimHei-13" transform="translate(150 0)"/>
       <use xlink:href="#SimHei-14" transform="translate(200 0)"/>
      </g>
     </g>
    </g>
    <g id="xtick_7">
     <g id="line2d_13">
      <path d="M 753.500583 530.445476 
L 753.500583 25.23125 
" clip-path="url(#p352d446ee4)" style="fill: none; stroke-dasharray: 2.96,1.28; stroke-dashoffset: 0; stroke: #ffffff; stroke-opacity: 0.2; stroke-width: 0.8"/>
     </g>
     <g id="line2d_14">
      <g>
       <use xlink:href="#m156910b49f" x="753.500583" y="530.445476" style="fill: #ffffff; stroke: #ffffff; stroke-width: 0.8"/>
      </g>
     </g>
     <g id="text_7">
      <!-- 07-02 -->
      <g style="fill: #ffffff" transform="translate(747.83268 555.324408) rotate(-45) scale(0.09 -0.09)">
       <use xlink:href="#SimHei-13"/>
       <use xlink:href="#SimHei-1a" transform="translate(50 0)"/>
       <use xlink:href="#SimHei-10" transform="translate(100 0)"/>
       <use xlink:href="#SimHei-13" transform="translate(150 0)"/>
       <use xlink:href="#SimHei-15" transform="translate(200 0)"/>
      </g>
     </g>
    </g>
    <g id="xtick_8">
     <g id="line2d_15">
      <path d="M 876.027858 530.445476 
L 876.027858 25.23125 
" clip-path="url(#p352d446ee4)" style="fill: none; stroke-dasharray: 2.96,1.28; stroke-dashoffset: 0; stroke: #ffffff; stroke-opacity: 0.2; stroke-width: 0.8"/>
     </g>
     <g id="line2d_16">
      <g>
       <use xlink:href="#m156910b49f" x="876.027858" y="530.445476" style="fill: #ffffff; stroke: #ffffff; stroke-width: 0.8"/>
      </g>
     </g>
     <g id="text_8">
      <!-- 07-03 -->
      <g style="fill: #ffffff" transform="translate(870.359955 555.324408) rotate(-45) scale(0.09 -0.09)">
       <use xlink:href="#SimHei-13"/>
       <use xlink:href="#SimHei-1a" transform="translate(50 0)"/>
       <use xlink:href="#SimHei-10" transform="translate(100 0)"/>
       <use xlink:href="#SimHei-13" transform="translate(150 0)"/>
       <use xlink:href="#SimHei-16" transform="translate(200 0)"/>
      </g>
     </g>
    </g>
    <g id="xtick_9">
     <g id="line2d_17">
      <path d="M 998.555133 530.445476 
L 998.555133 25.23125 
" clip-path="url(#p352d446ee4)" style="fill: none; stroke-dasharray: 2.96,1.28; stroke-dashoffset: 0; stroke: #ffffff; stroke-opacity: 0.2; stroke-width: 0.8"/>
     </g>
     <g id="line2d_18">
      <g>
       <use xlink:href="#m156910b49f" x="998.555133" y="530.445476" style="fill: #ffffff; stroke: #ffffff; stroke-width: 0.8"/>
      </g>
     </g>
     <g id="text_9">
      <!-- 07-06 -->
      <g style="fill: #ffffff" transform="translate(992.88723 555.324408) rotate(-45) scale(0.09 -0.09)">
       <use xlink:href="#SimHei-13"/>
       <use xlink:href="#SimHei-1a" transform="translate(50 0)"/>
       <use xlink:href="#SimHei-10" transform="translate(100 0)"/>
       <use xlink:href="#SimHei-13" transform="translate(150 0)"/>
       <use xlink:href="#SimHei-19" transform="translate(200 0)"/>
      </g>
     </g>
    </g>
    <g id="xtick_10">
     <g id="line2d_19">
      <path d="M 1121.082408 530.445476 
L 1121.082408 25.23125 
" clip-path="url(#p352d446ee4)" style="fill: none; stroke-dasharray: 2.96,1.28; stroke-dashoffset: 0; stroke: #ffffff; stroke-opacity: 0.2; stroke-width: 0.8"/>
     </g>
     <g id="line2d_20">
      <g>
       <use xlink:href="#m156910b49f" x="1121.082408" y="530.445476" style="fill: #ffffff; stroke: #ffffff; stroke-width: 0.8"/>
      </g>
     </g>
     <g id="text_10">
      <!-- 07-07 -->
      <g style="fill: #ffffff" transform="translate(1115.414505 555.324408) rotate(-45) scale(0.09 -0.09)">
       <use xlink:href="#SimHei-13"/>
       <use xlink:href="#SimHei-1a" transform="translate(50 0)"/>
       <use xlink:href="#SimHei-10" transform="translate(100 0)"/>
       <use xlink:href="#SimHei-13" transform="translate(150 0)"/>
       <use xlink:href="#SimHei-1a" transform="translate(200 0)"/>
      </g>
     </g>
    </g>
   </g>
   <g id="matplotlib.axis_2"/>
   <g id="patch_3">
    <path d="M 18.336932 530.445476 
L 18.336932 25.23125 
" style="fill: none; stroke: #ffffff; stroke-width: 0.8; stroke-linejoin: miter; stroke-linecap: square"/>
   </g>
   <g id="patch_4">
    <path d="M 18.336932 530.445476 
L 1121.082408 530.445476 
" style="fill: none; stroke: #ffffff; stroke-width: 0.8; stroke-linejoin: miter; stroke-linecap: square"/>
   </g>
   <g id="text_11">
    <!-- 行业热度甘特图（近10日）— 气泡大小=涨跌幅度 -->
    <g style="fill: #ffffff" transform="translate(415.70967 19.23125) scale(0.14 -0.14)">
     <defs>
      <path id="SimHei-3e82" d="M 5300 3100 
Q 5775 3100 6175 3125 
L 6175 2625 
Q 5775 2650 5325 2650 
L 4975 2650 
L 4975 -75 
Q 5000 -375 4787 -487 
Q 4575 -600 3950 -675 
Q 3900 -375 3675 -75 
Q 4100 -125 4275 -112 
Q 4450 -100 4475 150 
L 4475 2650 
L 3475 2650 
Q 3000 2650 2575 2625 
L 2575 3125 
Q 3025 3100 3475 3100 
L 5300 3100 
z
M 2300 3400 
Q 2075 3275 1962 3075 
Q 1850 2875 1650 2575 
L 1650 325 
Q 1650 0 1675 -675 
L 1150 -675 
Q 1175 75 1175 450 
L 1175 2050 
Q 950 1675 575 1300 
Q 400 1550 250 1725 
Q 825 2275 1150 2775 
Q 1475 3275 1725 3725 
Q 1975 3575 2300 3400 
z
M 4875 4800 
Q 5300 4800 5750 4825 
L 5750 4350 
Q 5300 4375 4825 4375 
L 3900 4375 
Q 3350 4375 2950 4350 
L 2950 4825 
Q 3350 4800 3900 4800 
L 4875 4800 
z
M 2075 4925 
Q 1875 4900 1550 4387 
Q 1225 3875 650 3250 
Q 500 3450 325 3625 
Q 725 4025 1050 4487 
Q 1375 4950 1525 5300 
Q 1775 5150 2075 4925 
z
" transform="scale(0.015625)"/>
      <path id="SimHei-450" d="M 2825 5025 
Q 2775 4325 2775 3825 
L 2775 150 
L 3600 150 
L 3600 4125 
Q 3600 4525 3550 5025 
L 4175 5025 
Q 4125 4625 4125 4175 
L 4125 150 
L 5100 150 
Q 5500 150 6075 200 
L 6075 -350 
Q 5500 -300 5125 -300 
L 1325 -300 
Q 975 -300 325 -350 
L 325 200 
Q 975 150 1300 150 
L 2225 150 
L 2225 3850 
Q 2225 4375 2150 5025 
L 2825 5025 
z
M 1025 3775 
Q 1325 3000 1850 1500 
Q 1575 1450 1275 1300 
Q 825 2750 475 3550 
Q 725 3650 1025 3775 
z
M 5850 3625 
Q 5525 2775 4950 1250 
Q 4700 1400 4425 1475 
Q 4950 2450 5225 3825 
Q 5500 3725 5850 3625 
z
" transform="scale(0.015625)"/>
      <path id="SimHei-2723" d="M 2350 1175 
Q 3050 1700 3350 2400 
Q 3175 2575 2750 2825 
Q 2900 3025 3000 3200 
Q 3300 3025 3500 2875 
Q 3600 3200 3600 3775 
Q 3300 3775 2875 3725 
L 2850 4125 
Q 3250 4150 3600 4150 
Q 3600 4750 3575 5175 
Q 3750 5100 4125 5075 
Q 4050 4700 4050 4150 
L 5150 4200 
Q 5075 3800 5050 3087 
Q 5025 2375 5175 1975 
Q 5325 1575 5462 1600 
Q 5600 1625 5675 2250 
Q 5900 2100 6150 2050 
Q 5950 1425 5812 1262 
Q 5675 1100 5500 1100 
Q 5325 1100 5075 1287 
Q 4825 1475 4700 2100 
Q 4575 2725 4625 3800 
L 4050 3775 
Q 4025 3175 3875 2600 
Q 4400 2200 4650 2000 
Q 4500 1775 4375 1575 
Q 3950 2025 3725 2150 
Q 3425 1475 2775 850 
Q 2625 1075 2350 1175 
z
M 750 1525 
Q 1275 1500 1350 1550 
Q 1425 1600 1425 1800 
L 1425 2475 
Q 1025 2375 550 2225 
Q 500 2450 375 2725 
Q 750 2750 1425 2900 
L 1425 3725 
Q 925 3725 500 3700 
L 500 4125 
Q 900 4100 1425 4100 
Q 1425 4775 1400 5175 
L 1875 5175 
Q 1850 4850 1850 4100 
Q 2150 4100 2575 4125 
L 2575 3700 
Q 2150 3725 1850 3725 
L 1850 3000 
Q 2200 3075 2575 3175 
L 2575 2775 
Q 2200 2675 1850 2575 
L 1850 1825 
Q 1850 1300 1675 1200 
Q 1500 1100 975 1000 
Q 900 1275 750 1525 
z
M 5525 -550 
Q 5350 -125 4825 775 
Q 5025 850 5225 975 
Q 5775 75 5975 -325 
L 5525 -550 
z
M 1450 575 
Q 1275 350 775 -650 
Q 550 -500 300 -425 
Q 600 0 975 825 
Q 1200 675 1450 575 
z
M 3875 -525 
Q 3675 75 3425 600 
Q 3675 675 3850 775 
Q 4150 150 4350 -350 
Q 4075 -425 3875 -525 
z
M 2400 -575 
Q 2300 -150 2000 500 
Q 2225 575 2425 675 
Q 2775 -100 2850 -425 
Q 2600 -500 2400 -575 
z
" transform="scale(0.015625)"/>
      <path id="SimHei-14dc" d="M 1750 1675 
Q 2450 1650 2875 1650 
L 5200 1650 
Q 4975 1250 4650 850 
Q 4325 450 4025 200 
Q 4350 50 4950 -50 
Q 5550 -150 6100 -150 
Q 5950 -300 5825 -650 
Q 5100 -550 4550 -412 
Q 4000 -275 3625 -100 
Q 3100 -325 2587 -462 
Q 2075 -600 1525 -675 
Q 1450 -475 1225 -250 
Q 1675 -250 2250 -125 
Q 2825 0 3250 200 
Q 2825 550 2400 1275 
L 1750 1250 
L 1750 1675 
z
M 2975 5075 
Q 3250 5150 3475 5250 
Q 3625 4975 3775 4525 
L 4700 4525 
Q 4975 4525 5700 4550 
L 5700 4100 
Q 5000 4125 4650 4125 
L 1375 4125 
Q 1375 3000 1350 2312 
Q 1325 1625 1212 950 
Q 1100 275 725 -525 
Q 500 -375 250 -300 
Q 650 400 762 1075 
Q 875 1750 887 2800 
Q 900 3850 875 4525 
L 3200 4525 
Q 3100 4850 2975 5075 
z
M 2475 3300 
Q 2475 3700 2450 3925 
L 2975 3925 
Q 2950 3725 2950 3300 
L 4300 3300 
Q 4300 3700 4275 3950 
L 4800 3950 
Q 4775 3650 4775 3300 
Q 5325 3300 5725 3325 
L 5725 2900 
Q 5350 2925 4775 2925 
Q 4775 2250 4800 1950 
L 2450 1950 
Q 2475 2350 2475 2925 
Q 2175 2925 1600 2900 
L 1600 3325 
Q 2175 3300 2475 3300 
z
M 4300 2350 
L 4300 2925 
L 2950 2925 
L 2950 2350 
L 4300 2350 
z
M 2875 1275 
Q 3200 775 3650 425 
Q 4025 700 4425 1275 
L 2900 1275 
L 2875 1275 
z
" transform="scale(0.015625)"/>
      <path id="SimHei-2b4e" d="M 1550 3750 
L 1550 4400 
Q 1550 4675 1525 5050 
L 2075 5050 
Q 2050 4725 2050 4400 
L 2050 3750 
L 4400 3750 
L 4400 4400 
Q 4400 4775 4375 5075 
L 4925 5075 
Q 4900 4775 4900 4400 
L 4900 3750 
L 5350 3750 
Q 5775 3750 6175 3775 
L 6175 3300 
Q 5800 3325 5350 3325 
L 4900 3325 
L 4900 525 
Q 4900 -50 4925 -550 
L 4400 -550 
L 4400 0 
L 2050 0 
L 2050 -525 
L 1525 -525 
Q 1550 0 1550 675 
L 1550 3325 
L 1000 3325 
Q 575 3325 250 3300 
L 250 3775 
Q 600 3750 1000 3750 
L 1550 3750 
z
M 4400 425 
L 4400 1725 
L 2050 1725 
L 2050 425 
L 4400 425 
z
M 4400 2150 
L 4400 3325 
L 2050 3325 
L 2050 2150 
L 4400 2150 
z
" transform="scale(0.015625)"/>
      <path id="SimHei-28af" d="M 4050 3150 
L 4050 4050 
L 3675 4050 
Q 3275 4050 2975 4025 
L 2975 4475 
Q 3250 4450 3675 4450 
L 4050 4450 
Q 4050 4950 4000 5200 
L 4525 5200 
Q 4500 4950 4500 4450 
L 5075 4450 
Q 5450 4450 5800 4475 
L 5800 4025 
Q 5550 4050 5075 4050 
L 4500 4050 
L 4500 3150 
L 5450 3150 
Q 5825 3150 6150 3175 
L 6150 2725 
Q 5850 2750 5500 2750 
L 5275 2750 
L 5275 2000 
Q 5825 2000 6100 2025 
L 6100 1550 
Q 5800 1575 5275 1575 
L 5275 -75 
Q 5250 -375 5050 -487 
Q 4850 -600 4275 -675 
Q 4225 -375 4075 -100 
Q 4525 -125 4675 -100 
Q 4825 -75 4825 150 
L 4825 1575 
L 3600 1575 
Q 3175 1575 2850 1550 
L 2850 2025 
Q 3125 2000 3600 2000 
L 4825 2000 
L 4825 2750 
L 3575 2750 
Q 3125 2750 2775 2725 
L 2775 3175 
Q 3125 3150 3550 3150 
L 4050 3150 
z
M 1150 4275 
Q 1050 4125 950 3600 
L 1500 3600 
L 1500 4425 
Q 1500 4800 1475 5200 
L 2000 5200 
Q 1950 4825 1950 4425 
L 1950 3600 
Q 2300 3600 2600 3625 
L 2600 3175 
Q 2325 3200 1950 3200 
L 1950 2075 
Q 2275 2200 2575 2325 
Q 2600 2125 2650 1900 
Q 2375 1800 1950 1625 
L 1950 225 
Q 1950 -175 1975 -650 
L 1475 -650 
Q 1500 -200 1500 225 
L 1500 1450 
Q 850 1200 550 1025 
Q 450 1275 275 1550 
Q 600 1575 1500 1925 
L 1500 3200 
L 850 3200 
Q 750 2775 675 2450 
Q 425 2550 225 2600 
Q 350 2950 462 3487 
Q 575 4025 600 4400 
Q 900 4325 1150 4275 
z
M 3600 1200 
Q 3800 750 3975 325 
Q 3750 275 3500 150 
Q 3325 675 3125 1025 
Q 3375 1100 3600 1200 
z
" transform="scale(0.015625)"/>
      <path id="SimHei-d34" d="M 5800 4975 
Q 5775 4350 5775 3600 
L 5775 925 
Q 5775 150 5800 -600 
L 5300 -600 
L 5300 -275 
L 1125 -275 
L 1125 -650 
L 625 -650 
Q 650 125 650 950 
L 650 3600 
Q 650 4325 625 4975 
L 5800 4975 
z
M 5300 150 
L 5300 4575 
L 1125 4575 
L 1125 150 
L 5300 150 
z
M 3225 4250 
Q 3075 4100 2950 3925 
L 4625 3925 
Q 4525 3700 4300 3375 
Q 4075 3050 3600 2600 
Q 4350 2225 5075 2150 
Q 4900 1925 4775 1675 
Q 3850 1950 3225 2350 
Q 2500 1875 1675 1650 
Q 1600 1875 1400 2075 
Q 2200 2200 2875 2600 
Q 2525 2925 2375 3150 
Q 2150 2900 1900 2650 
Q 1725 2850 1525 2950 
Q 1950 3300 2250 3737 
Q 2550 4175 2675 4475 
Q 2925 4350 3225 4250 
z
M 2450 1275 
Q 3550 950 4100 725 
Q 3975 525 3850 300 
Q 2825 725 2275 850 
Q 2375 1050 2450 1275 
z
M 2925 2050 
Q 3775 1700 4075 1600 
Q 3950 1400 3850 1150 
Q 3000 1550 2700 1650 
Q 2825 1825 2925 2050 
z
M 2625 3450 
Q 3000 3025 3275 2850 
Q 3600 3100 3875 3525 
L 2675 3525 
L 2625 3450 
z
" transform="scale(0.015625)"/>
      <path id="SimHei-3b4" d="M 5425 5100 
L 5700 4775 
Q 4275 3725 4325 2350 
Q 4350 1025 5675 50 
L 5400 -275 
Q 3875 825 3925 2500 
Q 3925 3875 5425 5100 
z
" transform="scale(0.015625)"/>
      <path id="SimHei-4607" d="M 5700 4500 
Q 5450 4500 4800 4425 
Q 4150 4350 3275 4275 
L 3250 3275 
L 5150 3275 
Q 5550 3275 6025 3300 
L 6025 2825 
Q 5525 2850 4875 2850 
Q 4875 800 4900 350 
L 4350 350 
Q 4375 1150 4375 2850 
L 3250 2850 
Q 3200 2075 3087 1587 
Q 2975 1100 2475 425 
Q 2200 675 1975 750 
Q 2375 1125 2525 1525 
Q 2675 1925 2725 2312 
Q 2775 2700 2800 3325 
Q 2825 3950 2775 4700 
Q 3050 4700 3850 4775 
Q 4650 4850 5400 5075 
Q 5600 4675 5700 4500 
z
M 1675 2975 
Q 1650 2500 1650 1975 
L 1650 600 
Q 2125 225 3012 100 
Q 3900 -25 4750 0 
Q 5600 25 6150 125 
Q 6025 -175 5975 -500 
Q 4975 -500 4262 -475 
Q 3550 -450 3075 -375 
Q 2600 -300 2325 -200 
Q 2050 -100 1750 50 
Q 1450 200 1212 0 
Q 975 -200 700 -550 
Q 550 -375 250 -175 
Q 875 325 1175 550 
L 1175 2550 
Q 850 2550 350 2525 
L 350 3000 
Q 875 2975 1200 2975 
L 1675 2975 
z
M 1150 4950 
Q 1775 4300 2050 3900 
Q 1800 3750 1600 3575 
Q 1450 3900 750 4625 
Q 1000 4775 1150 4950 
z
" transform="scale(0.015625)"/>
      <path id="SimHei-1c1b" d="M 5375 5000 
Q 5350 3775 5350 2275 
Q 5350 775 5375 -450 
L 4800 -450 
L 4800 175 
L 1800 175 
L 1800 -575 
L 1250 -575 
Q 1275 575 1275 2125 
Q 1275 3675 1250 5000 
L 5375 5000 
z
M 4800 600 
L 4800 2375 
L 1800 2375 
L 1800 600 
L 4800 600 
z
M 4800 2800 
L 4800 4550 
L 1800 4550 
L 1800 2800 
L 4800 2800 
z
" transform="scale(0.015625)"/>
      <path id="SimHei-3b5" d="M 1000 5100 
Q 2500 3875 2500 2500 
Q 2550 825 1025 -275 
L 750 50 
Q 2075 1025 2100 2350 
Q 2150 3725 725 4775 
L 1000 5100 
z
" transform="scale(0.015625)"/>
      <path id="SimHei-102" d="M 6375 2500 
L 6375 2125 
L 0 2125 
L 0 2500 
L 6375 2500 
z
" transform="scale(0.015625)"/>
      <path id="SimHei-3" transform="scale(0.015625)"/>
      <path id="SimHei-224a" d="M 6150 500 
Q 5800 -525 5450 -587 
Q 5100 -650 4850 -250 
Q 4600 150 4500 662 
Q 4400 1175 4450 2150 
L 1700 2150 
Q 1300 2150 850 2125 
L 850 2575 
Q 1300 2550 1700 2550 
L 4975 2550 
Q 4925 1775 4937 1350 
Q 4950 925 5062 587 
Q 5175 250 5312 75 
Q 5450 -100 5675 875 
Q 5950 550 6150 500 
z
M 2300 5050 
Q 2150 4825 1975 4550 
L 4725 4550 
Q 5175 4550 5575 4575 
L 5575 4125 
Q 5175 4150 4725 4150 
L 1775 4150 
Q 1650 3900 1387 3512 
Q 1125 3125 875 2850 
Q 675 3050 375 3125 
Q 700 3400 1125 4062 
Q 1550 4725 1725 5275 
Q 2000 5150 2300 5050 
z
M 4300 3575 
Q 4700 3575 5100 3600 
L 5100 3150 
Q 4700 3175 4300 3175 
L 2450 3175 
Q 2050 3175 1650 3150 
L 1650 3575 
Q 2050 3550 2450 3575 
L 4300 3575 
z
" transform="scale(0.015625)"/>
      <path id="SimHei-2317" d="M 6200 325 
Q 6100 -250 5887 -375 
Q 5675 -500 5400 -475 
L 3325 -475 
Q 2650 -500 2625 125 
L 2625 3100 
Q 2525 2950 2325 2675 
Q 2125 2925 1825 2975 
Q 2200 3300 2625 4100 
Q 3050 4900 3075 5300 
Q 3375 5175 3725 5100 
Q 3550 4950 3325 4350 
L 5775 4350 
Q 5775 3875 5762 3175 
Q 5750 2475 5737 1887 
Q 5725 1300 5537 1150 
Q 5350 1000 4875 875 
Q 4850 1125 4625 1400 
Q 4875 1425 5037 1462 
Q 5200 1500 5237 2025 
Q 5275 2550 5275 3975 
L 3150 3975 
Q 2950 3575 2700 3200 
L 4500 3200 
Q 4475 2800 4475 2225 
Q 4475 1675 4500 1325 
L 3100 1325 
L 3100 275 
Q 3075 -100 3475 -75 
L 5350 -75 
Q 5525 -75 5587 50 
Q 5650 175 5650 550 
Q 5900 375 6200 325 
z
M 1900 1625 
Q 1625 1025 1375 400 
Q 1125 -225 1000 -625 
Q 750 -450 400 -300 
Q 625 -75 1012 750 
Q 1400 1575 1475 1950 
Q 1675 1725 1900 1625 
z
M 4000 1700 
L 4000 2800 
L 3100 2800 
L 3100 1700 
L 4000 1700 
z
M 975 4975 
Q 1450 4725 2050 4300 
Q 1825 4100 1700 3850 
Q 1250 4275 675 4575 
Q 825 4750 975 4975 
z
M 1400 2450 
Q 925 2800 300 3125 
Q 450 3275 575 3525 
Q 1325 3125 1675 2900 
Q 1525 2700 1400 2450 
z
" transform="scale(0.015625)"/>
      <path id="SimHei-f5d" d="M 2900 3400 
Q 2925 4275 2912 4575 
Q 2900 4875 2875 5150 
Q 3175 5100 3550 5075 
Q 3475 4825 3437 4350 
Q 3400 3875 3400 3400 
L 4675 3400 
Q 5350 3400 5925 3450 
L 5925 2900 
Q 5425 2925 4900 2925 
L 3425 2925 
Q 3525 2500 3775 2062 
Q 4025 1625 4287 1287 
Q 4550 950 5012 575 
Q 5475 200 6025 -50 
Q 5825 -200 5625 -550 
Q 5175 -300 4737 75 
Q 4300 450 3862 1062 
Q 3425 1675 3200 2200 
Q 3000 1650 2775 1287 
Q 2550 925 2287 625 
Q 2025 325 1612 25 
Q 1200 -275 675 -575 
Q 475 -275 225 -50 
Q 750 125 1262 450 
Q 1775 775 2100 1187 
Q 2425 1600 2625 2050 
Q 2825 2500 2875 2925 
L 1500 2925 
Q 900 2925 550 2900 
L 550 3450 
Q 900 3425 1500 3400 
L 2900 3400 
z
" transform="scale(0.015625)"/>
      <path id="SimHei-1245" d="M 3500 5150 
Q 3475 4800 3475 4200 
L 3475 175 
Q 3475 -300 3225 -425 
Q 2975 -550 2375 -600 
Q 2325 -300 2150 -25 
Q 2700 -25 2837 0 
Q 2975 25 2975 300 
L 2975 4200 
Q 2975 4650 2950 5150 
L 3500 5150 
z
M 2075 3400 
Q 1850 2775 1550 1962 
Q 1250 1150 1025 750 
Q 775 950 500 1000 
Q 925 1750 1175 2487 
Q 1425 3225 1500 3575 
Q 1800 3425 2075 3400 
z
M 4675 3600 
Q 5675 1800 5875 1150 
Q 5625 1100 5375 925 
Q 5000 2000 4225 3325 
Q 4425 3425 4675 3600 
z
" transform="scale(0.015625)"/>
      <path id="SimHei-20" d="M 2975 2900 
L 125 2900 
L 125 3300 
L 2975 3300 
L 2975 2900 
z
M 2975 1375 
L 125 1375 
L 125 1775 
L 2975 1775 
L 2975 1375 
z
" transform="scale(0.015625)"/>
      <path id="SimHei-23de" d="M 3750 4350 
Q 3750 4700 3725 5075 
L 4225 5075 
Q 4200 4700 4200 4350 
L 4200 2600 
L 5975 2600 
L 5975 2175 
Q 5500 2200 5025 2200 
Q 5175 1325 5512 700 
Q 5850 75 6175 -125 
Q 5875 -300 5750 -475 
Q 5375 -125 5137 337 
Q 4900 800 4775 1300 
Q 4650 1800 4575 2200 
L 4200 2200 
L 4200 275 
Q 4475 500 4725 775 
Q 4800 550 4925 300 
Q 4800 200 4500 -62 
Q 4200 -325 3875 -600 
Q 3775 -425 3575 -175 
Q 3775 -25 3750 350 
L 3750 2200 
Q 3575 2200 3225 2175 
L 3225 2625 
Q 3575 2600 3750 2600 
L 3750 4350 
z
M 1900 0 
Q 2225 0 2437 25 
Q 2650 50 2650 275 
L 2650 1675 
L 1775 1675 
Q 1875 2675 1850 3475 
L 2750 3475 
L 2750 4475 
L 2575 4475 
Q 2125 4475 1775 4450 
L 1775 4900 
Q 2175 4875 2550 4875 
L 3225 4875 
Q 3200 4425 3200 3975 
Q 3200 3525 3225 3075 
L 2325 3075 
L 2275 2075 
L 3125 2075 
Q 3100 1700 3100 1325 
L 3100 100 
Q 3100 -250 2912 -375 
Q 2725 -500 2125 -550 
Q 2100 -250 1900 0 
z
M 1475 1550 
Q 1300 1075 1125 525 
L 775 -575 
Q 550 -400 275 -275 
Q 500 75 712 662 
Q 925 1250 1075 1825 
Q 1250 1650 1475 1550 
z
M 5675 4650 
Q 5525 4375 5337 3950 
Q 5150 3525 4825 2875 
Q 4575 3025 4425 3075 
Q 4625 3425 4875 4000 
Q 5125 4575 5200 4875 
Q 5425 4750 5675 4650 
z
M 500 3550 
Q 1100 3200 1425 2975 
Q 1225 2675 1150 2500 
Q 750 2800 225 3125 
Q 375 3350 500 3550 
z
M 1300 4100 
Q 900 4475 425 4775 
Q 575 4950 725 5150 
Q 1200 4800 1600 4500 
Q 1425 4325 1300 4100 
z
" transform="scale(0.015625)"/>
      <path id="SimHei-4402" d="M 1050 2475 
Q 1025 2000 1025 1625 
L 1025 500 
Q 1250 525 1500 575 
L 1500 2975 
L 725 2975 
Q 750 3425 750 3925 
Q 750 4425 725 4900 
L 2650 4900 
Q 2625 4425 2625 3925 
Q 2625 3425 2650 2975 
L 1925 2975 
L 1925 2200 
Q 2325 2200 2650 2225 
L 2650 1750 
Q 2250 1775 1925 1775 
L 1925 650 
Q 2275 725 2825 850 
Q 2775 625 2775 425 
Q 1350 75 1025 -12 
Q 700 -100 450 -200 
Q 400 100 250 375 
Q 400 375 600 425 
L 600 1700 
Q 600 2050 575 2475 
L 1050 2475 
z
M 3325 2725 
Q 3050 2825 2875 2875 
Q 3050 3350 3125 3862 
Q 3200 4375 3200 4750 
Q 3425 4675 3750 4625 
Q 3650 4350 3600 4025 
L 4200 4025 
L 4200 4525 
Q 4200 4825 4150 5250 
Q 4450 5200 4725 5175 
Q 4675 5000 4650 4725 
Q 4625 4450 4625 4025 
Q 5400 4025 5775 4050 
L 5775 3575 
Q 5400 3600 4625 3600 
L 4625 2375 
Q 5650 2375 6050 2400 
L 6050 1950 
Q 5625 1975 4750 1975 
Q 4900 1250 5300 687 
Q 5700 125 6200 -100 
Q 5975 -275 5775 -575 
Q 5275 -100 4962 412 
Q 4650 925 4475 1575 
Q 4325 925 4087 525 
Q 3850 125 3537 -150 
Q 3225 -425 2850 -650 
Q 2675 -425 2475 -275 
Q 2900 -75 3200 187 
Q 3500 450 3737 850 
Q 3975 1250 4100 1975 
Q 3375 1975 2850 1950 
L 2850 2400 
Q 3450 2375 4175 2375 
Q 4200 3175 4200 3600 
L 3550 3600 
Q 3450 3275 3325 2725 
z
M 2225 3350 
L 2225 4525 
L 1175 4525 
L 1175 3350 
L 2225 3350 
z
" transform="scale(0.015625)"/>
      <path id="SimHei-147b" d="M 5950 2250 
Q 5925 1875 5925 900 
Q 5925 -50 5950 -425 
L 5450 -425 
L 5450 -175 
L 3350 -175 
L 3350 -475 
L 2875 -475 
Q 2900 200 2900 1025 
Q 2900 1875 2875 2250 
L 5950 2250 
z
M 2575 1125 
Q 2575 800 2437 700 
Q 2300 600 1950 525 
Q 1900 800 1750 1000 
Q 1975 1000 2075 1037 
Q 2175 1075 2175 1300 
L 2175 3725 
L 1700 3725 
L 1700 475 
Q 1700 0 1725 -550 
L 1225 -550 
Q 1250 -25 1250 475 
L 1250 3725 
L 850 3725 
L 850 500 
L 400 500 
Q 425 1000 425 2300 
Q 425 3600 400 4100 
L 1250 4100 
L 1250 4500 
Q 1250 4825 1225 5175 
L 1725 5175 
Q 1700 4825 1700 4500 
L 1700 4100 
L 2600 4100 
Q 2575 3900 2575 3225 
L 2575 1125 
z
M 5575 3925 
Q 5550 3625 5550 3300 
Q 5550 2975 5575 2600 
L 3200 2600 
Q 3225 2975 3225 3300 
Q 3225 3625 3200 3925 
L 5575 3925 
z
M 5250 4800 
Q 5650 4800 6025 4825 
L 6025 4375 
Q 5650 4400 5250 4400 
L 3550 4400 
Q 3075 4400 2800 4375 
L 2800 4825 
Q 3075 4800 3550 4800 
L 5250 4800 
z
M 5150 2975 
L 5150 3575 
L 3625 3575 
L 3625 2975 
L 5150 2975 
z
M 5450 1225 
L 5450 1875 
L 4625 1875 
L 4625 1225 
L 5450 1225 
z
M 4175 200 
L 4175 850 
L 3350 850 
L 3350 200 
L 4175 200 
z
M 5450 200 
L 5450 850 
L 4625 850 
L 4625 200 
L 5450 200 
z
M 4175 1225 
L 4175 1875 
L 3350 1875 
L 3350 1225 
L 4175 1225 
z
" transform="scale(0.015625)"/>
     </defs>
     <use xlink:href="#SimHei-3e82"/>
     <use xlink:href="#SimHei-450" transform="translate(100 0)"/>
     <use xlink:href="#SimHei-2723" transform="translate(200 0)"/>
     <use xlink:href="#SimHei-14dc" transform="translate(300 0)"/>
     <use xlink:href="#SimHei-2b4e" transform="translate(400 0)"/>
     <use xlink:href="#SimHei-28af" transform="translate(500 0)"/>
     <use xlink:href="#SimHei-d34" transform="translate(600 0)"/>
     <use xlink:href="#SimHei-3b4" transform="translate(700 0)"/>
     <use xlink:href="#SimHei-4607" transform="translate(800 0)"/>
     <use xlink:href="#SimHei-14" transform="translate(900 0)"/>
     <use xlink:href="#SimHei-13" transform="translate(950 0)"/>
     <use xlink:href="#SimHei-1c1b" transform="translate(1000 0)"/>
     <use xlink:href="#SimHei-3b5" transform="translate(1100 0)"/>
     <use xlink:href="#SimHei-102" transform="translate(1200 0)"/>
     <use xlink:href="#SimHei-3" transform="translate(1300 0)"/>
     <use xlink:href="#SimHei-224a" transform="translate(1350 0)"/>
     <use xlink:href="#SimHei-2317" transform="translate(1450 0)"/>
     <use xlink:href="#SimHei-f5d" transform="translate(1550 0)"/>
     <use xlink:href="#SimHei-1245" transform="translate(1650 0)"/>
     <use xlink:href="#SimHei-20" transform="translate(1750 0)"/>
     <use xlink:href="#SimHei-23de" transform="translate(1800 0)"/>
     <use xlink:href="#SimHei-4402" transform="translate(1900 0)"/>
     <use xlink:href="#SimHei-147b" transform="translate(2000 0)"/>
     <use xlink:href="#SimHei-14dc" transform="translate(2100 0)"/>
    </g>
   </g>
  </g>
 </g>
 <defs>
  <clipPath id="p352d446ee4">
   <rect x="18.336932" y="25.23125" width="1102.745476" height="505.214226"/>
  </clipPath>
 </defs>
</svg>
