<?xml version="1.0" encoding="utf-8" standalone="no"?>
<!DOCTYPE svg PUBLIC "-//W3C//DTD SVG 1.1//EN"
  "http://www.w3.org/Graphics/SVG/1.1/DTD/svg11.dtd">
<svg xmlns:xlink="http://www.w3.org/1999/xlink" width="1120.027656pt" height="593.848956pt" viewBox="0 0 1120.027656 593.848956" xmlns="http://www.w3.org/2000/svg" version="1.1">
 <metadata>
  <rdf:RDF xmlns:dc="http://purl.org/dc/elements/1.1/" xmlns:cc="http://creativecommons.org/ns#" xmlns:rdf="http://www.w3.org/1999/02/22-rdf-syntax-ns#">
   <cc:Work>
    <dc:type rdf:resource="http://purl.org/dc/dcmitype/StillImage"/>
    <dc:date>2026-07-04T04:32:20.905975</dc:date>
    <dc:format>image/svg+xml</dc:format>
    <dc:creator>
     <cc:Agent>
      <dc:title>Matplotlib v3.10.9, https://matplotlib.org/</dc:title>
     </cc:Agent>
    </dc:creator>
   </cc:Work>
  </rdf:RDF>
 </metadata>
 <defs>
  <style type="text/css">*{stroke-linejoin: round; stroke-linecap: butt}</style>
 </defs>
 <g id="figure_1">
  <g id="patch_1">
   <path d="M 0 593.848956 
L 1120.027656 593.848956 
L 1120.027656 0 
L 0 0 
z
" style="fill: #0d1117"/>
  </g>
  <g id="axes_1">
   <g id="patch_2">
    <path d="M 52.1375 555.1125 
L 1077.4175 555.1125 
L 1077.4175 29.5125 
L 52.1375 29.5125 
z
" style="fill: #161b22"/>
   </g>
   <g id="matplotlib.axis_1">
    <g id="xtick_1">
     <g id="line2d_1">
      <path d="M 85.488917 555.1125 
L 85.488917 29.5125 
" clip-path="url(#p66c05c2001)" style="fill: none; stroke-dasharray: 1.48,0.64; stroke-dashoffset: 0; stroke: #21262d; stroke-opacity: 0.4; stroke-width: 0.4"/>
     </g>
     <g id="line2d_2">
      <defs>
       <path id="m2afcb44449" d="M 0 0 
L 0 3.5 
" style="stroke: #c9d1d9; stroke-width: 0.8"/>
      </defs>
      <g>
       <use xlink:href="#m2afcb44449" x="85.488917" y="555.1125" style="fill: #c9d1d9; stroke: #c9d1d9; stroke-width: 0.8"/>
      </g>
     </g>
     <g id="text_1">
      <!-- 2025-05 -->
      <g style="fill: #c9d1d9" transform="translate(54.553028 585.566425) rotate(-30) scale(0.1 -0.1)">
       <defs>
        <path id="SimHei-32" d="M 300 250 
Q 325 625 650 925 
Q 975 1225 1475 1862 
Q 1975 2500 2125 2850 
Q 2275 3200 2237 3450 
Q 2200 3700 2000 3862 
Q 1800 4025 1537 4000 
Q 1275 3975 1037 3800 
Q 800 3625 675 3275 
L 200 3350 
Q 400 3925 712 4187 
Q 1025 4450 1450 4475 
Q 1700 4500 1900 4462 
Q 2100 4425 2312 4287 
Q 2525 4150 2662 3875 
Q 2800 3600 2762 3212 
Q 2725 2825 2375 2287 
Q 2025 1750 1025 600 
L 2825 600 
L 2825 150 
L 300 150 
L 300 250 
z
" transform="scale(0.015625)"/>
        <path id="SimHei-30" d="M 225 2537 
Q 250 3200 412 3587 
Q 575 3975 875 4225 
Q 1175 4475 1612 4475 
Q 2050 4475 2375 4112 
Q 2700 3750 2800 3200 
Q 2900 2650 2862 1937 
Q 2825 1225 2612 775 
Q 2400 325 1975 150 
Q 1550 -25 1125 187 
Q 700 400 525 750 
Q 350 1100 275 1487 
Q 200 1875 225 2537 
z
M 750 2687 
Q 675 2000 800 1462 
Q 925 925 1212 700 
Q 1500 475 1800 612 
Q 2100 750 2237 1162 
Q 2375 1575 2375 2062 
Q 2375 2550 2337 2950 
Q 2300 3350 2112 3675 
Q 1925 4000 1612 4012 
Q 1300 4025 1062 3700 
Q 825 3375 750 2687 
z
" transform="scale(0.015625)"/>
        <path id="SimHei-35" d="M 550 1325 
Q 725 650 1150 575 
Q 1575 500 1837 662 
Q 2100 825 2212 1087 
Q 2325 1350 2312 1675 
Q 2300 2000 2137 2225 
Q 1975 2450 1725 2525 
Q 1475 2600 1162 2525 
Q 850 2450 650 2175 
L 225 2225 
Q 275 2375 700 4375 
L 2675 4375 
L 2675 3925 
L 1075 3925 
Q 950 3250 825 2850 
Q 1200 3025 1525 3012 
Q 1850 3000 2150 2862 
Q 2450 2725 2587 2487 
Q 2725 2250 2787 2012 
Q 2850 1775 2837 1500 
Q 2825 1225 2725 937 
Q 2625 650 2425 462 
Q 2225 275 1937 162 
Q 1650 50 1275 75 
Q 900 100 562 350 
Q 225 600 100 1200 
L 550 1325 
z
" transform="scale(0.015625)"/>
        <path id="SimHei-2d" d="M 2975 2125 
L 125 2125 
L 125 2525 
L 2975 2525 
L 2975 2125 
z
" transform="scale(0.015625)"/>
       </defs>
       <use xlink:href="#SimHei-32"/>
       <use xlink:href="#SimHei-30" transform="translate(50 0)"/>
       <use xlink:href="#SimHei-32" transform="translate(100 0)"/>
       <use xlink:href="#SimHei-35" transform="translate(150 0)"/>
       <use xlink:href="#SimHei-2d" transform="translate(200 0)"/>
       <use xlink:href="#SimHei-30" transform="translate(250 0)"/>
       <use xlink:href="#SimHei-35" transform="translate(300 0)"/>
      </g>
     </g>
    </g>
    <g id="xtick_2">
     <g id="line2d_3">
      <path d="M 220.219809 555.1125 
L 220.219809 29.5125 
" clip-path="url(#p66c05c2001)" style="fill: none; stroke-dasharray: 1.48,0.64; stroke-dashoffset: 0; stroke: #21262d; stroke-opacity: 0.4; stroke-width: 0.4"/>
     </g>
     <g id="line2d_4">
      <g>
       <use xlink:href="#m2afcb44449" x="220.219809" y="555.1125" style="fill: #c9d1d9; stroke: #c9d1d9; stroke-width: 0.8"/>
      </g>
     </g>
     <g id="text_2">
      <!-- 2025-07 -->
      <g style="fill: #c9d1d9" transform="translate(189.28392 585.566425) rotate(-30) scale(0.1 -0.1)">
       <defs>
        <path id="SimHei-37" d="M 850 150 
Q 1300 2050 2425 3925 
L 275 3925 
L 275 4375 
L 2950 4375 
L 2950 3950 
Q 1775 2050 1400 150 
L 850 150 
z
" transform="scale(0.015625)"/>
       </defs>
       <use xlink:href="#SimHei-32"/>
       <use xlink:href="#SimHei-30" transform="translate(50 0)"/>
       <use xlink:href="#SimHei-32" transform="translate(100 0)"/>
       <use xlink:href="#SimHei-35" transform="translate(150 0)"/>
       <use xlink:href="#SimHei-2d" transform="translate(200 0)"/>
       <use xlink:href="#SimHei-30" transform="translate(250 0)"/>
       <use xlink:href="#SimHei-37" transform="translate(300 0)"/>
      </g>
     </g>
    </g>
    <g id="xtick_3">
     <g id="line2d_5">
      <path d="M 357.159404 555.1125 
L 357.159404 29.5125 
" clip-path="url(#p66c05c2001)" style="fill: none; stroke-dasharray: 1.48,0.64; stroke-dashoffset: 0; stroke: #21262d; stroke-opacity: 0.4; stroke-width: 0.4"/>
     </g>
     <g id="line2d_6">
      <g>
       <use xlink:href="#m2afcb44449" x="357.159404" y="555.1125" style="fill: #c9d1d9; stroke: #c9d1d9; stroke-width: 0.8"/>
      </g>
     </g>
     <g id="text_3">
      <!-- 2025-09 -->
      <g style="fill: #c9d1d9" transform="translate(326.223515 585.566425) rotate(-30) scale(0.1 -0.1)">
       <defs>
        <path id="SimHei-39" d="M 800 75 
Q 1350 1000 1700 1750 
Q 1075 1650 662 1912 
Q 250 2175 162 2625 
Q 75 3075 175 3437 
Q 275 3800 487 4037 
Q 700 4275 1000 4375 
Q 1300 4475 1537 4475 
Q 1775 4475 2025 4375 
Q 2275 4275 2475 4075 
Q 2675 3875 2750 3662 
Q 2825 3450 2825 3112 
Q 2825 2775 2575 2250 
Q 2325 1725 1350 75 
L 800 75 
z
M 662 2875 
Q 700 2550 937 2337 
Q 1175 2125 1450 2150 
Q 1725 2175 1887 2300 
Q 2050 2425 2200 2725 
Q 2300 3100 2250 3362 
Q 2200 3625 1987 3800 
Q 1775 3975 1525 3975 
Q 1375 4000 1137 3900 
Q 900 3800 762 3500 
Q 625 3200 662 2875 
z
" transform="scale(0.015625)"/>
       </defs>
       <use xlink:href="#SimHei-32"/>
       <use xlink:href="#SimHei-30" transform="translate(50 0)"/>
       <use xlink:href="#SimHei-32" transform="translate(100 0)"/>
       <use xlink:href="#SimHei-35" transform="translate(150 0)"/>
       <use xlink:href="#SimHei-2d" transform="translate(200 0)"/>
       <use xlink:href="#SimHei-30" transform="translate(250 0)"/>
       <use xlink:href="#SimHei-39" transform="translate(300 0)"/>
      </g>
     </g>
    </g>
    <g id="xtick_4">
     <g id="line2d_7">
      <path d="M 491.890296 555.1125 
L 491.890296 29.5125 
" clip-path="url(#p66c05c2001)" style="fill: none; stroke-dasharray: 1.48,0.64; stroke-dashoffset: 0; stroke: #21262d; stroke-opacity: 0.4; stroke-width: 0.4"/>
     </g>
     <g id="line2d_8">
      <g>
       <use xlink:href="#m2afcb44449" x="491.890296" y="555.1125" style="fill: #c9d1d9; stroke: #c9d1d9; stroke-width: 0.8"/>
      </g>
     </g>
     <g id="text_4">
      <!-- 2025-11 -->
      <g style="fill: #c9d1d9" transform="translate(460.954407 585.566425) rotate(-30) scale(0.1 -0.1)">
       <defs>
        <path id="SimHei-31" d="M 1400 3600 
Q 1075 3275 575 2975 
L 575 3450 
Q 1200 3875 1600 4450 
L 1900 4450 
L 1900 150 
L 1400 150 
L 1400 3600 
z
" transform="scale(0.015625)"/>
       </defs>
       <use xlink:href="#SimHei-32"/>
       <use xlink:href="#SimHei-30" transform="translate(50 0)"/>
       <use xlink:href="#SimHei-32" transform="translate(100 0)"/>
       <use xlink:href="#SimHei-35" transform="translate(150 0)"/>
       <use xlink:href="#SimHei-2d" transform="translate(200 0)"/>
       <use xlink:href="#SimHei-31" transform="translate(250 0)"/>
       <use xlink:href="#SimHei-31" transform="translate(300 0)"/>
      </g>
     </g>
    </g>
    <g id="xtick_5">
     <g id="line2d_9">
      <path d="M 626.621188 555.1125 
L 626.621188 29.5125 
" clip-path="url(#p66c05c2001)" style="fill: none; stroke-dasharray: 1.48,0.64; stroke-dashoffset: 0; stroke: #21262d; stroke-opacity: 0.4; stroke-width: 0.4"/>
     </g>
     <g id="line2d_10">
      <g>
       <use xlink:href="#m2afcb44449" x="626.621188" y="555.1125" style="fill: #c9d1d9; stroke: #c9d1d9; stroke-width: 0.8"/>
      </g>
     </g>
     <g id="text_5">
      <!-- 2026-01 -->
      <g style="fill: #c9d1d9" transform="translate(595.685299 585.566425) rotate(-30) scale(0.1 -0.1)">
       <defs>
        <path id="SimHei-36" d="M 250 1612 
Q 275 1975 387 2225 
Q 500 2475 725 2850 
L 1750 4450 
L 2325 4450 
L 1275 2800 
Q 1950 2975 2350 2750 
Q 2750 2525 2887 2237 
Q 3025 1950 3037 1612 
Q 3050 1275 2937 950 
Q 2825 625 2537 362 
Q 2250 100 1737 75 
Q 1225 50 862 262 
Q 500 475 362 862 
Q 225 1250 250 1612 
z
M 1025 787 
Q 1250 550 1625 525 
Q 2000 500 2250 775 
Q 2500 1050 2500 1575 
Q 2500 2100 2187 2300 
Q 1875 2500 1487 2450 
Q 1100 2400 925 2075 
Q 750 1750 775 1387 
Q 800 1025 1025 787 
z
" transform="scale(0.015625)"/>
       </defs>
       <use xlink:href="#SimHei-32"/>
       <use xlink:href="#SimHei-30" transform="translate(50 0)"/>
       <use xlink:href="#SimHei-32" transform="translate(100 0)"/>
       <use xlink:href="#SimHei-36" transform="translate(150 0)"/>
       <use xlink:href="#SimHei-2d" transform="translate(200 0)"/>
       <use xlink:href="#SimHei-30" transform="translate(250 0)"/>
       <use xlink:href="#SimHei-31" transform="translate(300 0)"/>
      </g>
     </g>
    </g>
    <g id="xtick_6">
     <g id="line2d_11">
      <path d="M 756.934674 555.1125 
L 756.934674 29.5125 
" clip-path="url(#p66c05c2001)" style="fill: none; stroke-dasharray: 1.48,0.64; stroke-dashoffset: 0; stroke: #21262d; stroke-opacity: 0.4; stroke-width: 0.4"/>
     </g>
     <g id="line2d_12">
      <g>
       <use xlink:href="#m2afcb44449" x="756.934674" y="555.1125" style="fill: #c9d1d9; stroke: #c9d1d9; stroke-width: 0.8"/>
      </g>
     </g>
     <g id="text_6">
      <!-- 2026-03 -->
      <g style="fill: #c9d1d9" transform="translate(725.998784 585.566425) rotate(-30) scale(0.1 -0.1)">
       <defs>
        <path id="SimHei-33" d="M 250 1225 
L 700 1300 
Q 800 975 1025 762 
Q 1250 550 1587 562 
Q 1925 575 2125 837 
Q 2325 1100 2300 1437 
Q 2275 1775 2037 1962 
Q 1800 2150 1275 2225 
L 1275 2550 
Q 1800 2600 2037 2825 
Q 2275 3050 2250 3412 
Q 2225 3775 1925 3937 
Q 1625 4100 1287 3975 
Q 950 3850 750 3275 
L 300 3350 
Q 450 3800 712 4100 
Q 975 4400 1425 4450 
Q 1875 4500 2212 4337 
Q 2550 4175 2687 3837 
Q 2825 3500 2725 3100 
Q 2625 2700 2150 2400 
Q 2500 2250 2687 1950 
Q 2875 1650 2812 1162 
Q 2750 675 2375 375 
Q 2000 75 1525 87 
Q 1050 100 700 387 
Q 350 675 250 1225 
z
" transform="scale(0.015625)"/>
       </defs>
       <use xlink:href="#SimHei-32"/>
       <use xlink:href="#SimHei-30" transform="translate(50 0)"/>
       <use xlink:href="#SimHei-32" transform="translate(100 0)"/>
       <use xlink:href="#SimHei-36" transform="translate(150 0)"/>
       <use xlink:href="#SimHei-2d" transform="translate(200 0)"/>
       <use xlink:href="#SimHei-30" transform="translate(250 0)"/>
       <use xlink:href="#SimHei-33" transform="translate(300 0)"/>
      </g>
     </g>
    </g>
    <g id="xtick_7">
     <g id="line2d_13">
      <path d="M 891.665565 555.1125 
L 891.665565 29.5125 
" clip-path="url(#p66c05c2001)" style="fill: none; stroke-dasharray: 1.48,0.64; stroke-dashoffset: 0; stroke: #21262d; stroke-opacity: 0.4; stroke-width: 0.4"/>
     </g>
     <g id="line2d_14">
      <g>
       <use xlink:href="#m2afcb44449" x="891.665565" y="555.1125" style="fill: #c9d1d9; stroke: #c9d1d9; stroke-width: 0.8"/>
      </g>
     </g>
     <g id="text_7">
      <!-- 2026-05 -->
      <g style="fill: #c9d1d9" transform="translate(860.729676 585.566425) rotate(-30) scale(0.1 -0.1)">
       <use xlink:href="#SimHei-32"/>
       <use xlink:href="#SimHei-30" transform="translate(50 0)"/>
       <use xlink:href="#SimHei-32" transform="translate(100 0)"/>
       <use xlink:href="#SimHei-36" transform="translate(150 0)"/>
       <use xlink:href="#SimHei-2d" transform="translate(200 0)"/>
       <use xlink:href="#SimHei-30" transform="translate(250 0)"/>
       <use xlink:href="#SimHei-35" transform="translate(300 0)"/>
      </g>
     </g>
    </g>
    <g id="xtick_8">
     <g id="line2d_15">
      <path d="M 1026.396457 555.1125 
L 1026.396457 29.5125 
" clip-path="url(#p66c05c2001)" style="fill: none; stroke-dasharray: 1.48,0.64; stroke-dashoffset: 0; stroke: #21262d; stroke-opacity: 0.4; stroke-width: 0.4"/>
     </g>
     <g id="line2d_16">
      <g>
       <use xlink:href="#m2afcb44449" x="1026.396457" y="555.1125" style="fill: #c9d1d9; stroke: #c9d1d9; stroke-width: 0.8"/>
      </g>
     </g>
     <g id="text_8">
      <!-- 2026-07 -->
      <g style="fill: #c9d1d9" transform="translate(995.460568 585.566425) rotate(-30) scale(0.1 -0.1)">
       <use xlink:href="#SimHei-32"/>
       <use xlink:href="#SimHei-30" transform="translate(50 0)"/>
       <use xlink:href="#SimHei-32" transform="translate(100 0)"/>
       <use xlink:href="#SimHei-36" transform="translate(150 0)"/>
       <use xlink:href="#SimHei-2d" transform="translate(200 0)"/>
       <use xlink:href="#SimHei-30" transform="translate(250 0)"/>
       <use xlink:href="#SimHei-37" transform="translate(300 0)"/>
      </g>
     </g>
    </g>
   </g>
   <g id="matplotlib.axis_2">
    <g id="ytick_1">
     <g id="line2d_17">
      <path d="M 52.1375 518.023556 
L 1077.4175 518.023556 
" clip-path="url(#p66c05c2001)" style="fill: none; stroke-dasharray: 1.48,0.64; stroke-dashoffset: 0; stroke: #21262d; stroke-opacity: 0.4; stroke-width: 0.4"/>
     </g>
     <g id="line2d_18">
      <defs>
       <path id="m5dd3aa58c9" d="M 0 0 
L -3.5 0 
" style="stroke: #c9d1d9; stroke-width: 0.8"/>
      </defs>
      <g>
       <use xlink:href="#m5dd3aa58c9" x="52.1375" y="518.023556" style="fill: #c9d1d9; stroke: #c9d1d9; stroke-width: 0.8"/>
      </g>
     </g>
     <g id="text_9">
      <!-- 0.012 -->
      <g style="fill: #c9d1d9" transform="translate(20.1375 521.461056) scale(0.1 -0.1)">
       <defs>
        <path id="SimHei-2e" d="M 1075 125 
L 500 125 
L 500 675 
L 1075 675 
L 1075 125 
z
" transform="scale(0.015625)"/>
       </defs>
       <use xlink:href="#SimHei-30"/>
       <use xlink:href="#SimHei-2e" transform="translate(50 0)"/>
       <use xlink:href="#SimHei-30" transform="translate(100 0)"/>
       <use xlink:href="#SimHei-31" transform="translate(150 0)"/>
       <use xlink:href="#SimHei-32" transform="translate(200 0)"/>
      </g>
     </g>
    </g>
    <g id="ytick_2">
     <g id="line2d_19">
      <path d="M 52.1375 441.060927 
L 1077.4175 441.060927 
" clip-path="url(#p66c05c2001)" style="fill: none; stroke-dasharray: 1.48,0.64; stroke-dashoffset: 0; stroke: #21262d; stroke-opacity: 0.4; stroke-width: 0.4"/>
     </g>
     <g id="line2d_20">
      <g>
       <use xlink:href="#m5dd3aa58c9" x="52.1375" y="441.060927" style="fill: #c9d1d9; stroke: #c9d1d9; stroke-width: 0.8"/>
      </g>
     </g>
     <g id="text_10">
      <!-- 0.014 -->
      <g style="fill: #c9d1d9" transform="translate(20.1375 444.498427) scale(0.1 -0.1)">
       <defs>
        <path id="SimHei-34" d="M 2000 1100 
L 75 1100 
L 75 1525 
L 2100 4450 
L 2475 4450 
L 2475 1525 
L 3075 1525 
L 3075 1100 
L 2475 1100 
L 2475 150 
L 2000 150 
L 2000 1100 
z
M 2000 1525 
L 2000 3500 
L 600 1525 
L 2000 1525 
z
" transform="scale(0.015625)"/>
       </defs>
       <use xlink:href="#SimHei-30"/>
       <use xlink:href="#SimHei-2e" transform="translate(50 0)"/>
       <use xlink:href="#SimHei-30" transform="translate(100 0)"/>
       <use xlink:href="#SimHei-31" transform="translate(150 0)"/>
       <use xlink:href="#SimHei-34" transform="translate(200 0)"/>
      </g>
     </g>
    </g>
    <g id="ytick_3">
     <g id="line2d_21">
      <path d="M 52.1375 364.098298 
L 1077.4175 364.098298 
" clip-path="url(#p66c05c2001)" style="fill: none; stroke-dasharray: 1.48,0.64; stroke-dashoffset: 0; stroke: #21262d; stroke-opacity: 0.4; stroke-width: 0.4"/>
     </g>
     <g id="line2d_22">
      <g>
       <use xlink:href="#m5dd3aa58c9" x="52.1375" y="364.098298" style="fill: #c9d1d9; stroke: #c9d1d9; stroke-width: 0.8"/>
      </g>
     </g>
     <g id="text_11">
      <!-- 0.016 -->
      <g style="fill: #c9d1d9" transform="translate(20.1375 367.535798) scale(0.1 -0.1)">
       <use xlink:href="#SimHei-30"/>
       <use xlink:href="#SimHei-2e" transform="translate(50 0)"/>
       <use xlink:href="#SimHei-30" transform="translate(100 0)"/>
       <use xlink:href="#SimHei-31" transform="translate(150 0)"/>
       <use xlink:href="#SimHei-36" transform="translate(200 0)"/>
      </g>
     </g>
    </g>
    <g id="ytick_4">
     <g id="line2d_23">
      <path d="M 52.1375 287.135668 
L 1077.4175 287.135668 
" clip-path="url(#p66c05c2001)" style="fill: none; stroke-dasharray: 1.48,0.64; stroke-dashoffset: 0; stroke: #21262d; stroke-opacity: 0.4; stroke-width: 0.4"/>
     </g>
     <g id="line2d_24">
      <g>
       <use xlink:href="#m5dd3aa58c9" x="52.1375" y="287.135668" style="fill: #c9d1d9; stroke: #c9d1d9; stroke-width: 0.8"/>
      </g>
     </g>
     <g id="text_12">
      <!-- 0.018 -->
      <g style="fill: #c9d1d9" transform="translate(20.1375 290.573168) scale(0.1 -0.1)">
       <defs>
        <path id="SimHei-38" d="M 175 1375 
Q 175 1675 325 1962 
Q 475 2250 825 2425 
Q 525 2600 425 2812 
Q 325 3025 312 3300 
Q 300 3575 387 3775 
Q 475 3975 650 4150 
Q 825 4325 1037 4387 
Q 1250 4450 1500 4450 
Q 1750 4450 1950 4400 
Q 2150 4350 2375 4187 
Q 2600 4025 2700 3725 
Q 2800 3425 2687 3025 
Q 2575 2625 2100 2400 
Q 2525 2275 2700 2012 
Q 2875 1750 2875 1375 
Q 2875 1000 2762 775 
Q 2650 550 2512 400 
Q 2375 250 2137 162 
Q 1900 75 1537 75 
Q 1175 75 912 162 
Q 650 250 475 425 
Q 300 600 237 837 
Q 175 1075 175 1375 
z
M 687 1400 
Q 675 1100 787 875 
Q 900 650 1200 587 
Q 1500 525 1825 600 
Q 2150 675 2275 950 
Q 2400 1225 2362 1500 
Q 2325 1775 2050 1962 
Q 1775 2150 1450 2125 
Q 1125 2100 912 1900 
Q 700 1700 687 1400 
z
M 775 3350 
Q 775 3100 950 2875 
Q 1125 2650 1500 2650 
Q 1875 2650 2062 2875 
Q 2250 3100 2237 3412 
Q 2225 3725 2012 3875 
Q 1800 4025 1437 4000 
Q 1075 3975 925 3787 
Q 775 3600 775 3350 
z
" transform="scale(0.015625)"/>
       </defs>
       <use xlink:href="#SimHei-30"/>
       <use xlink:href="#SimHei-2e" transform="translate(50 0)"/>
       <use xlink:href="#SimHei-30" transform="translate(100 0)"/>
       <use xlink:href="#SimHei-31" transform="translate(150 0)"/>
       <use xlink:href="#SimHei-38" transform="translate(200 0)"/>
      </g>
     </g>
    </g>
    <g id="ytick_5">
     <g id="line2d_25">
      <path d="M 52.1375 210.173039 
L 1077.4175 210.173039 
" clip-path="url(#p66c05c2001)" style="fill: none; stroke-dasharray: 1.48,0.64; stroke-dashoffset: 0; stroke: #21262d; stroke-opacity: 0.4; stroke-width: 0.4"/>
     </g>
     <g id="line2d_26">
      <g>
       <use xlink:href="#m5dd3aa58c9" x="52.1375" y="210.173039" style="fill: #c9d1d9; stroke: #c9d1d9; stroke-width: 0.8"/>
      </g>
     </g>
     <g id="text_13">
      <!-- 0.020 -->
      <g style="fill: #c9d1d9" transform="translate(20.1375 213.610539) scale(0.1 -0.1)">
       <use xlink:href="#SimHei-30"/>
       <use xlink:href="#SimHei-2e" transform="translate(50 0)"/>
       <use xlink:href="#SimHei-30" transform="translate(100 0)"/>
       <use xlink:href="#SimHei-32" transform="translate(150 0)"/>
       <use xlink:href="#SimHei-30" transform="translate(200 0)"/>
      </g>
     </g>
    </g>
    <g id="ytick_6">
     <g id="line2d_27">
      <path d="M 52.1375 133.21041 
L 1077.4175 133.21041 
" clip-path="url(#p66c05c2001)" style="fill: none; stroke-dasharray: 1.48,0.64; stroke-dashoffset: 0; stroke: #21262d; stroke-opacity: 0.4; stroke-width: 0.4"/>
     </g>
     <g id="line2d_28">
      <g>
       <use xlink:href="#m5dd3aa58c9" x="52.1375" y="133.21041" style="fill: #c9d1d9; stroke: #c9d1d9; stroke-width: 0.8"/>
      </g>
     </g>
     <g id="text_14">
      <!-- 0.022 -->
      <g style="fill: #c9d1d9" transform="translate(20.1375 136.64791) scale(0.1 -0.1)">
       <use xlink:href="#SimHei-30"/>
       <use xlink:href="#SimHei-2e" transform="translate(50 0)"/>
       <use xlink:href="#SimHei-30" transform="translate(100 0)"/>
       <use xlink:href="#SimHei-32" transform="translate(150 0)"/>
       <use xlink:href="#SimHei-32" transform="translate(200 0)"/>
      </g>
     </g>
    </g>
    <g id="ytick_7">
     <g id="line2d_29">
      <path d="M 52.1375 56.24778 
L 1077.4175 56.24778 
" clip-path="url(#p66c05c2001)" style="fill: none; stroke-dasharray: 1.48,0.64; stroke-dashoffset: 0; stroke: #21262d; stroke-opacity: 0.4; stroke-width: 0.4"/>
     </g>
     <g id="line2d_30">
      <g>
       <use xlink:href="#m5dd3aa58c9" x="52.1375" y="56.24778" style="fill: #c9d1d9; stroke: #c9d1d9; stroke-width: 0.8"/>
      </g>
     </g>
     <g id="text_15">
      <!-- 0.024 -->
      <g style="fill: #c9d1d9" transform="translate(20.1375 59.68528) scale(0.1 -0.1)">
       <use xlink:href="#SimHei-30"/>
       <use xlink:href="#SimHei-2e" transform="translate(50 0)"/>
       <use xlink:href="#SimHei-30" transform="translate(100 0)"/>
       <use xlink:href="#SimHei-32" transform="translate(150 0)"/>
       <use xlink:href="#SimHei-34" transform="translate(200 0)"/>
      </g>
     </g>
    </g>
    <g id="text_16">
     <!-- Oil/Gold Ratio -->
     <g style="fill: #c9d1d9" transform="translate(14.7625 330.8125) rotate(-90) scale(0.11 -0.11)">
      <defs>
       <path id="SimHei-4f" d="M 2950 2275 
Q 2950 1100 2587 587 
Q 2225 75 1575 75 
Q 925 75 550 587 
Q 175 1100 175 2275 
Q 175 3450 550 3950 
Q 925 4450 1575 4450 
Q 2225 4450 2587 3950 
Q 2950 3450 2950 2275 
z
M 2350 2275 
Q 2350 3325 2125 3650 
Q 1900 3975 1575 3975 
Q 1250 3975 1012 3650 
Q 775 3325 775 2275 
Q 775 1225 1012 887 
Q 1250 550 1575 550 
Q 1900 550 2125 887 
Q 2350 1225 2350 2275 
z
" transform="scale(0.015625)"/>
       <path id="SimHei-69" d="M 1800 3725 
L 1300 3725 
L 1300 4375 
L 1800 4375 
L 1800 3725 
z
M 1800 125 
L 1300 125 
L 1300 2925 
L 1800 2925 
L 1800 125 
z
" transform="scale(0.015625)"/>
       <path id="SimHei-6c" d="M 1825 125 
L 1325 125 
L 1325 4400 
L 1825 4400 
L 1825 125 
z
" transform="scale(0.015625)"/>
       <path id="SimHei-2f" d="M 3000 4550 
L 350 -175 
L 100 -25 
L 2750 4700 
L 3000 4550 
z
" transform="scale(0.015625)"/>
       <path id="SimHei-47" d="M 2850 75 
L 2425 75 
L 2350 425 
Q 2250 275 2037 175 
Q 1825 75 1575 75 
Q 1050 75 637 562 
Q 225 1050 225 2125 
Q 225 3300 600 3875 
Q 975 4450 1625 4450 
Q 2200 4450 2525 4025 
Q 2850 3600 2850 2925 
L 2300 2925 
Q 2300 3450 2125 3712 
Q 1950 3975 1625 3975 
Q 1225 3975 1025 3562 
Q 825 3150 825 2175 
Q 825 1250 1075 900 
Q 1325 550 1650 550 
Q 1975 550 2162 787 
Q 2350 1025 2350 1525 
L 2350 1800 
L 1575 1800 
L 1575 2275 
L 2850 2275 
L 2850 75 
z
" transform="scale(0.015625)"/>
       <path id="SimHei-6f" d="M 2925 1525 
Q 2925 875 2525 475 
Q 2125 75 1575 75 
Q 1025 75 625 475 
Q 225 875 225 1525 
Q 225 2175 625 2575 
Q 1025 2975 1575 2975 
Q 2125 2975 2525 2575 
Q 2925 2175 2925 1525 
z
M 2375 1525 
Q 2375 2025 2125 2275 
Q 1875 2525 1575 2525 
Q 1275 2525 1025 2275 
Q 775 2025 775 1525 
Q 775 1025 1025 775 
Q 1275 525 1575 525 
Q 1875 525 2125 775 
Q 2375 1025 2375 1525 
z
" transform="scale(0.015625)"/>
       <path id="SimHei-64" d="M 2750 125 
L 2250 125 
L 2250 500 
Q 2100 275 1900 175 
Q 1700 75 1425 75 
Q 925 75 575 437 
Q 225 800 225 1525 
Q 225 2250 575 2625 
Q 925 3000 1425 3000 
Q 1700 3000 1900 2887 
Q 2100 2775 2250 2550 
L 2250 4400 
L 2750 4400 
L 2750 125 
z
M 2250 1525 
Q 2250 2000 2037 2275 
Q 1825 2550 1525 2550 
Q 1150 2550 962 2275 
Q 775 2000 775 1525 
Q 775 1050 962 787 
Q 1150 525 1525 525 
Q 1825 525 2037 787 
Q 2250 1050 2250 1525 
z
" transform="scale(0.015625)"/>
       <path id="SimHei-20" transform="scale(0.015625)"/>
       <path id="SimHei-52" d="M 3000 125 
L 2400 125 
L 1500 1975 
L 850 1975 
L 850 125 
L 275 125 
L 275 4400 
L 1525 4400 
Q 2125 4400 2500 4112 
Q 2875 3825 2875 3175 
Q 2875 2675 2625 2400 
Q 2375 2125 2050 2050 
L 3000 125 
z
M 2300 3175 
Q 2300 3525 2087 3725 
Q 1875 3925 1400 3925 
L 850 3925 
L 850 2450 
L 1550 2450 
Q 1850 2450 2075 2612 
Q 2300 2775 2300 3175 
z
" transform="scale(0.015625)"/>
       <path id="SimHei-61" d="M 2875 125 
L 2275 125 
Q 2225 175 2200 262 
Q 2175 350 2175 475 
Q 2000 275 1750 175 
Q 1500 75 1225 75 
Q 825 75 550 275 
Q 275 475 275 850 
Q 275 1225 525 1450 
Q 775 1675 1300 1750 
Q 1650 1800 1912 1875 
Q 2175 1950 2175 2075 
Q 2175 2225 2062 2375 
Q 1950 2525 1575 2525 
Q 1275 2525 1137 2412 
Q 1000 2300 950 2100 
L 400 2100 
Q 450 2500 762 2737 
Q 1075 2975 1575 2975 
Q 2125 2975 2400 2725 
Q 2675 2475 2675 2025 
L 2675 650 
Q 2675 500 2725 375 
Q 2775 250 2875 125 
z
M 2175 1050 
L 2175 1550 
Q 2025 1500 1887 1462 
Q 1750 1425 1425 1375 
Q 1050 1325 937 1200 
Q 825 1075 825 900 
Q 825 750 937 637 
Q 1050 525 1275 525 
Q 1500 525 1762 650 
Q 2025 775 2175 1050 
z
" transform="scale(0.015625)"/>
       <path id="SimHei-74" d="M 2750 200 
Q 2625 150 2462 112 
Q 2300 75 2025 75 
Q 1575 75 1300 325 
Q 1025 575 1025 1025 
L 1025 2525 
L 175 2525 
L 175 2925 
L 1025 2925 
L 1025 3900 
L 1525 3900 
L 1525 2925 
L 2550 2925 
L 2550 2525 
L 1525 2525 
L 1525 1000 
Q 1525 800 1625 662 
Q 1725 525 2000 525 
Q 2275 525 2450 575 
Q 2625 625 2750 700 
L 2750 200 
z
" transform="scale(0.015625)"/>
      </defs>
      <use xlink:href="#SimHei-4f"/>
      <use xlink:href="#SimHei-69" transform="translate(50 0)"/>
      <use xlink:href="#SimHei-6c" transform="translate(100 0)"/>
      <use xlink:href="#SimHei-2f" transform="translate(150 0)"/>
      <use xlink:href="#SimHei-47" transform="translate(200 0)"/>
      <use xlink:href="#SimHei-6f" transform="translate(250 0)"/>
      <use xlink:href="#SimHei-6c" transform="translate(300 0)"/>
      <use xlink:href="#SimHei-64" transform="translate(350 0)"/>
      <use xlink:href="#SimHei-20" transform="translate(400 0)"/>
      <use xlink:href="#SimHei-52" transform="translate(450 0)"/>
      <use xlink:href="#SimHei-61" transform="translate(500 0)"/>
      <use xlink:href="#SimHei-74" transform="translate(550 0)"/>
      <use xlink:href="#SimHei-69" transform="translate(600 0)"/>
      <use xlink:href="#SimHei-6f" transform="translate(650 0)"/>
     </g>
    </g>
   </g>
   <g id="line2d_31">
    <path d="M 98.741136 318.665608 
L 100.94984 284.133984 
L 103.158543 279.550604 
L 109.784652 249.252656 
L 111.993355 232.756942 
L 114.202058 224.618504 
L 116.410762 253.499516 
L 118.619465 236.393927 
L 125.245574 239.893121 
L 129.66298 274.293226 
L 134.080387 278.021075 
L 140.706496 277.378041 
L 142.915199 273.577976 
L 145.123902 261.063183 
L 147.332606 278.495737 
L 149.541309 273.824595 
L 156.167418 267.856036 
L 158.376121 258.125117 
L 160.584824 269.233905 
L 162.793528 258.844607 
L 165.002231 231.545129 
L 171.62834 228.111438 
L 173.837043 247.473889 
L 176.045746 216.077634 
L 178.25445 217.787509 
L 180.463153 182.754057 
L 187.089262 187.992499 
L 189.297965 146.77557 
L 191.506668 149.201966 
L 193.715372 141.031187 
L 195.924075 138.063212 
L 204.758887 230.507662 
L 206.96759 233.330588 
L 209.176294 228.784299 
L 211.384997 217.784985 
L 220.219809 227.106334 
L 222.428512 208.436559 
L 224.637216 205.097566 
L 226.845919 230.756201 
L 233.472028 215.554719 
L 235.680731 203.036538 
L 237.889435 204.798651 
L 240.098138 222.642232 
L 242.306841 210.926612 
L 248.93295 226.15287 
L 251.141653 222.375023 
L 253.350357 229.907047 
L 255.55906 217.121118 
L 264.393872 237.660498 
L 266.602575 248.476691 
L 268.811279 251.070086 
L 271.019982 237.374342 
L 273.228685 242.293693 
L 279.854794 215.401447 
L 284.272201 166.878958 
L 286.480904 181.228293 
L 288.689607 222.047415 
L 295.315716 236.549323 
L 301.941826 274.774528 
L 304.150529 274.979926 
L 310.776638 263.852075 
L 315.194045 279.143013 
L 317.402748 262.761856 
L 319.611451 270.983917 
L 326.23756 266.903929 
L 328.446263 269.588335 
L 330.654967 266.917692 
L 332.86367 257.784183 
L 335.072373 261.639123 
L 341.698482 249.347121 
L 343.907185 272.427155 
L 346.115889 267.987541 
L 348.324592 268.014546 
L 350.533295 279.363014 
L 359.368107 278.486861 
L 361.576811 301.943043 
L 363.785514 303.262311 
L 365.994217 331.888858 
L 372.620326 333.107309 
L 377.037733 319.310079 
L 379.246436 333.083601 
L 381.455139 330.550646 
L 388.081248 330.684507 
L 390.289952 320.945542 
L 394.707358 321.408007 
L 396.916061 338.961393 
L 403.54217 349.418588 
L 405.750874 339.542096 
L 407.959577 323.909607 
L 410.16828 322.411479 
L 412.376983 323.348598 
L 423.420499 372.714727 
L 427.837905 386.152262 
L 434.464014 387.043558 
L 436.672718 388.406935 
L 438.881421 394.253257 
L 441.090124 391.294472 
L 443.298827 428.431534 
L 449.924936 428.748472 
L 454.342343 448.85611 
L 456.551046 475.396465 
L 458.759749 463.691053 
L 465.385858 479.020524 
L 469.803265 424.643729 
L 472.011968 406.220791 
L 474.220671 406.842049 
L 480.84678 387.319947 
L 483.055484 396.217141 
L 485.264187 390.520636 
L 487.47289 405.371704 
L 489.681593 396.150559 
L 496.307702 394.822752 
L 498.516406 389.86707 
L 500.725109 404.797833 
L 505.142515 405.416958 
L 511.768625 420.452937 
L 513.977328 412.043757 
L 516.186031 444.18648 
L 518.394734 440.258945 
L 520.603437 416.087947 
L 527.229547 412.386859 
L 529.43825 406.681422 
L 531.646953 419.201283 
L 533.855656 425.130724 
L 536.064359 435.578349 
L 542.690469 436.394735 
L 544.899172 442.962494 
L 547.107875 442.840092 
L 549.316578 436.968108 
L 551.525281 450.931084 
L 558.151391 442.892726 
L 560.360094 447.914236 
L 566.986203 432.433058 
L 573.612313 443.211292 
L 575.821016 449.389068 
L 578.029719 448.760805 
L 580.238422 464.179006 
L 582.447125 470.163665 
L 589.073235 477.996526 
L 591.281938 490.633089 
L 593.490641 480.360993 
L 595.699344 486.844846 
L 597.908047 481.859735 
L 606.74286 481.512036 
L 608.951563 481.048147 
L 613.368969 499.658069 
L 619.995079 468.384173 
L 622.203782 467.463674 
L 624.412485 469.9248 
L 628.829891 471.784648 
L 635.456001 476.379689 
L 637.664704 493.423801 
L 639.873407 494.830519 
L 642.08211 480.292574 
L 650.916923 481.706628 
L 653.125626 470.043154 
L 655.334329 474.062946 
L 657.543032 487.164547 
L 659.751735 484.491142 
L 666.377845 490.831619 
L 668.586548 499.670532 
L 670.795251 496.992367 
L 673.003954 514.912885 
L 675.212657 509.965316 
L 684.04747 518.37464 
L 686.256173 531.221591 
L 688.464876 514.003587 
L 690.673579 464.467976 
L 697.299689 467.504295 
L 699.508392 484.890203 
L 701.717095 482.345148 
L 703.925798 473.438796 
L 706.134501 489.968411 
L 712.760611 492.110397 
L 714.969314 490.39618 
L 719.38672 491.287399 
L 721.595423 503.457389 
L 728.221533 491.97991 
L 730.430236 490.943123 
L 734.847642 468.142588 
L 737.056345 482.317697 
L 743.682455 493.741182 
L 745.891158 487.038059 
L 748.099861 492.925335 
L 750.308564 495.573842 
L 752.517267 490.881303 
L 759.143377 467.816176 
L 761.35208 415.24067 
L 763.560783 411.423831 
L 765.769486 383.681256 
L 767.978189 301.639232 
L 774.604299 344.187493 
L 776.813002 351.711294 
L 779.021705 333.445679 
L 781.230408 259.921092 
L 783.439111 235.147971 
L 790.065221 264.216119 
L 792.273924 248.22971 
L 794.482627 189.825221 
L 796.69133 197.330488 
L 798.900033 146.398901 
L 807.734846 224.950547 
L 809.943549 205.319815 
L 814.360955 118.880776 
L 820.987065 90.080488 
L 825.404471 184.657721 
L 827.613174 62.801971 
L 836.447987 53.403409 
L 838.65669 82.490327 
L 840.865393 197.18076 
L 843.074096 193.094154 
L 845.282799 208.511406 
L 851.908909 188.890519 
L 854.117612 251.802257 
L 856.326315 249.170806 
L 858.535018 234.411348 
L 860.743721 300.773329 
L 867.369831 283.326172 
L 869.578534 247.189296 
L 871.787237 228.806335 
L 873.99594 187.224491 
L 876.204643 207.257479 
L 882.830753 187.842949 
L 885.039456 148.127408 
L 887.248159 63.955527 
L 889.456862 104.929682 
L 891.665565 127.311966 
L 898.291675 87.406396 
L 900.500378 115.054475 
L 902.709081 192.447181 
L 904.917784 180.403686 
L 907.126488 208.429554 
L 913.752597 183.08894 
L 915.9613 148.290672 
L 918.170003 152.290875 
L 922.58741 122.983848 
L 929.213519 116.988076 
L 931.422222 87.281292 
L 933.630925 141.390503 
L 938.048332 158.133949 
L 944.674441 225.181821 
L 946.883144 186.921387 
L 949.091847 213.208195 
L 953.509254 240.5579 
L 960.135363 191.728465 
L 962.344066 184.661882 
L 964.552769 150.450991 
L 966.761472 185.797437 
L 968.970176 182.119455 
L 975.596285 173.173985 
L 977.804988 183.355478 
L 980.013691 116.481692 
L 982.222394 194.266035 
L 984.431098 215.055925 
L 991.057207 258.70787 
L 993.26591 309.417488 
L 995.474613 304.920643 
L 997.683316 292.434711 
L 999.89202 273.942707 
L 1006.518129 302.991831 
L 1008.726832 299.094376 
L 1010.935535 310.354954 
L 1013.144238 299.485109 
L 1015.352942 320.934389 
L 1021.979051 307.445675 
L 1024.187754 309.543866 
L 1026.396457 331.989461 
L 1028.60516 342.864019 
L 1030.813864 347.819014 
L 1030.813864 347.819014 
" clip-path="url(#p66c05c2001)" style="fill: none; stroke: #f85149; stroke-width: 2; stroke-linecap: square"/>
   </g>
   <g id="patch_3">
    <path d="M 52.1375 555.1125 
L 52.1375 29.5125 
" style="fill: none; stroke: #30363d; stroke-width: 0.8; stroke-linejoin: miter; stroke-linecap: square"/>
   </g>
   <g id="patch_4">
    <path d="M 1077.4175 555.1125 
L 1077.4175 29.5125 
" style="fill: none; stroke: #30363d; stroke-width: 0.8; stroke-linejoin: miter; stroke-linecap: square"/>
   </g>
   <g id="patch_5">
    <path d="M 52.1375 555.1125 
L 1077.4175 555.1125 
" style="fill: none; stroke: #30363d; stroke-width: 0.8; stroke-linejoin: miter; stroke-linecap: square"/>
   </g>
   <g id="patch_6">
    <path d="M 52.1375 29.5125 
L 1077.4175 29.5125 
" style="fill: none; stroke: #30363d; stroke-width: 0.8; stroke-linejoin: miter; stroke-linecap: square"/>
   </g>
   <g id="text_17">
    <!-- 2026-07-04 -->
    <g style="fill: #8b949e; opacity: 0.6" transform="translate(1022.1647 548.7315) scale(0.09 -0.09)">
     <use xlink:href="#SimHei-32"/>
     <use xlink:href="#SimHei-30" transform="translate(50 0)"/>
     <use xlink:href="#SimHei-32" transform="translate(100 0)"/>
     <use xlink:href="#SimHei-36" transform="translate(150 0)"/>
     <use xlink:href="#SimHei-2d" transform="translate(200 0)"/>
     <use xlink:href="#SimHei-30" transform="translate(250 0)"/>
     <use xlink:href="#SimHei-37" transform="translate(300 0)"/>
     <use xlink:href="#SimHei-2d" transform="translate(350 0)"/>
     <use xlink:href="#SimHei-30" transform="translate(400 0)"/>
     <use xlink:href="#SimHei-34" transform="translate(450 0)"/>
    </g>
   </g>
   <g id="text_18">
    <!-- Oil/Gold Ratio vs US 10Y Yield -->
    <g style="fill: #c9d1d9" transform="translate(452.2775 17.5125) scale(0.15 -0.15)">
     <defs>
      <path id="SimHei-76" d="M 2875 2925 
L 1825 75 
L 1275 75 
L 225 2925 
L 750 2925 
L 1525 750 
L 1575 750 
L 2350 2925 
L 2875 2925 
z
" transform="scale(0.015625)"/>
      <path id="SimHei-73" d="M 2750 900 
Q 2750 500 2437 287 
Q 2125 75 1650 75 
Q 1050 75 725 312 
Q 400 550 400 1000 
L 900 1000 
Q 900 700 1112 600 
Q 1325 500 1625 500 
Q 1925 500 2075 612 
Q 2225 725 2225 900 
Q 2225 1025 2100 1150 
Q 1975 1275 1475 1350 
Q 900 1425 687 1637 
Q 475 1850 475 2200 
Q 475 2500 762 2737 
Q 1050 2975 1600 2975 
Q 2100 2975 2387 2750 
Q 2675 2525 2675 2150 
L 2175 2150 
Q 2175 2375 2012 2462 
Q 1850 2550 1600 2550 
Q 1275 2550 1137 2437 
Q 1000 2325 1000 2175 
Q 1000 2000 1125 1900 
Q 1250 1800 1650 1750 
Q 2300 1650 2525 1437 
Q 2750 1225 2750 900 
z
" transform="scale(0.015625)"/>
      <path id="SimHei-55" d="M 2875 1375 
Q 2875 775 2562 425 
Q 2250 75 1575 75 
Q 900 75 587 425 
Q 275 775 275 1375 
L 275 4400 
L 850 4400 
L 850 1375 
Q 850 950 1050 750 
Q 1250 550 1575 550 
Q 1900 550 2100 750 
Q 2300 950 2300 1375 
L 2300 4400 
L 2875 4400 
L 2875 1375 
z
" transform="scale(0.015625)"/>
      <path id="SimHei-53" d="M 2900 1325 
Q 2900 750 2537 412 
Q 2175 75 1550 75 
Q 925 75 575 425 
Q 225 775 225 1300 
L 225 1475 
L 800 1475 
L 800 1325 
Q 800 950 1025 750 
Q 1250 550 1550 550 
Q 1950 550 2137 762 
Q 2325 975 2325 1275 
Q 2325 1525 2100 1737 
Q 1875 1950 1450 2125 
Q 850 2350 587 2625 
Q 325 2900 325 3275 
Q 325 3800 687 4125 
Q 1050 4450 1550 4450 
Q 2200 4450 2487 4062 
Q 2775 3675 2775 3225 
L 2200 3225 
Q 2225 3500 2050 3725 
Q 1875 3950 1550 3950 
Q 1250 3950 1075 3787 
Q 900 3625 900 3350 
Q 900 3125 1037 2962 
Q 1175 2800 1750 2575 
Q 2300 2350 2600 2037 
Q 2900 1725 2900 1325 
z
" transform="scale(0.015625)"/>
      <path id="SimHei-59" d="M 3025 4400 
L 1850 2050 
L 1850 125 
L 1275 125 
L 1275 2050 
L 100 4400 
L 675 4400 
L 1550 2575 
L 1575 2575 
L 2450 4400 
L 3025 4400 
z
" transform="scale(0.015625)"/>
      <path id="SimHei-65" d="M 2850 1075 
Q 2800 625 2450 350 
Q 2100 75 1625 75 
Q 1025 75 637 462 
Q 250 850 250 1525 
Q 250 2200 637 2587 
Q 1025 2975 1625 2975 
Q 2150 2975 2487 2637 
Q 2825 2300 2825 1525 
L 800 1525 
Q 800 975 1037 750 
Q 1275 525 1625 525 
Q 1900 525 2075 662 
Q 2250 800 2300 1075 
L 2850 1075 
z
M 2250 1925 
Q 2200 2275 2025 2412 
Q 1850 2550 1575 2550 
Q 1325 2550 1125 2412 
Q 925 2275 825 1925 
L 2250 1925 
z
" transform="scale(0.015625)"/>
     </defs>
     <use xlink:href="#SimHei-4f"/>
     <use xlink:href="#SimHei-69" transform="translate(50 0)"/>
     <use xlink:href="#SimHei-6c" transform="translate(100 0)"/>
     <use xlink:href="#SimHei-2f" transform="translate(150 0)"/>
     <use xlink:href="#SimHei-47" transform="translate(200 0)"/>
     <use xlink:href="#SimHei-6f" transform="translate(250 0)"/>
     <use xlink:href="#SimHei-6c" transform="translate(300 0)"/>
     <use xlink:href="#SimHei-64" transform="translate(350 0)"/>
     <use xlink:href="#SimHei-20" transform="translate(400 0)"/>
     <use xlink:href="#SimHei-52" transform="translate(450 0)"/>
     <use xlink:href="#SimHei-61" transform="translate(500 0)"/>
     <use xlink:href="#SimHei-74" transform="translate(550 0)"/>
     <use xlink:href="#SimHei-69" transform="translate(600 0)"/>
     <use xlink:href="#SimHei-6f" transform="translate(650 0)"/>
     <use xlink:href="#SimHei-20" transform="translate(700 0)"/>
     <use xlink:href="#SimHei-76" transform="translate(750 0)"/>
     <use xlink:href="#SimHei-73" transform="translate(800 0)"/>
     <use xlink:href="#SimHei-20" transform="translate(850 0)"/>
     <use xlink:href="#SimHei-55" transform="translate(900 0)"/>
     <use xlink:href="#SimHei-53" transform="translate(950 0)"/>
     <use xlink:href="#SimHei-20" transform="translate(1000 0)"/>
     <use xlink:href="#SimHei-31" transform="translate(1050 0)"/>
     <use xlink:href="#SimHei-30" transform="translate(1100 0)"/>
     <use xlink:href="#SimHei-59" transform="translate(1150 0)"/>
     <use xlink:href="#SimHei-20" transform="translate(1200 0)"/>
     <use xlink:href="#SimHei-59" transform="translate(1250 0)"/>
     <use xlink:href="#SimHei-69" transform="translate(1300 0)"/>
     <use xlink:href="#SimHei-65" transform="translate(1350 0)"/>
     <use xlink:href="#SimHei-6c" transform="translate(1400 0)"/>
     <use xlink:href="#SimHei-64" transform="translate(1450 0)"/>
    </g>
   </g>
   <g id="legend_1">
    <g id="patch_7">
     <path d="M 59.1375 64.0125 
L 161.1375 64.0125 
Q 163.1375 64.0125 163.1375 62.0125 
L 163.1375 36.5125 
Q 163.1375 34.5125 161.1375 34.5125 
L 59.1375 34.5125 
Q 57.1375 34.5125 57.1375 36.5125 
L 57.1375 62.0125 
Q 57.1375 64.0125 59.1375 64.0125 
z
" style="fill: #161b22; opacity: 0.9; stroke: #30363d; stroke-linejoin: miter"/>
    </g>
    <g id="line2d_32">
     <path d="M 61.1375 42.0125 
L 71.1375 42.0125 
L 81.1375 42.0125 
" style="fill: none; stroke: #f85149; stroke-width: 2; stroke-linecap: square"/>
    </g>
    <g id="text_19">
     <!-- Oil/Gold Ratio -->
     <g style="fill: #c9d1d9" transform="translate(89.1375 45.5125) scale(0.1 -0.1)">
      <use xlink:href="#SimHei-4f"/>
      <use xlink:href="#SimHei-69" transform="translate(50 0)"/>
      <use xlink:href="#SimHei-6c" transform="translate(100 0)"/>
      <use xlink:href="#SimHei-2f" transform="translate(150 0)"/>
      <use xlink:href="#SimHei-47" transform="translate(200 0)"/>
      <use xlink:href="#SimHei-6f" transform="translate(250 0)"/>
      <use xlink:href="#SimHei-6c" transform="translate(300 0)"/>
      <use xlink:href="#SimHei-64" transform="translate(350 0)"/>
      <use xlink:href="#SimHei-20" transform="translate(400 0)"/>
      <use xlink:href="#SimHei-52" transform="translate(450 0)"/>
      <use xlink:href="#SimHei-61" transform="translate(500 0)"/>
      <use xlink:href="#SimHei-74" transform="translate(550 0)"/>
      <use xlink:href="#SimHei-69" transform="translate(600 0)"/>
      <use xlink:href="#SimHei-6f" transform="translate(650 0)"/>
     </g>
    </g>
    <g id="line2d_33">
     <path d="M 61.1375 55.2625 
L 71.1375 55.2625 
L 81.1375 55.2625 
" style="fill: none; stroke: #58a6ff; stroke-width: 2; stroke-linecap: square"/>
    </g>
    <g id="text_20">
     <!-- US 10Y Yield -->
     <g style="fill: #c9d1d9" transform="translate(89.1375 58.7625) scale(0.1 -0.1)">
      <use xlink:href="#SimHei-55"/>
      <use xlink:href="#SimHei-53" transform="translate(50 0)"/>
      <use xlink:href="#SimHei-20" transform="translate(100 0)"/>
      <use xlink:href="#SimHei-31" transform="translate(150 0)"/>
      <use xlink:href="#SimHei-30" transform="translate(200 0)"/>
      <use xlink:href="#SimHei-59" transform="translate(250 0)"/>
      <use xlink:href="#SimHei-20" transform="translate(300 0)"/>
      <use xlink:href="#SimHei-59" transform="translate(350 0)"/>
      <use xlink:href="#SimHei-69" transform="translate(400 0)"/>
      <use xlink:href="#SimHei-65" transform="translate(450 0)"/>
      <use xlink:href="#SimHei-6c" transform="translate(500 0)"/>
      <use xlink:href="#SimHei-64" transform="translate(550 0)"/>
     </g>
    </g>
   </g>
  </g>
  <g id="axes_2">
   <g id="matplotlib.axis_3">
    <g id="ytick_8">
     <g id="line2d_34">
      <path d="M 52.1375 510.743669 
L 1077.4175 510.743669 
" clip-path="url(#p66c05c2001)" style="fill: none; stroke-dasharray: 1.48,0.64; stroke-dashoffset: 0; stroke: #21262d; stroke-opacity: 0.4; stroke-width: 0.4"/>
     </g>
     <g id="line2d_35">
      <defs>
       <path id="mcac60da4db" d="M 0 0 
L 3.5 0 
" style="stroke: #c9d1d9; stroke-width: 0.8"/>
      </defs>
      <g>
       <use xlink:href="#mcac60da4db" x="1077.4175" y="510.743669" style="fill: #c9d1d9; stroke: #c9d1d9; stroke-width: 0.8"/>
      </g>
     </g>
     <g id="text_21">
      <!-- 4.0 -->
      <g style="fill: #c9d1d9" transform="translate(1084.4175 514.181169) scale(0.1 -0.1)">
       <use xlink:href="#SimHei-34"/>
       <use xlink:href="#SimHei-2e" transform="translate(50 0)"/>
       <use xlink:href="#SimHei-30" transform="translate(100 0)"/>
      </g>
     </g>
    </g>
    <g id="ytick_9">
     <g id="line2d_36">
      <path d="M 52.1375 442.483929 
L 1077.4175 442.483929 
" clip-path="url(#p66c05c2001)" style="fill: none; stroke-dasharray: 1.48,0.64; stroke-dashoffset: 0; stroke: #21262d; stroke-opacity: 0.4; stroke-width: 0.4"/>
     </g>
     <g id="line2d_37">
      <g>
       <use xlink:href="#mcac60da4db" x="1077.4175" y="442.483929" style="fill: #c9d1d9; stroke: #c9d1d9; stroke-width: 0.8"/>
      </g>
     </g>
     <g id="text_22">
      <!-- 4.1 -->
      <g style="fill: #c9d1d9" transform="translate(1084.4175 445.921429) scale(0.1 -0.1)">
       <use xlink:href="#SimHei-34"/>
       <use xlink:href="#SimHei-2e" transform="translate(50 0)"/>
       <use xlink:href="#SimHei-31" transform="translate(100 0)"/>
      </g>
     </g>
    </g>
    <g id="ytick_10">
     <g id="line2d_38">
      <path d="M 52.1375 374.224188 
L 1077.4175 374.224188 
" clip-path="url(#p66c05c2001)" style="fill: none; stroke-dasharray: 1.48,0.64; stroke-dashoffset: 0; stroke: #21262d; stroke-opacity: 0.4; stroke-width: 0.4"/>
     </g>
     <g id="line2d_39">
      <g>
       <use xlink:href="#mcac60da4db" x="1077.4175" y="374.224188" style="fill: #c9d1d9; stroke: #c9d1d9; stroke-width: 0.8"/>
      </g>
     </g>
     <g id="text_23">
      <!-- 4.2 -->
      <g style="fill: #c9d1d9" transform="translate(1084.4175 377.661688) scale(0.1 -0.1)">
       <use xlink:href="#SimHei-34"/>
       <use xlink:href="#SimHei-2e" transform="translate(50 0)"/>
       <use xlink:href="#SimHei-32" transform="translate(100 0)"/>
      </g>
     </g>
    </g>
    <g id="ytick_11">
     <g id="line2d_40">
      <path d="M 52.1375 305.964448 
L 1077.4175 305.964448 
" clip-path="url(#p66c05c2001)" style="fill: none; stroke-dasharray: 1.48,0.64; stroke-dashoffset: 0; stroke: #21262d; stroke-opacity: 0.4; stroke-width: 0.4"/>
     </g>
     <g id="line2d_41">
      <g>
       <use xlink:href="#mcac60da4db" x="1077.4175" y="305.964448" style="fill: #c9d1d9; stroke: #c9d1d9; stroke-width: 0.8"/>
      </g>
     </g>
     <g id="text_24">
      <!-- 4.3 -->
      <g style="fill: #c9d1d9" transform="translate(1084.4175 309.401948) scale(0.1 -0.1)">
       <use xlink:href="#SimHei-34"/>
       <use xlink:href="#SimHei-2e" transform="translate(50 0)"/>
       <use xlink:href="#SimHei-33" transform="translate(100 0)"/>
      </g>
     </g>
    </g>
    <g id="ytick_12">
     <g id="line2d_42">
      <path d="M 52.1375 237.704708 
L 1077.4175 237.704708 
" clip-path="url(#p66c05c2001)" style="fill: none; stroke-dasharray: 1.48,0.64; stroke-dashoffset: 0; stroke: #21262d; stroke-opacity: 0.4; stroke-width: 0.4"/>
     </g>
     <g id="line2d_43">
      <g>
       <use xlink:href="#mcac60da4db" x="1077.4175" y="237.704708" style="fill: #c9d1d9; stroke: #c9d1d9; stroke-width: 0.8"/>
      </g>
     </g>
     <g id="text_25">
      <!-- 4.4 -->
      <g style="fill: #c9d1d9" transform="translate(1084.4175 241.142208) scale(0.1 -0.1)">
       <use xlink:href="#SimHei-34"/>
       <use xlink:href="#SimHei-2e" transform="translate(50 0)"/>
       <use xlink:href="#SimHei-34" transform="translate(100 0)"/>
      </g>
     </g>
    </g>
    <g id="ytick_13">
     <g id="line2d_44">
      <path d="M 52.1375 169.444968 
L 1077.4175 169.444968 
" clip-path="url(#p66c05c2001)" style="fill: none; stroke-dasharray: 1.48,0.64; stroke-dashoffset: 0; stroke: #21262d; stroke-opacity: 0.4; stroke-width: 0.4"/>
     </g>
     <g id="line2d_45">
      <g>
       <use xlink:href="#mcac60da4db" x="1077.4175" y="169.444968" style="fill: #c9d1d9; stroke: #c9d1d9; stroke-width: 0.8"/>
      </g>
     </g>
     <g id="text_26">
      <!-- 4.5 -->
      <g style="fill: #c9d1d9" transform="translate(1084.4175 172.882468) scale(0.1 -0.1)">
       <use xlink:href="#SimHei-34"/>
       <use xlink:href="#SimHei-2e" transform="translate(50 0)"/>
       <use xlink:href="#SimHei-35" transform="translate(100 0)"/>
      </g>
     </g>
    </g>
    <g id="ytick_14">
     <g id="line2d_46">
      <path d="M 52.1375 101.185227 
L 1077.4175 101.185227 
" clip-path="url(#p66c05c2001)" style="fill: none; stroke-dasharray: 1.48,0.64; stroke-dashoffset: 0; stroke: #21262d; stroke-opacity: 0.4; stroke-width: 0.4"/>
     </g>
     <g id="line2d_47">
      <g>
       <use xlink:href="#mcac60da4db" x="1077.4175" y="101.185227" style="fill: #c9d1d9; stroke: #c9d1d9; stroke-width: 0.8"/>
      </g>
     </g>
     <g id="text_27">
      <!-- 4.6 -->
      <g style="fill: #c9d1d9" transform="translate(1084.4175 104.622727) scale(0.1 -0.1)">
       <use xlink:href="#SimHei-34"/>
       <use xlink:href="#SimHei-2e" transform="translate(50 0)"/>
       <use xlink:href="#SimHei-36" transform="translate(100 0)"/>
      </g>
     </g>
    </g>
    <g id="ytick_15">
     <g id="line2d_48">
      <path d="M 52.1375 32.925487 
L 1077.4175 32.925487 
" clip-path="url(#p66c05c2001)" style="fill: none; stroke-dasharray: 1.48,0.64; stroke-dashoffset: 0; stroke: #21262d; stroke-opacity: 0.4; stroke-width: 0.4"/>
     </g>
     <g id="line2d_49">
      <g>
       <use xlink:href="#mcac60da4db" x="1077.4175" y="32.925487" style="fill: #c9d1d9; stroke: #c9d1d9; stroke-width: 0.8"/>
      </g>
     </g>
     <g id="text_28">
      <!-- 4.7 -->
      <g style="fill: #c9d1d9" transform="translate(1084.4175 36.362987) scale(0.1 -0.1)">
       <use xlink:href="#SimHei-34"/>
       <use xlink:href="#SimHei-2e" transform="translate(50 0)"/>
       <use xlink:href="#SimHei-37" transform="translate(100 0)"/>
      </g>
     </g>
    </g>
    <g id="text_29">
     <!-- US 10Y Yield (%) -->
     <g style="fill: #c9d1d9" transform="translate(1111.452656 336.3125) rotate(-90) scale(0.11 -0.11)">
      <defs>
       <path id="SimHei-28" d="M 2975 -200 
L 2700 -475 
Q 2075 125 1762 775 
Q 1450 1425 1450 2250 
Q 1450 3075 1762 3725 
Q 2075 4375 2700 5000 
L 2975 4725 
Q 2400 4175 2112 3587 
Q 1825 3000 1825 2250 
Q 1825 1500 2112 912 
Q 2400 325 2975 -200 
z
" transform="scale(0.015625)"/>
       <path id="SimHei-25" d="M 1400 3325 
Q 1400 2600 1187 2400 
Q 975 2200 775 2200 
Q 575 2200 362 2400 
Q 150 2600 150 3325 
Q 150 4050 362 4250 
Q 575 4450 775 4450 
Q 975 4450 1187 4250 
Q 1400 4050 1400 3325 
z
M 2625 4375 
L 700 75 
L 500 150 
L 2425 4450 
L 2625 4375 
z
M 2975 1200 
Q 2975 475 2762 275 
Q 2550 75 2350 75 
Q 2150 75 1937 275 
Q 1725 475 1725 1200 
Q 1725 1925 1937 2125 
Q 2150 2325 2350 2325 
Q 2550 2325 2762 2125 
Q 2975 1925 2975 1200 
z
M 1000 3325 
Q 1000 3775 950 3925 
Q 900 4075 775 4075 
Q 650 4075 600 3925 
Q 550 3775 550 3325 
Q 550 2875 600 2725 
Q 650 2575 775 2575 
Q 900 2575 950 2725 
Q 1000 2875 1000 3325 
z
M 2575 1200 
Q 2575 1650 2525 1800 
Q 2475 1950 2350 1950 
Q 2225 1950 2175 1800 
Q 2125 1650 2125 1200 
Q 2125 750 2175 600 
Q 2225 450 2350 450 
Q 2475 450 2525 600 
Q 2575 750 2575 1200 
z
" transform="scale(0.015625)"/>
       <path id="SimHei-29" d="M 1675 2250 
Q 1675 1425 1362 775 
Q 1050 125 425 -475 
L 150 -200 
Q 725 325 1012 912 
Q 1300 1500 1300 2250 
Q 1300 3000 1012 3587 
Q 725 4175 150 4725 
L 425 5000 
Q 1050 4375 1362 3725 
Q 1675 3075 1675 2250 
z
" transform="scale(0.015625)"/>
      </defs>
      <use xlink:href="#SimHei-55"/>
      <use xlink:href="#SimHei-53" transform="translate(50 0)"/>
      <use xlink:href="#SimHei-20" transform="translate(100 0)"/>
      <use xlink:href="#SimHei-31" transform="translate(150 0)"/>
      <use xlink:href="#SimHei-30" transform="translate(200 0)"/>
      <use xlink:href="#SimHei-59" transform="translate(250 0)"/>
      <use xlink:href="#SimHei-20" transform="translate(300 0)"/>
      <use xlink:href="#SimHei-59" transform="translate(350 0)"/>
      <use xlink:href="#SimHei-69" transform="translate(400 0)"/>
      <use xlink:href="#SimHei-65" transform="translate(450 0)"/>
      <use xlink:href="#SimHei-6c" transform="translate(500 0)"/>
      <use xlink:href="#SimHei-64" transform="translate(550 0)"/>
      <use xlink:href="#SimHei-20" transform="translate(600 0)"/>
      <use xlink:href="#SimHei-28" transform="translate(650 0)"/>
      <use xlink:href="#SimHei-25" transform="translate(700 0)"/>
      <use xlink:href="#SimHei-29" transform="translate(750 0)"/>
     </g>
    </g>
   </g>
   <g id="line2d_50">
    <path d="M 116.410762 203.574838 
L 118.619465 217.226786 
L 125.245574 196.748864 
L 127.454277 183.096916 
L 129.66298 114.837175 
L 134.080387 162.618994 
L 140.706496 162.618994 
L 142.915199 217.226786 
L 145.123902 189.92289 
L 147.332606 217.226786 
L 149.541309 230.878734 
L 156.167418 196.748864 
L 158.376121 196.748864 
L 160.584824 258.18263 
L 162.793528 237.704708 
L 165.002231 162.618994 
L 171.62834 176.270942 
L 173.837043 189.92289 
L 178.25445 265.008604 
L 180.463153 230.878734 
L 187.089262 196.748864 
L 189.297965 244.530682 
L 191.506668 251.356656 
L 195.924075 251.356656 
L 202.550184 278.660552 
L 204.758887 305.964448 
L 206.96759 312.790422 
L 209.176294 333.268344 
L 211.384997 312.790422 
L 218.011106 346.920292 
L 220.219809 333.268344 
L 224.637216 271.834578 
L 226.845919 271.834578 
L 235.680731 224.05276 
L 237.889435 278.660552 
L 240.098138 271.834578 
L 242.306841 217.226786 
L 248.93295 217.226786 
L 251.141653 169.444968 
L 253.350357 196.748864 
L 255.55906 189.92289 
L 257.767763 210.400812 
L 264.393872 251.356656 
L 266.602575 271.834578 
L 271.019982 217.226786 
L 273.228685 237.704708 
L 279.854794 224.05276 
L 282.063497 278.660552 
L 284.272201 251.356656 
L 286.480904 258.18263 
L 288.689607 353.746266 
L 295.315716 360.57224 
L 299.733123 360.57224 
L 301.941826 353.746266 
L 304.150529 326.44237 
L 310.776638 326.44237 
L 312.985341 312.790422 
L 315.194045 346.920292 
L 319.611451 285.486526 
L 326.23756 278.660552 
L 328.446263 305.964448 
L 330.654967 312.790422 
L 332.86367 285.486526 
L 335.072373 333.268344 
L 341.698482 319.616396 
L 348.324592 360.57224 
L 350.533295 353.746266 
L 357.159404 353.746266 
L 359.368107 319.616396 
L 365.994217 442.483929 
L 372.620326 476.613799 
L 374.82903 456.135877 
L 379.246436 503.917695 
L 381.455139 469.787825 
L 388.081248 476.613799 
L 390.289952 483.439773 
L 392.498655 469.787825 
L 396.916061 415.180032 
L 403.54217 408.354058 
L 405.750874 428.831981 
L 407.959577 401.528084 
L 412.376983 374.224188 
L 416.794389 374.224188 
L 419.003092 408.354058 
L 421.211796 401.528084 
L 423.420499 428.831981 
L 425.629202 442.483929 
L 427.837905 422.006006 
L 434.464014 387.876136 
L 436.672718 415.180032 
L 438.881421 422.006006 
L 441.090124 415.180032 
L 443.298827 476.613799 
L 449.924936 476.613799 
L 452.13364 490.265747 
L 454.342343 476.613799 
L 456.551046 517.569643 
L 458.759749 497.091721 
L 465.385858 510.743669 
L 467.594562 524.395617 
L 469.803265 531.221591 
L 472.011968 503.917695 
L 474.220671 497.091721 
L 480.84678 503.917695 
L 483.055484 517.569643 
L 485.264187 456.135877 
L 487.47289 435.657955 
L 489.681593 435.657955 
L 496.307702 422.006006 
L 498.516406 442.483929 
L 500.725109 394.70211 
L 502.933812 435.657955 
L 505.142515 435.657955 
L 511.768625 422.006006 
L 513.977328 422.006006 
L 516.186031 456.135877 
L 520.603437 415.180032 
L 527.229547 422.006006 
L 529.43825 428.831981 
L 531.646953 422.006006 
L 536.064359 469.787825 
L 542.690469 483.439773 
L 544.899172 503.917695 
L 547.107875 510.743669 
L 549.316578 510.743669 
L 551.525281 497.091721 
L 558.151391 449.309903 
L 560.360094 449.309903 
L 562.568797 469.787825 
L 566.986203 415.180032 
L 575.821016 387.876136 
L 578.029719 422.006006 
L 580.238422 415.180032 
L 582.447125 381.050162 
L 589.073235 387.876136 
L 591.281938 408.354058 
L 593.490641 401.528084 
L 595.699344 428.831981 
L 597.908047 401.528084 
L 604.534157 394.70211 
L 606.74286 387.876136 
L 608.951563 408.354058 
L 611.160266 408.354058 
L 613.368969 415.180032 
L 619.995079 428.831981 
L 622.203782 415.180032 
L 624.412485 387.876136 
L 628.829891 381.050162 
L 633.247298 381.050162 
L 635.456001 394.70211 
L 637.664704 387.876136 
L 639.873407 408.354058 
L 642.08211 381.050162 
L 644.290813 387.876136 
L 650.916923 381.050162 
L 653.125626 387.876136 
L 655.334329 408.354058 
L 657.543032 394.70211 
L 659.751735 346.920292 
L 666.377845 346.920292 
L 668.586548 305.964448 
L 670.795251 333.268344 
L 673.003954 333.268344 
L 675.212657 346.920292 
L 681.838767 360.57224 
L 686.256173 333.268344 
L 688.464876 346.920292 
L 690.673579 333.268344 
L 697.299689 312.790422 
L 699.508392 319.616396 
L 701.717095 312.790422 
L 703.925798 367.398214 
L 706.134501 360.57224 
L 712.760611 360.57224 
L 714.969314 401.528084 
L 717.178017 387.876136 
L 721.595423 483.439773 
L 723.804126 483.439773 
L 730.430236 476.613799 
L 732.638939 449.309903 
L 734.847642 456.135877 
L 737.056345 456.135877 
L 743.682455 490.265747 
L 748.099861 476.613799 
L 750.308564 497.091721 
L 752.517267 531.221591 
L 754.72597 531.221591 
L 759.143377 476.613799 
L 761.35208 469.787825 
L 767.978189 408.354058 
L 774.604299 428.831981 
L 776.813002 408.354058 
L 781.230408 326.44237 
L 783.439111 319.616396 
L 790.065221 353.746266 
L 792.273924 374.224188 
L 794.482627 333.268344 
L 796.69133 340.094318 
L 798.900033 244.530682 
L 805.526143 278.660552 
L 807.734846 244.530682 
L 809.943549 285.486526 
L 812.152252 224.05276 
L 814.360955 210.400812 
L 820.987065 271.834578 
L 823.195768 305.964448 
L 825.404471 285.486526 
L 827.613174 299.138474 
L 829.821877 271.834578 
L 836.447987 278.660552 
L 838.65669 285.486526 
L 840.865393 312.790422 
L 843.074096 312.790422 
L 845.282799 299.138474 
L 851.908909 305.964448 
L 854.117612 333.268344 
L 858.535018 292.3125 
L 860.743721 333.268344 
L 867.369831 333.268344 
L 869.578534 305.964448 
L 871.787237 305.964448 
L 873.99594 278.660552 
L 876.204643 299.138474 
L 885.039456 265.008604 
L 887.248159 224.05276 
L 889.456862 237.704708 
L 891.665565 244.530682 
L 898.291675 203.574838 
L 900.500378 217.226786 
L 902.709081 265.008604 
L 904.917784 230.878734 
L 907.126488 251.356656 
L 909.335191 251.356656 
L 913.752597 224.05276 
L 915.9613 196.748864 
L 918.170003 196.748864 
L 920.378706 189.92289 
L 922.58741 108.011201 
L 929.213519 94.359253 
L 931.422222 53.403409 
L 933.630925 121.663149 
L 935.839628 121.663149 
L 938.048332 128.489123 
L 944.674441 128.489123 
L 946.883144 169.444968 
L 949.091847 183.096916 
L 951.30055 203.574838 
L 953.509254 203.574838 
L 960.135363 189.92289 
L 962.344066 196.748864 
L 964.552769 176.270942 
L 966.761472 189.92289 
L 968.970176 135.315097 
L 975.596285 128.489123 
L 977.804988 148.967045 
L 980.013691 135.315097 
L 982.222394 203.574838 
L 984.431098 183.096916 
L 991.057207 189.92289 
L 993.26591 217.226786 
L 995.474613 176.270942 
L 997.683316 196.748864 
L 1006.518129 162.618994 
L 1008.726832 169.444968 
L 1010.935535 230.878734 
L 1013.144238 237.704708 
L 1015.352942 251.356656 
L 1021.979051 251.356656 
L 1026.396457 183.096916 
L 1028.60516 176.270942 
L 1030.813864 176.270942 
L 1030.813864 176.270942 
" clip-path="url(#p66c05c2001)" style="fill: none; stroke: #58a6ff; stroke-width: 2; stroke-linecap: square"/>
   </g>
   <g id="patch_8">
    <path d="M 52.1375 555.1125 
L 52.1375 29.5125 
" style="fill: none; stroke: #30363d; stroke-width: 0.8; stroke-linejoin: miter; stroke-linecap: square"/>
   </g>
   <g id="patch_9">
    <path d="M 1077.4175 555.1125 
L 1077.4175 29.5125 
" style="fill: none; stroke: #30363d; stroke-width: 0.8; stroke-linejoin: miter; stroke-linecap: square"/>
   </g>
   <g id="patch_10">
    <path d="M 52.1375 555.1125 
L 1077.4175 555.1125 
" style="fill: none; stroke: #30363d; stroke-width: 0.8; stroke-linejoin: miter; stroke-linecap: square"/>
   </g>
   <g id="patch_11">
    <path d="M 52.1375 29.5125 
L 1077.4175 29.5125 
" style="fill: none; stroke: #30363d; stroke-width: 0.8; stroke-linejoin: miter; stroke-linecap: square"/>
   </g>
  </g>
 </g>
 <defs>
  <clipPath id="p66c05c2001">
   <rect x="52.1375" y="29.5125" width="1025.28" height="525.6"/>
  </clipPath>
 </defs>
</svg>
