<?xml version="1.0" encoding="utf-8" standalone="no"?>
<!DOCTYPE svg PUBLIC "-//W3C//DTD SVG 1.1//EN"
  "http://www.w3.org/Graphics/SVG/1.1/DTD/svg11.dtd">
<svg xmlns:xlink="http://www.w3.org/1999/xlink" width="1061.68pt" height="595.606769pt" viewBox="0 0 1061.68 595.606769" xmlns="http://www.w3.org/2000/svg" version="1.1">
 <metadata>
  <rdf:RDF xmlns:dc="http://purl.org/dc/elements/1.1/" xmlns:cc="http://creativecommons.org/ns#" xmlns:rdf="http://www.w3.org/1999/02/22-rdf-syntax-ns#">
   <cc:Work>
    <dc:type rdf:resource="http://purl.org/dc/dcmitype/StillImage"/>
    <dc:date>2026-07-21T10:29:26.646438</dc:date>
    <dc:format>image/svg+xml</dc:format>
    <dc:creator>
     <cc:Agent>
      <dc:title>Matplotlib v3.10.9, https://matplotlib.org/</dc:title>
     </cc:Agent>
    </dc:creator>
   </cc:Work>
  </rdf:RDF>
 </metadata>
 <defs>
  <style type="text/css">*{stroke-linejoin: round; stroke-linecap: butt}</style>
 </defs>
 <g id="figure_1">
  <g id="patch_1">
   <path d="M 0 595.606769 
L 1061.68 595.606769 
L 1061.68 0 
L 0 0 
z
" style="fill: #0d1117"/>
  </g>
  <g id="axes_1">
   <g id="patch_2">
    <path d="M 29.2 556.870312 
L 1054.48 556.870312 
L 1054.48 31.270312 
L 29.2 31.270312 
z
" style="fill: #161b22"/>
   </g>
   <g id="matplotlib.axis_1">
    <g id="xtick_1">
     <g id="line2d_1">
      <path d="M 91.442441 556.870312 
L 91.442441 31.270312 
" clip-path="url(#pcc9144ac89)" style="fill: none; stroke-dasharray: 2.96,1.28; stroke-dashoffset: 0; stroke: #21262d; stroke-opacity: 0.4; stroke-width: 0.8"/>
     </g>
     <g id="line2d_2">
      <defs>
       <path id="m7dca374602" d="M 0 0 
L 0 3.5 
" style="stroke: #c9d1d9; stroke-width: 0.8"/>
      </defs>
      <g>
       <use xlink:href="#m7dca374602" x="91.442441" y="556.870312" style="fill: #c9d1d9; stroke: #c9d1d9; stroke-width: 0.8"/>
      </g>
     </g>
     <g id="text_1">
      <!-- 2025-10 -->
      <g style="fill: #c9d1d9" transform="translate(60.506551 587.324237) rotate(-30) scale(0.1 -0.1)">
       <defs>
        <path id="SimHei-32" d="M 300 250 
Q 325 625 650 925 
Q 975 1225 1475 1862 
Q 1975 2500 2125 2850 
Q 2275 3200 2237 3450 
Q 2200 3700 2000 3862 
Q 1800 4025 1537 4000 
Q 1275 3975 1037 3800 
Q 800 3625 675 3275 
L 200 3350 
Q 400 3925 712 4187 
Q 1025 4450 1450 4475 
Q 1700 4500 1900 4462 
Q 2100 4425 2312 4287 
Q 2525 4150 2662 3875 
Q 2800 3600 2762 3212 
Q 2725 2825 2375 2287 
Q 2025 1750 1025 600 
L 2825 600 
L 2825 150 
L 300 150 
L 300 250 
z
" transform="scale(0.015625)"/>
        <path id="SimHei-30" d="M 225 2537 
Q 250 3200 412 3587 
Q 575 3975 875 4225 
Q 1175 4475 1612 4475 
Q 2050 4475 2375 4112 
Q 2700 3750 2800 3200 
Q 2900 2650 2862 1937 
Q 2825 1225 2612 775 
Q 2400 325 1975 150 
Q 1550 -25 1125 187 
Q 700 400 525 750 
Q 350 1100 275 1487 
Q 200 1875 225 2537 
z
M 750 2687 
Q 675 2000 800 1462 
Q 925 925 1212 700 
Q 1500 475 1800 612 
Q 2100 750 2237 1162 
Q 2375 1575 2375 2062 
Q 2375 2550 2337 2950 
Q 2300 3350 2112 3675 
Q 1925 4000 1612 4012 
Q 1300 4025 1062 3700 
Q 825 3375 750 2687 
z
" transform="scale(0.015625)"/>
        <path id="SimHei-35" d="M 550 1325 
Q 725 650 1150 575 
Q 1575 500 1837 662 
Q 2100 825 2212 1087 
Q 2325 1350 2312 1675 
Q 2300 2000 2137 2225 
Q 1975 2450 1725 2525 
Q 1475 2600 1162 2525 
Q 850 2450 650 2175 
L 225 2225 
Q 275 2375 700 4375 
L 2675 4375 
L 2675 3925 
L 1075 3925 
Q 950 3250 825 2850 
Q 1200 3025 1525 3012 
Q 1850 3000 2150 2862 
Q 2450 2725 2587 2487 
Q 2725 2250 2787 2012 
Q 2850 1775 2837 1500 
Q 2825 1225 2725 937 
Q 2625 650 2425 462 
Q 2225 275 1937 162 
Q 1650 50 1275 75 
Q 900 100 562 350 
Q 225 600 100 1200 
L 550 1325 
z
" transform="scale(0.015625)"/>
        <path id="SimHei-2d" d="M 2975 2125 
L 125 2125 
L 125 2525 
L 2975 2525 
L 2975 2125 
z
" transform="scale(0.015625)"/>
        <path id="SimHei-31" d="M 1400 3600 
Q 1075 3275 575 2975 
L 575 3450 
Q 1200 3875 1600 4450 
L 1900 4450 
L 1900 150 
L 1400 150 
L 1400 3600 
z
" transform="scale(0.015625)"/>
       </defs>
       <use xlink:href="#SimHei-32"/>
       <use xlink:href="#SimHei-30" transform="translate(50 0)"/>
       <use xlink:href="#SimHei-32" transform="translate(100 0)"/>
       <use xlink:href="#SimHei-35" transform="translate(150 0)"/>
       <use xlink:href="#SimHei-2d" transform="translate(200 0)"/>
       <use xlink:href="#SimHei-31" transform="translate(250 0)"/>
       <use xlink:href="#SimHei-30" transform="translate(300 0)"/>
      </g>
     </g>
    </g>
    <g id="xtick_2">
     <g id="line2d_3">
      <path d="M 188.403026 556.870312 
L 188.403026 31.270312 
" clip-path="url(#pcc9144ac89)" style="fill: none; stroke-dasharray: 2.96,1.28; stroke-dashoffset: 0; stroke: #21262d; stroke-opacity: 0.4; stroke-width: 0.8"/>
     </g>
     <g id="line2d_4">
      <g>
       <use xlink:href="#m7dca374602" x="188.403026" y="556.870312" style="fill: #c9d1d9; stroke: #c9d1d9; stroke-width: 0.8"/>
      </g>
     </g>
     <g id="text_2">
      <!-- 2025-11 -->
      <g style="fill: #c9d1d9" transform="translate(157.467137 587.324237) rotate(-30) scale(0.1 -0.1)">
       <use xlink:href="#SimHei-32"/>
       <use xlink:href="#SimHei-30" transform="translate(50 0)"/>
       <use xlink:href="#SimHei-32" transform="translate(100 0)"/>
       <use xlink:href="#SimHei-35" transform="translate(150 0)"/>
       <use xlink:href="#SimHei-2d" transform="translate(200 0)"/>
       <use xlink:href="#SimHei-31" transform="translate(250 0)"/>
       <use xlink:href="#SimHei-31" transform="translate(300 0)"/>
      </g>
     </g>
    </g>
    <g id="xtick_3">
     <g id="line2d_5">
      <path d="M 282.235851 556.870312 
L 282.235851 31.270312 
" clip-path="url(#pcc9144ac89)" style="fill: none; stroke-dasharray: 2.96,1.28; stroke-dashoffset: 0; stroke: #21262d; stroke-opacity: 0.4; stroke-width: 0.8"/>
     </g>
     <g id="line2d_6">
      <g>
       <use xlink:href="#m7dca374602" x="282.235851" y="556.870312" style="fill: #c9d1d9; stroke: #c9d1d9; stroke-width: 0.8"/>
      </g>
     </g>
     <g id="text_3">
      <!-- 2025-12 -->
      <g style="fill: #c9d1d9" transform="translate(251.299962 587.324237) rotate(-30) scale(0.1 -0.1)">
       <use xlink:href="#SimHei-32"/>
       <use xlink:href="#SimHei-30" transform="translate(50 0)"/>
       <use xlink:href="#SimHei-32" transform="translate(100 0)"/>
       <use xlink:href="#SimHei-35" transform="translate(150 0)"/>
       <use xlink:href="#SimHei-2d" transform="translate(200 0)"/>
       <use xlink:href="#SimHei-31" transform="translate(250 0)"/>
       <use xlink:href="#SimHei-32" transform="translate(300 0)"/>
      </g>
     </g>
    </g>
    <g id="xtick_4">
     <g id="line2d_7">
      <path d="M 379.196437 556.870312 
L 379.196437 31.270312 
" clip-path="url(#pcc9144ac89)" style="fill: none; stroke-dasharray: 2.96,1.28; stroke-dashoffset: 0; stroke: #21262d; stroke-opacity: 0.4; stroke-width: 0.8"/>
     </g>
     <g id="line2d_8">
      <g>
       <use xlink:href="#m7dca374602" x="379.196437" y="556.870312" style="fill: #c9d1d9; stroke: #c9d1d9; stroke-width: 0.8"/>
      </g>
     </g>
     <g id="text_4">
      <!-- 2026-01 -->
      <g style="fill: #c9d1d9" transform="translate(348.260548 587.324237) rotate(-30) scale(0.1 -0.1)">
       <defs>
        <path id="SimHei-36" d="M 250 1612 
Q 275 1975 387 2225 
Q 500 2475 725 2850 
L 1750 4450 
L 2325 4450 
L 1275 2800 
Q 1950 2975 2350 2750 
Q 2750 2525 2887 2237 
Q 3025 1950 3037 1612 
Q 3050 1275 2937 950 
Q 2825 625 2537 362 
Q 2250 100 1737 75 
Q 1225 50 862 262 
Q 500 475 362 862 
Q 225 1250 250 1612 
z
M 1025 787 
Q 1250 550 1625 525 
Q 2000 500 2250 775 
Q 2500 1050 2500 1575 
Q 2500 2100 2187 2300 
Q 1875 2500 1487 2450 
Q 1100 2400 925 2075 
Q 750 1750 775 1387 
Q 800 1025 1025 787 
z
" transform="scale(0.015625)"/>
       </defs>
       <use xlink:href="#SimHei-32"/>
       <use xlink:href="#SimHei-30" transform="translate(50 0)"/>
       <use xlink:href="#SimHei-32" transform="translate(100 0)"/>
       <use xlink:href="#SimHei-36" transform="translate(150 0)"/>
       <use xlink:href="#SimHei-2d" transform="translate(200 0)"/>
       <use xlink:href="#SimHei-30" transform="translate(250 0)"/>
       <use xlink:href="#SimHei-31" transform="translate(300 0)"/>
      </g>
     </g>
    </g>
    <g id="xtick_5">
     <g id="line2d_9">
      <path d="M 476.157023 556.870312 
L 476.157023 31.270312 
" clip-path="url(#pcc9144ac89)" style="fill: none; stroke-dasharray: 2.96,1.28; stroke-dashoffset: 0; stroke: #21262d; stroke-opacity: 0.4; stroke-width: 0.8"/>
     </g>
     <g id="line2d_10">
      <g>
       <use xlink:href="#m7dca374602" x="476.157023" y="556.870312" style="fill: #c9d1d9; stroke: #c9d1d9; stroke-width: 0.8"/>
      </g>
     </g>
     <g id="text_5">
      <!-- 2026-02 -->
      <g style="fill: #c9d1d9" transform="translate(445.221133 587.324237) rotate(-30) scale(0.1 -0.1)">
       <use xlink:href="#SimHei-32"/>
       <use xlink:href="#SimHei-30" transform="translate(50 0)"/>
       <use xlink:href="#SimHei-32" transform="translate(100 0)"/>
       <use xlink:href="#SimHei-36" transform="translate(150 0)"/>
       <use xlink:href="#SimHei-2d" transform="translate(200 0)"/>
       <use xlink:href="#SimHei-30" transform="translate(250 0)"/>
       <use xlink:href="#SimHei-32" transform="translate(300 0)"/>
      </g>
     </g>
    </g>
    <g id="xtick_6">
     <g id="line2d_11">
      <path d="M 563.734326 556.870312 
L 563.734326 31.270312 
" clip-path="url(#pcc9144ac89)" style="fill: none; stroke-dasharray: 2.96,1.28; stroke-dashoffset: 0; stroke: #21262d; stroke-opacity: 0.4; stroke-width: 0.8"/>
     </g>
     <g id="line2d_12">
      <g>
       <use xlink:href="#m7dca374602" x="563.734326" y="556.870312" style="fill: #c9d1d9; stroke: #c9d1d9; stroke-width: 0.8"/>
      </g>
     </g>
     <g id="text_6">
      <!-- 2026-03 -->
      <g style="fill: #c9d1d9" transform="translate(532.798437 587.324237) rotate(-30) scale(0.1 -0.1)">
       <defs>
        <path id="SimHei-33" d="M 250 1225 
L 700 1300 
Q 800 975 1025 762 
Q 1250 550 1587 562 
Q 1925 575 2125 837 
Q 2325 1100 2300 1437 
Q 2275 1775 2037 1962 
Q 1800 2150 1275 2225 
L 1275 2550 
Q 1800 2600 2037 2825 
Q 2275 3050 2250 3412 
Q 2225 3775 1925 3937 
Q 1625 4100 1287 3975 
Q 950 3850 750 3275 
L 300 3350 
Q 450 3800 712 4100 
Q 975 4400 1425 4450 
Q 1875 4500 2212 4337 
Q 2550 4175 2687 3837 
Q 2825 3500 2725 3100 
Q 2625 2700 2150 2400 
Q 2500 2250 2687 1950 
Q 2875 1650 2812 1162 
Q 2750 675 2375 375 
Q 2000 75 1525 87 
Q 1050 100 700 387 
Q 350 675 250 1225 
z
" transform="scale(0.015625)"/>
       </defs>
       <use xlink:href="#SimHei-32"/>
       <use xlink:href="#SimHei-30" transform="translate(50 0)"/>
       <use xlink:href="#SimHei-32" transform="translate(100 0)"/>
       <use xlink:href="#SimHei-36" transform="translate(150 0)"/>
       <use xlink:href="#SimHei-2d" transform="translate(200 0)"/>
       <use xlink:href="#SimHei-30" transform="translate(250 0)"/>
       <use xlink:href="#SimHei-33" transform="translate(300 0)"/>
      </g>
     </g>
    </g>
    <g id="xtick_7">
     <g id="line2d_13">
      <path d="M 660.694912 556.870312 
L 660.694912 31.270312 
" clip-path="url(#pcc9144ac89)" style="fill: none; stroke-dasharray: 2.96,1.28; stroke-dashoffset: 0; stroke: #21262d; stroke-opacity: 0.4; stroke-width: 0.8"/>
     </g>
     <g id="line2d_14">
      <g>
       <use xlink:href="#m7dca374602" x="660.694912" y="556.870312" style="fill: #c9d1d9; stroke: #c9d1d9; stroke-width: 0.8"/>
      </g>
     </g>
     <g id="text_7">
      <!-- 2026-04 -->
      <g style="fill: #c9d1d9" transform="translate(629.759022 587.324237) rotate(-30) scale(0.1 -0.1)">
       <defs>
        <path id="SimHei-34" d="M 2000 1100 
L 75 1100 
L 75 1525 
L 2100 4450 
L 2475 4450 
L 2475 1525 
L 3075 1525 
L 3075 1100 
L 2475 1100 
L 2475 150 
L 2000 150 
L 2000 1100 
z
M 2000 1525 
L 2000 3500 
L 600 1525 
L 2000 1525 
z
" transform="scale(0.015625)"/>
       </defs>
       <use xlink:href="#SimHei-32"/>
       <use xlink:href="#SimHei-30" transform="translate(50 0)"/>
       <use xlink:href="#SimHei-32" transform="translate(100 0)"/>
       <use xlink:href="#SimHei-36" transform="translate(150 0)"/>
       <use xlink:href="#SimHei-2d" transform="translate(200 0)"/>
       <use xlink:href="#SimHei-30" transform="translate(250 0)"/>
       <use xlink:href="#SimHei-34" transform="translate(300 0)"/>
      </g>
     </g>
    </g>
    <g id="xtick_8">
     <g id="line2d_15">
      <path d="M 754.527736 556.870312 
L 754.527736 31.270312 
" clip-path="url(#pcc9144ac89)" style="fill: none; stroke-dasharray: 2.96,1.28; stroke-dashoffset: 0; stroke: #21262d; stroke-opacity: 0.4; stroke-width: 0.8"/>
     </g>
     <g id="line2d_16">
      <g>
       <use xlink:href="#m7dca374602" x="754.527736" y="556.870312" style="fill: #c9d1d9; stroke: #c9d1d9; stroke-width: 0.8"/>
      </g>
     </g>
     <g id="text_8">
      <!-- 2026-05 -->
      <g style="fill: #c9d1d9" transform="translate(723.591847 587.324237) rotate(-30) scale(0.1 -0.1)">
       <use xlink:href="#SimHei-32"/>
       <use xlink:href="#SimHei-30" transform="translate(50 0)"/>
       <use xlink:href="#SimHei-32" transform="translate(100 0)"/>
       <use xlink:href="#SimHei-36" transform="translate(150 0)"/>
       <use xlink:href="#SimHei-2d" transform="translate(200 0)"/>
       <use xlink:href="#SimHei-30" transform="translate(250 0)"/>
       <use xlink:href="#SimHei-35" transform="translate(300 0)"/>
      </g>
     </g>
    </g>
    <g id="xtick_9">
     <g id="line2d_17">
      <path d="M 851.488322 556.870312 
L 851.488322 31.270312 
" clip-path="url(#pcc9144ac89)" style="fill: none; stroke-dasharray: 2.96,1.28; stroke-dashoffset: 0; stroke: #21262d; stroke-opacity: 0.4; stroke-width: 0.8"/>
     </g>
     <g id="line2d_18">
      <g>
       <use xlink:href="#m7dca374602" x="851.488322" y="556.870312" style="fill: #c9d1d9; stroke: #c9d1d9; stroke-width: 0.8"/>
      </g>
     </g>
     <g id="text_9">
      <!-- 2026-06 -->
      <g style="fill: #c9d1d9" transform="translate(820.552433 587.324237) rotate(-30) scale(0.1 -0.1)">
       <use xlink:href="#SimHei-32"/>
       <use xlink:href="#SimHei-30" transform="translate(50 0)"/>
       <use xlink:href="#SimHei-32" transform="translate(100 0)"/>
       <use xlink:href="#SimHei-36" transform="translate(150 0)"/>
       <use xlink:href="#SimHei-2d" transform="translate(200 0)"/>
       <use xlink:href="#SimHei-30" transform="translate(250 0)"/>
       <use xlink:href="#SimHei-36" transform="translate(300 0)"/>
      </g>
     </g>
    </g>
    <g id="xtick_10">
     <g id="line2d_19">
      <path d="M 945.321147 556.870312 
L 945.321147 31.270312 
" clip-path="url(#pcc9144ac89)" style="fill: none; stroke-dasharray: 2.96,1.28; stroke-dashoffset: 0; stroke: #21262d; stroke-opacity: 0.4; stroke-width: 0.8"/>
     </g>
     <g id="line2d_20">
      <g>
       <use xlink:href="#m7dca374602" x="945.321147" y="556.870312" style="fill: #c9d1d9; stroke: #c9d1d9; stroke-width: 0.8"/>
      </g>
     </g>
     <g id="text_10">
      <!-- 2026-07 -->
      <g style="fill: #c9d1d9" transform="translate(914.385258 587.324237) rotate(-30) scale(0.1 -0.1)">
       <defs>
        <path id="SimHei-37" d="M 850 150 
Q 1300 2050 2425 3925 
L 275 3925 
L 275 4375 
L 2950 4375 
L 2950 3950 
Q 1775 2050 1400 150 
L 850 150 
z
" transform="scale(0.015625)"/>
       </defs>
       <use xlink:href="#SimHei-32"/>
       <use xlink:href="#SimHei-30" transform="translate(50 0)"/>
       <use xlink:href="#SimHei-32" transform="translate(100 0)"/>
       <use xlink:href="#SimHei-36" transform="translate(150 0)"/>
       <use xlink:href="#SimHei-2d" transform="translate(200 0)"/>
       <use xlink:href="#SimHei-30" transform="translate(250 0)"/>
       <use xlink:href="#SimHei-37" transform="translate(300 0)"/>
      </g>
     </g>
    </g>
    <g id="xtick_11">
     <g id="line2d_21">
      <path d="M 1042.281733 556.870312 
L 1042.281733 31.270312 
" clip-path="url(#pcc9144ac89)" style="fill: none; stroke-dasharray: 2.96,1.28; stroke-dashoffset: 0; stroke: #21262d; stroke-opacity: 0.4; stroke-width: 0.8"/>
     </g>
     <g id="line2d_22">
      <g>
       <use xlink:href="#m7dca374602" x="1042.281733" y="556.870312" style="fill: #c9d1d9; stroke: #c9d1d9; stroke-width: 0.8"/>
      </g>
     </g>
     <g id="text_11">
      <!-- 2026-08 -->
      <g style="fill: #c9d1d9" transform="translate(1011.345844 587.324237) rotate(-30) scale(0.1 -0.1)">
       <defs>
        <path id="SimHei-38" d="M 175 1375 
Q 175 1675 325 1962 
Q 475 2250 825 2425 
Q 525 2600 425 2812 
Q 325 3025 312 3300 
Q 300 3575 387 3775 
Q 475 3975 650 4150 
Q 825 4325 1037 4387 
Q 1250 4450 1500 4450 
Q 1750 4450 1950 4400 
Q 2150 4350 2375 4187 
Q 2600 4025 2700 3725 
Q 2800 3425 2687 3025 
Q 2575 2625 2100 2400 
Q 2525 2275 2700 2012 
Q 2875 1750 2875 1375 
Q 2875 1000 2762 775 
Q 2650 550 2512 400 
Q 2375 250 2137 162 
Q 1900 75 1537 75 
Q 1175 75 912 162 
Q 650 250 475 425 
Q 300 600 237 837 
Q 175 1075 175 1375 
z
M 687 1400 
Q 675 1100 787 875 
Q 900 650 1200 587 
Q 1500 525 1825 600 
Q 2150 675 2275 950 
Q 2400 1225 2362 1500 
Q 2325 1775 2050 1962 
Q 1775 2150 1450 2125 
Q 1125 2100 912 1900 
Q 700 1700 687 1400 
z
M 775 3350 
Q 775 3100 950 2875 
Q 1125 2650 1500 2650 
Q 1875 2650 2062 2875 
Q 2250 3100 2237 3412 
Q 2225 3725 2012 3875 
Q 1800 4025 1437 4000 
Q 1075 3975 925 3787 
Q 775 3600 775 3350 
z
" transform="scale(0.015625)"/>
       </defs>
       <use xlink:href="#SimHei-32"/>
       <use xlink:href="#SimHei-30" transform="translate(50 0)"/>
       <use xlink:href="#SimHei-32" transform="translate(100 0)"/>
       <use xlink:href="#SimHei-36" transform="translate(150 0)"/>
       <use xlink:href="#SimHei-2d" transform="translate(200 0)"/>
       <use xlink:href="#SimHei-30" transform="translate(250 0)"/>
       <use xlink:href="#SimHei-38" transform="translate(300 0)"/>
      </g>
     </g>
    </g>
   </g>
   <g id="matplotlib.axis_2">
    <g id="ytick_1">
     <g id="line2d_23">
      <path d="M 29.2 532.979403 
L 1054.48 532.979403 
" clip-path="url(#pcc9144ac89)" style="fill: none; stroke-dasharray: 2.96,1.28; stroke-dashoffset: 0; stroke: #21262d; stroke-opacity: 0.4; stroke-width: 0.8"/>
     </g>
     <g id="line2d_24">
      <defs>
       <path id="m6962423df8" d="M 0 0 
L -3.5 0 
" style="stroke: #c9d1d9; stroke-width: 0.8"/>
      </defs>
      <g>
       <use xlink:href="#m6962423df8" x="29.2" y="532.979403" style="fill: #c9d1d9; stroke: #c9d1d9; stroke-width: 0.8"/>
      </g>
     </g>
     <g id="text_12">
      <!-- 0.0 -->
      <g style="fill: #c9d1d9" transform="translate(7.2 536.416903) scale(0.1 -0.1)">
       <defs>
        <path id="SimHei-2e" d="M 1075 125 
L 500 125 
L 500 675 
L 1075 675 
L 1075 125 
z
" transform="scale(0.015625)"/>
       </defs>
       <use xlink:href="#SimHei-30"/>
       <use xlink:href="#SimHei-2e" transform="translate(50 0)"/>
       <use xlink:href="#SimHei-30" transform="translate(100 0)"/>
      </g>
     </g>
    </g>
    <g id="ytick_2">
     <g id="line2d_25">
      <path d="M 29.2 437.415767 
L 1054.48 437.415767 
" clip-path="url(#pcc9144ac89)" style="fill: none; stroke-dasharray: 2.96,1.28; stroke-dashoffset: 0; stroke: #21262d; stroke-opacity: 0.4; stroke-width: 0.8"/>
     </g>
     <g id="line2d_26">
      <g>
       <use xlink:href="#m6962423df8" x="29.2" y="437.415767" style="fill: #c9d1d9; stroke: #c9d1d9; stroke-width: 0.8"/>
      </g>
     </g>
     <g id="text_13">
      <!-- 0.2 -->
      <g style="fill: #c9d1d9" transform="translate(7.2 440.853267) scale(0.1 -0.1)">
       <use xlink:href="#SimHei-30"/>
       <use xlink:href="#SimHei-2e" transform="translate(50 0)"/>
       <use xlink:href="#SimHei-32" transform="translate(100 0)"/>
      </g>
     </g>
    </g>
    <g id="ytick_3">
     <g id="line2d_27">
      <path d="M 29.2 341.852131 
L 1054.48 341.852131 
" clip-path="url(#pcc9144ac89)" style="fill: none; stroke-dasharray: 2.96,1.28; stroke-dashoffset: 0; stroke: #21262d; stroke-opacity: 0.4; stroke-width: 0.8"/>
     </g>
     <g id="line2d_28">
      <g>
       <use xlink:href="#m6962423df8" x="29.2" y="341.852131" style="fill: #c9d1d9; stroke: #c9d1d9; stroke-width: 0.8"/>
      </g>
     </g>
     <g id="text_14">
      <!-- 0.4 -->
      <g style="fill: #c9d1d9" transform="translate(7.2 345.289631) scale(0.1 -0.1)">
       <use xlink:href="#SimHei-30"/>
       <use xlink:href="#SimHei-2e" transform="translate(50 0)"/>
       <use xlink:href="#SimHei-34" transform="translate(100 0)"/>
      </g>
     </g>
    </g>
    <g id="ytick_4">
     <g id="line2d_29">
      <path d="M 29.2 246.288494 
L 1054.48 246.288494 
" clip-path="url(#pcc9144ac89)" style="fill: none; stroke-dasharray: 2.96,1.28; stroke-dashoffset: 0; stroke: #21262d; stroke-opacity: 0.4; stroke-width: 0.8"/>
     </g>
     <g id="line2d_30">
      <g>
       <use xlink:href="#m6962423df8" x="29.2" y="246.288494" style="fill: #c9d1d9; stroke: #c9d1d9; stroke-width: 0.8"/>
      </g>
     </g>
     <g id="text_15">
      <!-- 0.6 -->
      <g style="fill: #c9d1d9" transform="translate(7.2 249.725994) scale(0.1 -0.1)">
       <use xlink:href="#SimHei-30"/>
       <use xlink:href="#SimHei-2e" transform="translate(50 0)"/>
       <use xlink:href="#SimHei-36" transform="translate(100 0)"/>
      </g>
     </g>
    </g>
    <g id="ytick_5">
     <g id="line2d_31">
      <path d="M 29.2 150.724858 
L 1054.48 150.724858 
" clip-path="url(#pcc9144ac89)" style="fill: none; stroke-dasharray: 2.96,1.28; stroke-dashoffset: 0; stroke: #21262d; stroke-opacity: 0.4; stroke-width: 0.8"/>
     </g>
     <g id="line2d_32">
      <g>
       <use xlink:href="#m6962423df8" x="29.2" y="150.724858" style="fill: #c9d1d9; stroke: #c9d1d9; stroke-width: 0.8"/>
      </g>
     </g>
     <g id="text_16">
      <!-- 0.8 -->
      <g style="fill: #c9d1d9" transform="translate(7.2 154.162358) scale(0.1 -0.1)">
       <use xlink:href="#SimHei-30"/>
       <use xlink:href="#SimHei-2e" transform="translate(50 0)"/>
       <use xlink:href="#SimHei-38" transform="translate(100 0)"/>
      </g>
     </g>
    </g>
    <g id="ytick_6">
     <g id="line2d_33">
      <path d="M 29.2 55.161222 
L 1054.48 55.161222 
" clip-path="url(#pcc9144ac89)" style="fill: none; stroke-dasharray: 2.96,1.28; stroke-dashoffset: 0; stroke: #21262d; stroke-opacity: 0.4; stroke-width: 0.8"/>
     </g>
     <g id="line2d_34">
      <g>
       <use xlink:href="#m6962423df8" x="29.2" y="55.161222" style="fill: #c9d1d9; stroke: #c9d1d9; stroke-width: 0.8"/>
      </g>
     </g>
     <g id="text_17">
      <!-- 1.0 -->
      <g style="fill: #c9d1d9" transform="translate(7.2 58.598722) scale(0.1 -0.1)">
       <use xlink:href="#SimHei-31"/>
       <use xlink:href="#SimHei-2e" transform="translate(50 0)"/>
       <use xlink:href="#SimHei-30" transform="translate(100 0)"/>
      </g>
     </g>
    </g>
   </g>
   <g id="line2d_35">
    <path d="M 75.803636 106.944473 
L 82.059158 97.529336 
L 85.186919 95.175552 
L 88.31468 97.529336 
L 116.464527 104.590689 
L 119.592288 123.420962 
L 122.720049 125.774746 
L 128.97557 128.12853 
L 132.103331 121.067178 
L 135.231092 123.420962 
L 141.486614 123.420962 
L 150.869896 128.12853 
L 157.125418 128.12853 
L 160.253179 130.482314 
L 163.38094 128.12853 
L 175.891983 128.12853 
L 179.019744 130.482314 
L 182.147505 146.958803 
L 185.275265 151.666372 
L 194.658548 154.020156 
L 197.786309 154.020156 
L 200.91407 164.612184 
L 204.04183 182.265566 
L 207.169591 201.095839 
L 216.552874 203.449623 
L 219.680635 203.449623 
L 222.808395 208.157191 
L 225.936156 219.926112 
L 229.063917 219.926112 
L 238.4472 215.218544 
L 244.702721 215.218544 
L 247.830482 219.926112 
L 250.958243 217.572328 
L 260.341525 215.218544 
L 263.469286 215.218544 
L 266.597047 217.572328 
L 269.724808 215.218544 
L 272.852569 215.218544 
L 282.235851 217.572328 
L 285.363612 217.572328 
L 288.491373 215.218544 
L 294.746894 215.218544 
L 304.130177 212.864759 
L 307.257938 208.157191 
L 310.385699 208.157191 
L 316.64122 203.449623 
L 326.024503 184.61935 
L 332.280024 165.789076 
L 335.407785 144.605019 
L 338.535546 134.248369 
L 347.918829 123.420962 
L 351.046589 104.590689 
L 354.17435 76.345279 
L 357.302111 64.576358 
L 369.813154 64.576358 
L 372.940915 62.222574 
L 376.068676 55.161222 
L 388.579719 76.345279 
L 401.090763 123.420962 
L 404.218523 128.12853 
L 413.601806 130.482314 
L 416.729567 123.420962 
L 419.857328 121.067178 
L 422.985088 122.008691 
L 426.112849 125.774746 
L 435.496132 128.12853 
L 438.623893 121.067178 
L 441.751653 123.420962 
L 444.879414 128.12853 
L 448.007175 126.480881 
L 457.390458 130.953071 
L 460.518218 131.423828 
L 463.645979 133.777612 
L 466.77374 139.897451 
L 469.901501 142.251235 
L 479.284783 144.605019 
L 485.540305 144.605019 
L 488.668066 143.428127 
L 491.795827 144.605019 
L 501.179109 144.605019 
L 504.30687 142.251235 
L 507.434631 142.015857 
L 510.562392 144.605019 
L 569.989847 144.605019 
L 573.117608 149.312587 
L 576.245369 152.137128 
L 579.37313 164.141428 
L 588.756412 170.025888 
L 591.884173 177.793376 
L 595.011934 179.911781 
L 598.139695 179.911781 
L 601.267456 184.61935 
L 610.650738 195.682135 
L 613.778499 203.92038 
L 616.90626 215.218544 
L 620.034021 219.926112 
L 623.161782 229.341248 
L 632.545064 239.933277 
L 635.672825 252.87909 
L 638.800586 251.702198 
L 641.928347 255.232874 
L 645.056107 265.824903 
L 654.43939 269.355579 
L 660.694912 278.770716 
L 663.822672 289.362744 
L 666.950433 311.723694 
L 679.461477 328.200183 
L 682.589237 336.438427 
L 685.716998 342.322888 
L 688.844759 352.914916 
L 698.228041 368.214513 
L 701.355802 371.745189 
L 704.483563 376.452758 
L 707.611324 384.691002 
L 710.739085 401.167491 
L 720.122367 415.290196 
L 723.250128 435.297361 
L 726.377889 451.77385 
L 729.50565 469.427231 
L 732.633411 485.90372 
L 742.016693 494.141965 
L 745.144454 500.026425 
L 748.272215 509.441562 
L 751.399976 507.087778 
L 770.166541 497.672641 
L 773.294301 497.672641 
L 776.422062 502.380209 
L 788.933106 511.795346 
L 792.060866 518.856699 
L 795.188627 521.210483 
L 798.316388 525.918051 
L 807.699671 530.625619 
L 810.827431 532.979403 
L 813.955192 531.802511 
L 817.082953 531.802511 
L 820.210714 525.918051 
L 829.593996 516.502914 
L 838.977279 523.564267 
L 842.10504 521.210483 
L 851.488322 521.210483 
L 854.616083 523.564267 
L 857.743844 530.625619 
L 860.871605 532.979403 
L 863.999365 529.448727 
L 873.382648 524.741159 
L 876.510409 518.856699 
L 879.63817 514.14913 
L 882.76593 507.087778 
L 885.893691 490.611289 
L 895.276974 476.488584 
L 898.404735 462.365879 
L 901.532495 454.127634 
L 904.660256 450.596958 
L 917.1713 448.243174 
L 920.29906 438.828038 
L 923.426821 427.059117 
L 929.682343 427.059117 
L 942.193386 436.474253 
L 948.448908 436.474253 
L 951.576669 448.243174 
L 960.959951 455.304527 
L 964.087712 460.482852 
L 967.215473 462.130501 
L 970.343234 465.896555 
L 973.470995 472.016394 
L 982.854277 469.427231 
L 985.982038 466.60269 
L 989.109799 458.129068 
L 992.237559 452.950742 
L 995.36532 450.832337 
L 1007.876364 450.596958 
L 1007.876364 450.596958 
" clip-path="url(#pcc9144ac89)" style="fill: none; stroke: #ff0000; stroke-width: 2; stroke-linecap: square"/>
   </g>
   <g id="line2d_36">
    <path d="M 75.803636 164.876645 
L 82.059158 164.876645 
L 85.186919 128.685584 
L 88.31468 150.628669 
L 116.464527 146.961469 
L 119.592288 93.215941 
L 128.97557 93.215941 
L 132.103331 86.723193 
L 135.231092 93.877239 
L 138.358853 60.331373 
L 141.486614 88.045789 
L 150.869896 60.872435 
L 153.997657 57.325471 
L 157.125418 55.161222 
L 160.253179 73.31687 
L 163.38094 73.61746 
L 172.764222 71.393092 
L 175.891983 74.038286 
L 179.019744 126.401099 
L 182.147505 151.049495 
L 185.275265 159.706493 
L 194.658548 172.331282 
L 197.786309 151.891148 
L 200.91407 195.176137 
L 204.04183 150.929259 
L 207.169591 148.404302 
L 216.552874 160.608264 
L 219.680635 160.608264 
L 222.808395 134.63727 
L 225.936156 149.36619 
L 229.063917 166.55995 
L 238.4472 162.411805 
L 241.57496 155.678584 
L 244.702721 158.203542 
L 247.830482 142.813324 
L 250.958243 116.902449 
L 260.341525 102.233647 
L 263.469286 78.727493 
L 266.597047 63.036685 
L 269.724808 63.036685 
L 282.235851 122.914253 
L 285.363612 118.345282 
L 288.491373 95.680781 
L 291.619134 113.776311 
L 294.746894 146.119816 
L 304.130177 163.012985 
L 307.257938 173.473524 
L 310.385699 142.091907 
L 313.513459 150.688787 
L 316.64122 181.228751 
L 326.024503 169.686088 
L 329.152264 153.454217 
L 332.280024 166.55995 
L 335.407785 141.550845 
L 338.535546 168.483727 
L 347.918829 168.062901 
L 351.046589 177.862141 
L 354.17435 159.586257 
L 357.302111 159.586257 
L 360.429872 152.372092 
L 369.813154 127.843932 
L 372.940915 139.987776 
L 376.068676 170.587858 
L 388.579719 170.587858 
L 391.70748 157.902952 
L 394.835241 149.185836 
L 397.963002 119.727997 
L 401.090763 150.628669 
L 404.218523 152.011384 
L 413.601806 169.866442 
L 416.729567 167.822429 
L 419.857328 151.289968 
L 422.985088 160.307674 
L 426.112849 209.604466 
L 435.496132 209.604466 
L 438.623893 251.566858 
L 441.751653 228.361295 
L 444.879414 221.567956 
L 448.007175 217.179339 
L 457.390458 208.522342 
L 460.518218 216.397805 
L 463.645979 237.258765 
L 466.77374 224.633976 
L 469.901501 240.384903 
L 479.284783 253.129927 
L 482.412544 248.801428 
L 485.540305 253.550754 
L 488.668066 206.899155 
L 491.795827 216.938867 
L 501.179109 216.217451 
L 504.30687 181.348988 
L 507.434631 199.3844 
L 510.562392 151.350086 
L 513.690153 119.186934 
L 516.817913 119.186934 
L 548.095522 113.47572 
L 551.223282 111.371589 
L 554.351043 85.520832 
L 557.478804 80.170326 
L 560.606565 80.170326 
L 566.862087 135.238451 
L 569.989847 138.484825 
L 573.117608 158.864841 
L 576.245369 182.250758 
L 579.37313 192.410707 
L 588.756412 159.706493 
L 591.884173 177.681787 
L 595.011934 212.55025 
L 598.139695 250.003789 
L 601.267456 250.544852 
L 610.650738 210.325883 
L 613.778499 192.170235 
L 616.90626 236.597466 
L 620.034021 225.956573 
L 623.161782 307.296281 
L 632.545064 276.215255 
L 635.672825 308.919468 
L 638.800586 275.193248 
L 641.928347 331.644087 
L 645.056107 344.990292 
L 654.43939 297.436923 
L 657.567151 260.885154 
L 660.694912 274.53195 
L 663.822672 264.612473 
L 666.950433 289.260869 
L 679.461477 278.920566 
L 682.589237 256.977482 
L 685.716998 253.610872 
L 688.844759 269.482034 
L 698.228041 275.193248 
L 701.355802 257.398308 
L 704.483563 276.636081 
L 707.611324 294.491139 
L 710.739085 269.782624 
L 720.122367 269.542152 
L 723.250128 300.623179 
L 726.377889 307.897462 
L 729.50565 322.385909 
L 732.633411 301.164241 
L 742.016693 319.440125 
L 745.144454 328.037005 
L 748.272215 376.732617 
L 751.399976 362.965586 
L 770.166541 328.037005 
L 773.294301 359.47874 
L 776.422062 340.421321 
L 779.549823 340.421321 
L 785.805345 366.031606 
L 788.933106 391.882364 
L 792.060866 396.571571 
L 795.188627 398.13464 
L 798.316388 466.068025 
L 807.699671 482.48025 
L 810.827431 532.979403 
L 813.955192 470.636996 
L 817.082953 466.669205 
L 820.210714 456.38902 
L 829.593996 456.38902 
L 832.721757 427.171653 
L 835.849518 426.510355 
L 838.977279 409.857658 
L 842.10504 416.049816 
L 851.488322 432.942985 
L 854.616083 425.307994 
L 857.743844 437.812546 
L 860.871605 428.614486 
L 863.999365 469.134045 
L 873.382648 471.057822 
L 876.510409 446.950488 
L 879.63817 452.962292 
L 882.76593 392.90437 
L 885.893691 413.825448 
L 895.276974 406.671401 
L 898.404735 389.958586 
L 901.532495 429.275784 
L 904.660256 409.496949 
L 917.1713 434.986998 
L 920.29906 425.247876 
L 923.426821 370.119633 
L 926.554582 370.299987 
L 929.682343 360.500747 
L 939.065625 369.157744 
L 942.193386 395.609682 
L 945.321147 412.562969 
L 948.448908 420.859259 
L 951.576669 420.859259 
L 960.959951 416.711114 
L 964.087712 457.170555 
L 967.215473 464.444838 
L 970.343234 452.962292 
L 973.470995 463.663303 
L 982.854277 497.088934 
L 985.982038 475.446439 
L 989.109799 457.170555 
L 992.237559 467.330504 
L 995.36532 457.290791 
L 1004.748603 484.404027 
L 1007.876364 484.404027 
L 1007.876364 484.404027 
" clip-path="url(#pcc9144ac89)" style="fill: none; stroke: #008000; stroke-width: 2; stroke-linecap: square"/>
   </g>
   <g id="patch_3">
    <path d="M 29.2 556.870312 
L 29.2 31.270312 
" style="fill: none; stroke: #30363d; stroke-width: 0.8; stroke-linejoin: miter; stroke-linecap: square"/>
   </g>
   <g id="patch_4">
    <path d="M 1054.48 556.870312 
L 1054.48 31.270312 
" style="fill: none; stroke: #30363d; stroke-width: 0.8; stroke-linejoin: miter; stroke-linecap: square"/>
   </g>
   <g id="patch_5">
    <path d="M 29.2 556.870312 
L 1054.48 556.870312 
" style="fill: none; stroke: #30363d; stroke-width: 0.8; stroke-linejoin: miter; stroke-linecap: square"/>
   </g>
   <g id="patch_6">
    <path d="M 29.2 31.270312 
L 1054.48 31.270312 
" style="fill: none; stroke: #30363d; stroke-width: 0.8; stroke-linejoin: miter; stroke-linecap: square"/>
   </g>
   <g id="text_18">
    <!-- 2026-07-21 -->
    <g style="fill: #8b949e; opacity: 0.6" transform="translate(999.2272 550.489312) scale(0.09 -0.09)">
     <use xlink:href="#SimHei-32"/>
     <use xlink:href="#SimHei-30" transform="translate(50 0)"/>
     <use xlink:href="#SimHei-32" transform="translate(100 0)"/>
     <use xlink:href="#SimHei-36" transform="translate(150 0)"/>
     <use xlink:href="#SimHei-2d" transform="translate(200 0)"/>
     <use xlink:href="#SimHei-30" transform="translate(250 0)"/>
     <use xlink:href="#SimHei-37" transform="translate(300 0)"/>
     <use xlink:href="#SimHei-2d" transform="translate(350 0)"/>
     <use xlink:href="#SimHei-32" transform="translate(400 0)"/>
     <use xlink:href="#SimHei-31" transform="translate(450 0)"/>
    </g>
   </g>
   <g id="text_19">
    <!-- 流动性指标 -->
    <g style="fill: #c9d1d9" transform="translate(504.34 19.270312) scale(0.15 -0.15)">
     <defs>
      <path id="SimHei-6d41" d="M 3725 5250 
Q 3975 4875 4225 4450 
L 5025 4450 
Q 5425 4450 5925 4475 
L 5925 4025 
Q 5325 4050 5025 4050 
L 3425 4050 
Q 3625 3900 3775 3825 
Q 3650 3725 3450 3475 
Q 3250 3225 2850 2775 
Q 3750 2800 4775 2850 
Q 4525 3150 4275 3375 
Q 4525 3550 4625 3675 
Q 5325 2950 5800 2375 
Q 5575 2200 5400 2050 
Q 5200 2325 5050 2525 
Q 4500 2475 3562 2412 
Q 2625 2350 2300 2250 
Q 2225 2475 2075 2675 
Q 2325 2750 2675 3175 
Q 3025 3600 3250 4050 
L 2975 4050 
Q 2525 4050 2050 4000 
L 2050 4475 
Q 2525 4450 2975 4450 
L 3675 4450 
Q 3475 4800 3325 5000 
Q 3575 5125 3725 5250 
z
M 5025 2025 
Q 5000 1700 5000 1375 
L 5000 150 
Q 5000 -75 5225 -75 
L 5475 -75 
Q 5675 -75 5700 500 
Q 5900 350 6200 275 
Q 6050 -350 5887 -425 
Q 5725 -500 5500 -500 
L 5025 -500 
Q 4550 -500 4550 -25 
L 4550 1425 
Q 4550 1725 4525 2025 
L 5025 2025 
z
M 3125 1975 
Q 3075 1725 3037 1212 
Q 3000 700 2812 225 
Q 2625 -250 1950 -700 
Q 1775 -475 1575 -325 
Q 2075 -100 2312 287 
Q 2550 675 2575 1162 
Q 2600 1650 2575 2025 
Q 2825 1975 3125 1975 
z
M 4000 2025 
Q 3975 1875 3975 1400 
L 3975 300 
Q 3975 -25 4000 -500 
L 3475 -500 
Q 3500 -50 3500 300 
L 3500 1400 
Q 3500 1825 3475 2025 
L 4000 2025 
z
M 1900 1625 
Q 1650 1200 1350 562 
Q 1050 -75 850 -425 
Q 625 -250 325 -125 
Q 575 175 900 750 
Q 1225 1325 1450 1950 
Q 1650 1775 1900 1625 
z
M 625 3450 
Q 1200 3100 1725 2725 
Q 1525 2525 1375 2275 
Q 925 2700 325 3000 
Q 475 3200 625 3450 
z
M 925 4975 
Q 1500 4625 1900 4300 
Q 1725 4075 1550 3875 
Q 1150 4275 625 4575 
Q 800 4800 925 4975 
z
" transform="scale(0.015625)"/>
      <path id="SimHei-52a8" d="M 4125 5150 
Q 4425 5075 4700 5075 
Q 4650 4825 4637 4512 
Q 4625 4200 4625 3750 
L 6025 3750 
Q 6000 3425 5975 3025 
L 5850 175 
Q 5775 -325 5437 -437 
Q 5100 -550 4675 -600 
Q 4600 -300 4425 -50 
Q 4975 -75 5175 12 
Q 5375 100 5375 350 
L 5525 3325 
L 4625 3325 
Q 4575 2225 4462 1650 
Q 4350 1075 4112 587 
Q 3875 100 3150 -675 
Q 2900 -425 2700 -350 
Q 3175 25 3475 437 
Q 3775 850 3900 1287 
Q 4025 1725 4075 2200 
Q 4125 2675 4150 3325 
L 3725 3325 
Q 3450 3325 3075 3300 
L 3075 3775 
Q 3450 3750 3775 3750 
L 4150 3750 
L 4150 4450 
Q 4150 4800 4125 5150 
z
M 275 3025 
Q 650 3000 1175 3000 
L 2125 3000 
Q 2575 3000 3150 3025 
L 3150 2575 
Q 2575 2600 2150 2600 
L 1875 2600 
Q 1725 2200 1537 1750 
Q 1350 1300 1100 850 
Q 2075 950 2575 1050 
Q 2450 1350 2175 1800 
Q 2450 1950 2575 2050 
Q 2825 1600 3000 1287 
Q 3175 975 3375 525 
Q 3175 400 2925 275 
Q 2825 500 2750 650 
Q 1950 525 1462 450 
Q 975 375 625 250 
Q 525 500 375 725 
Q 700 925 962 1525 
Q 1225 2125 1350 2600 
L 1175 2600 
Q 650 2600 275 2575 
L 275 3025 
z
M 2000 4425 
Q 2425 4425 2950 4450 
L 2950 3975 
Q 2425 4000 2000 4000 
L 1400 4000 
Q 1000 4000 625 3975 
L 625 4450 
Q 975 4425 1375 4425 
L 2000 4425 
z
" transform="scale(0.015625)"/>
      <path id="SimHei-6027" d="M 3450 4525 
Q 3325 4075 3275 3750 
L 4050 3750 
L 4050 4275 
Q 4050 4700 4025 5100 
L 4550 5100 
Q 4525 4700 4525 4275 
L 4525 3750 
L 5025 3750 
Q 5350 3750 5800 3775 
L 5800 3300 
Q 5350 3325 5025 3325 
L 4525 3325 
L 4525 2000 
L 4975 2000 
Q 5350 2000 5725 2025 
L 5725 1550 
Q 5350 1575 4975 1575 
L 4525 1575 
L 4525 25 
L 5200 25 
Q 5625 25 6025 50 
L 6025 -400 
Q 5625 -375 5200 -375 
L 3275 -375 
Q 2825 -375 2400 -400 
L 2400 50 
Q 2825 25 3250 25 
L 4050 25 
L 4050 1575 
L 3625 1575 
Q 3300 1575 2875 1550 
L 2875 2025 
Q 3200 2000 3625 2000 
L 4050 2000 
L 4050 3325 
L 3175 3325 
Q 3100 2950 2775 2225 
Q 2500 2375 2325 2400 
Q 2675 3125 2775 3650 
Q 2875 4175 2950 4650 
Q 3200 4575 3450 4525 
z
M 1700 5150 
Q 1675 4650 1675 4175 
L 1675 425 
Q 1675 -100 1700 -625 
L 1175 -625 
Q 1200 -100 1200 425 
L 1200 4175 
Q 1200 4700 1175 5150 
L 1700 5150 
z
M 975 3725 
Q 825 2675 700 2150 
Q 450 2200 250 2250 
Q 425 2900 525 3800 
Q 725 3775 975 3725 
z
M 2125 4025 
Q 2325 3625 2525 3000 
Q 2300 2925 2125 2825 
Q 1950 3375 1750 3850 
Q 1950 3950 2125 4025 
z
" transform="scale(0.015625)"/>
      <path id="SimHei-6307" d="M 5625 2225 
Q 5600 1925 5600 1350 
L 5600 300 
Q 5600 -225 5625 -525 
L 5125 -525 
L 5125 -125 
L 3300 -125 
L 3300 -625 
L 2800 -625 
Q 2825 -300 2825 300 
L 2825 1350 
Q 2825 1925 2800 2225 
L 5625 2225 
z
M 500 25 
Q 1075 -25 1175 37 
Q 1275 100 1275 275 
L 1275 1675 
Q 1050 1600 925 1537 
Q 800 1475 475 1275 
Q 400 1525 225 1800 
Q 625 1900 825 1975 
Q 1025 2050 1275 2125 
L 1275 3300 
L 1100 3300 
Q 775 3300 450 3275 
L 450 3725 
Q 750 3700 1100 3700 
L 1275 3700 
L 1275 4450 
Q 1275 4800 1250 5125 
L 1775 5125 
Q 1750 4850 1750 4450 
L 1750 3700 
Q 2075 3700 2425 3725 
L 2425 3275 
Q 2050 3300 1750 3300 
L 1750 2325 
Q 1850 2350 2025 2425 
L 2375 2575 
Q 2350 2300 2375 2100 
Q 2225 2050 2062 1987 
Q 1900 1925 1750 1850 
L 1750 100 
Q 1725 -200 1575 -337 
Q 1425 -475 675 -525 
Q 625 -250 500 25 
z
M 3325 5025 
Q 3300 4675 3300 4125 
Q 4125 4275 4512 4412 
Q 4900 4550 5225 4725 
Q 5325 4475 5575 4250 
Q 5450 4225 5237 4175 
Q 5025 4125 4725 4050 
Q 4425 3975 4037 3887 
Q 3650 3800 3300 3725 
L 3300 3175 
Q 3275 2925 3700 2925 
L 4925 2925 
Q 5300 2925 5387 3087 
Q 5475 3250 5550 3600 
Q 5750 3400 6050 3300 
Q 5825 2725 5700 2637 
Q 5575 2550 5275 2525 
L 3350 2525 
Q 3050 2525 2937 2687 
Q 2825 2850 2825 2975 
L 2825 4125 
Q 2825 4775 2800 5025 
L 3325 5025 
z
M 5125 275 
L 5125 875 
L 3300 875 
L 3300 275 
L 5125 275 
z
M 5125 1250 
L 5125 1825 
L 3300 1825 
L 3300 1250 
L 5125 1250 
z
" transform="scale(0.015625)"/>
      <path id="SimHei-6807" d="M 1275 4400 
Q 1275 4800 1250 5175 
L 1750 5175 
Q 1725 4825 1725 4400 
L 1725 3800 
Q 2125 3800 2575 3825 
L 2575 3350 
Q 2125 3375 1725 3375 
L 1725 2525 
Q 1900 2650 2075 2800 
Q 2400 2275 2650 1775 
Q 2375 1650 2175 1500 
Q 2025 2000 1725 2425 
L 1725 475 
Q 1725 -50 1750 -575 
L 1250 -575 
Q 1275 -25 1275 475 
L 1275 2100 
Q 1025 1400 500 750 
Q 350 950 125 1125 
Q 550 1550 812 2187 
Q 1075 2825 1150 3375 
Q 675 3375 325 3325 
L 325 3825 
Q 800 3800 1275 3800 
L 1275 4400 
z
M 5175 3125 
Q 5675 3125 6050 3150 
L 6050 2675 
Q 5675 2700 5275 2700 
L 4500 2700 
L 4500 175 
Q 4500 -225 4275 -350 
Q 4050 -475 3475 -550 
Q 3425 -250 3275 25 
Q 3775 25 3900 62 
Q 4025 100 4025 350 
L 4025 2700 
L 3400 2700 
Q 2775 2700 2500 2650 
L 2500 3150 
Q 2825 3125 3400 3125 
L 5175 3125 
z
M 4900 4775 
Q 5425 4775 5750 4800 
L 5750 4300 
Q 5275 4350 4750 4350 
L 3525 4350 
Q 3125 4350 2750 4300 
L 2750 4800 
Q 3100 4775 3525 4775 
L 4900 4775 
z
M 5275 2025 
Q 5825 1175 6200 500 
Q 5925 375 5650 200 
Q 5375 925 4825 1725 
Q 5075 1850 5275 2025 
z
M 3600 1775 
Q 3500 1625 3225 975 
Q 2950 325 2800 50 
Q 2575 175 2300 275 
Q 2625 775 2787 1187 
Q 2950 1600 3050 2000 
Q 3325 1875 3600 1775 
z
" transform="scale(0.015625)"/>
     </defs>
     <use xlink:href="#SimHei-6d41"/>
     <use xlink:href="#SimHei-52a8" transform="translate(100 0)"/>
     <use xlink:href="#SimHei-6027" transform="translate(200 0)"/>
     <use xlink:href="#SimHei-6307" transform="translate(300 0)"/>
     <use xlink:href="#SimHei-6807" transform="translate(400 0)"/>
    </g>
   </g>
   <g id="legend_1">
    <g id="patch_7">
     <path d="M 36.2 66.85625 
L 128.2 66.85625 
Q 130.2 66.85625 130.2 64.85625 
L 130.2 38.270312 
Q 130.2 36.270312 128.2 36.270312 
L 36.2 36.270312 
Q 34.2 36.270312 34.2 38.270312 
L 34.2 64.85625 
Q 34.2 66.85625 36.2 66.85625 
z
" style="fill: #161b22; opacity: 0.9; stroke: #30363d; stroke-linejoin: miter"/>
    </g>
    <g id="line2d_37">
     <path d="M 38.2 43.770312 
L 48.2 43.770312 
L 58.2 43.770312 
" style="fill: none; stroke: #ff0000; stroke-width: 2; stroke-linecap: square"/>
    </g>
    <g id="text_20">
     <!-- Shibor 1M -->
     <g style="fill: #c9d1d9" transform="translate(66.2 47.270312) scale(0.1 -0.1)">
      <defs>
       <path id="SimHei-53" d="M 2900 1325 
Q 2900 750 2537 412 
Q 2175 75 1550 75 
Q 925 75 575 425 
Q 225 775 225 1300 
L 225 1475 
L 800 1475 
L 800 1325 
Q 800 950 1025 750 
Q 1250 550 1550 550 
Q 1950 550 2137 762 
Q 2325 975 2325 1275 
Q 2325 1525 2100 1737 
Q 1875 1950 1450 2125 
Q 850 2350 587 2625 
Q 325 2900 325 3275 
Q 325 3800 687 4125 
Q 1050 4450 1550 4450 
Q 2200 4450 2487 4062 
Q 2775 3675 2775 3225 
L 2200 3225 
Q 2225 3500 2050 3725 
Q 1875 3950 1550 3950 
Q 1250 3950 1075 3787 
Q 900 3625 900 3350 
Q 900 3125 1037 2962 
Q 1175 2800 1750 2575 
Q 2300 2350 2600 2037 
Q 2900 1725 2900 1325 
z
" transform="scale(0.015625)"/>
       <path id="SimHei-68" d="M 2800 125 
L 2300 125 
L 2300 1925 
Q 2300 2225 2150 2400 
Q 2000 2575 1750 2575 
Q 1425 2575 1137 2237 
Q 850 1900 850 1400 
L 850 125 
L 350 125 
L 350 4400 
L 850 4400 
L 850 2400 
Q 1050 2675 1287 2825 
Q 1525 2975 1900 2975 
Q 2350 2975 2575 2725 
Q 2800 2475 2800 2100 
L 2800 125 
z
" transform="scale(0.015625)"/>
       <path id="SimHei-69" d="M 1800 3725 
L 1300 3725 
L 1300 4375 
L 1800 4375 
L 1800 3725 
z
M 1800 125 
L 1300 125 
L 1300 2925 
L 1800 2925 
L 1800 125 
z
" transform="scale(0.015625)"/>
       <path id="SimHei-62" d="M 2825 1525 
Q 2825 800 2475 437 
Q 2125 75 1625 75 
Q 1350 75 1150 175 
Q 950 275 800 500 
L 800 125 
L 300 125 
L 300 4400 
L 800 4400 
L 800 2550 
Q 950 2775 1150 2887 
Q 1350 3000 1625 3000 
Q 2125 3000 2475 2625 
Q 2825 2250 2825 1525 
z
M 2275 1525 
Q 2275 2000 2087 2275 
Q 1900 2550 1525 2550 
Q 1225 2550 1012 2275 
Q 800 2000 800 1525 
Q 800 1050 1012 787 
Q 1225 525 1525 525 
Q 1900 525 2087 787 
Q 2275 1050 2275 1525 
z
" transform="scale(0.015625)"/>
       <path id="SimHei-6f" d="M 2925 1525 
Q 2925 875 2525 475 
Q 2125 75 1575 75 
Q 1025 75 625 475 
Q 225 875 225 1525 
Q 225 2175 625 2575 
Q 1025 2975 1575 2975 
Q 2125 2975 2525 2575 
Q 2925 2175 2925 1525 
z
M 2375 1525 
Q 2375 2025 2125 2275 
Q 1875 2525 1575 2525 
Q 1275 2525 1025 2275 
Q 775 2025 775 1525 
Q 775 1025 1025 775 
Q 1275 525 1575 525 
Q 1875 525 2125 775 
Q 2375 1025 2375 1525 
z
" transform="scale(0.015625)"/>
       <path id="SimHei-72" d="M 2500 2425 
Q 2025 2500 1700 2287 
Q 1375 2075 1150 1550 
L 1150 125 
L 650 125 
L 650 2925 
L 1150 2925 
L 1150 2200 
Q 1375 2600 1712 2787 
Q 2050 2975 2500 2975 
L 2500 2425 
z
" transform="scale(0.015625)"/>
       <path id="SimHei-20" transform="scale(0.015625)"/>
       <path id="SimHei-4d" d="M 2925 125 
L 2425 125 
L 2425 3175 
L 2375 3175 
L 1775 125 
L 1375 125 
L 775 3175 
L 725 3175 
L 725 125 
L 225 125 
L 225 4400 
L 1000 4400 
L 1550 1575 
L 1600 1575 
L 2150 4400 
L 2925 4400 
L 2925 125 
z
" transform="scale(0.015625)"/>
      </defs>
      <use xlink:href="#SimHei-53"/>
      <use xlink:href="#SimHei-68" transform="translate(50 0)"/>
      <use xlink:href="#SimHei-69" transform="translate(100 0)"/>
      <use xlink:href="#SimHei-62" transform="translate(150 0)"/>
      <use xlink:href="#SimHei-6f" transform="translate(200 0)"/>
      <use xlink:href="#SimHei-72" transform="translate(250 0)"/>
      <use xlink:href="#SimHei-20" transform="translate(300 0)"/>
      <use xlink:href="#SimHei-31" transform="translate(350 0)"/>
      <use xlink:href="#SimHei-4d" transform="translate(400 0)"/>
     </g>
    </g>
    <g id="line2d_38">
     <path d="M 38.2 58.10625 
L 48.2 58.10625 
L 58.2 58.10625 
" style="fill: none; stroke: #008000; stroke-width: 2; stroke-linecap: square"/>
    </g>
    <g id="text_21">
     <!-- 中美国债利差 -->
     <g style="fill: #c9d1d9" transform="translate(66.2 61.60625) scale(0.1 -0.1)">
      <defs>
       <path id="SimHei-4e2d" d="M 3475 5200 
Q 3450 4500 3450 3875 
L 5625 3875 
Q 5600 3375 5600 2500 
Q 5600 1650 5625 1225 
L 5075 1225 
L 5075 1600 
L 3450 1600 
L 3450 525 
Q 3450 225 3475 -600 
L 2875 -600 
Q 2925 -150 2925 450 
L 2925 1600 
L 1300 1600 
L 1300 1225 
L 750 1225 
Q 775 1600 775 2500 
Q 775 3425 750 3875 
L 2925 3875 
Q 2925 4550 2900 5200 
L 3475 5200 
z
M 5075 2000 
L 5075 3475 
L 3450 3475 
L 3450 2000 
L 5075 2000 
z
M 2925 2000 
L 2925 3475 
L 1300 3475 
L 1300 2000 
L 2925 2000 
z
" transform="scale(0.015625)"/>
       <path id="SimHei-7f8e" d="M 4650 5000 
Q 4525 4900 4150 4350 
L 4800 4350 
Q 5300 4350 5575 4375 
L 5575 3950 
Q 5300 3975 4800 3975 
L 3450 3975 
L 3450 3375 
L 4475 3375 
Q 4875 3375 5250 3400 
L 5250 3000 
Q 4875 3025 4475 3025 
L 3450 3025 
L 3450 2450 
L 5025 2450 
Q 5500 2450 5900 2475 
L 5900 2050 
Q 5525 2075 5025 2075 
L 1425 2075 
Q 900 2075 525 2050 
L 525 2475 
Q 900 2450 1425 2450 
L 3000 2450 
L 3000 3025 
L 2050 3025 
Q 1625 3025 1200 3000 
L 1200 3400 
Q 1625 3375 2050 3375 
L 3000 3375 
L 3000 3975 
L 1725 3975 
Q 1325 3975 850 3950 
L 850 4375 
Q 1325 4350 1725 4350 
L 2250 4350 
Q 2100 4625 1800 4975 
Q 2000 5100 2175 5225 
L 2700 4550 
Q 2475 4450 2325 4350 
L 3675 4350 
Q 3900 4700 4150 5275 
Q 4350 5125 4650 5000 
z
M 525 -225 
Q 950 -175 1425 -25 
Q 1900 125 2275 412 
Q 2650 700 2800 1050 
L 1875 1050 
Q 1325 1050 725 1025 
L 725 1450 
Q 1325 1425 1875 1425 
L 2900 1425 
Q 2925 1750 2925 1975 
Q 3250 1875 3500 1875 
Q 3425 1650 3375 1425 
L 4600 1425 
Q 5250 1425 5725 1450 
L 5725 1025 
Q 5250 1050 4625 1050 
L 3600 1050 
Q 3900 700 4187 500 
Q 4475 300 4700 200 
Q 4925 100 5225 12 
Q 5525 -75 6050 -150 
Q 5900 -375 5750 -675 
Q 5175 -550 4775 -362 
Q 4375 -175 3962 137 
Q 3550 450 3225 900 
Q 3000 525 2787 300 
Q 2575 75 2250 -125 
Q 1925 -325 1575 -462 
Q 1225 -600 825 -700 
Q 750 -475 525 -225 
z
" transform="scale(0.015625)"/>
       <path id="SimHei-56fd" d="M 5775 4975 
Q 5750 4350 5750 3575 
L 5750 900 
Q 5750 125 5775 -625 
L 5275 -625 
L 5275 -275 
L 1125 -275 
L 1125 -650 
L 625 -650 
Q 650 125 650 950 
L 650 3575 
Q 650 4325 625 4975 
L 5775 4975 
z
M 5275 100 
L 5275 4600 
L 1125 4600 
L 1125 100 
L 5275 100 
z
M 3975 3925 
Q 4350 3925 4775 3950 
L 4775 3500 
Q 4400 3525 3975 3525 
L 3350 3525 
L 3350 2700 
L 3800 2700 
Q 4250 2700 4650 2725 
L 4650 2275 
Q 4250 2300 3800 2300 
L 3350 2300 
L 3350 1175 
L 4050 1175 
Q 4500 1175 4900 1200 
L 4900 750 
Q 4525 775 4050 775 
L 2350 775 
Q 1925 775 1500 750 
L 1500 1200 
Q 1925 1175 2350 1175 
L 2900 1175 
L 2900 2300 
L 2550 2300 
Q 2125 2300 1750 2275 
L 1750 2725 
Q 2125 2700 2550 2700 
L 2900 2700 
L 2900 3525 
L 2525 3525 
Q 2075 3525 1650 3500 
L 1650 3950 
Q 2075 3925 2525 3925 
L 3975 3925 
z
M 4050 2125 
Q 4175 2000 4550 1600 
Q 4300 1450 4125 1325 
Q 4050 1425 3700 1850 
Q 3900 2000 4050 2125 
z
" transform="scale(0.015625)"/>
       <path id="SimHei-503a" d="M 3750 4600 
Q 3750 4900 3725 5200 
L 4275 5200 
Q 4250 4875 4250 4600 
L 5000 4600 
Q 5550 4600 5800 4625 
L 5800 4200 
Q 5525 4225 5000 4225 
L 4250 4225 
L 4250 3850 
L 4875 3850 
Q 5250 3850 5625 3875 
L 5625 3450 
Q 5325 3475 4875 3475 
L 4250 3475 
L 4250 3100 
L 5150 3100 
Q 5725 3100 6050 3125 
L 6050 2700 
Q 5675 2725 5150 2725 
L 2875 2725 
Q 2400 2725 2000 2700 
L 2000 3125 
Q 2375 3100 2850 3100 
L 3750 3100 
L 3750 3475 
L 3325 3475 
Q 2850 3475 2500 3450 
L 2500 3875 
Q 2850 3850 3300 3850 
L 3750 3850 
L 3750 4225 
L 3225 4225 
Q 2675 4225 2300 4200 
L 2300 4625 
Q 2650 4600 3125 4600 
L 3750 4600 
z
M 250 2600 
Q 500 2875 887 3550 
Q 1275 4225 1500 5075 
Q 1750 4950 2100 4850 
Q 1900 4625 1550 3775 
L 1550 800 
Q 1550 -25 1575 -500 
L 1050 -500 
Q 1075 0 1075 825 
L 1075 2950 
Q 775 2450 625 2225 
L 250 2600 
z
M 5650 2300 
Q 5625 2100 5625 1550 
Q 5625 1025 5650 775 
L 5150 775 
L 5150 1925 
L 2975 1925 
L 2975 700 
L 2475 700 
Q 2500 1075 2500 1550 
Q 2500 2050 2475 2300 
L 5650 2300 
z
M 1950 -150 
Q 3250 25 3562 562 
Q 3875 1100 3800 1650 
L 4350 1600 
Q 4275 600 3825 112 
Q 3375 -375 2250 -600 
Q 2125 -350 1950 -150 
z
M 4675 675 
Q 5075 475 5412 300 
Q 5750 125 6050 -75 
Q 5900 -250 5750 -525 
Q 4875 125 4400 300 
Q 4525 500 4675 675 
z
" transform="scale(0.015625)"/>
       <path id="SimHei-5229" d="M 2400 2650 
Q 2950 2150 3500 1525 
Q 3325 1375 3125 1150 
Q 2775 1675 2400 2075 
L 2400 225 
Q 2400 -375 2425 -675 
L 1875 -675 
Q 1900 -350 1900 225 
L 1900 1975 
Q 1625 1450 1375 1100 
Q 1125 750 725 275 
Q 575 525 300 700 
Q 850 1150 1287 1837 
Q 1725 2525 1850 2950 
L 1375 2950 
Q 775 2950 500 2925 
L 500 3400 
Q 800 3375 1375 3375 
L 1900 3375 
L 1900 4350 
Q 1400 4250 825 4150 
Q 750 4400 625 4625 
Q 1050 4650 1800 4800 
Q 2550 4950 3225 5175 
Q 3350 4875 3550 4650 
Q 3050 4575 2400 4450 
L 2400 3375 
L 2825 3375 
Q 3350 3375 3750 3400 
L 3750 2925 
Q 3350 2950 2850 2950 
L 2400 2950 
L 2400 2650 
z
M 5775 5125 
Q 5750 4875 5750 4275 
L 5750 -100 
Q 5750 -400 5512 -487 
Q 5275 -575 4675 -675 
Q 4600 -300 4500 -75 
Q 5025 -100 5137 -50 
Q 5250 0 5250 150 
L 5250 4300 
Q 5250 4650 5225 5125 
L 5775 5125 
z
M 4625 4100 
Q 4600 3800 4600 3300 
L 4600 1725 
Q 4600 1200 4625 825 
L 4075 825 
Q 4100 1275 4100 1725 
L 4100 3300 
Q 4100 3700 4075 4100 
L 4625 4100 
z
" transform="scale(0.015625)"/>
       <path id="SimHei-5dee" d="M 4725 4975 
Q 4500 4725 4250 4275 
L 4850 4275 
Q 5450 4275 5825 4300 
L 5825 3850 
Q 5425 3875 4850 3875 
L 3275 3875 
Q 3225 3600 3150 3275 
L 4525 3275 
Q 5075 3275 5525 3300 
L 5525 2850 
Q 5075 2875 4500 2875 
L 3050 2875 
Q 2975 2650 2850 2325 
L 5125 2325 
Q 5675 2325 6025 2350 
L 6025 1900 
Q 5700 1925 5150 1925 
L 2650 1925 
Q 2425 1550 2250 1300 
Q 2650 1275 3100 1275 
L 4525 1275 
Q 4975 1275 5350 1300 
L 5350 850 
Q 4975 875 4575 875 
L 3925 875 
L 3925 -50 
L 5000 -50 
Q 5200 -50 5900 -25 
L 5900 -500 
Q 5275 -475 5025 -475 
L 2100 -475 
Q 1700 -475 1400 -500 
L 1400 -25 
Q 1775 -50 2125 -50 
L 3425 -50 
L 3425 875 
L 3100 875 
Q 2625 875 2175 850 
L 2175 1200 
Q 1925 875 1487 475 
Q 1050 75 625 -250 
Q 425 -25 200 150 
Q 750 475 1262 925 
Q 1775 1375 2100 1925 
L 1325 1925 
Q 750 1925 375 1900 
L 375 2350 
Q 750 2325 1350 2325 
L 2325 2325 
Q 2450 2575 2550 2875 
L 1725 2875 
Q 1375 2875 1000 2850 
L 1000 3300 
Q 1500 3275 1700 3275 
L 2650 3275 
Q 2725 3575 2775 3875 
L 1500 3875 
Q 1100 3875 650 3850 
L 650 4300 
Q 1025 4275 1425 4275 
L 2275 4275 
Q 2075 4675 1850 4950 
Q 2025 5050 2250 5225 
Q 2450 4975 2725 4550 
Q 2525 4450 2325 4275 
L 3750 4275 
Q 4000 4700 4150 5250 
Q 4400 5100 4725 4975 
z
" transform="scale(0.015625)"/>
      </defs>
      <use xlink:href="#SimHei-4e2d"/>
      <use xlink:href="#SimHei-7f8e" transform="translate(100 0)"/>
      <use xlink:href="#SimHei-56fd" transform="translate(200 0)"/>
      <use xlink:href="#SimHei-503a" transform="translate(300 0)"/>
      <use xlink:href="#SimHei-5229" transform="translate(400 0)"/>
      <use xlink:href="#SimHei-5dee" transform="translate(500 0)"/>
     </g>
    </g>
   </g>
  </g>
 </g>
 <defs>
  <clipPath id="pcc9144ac89">
   <rect x="29.2" y="31.270312" width="1025.28" height="525.6"/>
  </clipPath>
 </defs>
</svg>
