<?xml version="1.0" encoding="utf-8" standalone="no"?>
<!DOCTYPE svg PUBLIC "-//W3C//DTD SVG 1.1//EN"
  "http://www.w3.org/Graphics/SVG/1.1/DTD/svg11.dtd">
<svg xmlns:xlink="http://www.w3.org/1999/xlink" width="1140pt" height="708.48pt" viewBox="0 0 1140 708.48" xmlns="http://www.w3.org/2000/svg" version="1.1">
 <metadata>
  <rdf:RDF xmlns:dc="http://purl.org/dc/elements/1.1/" xmlns:cc="http://creativecommons.org/ns#" xmlns:rdf="http://www.w3.org/1999/02/22-rdf-syntax-ns#">
   <cc:Work>
    <dc:type rdf:resource="http://purl.org/dc/dcmitype/StillImage"/>
    <dc:date>2026-07-08T16:36:13.807363</dc:date>
    <dc:format>image/svg+xml</dc:format>
    <dc:creator>
     <cc:Agent>
      <dc:title>Matplotlib v3.11.0, https://matplotlib.org/</dc:title>
     </cc:Agent>
    </dc:creator>
   </cc:Work>
  </rdf:RDF>
 </metadata>
 <defs>
  <style type="text/css">*{stroke-linejoin: round; stroke-linecap: butt}</style>
 </defs>
 <g id="figure_1">
  <g id="patch_1">
   <path d="M 0 708.48 
L 1140 708.48 
L 1140 0 
L 0 0 
z
" style="fill: #1a1a1a"/>
  </g>
  <g id="axes_1">
   <g id="patch_2">
    <path d="M 39.7 313.643848 
L 1132.8 313.643848 
L 1132.8 25.23125 
L 39.7 25.23125 
z
"/>
   </g>
   <g id="matplotlib.axis_1">
    <g id="xtick_1">
     <g id="line2d_1">
      <path d="M 133.356597 313.643848 
L 133.356597 25.23125 
" clip-path="url(#pb405ab79d9)" style="fill: none; stroke-dasharray: 2.96,1.28; stroke-dashoffset: 0; stroke: #ffffff; stroke-opacity: 0.3; stroke-width: 0.8"/>
     </g>
     <g id="line2d_2">
      <defs>
       <path id="mebd670910e" d="M 0 0 
L 0 -3.5 
" style="stroke: #ffffff; stroke-width: 0.8"/>
      </defs>
      <g>
       <use xlink:href="#mebd670910e" x="133.356597" y="313.643848" style="fill: #ffffff; stroke: #ffffff; stroke-width: 0.8"/>
      </g>
     </g>
     <g id="text_1">
      <!-- 2025-05 -->
      <g style="fill: #ffffff" transform="translate(96.13978 347.074735) rotate(-30) scale(0.12 -0.12)">
       <defs>
        <path id="SimHei-15" d="M 300 250 
Q 325 625 650 925 
Q 975 1225 1475 1862 
Q 1975 2500 2125 2850 
Q 2275 3200 2237 3450 
Q 2200 3700 2000 3862 
Q 1800 4025 1537 4000 
Q 1275 3975 1037 3800 
Q 800 3625 675 3275 
L 200 3350 
Q 400 3925 712 4187 
Q 1025 4450 1450 4475 
Q 1700 4500 1900 4462 
Q 2100 4425 2312 4287 
Q 2525 4150 2662 3875 
Q 2800 3600 2762 3212 
Q 2725 2825 2375 2287 
Q 2025 1750 1025 600 
L 2825 600 
L 2825 150 
L 300 150 
L 300 250 
z
" transform="scale(0.015625)"/>
        <path id="SimHei-13" d="M 225 2537 
Q 250 3200 412 3587 
Q 575 3975 875 4225 
Q 1175 4475 1612 4475 
Q 2050 4475 2375 4112 
Q 2700 3750 2800 3200 
Q 2900 2650 2862 1937 
Q 2825 1225 2612 775 
Q 2400 325 1975 150 
Q 1550 -25 1125 187 
Q 700 400 525 750 
Q 350 1100 275 1487 
Q 200 1875 225 2537 
z
M 750 2687 
Q 675 2000 800 1462 
Q 925 925 1212 700 
Q 1500 475 1800 612 
Q 2100 750 2237 1162 
Q 2375 1575 2375 2062 
Q 2375 2550 2337 2950 
Q 2300 3350 2112 3675 
Q 1925 4000 1612 4012 
Q 1300 4025 1062 3700 
Q 825 3375 750 2687 
z
" transform="scale(0.015625)"/>
        <path id="SimHei-18" d="M 550 1325 
Q 725 650 1150 575 
Q 1575 500 1837 662 
Q 2100 825 2212 1087 
Q 2325 1350 2312 1675 
Q 2300 2000 2137 2225 
Q 1975 2450 1725 2525 
Q 1475 2600 1162 2525 
Q 850 2450 650 2175 
L 225 2225 
Q 275 2375 700 4375 
L 2675 4375 
L 2675 3925 
L 1075 3925 
Q 950 3250 825 2850 
Q 1200 3025 1525 3012 
Q 1850 3000 2150 2862 
Q 2450 2725 2587 2487 
Q 2725 2250 2787 2012 
Q 2850 1775 2837 1500 
Q 2825 1225 2725 937 
Q 2625 650 2425 462 
Q 2225 275 1937 162 
Q 1650 50 1275 75 
Q 900 100 562 350 
Q 225 600 100 1200 
L 550 1325 
z
" transform="scale(0.015625)"/>
        <path id="SimHei-10" d="M 2975 2125 
L 125 2125 
L 125 2525 
L 2975 2525 
L 2975 2125 
z
" transform="scale(0.015625)"/>
       </defs>
       <use xlink:href="#SimHei-15"/>
       <use xlink:href="#SimHei-13" transform="translate(50 0)"/>
       <use xlink:href="#SimHei-15" transform="translate(100 0)"/>
       <use xlink:href="#SimHei-18" transform="translate(150 0)"/>
       <use xlink:href="#SimHei-10" transform="translate(200 0)"/>
       <use xlink:href="#SimHei-13" transform="translate(250 0)"/>
       <use xlink:href="#SimHei-18" transform="translate(300 0)"/>
      </g>
     </g>
    </g>
    <g id="xtick_2">
     <g id="line2d_3">
      <path d="M 267.465809 313.643848 
L 267.465809 25.23125 
" clip-path="url(#pb405ab79d9)" style="fill: none; stroke-dasharray: 2.96,1.28; stroke-dashoffset: 0; stroke: #ffffff; stroke-opacity: 0.3; stroke-width: 0.8"/>
     </g>
     <g id="line2d_4">
      <g>
       <use xlink:href="#mebd670910e" x="267.465809" y="313.643848" style="fill: #ffffff; stroke: #ffffff; stroke-width: 0.8"/>
      </g>
     </g>
     <g id="text_2">
      <!-- 2025-07 -->
      <g style="fill: #ffffff" transform="translate(230.248992 347.074735) rotate(-30) scale(0.12 -0.12)">
       <defs>
        <path id="SimHei-1a" d="M 850 150 
Q 1300 2050 2425 3925 
L 275 3925 
L 275 4375 
L 2950 4375 
L 2950 3950 
Q 1775 2050 1400 150 
L 850 150 
z
" transform="scale(0.015625)"/>
       </defs>
       <use xlink:href="#SimHei-15"/>
       <use xlink:href="#SimHei-13" transform="translate(50 0)"/>
       <use xlink:href="#SimHei-15" transform="translate(100 0)"/>
       <use xlink:href="#SimHei-18" transform="translate(150 0)"/>
       <use xlink:href="#SimHei-10" transform="translate(200 0)"/>
       <use xlink:href="#SimHei-13" transform="translate(250 0)"/>
       <use xlink:href="#SimHei-1a" transform="translate(300 0)"/>
      </g>
     </g>
    </g>
    <g id="xtick_3">
     <g id="line2d_5">
      <path d="M 403.773532 313.643848 
L 403.773532 25.23125 
" clip-path="url(#pb405ab79d9)" style="fill: none; stroke-dasharray: 2.96,1.28; stroke-dashoffset: 0; stroke: #ffffff; stroke-opacity: 0.3; stroke-width: 0.8"/>
     </g>
     <g id="line2d_6">
      <g>
       <use xlink:href="#mebd670910e" x="403.773532" y="313.643848" style="fill: #ffffff; stroke: #ffffff; stroke-width: 0.8"/>
      </g>
     </g>
     <g id="text_3">
      <!-- 2025-09 -->
      <g style="fill: #ffffff" transform="translate(366.556715 347.074735) rotate(-30) scale(0.12 -0.12)">
       <defs>
        <path id="SimHei-1c" d="M 800 75 
Q 1350 1000 1700 1750 
Q 1075 1650 662 1912 
Q 250 2175 162 2625 
Q 75 3075 175 3437 
Q 275 3800 487 4037 
Q 700 4275 1000 4375 
Q 1300 4475 1537 4475 
Q 1775 4475 2025 4375 
Q 2275 4275 2475 4075 
Q 2675 3875 2750 3662 
Q 2825 3450 2825 3112 
Q 2825 2775 2575 2250 
Q 2325 1725 1350 75 
L 800 75 
z
M 662 2875 
Q 700 2550 937 2337 
Q 1175 2125 1450 2150 
Q 1725 2175 1887 2300 
Q 2050 2425 2200 2725 
Q 2300 3100 2250 3362 
Q 2200 3625 1987 3800 
Q 1775 3975 1525 3975 
Q 1375 4000 1137 3900 
Q 900 3800 762 3500 
Q 625 3200 662 2875 
z
" transform="scale(0.015625)"/>
       </defs>
       <use xlink:href="#SimHei-15"/>
       <use xlink:href="#SimHei-13" transform="translate(50 0)"/>
       <use xlink:href="#SimHei-15" transform="translate(100 0)"/>
       <use xlink:href="#SimHei-18" transform="translate(150 0)"/>
       <use xlink:href="#SimHei-10" transform="translate(200 0)"/>
       <use xlink:href="#SimHei-13" transform="translate(250 0)"/>
       <use xlink:href="#SimHei-1c" transform="translate(300 0)"/>
      </g>
     </g>
    </g>
    <g id="xtick_4">
     <g id="line2d_7">
      <path d="M 537.882743 313.643848 
L 537.882743 25.23125 
" clip-path="url(#pb405ab79d9)" style="fill: none; stroke-dasharray: 2.96,1.28; stroke-dashoffset: 0; stroke: #ffffff; stroke-opacity: 0.3; stroke-width: 0.8"/>
     </g>
     <g id="line2d_8">
      <g>
       <use xlink:href="#mebd670910e" x="537.882743" y="313.643848" style="fill: #ffffff; stroke: #ffffff; stroke-width: 0.8"/>
      </g>
     </g>
     <g id="text_4">
      <!-- 2025-11 -->
      <g style="fill: #ffffff" transform="translate(500.665926 347.074735) rotate(-30) scale(0.12 -0.12)">
       <defs>
        <path id="SimHei-14" d="M 1400 3600 
Q 1075 3275 575 2975 
L 575 3450 
Q 1200 3875 1600 4450 
L 1900 4450 
L 1900 150 
L 1400 150 
L 1400 3600 
z
" transform="scale(0.015625)"/>
       </defs>
       <use xlink:href="#SimHei-15"/>
       <use xlink:href="#SimHei-13" transform="translate(50 0)"/>
       <use xlink:href="#SimHei-15" transform="translate(100 0)"/>
       <use xlink:href="#SimHei-18" transform="translate(150 0)"/>
       <use xlink:href="#SimHei-10" transform="translate(200 0)"/>
       <use xlink:href="#SimHei-14" transform="translate(250 0)"/>
       <use xlink:href="#SimHei-14" transform="translate(300 0)"/>
      </g>
     </g>
    </g>
    <g id="xtick_5">
     <g id="line2d_9">
      <path d="M 671.991955 313.643848 
L 671.991955 25.23125 
" clip-path="url(#pb405ab79d9)" style="fill: none; stroke-dasharray: 2.96,1.28; stroke-dashoffset: 0; stroke: #ffffff; stroke-opacity: 0.3; stroke-width: 0.8"/>
     </g>
     <g id="line2d_10">
      <g>
       <use xlink:href="#mebd670910e" x="671.991955" y="313.643848" style="fill: #ffffff; stroke: #ffffff; stroke-width: 0.8"/>
      </g>
     </g>
     <g id="text_5">
      <!-- 2026-01 -->
      <g style="fill: #ffffff" transform="translate(634.775138 347.074735) rotate(-30) scale(0.12 -0.12)">
       <defs>
        <path id="SimHei-19" d="M 250 1612 
Q 275 1975 387 2225 
Q 500 2475 725 2850 
L 1750 4450 
L 2325 4450 
L 1275 2800 
Q 1950 2975 2350 2750 
Q 2750 2525 2887 2237 
Q 3025 1950 3037 1612 
Q 3050 1275 2937 950 
Q 2825 625 2537 362 
Q 2250 100 1737 75 
Q 1225 50 862 262 
Q 500 475 362 862 
Q 225 1250 250 1612 
z
M 1025 787 
Q 1250 550 1625 525 
Q 2000 500 2250 775 
Q 2500 1050 2500 1575 
Q 2500 2100 2187 2300 
Q 1875 2500 1487 2450 
Q 1100 2400 925 2075 
Q 750 1750 775 1387 
Q 800 1025 1025 787 
z
" transform="scale(0.015625)"/>
       </defs>
       <use xlink:href="#SimHei-15"/>
       <use xlink:href="#SimHei-13" transform="translate(50 0)"/>
       <use xlink:href="#SimHei-15" transform="translate(100 0)"/>
       <use xlink:href="#SimHei-19" transform="translate(150 0)"/>
       <use xlink:href="#SimHei-10" transform="translate(200 0)"/>
       <use xlink:href="#SimHei-13" transform="translate(250 0)"/>
       <use xlink:href="#SimHei-14" transform="translate(300 0)"/>
      </g>
     </g>
    </g>
    <g id="xtick_6">
     <g id="line2d_11">
      <path d="M 801.704143 313.643848 
L 801.704143 25.23125 
" clip-path="url(#pb405ab79d9)" style="fill: none; stroke-dasharray: 2.96,1.28; stroke-dashoffset: 0; stroke: #ffffff; stroke-opacity: 0.3; stroke-width: 0.8"/>
     </g>
     <g id="line2d_12">
      <g>
       <use xlink:href="#mebd670910e" x="801.704143" y="313.643848" style="fill: #ffffff; stroke: #ffffff; stroke-width: 0.8"/>
      </g>
     </g>
     <g id="text_6">
      <!-- 2026-03 -->
      <g style="fill: #ffffff" transform="translate(764.487326 347.074735) rotate(-30) scale(0.12 -0.12)">
       <defs>
        <path id="SimHei-16" d="M 250 1225 
L 700 1300 
Q 800 975 1025 762 
Q 1250 550 1587 562 
Q 1925 575 2125 837 
Q 2325 1100 2300 1437 
Q 2275 1775 2037 1962 
Q 1800 2150 1275 2225 
L 1275 2550 
Q 1800 2600 2037 2825 
Q 2275 3050 2250 3412 
Q 2225 3775 1925 3937 
Q 1625 4100 1287 3975 
Q 950 3850 750 3275 
L 300 3350 
Q 450 3800 712 4100 
Q 975 4400 1425 4450 
Q 1875 4500 2212 4337 
Q 2550 4175 2687 3837 
Q 2825 3500 2725 3100 
Q 2625 2700 2150 2400 
Q 2500 2250 2687 1950 
Q 2875 1650 2812 1162 
Q 2750 675 2375 375 
Q 2000 75 1525 87 
Q 1050 100 700 387 
Q 350 675 250 1225 
z
" transform="scale(0.015625)"/>
       </defs>
       <use xlink:href="#SimHei-15"/>
       <use xlink:href="#SimHei-13" transform="translate(50 0)"/>
       <use xlink:href="#SimHei-15" transform="translate(100 0)"/>
       <use xlink:href="#SimHei-19" transform="translate(150 0)"/>
       <use xlink:href="#SimHei-10" transform="translate(200 0)"/>
       <use xlink:href="#SimHei-13" transform="translate(250 0)"/>
       <use xlink:href="#SimHei-16" transform="translate(300 0)"/>
      </g>
     </g>
    </g>
    <g id="xtick_7">
     <g id="line2d_13">
      <path d="M 935.813355 313.643848 
L 935.813355 25.23125 
" clip-path="url(#pb405ab79d9)" style="fill: none; stroke-dasharray: 2.96,1.28; stroke-dashoffset: 0; stroke: #ffffff; stroke-opacity: 0.3; stroke-width: 0.8"/>
     </g>
     <g id="line2d_14">
      <g>
       <use xlink:href="#mebd670910e" x="935.813355" y="313.643848" style="fill: #ffffff; stroke: #ffffff; stroke-width: 0.8"/>
      </g>
     </g>
     <g id="text_7">
      <!-- 2026-05 -->
      <g style="fill: #ffffff" transform="translate(898.596538 347.074735) rotate(-30) scale(0.12 -0.12)">
       <use xlink:href="#SimHei-15"/>
       <use xlink:href="#SimHei-13" transform="translate(50 0)"/>
       <use xlink:href="#SimHei-15" transform="translate(100 0)"/>
       <use xlink:href="#SimHei-19" transform="translate(150 0)"/>
       <use xlink:href="#SimHei-10" transform="translate(200 0)"/>
       <use xlink:href="#SimHei-13" transform="translate(250 0)"/>
       <use xlink:href="#SimHei-18" transform="translate(300 0)"/>
      </g>
     </g>
    </g>
    <g id="xtick_8">
     <g id="line2d_15">
      <path d="M 1069.922566 313.643848 
L 1069.922566 25.23125 
" clip-path="url(#pb405ab79d9)" style="fill: none; stroke-dasharray: 2.96,1.28; stroke-dashoffset: 0; stroke: #ffffff; stroke-opacity: 0.3; stroke-width: 0.8"/>
     </g>
     <g id="line2d_16">
      <g>
       <use xlink:href="#mebd670910e" x="1069.922566" y="313.643848" style="fill: #ffffff; stroke: #ffffff; stroke-width: 0.8"/>
      </g>
     </g>
     <g id="text_8">
      <!-- 2026-07 -->
      <g style="fill: #ffffff" transform="translate(1032.705749 347.074735) rotate(-30) scale(0.12 -0.12)">
       <use xlink:href="#SimHei-15"/>
       <use xlink:href="#SimHei-13" transform="translate(50 0)"/>
       <use xlink:href="#SimHei-15" transform="translate(100 0)"/>
       <use xlink:href="#SimHei-19" transform="translate(150 0)"/>
       <use xlink:href="#SimHei-10" transform="translate(200 0)"/>
       <use xlink:href="#SimHei-13" transform="translate(250 0)"/>
       <use xlink:href="#SimHei-1a" transform="translate(300 0)"/>
      </g>
     </g>
    </g>
    <g id="text_9">
     <!-- dt -->
     <g style="fill: #ffffff" transform="translate(579.75 363.708027) scale(0.13 -0.13)">
      <defs>
       <path id="SimHei-47" d="M 2750 125 
L 2250 125 
L 2250 500 
Q 2100 275 1900 175 
Q 1700 75 1425 75 
Q 925 75 575 437 
Q 225 800 225 1525 
Q 225 2250 575 2625 
Q 925 3000 1425 3000 
Q 1700 3000 1900 2887 
Q 2100 2775 2250 2550 
L 2250 4400 
L 2750 4400 
L 2750 125 
z
M 2250 1525 
Q 2250 2000 2037 2275 
Q 1825 2550 1525 2550 
Q 1150 2550 962 2275 
Q 775 2000 775 1525 
Q 775 1050 962 787 
Q 1150 525 1525 525 
Q 1825 525 2037 787 
Q 2250 1050 2250 1525 
z
" transform="scale(0.015625)"/>
       <path id="SimHei-57" d="M 2750 200 
Q 2625 150 2462 112 
Q 2300 75 2025 75 
Q 1575 75 1300 325 
Q 1025 575 1025 1025 
L 1025 2525 
L 175 2525 
L 175 2925 
L 1025 2925 
L 1025 3900 
L 1525 3900 
L 1525 2925 
L 2550 2925 
L 2550 2525 
L 1525 2525 
L 1525 1000 
Q 1525 800 1625 662 
Q 1725 525 2000 525 
Q 2275 525 2450 575 
Q 2625 625 2750 700 
L 2750 200 
z
" transform="scale(0.015625)"/>
      </defs>
      <use xlink:href="#SimHei-47"/>
      <use xlink:href="#SimHei-57" transform="translate(50 0)"/>
     </g>
    </g>
   </g>
   <g id="matplotlib.axis_2">
    <g id="ytick_1">
     <g id="line2d_17">
      <path d="M 39.7 300.534184 
L 1132.8 300.534184 
" clip-path="url(#pb405ab79d9)" style="fill: none; stroke-dasharray: 2.96,1.28; stroke-dashoffset: 0; stroke: #ffffff; stroke-opacity: 0.3; stroke-width: 0.8"/>
     </g>
     <g id="line2d_18">
      <defs>
       <path id="m39852877da" d="M 0 0 
L 3.5 0 
" style="stroke: #ffffff; stroke-width: 0.8"/>
      </defs>
      <g>
       <use xlink:href="#m39852877da" x="39.7" y="300.534184" style="fill: #ffffff; stroke: #ffffff; stroke-width: 0.8"/>
      </g>
     </g>
     <g id="text_10">
      <!-- 0 -->
      <g style="fill: #ffffff" transform="translate(30.2 305.690434) scale(0.12 -0.12)">
       <use xlink:href="#SimHei-13"/>
      </g>
     </g>
    </g>
    <g id="ytick_2">
     <g id="line2d_19">
      <path d="M 39.7 241.372626 
L 1132.8 241.372626 
" clip-path="url(#pb405ab79d9)" style="fill: none; stroke-dasharray: 2.96,1.28; stroke-dashoffset: 0; stroke: #ffffff; stroke-opacity: 0.3; stroke-width: 0.8"/>
     </g>
     <g id="line2d_20">
      <g>
       <use xlink:href="#m39852877da" x="39.7" y="241.372626" style="fill: #ffffff; stroke: #ffffff; stroke-width: 0.8"/>
      </g>
     </g>
     <g id="text_11">
      <!-- 20 -->
      <g style="fill: #ffffff" transform="translate(24.2 246.528876) scale(0.12 -0.12)">
       <use xlink:href="#SimHei-15"/>
       <use xlink:href="#SimHei-13" transform="translate(50 0)"/>
      </g>
     </g>
    </g>
    <g id="ytick_3">
     <g id="line2d_21">
      <path d="M 39.7 182.211067 
L 1132.8 182.211067 
" clip-path="url(#pb405ab79d9)" style="fill: none; stroke-dasharray: 2.96,1.28; stroke-dashoffset: 0; stroke: #ffffff; stroke-opacity: 0.3; stroke-width: 0.8"/>
     </g>
     <g id="line2d_22">
      <g>
       <use xlink:href="#m39852877da" x="39.7" y="182.211067" style="fill: #ffffff; stroke: #ffffff; stroke-width: 0.8"/>
      </g>
     </g>
     <g id="text_12">
      <!-- 40 -->
      <g style="fill: #ffffff" transform="translate(24.2 187.367317) scale(0.12 -0.12)">
       <defs>
        <path id="SimHei-17" d="M 2000 1100 
L 75 1100 
L 75 1525 
L 2100 4450 
L 2475 4450 
L 2475 1525 
L 3075 1525 
L 3075 1100 
L 2475 1100 
L 2475 150 
L 2000 150 
L 2000 1100 
z
M 2000 1525 
L 2000 3500 
L 600 1525 
L 2000 1525 
z
" transform="scale(0.015625)"/>
       </defs>
       <use xlink:href="#SimHei-17"/>
       <use xlink:href="#SimHei-13" transform="translate(50 0)"/>
      </g>
     </g>
    </g>
    <g id="ytick_4">
     <g id="line2d_23">
      <path d="M 39.7 123.049509 
L 1132.8 123.049509 
" clip-path="url(#pb405ab79d9)" style="fill: none; stroke-dasharray: 2.96,1.28; stroke-dashoffset: 0; stroke: #ffffff; stroke-opacity: 0.3; stroke-width: 0.8"/>
     </g>
     <g id="line2d_24">
      <g>
       <use xlink:href="#m39852877da" x="39.7" y="123.049509" style="fill: #ffffff; stroke: #ffffff; stroke-width: 0.8"/>
      </g>
     </g>
     <g id="text_13">
      <!-- 60 -->
      <g style="fill: #ffffff" transform="translate(24.2 128.205759) scale(0.12 -0.12)">
       <use xlink:href="#SimHei-19"/>
       <use xlink:href="#SimHei-13" transform="translate(50 0)"/>
      </g>
     </g>
    </g>
    <g id="ytick_5">
     <g id="line2d_25">
      <path d="M 39.7 63.88795 
L 1132.8 63.88795 
" clip-path="url(#pb405ab79d9)" style="fill: none; stroke-dasharray: 2.96,1.28; stroke-dashoffset: 0; stroke: #ffffff; stroke-opacity: 0.3; stroke-width: 0.8"/>
     </g>
     <g id="line2d_26">
      <g>
       <use xlink:href="#m39852877da" x="39.7" y="63.88795" style="fill: #ffffff; stroke: #ffffff; stroke-width: 0.8"/>
      </g>
     </g>
     <g id="text_14">
      <!-- 80 -->
      <g style="fill: #ffffff" transform="translate(24.2 69.0442) scale(0.12 -0.12)">
       <defs>
        <path id="SimHei-1b" d="M 175 1375 
Q 175 1675 325 1962 
Q 475 2250 825 2425 
Q 525 2600 425 2812 
Q 325 3025 312 3300 
Q 300 3575 387 3775 
Q 475 3975 650 4150 
Q 825 4325 1037 4387 
Q 1250 4450 1500 4450 
Q 1750 4450 1950 4400 
Q 2150 4350 2375 4187 
Q 2600 4025 2700 3725 
Q 2800 3425 2687 3025 
Q 2575 2625 2100 2400 
Q 2525 2275 2700 2012 
Q 2875 1750 2875 1375 
Q 2875 1000 2762 775 
Q 2650 550 2512 400 
Q 2375 250 2137 162 
Q 1900 75 1537 75 
Q 1175 75 912 162 
Q 650 250 475 425 
Q 300 600 237 837 
Q 175 1075 175 1375 
z
M 687 1400 
Q 675 1100 787 875 
Q 900 650 1200 587 
Q 1500 525 1825 600 
Q 2150 675 2275 950 
Q 2400 1225 2362 1500 
Q 2325 1775 2050 1962 
Q 1775 2150 1450 2125 
Q 1125 2100 912 1900 
Q 700 1700 687 1400 
z
M 775 3350 
Q 775 3100 950 2875 
Q 1125 2650 1500 2650 
Q 1875 2650 2062 2875 
Q 2250 3100 2237 3412 
Q 2225 3725 2012 3875 
Q 1800 4025 1437 4000 
Q 1075 3975 925 3787 
Q 775 3600 775 3350 
z
" transform="scale(0.015625)"/>
       </defs>
       <use xlink:href="#SimHei-1b"/>
       <use xlink:href="#SimHei-13" transform="translate(50 0)"/>
      </g>
     </g>
    </g>
    <g id="text_15">
     <!-- 占比 % -->
     <g style="fill: #ffffff" transform="translate(18.371875 188.937549) rotate(-90) scale(0.13 -0.13)">
      <defs>
       <path id="SimHei-996" d="M 2725 4400 
Q 2725 4800 2700 5075 
L 3375 5075 
Q 3350 4775 3350 4400 
L 3350 4000 
L 5250 4000 
Q 5900 4000 6150 4025 
L 6150 3525 
Q 5900 3550 5300 3550 
L 3350 3550 
L 3350 2325 
L 5450 2325 
Q 5400 2000 5400 1525 
L 5400 325 
Q 5400 -250 5450 -550 
L 4850 -550 
L 4850 -25 
L 1475 -25 
L 1475 -550 
L 875 -550 
Q 900 -150 900 175 
L 900 1550 
Q 900 2000 875 2325 
L 2725 2325 
L 2725 4400 
z
M 4850 425 
L 4850 1875 
L 1475 1875 
L 1475 425 
L 4850 425 
z
" transform="scale(0.015625)"/>
       <path id="SimHei-220a" d="M 3775 5100 
Q 3750 4575 3750 4100 
L 3750 3050 
Q 4925 3600 5475 4175 
Q 5675 3900 5900 3675 
Q 5600 3500 5037 3187 
Q 4475 2875 3750 2550 
L 3750 450 
Q 3750 100 4050 100 
L 5000 100 
Q 5175 100 5262 250 
Q 5350 400 5450 900 
Q 5650 775 6025 675 
Q 5850 0 5650 -175 
Q 5450 -350 5225 -350 
L 3900 -350 
Q 3250 -350 3250 275 
L 3250 4000 
Q 3250 4550 3225 5100 
L 3775 5100 
z
M 1275 4975 
Q 1250 4575 1250 4000 
L 1250 3150 
L 1850 3150 
Q 2325 3150 2875 3175 
L 2875 2650 
Q 2325 2675 1850 2675 
L 1250 2675 
L 1250 475 
Q 1650 650 1962 812 
Q 2275 975 2850 1275 
Q 2900 950 2950 750 
Q 2375 475 1762 175 
Q 1150 -125 925 -325 
Q 750 -100 575 200 
Q 700 300 750 600 
L 750 3950 
Q 750 4550 725 4975 
L 1275 4975 
z
" transform="scale(0.015625)"/>
       <path id="SimHei-3" transform="scale(0.015625)"/>
       <path id="SimHei-8" d="M 1400 3325 
Q 1400 2600 1187 2400 
Q 975 2200 775 2200 
Q 575 2200 362 2400 
Q 150 2600 150 3325 
Q 150 4050 362 4250 
Q 575 4450 775 4450 
Q 975 4450 1187 4250 
Q 1400 4050 1400 3325 
z
M 2625 4375 
L 700 75 
L 500 150 
L 2425 4450 
L 2625 4375 
z
M 2975 1200 
Q 2975 475 2762 275 
Q 2550 75 2350 75 
Q 2150 75 1937 275 
Q 1725 475 1725 1200 
Q 1725 1925 1937 2125 
Q 2150 2325 2350 2325 
Q 2550 2325 2762 2125 
Q 2975 1925 2975 1200 
z
M 1000 3325 
Q 1000 3775 950 3925 
Q 900 4075 775 4075 
Q 650 4075 600 3925 
Q 550 3775 550 3325 
Q 550 2875 600 2725 
Q 650 2575 775 2575 
Q 900 2575 950 2725 
Q 1000 2875 1000 3325 
z
M 2575 1200 
Q 2575 1650 2525 1800 
Q 2475 1950 2350 1950 
Q 2225 1950 2175 1800 
Q 2125 1650 2125 1200 
Q 2125 750 2175 600 
Q 2225 450 2350 450 
Q 2475 450 2525 600 
Q 2575 750 2575 1200 
z
" transform="scale(0.015625)"/>
      </defs>
      <use xlink:href="#SimHei-996"/>
      <use xlink:href="#SimHei-220a" transform="translate(100 0)"/>
      <use xlink:href="#SimHei-3" transform="translate(200 0)"/>
      <use xlink:href="#SimHei-8" transform="translate(250 0)"/>
     </g>
    </g>
   </g>
   <g id="line2d_27">
    <path d="M 89.386364 300.534184 
L 131.158085 300.534184 
L 144.349155 75.951498 
L 146.547667 60.769593 
L 148.746179 54.872544 
L 150.94469 73.295804 
L 157.540225 61.794893 
L 159.738737 62.591169 
L 161.937249 61.664897 
L 164.13576 84.618474 
L 166.334272 86.892196 
L 172.929807 77.070096 
L 175.128319 63.593885 
L 177.32683 76.87995 
L 179.525342 127.052512 
L 181.723854 170.511776 
L 188.319389 146.002841 
L 190.5179 149.493842 
L 192.716412 168.209171 
L 194.914924 126.888902 
L 197.113435 173.88414 
L 205.907482 160.1934 
L 208.105994 138.366276 
L 210.304505 129.919883 
L 212.503017 127.834314 
L 219.098552 101.092979 
L 221.297064 133.321899 
L 223.495575 113.817083 
L 225.694087 119.696222 
L 227.892599 181.155 
L 234.488134 162.860579 
L 236.686645 165.730192 
L 238.885157 180.352077 
L 241.083669 222.355245 
L 243.28218 233.090225 
L 249.877715 207.189908 
L 252.076227 145.074742 
L 254.274739 119.234387 
L 256.47325 131.827059 
L 258.671762 117.754217 
L 265.267297 92.892551 
L 267.465809 83.503361 
L 269.66432 92.054942 
L 271.862832 81.084939 
L 274.061344 111.808595 
L 280.656879 101.190183 
L 282.85539 70.739381 
L 285.053902 78.909312 
L 287.252414 76.898493 
L 289.450925 71.427084 
L 296.04646 68.016764 
L 298.244972 103.111683 
L 300.443484 92.968834 
L 302.641995 80.254098 
L 304.840507 85.593927 
L 311.436042 65.627996 
L 313.634553 71.307623 
L 315.833065 96.969285 
L 318.031577 73.228104 
L 320.230088 72.985548 
L 326.825623 69.87583 
L 329.024135 81.556059 
L 331.222647 102.405947 
L 333.421158 159.774223 
L 335.61967 147.850434 
L 342.215205 124.995112 
L 344.413717 99.760894 
L 346.612228 88.102257 
L 348.81074 93.22426 
L 351.009252 103.890157 
L 357.604787 73.398966 
L 359.803298 83.18165 
L 362.00181 82.859177 
L 364.200322 152.494571 
L 366.398833 112.993781 
L 372.994368 81.149742 
L 375.19288 67.916017 
L 377.391392 53.765209 
L 379.589903 50.807275 
L 381.788415 54.271891 
L 388.38395 45.372151 
L 390.582462 45.63598 
L 392.780973 136.003644 
L 394.979485 140.072154 
L 397.177997 152.087521 
L 403.773532 143.457532 
L 405.972043 176.263437 
L 408.170555 212.220396 
L 410.369067 224.032169 
L 412.567578 191.064145 
L 419.163113 163.014741 
L 421.361625 179.630339 
L 423.560137 180.866979 
L 425.758648 159.053822 
L 427.95716 168.883463 
L 434.552695 172.629019 
L 436.751207 150.191418 
L 438.949718 141.761777 
L 441.14823 185.377338 
L 443.346742 192.898736 
L 449.942277 194.28419 
L 452.140788 211.846024 
L 454.3393 189.809501 
L 456.537812 194.006552 
L 458.736323 210.632878 
L 465.331858 190.799035 
L 467.53037 183.273136 
L 487.316975 164.533851 
L 489.515487 167.607182 
L 496.111022 182.572635 
L 498.309533 193.702149 
L 500.508045 166.923522 
L 502.706557 187.686898 
L 504.905068 224.875544 
L 511.500603 204.20761 
L 513.699115 166.204372 
L 515.897627 163.04367 
L 520.29465 141.010073 
L 526.890185 119.370953 
L 529.088697 124.425884 
L 531.287208 125.779695 
L 533.48572 160.331559 
L 535.684232 131.815437 
L 542.279767 124.130085 
L 544.478278 142.932115 
L 546.67679 132.12635 
L 548.875302 124.994546 
L 551.073813 130.567574 
L 557.669348 116.356048 
L 559.86786 117.327679 
L 562.066372 130.290918 
L 564.264883 116.659499 
L 566.463395 128.146106 
L 573.05893 134.810541 
L 575.257442 163.828996 
L 577.455953 201.805703 
L 579.654465 218.839 
L 581.852977 262.890822 
L 588.448512 251.961476 
L 590.647023 234.289219 
L 592.845535 239.643703 
L 595.044047 236.185859 
L 597.242558 216.882291 
L 603.838093 196.706892 
L 606.036605 206.504356 
L 608.235117 219.66315 
L 610.433628 230.427575 
L 612.63214 203.299317 
L 619.227675 182.394564 
L 621.426187 197.147148 
L 623.624698 192.987347 
L 625.82321 215.670851 
L 628.021722 201.895633 
L 634.617257 202.578868 
L 636.815768 218.251521 
L 639.01428 203.87237 
L 641.212792 201.015606 
L 643.411303 169.255667 
L 650.006838 153.304417 
L 652.20535 175.960848 
L 656.602373 117.935452 
L 658.800885 129.693608 
L 665.39642 138.42118 
L 667.594932 149.240711 
L 669.793443 147.546848 
L 680.786002 99.903544 
L 682.984513 67.061161 
L 685.183025 75.76113 
L 687.381537 58.617193 
L 689.580048 46.677315 
L 696.175583 38.340914 
L 698.374095 50.877362 
L 700.572607 57.374257 
L 702.771118 65.577358 
L 704.96963 77.428107 
L 711.565165 62.038479 
L 713.763677 75.617148 
L 715.962188 72.741769 
L 718.1607 64.296183 
L 720.359212 50.859088 
L 726.954747 85.503847 
L 729.153258 104.583019 
L 731.35177 132.775432 
L 733.550282 157.519229 
L 735.748793 168.783339 
L 742.344328 219.502731 
L 744.54284 188.088541 
L 746.741352 175.370277 
L 748.939863 191.835024 
L 751.138375 191.170708 
L 757.73391 157.841577 
L 759.932422 159.366611 
L 762.130933 161.889378 
L 764.329445 174.96198 
L 766.527957 194.815751 
L 790.711585 153.622571 
L 792.910097 126.763206 
L 795.108608 129.553845 
L 797.30712 114.097996 
L 803.902655 166.451828 
L 806.101167 219.244722 
L 808.299678 223.189699 
L 810.49819 206.649927 
L 812.696702 175.681638 
L 819.292237 194.681921 
L 821.490748 161.793899 
L 823.68926 167.760779 
L 825.887772 183.721438 
L 828.086283 195.7533 
L 834.681818 198.19894 
L 836.88033 227.480004 
L 839.078842 216.078916 
L 841.277353 245.338165 
L 843.475865 259.125379 
L 850.0714 278.257565 
L 854.468423 250.509835 
L 856.666935 256.393362 
L 858.865447 243.934614 
L 865.460981 236.300409 
L 867.659493 249.063735 
L 869.858005 231.854959 
L 872.056516 241.758043 
L 874.255028 256.326253 
L 883.049075 244.852717 
L 885.247586 160.946707 
L 887.446098 193.162158 
L 889.64461 153.218056 
L 896.240145 153.993088 
L 898.438656 117.076724 
L 900.637168 119.629148 
L 902.83568 77.890623 
L 905.034191 85.328407 
L 911.629726 76.513501 
L 913.828238 95.300505 
L 916.02675 98.788783 
L 918.225261 129.943674 
L 920.423773 144.803696 
L 927.019308 132.859897 
L 929.21782 157.927859 
L 931.416331 132.875724 
L 933.614843 128.889306 
L 946.805913 111.262122 
L 949.004425 103.453712 
L 951.202936 91.083873 
L 957.798471 89.693597 
L 959.996983 114.524511 
L 962.195495 111.311274 
L 964.394006 151.133609 
L 966.592518 165.400892 
L 973.188053 169.289499 
L 975.386565 157.573779 
L 977.585076 177.276487 
L 979.783588 214.919659 
L 981.9821 197.841668 
L 988.577635 199.442071 
L 990.776146 214.432511 
L 992.974658 232.594915 
L 995.17317 230.461814 
L 997.371681 249.019793 
L 1003.967216 243.440988 
L 1006.165728 246.789726 
L 1008.36424 249.119465 
L 1010.562751 251.090807 
L 1012.761263 250.851255 
L 1019.356798 261.029256 
L 1021.55531 252.137985 
L 1023.753821 255.041684 
L 1025.952333 258.763055 
L 1028.150845 249.395074 
L 1034.74638 229.580828 
L 1036.944891 220.004587 
L 1039.143403 219.253665 
L 1041.341915 220.503994 
L 1050.135961 209.569691 
L 1052.334473 206.263426 
L 1054.532985 212.372488 
L 1056.731496 222.213317 
L 1058.930008 236.568545 
L 1065.525543 234.082677 
L 1067.724055 222.011049 
L 1069.922566 205.057317 
L 1072.121078 205.053943 
L 1074.31959 185.500778 
L 1080.915125 193.611216 
L 1083.113636 229.695722 
L 1083.113636 229.695722 
" clip-path="url(#pb405ab79d9)" style="fill: none; stroke: #2ecc71; stroke-width: 2; stroke-linecap: square"/>
   </g>
   <g id="line2d_28">
    <path d="M 1083.113636 313.643848 
L 1083.113636 25.23125 
" clip-path="url(#pb405ab79d9)" style="fill: none; stroke-dasharray: 7.4,3.2; stroke-dashoffset: 0; stroke: #ffff00; stroke-opacity: 0.7; stroke-width: 2"/>
   </g>
   <g id="patch_3">
    <path d="M 39.7 313.643848 
L 39.7 25.23125 
" style="fill: none; stroke: #ffffff; stroke-width: 0.8; stroke-linejoin: miter; stroke-linecap: square"/>
   </g>
   <g id="patch_4">
    <path d="M 39.7 313.643848 
L 1132.8 313.643848 
" style="fill: none; stroke: #ffffff; stroke-width: 0.8; stroke-linejoin: miter; stroke-linecap: square"/>
   </g>
   <g id="text_16">
    <!-- 股价在 MA20 上方占比 (%) -->
    <g style="fill: #ffffff" transform="translate(502.25 19.23125) scale(0.14 -0.14)">
     <defs>
      <path id="SimHei-36d7" d="M 1575 50 
Q 1925 25 2100 50 
Q 2275 75 2275 450 
L 2275 1625 
L 1325 1625 
Q 1250 900 1125 437 
Q 1000 -25 750 -525 
Q 550 -325 225 -250 
Q 550 150 687 762 
Q 825 1375 837 2150 
Q 850 2925 850 3725 
Q 850 4525 825 4900 
L 2750 4900 
Q 2725 4400 2725 3900 
L 2725 225 
Q 2725 -250 2512 -350 
Q 2300 -450 1750 -550 
Q 1700 -225 1575 50 
z
M 5225 -275 
Q 4950 -150 4450 275 
Q 4200 25 3875 -212 
Q 3550 -450 3100 -700 
Q 2925 -375 2725 -225 
Q 3250 -50 3550 137 
Q 3850 325 4100 600 
Q 3825 950 3625 1375 
Q 3425 1750 3325 2150 
Q 3225 2150 3125 2150 
L 3125 2600 
Q 3550 2575 3950 2575 
L 5725 2575 
Q 5650 2200 5375 1600 
Q 5100 1000 4775 600 
Q 5025 425 5387 237 
Q 5750 50 6200 -50 
Q 5950 -250 5850 -600 
L 5225 -275 
z
M 5325 3750 
Q 5300 3425 5600 3425 
L 6150 3450 
Q 6050 3225 6025 3000 
L 5400 3000 
Q 4825 3000 4825 3450 
L 4825 4500 
L 4000 4500 
Q 4000 3900 3862 3512 
Q 3725 3125 3275 2750 
Q 3150 2950 2900 3125 
Q 3425 3450 3475 3950 
Q 3525 4450 3500 4900 
L 5350 4900 
Q 5325 4675 5325 4375 
L 5325 3750 
z
M 2275 2050 
L 2275 3075 
L 1350 3075 
L 1350 2050 
L 2275 2050 
z
M 2275 3475 
L 2275 4500 
L 1350 4500 
L 1350 3475 
L 2275 3475 
z
M 3800 2175 
Q 3900 1750 4050 1475 
Q 4225 1175 4450 925 
Q 4925 1550 5050 2175 
L 3950 2175 
L 3800 2175 
z
" transform="scale(0.015625)"/>
      <path id="SimHei-52d" d="M 2200 4975 
Q 2050 4725 1650 3775 
L 1650 450 
Q 1650 -225 1675 -650 
L 1175 -650 
Q 1175 -225 1200 450 
L 1200 2975 
Q 900 2425 650 2100 
Q 525 2275 225 2450 
Q 750 3025 1125 3800 
Q 1500 4575 1625 5175 
Q 1950 5025 2200 4975 
z
M 4175 4700 
Q 4850 3525 6150 2950 
Q 5925 2750 5775 2500 
Q 4725 3100 3950 4300 
Q 3300 3125 2250 2350 
Q 2125 2525 1900 2725 
Q 2825 3325 3250 4050 
Q 3675 4775 3750 5150 
Q 4150 4950 4325 4900 
L 4175 4700 
z
M 3475 2650 
Q 3400 2075 3325 1087 
Q 3250 100 2325 -675 
Q 2175 -450 1925 -300 
Q 2850 350 2912 1262 
Q 2975 2175 2950 2700 
Q 3275 2650 3475 2650 
z
M 5075 2700 
Q 5050 2150 5050 1725 
L 5050 150 
Q 5050 -225 5075 -650 
L 4550 -650 
Q 4575 -225 4575 175 
L 4575 1875 
Q 4575 2150 4550 2700 
L 5075 2700 
z
" transform="scale(0.015625)"/>
      <path id="SimHei-d5e" d="M 2425 4200 
Q 2525 4525 2600 4762 
Q 2675 5000 2700 5250 
Q 3050 5175 3325 5100 
Q 3200 4850 3150 4712 
Q 3100 4575 2975 4200 
L 5000 4200 
Q 5525 4200 5950 4225 
L 5950 3750 
Q 5525 3775 5000 3775 
L 2825 3775 
Q 2675 3425 2437 3000 
Q 2200 2575 1825 2075 
L 1825 325 
Q 1825 -175 1850 -650 
L 1325 -650 
Q 1350 -175 1350 325 
L 1350 1625 
Q 950 1250 625 1000 
Q 450 1225 200 1375 
Q 500 1550 800 1800 
Q 1100 2050 1350 2375 
Q 1350 2600 1325 2825 
L 1725 2825 
Q 1900 3025 2037 3275 
Q 2175 3525 2275 3775 
L 1675 3775 
Q 1075 3775 625 3750 
L 625 4225 
Q 1100 4200 1675 4200 
L 2425 4200 
z
M 3700 2250 
L 3700 2600 
Q 3700 3100 3675 3400 
L 4225 3400 
Q 4200 3100 4200 2600 
L 4200 2250 
L 4775 2250 
Q 5225 2250 5600 2275 
L 5600 1800 
Q 5225 1825 4775 1825 
L 4200 1825 
L 4200 150 
L 5150 150 
Q 5625 150 6000 175 
L 6000 -275 
Q 5625 -250 5150 -250 
L 3125 -250 
Q 2475 -250 2100 -275 
L 2100 175 
Q 2475 150 3125 150 
L 3700 150 
L 3700 1825 
L 3225 1825 
Q 2775 1825 2350 1800 
L 2350 2275 
Q 2775 2250 3225 2250 
L 3700 2250 
z
" transform="scale(0.015625)"/>
      <path id="SimHei-30" d="M 2925 125 
L 2425 125 
L 2425 3175 
L 2375 3175 
L 1775 125 
L 1375 125 
L 775 3175 
L 725 3175 
L 725 125 
L 225 125 
L 225 4400 
L 1000 4400 
L 1550 1575 
L 1600 1575 
L 2150 4400 
L 2925 4400 
L 2925 125 
z
" transform="scale(0.015625)"/>
      <path id="SimHei-24" d="M 3075 125 
L 2475 125 
L 2125 1450 
L 1025 1450 
L 675 125 
L 75 125 
L 1325 4450 
L 1825 4450 
L 3075 125 
z
M 2000 1925 
L 1600 3450 
L 1550 3450 
L 1150 1925 
L 2000 1925 
z
" transform="scale(0.015625)"/>
      <path id="SimHei-440" d="M 3250 5075 
Q 3225 4650 3225 4275 
L 3225 3225 
L 4650 3225 
Q 5150 3225 5600 3250 
L 5600 2700 
Q 5100 2725 4600 2725 
L 3225 2725 
L 3225 200 
L 5200 200 
Q 5575 200 6075 225 
L 6075 -300 
Q 5600 -275 5200 -275 
L 1250 -275 
Q 850 -275 350 -300 
L 350 225 
Q 825 200 1250 200 
L 2700 200 
L 2700 4250 
Q 2700 4625 2675 5075 
L 3250 5075 
z
" transform="scale(0.015625)"/>
      <path id="SimHei-1bef" d="M 425 3975 
Q 825 3950 1300 3950 
L 5025 3950 
Q 5625 3950 6000 3975 
L 6000 3475 
Q 5675 3500 5100 3500 
L 2525 3500 
Q 2525 3225 2500 2500 
L 5300 2500 
Q 5250 2175 5200 1550 
L 5050 175 
Q 5000 -275 4625 -412 
Q 4250 -550 3525 -625 
Q 3500 -300 3325 -50 
Q 3900 -75 4200 0 
Q 4500 75 4575 425 
L 4725 2050 
L 2475 2050 
Q 2375 1350 2162 875 
Q 1950 400 1575 0 
Q 1200 -400 825 -700 
Q 725 -550 375 -350 
Q 700 -175 1062 200 
Q 1425 575 1662 1050 
Q 1900 1525 1962 2100 
Q 2025 2675 2025 3500 
L 1325 3500 
Q 775 3500 425 3475 
L 425 3975 
z
M 3075 4075 
Q 2850 4575 2575 5000 
Q 2800 5125 3025 5275 
Q 3300 4850 3575 4350 
Q 3325 4250 3075 4075 
z
" transform="scale(0.015625)"/>
      <path id="SimHei-b" d="M 2975 -200 
L 2700 -475 
Q 2075 125 1762 775 
Q 1450 1425 1450 2250 
Q 1450 3075 1762 3725 
Q 2075 4375 2700 5000 
L 2975 4725 
Q 2400 4175 2112 3587 
Q 1825 3000 1825 2250 
Q 1825 1500 2112 912 
Q 2400 325 2975 -200 
z
" transform="scale(0.015625)"/>
      <path id="SimHei-c" d="M 1675 2250 
Q 1675 1425 1362 775 
Q 1050 125 425 -475 
L 150 -200 
Q 725 325 1012 912 
Q 1300 1500 1300 2250 
Q 1300 3000 1012 3587 
Q 725 4175 150 4725 
L 425 5000 
Q 1050 4375 1362 3725 
Q 1675 3075 1675 2250 
z
" transform="scale(0.015625)"/>
     </defs>
     <use xlink:href="#SimHei-36d7"/>
     <use xlink:href="#SimHei-52d" transform="translate(100 0)"/>
     <use xlink:href="#SimHei-d5e" transform="translate(200 0)"/>
     <use xlink:href="#SimHei-3" transform="translate(300 0)"/>
     <use xlink:href="#SimHei-30" transform="translate(350 0)"/>
     <use xlink:href="#SimHei-24" transform="translate(400 0)"/>
     <use xlink:href="#SimHei-15" transform="translate(450 0)"/>
     <use xlink:href="#SimHei-13" transform="translate(500 0)"/>
     <use xlink:href="#SimHei-3" transform="translate(550 0)"/>
     <use xlink:href="#SimHei-440" transform="translate(600 0)"/>
     <use xlink:href="#SimHei-1bef" transform="translate(700 0)"/>
     <use xlink:href="#SimHei-996" transform="translate(800 0)"/>
     <use xlink:href="#SimHei-220a" transform="translate(900 0)"/>
     <use xlink:href="#SimHei-3" transform="translate(1000 0)"/>
     <use xlink:href="#SimHei-b" transform="translate(1050 0)"/>
     <use xlink:href="#SimHei-8" transform="translate(1100 0)"/>
     <use xlink:href="#SimHei-c" transform="translate(1150 0)"/>
    </g>
   </g>
  </g>
  <g id="axes_2">
   <g id="patch_5">
    <path d="M 39.7 685.78 
L 1132.8 685.78 
L 1132.8 397.367402 
L 39.7 397.367402 
z
"/>
   </g>
   <g id="FillBetweenPolyCollection_1">
    <defs>
     <path id="m0d275aaf67" d="M 89.386364 -35.809664 
L 89.386364 -270.297021 
L 91.599565 -159.945143 
L 93.812766 -87.573414 
L 96.025967 -196.485239 
L 98.239168 -158.700377 
L 104.878771 -259.795301 
L 107.091972 -165.546429 
L 109.305173 -199.5708 
L 111.518374 -115.187069 
L 113.731575 -181.543368 
L 120.371178 -98.259734 
L 122.584379 -219.648085 
L 124.79758 -214.180478 
L 138.076787 -292.612295 
L 140.289988 -205.479447 
L 142.503189 -233.195893 
L 144.71639 -97.92315 
L 151.355993 -247.382708 
L 153.569194 -135.731961 
L 155.782395 -155.537549 
L 157.995596 -107.895136 
L 160.208797 -189.377963 
L 166.8484 -218.939216 
L 169.061602 -232.192744 
L 171.274803 -118.64652 
L 173.488004 -81.1096 
L 175.701205 -92.485828 
L 182.340808 -229.979135 
L 184.554009 -170.504448 
L 186.76721 -124.818959 
L 188.980411 -263.777015 
L 191.193612 -92.517199 
L 200.046416 -209.476472 
L 202.259617 -238.72886 
L 204.472818 -172.502511 
L 206.686019 -167.022048 
L 213.325623 -247.153313 
L 215.538824 -100.52767 
L 217.752025 -209.476529 
L 219.965226 -153.680847 
L 222.178427 -78.842614 
L 228.81803 -218.27756 
L 231.031231 -149.862227 
L 233.244432 -127.829441 
L 235.457633 -71.970583 
L 237.670834 -113.829477 
L 244.310437 -263.473178 
L 246.523638 -280.688791 
L 248.736839 -235.985873 
L 250.95004 -118.367179 
L 253.163242 -207.196931 
L 259.802845 -243.427909 
L 262.016046 -170.747665 
L 264.229247 -135.799693 
L 266.442448 -203.631657 
L 268.655649 -95.548979 
L 275.295252 -202.078042 
L 277.508453 -255.111076 
L 279.721654 -130.434873 
L 281.934855 -186.507857 
L 284.148056 -186.888758 
L 290.787659 -198.299637 
L 293.00086 -103.930853 
L 295.214062 -204.203097 
L 297.427263 -216.803104 
L 299.640464 -168.375337 
L 306.280067 -241.62572 
L 308.493268 -166.401642 
L 310.706469 -101.221403 
L 312.91967 -261.662185 
L 315.132871 -165.845964 
L 321.772474 -178.486278 
L 323.985675 -151.145117 
L 326.198876 -123.628598 
L 328.412077 -89.877944 
L 330.625278 -205.304285 
L 337.264882 -234.979032 
L 339.478083 -236.34333 
L 341.691284 -207.632516 
L 343.904485 -144.436827 
L 346.117686 -159.98323 
L 352.757289 -250.330756 
L 354.97049 -142.960157 
L 357.183691 -175.728036 
L 359.396892 -73.519247 
L 361.610093 -272.951063 
L 368.249696 -243.378055 
L 370.462897 -188.68911 
L 372.676098 -224.153468 
L 374.889299 -146.672831 
L 377.102501 -179.475984 
L 383.742104 -207.78085 
L 385.955305 -178.863987 
L 388.168506 -68.845382 
L 390.381707 -183.246851 
L 392.594908 -138.453341 
L 399.234511 -200.263067 
L 401.447712 -100.006579 
L 403.660913 -77.869027 
L 405.874114 -153.503309 
L 408.087315 -285.056001 
L 414.726918 -238.57507 
L 416.940119 -102.468415 
L 419.153321 -160.955304 
L 421.366522 -251.963629 
L 423.579723 -134.451375 
L 430.219326 -133.840275 
L 432.432527 -221.634962 
L 434.645728 -163.580471 
L 436.858929 -88.485412 
L 439.07213 -133.450768 
L 445.711733 -147.111433 
L 447.924934 -92.520357 
L 450.138135 -263.81 
L 452.351336 -111.535128 
L 454.564537 -127.458397 
L 461.204141 -218.713532 
L 463.417342 -171.191796 
L 483.336151 -197.447285 
L 485.549352 -175.422571 
L 492.188955 -122.476781 
L 494.402156 -122.991169 
L 496.615357 -257.076939 
L 498.828558 -96.898326 
L 501.041759 -66.940568 
L 507.681363 -243.384386 
L 509.894564 -271.015052 
L 512.107765 -149.620433 
L 514.320966 -192.601012 
L 516.534167 -189.519999 
L 523.17377 -209.442683 
L 525.386971 -157.863982 
L 527.600172 -166.382346 
L 529.813373 -99.320047 
L 532.026574 -226.393826 
L 538.666177 -220.279431 
L 540.879378 -118.777838 
L 543.092579 -208.296132 
L 545.305781 -182.881201 
L 547.518982 -142.927697 
L 554.158585 -207.541908 
L 556.371786 -177.700833 
L 558.584987 -125.229926 
L 560.798188 -237.248727 
L 563.011389 -136.033396 
L 569.650992 -167.477455 
L 571.864193 -100.564493 
L 574.077394 -97.141957 
L 576.290595 -109.645253 
L 578.503796 -53.754899 
L 585.143399 -251.698798 
L 587.356601 -255.063734 
L 589.569802 -122.249802 
L 591.783003 -177.956818 
L 593.996204 -246.175115 
L 600.635807 -209.032046 
L 602.849008 -114.831739 
L 605.062209 -109.026089 
L 607.27541 -110.544418 
L 609.488611 -259.781603 
L 616.128214 -209.438636 
L 618.341415 -102.253534 
L 620.554616 -160.295241 
L 622.767817 -88.619355 
L 624.981018 -172.375947 
L 631.620622 -153.721013 
L 633.833823 -91.358791 
L 636.047024 -220.23037 
L 638.260225 -180.484699 
L 640.473426 -264.073719 
L 647.113029 -188.524101 
L 649.32623 -112.609188 
L 651.539431 -245.802685 
L 653.752632 -227.670914 
L 655.965833 -130.887914 
L 662.605436 -137.401768 
L 664.818637 -129.167499 
L 667.031838 -161.837149 
L 678.097844 -248.557692 
L 680.311045 -244.839692 
L 682.524246 -146.453177 
L 684.737447 -224.830617 
L 686.950648 -235.058968 
L 693.590251 -246.103782 
L 695.803452 -118.490803 
L 698.016653 -175.391127 
L 700.229854 -149.184634 
L 702.443055 -156.078646 
L 709.082658 -215.396873 
L 711.295859 -149.100196 
L 713.509061 -193.237895 
L 715.722262 -217.642082 
L 717.935463 -236.146292 
L 724.575066 -117.265046 
L 726.788267 -133.778319 
L 729.001468 -124.385448 
L 731.214669 -127.398763 
L 733.42787 -160.31308 
L 740.067473 -74.751706 
L 742.280674 -282.71204 
L 744.493875 -200.932884 
L 746.707076 -117.609582 
L 748.920277 -175.086633 
L 755.559881 -269.982895 
L 757.773082 -147.221143 
L 759.986283 -139.876268 
L 762.199484 -142.964914 
L 764.412685 -114.114832 
L 788.757896 -238.650275 
L 790.971097 -225.729944 
L 793.184298 -161.718653 
L 795.397499 -201.791748 
L 802.037103 -93.860523 
L 804.250304 -68.441207 
L 806.463505 -124.325596 
L 808.676706 -243.010984 
L 810.889907 -251.549339 
L 817.52951 -107.777006 
L 819.742711 -265.427661 
L 821.955912 -140.021296 
L 824.169113 -111.586219 
L 826.382314 -112.254174 
L 833.021917 -179.440478 
L 835.235118 -79.87644 
L 837.448319 -215.871654 
L 839.661521 -61.439292 
L 841.874722 -69.294346 
L 848.514325 -51.212071 
L 850.727526 -296.34189 
L 852.940727 -282.751531 
L 855.153928 -82.16789 
L 857.367129 -255.528661 
L 864.006732 -180.755936 
L 866.219933 -87.115402 
L 868.433134 -263.583102 
L 870.646335 -89.085125 
L 872.859536 -72.024385 
L 881.712341 -236.672883 
L 883.925542 -297.609004 
L 886.138743 -93.489386 
L 888.351944 -236.496803 
L 894.991547 -155.769836 
L 897.204748 -223.920385 
L 899.417949 -128.74347 
L 901.63115 -252.454382 
L 903.844351 -156.486332 
L 910.483954 -208.446881 
L 912.697155 -133.953277 
L 914.910356 -182.893567 
L 917.123557 -102.961156 
L 919.336758 -138.22476 
L 925.976362 -200.999931 
L 928.189563 -122.164897 
L 930.402764 -238.230216 
L 932.615965 -181.961753 
L 945.895171 -232.942544 
L 948.108372 -213.220029 
L 950.321573 -219.048293 
L 956.961176 -192.92816 
L 959.174377 -105.686252 
L 961.387578 -197.602511 
L 963.60078 -88.596663 
L 965.813981 -127.220072 
L 972.453584 -155.08078 
L 974.666785 -217.442466 
L 976.879986 -118.079031 
L 979.093187 -70.728744 
L 981.306388 -230.152478 
L 987.945991 -145.334635 
L 990.159192 -103.329177 
L 992.372393 -84.23123 
L 994.585594 -186.483724 
L 996.798795 -112.02358 
L 1003.438398 -225.219272 
L 1005.6516 -113.941763 
L 1007.864801 -121.913867 
L 1010.078002 -103.031672 
L 1012.291203 -198.784243 
L 1018.930806 -80.958027 
L 1021.144007 -202.057838 
L 1023.357208 -113.228666 
L 1025.570409 -104.182112 
L 1027.78361 -232.57665 
L 1034.423213 -231.881363 
L 1036.636414 -172.128323 
L 1038.849615 -122.133197 
L 1041.062816 -136.945377 
L 1049.915621 -182.825857 
L 1052.128822 -174.482864 
L 1054.342023 -107.736712 
L 1056.555224 -97.698229 
L 1058.768425 -75.022835 
L 1065.408028 -159.703837 
L 1067.621229 -189.267322 
L 1069.83443 -253.778458 
L 1072.047631 -146.928695 
L 1074.260832 -226.792435 
L 1080.900435 -129.942753 
L 1083.113636 -70.521865 
L 1083.113636 -35.809664 
L 1083.113636 -35.809664 
L 1080.900435 -35.809664 
L 1074.260832 -35.809664 
L 1072.047631 -35.809664 
L 1069.83443 -35.809664 
L 1067.621229 -35.809664 
L 1065.408028 -35.809664 
L 1058.768425 -35.809664 
L 1056.555224 -35.809664 
L 1054.342023 -35.809664 
L 1052.128822 -35.809664 
L 1049.915621 -35.809664 
L 1041.062816 -35.809664 
L 1038.849615 -35.809664 
L 1036.636414 -35.809664 
L 1034.423213 -35.809664 
L 1027.78361 -35.809664 
L 1025.570409 -35.809664 
L 1023.357208 -35.809664 
L 1021.144007 -35.809664 
L 1018.930806 -35.809664 
L 1012.291203 -35.809664 
L 1010.078002 -35.809664 
L 1007.864801 -35.809664 
L 1005.6516 -35.809664 
L 1003.438398 -35.809664 
L 996.798795 -35.809664 
L 994.585594 -35.809664 
L 992.372393 -35.809664 
L 990.159192 -35.809664 
L 987.945991 -35.809664 
L 981.306388 -35.809664 
L 979.093187 -35.809664 
L 976.879986 -35.809664 
L 974.666785 -35.809664 
L 972.453584 -35.809664 
L 965.813981 -35.809664 
L 963.60078 -35.809664 
L 961.387578 -35.809664 
L 959.174377 -35.809664 
L 956.961176 -35.809664 
L 950.321573 -35.809664 
L 948.108372 -35.809664 
L 945.895171 -35.809664 
L 932.615965 -35.809664 
L 930.402764 -35.809664 
L 928.189563 -35.809664 
L 925.976362 -35.809664 
L 919.336758 -35.809664 
L 917.123557 -35.809664 
L 914.910356 -35.809664 
L 912.697155 -35.809664 
L 910.483954 -35.809664 
L 903.844351 -35.809664 
L 901.63115 -35.809664 
L 899.417949 -35.809664 
L 897.204748 -35.809664 
L 894.991547 -35.809664 
L 888.351944 -35.809664 
L 886.138743 -35.809664 
L 883.925542 -35.809664 
L 881.712341 -35.809664 
L 872.859536 -35.809664 
L 870.646335 -35.809664 
L 868.433134 -35.809664 
L 866.219933 -35.809664 
L 864.006732 -35.809664 
L 857.367129 -35.809664 
L 855.153928 -35.809664 
L 852.940727 -35.809664 
L 850.727526 -35.809664 
L 848.514325 -35.809664 
L 841.874722 -35.809664 
L 839.661521 -35.809664 
L 837.448319 -35.809664 
L 835.235118 -35.809664 
L 833.021917 -35.809664 
L 826.382314 -35.809664 
L 824.169113 -35.809664 
L 821.955912 -35.809664 
L 819.742711 -35.809664 
L 817.52951 -35.809664 
L 810.889907 -35.809664 
L 808.676706 -35.809664 
L 806.463505 -35.809664 
L 804.250304 -35.809664 
L 802.037103 -35.809664 
L 795.397499 -35.809664 
L 793.184298 -35.809664 
L 790.971097 -35.809664 
L 788.757896 -35.809664 
L 764.412685 -35.809664 
L 762.199484 -35.809664 
L 759.986283 -35.809664 
L 757.773082 -35.809664 
L 755.559881 -35.809664 
L 748.920277 -35.809664 
L 746.707076 -35.809664 
L 744.493875 -35.809664 
L 742.280674 -35.809664 
L 740.067473 -35.809664 
L 733.42787 -35.809664 
L 731.214669 -35.809664 
L 729.001468 -35.809664 
L 726.788267 -35.809664 
L 724.575066 -35.809664 
L 717.935463 -35.809664 
L 715.722262 -35.809664 
L 713.509061 -35.809664 
L 711.295859 -35.809664 
L 709.082658 -35.809664 
L 702.443055 -35.809664 
L 700.229854 -35.809664 
L 698.016653 -35.809664 
L 695.803452 -35.809664 
L 693.590251 -35.809664 
L 686.950648 -35.809664 
L 684.737447 -35.809664 
L 682.524246 -35.809664 
L 680.311045 -35.809664 
L 678.097844 -35.809664 
L 667.031838 -35.809664 
L 664.818637 -35.809664 
L 662.605436 -35.809664 
L 655.965833 -35.809664 
L 653.752632 -35.809664 
L 651.539431 -35.809664 
L 649.32623 -35.809664 
L 647.113029 -35.809664 
L 640.473426 -35.809664 
L 638.260225 -35.809664 
L 636.047024 -35.809664 
L 633.833823 -35.809664 
L 631.620622 -35.809664 
L 624.981018 -35.809664 
L 622.767817 -35.809664 
L 620.554616 -35.809664 
L 618.341415 -35.809664 
L 616.128214 -35.809664 
L 609.488611 -35.809664 
L 607.27541 -35.809664 
L 605.062209 -35.809664 
L 602.849008 -35.809664 
L 600.635807 -35.809664 
L 593.996204 -35.809664 
L 591.783003 -35.809664 
L 589.569802 -35.809664 
L 587.356601 -35.809664 
L 585.143399 -35.809664 
L 578.503796 -35.809664 
L 576.290595 -35.809664 
L 574.077394 -35.809664 
L 571.864193 -35.809664 
L 569.650992 -35.809664 
L 563.011389 -35.809664 
L 560.798188 -35.809664 
L 558.584987 -35.809664 
L 556.371786 -35.809664 
L 554.158585 -35.809664 
L 547.518982 -35.809664 
L 545.305781 -35.809664 
L 543.092579 -35.809664 
L 540.879378 -35.809664 
L 538.666177 -35.809664 
L 532.026574 -35.809664 
L 529.813373 -35.809664 
L 527.600172 -35.809664 
L 525.386971 -35.809664 
L 523.17377 -35.809664 
L 516.534167 -35.809664 
L 514.320966 -35.809664 
L 512.107765 -35.809664 
L 509.894564 -35.809664 
L 507.681363 -35.809664 
L 501.041759 -35.809664 
L 498.828558 -35.809664 
L 496.615357 -35.809664 
L 494.402156 -35.809664 
L 492.188955 -35.809664 
L 485.549352 -35.809664 
L 483.336151 -35.809664 
L 463.417342 -35.809664 
L 461.204141 -35.809664 
L 454.564537 -35.809664 
L 452.351336 -35.809664 
L 450.138135 -35.809664 
L 447.924934 -35.809664 
L 445.711733 -35.809664 
L 439.07213 -35.809664 
L 436.858929 -35.809664 
L 434.645728 -35.809664 
L 432.432527 -35.809664 
L 430.219326 -35.809664 
L 423.579723 -35.809664 
L 421.366522 -35.809664 
L 419.153321 -35.809664 
L 416.940119 -35.809664 
L 414.726918 -35.809664 
L 408.087315 -35.809664 
L 405.874114 -35.809664 
L 403.660913 -35.809664 
L 401.447712 -35.809664 
L 399.234511 -35.809664 
L 392.594908 -35.809664 
L 390.381707 -35.809664 
L 388.168506 -35.809664 
L 385.955305 -35.809664 
L 383.742104 -35.809664 
L 377.102501 -35.809664 
L 374.889299 -35.809664 
L 372.676098 -35.809664 
L 370.462897 -35.809664 
L 368.249696 -35.809664 
L 361.610093 -35.809664 
L 359.396892 -35.809664 
L 357.183691 -35.809664 
L 354.97049 -35.809664 
L 352.757289 -35.809664 
L 346.117686 -35.809664 
L 343.904485 -35.809664 
L 341.691284 -35.809664 
L 339.478083 -35.809664 
L 337.264882 -35.809664 
L 330.625278 -35.809664 
L 328.412077 -35.809664 
L 326.198876 -35.809664 
L 323.985675 -35.809664 
L 321.772474 -35.809664 
L 315.132871 -35.809664 
L 312.91967 -35.809664 
L 310.706469 -35.809664 
L 308.493268 -35.809664 
L 306.280067 -35.809664 
L 299.640464 -35.809664 
L 297.427263 -35.809664 
L 295.214062 -35.809664 
L 293.00086 -35.809664 
L 290.787659 -35.809664 
L 284.148056 -35.809664 
L 281.934855 -35.809664 
L 279.721654 -35.809664 
L 277.508453 -35.809664 
L 275.295252 -35.809664 
L 268.655649 -35.809664 
L 266.442448 -35.809664 
L 264.229247 -35.809664 
L 262.016046 -35.809664 
L 259.802845 -35.809664 
L 253.163242 -35.809664 
L 250.95004 -35.809664 
L 248.736839 -35.809664 
L 246.523638 -35.809664 
L 244.310437 -35.809664 
L 237.670834 -35.809664 
L 235.457633 -35.809664 
L 233.244432 -35.809664 
L 231.031231 -35.809664 
L 228.81803 -35.809664 
L 222.178427 -35.809664 
L 219.965226 -35.809664 
L 217.752025 -35.809664 
L 215.538824 -35.809664 
L 213.325623 -35.809664 
L 206.686019 -35.809664 
L 204.472818 -35.809664 
L 202.259617 -35.809664 
L 200.046416 -35.809664 
L 191.193612 -35.809664 
L 188.980411 -35.809664 
L 186.76721 -35.809664 
L 184.554009 -35.809664 
L 182.340808 -35.809664 
L 175.701205 -35.809664 
L 173.488004 -35.809664 
L 171.274803 -35.809664 
L 169.061602 -35.809664 
L 166.8484 -35.809664 
L 160.208797 -35.809664 
L 157.995596 -35.809664 
L 155.782395 -35.809664 
L 153.569194 -35.809664 
L 151.355993 -35.809664 
L 144.71639 -35.809664 
L 142.503189 -35.809664 
L 140.289988 -35.809664 
L 138.076787 -35.809664 
L 124.79758 -35.809664 
L 122.584379 -35.809664 
L 120.371178 -35.809664 
L 113.731575 -35.809664 
L 111.518374 -35.809664 
L 109.305173 -35.809664 
L 107.091972 -35.809664 
L 104.878771 -35.809664 
L 98.239168 -35.809664 
L 96.025967 -35.809664 
L 93.812766 -35.809664 
L 91.599565 -35.809664 
L 89.386364 -35.809664 
z
" style="stroke: #e74c3c; stroke-opacity: 0.5"/>
    </defs>
    <g clip-path="url(#pdc48efedd7)">
     <use xlink:href="#m0d275aaf67" x="0" y="708.48" style="fill: #e74c3c; fill-opacity: 0.5; stroke: #e74c3c; stroke-opacity: 0.5"/>
    </g>
   </g>
   <g id="FillBetweenPolyCollection_2">
    <defs>
     <path id="m66636715d4" d="M 89.386364 -35.809664 
L 89.386364 -74.822715 
L 91.599565 -181.077852 
L 93.812766 -258.056202 
L 96.025967 -140.762561 
L 98.239168 -177.00869 
L 104.878771 -81.43542 
L 107.091972 -174.042012 
L 109.305173 -141.504917 
L 111.518374 -226.192609 
L 113.731575 -157.783551 
L 120.371178 -248.027103 
L 122.584379 -122.701035 
L 124.79758 -127.509161 
L 138.076787 -54.583746 
L 140.289988 -133.327513 
L 142.503189 -106.641307 
L 144.71639 -245.858734 
L 151.355993 -92.813004 
L 153.569194 -202.415114 
L 155.782395 -181.131367 
L 157.995596 -234.966259 
L 160.208797 -149.590511 
L 166.8484 -123.402276 
L 169.061602 -107.897061 
L 171.274803 -221.911006 
L 173.488004 -265.8452 
L 175.701205 -252.726666 
L 182.340808 -111.180438 
L 184.554009 -169.99191 
L 186.76721 -216.596977 
L 188.980411 -81.485155 
L 191.193612 -251.206007 
L 200.046416 -129.058065 
L 202.259617 -100.832077 
L 204.472818 -167.939246 
L 206.686019 -172.555409 
L 213.325623 -93.397606 
L 215.538824 -243.758569 
L 217.752025 -127.094781 
L 219.965226 -185.143858 
L 222.178427 -266.990246 
L 228.81803 -120.647514 
L 231.031231 -187.283329 
L 233.244432 -215.508663 
L 235.457633 -275.401291 
L 237.670834 -224.395867 
L 244.310437 -80.166999 
L 246.523638 -65.863708 
L 248.736839 -103.011677 
L 250.95004 -222.06187 
L 253.163242 -129.242544 
L 259.802845 -94.53772 
L 262.016046 -166.660183 
L 264.229247 -204.673766 
L 266.442448 -132.343082 
L 268.655649 -247.631272 
L 275.295252 -138.443203 
L 277.508453 -86.940793 
L 279.721654 -207.535003 
L 281.934855 -153.711844 
L 284.148056 -150.217092 
L 290.787659 -142.280938 
L 293.00086 -242.522239 
L 295.214062 -134.945743 
L 297.427263 -119.184075 
L 299.640464 -168.630663 
L 306.280067 -102.319025 
L 308.493268 -175.908534 
L 310.706469 -242.572083 
L 312.91967 -82.798429 
L 315.132871 -175.958763 
L 321.772474 -161.07299 
L 323.985675 -189.232876 
L 326.198876 -218.438348 
L 328.412077 -256.371487 
L 330.625278 -134.05632 
L 337.264882 -103.203554 
L 339.478083 -103.879788 
L 341.691284 -129.480173 
L 343.904485 -194.207261 
L 346.117686 -179.785673 
L 352.757289 -90.919744 
L 354.97049 -197.937897 
L 357.183691 -161.950516 
L 359.396892 -274.313847 
L 361.610093 -69.220637 
L 368.249696 -98.330263 
L 370.462897 -151.847001 
L 372.676098 -117.352172 
L 374.889299 -194.936317 
L 377.102501 -158.821082 
L 383.742104 -132.964204 
L 385.955305 -163.36006 
L 388.168506 -279.346124 
L 390.381707 -158.623005 
L 392.594908 -205.352747 
L 399.234511 -142.877807 
L 401.447712 -244.309414 
L 403.660913 -269.659725 
L 405.874114 -189.234468 
L 408.087315 -59.97468 
L 414.726918 -104.876311 
L 416.940119 -241.086003 
L 419.153321 -177.763632 
L 421.366522 -89.555229 
L 423.579723 -208.547239 
L 430.219326 -208.750939 
L 432.432527 -122.484001 
L 434.645728 -177.482994 
L 436.858929 -258.637249 
L 439.07213 -210.565338 
L 445.711733 -197.513195 
L 447.924934 -254.296146 
L 450.138135 -80.055374 
L 452.351336 -234.162511 
L 454.564537 -211.423089 
L 461.204141 -121.22256 
L 463.417342 -168.440334 
L 483.336151 -145.852896 
L 485.549352 -168.3038 
L 492.188955 -221.623538 
L 494.402156 -219.464248 
L 496.615357 -85.062729 
L 498.828558 -248.266584 
L 501.041759 -280.242953 
L 507.681363 -100.19283 
L 509.894564 -74.471384 
L 512.107765 -190.085306 
L 514.320966 -149.704766 
L 516.534167 -153.212558 
L 523.17377 -128.725073 
L 525.386971 -183.112942 
L 527.600172 -175.500698 
L 529.813373 -245.319708 
L 532.026574 -116.814559 
L 538.666177 -124.094275 
L 540.879378 -222.665773 
L 543.092579 -133.299807 
L 545.305781 -158.056216 
L 547.518982 -197.705119 
L 554.158585 -136.139051 
L 556.371786 -163.902336 
L 558.584987 -217.845582 
L 560.798188 -104.510879 
L 563.011389 -205.317615 
L 569.650992 -175.544962 
L 571.864193 -246.059867 
L 574.077394 -248.671783 
L 576.290595 -232.772184 
L 578.503796 -294.798952 
L 585.143399 -92.190292 
L 587.356601 -86.894543 
L 589.569802 -219.501303 
L 591.783003 -161.305294 
L 593.996204 -96.994884 
L 600.635807 -131.643461 
L 602.849008 -226.55961 
L 605.062209 -233.89485 
L 607.27541 -233.091163 
L 609.488611 -85.575569 
L 616.128214 -131.351263 
L 618.341415 -243.155117 
L 620.554616 -181.000547 
L 622.767817 -259.122116 
L 624.981018 -169.334382 
L 631.620622 -187.533081 
L 633.833823 -255.370629 
L 636.047024 -119.558957 
L 638.260225 -159.353529 
L 640.473426 -81.999328 
L 647.113029 -151.055319 
L 649.32623 -232.598941 
L 651.539431 -94.143872 
L 653.752632 -111.116849 
L 655.965833 -209.521018 
L 662.605436 -205.332314 
L 664.818637 -213.316051 
L 667.031838 -176.958425 
L 678.097844 -95.44588 
L 680.311045 -97.800668 
L 682.524246 -198.059859 
L 684.737447 -117.56211 
L 686.950648 -104.75336 
L 693.590251 -96.384887 
L 695.803452 -225.864964 
L 698.016653 -167.951506 
L 700.229854 -194.767342 
L 702.443055 -187.270727 
L 709.082658 -128.7118 
L 711.295859 -193.295121 
L 713.509061 -147.443345 
L 715.722262 -126.019139 
L 717.935463 -106.406878 
L 724.575066 -227.757529 
L 726.788267 -211.496752 
L 729.001468 -220.536128 
L 731.214669 -216.968257 
L 733.42787 -183.243932 
L 740.067473 -272.542934 
L 742.280674 -62.766496 
L 744.493875 -143.93988 
L 746.707076 -225.094977 
L 748.920277 -165.747655 
L 755.559881 -74.535595 
L 757.773082 -194.37036 
L 759.986283 -200.056326 
L 762.199484 -201.812056 
L 764.412685 -229.808955 
L 788.757896 -106.682899 
L 790.971097 -117.636214 
L 793.184298 -181.644154 
L 795.397499 -140.866085 
L 802.037103 -253.286038 
L 804.250304 -279.966233 
L 806.463505 -220.402685 
L 808.676706 -101.769423 
L 810.889907 -94.391322 
L 817.52951 -236.905253 
L 819.742711 -79.306693 
L 821.955912 -202.145525 
L 824.169113 -232.999783 
L 826.382314 -229.56303 
L 833.021917 -162.675998 
L 835.235118 -265.913782 
L 837.448319 -128.710774 
L 839.661521 -287.02031 
L 841.874722 -278.409963 
L 848.514325 -298.002934 
L 850.727526 -52.369768 
L 852.940727 -64.047411 
L 855.153928 -263.574023 
L 857.367129 -90.311258 
L 864.006732 -161.251691 
L 866.219933 -257.563348 
L 868.433134 -80.75038 
L 870.646335 -257.413448 
L 872.859536 -276.134576 
L 881.712341 -108.4666 
L 883.925542 -51.103092 
L 886.138743 -253.264226 
L 888.351944 -106.590184 
L 894.991547 -185.558941 
L 897.204748 -116.256374 
L 899.417949 -214.798869 
L 901.63115 -89.983395 
L 903.844351 -186.856292 
L 910.483954 -132.126761 
L 912.697155 -209.432901 
L 914.910356 -158.99055 
L 917.123557 -241.884886 
L 919.336758 -205.864956 
L 925.976362 -143.037551 
L 928.189563 -221.964356 
L 930.402764 -106.829087 
L 932.615965 -161.344687 
L 945.895171 -110.202292 
L 948.108372 -129.011654 
L 950.321573 -123.987288 
L 956.961176 -149.753244 
L 959.174377 -240.512879 
L 961.387578 -144.425489 
L 963.60078 -257.856595 
L 965.813981 -217.123715 
L 972.453584 -188.061051 
L 974.666785 -126.149009 
L 976.879986 -228.524903 
L 979.093187 -277.03228 
L 981.306388 -112.944953 
L 987.945991 -199.270045 
L 990.159192 -242.578775 
L 992.372393 -262.979994 
L 994.585594 -156.669602 
L 996.798795 -233.434704 
L 1003.438398 -121.640592 
L 1005.6516 -230.964504 
L 1007.864801 -223.796328 
L 1010.078002 -243.782445 
L 1012.291203 -144.2258 
L 1018.930806 -267.207539 
L 1021.144007 -140.152663 
L 1023.357208 -232.635091 
L 1025.570409 -241.477994 
L 1027.78361 -112.933909 
L 1034.423213 -110.871101 
L 1036.636414 -171.727533 
L 1038.849615 -224.579803 
L 1041.062816 -208.011007 
L 1049.915621 -160.026823 
L 1052.128822 -169.571417 
L 1054.342023 -239.27762 
L 1056.555224 -249.014771 
L 1058.768425 -272.040225 
L 1065.408028 -184.152019 
L 1067.621229 -155.538712 
L 1069.83443 -93.784352 
L 1072.047631 -195.530758 
L 1074.260832 -118.123788 
L 1080.900435 -214.372432 
L 1083.113636 -277.444603 
L 1083.113636 -35.809664 
L 1083.113636 -35.809664 
L 1080.900435 -35.809664 
L 1074.260832 -35.809664 
L 1072.047631 -35.809664 
L 1069.83443 -35.809664 
L 1067.621229 -35.809664 
L 1065.408028 -35.809664 
L 1058.768425 -35.809664 
L 1056.555224 -35.809664 
L 1054.342023 -35.809664 
L 1052.128822 -35.809664 
L 1049.915621 -35.809664 
L 1041.062816 -35.809664 
L 1038.849615 -35.809664 
L 1036.636414 -35.809664 
L 1034.423213 -35.809664 
L 1027.78361 -35.809664 
L 1025.570409 -35.809664 
L 1023.357208 -35.809664 
L 1021.144007 -35.809664 
L 1018.930806 -35.809664 
L 1012.291203 -35.809664 
L 1010.078002 -35.809664 
L 1007.864801 -35.809664 
L 1005.6516 -35.809664 
L 1003.438398 -35.809664 
L 996.798795 -35.809664 
L 994.585594 -35.809664 
L 992.372393 -35.809664 
L 990.159192 -35.809664 
L 987.945991 -35.809664 
L 981.306388 -35.809664 
L 979.093187 -35.809664 
L 976.879986 -35.809664 
L 974.666785 -35.809664 
L 972.453584 -35.809664 
L 965.813981 -35.809664 
L 963.60078 -35.809664 
L 961.387578 -35.809664 
L 959.174377 -35.809664 
L 956.961176 -35.809664 
L 950.321573 -35.809664 
L 948.108372 -35.809664 
L 945.895171 -35.809664 
L 932.615965 -35.809664 
L 930.402764 -35.809664 
L 928.189563 -35.809664 
L 925.976362 -35.809664 
L 919.336758 -35.809664 
L 917.123557 -35.809664 
L 914.910356 -35.809664 
L 912.697155 -35.809664 
L 910.483954 -35.809664 
L 903.844351 -35.809664 
L 901.63115 -35.809664 
L 899.417949 -35.809664 
L 897.204748 -35.809664 
L 894.991547 -35.809664 
L 888.351944 -35.809664 
L 886.138743 -35.809664 
L 883.925542 -35.809664 
L 881.712341 -35.809664 
L 872.859536 -35.809664 
L 870.646335 -35.809664 
L 868.433134 -35.809664 
L 866.219933 -35.809664 
L 864.006732 -35.809664 
L 857.367129 -35.809664 
L 855.153928 -35.809664 
L 852.940727 -35.809664 
L 850.727526 -35.809664 
L 848.514325 -35.809664 
L 841.874722 -35.809664 
L 839.661521 -35.809664 
L 837.448319 -35.809664 
L 835.235118 -35.809664 
L 833.021917 -35.809664 
L 826.382314 -35.809664 
L 824.169113 -35.809664 
L 821.955912 -35.809664 
L 819.742711 -35.809664 
L 817.52951 -35.809664 
L 810.889907 -35.809664 
L 808.676706 -35.809664 
L 806.463505 -35.809664 
L 804.250304 -35.809664 
L 802.037103 -35.809664 
L 795.397499 -35.809664 
L 793.184298 -35.809664 
L 790.971097 -35.809664 
L 788.757896 -35.809664 
L 764.412685 -35.809664 
L 762.199484 -35.809664 
L 759.986283 -35.809664 
L 757.773082 -35.809664 
L 755.559881 -35.809664 
L 748.920277 -35.809664 
L 746.707076 -35.809664 
L 744.493875 -35.809664 
L 742.280674 -35.809664 
L 740.067473 -35.809664 
L 733.42787 -35.809664 
L 731.214669 -35.809664 
L 729.001468 -35.809664 
L 726.788267 -35.809664 
L 724.575066 -35.809664 
L 717.935463 -35.809664 
L 715.722262 -35.809664 
L 713.509061 -35.809664 
L 711.295859 -35.809664 
L 709.082658 -35.809664 
L 702.443055 -35.809664 
L 700.229854 -35.809664 
L 698.016653 -35.809664 
L 695.803452 -35.809664 
L 693.590251 -35.809664 
L 686.950648 -35.809664 
L 684.737447 -35.809664 
L 682.524246 -35.809664 
L 680.311045 -35.809664 
L 678.097844 -35.809664 
L 667.031838 -35.809664 
L 664.818637 -35.809664 
L 662.605436 -35.809664 
L 655.965833 -35.809664 
L 653.752632 -35.809664 
L 651.539431 -35.809664 
L 649.32623 -35.809664 
L 647.113029 -35.809664 
L 640.473426 -35.809664 
L 638.260225 -35.809664 
L 636.047024 -35.809664 
L 633.833823 -35.809664 
L 631.620622 -35.809664 
L 624.981018 -35.809664 
L 622.767817 -35.809664 
L 620.554616 -35.809664 
L 618.341415 -35.809664 
L 616.128214 -35.809664 
L 609.488611 -35.809664 
L 607.27541 -35.809664 
L 605.062209 -35.809664 
L 602.849008 -35.809664 
L 600.635807 -35.809664 
L 593.996204 -35.809664 
L 591.783003 -35.809664 
L 589.569802 -35.809664 
L 587.356601 -35.809664 
L 585.143399 -35.809664 
L 578.503796 -35.809664 
L 576.290595 -35.809664 
L 574.077394 -35.809664 
L 571.864193 -35.809664 
L 569.650992 -35.809664 
L 563.011389 -35.809664 
L 560.798188 -35.809664 
L 558.584987 -35.809664 
L 556.371786 -35.809664 
L 554.158585 -35.809664 
L 547.518982 -35.809664 
L 545.305781 -35.809664 
L 543.092579 -35.809664 
L 540.879378 -35.809664 
L 538.666177 -35.809664 
L 532.026574 -35.809664 
L 529.813373 -35.809664 
L 527.600172 -35.809664 
L 525.386971 -35.809664 
L 523.17377 -35.809664 
L 516.534167 -35.809664 
L 514.320966 -35.809664 
L 512.107765 -35.809664 
L 509.894564 -35.809664 
L 507.681363 -35.809664 
L 501.041759 -35.809664 
L 498.828558 -35.809664 
L 496.615357 -35.809664 
L 494.402156 -35.809664 
L 492.188955 -35.809664 
L 485.549352 -35.809664 
L 483.336151 -35.809664 
L 463.417342 -35.809664 
L 461.204141 -35.809664 
L 454.564537 -35.809664 
L 452.351336 -35.809664 
L 450.138135 -35.809664 
L 447.924934 -35.809664 
L 445.711733 -35.809664 
L 439.07213 -35.809664 
L 436.858929 -35.809664 
L 434.645728 -35.809664 
L 432.432527 -35.809664 
L 430.219326 -35.809664 
L 423.579723 -35.809664 
L 421.366522 -35.809664 
L 419.153321 -35.809664 
L 416.940119 -35.809664 
L 414.726918 -35.809664 
L 408.087315 -35.809664 
L 405.874114 -35.809664 
L 403.660913 -35.809664 
L 401.447712 -35.809664 
L 399.234511 -35.809664 
L 392.594908 -35.809664 
L 390.381707 -35.809664 
L 388.168506 -35.809664 
L 385.955305 -35.809664 
L 383.742104 -35.809664 
L 377.102501 -35.809664 
L 374.889299 -35.809664 
L 372.676098 -35.809664 
L 370.462897 -35.809664 
L 368.249696 -35.809664 
L 361.610093 -35.809664 
L 359.396892 -35.809664 
L 357.183691 -35.809664 
L 354.97049 -35.809664 
L 352.757289 -35.809664 
L 346.117686 -35.809664 
L 343.904485 -35.809664 
L 341.691284 -35.809664 
L 339.478083 -35.809664 
L 337.264882 -35.809664 
L 330.625278 -35.809664 
L 328.412077 -35.809664 
L 326.198876 -35.809664 
L 323.985675 -35.809664 
L 321.772474 -35.809664 
L 315.132871 -35.809664 
L 312.91967 -35.809664 
L 310.706469 -35.809664 
L 308.493268 -35.809664 
L 306.280067 -35.809664 
L 299.640464 -35.809664 
L 297.427263 -35.809664 
L 295.214062 -35.809664 
L 293.00086 -35.809664 
L 290.787659 -35.809664 
L 284.148056 -35.809664 
L 281.934855 -35.809664 
L 279.721654 -35.809664 
L 277.508453 -35.809664 
L 275.295252 -35.809664 
L 268.655649 -35.809664 
L 266.442448 -35.809664 
L 264.229247 -35.809664 
L 262.016046 -35.809664 
L 259.802845 -35.809664 
L 253.163242 -35.809664 
L 250.95004 -35.809664 
L 248.736839 -35.809664 
L 246.523638 -35.809664 
L 244.310437 -35.809664 
L 237.670834 -35.809664 
L 235.457633 -35.809664 
L 233.244432 -35.809664 
L 231.031231 -35.809664 
L 228.81803 -35.809664 
L 222.178427 -35.809664 
L 219.965226 -35.809664 
L 217.752025 -35.809664 
L 215.538824 -35.809664 
L 213.325623 -35.809664 
L 206.686019 -35.809664 
L 204.472818 -35.809664 
L 202.259617 -35.809664 
L 200.046416 -35.809664 
L 191.193612 -35.809664 
L 188.980411 -35.809664 
L 186.76721 -35.809664 
L 184.554009 -35.809664 
L 182.340808 -35.809664 
L 175.701205 -35.809664 
L 173.488004 -35.809664 
L 171.274803 -35.809664 
L 169.061602 -35.809664 
L 166.8484 -35.809664 
L 160.208797 -35.809664 
L 157.995596 -35.809664 
L 155.782395 -35.809664 
L 153.569194 -35.809664 
L 151.355993 -35.809664 
L 144.71639 -35.809664 
L 142.503189 -35.809664 
L 140.289988 -35.809664 
L 138.076787 -35.809664 
L 124.79758 -35.809664 
L 122.584379 -35.809664 
L 120.371178 -35.809664 
L 113.731575 -35.809664 
L 111.518374 -35.809664 
L 109.305173 -35.809664 
L 107.091972 -35.809664 
L 104.878771 -35.809664 
L 98.239168 -35.809664 
L 96.025967 -35.809664 
L 93.812766 -35.809664 
L 91.599565 -35.809664 
L 89.386364 -35.809664 
z
" style="stroke: #3498db; stroke-opacity: 0.5"/>
    </defs>
    <g clip-path="url(#pdc48efedd7)">
     <use xlink:href="#m66636715d4" x="0" y="708.48" style="fill: #3498db; fill-opacity: 0.5; stroke: #3498db; stroke-opacity: 0.5"/>
    </g>
   </g>
   <g id="matplotlib.axis_3">
    <g id="xtick_9">
     <g id="line2d_29">
      <path d="M 127.010782 685.78 
L 127.010782 397.367402 
" clip-path="url(#pdc48efedd7)" style="fill: none; stroke-dasharray: 2.96,1.28; stroke-dashoffset: 0; stroke: #ffffff; stroke-opacity: 0.3; stroke-width: 0.8"/>
     </g>
     <g id="line2d_30">
      <g>
       <use xlink:href="#mebd670910e" x="127.010782" y="685.78" style="fill: #ffffff; stroke: #ffffff; stroke-width: 0.8"/>
      </g>
     </g>
     <g id="text_17">
      <!-- 2025-05 -->
      <g style="fill: #ffffff" transform="translate(106.010782 699.5925) scale(0.12 -0.12)">
       <use xlink:href="#SimHei-15"/>
       <use xlink:href="#SimHei-13" transform="translate(50 0)"/>
       <use xlink:href="#SimHei-15" transform="translate(100 0)"/>
       <use xlink:href="#SimHei-18" transform="translate(150 0)"/>
       <use xlink:href="#SimHei-10" transform="translate(200 0)"/>
       <use xlink:href="#SimHei-13" transform="translate(250 0)"/>
       <use xlink:href="#SimHei-18" transform="translate(300 0)"/>
      </g>
     </g>
    </g>
    <g id="xtick_10">
     <g id="line2d_31">
      <path d="M 262.016046 685.78 
L 262.016046 397.367402 
" clip-path="url(#pdc48efedd7)" style="fill: none; stroke-dasharray: 2.96,1.28; stroke-dashoffset: 0; stroke: #ffffff; stroke-opacity: 0.3; stroke-width: 0.8"/>
     </g>
     <g id="line2d_32">
      <g>
       <use xlink:href="#mebd670910e" x="262.016046" y="685.78" style="fill: #ffffff; stroke: #ffffff; stroke-width: 0.8"/>
      </g>
     </g>
     <g id="text_18">
      <!-- 2025-07 -->
      <g style="fill: #ffffff" transform="translate(241.016046 699.5925) scale(0.12 -0.12)">
       <use xlink:href="#SimHei-15"/>
       <use xlink:href="#SimHei-13" transform="translate(50 0)"/>
       <use xlink:href="#SimHei-15" transform="translate(100 0)"/>
       <use xlink:href="#SimHei-18" transform="translate(150 0)"/>
       <use xlink:href="#SimHei-10" transform="translate(200 0)"/>
       <use xlink:href="#SimHei-13" transform="translate(250 0)"/>
       <use xlink:href="#SimHei-1a" transform="translate(300 0)"/>
      </g>
     </g>
    </g>
    <g id="xtick_11">
     <g id="line2d_33">
      <path d="M 399.234511 685.78 
L 399.234511 397.367402 
" clip-path="url(#pdc48efedd7)" style="fill: none; stroke-dasharray: 2.96,1.28; stroke-dashoffset: 0; stroke: #ffffff; stroke-opacity: 0.3; stroke-width: 0.8"/>
     </g>
     <g id="line2d_34">
      <g>
       <use xlink:href="#mebd670910e" x="399.234511" y="685.78" style="fill: #ffffff; stroke: #ffffff; stroke-width: 0.8"/>
      </g>
     </g>
     <g id="text_19">
      <!-- 2025-09 -->
      <g style="fill: #ffffff" transform="translate(378.234511 699.5925) scale(0.12 -0.12)">
       <use xlink:href="#SimHei-15"/>
       <use xlink:href="#SimHei-13" transform="translate(50 0)"/>
       <use xlink:href="#SimHei-15" transform="translate(100 0)"/>
       <use xlink:href="#SimHei-18" transform="translate(150 0)"/>
       <use xlink:href="#SimHei-10" transform="translate(200 0)"/>
       <use xlink:href="#SimHei-13" transform="translate(250 0)"/>
       <use xlink:href="#SimHei-1c" transform="translate(300 0)"/>
      </g>
     </g>
    </g>
    <g id="xtick_12">
     <g id="line2d_35">
      <path d="M 534.239775 685.78 
L 534.239775 397.367402 
" clip-path="url(#pdc48efedd7)" style="fill: none; stroke-dasharray: 2.96,1.28; stroke-dashoffset: 0; stroke: #ffffff; stroke-opacity: 0.3; stroke-width: 0.8"/>
     </g>
     <g id="line2d_36">
      <g>
       <use xlink:href="#mebd670910e" x="534.239775" y="685.78" style="fill: #ffffff; stroke: #ffffff; stroke-width: 0.8"/>
      </g>
     </g>
     <g id="text_20">
      <!-- 2025-11 -->
      <g style="fill: #ffffff" transform="translate(513.239775 699.5925) scale(0.12 -0.12)">
       <use xlink:href="#SimHei-15"/>
       <use xlink:href="#SimHei-13" transform="translate(50 0)"/>
       <use xlink:href="#SimHei-15" transform="translate(100 0)"/>
       <use xlink:href="#SimHei-18" transform="translate(150 0)"/>
       <use xlink:href="#SimHei-10" transform="translate(200 0)"/>
       <use xlink:href="#SimHei-14" transform="translate(250 0)"/>
       <use xlink:href="#SimHei-14" transform="translate(300 0)"/>
      </g>
     </g>
    </g>
    <g id="xtick_13">
     <g id="line2d_37">
      <path d="M 669.245039 685.78 
L 669.245039 397.367402 
" clip-path="url(#pdc48efedd7)" style="fill: none; stroke-dasharray: 2.96,1.28; stroke-dashoffset: 0; stroke: #ffffff; stroke-opacity: 0.3; stroke-width: 0.8"/>
     </g>
     <g id="line2d_38">
      <g>
       <use xlink:href="#mebd670910e" x="669.245039" y="685.78" style="fill: #ffffff; stroke: #ffffff; stroke-width: 0.8"/>
      </g>
     </g>
     <g id="text_21">
      <!-- 2026-01 -->
      <g style="fill: #ffffff" transform="translate(648.245039 699.5925) scale(0.12 -0.12)">
       <use xlink:href="#SimHei-15"/>
       <use xlink:href="#SimHei-13" transform="translate(50 0)"/>
       <use xlink:href="#SimHei-15" transform="translate(100 0)"/>
       <use xlink:href="#SimHei-19" transform="translate(150 0)"/>
       <use xlink:href="#SimHei-10" transform="translate(200 0)"/>
       <use xlink:href="#SimHei-13" transform="translate(250 0)"/>
       <use xlink:href="#SimHei-14" transform="translate(300 0)"/>
      </g>
     </g>
    </g>
    <g id="xtick_14">
     <g id="line2d_39">
      <path d="M 799.823902 685.78 
L 799.823902 397.367402 
" clip-path="url(#pdc48efedd7)" style="fill: none; stroke-dasharray: 2.96,1.28; stroke-dashoffset: 0; stroke: #ffffff; stroke-opacity: 0.3; stroke-width: 0.8"/>
     </g>
     <g id="line2d_40">
      <g>
       <use xlink:href="#mebd670910e" x="799.823902" y="685.78" style="fill: #ffffff; stroke: #ffffff; stroke-width: 0.8"/>
      </g>
     </g>
     <g id="text_22">
      <!-- 2026-03 -->
      <g style="fill: #ffffff" transform="translate(778.823902 699.5925) scale(0.12 -0.12)">
       <use xlink:href="#SimHei-15"/>
       <use xlink:href="#SimHei-13" transform="translate(50 0)"/>
       <use xlink:href="#SimHei-15" transform="translate(100 0)"/>
       <use xlink:href="#SimHei-19" transform="translate(150 0)"/>
       <use xlink:href="#SimHei-10" transform="translate(200 0)"/>
       <use xlink:href="#SimHei-13" transform="translate(250 0)"/>
       <use xlink:href="#SimHei-16" transform="translate(300 0)"/>
      </g>
     </g>
    </g>
    <g id="xtick_15">
     <g id="line2d_41">
      <path d="M 934.829166 685.78 
L 934.829166 397.367402 
" clip-path="url(#pdc48efedd7)" style="fill: none; stroke-dasharray: 2.96,1.28; stroke-dashoffset: 0; stroke: #ffffff; stroke-opacity: 0.3; stroke-width: 0.8"/>
     </g>
     <g id="line2d_42">
      <g>
       <use xlink:href="#mebd670910e" x="934.829166" y="685.78" style="fill: #ffffff; stroke: #ffffff; stroke-width: 0.8"/>
      </g>
     </g>
     <g id="text_23">
      <!-- 2026-05 -->
      <g style="fill: #ffffff" transform="translate(913.829166 699.5925) scale(0.12 -0.12)">
       <use xlink:href="#SimHei-15"/>
       <use xlink:href="#SimHei-13" transform="translate(50 0)"/>
       <use xlink:href="#SimHei-15" transform="translate(100 0)"/>
       <use xlink:href="#SimHei-19" transform="translate(150 0)"/>
       <use xlink:href="#SimHei-10" transform="translate(200 0)"/>
       <use xlink:href="#SimHei-13" transform="translate(250 0)"/>
       <use xlink:href="#SimHei-18" transform="translate(300 0)"/>
      </g>
     </g>
    </g>
    <g id="xtick_16">
     <g id="line2d_43">
      <path d="M 1069.83443 685.78 
L 1069.83443 397.367402 
" clip-path="url(#pdc48efedd7)" style="fill: none; stroke-dasharray: 2.96,1.28; stroke-dashoffset: 0; stroke: #ffffff; stroke-opacity: 0.3; stroke-width: 0.8"/>
     </g>
     <g id="line2d_44">
      <g>
       <use xlink:href="#mebd670910e" x="1069.83443" y="685.78" style="fill: #ffffff; stroke: #ffffff; stroke-width: 0.8"/>
      </g>
     </g>
     <g id="text_24">
      <!-- 2026-07 -->
      <g style="fill: #ffffff" transform="translate(1048.83443 699.5925) scale(0.12 -0.12)">
       <use xlink:href="#SimHei-15"/>
       <use xlink:href="#SimHei-13" transform="translate(50 0)"/>
       <use xlink:href="#SimHei-15" transform="translate(100 0)"/>
       <use xlink:href="#SimHei-19" transform="translate(150 0)"/>
       <use xlink:href="#SimHei-10" transform="translate(200 0)"/>
       <use xlink:href="#SimHei-13" transform="translate(250 0)"/>
       <use xlink:href="#SimHei-1a" transform="translate(300 0)"/>
      </g>
     </g>
    </g>
   </g>
   <g id="matplotlib.axis_4">
    <g id="ytick_6">
     <g id="line2d_45">
      <path d="M 39.7 672.670336 
L 1132.8 672.670336 
" clip-path="url(#pdc48efedd7)" style="fill: none; stroke-dasharray: 2.96,1.28; stroke-dashoffset: 0; stroke: #ffffff; stroke-opacity: 0.3; stroke-width: 0.8"/>
     </g>
     <g id="line2d_46">
      <g>
       <use xlink:href="#m39852877da" x="39.7" y="672.670336" style="fill: #ffffff; stroke: #ffffff; stroke-width: 0.8"/>
      </g>
     </g>
     <g id="text_25">
      <!-- 0 -->
      <g style="fill: #ffffff" transform="translate(30.2 677.826586) scale(0.12 -0.12)">
       <use xlink:href="#SimHei-13"/>
      </g>
     </g>
    </g>
    <g id="ytick_7">
     <g id="line2d_47">
      <path d="M 39.7 617.090799 
L 1132.8 617.090799 
" clip-path="url(#pdc48efedd7)" style="fill: none; stroke-dasharray: 2.96,1.28; stroke-dashoffset: 0; stroke: #ffffff; stroke-opacity: 0.3; stroke-width: 0.8"/>
     </g>
     <g id="line2d_48">
      <g>
       <use xlink:href="#m39852877da" x="39.7" y="617.090799" style="fill: #ffffff; stroke: #ffffff; stroke-width: 0.8"/>
      </g>
     </g>
     <g id="text_26">
      <!-- 20 -->
      <g style="fill: #ffffff" transform="translate(24.2 622.247049) scale(0.12 -0.12)">
       <use xlink:href="#SimHei-15"/>
       <use xlink:href="#SimHei-13" transform="translate(50 0)"/>
      </g>
     </g>
    </g>
    <g id="ytick_8">
     <g id="line2d_49">
      <path d="M 39.7 561.511262 
L 1132.8 561.511262 
" clip-path="url(#pdc48efedd7)" style="fill: none; stroke-dasharray: 2.96,1.28; stroke-dashoffset: 0; stroke: #ffffff; stroke-opacity: 0.3; stroke-width: 0.8"/>
     </g>
     <g id="line2d_50">
      <g>
       <use xlink:href="#m39852877da" x="39.7" y="561.511262" style="fill: #ffffff; stroke: #ffffff; stroke-width: 0.8"/>
      </g>
     </g>
     <g id="text_27">
      <!-- 40 -->
      <g style="fill: #ffffff" transform="translate(24.2 566.667512) scale(0.12 -0.12)">
       <use xlink:href="#SimHei-17"/>
       <use xlink:href="#SimHei-13" transform="translate(50 0)"/>
      </g>
     </g>
    </g>
    <g id="ytick_9">
     <g id="line2d_51">
      <path d="M 39.7 505.931725 
L 1132.8 505.931725 
" clip-path="url(#pdc48efedd7)" style="fill: none; stroke-dasharray: 2.96,1.28; stroke-dashoffset: 0; stroke: #ffffff; stroke-opacity: 0.3; stroke-width: 0.8"/>
     </g>
     <g id="line2d_52">
      <g>
       <use xlink:href="#m39852877da" x="39.7" y="505.931725" style="fill: #ffffff; stroke: #ffffff; stroke-width: 0.8"/>
      </g>
     </g>
     <g id="text_28">
      <!-- 60 -->
      <g style="fill: #ffffff" transform="translate(24.2 511.087975) scale(0.12 -0.12)">
       <use xlink:href="#SimHei-19"/>
       <use xlink:href="#SimHei-13" transform="translate(50 0)"/>
      </g>
     </g>
    </g>
    <g id="ytick_10">
     <g id="line2d_53">
      <path d="M 39.7 450.352188 
L 1132.8 450.352188 
" clip-path="url(#pdc48efedd7)" style="fill: none; stroke-dasharray: 2.96,1.28; stroke-dashoffset: 0; stroke: #ffffff; stroke-opacity: 0.3; stroke-width: 0.8"/>
     </g>
     <g id="line2d_54">
      <g>
       <use xlink:href="#m39852877da" x="39.7" y="450.352188" style="fill: #ffffff; stroke: #ffffff; stroke-width: 0.8"/>
      </g>
     </g>
     <g id="text_29">
      <!-- 80 -->
      <g style="fill: #ffffff" transform="translate(24.2 455.508438) scale(0.12 -0.12)">
       <use xlink:href="#SimHei-1b"/>
       <use xlink:href="#SimHei-13" transform="translate(50 0)"/>
      </g>
     </g>
    </g>
    <g id="text_30">
     <!-- 比例 % -->
     <g style="fill: #ffffff" transform="translate(18.371875 561.073701) rotate(-90) scale(0.13 -0.13)">
      <defs>
       <path id="SimHei-5c1" d="M 3450 4725 
Q 3825 4725 4100 4750 
L 4100 4300 
Q 3825 4325 3500 4325 
L 3150 4325 
Q 3125 4025 3025 3350 
L 4050 3350 
Q 4000 2050 3612 1050 
Q 3225 50 2300 -600 
Q 2200 -400 1900 -150 
Q 2750 250 3200 1325 
Q 2975 1525 2550 1800 
Q 2700 2000 2825 2175 
Q 3200 1875 3350 1775 
Q 3500 2250 3575 2950 
L 2925 2950 
Q 2800 2425 2225 1575 
Q 2025 1775 1775 1925 
Q 2125 2275 2375 2837 
Q 2625 3400 2675 4325 
Q 2300 4325 2150 4300 
L 2150 4750 
Q 2400 4725 2800 4725 
L 3450 4725 
z
M 2050 4975 
Q 1875 4775 1550 3850 
L 1550 475 
Q 1550 -25 1575 -600 
L 1075 -600 
Q 1100 -75 1100 425 
L 1100 3000 
Q 950 2700 650 2250 
Q 550 2375 200 2625 
Q 525 2925 937 3762 
Q 1350 4600 1450 5200 
Q 1650 5075 2050 4975 
z
M 5950 5075 
Q 5900 4775 5900 4300 
L 5900 250 
Q 5900 -275 5700 -400 
Q 5500 -525 4850 -575 
Q 4825 -300 4650 50 
Q 5175 0 5300 25 
Q 5425 50 5450 300 
L 5450 4275 
Q 5450 4750 5400 5075 
L 5950 5075 
z
M 4925 4225 
Q 4875 3875 4875 3250 
L 4875 1800 
Q 4875 1200 4900 925 
L 4375 925 
Q 4425 1200 4425 1775 
L 4425 3275 
Q 4400 3850 4375 4225 
L 4925 4225 
z
" transform="scale(0.015625)"/>
      </defs>
      <use xlink:href="#SimHei-220a"/>
      <use xlink:href="#SimHei-5c1" transform="translate(100 0)"/>
      <use xlink:href="#SimHei-3" transform="translate(200 0)"/>
      <use xlink:href="#SimHei-8" transform="translate(250 0)"/>
     </g>
    </g>
   </g>
   <g id="line2d_55">
    <path d="M 1083.113636 685.78 
L 1083.113636 397.367402 
" clip-path="url(#pdc48efedd7)" style="fill: none; stroke-dasharray: 7.4,3.2; stroke-dashoffset: 0; stroke: #ffff00; stroke-opacity: 0.7; stroke-width: 2"/>
   </g>
   <g id="patch_6">
    <path d="M 39.7 685.78 
L 39.7 397.367402 
" style="fill: none; stroke: #ffffff; stroke-width: 0.8; stroke-linejoin: miter; stroke-linecap: square"/>
   </g>
   <g id="patch_7">
    <path d="M 39.7 685.78 
L 1132.8 685.78 
" style="fill: none; stroke: #ffffff; stroke-width: 0.8; stroke-linejoin: miter; stroke-linecap: square"/>
   </g>
   <g id="text_31">
    <!-- 日涨跌比例 (%) -->
    <g style="fill: #ffffff" transform="translate(537.25 391.367402) scale(0.14 -0.14)">
     <defs>
      <path id="SimHei-1c1b" d="M 5375 5000 
Q 5350 3775 5350 2275 
Q 5350 775 5375 -450 
L 4800 -450 
L 4800 175 
L 1800 175 
L 1800 -575 
L 1250 -575 
Q 1275 575 1275 2125 
Q 1275 3675 1250 5000 
L 5375 5000 
z
M 4800 600 
L 4800 2375 
L 1800 2375 
L 1800 600 
L 4800 600 
z
M 4800 2800 
L 4800 4550 
L 1800 4550 
L 1800 2800 
L 4800 2800 
z
" transform="scale(0.015625)"/>
      <path id="SimHei-23de" d="M 3750 4350 
Q 3750 4700 3725 5075 
L 4225 5075 
Q 4200 4700 4200 4350 
L 4200 2600 
L 5975 2600 
L 5975 2175 
Q 5500 2200 5025 2200 
Q 5175 1325 5512 700 
Q 5850 75 6175 -125 
Q 5875 -300 5750 -475 
Q 5375 -125 5137 337 
Q 4900 800 4775 1300 
Q 4650 1800 4575 2200 
L 4200 2200 
L 4200 275 
Q 4475 500 4725 775 
Q 4800 550 4925 300 
Q 4800 200 4500 -62 
Q 4200 -325 3875 -600 
Q 3775 -425 3575 -175 
Q 3775 -25 3750 350 
L 3750 2200 
Q 3575 2200 3225 2175 
L 3225 2625 
Q 3575 2600 3750 2600 
L 3750 4350 
z
M 1900 0 
Q 2225 0 2437 25 
Q 2650 50 2650 275 
L 2650 1675 
L 1775 1675 
Q 1875 2675 1850 3475 
L 2750 3475 
L 2750 4475 
L 2575 4475 
Q 2125 4475 1775 4450 
L 1775 4900 
Q 2175 4875 2550 4875 
L 3225 4875 
Q 3200 4425 3200 3975 
Q 3200 3525 3225 3075 
L 2325 3075 
L 2275 2075 
L 3125 2075 
Q 3100 1700 3100 1325 
L 3100 100 
Q 3100 -250 2912 -375 
Q 2725 -500 2125 -550 
Q 2100 -250 1900 0 
z
M 1475 1550 
Q 1300 1075 1125 525 
L 775 -575 
Q 550 -400 275 -275 
Q 500 75 712 662 
Q 925 1250 1075 1825 
Q 1250 1650 1475 1550 
z
M 5675 4650 
Q 5525 4375 5337 3950 
Q 5150 3525 4825 2875 
Q 4575 3025 4425 3075 
Q 4625 3425 4875 4000 
Q 5125 4575 5200 4875 
Q 5425 4750 5675 4650 
z
M 500 3550 
Q 1100 3200 1425 2975 
Q 1225 2675 1150 2500 
Q 750 2800 225 3125 
Q 375 3350 500 3550 
z
M 1300 4100 
Q 900 4475 425 4775 
Q 575 4950 725 5150 
Q 1200 4800 1600 4500 
Q 1425 4325 1300 4100 
z
" transform="scale(0.015625)"/>
      <path id="SimHei-4402" d="M 1050 2475 
Q 1025 2000 1025 1625 
L 1025 500 
Q 1250 525 1500 575 
L 1500 2975 
L 725 2975 
Q 750 3425 750 3925 
Q 750 4425 725 4900 
L 2650 4900 
Q 2625 4425 2625 3925 
Q 2625 3425 2650 2975 
L 1925 2975 
L 1925 2200 
Q 2325 2200 2650 2225 
L 2650 1750 
Q 2250 1775 1925 1775 
L 1925 650 
Q 2275 725 2825 850 
Q 2775 625 2775 425 
Q 1350 75 1025 -12 
Q 700 -100 450 -200 
Q 400 100 250 375 
Q 400 375 600 425 
L 600 1700 
Q 600 2050 575 2475 
L 1050 2475 
z
M 3325 2725 
Q 3050 2825 2875 2875 
Q 3050 3350 3125 3862 
Q 3200 4375 3200 4750 
Q 3425 4675 3750 4625 
Q 3650 4350 3600 4025 
L 4200 4025 
L 4200 4525 
Q 4200 4825 4150 5250 
Q 4450 5200 4725 5175 
Q 4675 5000 4650 4725 
Q 4625 4450 4625 4025 
Q 5400 4025 5775 4050 
L 5775 3575 
Q 5400 3600 4625 3600 
L 4625 2375 
Q 5650 2375 6050 2400 
L 6050 1950 
Q 5625 1975 4750 1975 
Q 4900 1250 5300 687 
Q 5700 125 6200 -100 
Q 5975 -275 5775 -575 
Q 5275 -100 4962 412 
Q 4650 925 4475 1575 
Q 4325 925 4087 525 
Q 3850 125 3537 -150 
Q 3225 -425 2850 -650 
Q 2675 -425 2475 -275 
Q 2900 -75 3200 187 
Q 3500 450 3737 850 
Q 3975 1250 4100 1975 
Q 3375 1975 2850 1950 
L 2850 2400 
Q 3450 2375 4175 2375 
Q 4200 3175 4200 3600 
L 3550 3600 
Q 3450 3275 3325 2725 
z
M 2225 3350 
L 2225 4525 
L 1175 4525 
L 1175 3350 
L 2225 3350 
z
" transform="scale(0.015625)"/>
     </defs>
     <use xlink:href="#SimHei-1c1b"/>
     <use xlink:href="#SimHei-23de" transform="translate(100 0)"/>
     <use xlink:href="#SimHei-4402" transform="translate(200 0)"/>
     <use xlink:href="#SimHei-220a" transform="translate(300 0)"/>
     <use xlink:href="#SimHei-5c1" transform="translate(400 0)"/>
     <use xlink:href="#SimHei-3" transform="translate(500 0)"/>
     <use xlink:href="#SimHei-b" transform="translate(550 0)"/>
     <use xlink:href="#SimHei-8" transform="translate(600 0)"/>
     <use xlink:href="#SimHei-c" transform="translate(650 0)"/>
    </g>
   </g>
   <g id="legend_1">
    <g id="patch_8">
     <path d="M 47.4 439.167402 
L 126.6 439.167402 
Q 128.8 439.167402 128.8 436.967402 
L 128.8 405.067402 
Q 128.8 402.867402 126.6 402.867402 
L 47.4 402.867402 
Q 45.2 402.867402 45.2 405.067402 
L 45.2 436.967402 
Q 45.2 439.167402 47.4 439.167402 
z
" style="fill: #2d2d2d; opacity: 0.85; stroke: #cccccc; stroke-linejoin: miter"/>
    </g>
    <g id="patch_9">
     <path d="M 49.6 416.720527 
L 71.6 416.720527 
L 71.6 409.020527 
L 49.6 409.020527 
z
" style="fill: #e74c3c; fill-opacity: 0.5; stroke: #e74c3c; stroke-opacity: 0.5; stroke-linejoin: miter"/>
    </g>
    <g id="text_32">
     <!-- 上涨比例 -->
     <g style="fill: #cccccc" transform="translate(80.4 416.720527) scale(0.11 -0.11)">
      <use xlink:href="#SimHei-440"/>
      <use xlink:href="#SimHei-23de" transform="translate(100 0)"/>
      <use xlink:href="#SimHei-220a" transform="translate(200 0)"/>
      <use xlink:href="#SimHei-5c1" transform="translate(300 0)"/>
     </g>
    </g>
    <g id="patch_10">
     <path d="M 49.6 433.220527 
L 71.6 433.220527 
L 71.6 425.520527 
L 49.6 425.520527 
z
" style="fill: #3498db; fill-opacity: 0.5; stroke: #3498db; stroke-opacity: 0.5; stroke-linejoin: miter"/>
    </g>
    <g id="text_33">
     <!-- 下跌比例 -->
     <g style="fill: #cccccc" transform="translate(80.4 433.220527) scale(0.11 -0.11)">
      <defs>
       <path id="SimHei-441" d="M 5000 4700 
Q 5475 4700 5975 4725 
L 5975 4200 
Q 5425 4225 5000 4225 
L 3275 4225 
L 3275 375 
Q 3275 50 3300 -450 
L 2725 -450 
Q 2750 0 2750 375 
L 2750 4225 
L 1375 4225 
Q 875 4225 400 4200 
L 400 4725 
Q 875 4700 1375 4700 
L 5000 4700 
z
M 5650 1400 
Q 5400 1225 5200 1000 
Q 4800 1525 3650 2575 
L 4025 2950 
Q 4700 2400 5650 1400 
z
" transform="scale(0.015625)"/>
      </defs>
      <use xlink:href="#SimHei-441"/>
      <use xlink:href="#SimHei-4402" transform="translate(100 0)"/>
      <use xlink:href="#SimHei-220a" transform="translate(200 0)"/>
      <use xlink:href="#SimHei-5c1" transform="translate(300 0)"/>
     </g>
    </g>
   </g>
  </g>
 </g>
 <defs>
  <clipPath id="pb405ab79d9">
   <rect x="39.7" y="25.23125" width="1093.1" height="288.412598"/>
  </clipPath>
  <clipPath id="pdc48efedd7">
   <rect x="39.7" y="397.367402" width="1093.1" height="288.412598"/>
  </clipPath>
 </defs>
</svg>
