<?xml version="1.0" encoding="utf-8" standalone="no"?>
<!DOCTYPE svg PUBLIC "-//W3C//DTD SVG 1.1//EN"
  "http://www.w3.org/Graphics/SVG/1.1/DTD/svg11.dtd">
<svg xmlns:xlink="http://www.w3.org/1999/xlink" width="559.106314pt" height="356.414601pt" viewBox="0 0 559.106314 356.414601" xmlns="http://www.w3.org/2000/svg" version="1.1">
 <metadata>
  <rdf:RDF xmlns:dc="http://purl.org/dc/elements/1.1/" xmlns:cc="http://creativecommons.org/ns#" xmlns:rdf="http://www.w3.org/1999/02/22-rdf-syntax-ns#">
   <cc:Work>
    <dc:type rdf:resource="http://purl.org/dc/dcmitype/StillImage"/>
    <dc:date>2026-07-14T10:09:00.704536</dc:date>
    <dc:format>image/svg+xml</dc:format>
    <dc:creator>
     <cc:Agent>
      <dc:title>Matplotlib v3.10.9, https://matplotlib.org/</dc:title>
     </cc:Agent>
    </dc:creator>
   </cc:Work>
  </rdf:RDF>
 </metadata>
 <defs>
  <style type="text/css">*{stroke-linejoin: round; stroke-linecap: butt}</style>
 </defs>
 <g id="figure_1">
  <g id="patch_1">
   <path d="M 0 356.414601 
L 559.106314 356.414601 
L 559.106314 0 
L 0 0 
z
" style="fill: #0d1117"/>
  </g>
  <g id="axes_1">
   <g id="patch_2">
    <path d="M 8.566439 317.952 
L 508.534439 317.952 
L 508.534439 7.2 
L 8.566439 7.2 
z
" style="fill: #0d1117"/>
   </g>
   <g id="matplotlib.axis_1">
    <g id="xtick_1">
     <g id="line2d_1">
      <path d="M 19.331301 317.952 
L 19.331301 7.2 
" clip-path="url(#p11fb878503)" style="fill: none; stroke-dasharray: 1.48,0.64; stroke-dashoffset: 0; stroke: #21262d; stroke-width: 0.4"/>
     </g>
     <g id="line2d_2">
      <defs>
       <path id="m4c74739562" d="M 0 0 
L 0 3.5 
" style="stroke: #000000; stroke-width: 0.8"/>
      </defs>
      <g>
       <use xlink:href="#m4c74739562" x="19.331301" y="317.952" style="stroke: #000000; stroke-width: 0.8"/>
      </g>
     </g>
     <g id="text_1">
      <!-- Jun 12 -->
      <g transform="translate(11.575223 348.419106) rotate(-45) scale(0.09 -0.09)">
       <defs>
        <path id="SimHei-4a" d="M 2800 1550 
Q 2800 775 2462 425 
Q 2125 75 1550 75 
Q 1025 75 675 412 
Q 325 750 325 1500 
L 325 1775 
L 900 1775 
L 900 1425 
Q 900 975 1087 787 
Q 1275 600 1525 600 
Q 1875 600 2050 800 
Q 2225 1000 2225 1525 
L 2225 4400 
L 2800 4400 
L 2800 1550 
z
" transform="scale(0.015625)"/>
        <path id="SimHei-75" d="M 2800 125 
L 2300 125 
L 2300 650 
Q 2100 375 1862 225 
Q 1625 75 1250 75 
Q 800 75 575 325 
Q 350 575 350 950 
L 350 2925 
L 850 2925 
L 850 1125 
Q 850 825 1000 650 
Q 1150 475 1400 475 
Q 1725 475 2012 812 
Q 2300 1150 2300 1650 
L 2300 2925 
L 2800 2925 
L 2800 125 
z
" transform="scale(0.015625)"/>
        <path id="SimHei-6e" d="M 2800 125 
L 2300 125 
L 2300 1925 
Q 2300 2225 2150 2400 
Q 2000 2575 1750 2575 
Q 1425 2575 1137 2237 
Q 850 1900 850 1400 
L 850 125 
L 350 125 
L 350 2925 
L 850 2925 
L 850 2400 
Q 1050 2675 1287 2825 
Q 1525 2975 1900 2975 
Q 2350 2975 2575 2725 
Q 2800 2475 2800 2100 
L 2800 125 
z
" transform="scale(0.015625)"/>
        <path id="SimHei-20" transform="scale(0.015625)"/>
        <path id="SimHei-31" d="M 1400 3600 
Q 1075 3275 575 2975 
L 575 3450 
Q 1200 3875 1600 4450 
L 1900 4450 
L 1900 150 
L 1400 150 
L 1400 3600 
z
" transform="scale(0.015625)"/>
        <path id="SimHei-32" d="M 300 250 
Q 325 625 650 925 
Q 975 1225 1475 1862 
Q 1975 2500 2125 2850 
Q 2275 3200 2237 3450 
Q 2200 3700 2000 3862 
Q 1800 4025 1537 4000 
Q 1275 3975 1037 3800 
Q 800 3625 675 3275 
L 200 3350 
Q 400 3925 712 4187 
Q 1025 4450 1450 4475 
Q 1700 4500 1900 4462 
Q 2100 4425 2312 4287 
Q 2525 4150 2662 3875 
Q 2800 3600 2762 3212 
Q 2725 2825 2375 2287 
Q 2025 1750 1025 600 
L 2825 600 
L 2825 150 
L 300 150 
L 300 250 
z
" transform="scale(0.015625)"/>
       </defs>
       <use xlink:href="#SimHei-4a"/>
       <use xlink:href="#SimHei-75" transform="translate(50 0)"/>
       <use xlink:href="#SimHei-6e" transform="translate(100 0)"/>
       <use xlink:href="#SimHei-20" transform="translate(150 0)"/>
       <use xlink:href="#SimHei-31" transform="translate(200 0)"/>
       <use xlink:href="#SimHei-32" transform="translate(250 0)"/>
      </g>
     </g>
    </g>
    <g id="xtick_2">
     <g id="line2d_3">
      <path d="M 82.283706 317.952 
L 82.283706 7.2 
" clip-path="url(#p11fb878503)" style="fill: none; stroke-dasharray: 1.48,0.64; stroke-dashoffset: 0; stroke: #21262d; stroke-width: 0.4"/>
     </g>
     <g id="line2d_4">
      <g>
       <use xlink:href="#m4c74739562" x="82.283706" y="317.952" style="stroke: #000000; stroke-width: 0.8"/>
      </g>
     </g>
     <g id="text_2">
      <!-- Jun 16 -->
      <g transform="translate(74.527628 348.419106) rotate(-45) scale(0.09 -0.09)">
       <defs>
        <path id="SimHei-36" d="M 250 1612 
Q 275 1975 387 2225 
Q 500 2475 725 2850 
L 1750 4450 
L 2325 4450 
L 1275 2800 
Q 1950 2975 2350 2750 
Q 2750 2525 2887 2237 
Q 3025 1950 3037 1612 
Q 3050 1275 2937 950 
Q 2825 625 2537 362 
Q 2250 100 1737 75 
Q 1225 50 862 262 
Q 500 475 362 862 
Q 225 1250 250 1612 
z
M 1025 787 
Q 1250 550 1625 525 
Q 2000 500 2250 775 
Q 2500 1050 2500 1575 
Q 2500 2100 2187 2300 
Q 1875 2500 1487 2450 
Q 1100 2400 925 2075 
Q 750 1750 775 1387 
Q 800 1025 1025 787 
z
" transform="scale(0.015625)"/>
       </defs>
       <use xlink:href="#SimHei-4a"/>
       <use xlink:href="#SimHei-75" transform="translate(50 0)"/>
       <use xlink:href="#SimHei-6e" transform="translate(100 0)"/>
       <use xlink:href="#SimHei-20" transform="translate(150 0)"/>
       <use xlink:href="#SimHei-31" transform="translate(200 0)"/>
       <use xlink:href="#SimHei-36" transform="translate(250 0)"/>
      </g>
     </g>
    </g>
    <g id="xtick_3">
     <g id="line2d_5">
      <path d="M 145.236111 317.952 
L 145.236111 7.2 
" clip-path="url(#p11fb878503)" style="fill: none; stroke-dasharray: 1.48,0.64; stroke-dashoffset: 0; stroke: #21262d; stroke-width: 0.4"/>
     </g>
     <g id="line2d_6">
      <g>
       <use xlink:href="#m4c74739562" x="145.236111" y="317.952" style="stroke: #000000; stroke-width: 0.8"/>
      </g>
     </g>
     <g id="text_3">
      <!-- Jun 22 -->
      <g transform="translate(137.480033 348.419106) rotate(-45) scale(0.09 -0.09)">
       <use xlink:href="#SimHei-4a"/>
       <use xlink:href="#SimHei-75" transform="translate(50 0)"/>
       <use xlink:href="#SimHei-6e" transform="translate(100 0)"/>
       <use xlink:href="#SimHei-20" transform="translate(150 0)"/>
       <use xlink:href="#SimHei-32" transform="translate(200 0)"/>
       <use xlink:href="#SimHei-32" transform="translate(250 0)"/>
      </g>
     </g>
    </g>
    <g id="xtick_4">
     <g id="line2d_7">
      <path d="M 208.188516 317.952 
L 208.188516 7.2 
" clip-path="url(#p11fb878503)" style="fill: none; stroke-dasharray: 1.48,0.64; stroke-dashoffset: 0; stroke: #21262d; stroke-width: 0.4"/>
     </g>
     <g id="line2d_8">
      <g>
       <use xlink:href="#m4c74739562" x="208.188516" y="317.952" style="stroke: #000000; stroke-width: 0.8"/>
      </g>
     </g>
     <g id="text_4">
      <!-- Jun 25 -->
      <g transform="translate(200.432438 348.419106) rotate(-45) scale(0.09 -0.09)">
       <defs>
        <path id="SimHei-35" d="M 550 1325 
Q 725 650 1150 575 
Q 1575 500 1837 662 
Q 2100 825 2212 1087 
Q 2325 1350 2312 1675 
Q 2300 2000 2137 2225 
Q 1975 2450 1725 2525 
Q 1475 2600 1162 2525 
Q 850 2450 650 2175 
L 225 2225 
Q 275 2375 700 4375 
L 2675 4375 
L 2675 3925 
L 1075 3925 
Q 950 3250 825 2850 
Q 1200 3025 1525 3012 
Q 1850 3000 2150 2862 
Q 2450 2725 2587 2487 
Q 2725 2250 2787 2012 
Q 2850 1775 2837 1500 
Q 2825 1225 2725 937 
Q 2625 650 2425 462 
Q 2225 275 1937 162 
Q 1650 50 1275 75 
Q 900 100 562 350 
Q 225 600 100 1200 
L 550 1325 
z
" transform="scale(0.015625)"/>
       </defs>
       <use xlink:href="#SimHei-4a"/>
       <use xlink:href="#SimHei-75" transform="translate(50 0)"/>
       <use xlink:href="#SimHei-6e" transform="translate(100 0)"/>
       <use xlink:href="#SimHei-20" transform="translate(150 0)"/>
       <use xlink:href="#SimHei-32" transform="translate(200 0)"/>
       <use xlink:href="#SimHei-35" transform="translate(250 0)"/>
      </g>
     </g>
    </g>
    <g id="xtick_5">
     <g id="line2d_9">
      <path d="M 271.14092 317.952 
L 271.14092 7.2 
" clip-path="url(#p11fb878503)" style="fill: none; stroke-dasharray: 1.48,0.64; stroke-dashoffset: 0; stroke: #21262d; stroke-width: 0.4"/>
     </g>
     <g id="line2d_10">
      <g>
       <use xlink:href="#m4c74739562" x="271.14092" y="317.952" style="stroke: #000000; stroke-width: 0.8"/>
      </g>
     </g>
     <g id="text_5">
      <!-- Jun 29 -->
      <g transform="translate(263.384843 348.419106) rotate(-45) scale(0.09 -0.09)">
       <defs>
        <path id="SimHei-39" d="M 800 75 
Q 1350 1000 1700 1750 
Q 1075 1650 662 1912 
Q 250 2175 162 2625 
Q 75 3075 175 3437 
Q 275 3800 487 4037 
Q 700 4275 1000 4375 
Q 1300 4475 1537 4475 
Q 1775 4475 2025 4375 
Q 2275 4275 2475 4075 
Q 2675 3875 2750 3662 
Q 2825 3450 2825 3112 
Q 2825 2775 2575 2250 
Q 2325 1725 1350 75 
L 800 75 
z
M 662 2875 
Q 700 2550 937 2337 
Q 1175 2125 1450 2150 
Q 1725 2175 1887 2300 
Q 2050 2425 2200 2725 
Q 2300 3100 2250 3362 
Q 2200 3625 1987 3800 
Q 1775 3975 1525 3975 
Q 1375 4000 1137 3900 
Q 900 3800 762 3500 
Q 625 3200 662 2875 
z
" transform="scale(0.015625)"/>
       </defs>
       <use xlink:href="#SimHei-4a"/>
       <use xlink:href="#SimHei-75" transform="translate(50 0)"/>
       <use xlink:href="#SimHei-6e" transform="translate(100 0)"/>
       <use xlink:href="#SimHei-20" transform="translate(150 0)"/>
       <use xlink:href="#SimHei-32" transform="translate(200 0)"/>
       <use xlink:href="#SimHei-39" transform="translate(250 0)"/>
      </g>
     </g>
    </g>
    <g id="xtick_6">
     <g id="line2d_11">
      <path d="M 334.093325 317.952 
L 334.093325 7.2 
" clip-path="url(#p11fb878503)" style="fill: none; stroke-dasharray: 1.48,0.64; stroke-dashoffset: 0; stroke: #21262d; stroke-width: 0.4"/>
     </g>
     <g id="line2d_12">
      <g>
       <use xlink:href="#m4c74739562" x="334.093325" y="317.952" style="stroke: #000000; stroke-width: 0.8"/>
      </g>
     </g>
     <g id="text_6">
      <!-- Jul 01 -->
      <g transform="translate(326.337248 348.419106) rotate(-45) scale(0.09 -0.09)">
       <defs>
        <path id="SimHei-6c" d="M 1825 125 
L 1325 125 
L 1325 4400 
L 1825 4400 
L 1825 125 
z
" transform="scale(0.015625)"/>
        <path id="SimHei-30" d="M 225 2537 
Q 250 3200 412 3587 
Q 575 3975 875 4225 
Q 1175 4475 1612 4475 
Q 2050 4475 2375 4112 
Q 2700 3750 2800 3200 
Q 2900 2650 2862 1937 
Q 2825 1225 2612 775 
Q 2400 325 1975 150 
Q 1550 -25 1125 187 
Q 700 400 525 750 
Q 350 1100 275 1487 
Q 200 1875 225 2537 
z
M 750 2687 
Q 675 2000 800 1462 
Q 925 925 1212 700 
Q 1500 475 1800 612 
Q 2100 750 2237 1162 
Q 2375 1575 2375 2062 
Q 2375 2550 2337 2950 
Q 2300 3350 2112 3675 
Q 1925 4000 1612 4012 
Q 1300 4025 1062 3700 
Q 825 3375 750 2687 
z
" transform="scale(0.015625)"/>
       </defs>
       <use xlink:href="#SimHei-4a"/>
       <use xlink:href="#SimHei-75" transform="translate(50 0)"/>
       <use xlink:href="#SimHei-6c" transform="translate(100 0)"/>
       <use xlink:href="#SimHei-20" transform="translate(150 0)"/>
       <use xlink:href="#SimHei-30" transform="translate(200 0)"/>
       <use xlink:href="#SimHei-31" transform="translate(250 0)"/>
      </g>
     </g>
    </g>
    <g id="xtick_7">
     <g id="line2d_13">
      <path d="M 397.04573 317.952 
L 397.04573 7.2 
" clip-path="url(#p11fb878503)" style="fill: none; stroke-dasharray: 1.48,0.64; stroke-dashoffset: 0; stroke: #21262d; stroke-width: 0.4"/>
     </g>
     <g id="line2d_14">
      <g>
       <use xlink:href="#m4c74739562" x="397.04573" y="317.952" style="stroke: #000000; stroke-width: 0.8"/>
      </g>
     </g>
     <g id="text_7">
      <!-- Jul 07 -->
      <g transform="translate(389.289653 348.419106) rotate(-45) scale(0.09 -0.09)">
       <defs>
        <path id="SimHei-37" d="M 850 150 
Q 1300 2050 2425 3925 
L 275 3925 
L 275 4375 
L 2950 4375 
L 2950 3950 
Q 1775 2050 1400 150 
L 850 150 
z
" transform="scale(0.015625)"/>
       </defs>
       <use xlink:href="#SimHei-4a"/>
       <use xlink:href="#SimHei-75" transform="translate(50 0)"/>
       <use xlink:href="#SimHei-6c" transform="translate(100 0)"/>
       <use xlink:href="#SimHei-20" transform="translate(150 0)"/>
       <use xlink:href="#SimHei-30" transform="translate(200 0)"/>
       <use xlink:href="#SimHei-37" transform="translate(250 0)"/>
      </g>
     </g>
    </g>
    <g id="xtick_8">
     <g id="line2d_15">
      <path d="M 459.998135 317.952 
L 459.998135 7.2 
" clip-path="url(#p11fb878503)" style="fill: none; stroke-dasharray: 1.48,0.64; stroke-dashoffset: 0; stroke: #21262d; stroke-width: 0.4"/>
     </g>
     <g id="line2d_16">
      <g>
       <use xlink:href="#m4c74739562" x="459.998135" y="317.952" style="stroke: #000000; stroke-width: 0.8"/>
      </g>
     </g>
     <g id="text_8">
      <!-- Jul 10 -->
      <g transform="translate(452.242058 348.419106) rotate(-45) scale(0.09 -0.09)">
       <use xlink:href="#SimHei-4a"/>
       <use xlink:href="#SimHei-75" transform="translate(50 0)"/>
       <use xlink:href="#SimHei-6c" transform="translate(100 0)"/>
       <use xlink:href="#SimHei-20" transform="translate(150 0)"/>
       <use xlink:href="#SimHei-31" transform="translate(200 0)"/>
       <use xlink:href="#SimHei-30" transform="translate(250 0)"/>
      </g>
     </g>
    </g>
   </g>
   <g id="matplotlib.axis_2">
    <g id="ytick_1">
     <g id="line2d_17">
      <path d="M 8.566439 317.475231 
L 508.534439 317.475231 
" clip-path="url(#p11fb878503)" style="fill: none; stroke-dasharray: 1.48,0.64; stroke-dashoffset: 0; stroke: #21262d; stroke-width: 0.4"/>
     </g>
     <g id="line2d_18">
      <defs>
       <path id="m1839ca9b6a" d="M 0 0 
L 3.5 0 
" style="stroke: #000000; stroke-width: 0.8"/>
      </defs>
      <g>
       <use xlink:href="#m1839ca9b6a" x="508.534439" y="317.475231" style="stroke: #000000; stroke-width: 0.8"/>
      </g>
     </g>
     <g id="text_9">
      <!-- 25000 -->
      <g transform="translate(515.534439 320.568981) scale(0.09 -0.09)">
       <use xlink:href="#SimHei-32"/>
       <use xlink:href="#SimHei-35" transform="translate(50 0)"/>
       <use xlink:href="#SimHei-30" transform="translate(100 0)"/>
       <use xlink:href="#SimHei-30" transform="translate(150 0)"/>
       <use xlink:href="#SimHei-30" transform="translate(200 0)"/>
      </g>
     </g>
    </g>
    <g id="ytick_2">
     <g id="line2d_19">
      <path d="M 8.566439 274.533076 
L 508.534439 274.533076 
" clip-path="url(#p11fb878503)" style="fill: none; stroke-dasharray: 1.48,0.64; stroke-dashoffset: 0; stroke: #21262d; stroke-width: 0.4"/>
     </g>
     <g id="line2d_20">
      <g>
       <use xlink:href="#m1839ca9b6a" x="508.534439" y="274.533076" style="stroke: #000000; stroke-width: 0.8"/>
      </g>
     </g>
     <g id="text_10">
      <!-- 25250 -->
      <g transform="translate(515.534439 277.626826) scale(0.09 -0.09)">
       <use xlink:href="#SimHei-32"/>
       <use xlink:href="#SimHei-35" transform="translate(50 0)"/>
       <use xlink:href="#SimHei-32" transform="translate(100 0)"/>
       <use xlink:href="#SimHei-35" transform="translate(150 0)"/>
       <use xlink:href="#SimHei-30" transform="translate(200 0)"/>
      </g>
     </g>
    </g>
    <g id="ytick_3">
     <g id="line2d_21">
      <path d="M 8.566439 231.590921 
L 508.534439 231.590921 
" clip-path="url(#p11fb878503)" style="fill: none; stroke-dasharray: 1.48,0.64; stroke-dashoffset: 0; stroke: #21262d; stroke-width: 0.4"/>
     </g>
     <g id="line2d_22">
      <g>
       <use xlink:href="#m1839ca9b6a" x="508.534439" y="231.590921" style="stroke: #000000; stroke-width: 0.8"/>
      </g>
     </g>
     <g id="text_11">
      <!-- 25500 -->
      <g transform="translate(515.534439 234.684671) scale(0.09 -0.09)">
       <use xlink:href="#SimHei-32"/>
       <use xlink:href="#SimHei-35" transform="translate(50 0)"/>
       <use xlink:href="#SimHei-35" transform="translate(100 0)"/>
       <use xlink:href="#SimHei-30" transform="translate(150 0)"/>
       <use xlink:href="#SimHei-30" transform="translate(200 0)"/>
      </g>
     </g>
    </g>
    <g id="ytick_4">
     <g id="line2d_23">
      <path d="M 8.566439 188.648766 
L 508.534439 188.648766 
" clip-path="url(#p11fb878503)" style="fill: none; stroke-dasharray: 1.48,0.64; stroke-dashoffset: 0; stroke: #21262d; stroke-width: 0.4"/>
     </g>
     <g id="line2d_24">
      <g>
       <use xlink:href="#m1839ca9b6a" x="508.534439" y="188.648766" style="stroke: #000000; stroke-width: 0.8"/>
      </g>
     </g>
     <g id="text_12">
      <!-- 25750 -->
      <g transform="translate(515.534439 191.742516) scale(0.09 -0.09)">
       <use xlink:href="#SimHei-32"/>
       <use xlink:href="#SimHei-35" transform="translate(50 0)"/>
       <use xlink:href="#SimHei-37" transform="translate(100 0)"/>
       <use xlink:href="#SimHei-35" transform="translate(150 0)"/>
       <use xlink:href="#SimHei-30" transform="translate(200 0)"/>
      </g>
     </g>
    </g>
    <g id="ytick_5">
     <g id="line2d_25">
      <path d="M 8.566439 145.70661 
L 508.534439 145.70661 
" clip-path="url(#p11fb878503)" style="fill: none; stroke-dasharray: 1.48,0.64; stroke-dashoffset: 0; stroke: #21262d; stroke-width: 0.4"/>
     </g>
     <g id="line2d_26">
      <g>
       <use xlink:href="#m1839ca9b6a" x="508.534439" y="145.70661" style="stroke: #000000; stroke-width: 0.8"/>
      </g>
     </g>
     <g id="text_13">
      <!-- 26000 -->
      <g transform="translate(515.534439 148.80036) scale(0.09 -0.09)">
       <use xlink:href="#SimHei-32"/>
       <use xlink:href="#SimHei-36" transform="translate(50 0)"/>
       <use xlink:href="#SimHei-30" transform="translate(100 0)"/>
       <use xlink:href="#SimHei-30" transform="translate(150 0)"/>
       <use xlink:href="#SimHei-30" transform="translate(200 0)"/>
      </g>
     </g>
    </g>
    <g id="ytick_6">
     <g id="line2d_27">
      <path d="M 8.566439 102.764455 
L 508.534439 102.764455 
" clip-path="url(#p11fb878503)" style="fill: none; stroke-dasharray: 1.48,0.64; stroke-dashoffset: 0; stroke: #21262d; stroke-width: 0.4"/>
     </g>
     <g id="line2d_28">
      <g>
       <use xlink:href="#m1839ca9b6a" x="508.534439" y="102.764455" style="stroke: #000000; stroke-width: 0.8"/>
      </g>
     </g>
     <g id="text_14">
      <!-- 26250 -->
      <g transform="translate(515.534439 105.858205) scale(0.09 -0.09)">
       <use xlink:href="#SimHei-32"/>
       <use xlink:href="#SimHei-36" transform="translate(50 0)"/>
       <use xlink:href="#SimHei-32" transform="translate(100 0)"/>
       <use xlink:href="#SimHei-35" transform="translate(150 0)"/>
       <use xlink:href="#SimHei-30" transform="translate(200 0)"/>
      </g>
     </g>
    </g>
    <g id="ytick_7">
     <g id="line2d_29">
      <path d="M 8.566439 59.8223 
L 508.534439 59.8223 
" clip-path="url(#p11fb878503)" style="fill: none; stroke-dasharray: 1.48,0.64; stroke-dashoffset: 0; stroke: #21262d; stroke-width: 0.4"/>
     </g>
     <g id="line2d_30">
      <g>
       <use xlink:href="#m1839ca9b6a" x="508.534439" y="59.8223" style="stroke: #000000; stroke-width: 0.8"/>
      </g>
     </g>
     <g id="text_15">
      <!-- 26500 -->
      <g transform="translate(515.534439 62.91605) scale(0.09 -0.09)">
       <use xlink:href="#SimHei-32"/>
       <use xlink:href="#SimHei-36" transform="translate(50 0)"/>
       <use xlink:href="#SimHei-35" transform="translate(100 0)"/>
       <use xlink:href="#SimHei-30" transform="translate(150 0)"/>
       <use xlink:href="#SimHei-30" transform="translate(200 0)"/>
      </g>
     </g>
    </g>
    <g id="ytick_8">
     <g id="line2d_31">
      <path d="M 8.566439 16.880145 
L 508.534439 16.880145 
" clip-path="url(#p11fb878503)" style="fill: none; stroke-dasharray: 1.48,0.64; stroke-dashoffset: 0; stroke: #21262d; stroke-width: 0.4"/>
     </g>
     <g id="line2d_32">
      <g>
       <use xlink:href="#m1839ca9b6a" x="508.534439" y="16.880145" style="stroke: #000000; stroke-width: 0.8"/>
      </g>
     </g>
     <g id="text_16">
      <!-- 26750 -->
      <g transform="translate(515.534439 19.973895) scale(0.09 -0.09)">
       <use xlink:href="#SimHei-32"/>
       <use xlink:href="#SimHei-36" transform="translate(50 0)"/>
       <use xlink:href="#SimHei-37" transform="translate(100 0)"/>
       <use xlink:href="#SimHei-35" transform="translate(150 0)"/>
       <use xlink:href="#SimHei-30" transform="translate(200 0)"/>
      </g>
     </g>
    </g>
    <g id="text_17">
     <!-- 价格 -->
     <g transform="translate(550.556314 173.376) rotate(-90) scale(0.108 -0.108)">
      <defs>
       <path id="SimHei-4ef7" d="M 2200 4975 
Q 2050 4725 1650 3775 
L 1650 450 
Q 1650 -225 1675 -650 
L 1175 -650 
Q 1175 -225 1200 450 
L 1200 2975 
Q 900 2425 650 2100 
Q 525 2275 225 2450 
Q 750 3025 1125 3800 
Q 1500 4575 1625 5175 
Q 1950 5025 2200 4975 
z
M 4175 4700 
Q 4850 3525 6150 2950 
Q 5925 2750 5775 2500 
Q 4725 3100 3950 4300 
Q 3300 3125 2250 2350 
Q 2125 2525 1900 2725 
Q 2825 3325 3250 4050 
Q 3675 4775 3750 5150 
Q 4150 4950 4325 4900 
L 4175 4700 
z
M 3475 2650 
Q 3400 2075 3325 1087 
Q 3250 100 2325 -675 
Q 2175 -450 1925 -300 
Q 2850 350 2912 1262 
Q 2975 2175 2950 2700 
Q 3275 2650 3475 2650 
z
M 5075 2700 
Q 5050 2150 5050 1725 
L 5050 150 
Q 5050 -225 5075 -650 
L 4550 -650 
Q 4575 -225 4575 175 
L 4575 1875 
Q 4575 2150 4550 2700 
L 5075 2700 
z
" transform="scale(0.015625)"/>
       <path id="SimHei-683c" d="M 4075 4875 
Q 3975 4750 3750 4350 
L 5625 4350 
Q 5450 3850 5212 3437 
Q 4975 3025 4650 2650 
Q 4950 2450 5412 2287 
Q 5875 2125 6150 2100 
Q 5975 1900 5875 1600 
Q 5550 1725 5125 1912 
Q 4700 2100 4300 2400 
Q 3925 2125 3537 1937 
Q 3150 1750 2575 1550 
Q 2475 1775 2300 1925 
Q 2825 2050 3262 2250 
Q 3700 2450 3975 2675 
Q 3625 3050 3325 3575 
Q 3175 3350 2875 2950 
Q 2700 3100 2475 3200 
Q 2825 3550 3112 4075 
Q 3400 4600 3550 5100 
Q 3775 4950 4075 4875 
z
M 5575 1650 
Q 5550 1350 5550 575 
Q 5550 -200 5575 -575 
L 5050 -575 
L 5050 -175 
L 3500 -175 
L 3500 -600 
L 2975 -600 
Q 3000 -200 3000 550 
Q 3000 1325 2975 1650 
L 5575 1650 
z
M 1850 5100 
Q 1825 4775 1825 4475 
L 1825 3825 
Q 2300 3825 2525 3850 
L 2525 3400 
Q 2300 3425 1825 3425 
L 1825 2725 
Q 1950 2800 2125 2950 
Q 2350 2600 2550 2200 
Q 2350 2075 2175 1950 
Q 1975 2375 1825 2625 
L 1825 275 
Q 1825 -275 1850 -625 
L 1350 -625 
Q 1375 -275 1375 275 
L 1375 2425 
Q 1150 1850 625 850 
Q 475 1025 250 1150 
Q 650 1775 900 2375 
Q 1150 2975 1250 3425 
Q 900 3425 475 3400 
L 475 3850 
Q 925 3825 1375 3825 
L 1375 4475 
Q 1375 4750 1350 5100 
L 1850 5100 
z
M 5050 200 
L 5050 1275 
L 3500 1275 
L 3500 200 
L 5050 200 
z
M 4300 2925 
Q 4675 3300 4975 3975 
L 3550 3975 
Q 3850 3350 4300 2925 
z
" transform="scale(0.015625)"/>
      </defs>
      <use xlink:href="#SimHei-4ef7"/>
      <use xlink:href="#SimHei-683c" transform="translate(100 0)"/>
     </g>
    </g>
   </g>
   <g id="PolyCollection_1">
    <path d="M 11.147488 182.918672 
L 11.147488 164.800437 
L 27.515113 164.800437 
L 27.515113 182.918672 
z
" clip-path="url(#p11fb878503)" style="fill: #3fb950; fill-opacity: 0.9; stroke: #3fb950"/>
    <path d="M 36.32845 68.88645 
L 36.32845 28.227274 
L 52.696075 28.227274 
L 52.696075 68.88645 
z
" clip-path="url(#p11fb878503)" style="fill: #3fb950; fill-opacity: 0.9; stroke: #3fb950"/>
    <path d="M 61.509412 34.062039 
L 61.509412 81.063234 
L 77.877037 81.063234 
L 77.877037 34.062039 
z
" clip-path="url(#p11fb878503)" style="fill: #f85149; fill-opacity: 0.9; stroke: #f85149"/>
    <path d="M 86.690374 60.883776 
L 86.690374 141.986075 
L 103.057999 141.986075 
L 103.057999 60.883776 
z
" clip-path="url(#p11fb878503)" style="fill: #f85149; fill-opacity: 0.9; stroke: #f85149"/>
    <path d="M 111.871336 75.175127 
L 111.871336 56.742542 
L 128.238961 56.742542 
L 128.238961 75.175127 
z
" clip-path="url(#p11fb878503)" style="fill: #3fb950; fill-opacity: 0.9; stroke: #3fb950"/>
    <path d="M 137.052298 62.689024 
L 137.052298 117.090025 
L 153.419923 117.090025 
L 153.419923 62.689024 
z
" clip-path="url(#p11fb878503)" style="fill: #f85149; fill-opacity: 0.9; stroke: #f85149"/>
    <path d="M 162.23326 223.043755 
L 162.23326 216.640341 
L 178.600885 216.640341 
L 178.600885 223.043755 
z
" clip-path="url(#p11fb878503)" style="fill: #3fb950; fill-opacity: 0.9; stroke: #3fb950"/>
    <path d="M 187.414222 218.08662 
L 187.414222 235.603329 
L 203.781847 235.603329 
L 203.781847 218.08662 
z
" clip-path="url(#p11fb878503)" style="fill: #f85149; fill-opacity: 0.9; stroke: #f85149"/>
    <path d="M 212.595184 192.980891 
L 212.595184 255.879071 
L 228.962809 255.879071 
L 228.962809 192.980891 
z
" clip-path="url(#p11fb878503)" style="fill: #f85149; fill-opacity: 0.9; stroke: #f85149"/>
    <path d="M 237.776146 299.369074 
L 237.776146 266.353602 
L 254.143771 266.353602 
L 254.143771 299.369074 
z
" clip-path="url(#p11fb878503)" style="fill: #3fb950; fill-opacity: 0.9; stroke: #3fb950"/>
    <path d="M 262.957108 231.231951 
L 262.957108 176.600807 
L 279.324733 176.600807 
L 279.324733 231.231951 
z
" clip-path="url(#p11fb878503)" style="fill: #3fb950; fill-opacity: 0.9; stroke: #3fb950"/>
    <path d="M 288.13807 175.857036 
L 288.13807 108.9961 
L 304.505695 108.9961 
L 304.505695 175.857036 
z
" clip-path="url(#p11fb878503)" style="fill: #3fb950; fill-opacity: 0.9; stroke: #3fb950"/>
    <path d="M 313.319032 138.920072 
L 313.319032 138.830833 
L 329.686657 138.830833 
L 329.686657 138.920072 
z
" clip-path="url(#p11fb878503)" style="fill: #3fb950; fill-opacity: 0.9; stroke: #3fb950"/>
    <path d="M 338.499994 137.568066 
L 338.499994 174.448667 
L 354.867619 174.448667 
L 354.867619 137.568066 
z
" clip-path="url(#p11fb878503)" style="fill: #f85149; fill-opacity: 0.9; stroke: #f85149"/>
    <path d="M 363.680956 145.773708 
L 363.680956 124.895098 
L 380.048581 124.895098 
L 380.048581 145.773708 
z
" clip-path="url(#p11fb878503)" style="fill: #3fb950; fill-opacity: 0.9; stroke: #3fb950"/>
    <path d="M 388.861918 152.554878 
L 388.861918 176.850073 
L 405.229543 176.850073 
L 405.229543 152.554878 
z
" clip-path="url(#p11fb878503)" style="fill: #f85149; fill-opacity: 0.9; stroke: #f85149"/>
    <path d="M 414.04288 196.436728 
L 414.04288 167.924814 
L 430.410505 167.924814 
L 430.410505 196.436728 
z
" clip-path="url(#p11fb878503)" style="fill: #3fb950; fill-opacity: 0.9; stroke: #3fb950"/>
    <path d="M 439.223842 159.738295 
L 439.223842 110.169293 
L 455.591467 110.169293 
L 455.591467 159.738295 
z
" clip-path="url(#p11fb878503)" style="fill: #3fb950; fill-opacity: 0.9; stroke: #3fb950"/>
    <path d="M 464.404804 115.554508 
L 464.404804 97.334956 
L 480.772429 97.334956 
L 480.772429 115.554508 
z
" clip-path="url(#p11fb878503)" style="fill: #3fb950; fill-opacity: 0.9; stroke: #3fb950"/>
    <path d="M 489.585766 130.53763 
L 489.585766 167.490361 
L 505.953391 167.490361 
L 505.953391 130.53763 
z
" clip-path="url(#p11fb878503)" style="fill: #f85149; fill-opacity: 0.9; stroke: #f85149"/>
   </g>
   <g id="LineCollection_1">
    <path d="M 19.331301 214.424459 
L 19.331301 182.918672 
" clip-path="url(#p11fb878503)" style="fill: none; stroke: #3fb950"/>
    <path d="M 44.512263 70.339773 
L 44.512263 68.88645 
" clip-path="url(#p11fb878503)" style="fill: none; stroke: #3fb950"/>
    <path d="M 69.693225 82.256892 
L 69.693225 81.063234 
" clip-path="url(#p11fb878503)" style="fill: none; stroke: #f85149"/>
    <path d="M 94.874187 152.506903 
L 94.874187 141.986075 
" clip-path="url(#p11fb878503)" style="fill: none; stroke: #f85149"/>
    <path d="M 120.055149 113.295683 
L 120.055149 75.175127 
" clip-path="url(#p11fb878503)" style="fill: none; stroke: #3fb950"/>
    <path d="M 145.236111 124.153003 
L 145.236111 117.090025 
" clip-path="url(#p11fb878503)" style="fill: none; stroke: #f85149"/>
    <path d="M 170.417073 229.313309 
L 170.417073 223.043755 
" clip-path="url(#p11fb878503)" style="fill: none; stroke: #3fb950"/>
    <path d="M 195.598035 256.555745 
L 195.598035 235.603329 
" clip-path="url(#p11fb878503)" style="fill: none; stroke: #f85149"/>
    <path d="M 220.778997 296.273884 
L 220.778997 255.879071 
" clip-path="url(#p11fb878503)" style="fill: none; stroke: #f85149"/>
    <path d="M 245.959958 314.905412 
L 245.959958 299.369074 
" clip-path="url(#p11fb878503)" style="fill: none; stroke: #3fb950"/>
    <path d="M 271.14092 267.703596 
L 271.14092 231.231951 
" clip-path="url(#p11fb878503)" style="fill: none; stroke: #3fb950"/>
    <path d="M 296.321882 178.675786 
L 296.321882 175.857036 
" clip-path="url(#p11fb878503)" style="fill: none; stroke: #3fb950"/>
    <path d="M 321.502844 153.528792 
L 321.502844 138.920072 
" clip-path="url(#p11fb878503)" style="fill: none; stroke: #3fb950"/>
    <path d="M 346.683806 209.173438 
L 346.683806 174.448667 
" clip-path="url(#p11fb878503)" style="fill: none; stroke: #f85149"/>
    <path d="M 371.864768 151.986565 
L 371.864768 145.773708 
" clip-path="url(#p11fb878503)" style="fill: none; stroke: #3fb950"/>
    <path d="M 397.04573 199.959662 
L 397.04573 176.850073 
" clip-path="url(#p11fb878503)" style="fill: none; stroke: #f85149"/>
    <path d="M 422.226692 227.045762 
L 422.226692 196.436728 
" clip-path="url(#p11fb878503)" style="fill: none; stroke: #3fb950"/>
    <path d="M 447.407654 175.620183 
L 447.407654 159.738295 
" clip-path="url(#p11fb878503)" style="fill: none; stroke: #3fb950"/>
    <path d="M 472.588616 144.076486 
L 472.588616 115.554508 
" clip-path="url(#p11fb878503)" style="fill: none; stroke: #3fb950"/>
    <path d="M 497.769578 176.264315 
L 497.769578 167.490361 
" clip-path="url(#p11fb878503)" style="fill: none; stroke: #f85149"/>
    <path d="M 19.331301 143.935582 
L 19.331301 164.800437 
" clip-path="url(#p11fb878503)" style="fill: none; stroke: #3fb950"/>
    <path d="M 44.512263 27.605284 
L 44.512263 28.227274 
" clip-path="url(#p11fb878503)" style="fill: none; stroke: #3fb950"/>
    <path d="M 69.693225 10.246588 
L 69.693225 34.062039 
" clip-path="url(#p11fb878503)" style="fill: none; stroke: #f85149"/>
    <path d="M 94.874187 57.838238 
L 94.874187 60.883776 
" clip-path="url(#p11fb878503)" style="fill: none; stroke: #f85149"/>
    <path d="M 120.055149 49.560802 
L 120.055149 56.742542 
" clip-path="url(#p11fb878503)" style="fill: none; stroke: #3fb950"/>
    <path d="M 145.236111 49.323949 
L 145.236111 62.689024 
" clip-path="url(#p11fb878503)" style="fill: none; stroke: #f85149"/>
    <path d="M 170.417073 165.877346 
L 170.417073 216.640341 
" clip-path="url(#p11fb878503)" style="fill: none; stroke: #3fb950"/>
    <path d="M 195.598035 173.093305 
L 195.598035 218.08662 
" clip-path="url(#p11fb878503)" style="fill: none; stroke: #f85149"/>
    <path d="M 220.778997 192.980891 
L 220.778997 192.980891 
" clip-path="url(#p11fb878503)" style="fill: none; stroke: #f85149"/>
    <path d="M 245.959958 233.071419 
L 245.959958 266.353602 
" clip-path="url(#p11fb878503)" style="fill: none; stroke: #3fb950"/>
    <path d="M 271.14092 174.16015 
L 271.14092 176.600807 
" clip-path="url(#p11fb878503)" style="fill: none; stroke: #3fb950"/>
    <path d="M 296.321882 102.24244 
L 296.321882 108.9961 
" clip-path="url(#p11fb878503)" style="fill: none; stroke: #3fb950"/>
    <path d="M 321.502844 104.815279 
L 321.502844 138.830833 
" clip-path="url(#p11fb878503)" style="fill: none; stroke: #3fb950"/>
    <path d="M 346.683806 100.859568 
L 346.683806 137.568066 
" clip-path="url(#p11fb878503)" style="fill: none; stroke: #f85149"/>
    <path d="M 371.864768 109.676465 
L 371.864768 124.895098 
" clip-path="url(#p11fb878503)" style="fill: none; stroke: #3fb950"/>
    <path d="M 397.04573 143.985569 
L 397.04573 152.554878 
" clip-path="url(#p11fb878503)" style="fill: none; stroke: #f85149"/>
    <path d="M 422.226692 163.55847 
L 422.226692 167.924814 
" clip-path="url(#p11fb878503)" style="fill: none; stroke: #3fb950"/>
    <path d="M 447.407654 108.635453 
L 447.407654 110.169293 
" clip-path="url(#p11fb878503)" style="fill: none; stroke: #3fb950"/>
    <path d="M 472.588616 93.911662 
L 472.588616 97.334956 
" clip-path="url(#p11fb878503)" style="fill: none; stroke: #3fb950"/>
    <path d="M 497.769578 121.767365 
L 497.769578 130.53763 
" clip-path="url(#p11fb878503)" style="fill: none; stroke: #f85149"/>
   </g>
   <g id="patch_3">
    <path d="M 8.566439 317.952 
L 8.566439 7.2 
" style="fill: none; stroke: #30363d; stroke-width: 1.5; stroke-linejoin: miter; stroke-linecap: square"/>
   </g>
   <g id="patch_4">
    <path d="M 508.534439 317.952 
L 508.534439 7.2 
" style="fill: none; stroke: #30363d; stroke-width: 1.5; stroke-linejoin: miter; stroke-linecap: square"/>
   </g>
   <g id="patch_5">
    <path d="M 8.566439 317.952 
L 508.534439 317.952 
" style="fill: none; stroke: #30363d; stroke-width: 1.5; stroke-linejoin: miter; stroke-linecap: square"/>
   </g>
   <g id="patch_6">
    <path d="M 8.566439 7.2 
L 508.534439 7.2 
" style="fill: none; stroke: #30363d; stroke-width: 1.5; stroke-linejoin: miter; stroke-linecap: square"/>
   </g>
  </g>
  <g id="text_18">
   <!-- ^IXIC -->
   <g transform="translate(218.158439 34.812) scale(0.1296 -0.1296)">
    <defs>
     <path id="SimHei-5e" d="M 2750 4125 
L 2300 4125 
L 1550 4750 
L 800 4125 
L 350 4125 
L 1250 5150 
L 1850 5150 
L 2750 4125 
z
" transform="scale(0.015625)"/>
     <path id="SimHei-49" d="M 1850 125 
L 1275 125 
L 1275 4400 
L 1850 4400 
L 1850 125 
z
" transform="scale(0.015625)"/>
     <path id="SimHei-58" d="M 3000 125 
L 2400 125 
L 1550 1875 
L 700 125 
L 100 125 
L 1275 2375 
L 225 4400 
L 825 4400 
L 1550 2850 
L 2275 4400 
L 2875 4400 
L 1825 2375 
L 3000 125 
z
" transform="scale(0.015625)"/>
     <path id="SimHei-43" d="M 2975 1825 
Q 2950 875 2575 475 
Q 2200 75 1675 75 
Q 1075 75 650 562 
Q 225 1050 225 2125 
Q 225 3300 637 3875 
Q 1050 4450 1700 4450 
Q 2250 4450 2612 4037 
Q 2975 3625 2950 2875 
L 2400 2875 
Q 2400 3425 2225 3700 
Q 2050 3975 1700 3975 
Q 1300 3975 1062 3562 
Q 825 3150 825 2175 
Q 825 1275 1062 912 
Q 1300 550 1675 550 
Q 1950 550 2175 812 
Q 2400 1075 2400 1825 
L 2975 1825 
z
" transform="scale(0.015625)"/>
    </defs>
    <use xlink:href="#SimHei-5e"/>
    <use xlink:href="#SimHei-49" transform="translate(50 0)"/>
    <use xlink:href="#SimHei-58" transform="translate(100 0)"/>
    <use xlink:href="#SimHei-49" transform="translate(150 0)"/>
    <use xlink:href="#SimHei-43" transform="translate(200 0)"/>
   </g>
  </g>
 </g>
 <defs>
  <clipPath id="p11fb878503">
   <rect x="8.566439" y="7.2" width="499.968" height="310.752"/>
  </clipPath>
 </defs>
</svg>
