<?xml version="1.0" encoding="utf-8" standalone="no"?>
<!DOCTYPE svg PUBLIC "-//W3C//DTD SVG 1.1//EN"
  "http://www.w3.org/Graphics/SVG/1.1/DTD/svg11.dtd">
<svg xmlns:xlink="http://www.w3.org/1999/xlink" width="1061.68pt" height="595.606769pt" viewBox="0 0 1061.68 595.606769" xmlns="http://www.w3.org/2000/svg" version="1.1">
 <metadata>
  <rdf:RDF xmlns:dc="http://purl.org/dc/elements/1.1/" xmlns:cc="http://creativecommons.org/ns#" xmlns:rdf="http://www.w3.org/1999/02/22-rdf-syntax-ns#">
   <cc:Work>
    <dc:type rdf:resource="http://purl.org/dc/dcmitype/StillImage"/>
    <dc:date>2026-07-10T22:31:59.419584</dc:date>
    <dc:format>image/svg+xml</dc:format>
    <dc:creator>
     <cc:Agent>
      <dc:title>Matplotlib v3.10.9, https://matplotlib.org/</dc:title>
     </cc:Agent>
    </dc:creator>
   </cc:Work>
  </rdf:RDF>
 </metadata>
 <defs>
  <style type="text/css">*{stroke-linejoin: round; stroke-linecap: butt}</style>
 </defs>
 <g id="figure_1">
  <g id="patch_1">
   <path d="M 0 595.606769 
L 1061.68 595.606769 
L 1061.68 0 
L 0 0 
z
" style="fill: #0d1117"/>
  </g>
  <g id="axes_1">
   <g id="patch_2">
    <path d="M 29.2 556.870312 
L 1054.48 556.870312 
L 1054.48 31.270312 
L 29.2 31.270312 
z
" style="fill: #161b22"/>
   </g>
   <g id="matplotlib.axis_1">
    <g id="xtick_1">
     <g id="line2d_1">
      <path d="M 63.659366 556.870312 
L 63.659366 31.270312 
" clip-path="url(#peb16779f9a)" style="fill: none; stroke-dasharray: 2.96,1.28; stroke-dashoffset: 0; stroke: #21262d; stroke-opacity: 0.4; stroke-width: 0.8"/>
     </g>
     <g id="line2d_2">
      <defs>
       <path id="m8e4f47b147" d="M 0 0 
L 0 3.5 
" style="stroke: #c9d1d9; stroke-width: 0.8"/>
      </defs>
      <g>
       <use xlink:href="#m8e4f47b147" x="63.659366" y="556.870312" style="fill: #c9d1d9; stroke: #c9d1d9; stroke-width: 0.8"/>
      </g>
     </g>
     <g id="text_1">
      <!-- 2025-09 -->
      <g style="fill: #c9d1d9" transform="translate(32.723477 587.324237) rotate(-30) scale(0.1 -0.1)">
       <defs>
        <path id="SimHei-32" d="M 300 250 
Q 325 625 650 925 
Q 975 1225 1475 1862 
Q 1975 2500 2125 2850 
Q 2275 3200 2237 3450 
Q 2200 3700 2000 3862 
Q 1800 4025 1537 4000 
Q 1275 3975 1037 3800 
Q 800 3625 675 3275 
L 200 3350 
Q 400 3925 712 4187 
Q 1025 4450 1450 4475 
Q 1700 4500 1900 4462 
Q 2100 4425 2312 4287 
Q 2525 4150 2662 3875 
Q 2800 3600 2762 3212 
Q 2725 2825 2375 2287 
Q 2025 1750 1025 600 
L 2825 600 
L 2825 150 
L 300 150 
L 300 250 
z
" transform="scale(0.015625)"/>
        <path id="SimHei-30" d="M 225 2537 
Q 250 3200 412 3587 
Q 575 3975 875 4225 
Q 1175 4475 1612 4475 
Q 2050 4475 2375 4112 
Q 2700 3750 2800 3200 
Q 2900 2650 2862 1937 
Q 2825 1225 2612 775 
Q 2400 325 1975 150 
Q 1550 -25 1125 187 
Q 700 400 525 750 
Q 350 1100 275 1487 
Q 200 1875 225 2537 
z
M 750 2687 
Q 675 2000 800 1462 
Q 925 925 1212 700 
Q 1500 475 1800 612 
Q 2100 750 2237 1162 
Q 2375 1575 2375 2062 
Q 2375 2550 2337 2950 
Q 2300 3350 2112 3675 
Q 1925 4000 1612 4012 
Q 1300 4025 1062 3700 
Q 825 3375 750 2687 
z
" transform="scale(0.015625)"/>
        <path id="SimHei-35" d="M 550 1325 
Q 725 650 1150 575 
Q 1575 500 1837 662 
Q 2100 825 2212 1087 
Q 2325 1350 2312 1675 
Q 2300 2000 2137 2225 
Q 1975 2450 1725 2525 
Q 1475 2600 1162 2525 
Q 850 2450 650 2175 
L 225 2225 
Q 275 2375 700 4375 
L 2675 4375 
L 2675 3925 
L 1075 3925 
Q 950 3250 825 2850 
Q 1200 3025 1525 3012 
Q 1850 3000 2150 2862 
Q 2450 2725 2587 2487 
Q 2725 2250 2787 2012 
Q 2850 1775 2837 1500 
Q 2825 1225 2725 937 
Q 2625 650 2425 462 
Q 2225 275 1937 162 
Q 1650 50 1275 75 
Q 900 100 562 350 
Q 225 600 100 1200 
L 550 1325 
z
" transform="scale(0.015625)"/>
        <path id="SimHei-2d" d="M 2975 2125 
L 125 2125 
L 125 2525 
L 2975 2525 
L 2975 2125 
z
" transform="scale(0.015625)"/>
        <path id="SimHei-39" d="M 800 75 
Q 1350 1000 1700 1750 
Q 1075 1650 662 1912 
Q 250 2175 162 2625 
Q 75 3075 175 3437 
Q 275 3800 487 4037 
Q 700 4275 1000 4375 
Q 1300 4475 1537 4475 
Q 1775 4475 2025 4375 
Q 2275 4275 2475 4075 
Q 2675 3875 2750 3662 
Q 2825 3450 2825 3112 
Q 2825 2775 2575 2250 
Q 2325 1725 1350 75 
L 800 75 
z
M 662 2875 
Q 700 2550 937 2337 
Q 1175 2125 1450 2150 
Q 1725 2175 1887 2300 
Q 2050 2425 2200 2725 
Q 2300 3100 2250 3362 
Q 2200 3625 1987 3800 
Q 1775 3975 1525 3975 
Q 1375 4000 1137 3900 
Q 900 3800 762 3500 
Q 625 3200 662 2875 
z
" transform="scale(0.015625)"/>
       </defs>
       <use xlink:href="#SimHei-32"/>
       <use xlink:href="#SimHei-30" transform="translate(50 0)"/>
       <use xlink:href="#SimHei-32" transform="translate(100 0)"/>
       <use xlink:href="#SimHei-35" transform="translate(150 0)"/>
       <use xlink:href="#SimHei-2d" transform="translate(200 0)"/>
       <use xlink:href="#SimHei-30" transform="translate(250 0)"/>
       <use xlink:href="#SimHei-39" transform="translate(300 0)"/>
      </g>
     </g>
    </g>
    <g id="xtick_2">
     <g id="line2d_3">
      <path d="M 154.741392 556.870312 
L 154.741392 31.270312 
" clip-path="url(#peb16779f9a)" style="fill: none; stroke-dasharray: 2.96,1.28; stroke-dashoffset: 0; stroke: #21262d; stroke-opacity: 0.4; stroke-width: 0.8"/>
     </g>
     <g id="line2d_4">
      <g>
       <use xlink:href="#m8e4f47b147" x="154.741392" y="556.870312" style="fill: #c9d1d9; stroke: #c9d1d9; stroke-width: 0.8"/>
      </g>
     </g>
     <g id="text_2">
      <!-- 2025-10 -->
      <g style="fill: #c9d1d9" transform="translate(123.805503 587.324237) rotate(-30) scale(0.1 -0.1)">
       <defs>
        <path id="SimHei-31" d="M 1400 3600 
Q 1075 3275 575 2975 
L 575 3450 
Q 1200 3875 1600 4450 
L 1900 4450 
L 1900 150 
L 1400 150 
L 1400 3600 
z
" transform="scale(0.015625)"/>
       </defs>
       <use xlink:href="#SimHei-32"/>
       <use xlink:href="#SimHei-30" transform="translate(50 0)"/>
       <use xlink:href="#SimHei-32" transform="translate(100 0)"/>
       <use xlink:href="#SimHei-35" transform="translate(150 0)"/>
       <use xlink:href="#SimHei-2d" transform="translate(200 0)"/>
       <use xlink:href="#SimHei-31" transform="translate(250 0)"/>
       <use xlink:href="#SimHei-30" transform="translate(300 0)"/>
      </g>
     </g>
    </g>
    <g id="xtick_3">
     <g id="line2d_5">
      <path d="M 248.859485 556.870312 
L 248.859485 31.270312 
" clip-path="url(#peb16779f9a)" style="fill: none; stroke-dasharray: 2.96,1.28; stroke-dashoffset: 0; stroke: #21262d; stroke-opacity: 0.4; stroke-width: 0.8"/>
     </g>
     <g id="line2d_6">
      <g>
       <use xlink:href="#m8e4f47b147" x="248.859485" y="556.870312" style="fill: #c9d1d9; stroke: #c9d1d9; stroke-width: 0.8"/>
      </g>
     </g>
     <g id="text_3">
      <!-- 2025-11 -->
      <g style="fill: #c9d1d9" transform="translate(217.923596 587.324237) rotate(-30) scale(0.1 -0.1)">
       <use xlink:href="#SimHei-32"/>
       <use xlink:href="#SimHei-30" transform="translate(50 0)"/>
       <use xlink:href="#SimHei-32" transform="translate(100 0)"/>
       <use xlink:href="#SimHei-35" transform="translate(150 0)"/>
       <use xlink:href="#SimHei-2d" transform="translate(200 0)"/>
       <use xlink:href="#SimHei-31" transform="translate(250 0)"/>
       <use xlink:href="#SimHei-31" transform="translate(300 0)"/>
      </g>
     </g>
    </g>
    <g id="xtick_4">
     <g id="line2d_7">
      <path d="M 339.94151 556.870312 
L 339.94151 31.270312 
" clip-path="url(#peb16779f9a)" style="fill: none; stroke-dasharray: 2.96,1.28; stroke-dashoffset: 0; stroke: #21262d; stroke-opacity: 0.4; stroke-width: 0.8"/>
     </g>
     <g id="line2d_8">
      <g>
       <use xlink:href="#m8e4f47b147" x="339.94151" y="556.870312" style="fill: #c9d1d9; stroke: #c9d1d9; stroke-width: 0.8"/>
      </g>
     </g>
     <g id="text_4">
      <!-- 2025-12 -->
      <g style="fill: #c9d1d9" transform="translate(309.005621 587.324237) rotate(-30) scale(0.1 -0.1)">
       <use xlink:href="#SimHei-32"/>
       <use xlink:href="#SimHei-30" transform="translate(50 0)"/>
       <use xlink:href="#SimHei-32" transform="translate(100 0)"/>
       <use xlink:href="#SimHei-35" transform="translate(150 0)"/>
       <use xlink:href="#SimHei-2d" transform="translate(200 0)"/>
       <use xlink:href="#SimHei-31" transform="translate(250 0)"/>
       <use xlink:href="#SimHei-32" transform="translate(300 0)"/>
      </g>
     </g>
    </g>
    <g id="xtick_5">
     <g id="line2d_9">
      <path d="M 434.059603 556.870312 
L 434.059603 31.270312 
" clip-path="url(#peb16779f9a)" style="fill: none; stroke-dasharray: 2.96,1.28; stroke-dashoffset: 0; stroke: #21262d; stroke-opacity: 0.4; stroke-width: 0.8"/>
     </g>
     <g id="line2d_10">
      <g>
       <use xlink:href="#m8e4f47b147" x="434.059603" y="556.870312" style="fill: #c9d1d9; stroke: #c9d1d9; stroke-width: 0.8"/>
      </g>
     </g>
     <g id="text_5">
      <!-- 2026-01 -->
      <g style="fill: #c9d1d9" transform="translate(403.123714 587.324237) rotate(-30) scale(0.1 -0.1)">
       <defs>
        <path id="SimHei-36" d="M 250 1612 
Q 275 1975 387 2225 
Q 500 2475 725 2850 
L 1750 4450 
L 2325 4450 
L 1275 2800 
Q 1950 2975 2350 2750 
Q 2750 2525 2887 2237 
Q 3025 1950 3037 1612 
Q 3050 1275 2937 950 
Q 2825 625 2537 362 
Q 2250 100 1737 75 
Q 1225 50 862 262 
Q 500 475 362 862 
Q 225 1250 250 1612 
z
M 1025 787 
Q 1250 550 1625 525 
Q 2000 500 2250 775 
Q 2500 1050 2500 1575 
Q 2500 2100 2187 2300 
Q 1875 2500 1487 2450 
Q 1100 2400 925 2075 
Q 750 1750 775 1387 
Q 800 1025 1025 787 
z
" transform="scale(0.015625)"/>
       </defs>
       <use xlink:href="#SimHei-32"/>
       <use xlink:href="#SimHei-30" transform="translate(50 0)"/>
       <use xlink:href="#SimHei-32" transform="translate(100 0)"/>
       <use xlink:href="#SimHei-36" transform="translate(150 0)"/>
       <use xlink:href="#SimHei-2d" transform="translate(200 0)"/>
       <use xlink:href="#SimHei-30" transform="translate(250 0)"/>
       <use xlink:href="#SimHei-31" transform="translate(300 0)"/>
      </g>
     </g>
    </g>
    <g id="xtick_6">
     <g id="line2d_11">
      <path d="M 528.177696 556.870312 
L 528.177696 31.270312 
" clip-path="url(#peb16779f9a)" style="fill: none; stroke-dasharray: 2.96,1.28; stroke-dashoffset: 0; stroke: #21262d; stroke-opacity: 0.4; stroke-width: 0.8"/>
     </g>
     <g id="line2d_12">
      <g>
       <use xlink:href="#m8e4f47b147" x="528.177696" y="556.870312" style="fill: #c9d1d9; stroke: #c9d1d9; stroke-width: 0.8"/>
      </g>
     </g>
     <g id="text_6">
      <!-- 2026-02 -->
      <g style="fill: #c9d1d9" transform="translate(497.241807 587.324237) rotate(-30) scale(0.1 -0.1)">
       <use xlink:href="#SimHei-32"/>
       <use xlink:href="#SimHei-30" transform="translate(50 0)"/>
       <use xlink:href="#SimHei-32" transform="translate(100 0)"/>
       <use xlink:href="#SimHei-36" transform="translate(150 0)"/>
       <use xlink:href="#SimHei-2d" transform="translate(200 0)"/>
       <use xlink:href="#SimHei-30" transform="translate(250 0)"/>
       <use xlink:href="#SimHei-32" transform="translate(300 0)"/>
      </g>
     </g>
    </g>
    <g id="xtick_7">
     <g id="line2d_13">
      <path d="M 613.187587 556.870312 
L 613.187587 31.270312 
" clip-path="url(#peb16779f9a)" style="fill: none; stroke-dasharray: 2.96,1.28; stroke-dashoffset: 0; stroke: #21262d; stroke-opacity: 0.4; stroke-width: 0.8"/>
     </g>
     <g id="line2d_14">
      <g>
       <use xlink:href="#m8e4f47b147" x="613.187587" y="556.870312" style="fill: #c9d1d9; stroke: #c9d1d9; stroke-width: 0.8"/>
      </g>
     </g>
     <g id="text_7">
      <!-- 2026-03 -->
      <g style="fill: #c9d1d9" transform="translate(582.251697 587.324237) rotate(-30) scale(0.1 -0.1)">
       <defs>
        <path id="SimHei-33" d="M 250 1225 
L 700 1300 
Q 800 975 1025 762 
Q 1250 550 1587 562 
Q 1925 575 2125 837 
Q 2325 1100 2300 1437 
Q 2275 1775 2037 1962 
Q 1800 2150 1275 2225 
L 1275 2550 
Q 1800 2600 2037 2825 
Q 2275 3050 2250 3412 
Q 2225 3775 1925 3937 
Q 1625 4100 1287 3975 
Q 950 3850 750 3275 
L 300 3350 
Q 450 3800 712 4100 
Q 975 4400 1425 4450 
Q 1875 4500 2212 4337 
Q 2550 4175 2687 3837 
Q 2825 3500 2725 3100 
Q 2625 2700 2150 2400 
Q 2500 2250 2687 1950 
Q 2875 1650 2812 1162 
Q 2750 675 2375 375 
Q 2000 75 1525 87 
Q 1050 100 700 387 
Q 350 675 250 1225 
z
" transform="scale(0.015625)"/>
       </defs>
       <use xlink:href="#SimHei-32"/>
       <use xlink:href="#SimHei-30" transform="translate(50 0)"/>
       <use xlink:href="#SimHei-32" transform="translate(100 0)"/>
       <use xlink:href="#SimHei-36" transform="translate(150 0)"/>
       <use xlink:href="#SimHei-2d" transform="translate(200 0)"/>
       <use xlink:href="#SimHei-30" transform="translate(250 0)"/>
       <use xlink:href="#SimHei-33" transform="translate(300 0)"/>
      </g>
     </g>
    </g>
    <g id="xtick_8">
     <g id="line2d_15">
      <path d="M 707.30568 556.870312 
L 707.30568 31.270312 
" clip-path="url(#peb16779f9a)" style="fill: none; stroke-dasharray: 2.96,1.28; stroke-dashoffset: 0; stroke: #21262d; stroke-opacity: 0.4; stroke-width: 0.8"/>
     </g>
     <g id="line2d_16">
      <g>
       <use xlink:href="#m8e4f47b147" x="707.30568" y="556.870312" style="fill: #c9d1d9; stroke: #c9d1d9; stroke-width: 0.8"/>
      </g>
     </g>
     <g id="text_8">
      <!-- 2026-04 -->
      <g style="fill: #c9d1d9" transform="translate(676.36979 587.324237) rotate(-30) scale(0.1 -0.1)">
       <defs>
        <path id="SimHei-34" d="M 2000 1100 
L 75 1100 
L 75 1525 
L 2100 4450 
L 2475 4450 
L 2475 1525 
L 3075 1525 
L 3075 1100 
L 2475 1100 
L 2475 150 
L 2000 150 
L 2000 1100 
z
M 2000 1525 
L 2000 3500 
L 600 1525 
L 2000 1525 
z
" transform="scale(0.015625)"/>
       </defs>
       <use xlink:href="#SimHei-32"/>
       <use xlink:href="#SimHei-30" transform="translate(50 0)"/>
       <use xlink:href="#SimHei-32" transform="translate(100 0)"/>
       <use xlink:href="#SimHei-36" transform="translate(150 0)"/>
       <use xlink:href="#SimHei-2d" transform="translate(200 0)"/>
       <use xlink:href="#SimHei-30" transform="translate(250 0)"/>
       <use xlink:href="#SimHei-34" transform="translate(300 0)"/>
      </g>
     </g>
    </g>
    <g id="xtick_9">
     <g id="line2d_17">
      <path d="M 798.387705 556.870312 
L 798.387705 31.270312 
" clip-path="url(#peb16779f9a)" style="fill: none; stroke-dasharray: 2.96,1.28; stroke-dashoffset: 0; stroke: #21262d; stroke-opacity: 0.4; stroke-width: 0.8"/>
     </g>
     <g id="line2d_18">
      <g>
       <use xlink:href="#m8e4f47b147" x="798.387705" y="556.870312" style="fill: #c9d1d9; stroke: #c9d1d9; stroke-width: 0.8"/>
      </g>
     </g>
     <g id="text_9">
      <!-- 2026-05 -->
      <g style="fill: #c9d1d9" transform="translate(767.451816 587.324237) rotate(-30) scale(0.1 -0.1)">
       <use xlink:href="#SimHei-32"/>
       <use xlink:href="#SimHei-30" transform="translate(50 0)"/>
       <use xlink:href="#SimHei-32" transform="translate(100 0)"/>
       <use xlink:href="#SimHei-36" transform="translate(150 0)"/>
       <use xlink:href="#SimHei-2d" transform="translate(200 0)"/>
       <use xlink:href="#SimHei-30" transform="translate(250 0)"/>
       <use xlink:href="#SimHei-35" transform="translate(300 0)"/>
      </g>
     </g>
    </g>
    <g id="xtick_10">
     <g id="line2d_19">
      <path d="M 892.505798 556.870312 
L 892.505798 31.270312 
" clip-path="url(#peb16779f9a)" style="fill: none; stroke-dasharray: 2.96,1.28; stroke-dashoffset: 0; stroke: #21262d; stroke-opacity: 0.4; stroke-width: 0.8"/>
     </g>
     <g id="line2d_20">
      <g>
       <use xlink:href="#m8e4f47b147" x="892.505798" y="556.870312" style="fill: #c9d1d9; stroke: #c9d1d9; stroke-width: 0.8"/>
      </g>
     </g>
     <g id="text_10">
      <!-- 2026-06 -->
      <g style="fill: #c9d1d9" transform="translate(861.569909 587.324237) rotate(-30) scale(0.1 -0.1)">
       <use xlink:href="#SimHei-32"/>
       <use xlink:href="#SimHei-30" transform="translate(50 0)"/>
       <use xlink:href="#SimHei-32" transform="translate(100 0)"/>
       <use xlink:href="#SimHei-36" transform="translate(150 0)"/>
       <use xlink:href="#SimHei-2d" transform="translate(200 0)"/>
       <use xlink:href="#SimHei-30" transform="translate(250 0)"/>
       <use xlink:href="#SimHei-36" transform="translate(300 0)"/>
      </g>
     </g>
    </g>
    <g id="xtick_11">
     <g id="line2d_21">
      <path d="M 983.587824 556.870312 
L 983.587824 31.270312 
" clip-path="url(#peb16779f9a)" style="fill: none; stroke-dasharray: 2.96,1.28; stroke-dashoffset: 0; stroke: #21262d; stroke-opacity: 0.4; stroke-width: 0.8"/>
     </g>
     <g id="line2d_22">
      <g>
       <use xlink:href="#m8e4f47b147" x="983.587824" y="556.870312" style="fill: #c9d1d9; stroke: #c9d1d9; stroke-width: 0.8"/>
      </g>
     </g>
     <g id="text_11">
      <!-- 2026-07 -->
      <g style="fill: #c9d1d9" transform="translate(952.651934 587.324237) rotate(-30) scale(0.1 -0.1)">
       <defs>
        <path id="SimHei-37" d="M 850 150 
Q 1300 2050 2425 3925 
L 275 3925 
L 275 4375 
L 2950 4375 
L 2950 3950 
Q 1775 2050 1400 150 
L 850 150 
z
" transform="scale(0.015625)"/>
       </defs>
       <use xlink:href="#SimHei-32"/>
       <use xlink:href="#SimHei-30" transform="translate(50 0)"/>
       <use xlink:href="#SimHei-32" transform="translate(100 0)"/>
       <use xlink:href="#SimHei-36" transform="translate(150 0)"/>
       <use xlink:href="#SimHei-2d" transform="translate(200 0)"/>
       <use xlink:href="#SimHei-30" transform="translate(250 0)"/>
       <use xlink:href="#SimHei-37" transform="translate(300 0)"/>
      </g>
     </g>
    </g>
   </g>
   <g id="matplotlib.axis_2">
    <g id="ytick_1">
     <g id="line2d_23">
      <path d="M 29.2 532.979403 
L 1054.48 532.979403 
" clip-path="url(#peb16779f9a)" style="fill: none; stroke-dasharray: 2.96,1.28; stroke-dashoffset: 0; stroke: #21262d; stroke-opacity: 0.4; stroke-width: 0.8"/>
     </g>
     <g id="line2d_24">
      <defs>
       <path id="mfd78c26053" d="M 0 0 
L -3.5 0 
" style="stroke: #c9d1d9; stroke-width: 0.8"/>
      </defs>
      <g>
       <use xlink:href="#mfd78c26053" x="29.2" y="532.979403" style="fill: #c9d1d9; stroke: #c9d1d9; stroke-width: 0.8"/>
      </g>
     </g>
     <g id="text_12">
      <!-- 0.0 -->
      <g style="fill: #c9d1d9" transform="translate(7.2 536.416903) scale(0.1 -0.1)">
       <defs>
        <path id="SimHei-2e" d="M 1075 125 
L 500 125 
L 500 675 
L 1075 675 
L 1075 125 
z
" transform="scale(0.015625)"/>
       </defs>
       <use xlink:href="#SimHei-30"/>
       <use xlink:href="#SimHei-2e" transform="translate(50 0)"/>
       <use xlink:href="#SimHei-30" transform="translate(100 0)"/>
      </g>
     </g>
    </g>
    <g id="ytick_2">
     <g id="line2d_25">
      <path d="M 29.2 437.415767 
L 1054.48 437.415767 
" clip-path="url(#peb16779f9a)" style="fill: none; stroke-dasharray: 2.96,1.28; stroke-dashoffset: 0; stroke: #21262d; stroke-opacity: 0.4; stroke-width: 0.8"/>
     </g>
     <g id="line2d_26">
      <g>
       <use xlink:href="#mfd78c26053" x="29.2" y="437.415767" style="fill: #c9d1d9; stroke: #c9d1d9; stroke-width: 0.8"/>
      </g>
     </g>
     <g id="text_13">
      <!-- 0.2 -->
      <g style="fill: #c9d1d9" transform="translate(7.2 440.853267) scale(0.1 -0.1)">
       <use xlink:href="#SimHei-30"/>
       <use xlink:href="#SimHei-2e" transform="translate(50 0)"/>
       <use xlink:href="#SimHei-32" transform="translate(100 0)"/>
      </g>
     </g>
    </g>
    <g id="ytick_3">
     <g id="line2d_27">
      <path d="M 29.2 341.852131 
L 1054.48 341.852131 
" clip-path="url(#peb16779f9a)" style="fill: none; stroke-dasharray: 2.96,1.28; stroke-dashoffset: 0; stroke: #21262d; stroke-opacity: 0.4; stroke-width: 0.8"/>
     </g>
     <g id="line2d_28">
      <g>
       <use xlink:href="#mfd78c26053" x="29.2" y="341.852131" style="fill: #c9d1d9; stroke: #c9d1d9; stroke-width: 0.8"/>
      </g>
     </g>
     <g id="text_14">
      <!-- 0.4 -->
      <g style="fill: #c9d1d9" transform="translate(7.2 345.289631) scale(0.1 -0.1)">
       <use xlink:href="#SimHei-30"/>
       <use xlink:href="#SimHei-2e" transform="translate(50 0)"/>
       <use xlink:href="#SimHei-34" transform="translate(100 0)"/>
      </g>
     </g>
    </g>
    <g id="ytick_4">
     <g id="line2d_29">
      <path d="M 29.2 246.288494 
L 1054.48 246.288494 
" clip-path="url(#peb16779f9a)" style="fill: none; stroke-dasharray: 2.96,1.28; stroke-dashoffset: 0; stroke: #21262d; stroke-opacity: 0.4; stroke-width: 0.8"/>
     </g>
     <g id="line2d_30">
      <g>
       <use xlink:href="#mfd78c26053" x="29.2" y="246.288494" style="fill: #c9d1d9; stroke: #c9d1d9; stroke-width: 0.8"/>
      </g>
     </g>
     <g id="text_15">
      <!-- 0.6 -->
      <g style="fill: #c9d1d9" transform="translate(7.2 249.725994) scale(0.1 -0.1)">
       <use xlink:href="#SimHei-30"/>
       <use xlink:href="#SimHei-2e" transform="translate(50 0)"/>
       <use xlink:href="#SimHei-36" transform="translate(100 0)"/>
      </g>
     </g>
    </g>
    <g id="ytick_5">
     <g id="line2d_31">
      <path d="M 29.2 150.724858 
L 1054.48 150.724858 
" clip-path="url(#peb16779f9a)" style="fill: none; stroke-dasharray: 2.96,1.28; stroke-dashoffset: 0; stroke: #21262d; stroke-opacity: 0.4; stroke-width: 0.8"/>
     </g>
     <g id="line2d_32">
      <g>
       <use xlink:href="#mfd78c26053" x="29.2" y="150.724858" style="fill: #c9d1d9; stroke: #c9d1d9; stroke-width: 0.8"/>
      </g>
     </g>
     <g id="text_16">
      <!-- 0.8 -->
      <g style="fill: #c9d1d9" transform="translate(7.2 154.162358) scale(0.1 -0.1)">
       <defs>
        <path id="SimHei-38" d="M 175 1375 
Q 175 1675 325 1962 
Q 475 2250 825 2425 
Q 525 2600 425 2812 
Q 325 3025 312 3300 
Q 300 3575 387 3775 
Q 475 3975 650 4150 
Q 825 4325 1037 4387 
Q 1250 4450 1500 4450 
Q 1750 4450 1950 4400 
Q 2150 4350 2375 4187 
Q 2600 4025 2700 3725 
Q 2800 3425 2687 3025 
Q 2575 2625 2100 2400 
Q 2525 2275 2700 2012 
Q 2875 1750 2875 1375 
Q 2875 1000 2762 775 
Q 2650 550 2512 400 
Q 2375 250 2137 162 
Q 1900 75 1537 75 
Q 1175 75 912 162 
Q 650 250 475 425 
Q 300 600 237 837 
Q 175 1075 175 1375 
z
M 687 1400 
Q 675 1100 787 875 
Q 900 650 1200 587 
Q 1500 525 1825 600 
Q 2150 675 2275 950 
Q 2400 1225 2362 1500 
Q 2325 1775 2050 1962 
Q 1775 2150 1450 2125 
Q 1125 2100 912 1900 
Q 700 1700 687 1400 
z
M 775 3350 
Q 775 3100 950 2875 
Q 1125 2650 1500 2650 
Q 1875 2650 2062 2875 
Q 2250 3100 2237 3412 
Q 2225 3725 2012 3875 
Q 1800 4025 1437 4000 
Q 1075 3975 925 3787 
Q 775 3600 775 3350 
z
" transform="scale(0.015625)"/>
       </defs>
       <use xlink:href="#SimHei-30"/>
       <use xlink:href="#SimHei-2e" transform="translate(50 0)"/>
       <use xlink:href="#SimHei-38" transform="translate(100 0)"/>
      </g>
     </g>
    </g>
    <g id="ytick_6">
     <g id="line2d_33">
      <path d="M 29.2 55.161222 
L 1054.48 55.161222 
" clip-path="url(#peb16779f9a)" style="fill: none; stroke-dasharray: 2.96,1.28; stroke-dashoffset: 0; stroke: #21262d; stroke-opacity: 0.4; stroke-width: 0.8"/>
     </g>
     <g id="line2d_34">
      <g>
       <use xlink:href="#mfd78c26053" x="29.2" y="55.161222" style="fill: #c9d1d9; stroke: #c9d1d9; stroke-width: 0.8"/>
      </g>
     </g>
     <g id="text_17">
      <!-- 1.0 -->
      <g style="fill: #c9d1d9" transform="translate(7.2 58.598722) scale(0.1 -0.1)">
       <use xlink:href="#SimHei-31"/>
       <use xlink:href="#SimHei-2e" transform="translate(50 0)"/>
       <use xlink:href="#SimHei-30" transform="translate(100 0)"/>
      </g>
     </g>
    </g>
   </g>
   <g id="line2d_35">
    <path d="M 75.803636 532.979403 
L 84.911839 519.108815 
L 87.947906 512.859947 
L 90.983974 509.840088 
L 94.020041 505.795601 
L 97.056109 495.93287 
L 106.164312 483.294764 
L 109.200379 467.338695 
L 112.236447 462.27785 
L 115.272514 462.933982 
L 118.308582 465.006262 
L 127.416784 451.020541 
L 130.452852 453.326191 
L 133.488919 444.207833 
L 136.524987 435.583963 
L 139.561054 450.343623 
L 148.669257 444.407479 
L 151.705324 463.727728 
L 179.029932 431.523591 
L 182.065999 434.877101 
L 194.210269 429.728281 
L 197.246337 427.449052 
L 200.282405 425.599682 
L 203.318472 443.55401 
L 212.426675 446.194182 
L 215.462742 437.70047 
L 218.49881 431.831369 
L 221.534877 433.138784 
L 233.679147 414.190597 
L 236.715215 406.359383 
L 239.751282 399.931066 
L 242.78735 404.945492 
L 245.823417 409.722449 
L 254.93162 402.71389 
L 257.967687 403.614819 
L 261.003755 403.233614 
L 264.039822 395.015801 
L 267.07589 400.799386 
L 276.184092 396.549734 
L 279.22016 392.368849 
L 285.292295 398.36925 
L 288.328362 405.465464 
L 297.436565 400.45165 
L 300.472633 396.139836 
L 303.5087 400.46046 
L 306.544768 407.130357 
L 309.580835 423.114634 
L 318.689038 423.962415 
L 321.725105 422.177005 
L 324.761173 419.006048 
L 327.79724 418.360897 
L 330.833308 418.338083 
L 339.94151 411.432157 
L 342.977578 411.287425 
L 346.013645 413.559497 
L 349.049713 412.740072 
L 352.08578 414.46011 
L 361.193983 403.784203 
L 364.23005 398.444847 
L 367.266118 398.281577 
L 370.302185 400.441982 
L 373.338253 406.525416 
L 382.446455 402.433586 
L 385.482523 395.186754 
L 388.51859 396.843837 
L 391.554658 402.519504 
L 394.590725 399.666097 
L 403.698928 392.055823 
L 406.734996 381.903743 
L 409.771063 376.158293 
L 415.843198 382.054811 
L 424.951401 378.290418 
L 427.987468 372.642551 
L 431.023536 385.049048 
L 446.203873 374.276198 
L 449.239941 362.688393 
L 452.276008 346.586354 
L 455.312076 336.399495 
L 458.348143 332.049758 
L 467.456346 307.748836 
L 470.492413 303.368837 
L 473.528481 292.569166 
L 476.564548 280.569492 
L 479.600616 263.498007 
L 488.708818 264.938361 
L 491.744886 275.251676 
L 494.780954 262.064631 
L 497.817021 259.082072 
L 500.853089 258.724705 
L 509.961291 256.917842 
L 512.997359 258.562241 
L 516.033426 240.866604 
L 519.069494 244.346923 
L 522.105561 261.985934 
L 531.213764 263.516915 
L 534.249831 269.221256 
L 537.285899 280.931001 
L 540.321966 287.409624 
L 543.358034 297.370802 
L 552.466236 296.849034 
L 555.502304 298.832833 
L 558.538371 310.329048 
L 561.574439 304.443547 
L 564.610506 343.379762 
L 598.007249 322.173684 
L 601.043317 303.941098 
L 604.079384 292.011592 
L 616.223654 287.134421 
L 619.259722 299.976854 
L 622.295789 302.940709 
L 625.331857 299.276197 
L 628.367924 303.424739 
L 637.476127 300.745082 
L 640.512194 296.253867 
L 643.548262 297.210872 
L 646.584329 292.707362 
L 649.620397 298.275819 
L 658.728599 291.631503 
L 661.764667 296.719134 
L 664.800734 294.766361 
L 667.836802 296.126714 
L 670.872869 306.702658 
L 679.981072 313.142919 
L 683.017139 315.624664 
L 686.053207 315.804273 
L 689.089275 316.313448 
L 692.125342 323.733797 
L 701.233545 318.798801 
L 704.269612 322.530165 
L 707.30568 322.748309 
L 710.341747 329.734206 
L 713.377815 340.542635 
L 725.522085 339.757937 
L 728.558152 331.117687 
L 731.59422 327.263965 
L 743.73849 313.457454 
L 746.774557 303.399393 
L 752.846692 290.900208 
L 755.88276 290.091341 
L 764.990962 271.519638 
L 768.02703 267.235707 
L 771.063097 257.211004 
L 774.099165 255.854129 
L 777.135232 259.870768 
L 786.243435 247.676814 
L 789.279503 248.234086 
L 792.31557 241.679045 
L 795.351638 251.517955 
L 813.568043 221.971288 
L 816.60411 201.494171 
L 819.640178 191.691099 
L 828.74838 170.951115 
L 831.784448 160.222529 
L 834.820515 145.059975 
L 837.856583 140.006617 
L 840.89265 145.105678 
L 850.000853 132.086255 
L 853.03692 128.162007 
L 856.072988 121.594122 
L 859.109055 125.221838 
L 862.145123 123.556445 
L 871.253325 107.794472 
L 874.289393 102.798446 
L 877.32546 101.062703 
L 880.361528 96.425479 
L 883.397595 119.052186 
L 892.505798 124.356843 
L 895.541866 123.264596 
L 898.577933 116.440154 
L 901.614001 113.172818 
L 904.650068 127.94253 
L 913.758271 143.29549 
L 916.794338 145.232248 
L 919.830406 150.938556 
L 922.866473 150.43019 
L 925.902541 149.581518 
L 935.010743 132.752957 
L 938.046811 117.166463 
L 941.082878 98.17846 
L 944.118946 89.060605 
L 956.263216 75.499125 
L 959.299283 76.797337 
L 962.335351 69.333801 
L 965.371418 55.161222 
L 968.407486 65.685986 
L 977.515688 75.939619 
L 980.551756 60.659816 
L 983.587824 57.025819 
L 986.623891 63.201857 
L 989.659959 80.459829 
L 998.768161 90.458167 
L 1001.804229 98.15776 
L 1004.840296 108.327884 
L 1007.876364 109.899878 
L 1007.876364 109.899878 
" clip-path="url(#peb16779f9a)" style="fill: none; stroke: #008000; stroke-width: 2; stroke-linecap: square"/>
   </g>
   <g id="line2d_36">
    <path d="M 75.803636 515.109745 
L 84.911839 514.422476 
L 87.947906 532.979403 
L 90.983974 526.10638 
L 94.020041 442.256909 
L 97.056109 469.061397 
L 106.164312 463.562911 
L 109.200379 469.748666 
L 112.236447 447.068126 
L 115.272514 487.618324 
L 118.308582 480.745301 
L 127.416784 470.435935 
L 130.452852 468.373792 
L 133.488919 440.195103 
L 136.524987 418.201496 
L 139.561054 448.442664 
L 148.669257 395.520957 
L 151.705324 386.586127 
L 179.029932 335.03963 
L 182.065999 401.707047 
L 191.174202 420.263638 
L 194.210269 452.566276 
L 197.246337 410.64154 
L 200.282405 400.332174 
L 203.318472 466.999255 
L 212.426675 456.002956 
L 215.462742 407.892466 
L 218.49881 418.201496 
L 221.534877 405.83066 
L 233.679147 328.166607 
L 236.715215 344.661728 
L 239.751282 303.424261 
L 242.78735 330.228749 
L 245.823417 376.277097 
L 254.93162 371.46588 
L 257.967687 394.833688 
L 261.003755 390.710076 
L 264.039822 342.599922 
L 267.07589 349.472609 
L 276.184092 341.225048 
L 279.22016 371.46588 
L 282.256227 370.091679 
L 285.292295 337.789041 
L 288.328362 386.586127 
L 297.436565 407.892466 
L 300.472633 426.449057 
L 303.5087 416.827295 
L 306.544768 431.260274 
L 309.580835 508.236722 
L 318.689038 513.047602 
L 321.725105 485.556182 
L 324.761173 465.624717 
L 327.79724 468.373792 
L 330.833308 459.438963 
L 339.94151 423.700318 
L 346.013645 452.566276 
L 349.049713 444.318715 
L 352.08578 416.140026 
L 361.193983 392.772218 
L 364.23005 409.267003 
L 367.266118 413.390615 
L 370.302185 436.758423 
L 373.338253 418.889101 
L 382.446455 437.446028 
L 385.482523 469.748666 
L 388.51859 415.452758 
L 391.554658 436.758423 
L 394.590725 423.012713 
L 403.698928 394.146756 
L 406.734996 387.273732 
L 409.771063 375.589828 
L 412.807131 369.40441 
L 415.843198 357.032901 
L 424.951401 371.46588 
L 427.987468 364.593193 
L 431.023536 378.338903 
L 446.203873 315.795434 
L 449.239941 264.248601 
L 452.276008 276.619773 
L 455.312076 302.736993 
L 458.348143 287.616409 
L 467.456346 268.372213 
L 470.492413 280.056453 
L 473.528481 300.67485 
L 476.564548 294.489432 
L 479.600616 305.486067 
L 488.708818 304.075889 
L 491.744886 313.947811 
L 494.780954 309.716939 
L 497.817021 311.832207 
L 500.853089 328.050605 
L 509.961291 322.409555 
L 512.997359 323.819733 
L 516.033426 313.242722 
L 519.069494 282.92153 
L 522.105561 323.114644 
L 531.213764 401.385268 
L 534.249831 356.256193 
L 537.285899 325.935337 
L 540.321966 345.679182 
L 543.358034 366.833205 
L 552.466236 311.832207 
L 555.502304 307.601672 
L 558.538371 314.6529 
L 561.574439 311.832207 
L 564.610506 351.320232 
L 598.007249 319.588861 
L 601.043317 295.614145 
L 604.079384 306.191157 
L 607.115452 313.242722 
L 616.223654 303.3708 
L 619.259722 346.384271 
L 622.295789 394.333703 
L 625.331857 363.307758 
L 628.367924 354.140925 
L 637.476127 380.935999 
L 640.512194 342.858488 
L 643.548262 323.114644 
L 649.620397 347.08936 
L 658.728599 344.974092 
L 661.764667 368.948809 
L 664.800734 357.666372 
L 667.836802 402.090358 
L 670.872869 418.30842 
L 679.981072 521.259186 
L 683.017139 486.707122 
L 686.053207 440.872957 
L 689.089275 480.360982 
L 692.125342 466.258188 
L 701.233545 471.899239 
L 704.269612 497.989559 
L 707.30568 447.924522 
L 710.341747 479.655893 
L 713.377815 504.335698 
L 725.522085 509.976749 
L 728.558152 399.974754 
L 731.59422 421.129113 
L 734.630287 371.769166 
L 743.73849 364.717937 
L 746.774557 322.409555 
L 749.810625 335.10217 
L 752.846692 298.434839 
L 755.88276 303.3708 
L 764.990962 285.037134 
L 768.02703 277.280479 
L 771.063097 252.600674 
L 774.099165 259.651903 
L 777.135232 273.049608 
L 786.243435 273.049608 
L 789.279503 281.511351 
L 792.31557 245.549109 
L 795.351638 243.433841 
L 813.568043 198.304766 
L 816.60411 181.381278 
L 819.640178 199.714944 
L 828.74838 143.303768 
L 831.784448 145.419372 
L 834.820515 107.341526 
L 837.856583 160.932345 
L 840.89265 205.356331 
L 850.000853 223.68966 
L 853.03692 211.70247 
L 856.072988 210.292292 
L 859.109055 254.715942 
L 862.145123 216.638432 
L 871.253325 163.753038 
L 874.289393 139.072896 
L 877.32546 167.278484 
L 880.361528 167.278484 
L 883.397595 173.62496 
L 892.505798 212.40756 
L 895.541866 164.458127 
L 898.577933 144.008857 
L 901.614001 171.509356 
L 904.650068 230.036136 
L 913.758271 303.3708 
L 916.794338 242.023326 
L 919.830406 271.639429 
L 922.866473 294.909056 
L 925.902541 247.664713 
L 935.010743 176.445317 
L 938.046811 182.791793 
L 941.082878 148.944819 
L 944.118946 130.611153 
L 956.263216 55.161222 
L 959.299283 160.227256 
L 962.335351 142.598679 
L 965.371418 85.482414 
L 968.407486 184.907061 
L 977.515688 148.239729 
L 980.551756 105.931347 
L 983.587824 120.739231 
L 986.623891 225.100175 
L 989.659959 206.766509 
L 998.768161 206.06142 
L 1001.804229 242.023326 
L 1004.840296 261.767507 
L 1007.876364 178.560921 
L 1007.876364 178.560921 
" clip-path="url(#peb16779f9a)" style="fill: none; stroke: #ff0000; stroke-width: 2; stroke-linecap: square"/>
   </g>
   <g id="line2d_37">
    <path d="M 75.803636 493.72355 
L 84.911839 479.615952 
L 87.947906 500.470611 
L 90.983974 498.630477 
L 94.020041 448.333818 
L 97.056109 448.947294 
L 106.164312 453.240891 
L 109.200379 429.932623 
L 112.236447 414.598367 
L 115.272514 437.29316 
L 118.308582 444.65355 
L 127.416784 432.999562 
L 130.452852 452.627416 
L 133.488919 419.505294 
L 136.524987 429.319294 
L 139.561054 450.787282 
L 148.669257 427.47916 
L 151.705324 408.464635 
L 179.029932 396.810501 
L 182.065999 419.505294 
L 191.174202 420.732099 
L 194.210269 461.214757 
L 197.246337 431.772757 
L 200.282405 455.081025 
L 203.318472 504.150879 
L 212.426675 496.177013 
L 215.462742 469.801952 
L 218.49881 476.549013 
L 221.534877 475.322355 
L 233.679147 431.772757 
L 236.715215 433.612891 
L 239.751282 409.691294 
L 242.78735 429.319294 
L 245.823417 427.47916 
L 254.93162 417.05183 
L 257.967687 445.267026 
L 261.003755 437.906489 
L 264.039822 414.598367 
L 267.07589 417.05183 
L 276.184092 412.758233 
L 279.22016 417.66516 
L 282.256227 429.932623 
L 285.292295 402.330757 
L 288.328362 426.86583 
L 297.436565 425.025696 
L 300.472633 437.29316 
L 303.5087 453.854221 
L 306.544768 464.894879 
L 309.580835 532.979403 
L 318.689038 515.191538 
L 321.725105 494.336879 
L 324.761173 492.496745 
L 327.79724 491.270086 
L 330.833308 467.348489 
L 339.94151 458.147818 
L 342.977578 472.868745 
L 346.013645 490.043282 
L 349.049713 488.816477 
L 352.08578 463.054891 
L 361.193983 447.10716 
L 364.23005 456.307684 
L 367.266118 449.560623 
L 370.302185 470.415282 
L 373.338253 458.147818 
L 382.446455 473.482221 
L 385.482523 503.53755 
L 388.51859 479.615952 
L 391.554658 482.682745 
L 394.590725 468.575147 
L 403.698928 450.173952 
L 406.734996 453.240891 
L 409.771063 421.958757 
L 412.807131 404.784367 
L 415.843198 398.03716 
L 424.951401 404.170892 
L 427.987468 399.263965 
L 431.023536 401.104099 
L 446.203873 360.008111 
L 449.239941 331.792916 
L 452.276008 323.205575 
L 455.312076 306.644514 
L 458.348143 258.187989 
L 467.456346 197.464002 
L 470.492413 239.173465 
L 473.528481 238.559989 
L 476.564548 236.106526 
L 479.600616 238.559989 
L 488.708818 234.266392 
L 491.744886 252.054258 
L 494.780954 241.626928 
L 497.817021 217.705331 
L 500.853089 172.315599 
L 509.961291 208.50466 
L 512.997359 199.917465 
L 516.033426 199.304136 
L 519.069494 210.95827 
L 522.105561 233.039733 
L 531.213764 312.778245 
L 534.249831 249.600794 
L 537.285899 247.147331 
L 540.321966 279.042648 
L 543.358034 287.629989 
L 552.466236 237.333331 
L 555.502304 237.94666 
L 558.538371 235.493197 
L 561.574439 217.092002 
L 564.610506 245.920526 
L 598.007249 223.225733 
L 601.043317 188.876807 
L 604.079384 176.609343 
L 607.115452 155.754538 
L 616.223654 181.51627 
L 619.259722 260.641453 
L 622.295789 275.975855 
L 625.331857 256.961185 
L 628.367924 239.173465 
L 637.476127 248.987319 
L 640.512194 214.025063 
L 643.548262 211.571599 
L 646.584329 215.865197 
L 649.620397 244.693721 
L 658.728599 247.147331 
L 661.764667 291.923587 
L 664.800734 277.202514 
L 667.836802 320.138782 
L 670.872869 355.714367 
L 679.981072 445.267026 
L 683.017139 402.944233 
L 686.053207 363.688233 
L 689.089275 393.743562 
L 692.125342 364.301709 
L 701.233545 360.008111 
L 704.269612 392.516904 
L 707.30568 360.008111 
L 710.341747 393.130233 
L 713.377815 416.438355 
L 725.522085 397.423831 
L 728.558152 310.938111 
L 731.59422 319.525306 
L 734.630287 301.124111 
L 743.73849 294.99038 
L 746.774557 263.094916 
L 749.810625 272.908916 
L 752.846692 239.786794 
L 755.88276 215.865197 
L 764.990962 210.344794 
L 768.02703 212.184929 
L 771.063097 174.769209 
L 774.099165 202.984404 
L 777.135232 218.932136 
L 786.243435 213.411733 
L 789.279503 237.333331 
L 792.31557 209.118136 
L 795.351638 199.304136 
L 813.568043 152.07427 
L 816.60411 115.27188 
L 819.640178 109.751478 
L 828.74838 80.922953 
L 831.784448 90.123624 
L 834.820515 55.161222 
L 837.856583 93.803892 
L 840.89265 121.405612 
L 850.000853 110.978282 
L 853.03692 90.736953 
L 856.072988 88.28349 
L 859.109055 163.728404 
L 862.145123 118.952148 
L 871.253325 91.963758 
L 874.289393 119.565478 
L 877.32546 153.301075 
L 880.361528 131.219612 
L 883.397595 189.490136 
L 892.505798 202.370929 
L 895.541866 196.237197 
L 898.577933 186.423197 
L 901.614001 183.969733 
L 904.650068 204.211063 
L 913.758271 268.001989 
L 916.794338 217.092002 
L 919.830406 237.94666 
L 922.866473 250.827453 
L 925.902541 239.173465 
L 935.010743 158.208002 
L 938.046811 122.019087 
L 941.082878 110.978282 
L 944.118946 90.736953 
L 956.263216 65.588697 
L 959.299283 114.045221 
L 962.335351 90.736953 
L 965.371418 77.242685 
L 968.407486 134.89988 
L 977.515688 138.580148 
L 980.551756 82.763087 
L 983.587824 63.135087 
L 986.623891 115.27188 
L 989.659959 125.699209 
L 998.768161 162.501746 
L 1001.804229 205.437868 
L 1004.840296 251.440928 
L 1007.876364 212.184929 
L 1007.876364 212.184929 
" clip-path="url(#peb16779f9a)" style="fill: none; stroke: #0000ff; stroke-width: 2; stroke-linecap: square"/>
   </g>
   <g id="patch_3">
    <path d="M 29.2 556.870312 
L 29.2 31.270312 
" style="fill: none; stroke: #30363d; stroke-width: 0.8; stroke-linejoin: miter; stroke-linecap: square"/>
   </g>
   <g id="patch_4">
    <path d="M 1054.48 556.870312 
L 1054.48 31.270312 
" style="fill: none; stroke: #30363d; stroke-width: 0.8; stroke-linejoin: miter; stroke-linecap: square"/>
   </g>
   <g id="patch_5">
    <path d="M 29.2 556.870312 
L 1054.48 556.870312 
" style="fill: none; stroke: #30363d; stroke-width: 0.8; stroke-linejoin: miter; stroke-linecap: square"/>
   </g>
   <g id="patch_6">
    <path d="M 29.2 31.270312 
L 1054.48 31.270312 
" style="fill: none; stroke: #30363d; stroke-width: 0.8; stroke-linejoin: miter; stroke-linecap: square"/>
   </g>
   <g id="text_18">
    <!-- 2026-07-10 -->
    <g style="fill: #8b949e; opacity: 0.6" transform="translate(999.2272 550.489312) scale(0.09 -0.09)">
     <use xlink:href="#SimHei-32"/>
     <use xlink:href="#SimHei-30" transform="translate(50 0)"/>
     <use xlink:href="#SimHei-32" transform="translate(100 0)"/>
     <use xlink:href="#SimHei-36" transform="translate(150 0)"/>
     <use xlink:href="#SimHei-2d" transform="translate(200 0)"/>
     <use xlink:href="#SimHei-30" transform="translate(250 0)"/>
     <use xlink:href="#SimHei-37" transform="translate(300 0)"/>
     <use xlink:href="#SimHei-2d" transform="translate(350 0)"/>
     <use xlink:href="#SimHei-31" transform="translate(400 0)"/>
     <use xlink:href="#SimHei-30" transform="translate(450 0)"/>
    </g>
   </g>
   <g id="text_19">
    <!-- 融资余额与ETF对比 -->
    <g style="fill: #c9d1d9" transform="translate(478.09 19.270312) scale(0.15 -0.15)">
     <defs>
      <path id="SimHei-878d" d="M 5200 975 
Q 5400 1025 5650 1125 
Q 5775 775 5887 475 
Q 6000 175 6150 -350 
Q 5925 -425 5675 -500 
Q 5575 -175 5500 50 
Q 4825 -100 4362 -212 
Q 3900 -325 3400 -500 
Q 3325 -225 3200 0 
Q 3575 25 4350 175 
L 4350 1750 
L 3850 1750 
L 3850 1225 
L 3375 1225 
Q 3400 1975 3400 2675 
Q 3400 3400 3375 3925 
L 4350 3925 
Q 4350 4925 4325 5200 
L 4825 5200 
Q 4800 4875 4800 3925 
L 5775 3925 
Q 5750 3325 5750 2700 
Q 5750 2100 5775 1550 
L 5300 1550 
L 5300 1750 
L 4800 1750 
L 4800 250 
Q 5075 325 5400 400 
Q 5325 650 5200 975 
z
M 2025 -50 
Q 2425 -50 2475 -12 
Q 2525 25 2550 150 
L 2550 1975 
L 825 1975 
L 825 -500 
L 350 -500 
Q 375 100 375 475 
L 375 1400 
Q 375 1850 350 2350 
L 3000 2350 
Q 2975 1950 2975 1450 
L 2975 -25 
Q 2975 -325 2787 -387 
Q 2600 -450 2225 -525 
Q 2125 -225 2025 -50 
z
M 625 2725 
Q 650 3050 650 3350 
Q 650 3675 625 3975 
L 2850 3975 
Q 2825 3675 2825 3350 
Q 2825 3050 2850 2725 
L 625 2725 
z
M 3000 4450 
Q 2650 4475 2175 4475 
L 1200 4475 
Q 625 4475 250 4450 
L 250 4875 
Q 550 4850 1125 4850 
L 2175 4850 
Q 2700 4850 3000 4875 
L 3000 4450 
z
M 2325 1675 
Q 2175 1475 2000 1025 
L 2325 1025 
L 2325 675 
L 1850 675 
L 1850 -125 
L 1425 -125 
L 1425 675 
L 1025 675 
L 1025 1025 
L 1700 1025 
Q 1875 1500 1925 1825 
Q 2100 1700 2325 1675 
z
M 5300 2125 
L 5300 3550 
L 4800 3550 
L 4800 2125 
L 5300 2125 
z
M 4350 2125 
L 4350 3550 
L 3850 3550 
L 3850 2125 
L 4350 2125 
z
M 2350 3100 
L 2350 3600 
L 1100 3600 
L 1100 3100 
L 2350 3100 
z
M 1575 1275 
Q 1400 1225 1225 1150 
Q 1150 1425 1025 1675 
L 1325 1825 
Q 1425 1550 1575 1275 
z
" transform="scale(0.015625)"/>
      <path id="SimHei-8d44" d="M 5300 2150 
Q 5275 1825 5275 1450 
Q 5275 1075 5300 575 
L 4800 575 
L 4800 1725 
L 1700 1725 
L 1700 425 
L 1200 425 
Q 1225 1000 1225 1375 
Q 1225 1775 1200 2150 
L 5300 2150 
z
M 4225 4075 
Q 4050 3775 4200 3562 
Q 4350 3350 4612 3162 
Q 4875 2975 5262 2850 
Q 5650 2725 6125 2700 
Q 5925 2425 5825 2175 
Q 5200 2300 4712 2550 
Q 4225 2800 3900 3350 
Q 3675 2775 3250 2550 
Q 2825 2325 2325 2175 
Q 2125 2400 1925 2575 
Q 2975 2775 3300 3175 
Q 3625 3575 3650 4150 
L 4225 4075 
z
M 3125 4250 
Q 2825 3850 2550 3650 
Q 2375 3825 2175 3950 
Q 2475 4150 2737 4487 
Q 3000 4825 3150 5200 
Q 3375 5100 3700 5050 
Q 3575 4825 3400 4650 
L 5750 4650 
Q 5675 4500 5300 3675 
Q 5000 3750 4800 3775 
Q 4925 4050 5025 4250 
L 3125 4250 
z
M 3525 1375 
Q 3400 1100 3337 825 
Q 3275 550 3012 262 
Q 2750 -25 2250 -275 
Q 1750 -525 800 -675 
Q 725 -425 500 -200 
Q 1225 -175 1712 -12 
Q 2200 150 2450 350 
Q 2700 550 2812 837 
Q 2925 1125 2925 1450 
Q 3225 1400 3525 1375 
z
M 3825 700 
Q 4300 525 4750 350 
Q 5200 175 5825 -100 
Q 5675 -300 5550 -600 
Q 5075 -325 4612 -125 
Q 4150 75 3625 250 
Q 3750 450 3825 700 
z
M 2075 3325 
Q 1450 2750 875 2050 
Q 625 2325 475 2425 
Q 1275 3050 1725 3625 
Q 1850 3500 2075 3325 
z
M 1700 3975 
Q 1300 4275 625 4675 
Q 800 4850 925 5025 
Q 1150 4875 2000 4350 
Q 1850 4200 1700 3975 
z
" transform="scale(0.015625)"/>
      <path id="SimHei-4f59" d="M 3850 3050 
Q 4150 3050 4525 3075 
L 4525 2600 
Q 4225 2625 3850 2625 
L 3450 2625 
L 3450 1825 
L 4475 1825 
Q 5050 1825 5375 1850 
L 5375 1350 
Q 5025 1375 4500 1375 
L 3450 1375 
L 3450 -75 
Q 3450 -450 3187 -525 
Q 2925 -600 2550 -650 
Q 2525 -425 2350 -50 
Q 2825 -75 2887 -25 
Q 2950 25 2950 175 
L 2950 1375 
L 1800 1375 
Q 1225 1375 900 1350 
L 900 1850 
Q 1200 1825 1800 1825 
L 2950 1825 
L 2950 2625 
L 2550 2625 
Q 2325 2625 1825 2600 
L 1825 3075 
Q 2225 3050 2525 3050 
L 3850 3050 
z
M 3400 4850 
Q 4450 3575 6150 3300 
Q 5925 3150 5750 2700 
Q 4150 3250 3100 4550 
Q 2375 3350 800 2400 
Q 450 2725 325 2800 
Q 1475 3325 2112 4100 
Q 2750 4875 2900 5275 
Q 3150 5175 3550 5050 
L 3400 4850 
z
M 2325 700 
Q 2075 500 1625 112 
Q 1175 -275 925 -450 
Q 725 -225 525 -50 
Q 1600 675 1900 1075 
Q 2100 875 2325 700 
z
M 4400 1175 
Q 4750 850 5025 550 
L 5600 0 
Q 5375 -175 5125 -400 
Q 4875 25 4050 850 
Q 4200 950 4400 1175 
z
" transform="scale(0.015625)"/>
      <path id="SimHei-989d" d="M 1925 3700 
Q 1725 3550 1550 3350 
L 2950 3350 
Q 2875 3150 2700 2875 
Q 2525 2600 2300 2300 
Q 2500 2200 2712 2075 
Q 2925 1950 3275 1725 
Q 3125 1575 2950 1325 
Q 2700 1525 2475 1662 
Q 2250 1800 1950 1950 
Q 1575 1650 1150 1375 
L 2800 1375 
Q 2775 950 2775 500 
Q 2775 50 2800 -450 
L 2325 -450 
L 2325 -50 
L 1325 -50 
L 1325 -575 
L 875 -575 
Q 900 -75 900 275 
L 900 1175 
Q 675 1075 550 1000 
Q 400 1225 225 1400 
Q 625 1550 975 1762 
Q 1325 1975 1550 2200 
Q 1300 2350 1075 2475 
Q 1175 2625 1350 2800 
Q 1625 2650 1925 2500 
Q 2150 2750 2300 3000 
L 1300 3000 
Q 1200 2875 1025 2687 
Q 850 2500 650 2275 
Q 475 2425 250 2575 
Q 650 2875 937 3237 
Q 1225 3600 1375 3925 
Q 1650 3800 1925 3700 
z
M 4150 4400 
Q 3775 4400 3375 4375 
L 3375 4825 
Q 3750 4800 4200 4800 
L 5300 4800 
Q 5600 4800 6000 4825 
L 6000 4375 
Q 5625 4400 5300 4400 
L 4950 4400 
Q 4850 3975 4725 3525 
L 5750 3525 
Q 5725 3125 5725 2775 
L 5725 1625 
Q 5725 1300 5750 825 
L 5300 825 
L 5300 3175 
L 3925 3175 
L 3925 800 
L 3450 800 
Q 3475 1275 3475 1650 
L 3475 2800 
Q 3475 3175 3450 3525 
L 4300 3525 
Q 4400 4025 4450 4400 
L 4150 4400 
z
M 2050 5100 
Q 2100 4825 2200 4475 
L 3225 4475 
Q 3200 4275 3200 4075 
Q 3200 3875 3225 3675 
L 2775 3675 
L 2775 4100 
L 875 4100 
L 875 3500 
L 400 3500 
Q 425 3775 425 4000 
Q 425 4250 400 4475 
L 1650 4475 
Q 1550 4750 1475 5000 
Q 1800 5050 2050 5100 
z
M 4925 2725 
Q 4850 2425 4837 2025 
Q 4825 1625 4712 1175 
Q 4600 725 4262 250 
Q 3925 -225 3250 -675 
Q 3050 -425 2850 -250 
Q 3375 -25 3687 262 
Q 4000 550 4162 937 
Q 4325 1325 4350 1750 
Q 4375 2175 4375 2775 
Q 4575 2750 4925 2725 
z
M 2325 325 
L 2325 1025 
L 1325 1025 
L 1325 325 
L 2325 325 
z
M 5075 800 
Q 5300 575 5487 400 
Q 5675 225 6025 -100 
Q 5800 -275 5600 -500 
Q 5450 -275 5275 -87 
Q 5100 100 4675 400 
Q 4875 575 5075 800 
z
" transform="scale(0.015625)"/>
      <path id="SimHei-4e0e" d="M 5350 100 
Q 5275 -300 4925 -425 
Q 4575 -550 3900 -600 
Q 3875 -375 3650 -25 
Q 4375 -50 4575 0 
Q 4775 50 4837 225 
Q 4900 400 5100 2350 
L 1125 2350 
Q 1450 4350 1475 5200 
Q 1800 5150 2075 5125 
Q 1975 4825 1900 4275 
L 4900 4275 
Q 5400 4275 5800 4300 
L 5800 3825 
Q 5400 3850 4950 3850 
L 1850 3850 
L 1700 2750 
L 5675 2750 
Q 5625 2450 5575 2050 
L 5350 100 
z
M 3675 1350 
Q 4125 1350 4500 1375 
L 4500 875 
Q 4125 900 3850 900 
L 1450 900 
Q 1000 900 500 875 
L 500 1375 
Q 1000 1350 1450 1350 
L 3675 1350 
z
" transform="scale(0.015625)"/>
      <path id="SimHei-45" d="M 2900 125 
L 350 125 
L 350 4400 
L 2775 4400 
L 2775 3925 
L 925 3925 
L 925 2600 
L 2625 2600 
L 2625 2125 
L 925 2125 
L 925 600 
L 2900 600 
L 2900 125 
z
" transform="scale(0.015625)"/>
      <path id="SimHei-54" d="M 2850 3925 
L 1850 3925 
L 1850 125 
L 1275 125 
L 1275 3925 
L 275 3925 
L 275 4400 
L 2850 4400 
L 2850 3925 
z
" transform="scale(0.015625)"/>
      <path id="SimHei-46" d="M 2925 3925 
L 875 3925 
L 875 2525 
L 2425 2525 
L 2425 2050 
L 875 2050 
L 875 125 
L 300 125 
L 300 4400 
L 2925 4400 
L 2925 3925 
z
" transform="scale(0.015625)"/>
      <path id="SimHei-5bf9" d="M 525 4250 
Q 900 4225 1400 4225 
L 2825 4225 
Q 2575 2625 2200 1750 
Q 2825 875 3125 400 
Q 2950 275 2725 75 
Q 2200 975 1950 1300 
Q 1650 775 1350 425 
Q 1050 75 600 -350 
Q 425 -125 200 -25 
Q 625 275 975 675 
Q 1325 1075 1650 1700 
Q 1050 2425 550 2900 
Q 700 3025 900 3225 
Q 1625 2425 1875 2150 
Q 2200 3050 2300 3825 
L 1400 3825 
Q 900 3825 525 3800 
L 525 4250 
z
M 2925 3700 
Q 3525 3675 3750 3675 
L 4825 3675 
L 4825 4425 
Q 4825 4750 4775 5125 
L 5350 5125 
Q 5325 4825 5325 4375 
L 5325 3675 
Q 5575 3675 6150 3700 
L 6150 3250 
Q 5575 3275 5325 3275 
L 5325 125 
Q 5350 -350 5012 -475 
Q 4675 -600 4250 -650 
Q 4175 -350 4025 -100 
Q 4575 -100 4712 -37 
Q 4850 25 4825 325 
L 4825 3275 
L 3775 3275 
Q 3550 3275 2925 3225 
L 2925 3700 
z
M 3450 2725 
Q 3875 1975 4175 1325 
Q 3850 1200 3700 1075 
Q 3475 1750 3050 2475 
Q 3225 2550 3450 2725 
z
" transform="scale(0.015625)"/>
      <path id="SimHei-6bd4" d="M 3775 5100 
Q 3750 4575 3750 4100 
L 3750 3050 
Q 4925 3600 5475 4175 
Q 5675 3900 5900 3675 
Q 5600 3500 5037 3187 
Q 4475 2875 3750 2550 
L 3750 450 
Q 3750 100 4050 100 
L 5000 100 
Q 5175 100 5262 250 
Q 5350 400 5450 900 
Q 5650 775 6025 675 
Q 5850 0 5650 -175 
Q 5450 -350 5225 -350 
L 3900 -350 
Q 3250 -350 3250 275 
L 3250 4000 
Q 3250 4550 3225 5100 
L 3775 5100 
z
M 1275 4975 
Q 1250 4575 1250 4000 
L 1250 3150 
L 1850 3150 
Q 2325 3150 2875 3175 
L 2875 2650 
Q 2325 2675 1850 2675 
L 1250 2675 
L 1250 475 
Q 1650 650 1962 812 
Q 2275 975 2850 1275 
Q 2900 950 2950 750 
Q 2375 475 1762 175 
Q 1150 -125 925 -325 
Q 750 -100 575 200 
Q 700 300 750 600 
L 750 3950 
Q 750 4550 725 4975 
L 1275 4975 
z
" transform="scale(0.015625)"/>
     </defs>
     <use xlink:href="#SimHei-878d"/>
     <use xlink:href="#SimHei-8d44" transform="translate(100 0)"/>
     <use xlink:href="#SimHei-4f59" transform="translate(200 0)"/>
     <use xlink:href="#SimHei-989d" transform="translate(300 0)"/>
     <use xlink:href="#SimHei-4e0e" transform="translate(400 0)"/>
     <use xlink:href="#SimHei-45" transform="translate(500 0)"/>
     <use xlink:href="#SimHei-54" transform="translate(550 0)"/>
     <use xlink:href="#SimHei-46" transform="translate(600 0)"/>
     <use xlink:href="#SimHei-5bf9" transform="translate(650 0)"/>
     <use xlink:href="#SimHei-6bd4" transform="translate(750 0)"/>
    </g>
   </g>
   <g id="legend_1">
    <g id="patch_7">
     <path d="M 36.2 80.067187 
L 108.2 80.067187 
Q 110.2 80.067187 110.2 78.067187 
L 110.2 38.270312 
Q 110.2 36.270312 108.2 36.270312 
L 36.2 36.270312 
Q 34.2 36.270312 34.2 38.270312 
L 34.2 78.067187 
Q 34.2 80.067187 36.2 80.067187 
z
" style="fill: #161b22; opacity: 0.9; stroke: #30363d; stroke-linejoin: miter"/>
    </g>
    <g id="line2d_38">
     <path d="M 38.2 44.817187 
L 48.2 44.817187 
L 58.2 44.817187 
" style="fill: none; stroke: #008000; stroke-width: 2; stroke-linecap: square"/>
    </g>
    <g id="text_20">
     <!-- 融资余额 -->
     <g style="fill: #c9d1d9" transform="translate(66.2 48.317187) scale(0.1 -0.1)">
      <use xlink:href="#SimHei-878d"/>
      <use xlink:href="#SimHei-8d44" transform="translate(100 0)"/>
      <use xlink:href="#SimHei-4f59" transform="translate(200 0)"/>
      <use xlink:href="#SimHei-989d" transform="translate(300 0)"/>
     </g>
    </g>
    <g id="line2d_39">
     <path d="M 38.2 58.067187 
L 48.2 58.067187 
L 58.2 58.067187 
" style="fill: none; stroke: #ff0000; stroke-width: 2; stroke-linecap: square"/>
    </g>
    <g id="text_21">
     <!-- 300ETF -->
     <g style="fill: #c9d1d9" transform="translate(66.2 61.567187) scale(0.1 -0.1)">
      <use xlink:href="#SimHei-33"/>
      <use xlink:href="#SimHei-30" transform="translate(50 0)"/>
      <use xlink:href="#SimHei-30" transform="translate(100 0)"/>
      <use xlink:href="#SimHei-45" transform="translate(150 0)"/>
      <use xlink:href="#SimHei-54" transform="translate(200 0)"/>
      <use xlink:href="#SimHei-46" transform="translate(250 0)"/>
     </g>
    </g>
    <g id="line2d_40">
     <path d="M 38.2 71.317187 
L 48.2 71.317187 
L 58.2 71.317187 
" style="fill: none; stroke: #0000ff; stroke-width: 2; stroke-linecap: square"/>
    </g>
    <g id="text_22">
     <!-- 1000ETF -->
     <g style="fill: #c9d1d9" transform="translate(66.2 74.817187) scale(0.1 -0.1)">
      <use xlink:href="#SimHei-31"/>
      <use xlink:href="#SimHei-30" transform="translate(50 0)"/>
      <use xlink:href="#SimHei-30" transform="translate(100 0)"/>
      <use xlink:href="#SimHei-30" transform="translate(150 0)"/>
      <use xlink:href="#SimHei-45" transform="translate(200 0)"/>
      <use xlink:href="#SimHei-54" transform="translate(250 0)"/>
      <use xlink:href="#SimHei-46" transform="translate(300 0)"/>
     </g>
    </g>
   </g>
  </g>
 </g>
 <defs>
  <clipPath id="peb16779f9a">
   <rect x="29.2" y="31.270312" width="1025.28" height="525.6"/>
  </clipPath>
 </defs>
</svg>
