<?xml version="1.0" encoding="utf-8" standalone="no"?>
<!DOCTYPE svg PUBLIC "-//W3C//DTD SVG 1.1//EN"
  "http://www.w3.org/Graphics/SVG/1.1/DTD/svg11.dtd">
<svg xmlns:xlink="http://www.w3.org/1999/xlink" width="1069.816695pt" height="595.3138pt" viewBox="0 0 1069.816695 595.3138" xmlns="http://www.w3.org/2000/svg" version="1.1">
 <metadata>
  <rdf:RDF xmlns:dc="http://purl.org/dc/elements/1.1/" xmlns:cc="http://creativecommons.org/ns#" xmlns:rdf="http://www.w3.org/1999/02/22-rdf-syntax-ns#">
   <cc:Work>
    <dc:type rdf:resource="http://purl.org/dc/dcmitype/StillImage"/>
    <dc:date>2026-07-20T22:30:20.348278</dc:date>
    <dc:format>image/svg+xml</dc:format>
    <dc:creator>
     <cc:Agent>
      <dc:title>Matplotlib v3.10.9, https://matplotlib.org/</dc:title>
     </cc:Agent>
    </dc:creator>
   </cc:Work>
  </rdf:RDF>
 </metadata>
 <defs>
  <style type="text/css">*{stroke-linejoin: round; stroke-linecap: butt}</style>
 </defs>
 <g id="figure_1">
  <g id="patch_1">
   <path d="M 0 595.3138 
L 1069.816695 595.3138 
L 1069.816695 0 
L 0 0 
z
" style="fill: #0d1117"/>
  </g>
  <g id="axes_1">
   <g id="patch_2">
    <path d="M 37.336695 556.577344 
L 1062.616695 556.577344 
L 1062.616695 30.977344 
L 37.336695 30.977344 
z
" style="fill: #161b22"/>
   </g>
   <g id="matplotlib.axis_1">
    <g id="xtick_1">
     <g id="line2d_1">
      <path d="M 41.573389 556.577344 
L 41.573389 30.977344 
" clip-path="url(#pddf43d61b5)" style="fill: none; stroke-dasharray: 2.96,1.28; stroke-dashoffset: 0; stroke: #21262d; stroke-opacity: 0.4; stroke-width: 0.8"/>
     </g>
     <g id="line2d_2">
      <defs>
       <path id="m491e3121a0" d="M 0 0 
L 0 3.5 
" style="stroke: #c9d1d9; stroke-width: 0.8"/>
      </defs>
      <g>
       <use xlink:href="#m491e3121a0" x="41.573389" y="556.577344" style="fill: #c9d1d9; stroke: #c9d1d9; stroke-width: 0.8"/>
      </g>
     </g>
     <g id="text_1">
      <!-- 2025-09 -->
      <g style="fill: #c9d1d9" transform="translate(10.6375 587.031268) rotate(-30) scale(0.1 -0.1)">
       <defs>
        <path id="SimHei-32" d="M 300 250 
Q 325 625 650 925 
Q 975 1225 1475 1862 
Q 1975 2500 2125 2850 
Q 2275 3200 2237 3450 
Q 2200 3700 2000 3862 
Q 1800 4025 1537 4000 
Q 1275 3975 1037 3800 
Q 800 3625 675 3275 
L 200 3350 
Q 400 3925 712 4187 
Q 1025 4450 1450 4475 
Q 1700 4500 1900 4462 
Q 2100 4425 2312 4287 
Q 2525 4150 2662 3875 
Q 2800 3600 2762 3212 
Q 2725 2825 2375 2287 
Q 2025 1750 1025 600 
L 2825 600 
L 2825 150 
L 300 150 
L 300 250 
z
" transform="scale(0.015625)"/>
        <path id="SimHei-30" d="M 225 2537 
Q 250 3200 412 3587 
Q 575 3975 875 4225 
Q 1175 4475 1612 4475 
Q 2050 4475 2375 4112 
Q 2700 3750 2800 3200 
Q 2900 2650 2862 1937 
Q 2825 1225 2612 775 
Q 2400 325 1975 150 
Q 1550 -25 1125 187 
Q 700 400 525 750 
Q 350 1100 275 1487 
Q 200 1875 225 2537 
z
M 750 2687 
Q 675 2000 800 1462 
Q 925 925 1212 700 
Q 1500 475 1800 612 
Q 2100 750 2237 1162 
Q 2375 1575 2375 2062 
Q 2375 2550 2337 2950 
Q 2300 3350 2112 3675 
Q 1925 4000 1612 4012 
Q 1300 4025 1062 3700 
Q 825 3375 750 2687 
z
" transform="scale(0.015625)"/>
        <path id="SimHei-35" d="M 550 1325 
Q 725 650 1150 575 
Q 1575 500 1837 662 
Q 2100 825 2212 1087 
Q 2325 1350 2312 1675 
Q 2300 2000 2137 2225 
Q 1975 2450 1725 2525 
Q 1475 2600 1162 2525 
Q 850 2450 650 2175 
L 225 2225 
Q 275 2375 700 4375 
L 2675 4375 
L 2675 3925 
L 1075 3925 
Q 950 3250 825 2850 
Q 1200 3025 1525 3012 
Q 1850 3000 2150 2862 
Q 2450 2725 2587 2487 
Q 2725 2250 2787 2012 
Q 2850 1775 2837 1500 
Q 2825 1225 2725 937 
Q 2625 650 2425 462 
Q 2225 275 1937 162 
Q 1650 50 1275 75 
Q 900 100 562 350 
Q 225 600 100 1200 
L 550 1325 
z
" transform="scale(0.015625)"/>
        <path id="SimHei-2d" d="M 2975 2125 
L 125 2125 
L 125 2525 
L 2975 2525 
L 2975 2125 
z
" transform="scale(0.015625)"/>
        <path id="SimHei-39" d="M 800 75 
Q 1350 1000 1700 1750 
Q 1075 1650 662 1912 
Q 250 2175 162 2625 
Q 75 3075 175 3437 
Q 275 3800 487 4037 
Q 700 4275 1000 4375 
Q 1300 4475 1537 4475 
Q 1775 4475 2025 4375 
Q 2275 4275 2475 4075 
Q 2675 3875 2750 3662 
Q 2825 3450 2825 3112 
Q 2825 2775 2575 2250 
Q 2325 1725 1350 75 
L 800 75 
z
M 662 2875 
Q 700 2550 937 2337 
Q 1175 2125 1450 2150 
Q 1725 2175 1887 2300 
Q 2050 2425 2200 2725 
Q 2300 3100 2250 3362 
Q 2200 3625 1987 3800 
Q 1775 3975 1525 3975 
Q 1375 4000 1137 3900 
Q 900 3800 762 3500 
Q 625 3200 662 2875 
z
" transform="scale(0.015625)"/>
       </defs>
       <use xlink:href="#SimHei-32"/>
       <use xlink:href="#SimHei-30" transform="translate(50 0)"/>
       <use xlink:href="#SimHei-32" transform="translate(100 0)"/>
       <use xlink:href="#SimHei-35" transform="translate(150 0)"/>
       <use xlink:href="#SimHei-2d" transform="translate(200 0)"/>
       <use xlink:href="#SimHei-30" transform="translate(250 0)"/>
       <use xlink:href="#SimHei-39" transform="translate(300 0)"/>
      </g>
     </g>
    </g>
    <g id="xtick_2">
     <g id="line2d_3">
      <path d="M 132.359694 556.577344 
L 132.359694 30.977344 
" clip-path="url(#pddf43d61b5)" style="fill: none; stroke-dasharray: 2.96,1.28; stroke-dashoffset: 0; stroke: #21262d; stroke-opacity: 0.4; stroke-width: 0.8"/>
     </g>
     <g id="line2d_4">
      <g>
       <use xlink:href="#m491e3121a0" x="132.359694" y="556.577344" style="fill: #c9d1d9; stroke: #c9d1d9; stroke-width: 0.8"/>
      </g>
     </g>
     <g id="text_2">
      <!-- 2025-10 -->
      <g style="fill: #c9d1d9" transform="translate(101.423805 587.031268) rotate(-30) scale(0.1 -0.1)">
       <defs>
        <path id="SimHei-31" d="M 1400 3600 
Q 1075 3275 575 2975 
L 575 3450 
Q 1200 3875 1600 4450 
L 1900 4450 
L 1900 150 
L 1400 150 
L 1400 3600 
z
" transform="scale(0.015625)"/>
       </defs>
       <use xlink:href="#SimHei-32"/>
       <use xlink:href="#SimHei-30" transform="translate(50 0)"/>
       <use xlink:href="#SimHei-32" transform="translate(100 0)"/>
       <use xlink:href="#SimHei-35" transform="translate(150 0)"/>
       <use xlink:href="#SimHei-2d" transform="translate(200 0)"/>
       <use xlink:href="#SimHei-31" transform="translate(250 0)"/>
       <use xlink:href="#SimHei-30" transform="translate(300 0)"/>
      </g>
     </g>
    </g>
    <g id="xtick_3">
     <g id="line2d_5">
      <path d="M 226.172208 556.577344 
L 226.172208 30.977344 
" clip-path="url(#pddf43d61b5)" style="fill: none; stroke-dasharray: 2.96,1.28; stroke-dashoffset: 0; stroke: #21262d; stroke-opacity: 0.4; stroke-width: 0.8"/>
     </g>
     <g id="line2d_6">
      <g>
       <use xlink:href="#m491e3121a0" x="226.172208" y="556.577344" style="fill: #c9d1d9; stroke: #c9d1d9; stroke-width: 0.8"/>
      </g>
     </g>
     <g id="text_3">
      <!-- 2025-11 -->
      <g style="fill: #c9d1d9" transform="translate(195.236319 587.031268) rotate(-30) scale(0.1 -0.1)">
       <use xlink:href="#SimHei-32"/>
       <use xlink:href="#SimHei-30" transform="translate(50 0)"/>
       <use xlink:href="#SimHei-32" transform="translate(100 0)"/>
       <use xlink:href="#SimHei-35" transform="translate(150 0)"/>
       <use xlink:href="#SimHei-2d" transform="translate(200 0)"/>
       <use xlink:href="#SimHei-31" transform="translate(250 0)"/>
       <use xlink:href="#SimHei-31" transform="translate(300 0)"/>
      </g>
     </g>
    </g>
    <g id="xtick_4">
     <g id="line2d_7">
      <path d="M 316.958513 556.577344 
L 316.958513 30.977344 
" clip-path="url(#pddf43d61b5)" style="fill: none; stroke-dasharray: 2.96,1.28; stroke-dashoffset: 0; stroke: #21262d; stroke-opacity: 0.4; stroke-width: 0.8"/>
     </g>
     <g id="line2d_8">
      <g>
       <use xlink:href="#m491e3121a0" x="316.958513" y="556.577344" style="fill: #c9d1d9; stroke: #c9d1d9; stroke-width: 0.8"/>
      </g>
     </g>
     <g id="text_4">
      <!-- 2025-12 -->
      <g style="fill: #c9d1d9" transform="translate(286.022624 587.031268) rotate(-30) scale(0.1 -0.1)">
       <use xlink:href="#SimHei-32"/>
       <use xlink:href="#SimHei-30" transform="translate(50 0)"/>
       <use xlink:href="#SimHei-32" transform="translate(100 0)"/>
       <use xlink:href="#SimHei-35" transform="translate(150 0)"/>
       <use xlink:href="#SimHei-2d" transform="translate(200 0)"/>
       <use xlink:href="#SimHei-31" transform="translate(250 0)"/>
       <use xlink:href="#SimHei-32" transform="translate(300 0)"/>
      </g>
     </g>
    </g>
    <g id="xtick_5">
     <g id="line2d_9">
      <path d="M 410.771028 556.577344 
L 410.771028 30.977344 
" clip-path="url(#pddf43d61b5)" style="fill: none; stroke-dasharray: 2.96,1.28; stroke-dashoffset: 0; stroke: #21262d; stroke-opacity: 0.4; stroke-width: 0.8"/>
     </g>
     <g id="line2d_10">
      <g>
       <use xlink:href="#m491e3121a0" x="410.771028" y="556.577344" style="fill: #c9d1d9; stroke: #c9d1d9; stroke-width: 0.8"/>
      </g>
     </g>
     <g id="text_5">
      <!-- 2026-01 -->
      <g style="fill: #c9d1d9" transform="translate(379.835139 587.031268) rotate(-30) scale(0.1 -0.1)">
       <defs>
        <path id="SimHei-36" d="M 250 1612 
Q 275 1975 387 2225 
Q 500 2475 725 2850 
L 1750 4450 
L 2325 4450 
L 1275 2800 
Q 1950 2975 2350 2750 
Q 2750 2525 2887 2237 
Q 3025 1950 3037 1612 
Q 3050 1275 2937 950 
Q 2825 625 2537 362 
Q 2250 100 1737 75 
Q 1225 50 862 262 
Q 500 475 362 862 
Q 225 1250 250 1612 
z
M 1025 787 
Q 1250 550 1625 525 
Q 2000 500 2250 775 
Q 2500 1050 2500 1575 
Q 2500 2100 2187 2300 
Q 1875 2500 1487 2450 
Q 1100 2400 925 2075 
Q 750 1750 775 1387 
Q 800 1025 1025 787 
z
" transform="scale(0.015625)"/>
       </defs>
       <use xlink:href="#SimHei-32"/>
       <use xlink:href="#SimHei-30" transform="translate(50 0)"/>
       <use xlink:href="#SimHei-32" transform="translate(100 0)"/>
       <use xlink:href="#SimHei-36" transform="translate(150 0)"/>
       <use xlink:href="#SimHei-2d" transform="translate(200 0)"/>
       <use xlink:href="#SimHei-30" transform="translate(250 0)"/>
       <use xlink:href="#SimHei-31" transform="translate(300 0)"/>
      </g>
     </g>
    </g>
    <g id="xtick_6">
     <g id="line2d_11">
      <path d="M 504.583543 556.577344 
L 504.583543 30.977344 
" clip-path="url(#pddf43d61b5)" style="fill: none; stroke-dasharray: 2.96,1.28; stroke-dashoffset: 0; stroke: #21262d; stroke-opacity: 0.4; stroke-width: 0.8"/>
     </g>
     <g id="line2d_12">
      <g>
       <use xlink:href="#m491e3121a0" x="504.583543" y="556.577344" style="fill: #c9d1d9; stroke: #c9d1d9; stroke-width: 0.8"/>
      </g>
     </g>
     <g id="text_6">
      <!-- 2026-02 -->
      <g style="fill: #c9d1d9" transform="translate(473.647653 587.031268) rotate(-30) scale(0.1 -0.1)">
       <use xlink:href="#SimHei-32"/>
       <use xlink:href="#SimHei-30" transform="translate(50 0)"/>
       <use xlink:href="#SimHei-32" transform="translate(100 0)"/>
       <use xlink:href="#SimHei-36" transform="translate(150 0)"/>
       <use xlink:href="#SimHei-2d" transform="translate(200 0)"/>
       <use xlink:href="#SimHei-30" transform="translate(250 0)"/>
       <use xlink:href="#SimHei-32" transform="translate(300 0)"/>
      </g>
     </g>
    </g>
    <g id="xtick_7">
     <g id="line2d_13">
      <path d="M 589.317427 556.577344 
L 589.317427 30.977344 
" clip-path="url(#pddf43d61b5)" style="fill: none; stroke-dasharray: 2.96,1.28; stroke-dashoffset: 0; stroke: #21262d; stroke-opacity: 0.4; stroke-width: 0.8"/>
     </g>
     <g id="line2d_14">
      <g>
       <use xlink:href="#m491e3121a0" x="589.317427" y="556.577344" style="fill: #c9d1d9; stroke: #c9d1d9; stroke-width: 0.8"/>
      </g>
     </g>
     <g id="text_7">
      <!-- 2026-03 -->
      <g style="fill: #c9d1d9" transform="translate(558.381538 587.031268) rotate(-30) scale(0.1 -0.1)">
       <defs>
        <path id="SimHei-33" d="M 250 1225 
L 700 1300 
Q 800 975 1025 762 
Q 1250 550 1587 562 
Q 1925 575 2125 837 
Q 2325 1100 2300 1437 
Q 2275 1775 2037 1962 
Q 1800 2150 1275 2225 
L 1275 2550 
Q 1800 2600 2037 2825 
Q 2275 3050 2250 3412 
Q 2225 3775 1925 3937 
Q 1625 4100 1287 3975 
Q 950 3850 750 3275 
L 300 3350 
Q 450 3800 712 4100 
Q 975 4400 1425 4450 
Q 1875 4500 2212 4337 
Q 2550 4175 2687 3837 
Q 2825 3500 2725 3100 
Q 2625 2700 2150 2400 
Q 2500 2250 2687 1950 
Q 2875 1650 2812 1162 
Q 2750 675 2375 375 
Q 2000 75 1525 87 
Q 1050 100 700 387 
Q 350 675 250 1225 
z
" transform="scale(0.015625)"/>
       </defs>
       <use xlink:href="#SimHei-32"/>
       <use xlink:href="#SimHei-30" transform="translate(50 0)"/>
       <use xlink:href="#SimHei-32" transform="translate(100 0)"/>
       <use xlink:href="#SimHei-36" transform="translate(150 0)"/>
       <use xlink:href="#SimHei-2d" transform="translate(200 0)"/>
       <use xlink:href="#SimHei-30" transform="translate(250 0)"/>
       <use xlink:href="#SimHei-33" transform="translate(300 0)"/>
      </g>
     </g>
    </g>
    <g id="xtick_8">
     <g id="line2d_15">
      <path d="M 683.129942 556.577344 
L 683.129942 30.977344 
" clip-path="url(#pddf43d61b5)" style="fill: none; stroke-dasharray: 2.96,1.28; stroke-dashoffset: 0; stroke: #21262d; stroke-opacity: 0.4; stroke-width: 0.8"/>
     </g>
     <g id="line2d_16">
      <g>
       <use xlink:href="#m491e3121a0" x="683.129942" y="556.577344" style="fill: #c9d1d9; stroke: #c9d1d9; stroke-width: 0.8"/>
      </g>
     </g>
     <g id="text_8">
      <!-- 2026-04 -->
      <g style="fill: #c9d1d9" transform="translate(652.194053 587.031268) rotate(-30) scale(0.1 -0.1)">
       <defs>
        <path id="SimHei-34" d="M 2000 1100 
L 75 1100 
L 75 1525 
L 2100 4450 
L 2475 4450 
L 2475 1525 
L 3075 1525 
L 3075 1100 
L 2475 1100 
L 2475 150 
L 2000 150 
L 2000 1100 
z
M 2000 1525 
L 2000 3500 
L 600 1525 
L 2000 1525 
z
" transform="scale(0.015625)"/>
       </defs>
       <use xlink:href="#SimHei-32"/>
       <use xlink:href="#SimHei-30" transform="translate(50 0)"/>
       <use xlink:href="#SimHei-32" transform="translate(100 0)"/>
       <use xlink:href="#SimHei-36" transform="translate(150 0)"/>
       <use xlink:href="#SimHei-2d" transform="translate(200 0)"/>
       <use xlink:href="#SimHei-30" transform="translate(250 0)"/>
       <use xlink:href="#SimHei-34" transform="translate(300 0)"/>
      </g>
     </g>
    </g>
    <g id="xtick_9">
     <g id="line2d_17">
      <path d="M 773.916246 556.577344 
L 773.916246 30.977344 
" clip-path="url(#pddf43d61b5)" style="fill: none; stroke-dasharray: 2.96,1.28; stroke-dashoffset: 0; stroke: #21262d; stroke-opacity: 0.4; stroke-width: 0.8"/>
     </g>
     <g id="line2d_18">
      <g>
       <use xlink:href="#m491e3121a0" x="773.916246" y="556.577344" style="fill: #c9d1d9; stroke: #c9d1d9; stroke-width: 0.8"/>
      </g>
     </g>
     <g id="text_9">
      <!-- 2026-05 -->
      <g style="fill: #c9d1d9" transform="translate(742.980357 587.031268) rotate(-30) scale(0.1 -0.1)">
       <use xlink:href="#SimHei-32"/>
       <use xlink:href="#SimHei-30" transform="translate(50 0)"/>
       <use xlink:href="#SimHei-32" transform="translate(100 0)"/>
       <use xlink:href="#SimHei-36" transform="translate(150 0)"/>
       <use xlink:href="#SimHei-2d" transform="translate(200 0)"/>
       <use xlink:href="#SimHei-30" transform="translate(250 0)"/>
       <use xlink:href="#SimHei-35" transform="translate(300 0)"/>
      </g>
     </g>
    </g>
    <g id="xtick_10">
     <g id="line2d_19">
      <path d="M 867.728761 556.577344 
L 867.728761 30.977344 
" clip-path="url(#pddf43d61b5)" style="fill: none; stroke-dasharray: 2.96,1.28; stroke-dashoffset: 0; stroke: #21262d; stroke-opacity: 0.4; stroke-width: 0.8"/>
     </g>
     <g id="line2d_20">
      <g>
       <use xlink:href="#m491e3121a0" x="867.728761" y="556.577344" style="fill: #c9d1d9; stroke: #c9d1d9; stroke-width: 0.8"/>
      </g>
     </g>
     <g id="text_10">
      <!-- 2026-06 -->
      <g style="fill: #c9d1d9" transform="translate(836.792872 587.031268) rotate(-30) scale(0.1 -0.1)">
       <use xlink:href="#SimHei-32"/>
       <use xlink:href="#SimHei-30" transform="translate(50 0)"/>
       <use xlink:href="#SimHei-32" transform="translate(100 0)"/>
       <use xlink:href="#SimHei-36" transform="translate(150 0)"/>
       <use xlink:href="#SimHei-2d" transform="translate(200 0)"/>
       <use xlink:href="#SimHei-30" transform="translate(250 0)"/>
       <use xlink:href="#SimHei-36" transform="translate(300 0)"/>
      </g>
     </g>
    </g>
    <g id="xtick_11">
     <g id="line2d_21">
      <path d="M 958.515066 556.577344 
L 958.515066 30.977344 
" clip-path="url(#pddf43d61b5)" style="fill: none; stroke-dasharray: 2.96,1.28; stroke-dashoffset: 0; stroke: #21262d; stroke-opacity: 0.4; stroke-width: 0.8"/>
     </g>
     <g id="line2d_22">
      <g>
       <use xlink:href="#m491e3121a0" x="958.515066" y="556.577344" style="fill: #c9d1d9; stroke: #c9d1d9; stroke-width: 0.8"/>
      </g>
     </g>
     <g id="text_11">
      <!-- 2026-07 -->
      <g style="fill: #c9d1d9" transform="translate(927.579177 587.031268) rotate(-30) scale(0.1 -0.1)">
       <defs>
        <path id="SimHei-37" d="M 850 150 
Q 1300 2050 2425 3925 
L 275 3925 
L 275 4375 
L 2950 4375 
L 2950 3950 
Q 1775 2050 1400 150 
L 850 150 
z
" transform="scale(0.015625)"/>
       </defs>
       <use xlink:href="#SimHei-32"/>
       <use xlink:href="#SimHei-30" transform="translate(50 0)"/>
       <use xlink:href="#SimHei-32" transform="translate(100 0)"/>
       <use xlink:href="#SimHei-36" transform="translate(150 0)"/>
       <use xlink:href="#SimHei-2d" transform="translate(200 0)"/>
       <use xlink:href="#SimHei-30" transform="translate(250 0)"/>
       <use xlink:href="#SimHei-37" transform="translate(300 0)"/>
      </g>
     </g>
    </g>
    <g id="xtick_12">
     <g id="line2d_23">
      <path d="M 1052.32758 556.577344 
L 1052.32758 30.977344 
" clip-path="url(#pddf43d61b5)" style="fill: none; stroke-dasharray: 2.96,1.28; stroke-dashoffset: 0; stroke: #21262d; stroke-opacity: 0.4; stroke-width: 0.8"/>
     </g>
     <g id="line2d_24">
      <g>
       <use xlink:href="#m491e3121a0" x="1052.32758" y="556.577344" style="fill: #c9d1d9; stroke: #c9d1d9; stroke-width: 0.8"/>
      </g>
     </g>
     <g id="text_12">
      <!-- 2026-08 -->
      <g style="fill: #c9d1d9" transform="translate(1021.391691 587.031268) rotate(-30) scale(0.1 -0.1)">
       <defs>
        <path id="SimHei-38" d="M 175 1375 
Q 175 1675 325 1962 
Q 475 2250 825 2425 
Q 525 2600 425 2812 
Q 325 3025 312 3300 
Q 300 3575 387 3775 
Q 475 3975 650 4150 
Q 825 4325 1037 4387 
Q 1250 4450 1500 4450 
Q 1750 4450 1950 4400 
Q 2150 4350 2375 4187 
Q 2600 4025 2700 3725 
Q 2800 3425 2687 3025 
Q 2575 2625 2100 2400 
Q 2525 2275 2700 2012 
Q 2875 1750 2875 1375 
Q 2875 1000 2762 775 
Q 2650 550 2512 400 
Q 2375 250 2137 162 
Q 1900 75 1537 75 
Q 1175 75 912 162 
Q 650 250 475 425 
Q 300 600 237 837 
Q 175 1075 175 1375 
z
M 687 1400 
Q 675 1100 787 875 
Q 900 650 1200 587 
Q 1500 525 1825 600 
Q 2150 675 2275 950 
Q 2400 1225 2362 1500 
Q 2325 1775 2050 1962 
Q 1775 2150 1450 2125 
Q 1125 2100 912 1900 
Q 700 1700 687 1400 
z
M 775 3350 
Q 775 3100 950 2875 
Q 1125 2650 1500 2650 
Q 1875 2650 2062 2875 
Q 2250 3100 2237 3412 
Q 2225 3725 2012 3875 
Q 1800 4025 1437 4000 
Q 1075 3975 925 3787 
Q 775 3600 775 3350 
z
" transform="scale(0.015625)"/>
       </defs>
       <use xlink:href="#SimHei-32"/>
       <use xlink:href="#SimHei-30" transform="translate(50 0)"/>
       <use xlink:href="#SimHei-32" transform="translate(100 0)"/>
       <use xlink:href="#SimHei-36" transform="translate(150 0)"/>
       <use xlink:href="#SimHei-2d" transform="translate(200 0)"/>
       <use xlink:href="#SimHei-30" transform="translate(250 0)"/>
       <use xlink:href="#SimHei-38" transform="translate(300 0)"/>
      </g>
     </g>
    </g>
   </g>
   <g id="matplotlib.axis_2">
    <g id="ytick_1">
     <g id="line2d_25">
      <path d="M 37.336695 532.686435 
L 1062.616695 532.686435 
" clip-path="url(#pddf43d61b5)" style="fill: none; stroke-dasharray: 2.96,1.28; stroke-dashoffset: 0; stroke: #21262d; stroke-opacity: 0.4; stroke-width: 0.8"/>
     </g>
     <g id="line2d_26">
      <defs>
       <path id="m9870cd4d46" d="M 0 0 
L -3.5 0 
" style="stroke: #c9d1d9; stroke-width: 0.8"/>
      </defs>
      <g>
       <use xlink:href="#m9870cd4d46" x="37.336695" y="532.686435" style="fill: #c9d1d9; stroke: #c9d1d9; stroke-width: 0.8"/>
      </g>
     </g>
     <g id="text_13">
      <!-- 0.0 -->
      <g style="fill: #c9d1d9" transform="translate(15.336695 536.123935) scale(0.1 -0.1)">
       <defs>
        <path id="SimHei-2e" d="M 1075 125 
L 500 125 
L 500 675 
L 1075 675 
L 1075 125 
z
" transform="scale(0.015625)"/>
       </defs>
       <use xlink:href="#SimHei-30"/>
       <use xlink:href="#SimHei-2e" transform="translate(50 0)"/>
       <use xlink:href="#SimHei-30" transform="translate(100 0)"/>
      </g>
     </g>
    </g>
    <g id="ytick_2">
     <g id="line2d_27">
      <path d="M 37.336695 437.122798 
L 1062.616695 437.122798 
" clip-path="url(#pddf43d61b5)" style="fill: none; stroke-dasharray: 2.96,1.28; stroke-dashoffset: 0; stroke: #21262d; stroke-opacity: 0.4; stroke-width: 0.8"/>
     </g>
     <g id="line2d_28">
      <g>
       <use xlink:href="#m9870cd4d46" x="37.336695" y="437.122798" style="fill: #c9d1d9; stroke: #c9d1d9; stroke-width: 0.8"/>
      </g>
     </g>
     <g id="text_14">
      <!-- 0.2 -->
      <g style="fill: #c9d1d9" transform="translate(15.336695 440.560298) scale(0.1 -0.1)">
       <use xlink:href="#SimHei-30"/>
       <use xlink:href="#SimHei-2e" transform="translate(50 0)"/>
       <use xlink:href="#SimHei-32" transform="translate(100 0)"/>
      </g>
     </g>
    </g>
    <g id="ytick_3">
     <g id="line2d_29">
      <path d="M 37.336695 341.559162 
L 1062.616695 341.559162 
" clip-path="url(#pddf43d61b5)" style="fill: none; stroke-dasharray: 2.96,1.28; stroke-dashoffset: 0; stroke: #21262d; stroke-opacity: 0.4; stroke-width: 0.8"/>
     </g>
     <g id="line2d_30">
      <g>
       <use xlink:href="#m9870cd4d46" x="37.336695" y="341.559162" style="fill: #c9d1d9; stroke: #c9d1d9; stroke-width: 0.8"/>
      </g>
     </g>
     <g id="text_15">
      <!-- 0.4 -->
      <g style="fill: #c9d1d9" transform="translate(15.336695 344.996662) scale(0.1 -0.1)">
       <use xlink:href="#SimHei-30"/>
       <use xlink:href="#SimHei-2e" transform="translate(50 0)"/>
       <use xlink:href="#SimHei-34" transform="translate(100 0)"/>
      </g>
     </g>
    </g>
    <g id="ytick_4">
     <g id="line2d_31">
      <path d="M 37.336695 245.995526 
L 1062.616695 245.995526 
" clip-path="url(#pddf43d61b5)" style="fill: none; stroke-dasharray: 2.96,1.28; stroke-dashoffset: 0; stroke: #21262d; stroke-opacity: 0.4; stroke-width: 0.8"/>
     </g>
     <g id="line2d_32">
      <g>
       <use xlink:href="#m9870cd4d46" x="37.336695" y="245.995526" style="fill: #c9d1d9; stroke: #c9d1d9; stroke-width: 0.8"/>
      </g>
     </g>
     <g id="text_16">
      <!-- 0.6 -->
      <g style="fill: #c9d1d9" transform="translate(15.336695 249.433026) scale(0.1 -0.1)">
       <use xlink:href="#SimHei-30"/>
       <use xlink:href="#SimHei-2e" transform="translate(50 0)"/>
       <use xlink:href="#SimHei-36" transform="translate(100 0)"/>
      </g>
     </g>
    </g>
    <g id="ytick_5">
     <g id="line2d_33">
      <path d="M 37.336695 150.431889 
L 1062.616695 150.431889 
" clip-path="url(#pddf43d61b5)" style="fill: none; stroke-dasharray: 2.96,1.28; stroke-dashoffset: 0; stroke: #21262d; stroke-opacity: 0.4; stroke-width: 0.8"/>
     </g>
     <g id="line2d_34">
      <g>
       <use xlink:href="#m9870cd4d46" x="37.336695" y="150.431889" style="fill: #c9d1d9; stroke: #c9d1d9; stroke-width: 0.8"/>
      </g>
     </g>
     <g id="text_17">
      <!-- 0.8 -->
      <g style="fill: #c9d1d9" transform="translate(15.336695 153.869389) scale(0.1 -0.1)">
       <use xlink:href="#SimHei-30"/>
       <use xlink:href="#SimHei-2e" transform="translate(50 0)"/>
       <use xlink:href="#SimHei-38" transform="translate(100 0)"/>
      </g>
     </g>
    </g>
    <g id="ytick_6">
     <g id="line2d_35">
      <path d="M 37.336695 54.868253 
L 1062.616695 54.868253 
" clip-path="url(#pddf43d61b5)" style="fill: none; stroke-dasharray: 2.96,1.28; stroke-dashoffset: 0; stroke: #21262d; stroke-opacity: 0.4; stroke-width: 0.8"/>
     </g>
     <g id="line2d_36">
      <g>
       <use xlink:href="#m9870cd4d46" x="37.336695" y="54.868253" style="fill: #c9d1d9; stroke: #c9d1d9; stroke-width: 0.8"/>
      </g>
     </g>
     <g id="text_18">
      <!-- 1.0 -->
      <g style="fill: #c9d1d9" transform="translate(15.336695 58.305753) scale(0.1 -0.1)">
       <use xlink:href="#SimHei-31"/>
       <use xlink:href="#SimHei-2e" transform="translate(50 0)"/>
       <use xlink:href="#SimHei-30" transform="translate(100 0)"/>
      </g>
     </g>
    </g>
   </g>
   <g id="line2d_37">
    <path d="M 83.940331 532.686435 
L 86.966541 514.878674 
L 89.992752 509.23052 
L 93.018962 509.962796 
L 96.045172 512.275563 
L 105.123802 496.666807 
L 108.150013 499.240027 
L 111.176223 489.063488 
L 114.202433 479.438824 
L 117.228643 495.911333 
L 126.307273 489.286303 
L 129.333484 510.848655 
L 156.569375 474.907248 
L 159.595585 478.649931 
L 171.700426 472.903594 
L 174.726636 470.359861 
L 177.752846 468.295873 
L 180.779056 488.33379 
L 189.857687 491.280352 
L 192.883897 481.80095 
L 195.910107 475.250743 
L 198.936317 476.709883 
L 211.041158 455.56277 
L 214.067368 446.822749 
L 217.093578 439.648429 
L 220.119788 445.244776 
L 223.145998 450.576096 
L 232.224629 442.754198 
L 235.250839 443.759679 
L 238.277049 443.334236 
L 241.303259 434.162751 
L 244.329469 440.617517 
L 253.4081 435.874696 
L 256.43431 431.208621 
L 262.48673 437.905365 
L 265.51294 445.825091 
L 274.591571 440.229427 
L 277.617781 435.41723 
L 280.643991 440.239259 
L 283.670201 447.683194 
L 286.696412 465.522437 
L 295.775042 466.468602 
L 298.801252 464.475997 
L 301.827462 460.937051 
L 304.853672 460.217031 
L 307.879883 460.19157 
L 316.958513 452.484215 
L 319.984723 452.322687 
L 323.010933 454.858431 
L 326.037144 453.943913 
L 329.063354 455.863561 
L 338.141984 443.94872 
L 341.168194 437.989735 
L 344.194404 437.807518 
L 347.220615 440.218637 
L 350.246825 447.00805 
L 359.325455 442.441366 
L 362.351665 434.353543 
L 365.377876 436.20293 
L 368.404086 442.537254 
L 371.430296 439.352711 
L 380.508926 430.859269 
L 383.535136 419.529047 
L 386.561347 413.11684 
L 392.613767 419.697645 
L 401.692397 415.496397 
L 404.718608 409.193099 
L 407.744818 423.039362 
L 422.875868 411.01633 
L 425.902079 398.083767 
L 428.928289 380.113095 
L 431.954499 368.744058 
L 434.980709 363.889537 
L 444.05934 336.768507 
L 447.08555 331.880212 
L 450.11176 319.827246 
L 453.13797 306.435017 
L 456.16418 287.382397 
L 465.242811 288.989903 
L 468.269021 300.500072 
L 471.295231 285.782678 
L 474.321441 282.453995 
L 477.347651 282.055155 
L 486.426282 280.038608 
L 489.452492 281.873837 
L 492.478702 262.124632 
L 495.504912 266.008841 
L 498.531122 285.694848 
L 507.609753 287.403499 
L 510.635963 293.769825 
L 513.662173 306.838478 
L 516.688383 314.068942 
L 519.714593 325.186108 
L 528.793224 324.60379 
L 531.819434 326.817808 
L 534.845644 339.648152 
L 537.871854 333.079641 
L 540.898064 376.534381 
L 574.186376 352.86735 
L 577.212586 332.518884 
L 580.238796 319.204966 
L 592.343637 313.761802 
L 595.369847 328.094591 
L 598.396057 331.4024 
L 601.422268 327.312623 
L 604.448478 331.942601 
L 613.527108 328.951972 
L 616.553318 323.939554 
L 619.579528 325.007619 
L 622.605739 319.981479 
L 625.631949 326.196153 
L 634.710579 318.780768 
L 637.736789 324.458815 
L 640.763 322.279424 
L 643.78921 323.797645 
L 646.81542 335.600921 
L 655.89405 342.78857 
L 658.92026 345.558321 
L 661.946471 345.758773 
L 664.972681 346.327037 
L 667.998891 354.608513 
L 677.077521 349.100814 
L 680.103732 353.2652 
L 683.129942 353.50866 
L 686.156152 361.305266 
L 689.182362 373.368007 
L 701.287203 372.492245 
L 704.313413 362.8493 
L 707.339623 358.548355 
L 719.444464 343.139607 
L 722.470674 331.914314 
L 728.523094 317.964606 
L 731.549304 317.06187 
L 740.627935 296.334933 
L 743.654145 291.553854 
L 746.680355 280.365791 
L 749.706565 278.851451 
L 752.732775 283.334218 
L 761.811406 269.725163 
L 764.837616 270.347107 
L 767.863826 263.031357 
L 770.890036 274.012067 
L 789.047297 241.036527 
L 792.073507 218.183053 
L 795.099717 207.24234 
L 804.178348 184.095493 
L 807.204558 172.121862 
L 810.230768 155.199702 
L 813.256978 149.559905 
L 816.283188 155.250709 
L 825.361819 140.72039 
L 828.388029 136.340735 
L 831.414239 129.010651 
L 834.440449 133.059362 
L 837.466659 131.2007 
L 846.54529 113.609561 
L 849.5715 108.033748 
L 852.59771 106.096574 
L 855.62392 100.921203 
L 858.650131 126.173725 
L 867.728761 132.093985 
L 870.754971 130.874983 
L 873.781181 123.258568 
L 876.807391 119.61206 
L 879.833602 136.095789 
L 888.912232 153.23045 
L 891.938442 155.391968 
L 894.964652 161.760489 
L 897.990863 161.193127 
L 901.017073 160.245967 
L 910.095703 141.464462 
L 913.121913 124.069165 
L 916.148123 102.877615 
L 919.174334 92.701639 
L 931.279174 77.566358 
L 934.305384 79.015227 
L 937.331595 70.685551 
L 940.357805 54.868253 
L 943.384015 66.614409 
L 952.462645 78.057971 
L 955.488855 61.004955 
L 958.515066 56.949235 
L 961.541276 63.841999 
L 964.567486 83.102749 
L 973.646116 94.261388 
L 976.672327 102.854513 
L 979.698537 114.204874 
L 982.724747 115.959297 
L 985.750957 127.596299 
L 994.829587 147.666186 
L 997.855798 155.695716 
L 1000.882008 166.247242 
L 1003.908218 186.619199 
L 1006.934428 242.050733 
L 1006.934428 242.050733 
" clip-path="url(#pddf43d61b5)" style="fill: none; stroke: #008000; stroke-width: 2; stroke-linecap: square"/>
   </g>
   <g id="line2d_38">
    <path d="M 83.940331 477.854552 
L 86.966541 471.289007 
L 89.992752 466.3356 
L 93.018962 453.779606 
L 96.045172 464.837713 
L 105.123802 464.837713 
L 108.150013 466.104902 
L 111.176223 463.340375 
L 114.202433 486.26348 
L 117.228643 488.913207 
L 126.307273 487.761367 
L 129.333484 472.325499 
L 156.569375 471.289007 
L 159.595585 481.656119 
L 168.674216 449.978039 
L 171.700426 449.978039 
L 174.726636 494.212112 
L 177.752846 480.158782 
L 180.779056 476.472563 
L 189.857687 480.38893 
L 192.883897 472.440848 
L 195.910107 475.090025 
L 198.936317 479.582587 
L 211.041158 474.283682 
L 214.067368 461.727689 
L 217.093578 448.59605 
L 220.119788 448.826199 
L 223.145998 461.266843 
L 232.224629 469.445623 
L 235.250839 532.686435 
L 238.277049 483.9598 
L 241.303259 479.928084 
L 244.329469 471.403807 
L 253.4081 471.403807 
L 256.43431 472.21015 
L 262.48673 472.21015 
L 265.51294 463.801221 
L 274.591571 449.056347 
L 277.617781 458.617665 
L 286.696412 458.617665 
L 295.775042 457.580625 
L 298.801252 452.512417 
L 301.827462 432.123141 
L 304.853672 422.101526 
L 307.879883 422.101526 
L 316.958513 421.295183 
L 319.984723 417.378816 
L 323.010933 415.420633 
L 326.037144 408.048196 
L 329.063354 417.033319 
L 338.141984 414.959787 
L 341.168194 416.572473 
L 344.194404 407.702699 
L 347.220615 408.509042 
L 350.246825 401.482102 
L 359.325455 396.98954 
L 362.351665 388.926109 
L 365.377876 382.820861 
L 368.404086 384.318748 
L 371.430296 381.438872 
L 380.508926 381.899718 
L 383.535136 381.899718 
L 386.561347 367.039495 
M 392.613767 367.039495 
L 401.692397 367.039495 
L 404.718608 341.236515 
L 407.744818 330.293208 
L 422.875868 326.837687 
L 425.902079 320.962588 
L 428.928289 315.663683 
L 431.954499 330.754054 
L 434.980709 315.779032 
L 444.05934 308.521943 
L 447.08555 303.799233 
L 450.11176 308.86744 
L 453.13797 303.683884 
L 456.16418 295.620453 
L 465.242811 298.039482 
L 468.269021 298.039482 
L 471.295231 288.593513 
L 474.321441 292.970726 
L 477.347651 303.223038 
L 486.426282 303.223038 
L 489.452492 282.027419 
L 492.478702 282.373466 
L 495.504912 282.373466 
L 498.531122 274.88568 
L 507.609753 278.34175 
L 510.635963 272.927496 
L 513.662173 263.020681 
L 516.688383 263.020681 
L 519.714593 263.13603 
L 528.793224 264.28787 
L 531.819434 244.935635 
L 534.845644 231.803996 
L 537.871854 233.992328 
L 540.898064 219.708849 
L 574.186376 228.808772 
L 577.212586 200.125916 
L 580.238796 184.114402 
L 583.265007 151.51463 
L 592.343637 171.097563 
L 595.369847 198.858727 
L 598.396057 219.248003 
L 601.422268 216.13743 
L 604.448478 216.13743 
L 613.527108 215.561785 
L 616.553318 232.264293 
L 619.579528 192.523331 
L 622.605739 179.851989 
L 625.631949 183.768356 
L 634.710579 215.100939 
L 637.736789 283.525306 
L 640.763 203.812135 
L 643.78921 188.030769 
L 646.81542 219.362803 
L 655.89405 203.12114 
L 658.92026 196.555046 
L 661.946471 210.147531 
L 664.972681 220.745341 
L 667.998891 231.918796 
L 677.077521 232.955836 
L 680.103732 232.955836 
L 683.129942 212.912058 
L 686.156152 185.61174 
L 689.182362 202.429597 
L 701.287203 199.204224 
L 704.313413 169.715025 
L 707.339623 137.4613 
L 710.365833 140.571323 
L 719.444464 136.424259 
L 722.470674 139.304134 
L 725.496884 122.486277 
L 728.523094 125.135455 
L 731.549304 128.706874 
L 740.627935 123.983615 
L 743.654145 124.44446 
L 749.706565 132.277744 
L 752.732775 134.351276 
L 761.811406 145.754879 
L 764.837616 130.665057 
L 767.863826 147.482914 
L 770.890036 147.598263 
L 789.047297 139.073986 
L 792.073507 117.072023 
L 795.099717 106.013917 
L 804.178348 104.976876 
L 807.204558 98.410782 
L 810.230768 95.18541 
L 813.256978 93.803421 
L 816.283188 87.237327 
L 825.361819 114.998491 
L 828.388029 104.401231 
L 831.414239 121.103739 
L 834.440449 104.976876 
L 837.466659 107.280557 
L 846.54529 98.065285 
L 849.5715 98.065285 
L 852.59771 88.273819 
L 855.62392 79.980239 
L 858.650131 80.786582 
L 867.728761 65.466062 
L 870.754971 64.083525 
L 873.781181 60.858152 
L 876.807391 68.921583 
L 879.833602 73.874991 
L 888.912232 64.659719 
L 891.938442 64.659719 
L 894.964652 72.723151 
L 897.990863 72.723151 
L 901.017073 76.178672 
L 910.095703 65.235365 
L 913.121913 54.868253 
L 916.148123 55.098401 
L 919.174334 55.098401 
L 931.279174 68.230589 
L 934.305384 75.026831 
L 937.331595 92.881729 
L 943.384015 92.881729 
L 952.462645 102.097001 
L 955.488855 97.028794 
L 958.515066 97.028794 
L 961.541276 97.719788 
L 964.567486 91.269043 
L 973.646116 91.269043 
L 976.672327 99.563172 
L 979.698537 96.798096 
L 982.724747 107.280557 
L 985.750957 95.300759 
L 994.829587 77.445861 
L 997.855798 80.786582 
L 1000.882008 69.843275 
L 1003.908218 67.769743 
L 1006.934428 72.723151 
L 1006.934428 72.723151 
" clip-path="url(#pddf43d61b5)" style="fill: none; stroke: #00bfbf; stroke-width: 2; stroke-linecap: square"/>
   </g>
   <g id="line2d_39">
    <path d="M 114.202433 439.323119 
L 117.228643 422.971012 
L 123.281063 422.971012 
L 126.307273 459.162072 
L 129.333484 437.218987 
L 156.569375 440.886188 
L 159.595585 494.631715 
L 168.674216 494.631715 
L 171.700426 501.124464 
L 174.726636 493.970417 
L 177.752846 527.516283 
L 180.779056 499.801867 
L 189.857687 526.975221 
L 192.883897 530.522185 
L 195.910107 532.686435 
L 198.936317 514.530787 
L 201.962527 514.230196 
L 211.041158 516.454564 
L 214.067368 513.80937 
L 217.093578 461.446557 
L 220.119788 436.798161 
L 223.145998 428.141163 
L 232.224629 415.516375 
L 235.250839 435.956508 
L 238.277049 392.67152 
L 241.303259 436.918397 
L 244.329469 439.443355 
L 253.4081 427.239393 
L 256.43431 427.239393 
L 259.46052 453.210386 
L 262.48673 438.481466 
L 265.51294 421.287707 
L 274.591571 425.435851 
L 277.617781 432.169072 
L 280.643991 429.644114 
L 283.670201 445.034332 
L 286.696412 470.945208 
L 295.775042 485.614009 
L 298.801252 509.120163 
L 301.827462 524.810971 
L 304.853672 524.810971 
L 316.958513 464.933404 
L 319.984723 469.502375 
L 323.010933 492.166876 
L 326.037144 474.071346 
L 329.063354 441.72784 
L 338.141984 424.834671 
L 341.168194 414.374132 
L 344.194404 445.755749 
L 347.220615 437.158869 
L 350.246825 406.618905 
L 359.325455 418.161568 
L 362.351665 434.393439 
L 365.377876 421.287707 
L 368.404086 446.296811 
L 371.430296 419.363929 
L 380.508926 419.784756 
L 383.535136 409.985515 
L 386.561347 428.261399 
L 389.587557 428.261399 
L 392.613767 435.475564 
L 401.692397 460.003724 
L 404.718608 447.85988 
L 407.744818 417.259798 
L 419.849658 417.259798 
L 422.875868 429.944704 
L 425.902079 438.66182 
L 428.928289 468.11966 
L 431.954499 437.218987 
L 434.980709 435.836272 
L 444.05934 417.981214 
L 447.08555 420.025228 
L 450.11176 436.557689 
L 453.13797 427.539983 
L 456.16418 378.24319 
L 465.242811 378.24319 
L 468.269021 336.280798 
L 471.295231 359.486361 
L 474.321441 366.2797 
L 477.347651 370.668317 
L 486.426282 379.325315 
L 489.452492 371.449851 
L 492.478702 350.588892 
L 495.504912 363.21368 
L 498.531122 347.462753 
L 507.609753 334.717729 
L 510.635963 339.046228 
L 513.662173 334.296903 
L 516.688383 380.948502 
L 519.714593 370.908789 
L 528.793224 371.630206 
L 531.819434 406.498669 
L 534.845644 388.463257 
L 537.871854 436.497571 
L 540.898064 468.660722 
L 543.924275 468.660722 
L 574.186376 474.371936 
L 577.212586 476.476067 
L 580.238796 502.326824 
L 583.265007 507.67733 
L 586.291217 507.67733 
L 592.343637 452.609205 
L 595.369847 449.362831 
L 598.396057 428.982816 
L 601.422268 405.596898 
L 604.448478 395.436949 
L 613.527108 428.141163 
L 616.553318 410.165869 
L 619.579528 375.297406 
L 622.605739 337.843867 
L 625.631949 337.302805 
L 634.710579 377.521773 
L 637.736789 395.677422 
L 640.763 351.25019 
L 643.78921 361.891083 
L 646.81542 280.551375 
L 655.89405 311.632402 
L 658.92026 278.928188 
L 661.946471 312.654408 
L 664.972681 256.203569 
L 667.998891 242.857364 
L 677.077521 290.410734 
L 680.103732 326.962502 
L 683.129942 313.315707 
L 686.156152 323.235183 
L 689.182362 298.586787 
L 701.287203 308.92709 
L 704.313413 330.870174 
L 707.339623 334.236785 
L 710.365833 318.365622 
L 719.444464 312.654408 
L 722.470674 330.449348 
L 725.496884 311.211575 
L 728.523094 293.356517 
L 731.549304 318.065032 
L 740.627935 318.305504 
L 743.654145 287.224477 
L 746.680355 279.950195 
L 749.706565 265.461747 
L 752.732775 286.683415 
L 761.811406 268.407531 
L 764.837616 259.810651 
L 767.863826 211.115039 
L 770.890036 224.88207 
L 789.047297 259.810651 
L 792.073507 228.368916 
L 795.099717 247.426335 
L 798.125928 247.426335 
L 804.178348 221.81605 
L 807.204558 195.965293 
L 810.230768 191.276086 
L 813.256978 189.713017 
L 816.283188 121.779631 
L 825.361819 105.367406 
L 828.388029 54.868253 
L 831.414239 117.21066 
L 834.440449 121.178451 
L 837.466659 131.458636 
L 846.54529 131.458636 
L 849.5715 160.676003 
L 852.59771 161.337302 
L 855.62392 177.989999 
L 858.650131 171.797841 
L 867.728761 154.904671 
L 870.754971 162.539662 
L 873.781181 150.03511 
L 876.807391 159.23317 
L 879.833602 118.713611 
L 888.912232 116.789834 
L 891.938442 140.897168 
L 894.964652 134.885364 
L 897.990863 194.943286 
L 901.017073 174.022208 
L 910.095703 181.176255 
L 913.121913 197.88907 
L 916.148123 158.571872 
L 919.174334 178.350707 
L 931.279174 152.860658 
L 934.305384 162.59978 
L 937.331595 217.728023 
L 940.357805 217.547669 
L 943.384015 227.34691 
L 952.462645 218.689912 
L 955.488855 192.237974 
L 958.515066 175.284687 
L 961.541276 166.988397 
L 964.567486 166.988397 
L 973.646116 171.136542 
L 976.672327 130.677101 
L 979.698537 123.402818 
L 982.724747 134.885364 
L 985.750957 124.184353 
L 994.829587 90.758723 
L 997.855798 112.401217 
L 1000.882008 130.677101 
L 1003.908218 120.517153 
L 1006.934428 130.556865 
L 1016.013059 103.443629 
L 1016.013059 103.443629 
" clip-path="url(#pddf43d61b5)" style="fill: none; stroke: #ffffff; stroke-width: 2; stroke-linecap: square"/>
   </g>
   <g id="line2d_40">
    <path d="M 83.940331 470.633955 
L 86.966541 459.203222 
L 89.992752 443.894327 
L 93.018962 457.162016 
L 96.045172 463.489684 
L 105.123802 451.8549 
L 108.150013 460.223775 
L 111.176223 428.585133 
L 114.202433 426.748177 
L 117.228643 448.180789 
L 126.307273 422.461715 
L 129.333484 410.826831 
L 156.569375 384.291154 
L 159.595585 413.68444 
L 168.674216 421.032861 
L 171.700426 457.774367 
L 174.726636 436.545906 
L 177.752846 448.180789 
L 180.779056 493.495421 
L 189.857687 484.105894 
L 192.883897 459.611423 
L 195.910107 471.042256 
L 198.936317 465.939091 
L 211.041158 419.195705 
L 214.067368 426.748177 
L 217.093578 395.517737 
L 220.119788 415.317444 
L 223.145998 427.76883 
L 232.224629 427.156279 
L 235.250839 452.875453 
L 238.277049 449.405493 
L 241.303259 424.706872 
L 244.329469 426.952228 
L 253.4081 425.319323 
L 256.43431 436.341755 
L 259.46052 444.098378 
L 262.48673 421.849263 
L 265.51294 447.772588 
L 274.591571 448.180789 
L 277.617781 463.285633 
L 280.643991 470.429704 
L 283.670201 482.064588 
L 286.696412 532.686435 
L 295.775042 522.888706 
L 298.801252 505.742656 
L 301.827462 503.4972 
L 304.853672 506.559059 
L 307.879883 489.208759 
L 316.958513 475.532869 
L 319.984723 487.984155 
L 323.010933 495.740678 
L 326.037144 491.250064 
L 329.063354 472.675161 
L 338.141984 460.019724 
L 341.168194 471.042256 
L 344.194404 463.081483 
L 347.220615 475.73692 
L 350.246825 458.59087 
L 359.325455 468.592749 
L 362.351665 491.046014 
L 365.377876 463.898085 
L 368.404086 471.654508 
L 371.430296 458.386819 
L 380.508926 441.648871 
L 383.535136 440.424167 
L 386.561347 420.82871 
L 389.587557 407.764972 
L 392.613767 398.375445 
L 401.692397 404.907364 
L 404.718608 398.171295 
L 407.744818 396.74254 
L 422.875868 355.10202 
L 425.902079 320.60567 
L 428.928289 312.849147 
L 431.954499 307.746082 
L 434.980709 268.555268 
L 444.05934 227.73115 
L 447.08555 250.184515 
L 450.11176 238.14133 
L 453.13797 243.448446 
L 456.16418 239.746582 
L 465.242811 228.847439 
L 468.269021 233.782791 
L 471.295231 211.57281 
L 474.321441 203.963834 
L 477.347651 152.551641 
L 486.426282 184.427077 
L 489.452492 173.116239 
L 492.478702 158.309784 
L 495.504912 178.874582 
L 498.531122 209.927626 
L 507.609753 290.336384 
L 510.635963 225.145576 
L 513.662173 220.62152 
L 516.688383 255.787324 
L 519.714593 256.609916 
L 528.793224 219.181785 
L 531.819434 222.883448 
L 534.845644 215.891417 
L 537.871854 194.709476 
L 540.898064 223.70604 
L 574.186376 203.963834 
L 577.212586 176.612454 
L 580.238796 170.854311 
L 583.265007 148.849777 
L 592.343637 149.672569 
L 595.369847 223.294744 
L 598.396057 235.222327 
L 601.422268 224.117336 
L 604.448478 213.834937 
L 613.527108 227.202056 
L 616.553318 201.496059 
L 619.579528 204.169283 
L 622.605739 212.806697 
L 625.631949 236.456414 
L 634.710579 247.150109 
L 637.736789 284.372493 
L 640.763 268.331851 
L 643.78921 311.723773 
L 646.81542 339.075154 
L 655.89405 400.769846 
L 658.92026 371.97903 
L 661.946471 336.195982 
L 664.972681 362.107827 
L 667.998891 340.925986 
L 677.077521 337.841266 
L 680.103732 365.603843 
L 683.129942 339.692098 
L 686.156152 367.865971 
L 689.182362 382.055781 
L 701.287203 376.708834 
L 704.313413 295.066287 
L 707.339623 307.816462 
L 710.365833 293.215456 
L 719.444464 294.654991 
L 722.470674 267.714907 
L 725.496884 277.58611 
L 728.523094 248.383797 
L 731.549304 240.775022 
L 740.627935 227.407903 
L 743.654145 232.343255 
L 746.680355 206.842906 
L 749.706565 223.294744 
L 752.732775 233.988439 
L 761.811406 224.73428 
L 764.837616 244.271038 
L 767.863826 213.629289 
L 770.890036 211.984106 
L 789.047297 165.096167 
L 792.073507 141.857746 
L 795.099717 142.269042 
L 804.178348 112.861382 
L 807.204558 123.143581 
L 810.230768 92.913328 
L 813.256978 141.652098 
L 816.283188 174.555774 
L 825.361819 170.648663 
L 828.388029 155.841809 
L 831.414239 146.58765 
L 834.440449 196.971604 
L 837.466659 165.096167 
L 846.54529 138.773027 
L 849.5715 145.765058 
L 852.59771 174.144678 
L 855.62392 166.946999 
L 858.650131 209.310682 
L 867.728761 224.322984 
L 870.754971 216.919657 
L 873.781181 206.842906 
L 876.807391 208.282442 
L 879.833602 230.698271 
L 888.912232 286.429072 
L 891.938442 244.887782 
L 894.964652 265.247331 
L 897.990863 273.061754 
L 901.017073 250.646125 
L 910.095703 188.540236 
L 913.121913 170.443015 
L 916.148123 143.50313 
L 919.174334 130.135812 
L 931.279174 93.324624 
L 934.305384 132.809235 
L 937.331595 97.84888 
L 940.357805 77.284082 
L 943.384015 123.349428 
L 952.462645 100.111007 
L 955.488855 54.868253 
L 958.515066 57.747325 
L 961.541276 125.817204 
L 964.567486 115.12331 
L 973.646116 133.837475 
L 976.672327 165.301815 
L 979.698537 187.1007 
L 982.724747 135.071363 
L 985.750957 156.870248 
L 994.829587 240.363726 
L 997.855798 215.480121 
L 1000.882008 239.137425 
L 1003.908218 279.962042 
L 1006.934428 374.381917 
L 1006.934428 374.381917 
" clip-path="url(#pddf43d61b5)" style="fill: none; stroke: #ff0000; stroke-width: 2; stroke-linecap: square"/>
   </g>
   <g id="patch_3">
    <path d="M 37.336695 556.577344 
L 37.336695 30.977344 
" style="fill: none; stroke: #30363d; stroke-width: 0.8; stroke-linejoin: miter; stroke-linecap: square"/>
   </g>
   <g id="patch_4">
    <path d="M 1062.616695 556.577344 
L 1062.616695 30.977344 
" style="fill: none; stroke: #30363d; stroke-width: 0.8; stroke-linejoin: miter; stroke-linecap: square"/>
   </g>
   <g id="patch_5">
    <path d="M 37.336695 556.577344 
L 1062.616695 556.577344 
" style="fill: none; stroke: #30363d; stroke-width: 0.8; stroke-linejoin: miter; stroke-linecap: square"/>
   </g>
   <g id="patch_6">
    <path d="M 37.336695 30.977344 
L 1062.616695 30.977344 
" style="fill: none; stroke: #30363d; stroke-width: 0.8; stroke-linejoin: miter; stroke-linecap: square"/>
   </g>
   <g id="text_19">
    <!-- 2026-07-20 -->
    <g style="fill: #8b949e; opacity: 0.6" transform="translate(1007.363895 550.196344) scale(0.09 -0.09)">
     <use xlink:href="#SimHei-32"/>
     <use xlink:href="#SimHei-30" transform="translate(50 0)"/>
     <use xlink:href="#SimHei-32" transform="translate(100 0)"/>
     <use xlink:href="#SimHei-36" transform="translate(150 0)"/>
     <use xlink:href="#SimHei-2d" transform="translate(200 0)"/>
     <use xlink:href="#SimHei-30" transform="translate(250 0)"/>
     <use xlink:href="#SimHei-37" transform="translate(300 0)"/>
     <use xlink:href="#SimHei-2d" transform="translate(350 0)"/>
     <use xlink:href="#SimHei-32" transform="translate(400 0)"/>
     <use xlink:href="#SimHei-30" transform="translate(450 0)"/>
    </g>
   </g>
   <g id="text_20">
    <!-- 归一化指标对比 -->
    <g style="fill: #c9d1d9" transform="translate(497.476695 18.977344) scale(0.15 -0.15)">
     <defs>
      <path id="SimHei-5f52" d="M 2600 800 
Q 3075 775 3600 775 
L 5300 775 
L 5300 2275 
L 4150 2275 
Q 3550 2275 3100 2250 
L 3100 2725 
Q 3550 2700 4150 2700 
L 5300 2700 
L 5300 4175 
L 3775 4175 
Q 3300 4175 2800 4150 
L 2800 4625 
Q 3250 4600 3725 4600 
L 5850 4600 
Q 5825 4075 5825 3775 
L 5825 825 
Q 5825 200 5850 -300 
L 5300 -300 
L 5300 350 
L 3600 350 
Q 3075 350 2600 325 
L 2600 800 
z
M 350 -150 
Q 1125 325 1475 975 
Q 1825 1625 1900 2362 
Q 1975 3100 1962 3837 
Q 1950 4575 1925 5125 
L 2475 5125 
Q 2450 4725 2450 3950 
Q 2450 3175 2400 2437 
Q 2350 1700 2012 950 
Q 1675 200 800 -550 
Q 625 -325 350 -150 
z
M 500 1225 
Q 525 1650 525 2050 
L 525 3700 
Q 525 4125 500 4475 
L 1050 4475 
Q 1025 4100 1025 3700 
L 1025 2050 
Q 1025 1650 1050 1225 
L 500 1225 
z
" transform="scale(0.015625)"/>
      <path id="SimHei-4e00" d="M 4875 2675 
Q 5525 2675 6050 2700 
L 6050 2050 
Q 5525 2075 4900 2075 
L 1600 2075 
Q 950 2075 350 2050 
L 350 2700 
Q 950 2675 1600 2675 
L 4875 2675 
z
" transform="scale(0.015625)"/>
      <path id="SimHei-5316" d="M 3925 5025 
Q 3900 4900 3900 4400 
L 3900 2625 
Q 4375 3025 4775 3450 
Q 5175 3875 5400 4300 
Q 5600 4100 5900 3925 
Q 5700 3700 5225 3212 
Q 4750 2725 4487 2512 
Q 4225 2300 3900 2025 
L 3900 450 
Q 3900 50 4225 50 
L 5200 50 
Q 5400 75 5462 262 
Q 5525 450 5575 850 
Q 5800 650 6150 600 
Q 6000 -100 5825 -250 
Q 5650 -400 5350 -400 
L 3950 -400 
Q 3425 -400 3400 200 
L 3400 1675 
Q 3225 1525 2962 1350 
Q 2700 1175 2375 975 
Q 2225 1225 2025 1400 
Q 2350 1550 2737 1787 
Q 3125 2025 3400 2250 
L 3400 4500 
Q 3400 4800 3375 5025 
L 3925 5025 
z
M 2400 4850 
Q 2175 4550 2075 4337 
Q 1975 4125 1825 3775 
L 1825 675 
Q 1825 -75 1850 -550 
L 1325 -550 
Q 1350 -125 1350 650 
L 1350 3050 
Q 1125 2725 962 2525 
Q 800 2325 675 2175 
Q 500 2375 275 2525 
Q 625 2850 875 3212 
Q 1125 3575 1312 3912 
Q 1500 4250 1625 4575 
Q 1750 4900 1825 5100 
Q 1975 4975 2400 4850 
z
" transform="scale(0.015625)"/>
      <path id="SimHei-6307" d="M 5625 2225 
Q 5600 1925 5600 1350 
L 5600 300 
Q 5600 -225 5625 -525 
L 5125 -525 
L 5125 -125 
L 3300 -125 
L 3300 -625 
L 2800 -625 
Q 2825 -300 2825 300 
L 2825 1350 
Q 2825 1925 2800 2225 
L 5625 2225 
z
M 500 25 
Q 1075 -25 1175 37 
Q 1275 100 1275 275 
L 1275 1675 
Q 1050 1600 925 1537 
Q 800 1475 475 1275 
Q 400 1525 225 1800 
Q 625 1900 825 1975 
Q 1025 2050 1275 2125 
L 1275 3300 
L 1100 3300 
Q 775 3300 450 3275 
L 450 3725 
Q 750 3700 1100 3700 
L 1275 3700 
L 1275 4450 
Q 1275 4800 1250 5125 
L 1775 5125 
Q 1750 4850 1750 4450 
L 1750 3700 
Q 2075 3700 2425 3725 
L 2425 3275 
Q 2050 3300 1750 3300 
L 1750 2325 
Q 1850 2350 2025 2425 
L 2375 2575 
Q 2350 2300 2375 2100 
Q 2225 2050 2062 1987 
Q 1900 1925 1750 1850 
L 1750 100 
Q 1725 -200 1575 -337 
Q 1425 -475 675 -525 
Q 625 -250 500 25 
z
M 3325 5025 
Q 3300 4675 3300 4125 
Q 4125 4275 4512 4412 
Q 4900 4550 5225 4725 
Q 5325 4475 5575 4250 
Q 5450 4225 5237 4175 
Q 5025 4125 4725 4050 
Q 4425 3975 4037 3887 
Q 3650 3800 3300 3725 
L 3300 3175 
Q 3275 2925 3700 2925 
L 4925 2925 
Q 5300 2925 5387 3087 
Q 5475 3250 5550 3600 
Q 5750 3400 6050 3300 
Q 5825 2725 5700 2637 
Q 5575 2550 5275 2525 
L 3350 2525 
Q 3050 2525 2937 2687 
Q 2825 2850 2825 2975 
L 2825 4125 
Q 2825 4775 2800 5025 
L 3325 5025 
z
M 5125 275 
L 5125 875 
L 3300 875 
L 3300 275 
L 5125 275 
z
M 5125 1250 
L 5125 1825 
L 3300 1825 
L 3300 1250 
L 5125 1250 
z
" transform="scale(0.015625)"/>
      <path id="SimHei-6807" d="M 1275 4400 
Q 1275 4800 1250 5175 
L 1750 5175 
Q 1725 4825 1725 4400 
L 1725 3800 
Q 2125 3800 2575 3825 
L 2575 3350 
Q 2125 3375 1725 3375 
L 1725 2525 
Q 1900 2650 2075 2800 
Q 2400 2275 2650 1775 
Q 2375 1650 2175 1500 
Q 2025 2000 1725 2425 
L 1725 475 
Q 1725 -50 1750 -575 
L 1250 -575 
Q 1275 -25 1275 475 
L 1275 2100 
Q 1025 1400 500 750 
Q 350 950 125 1125 
Q 550 1550 812 2187 
Q 1075 2825 1150 3375 
Q 675 3375 325 3325 
L 325 3825 
Q 800 3800 1275 3800 
L 1275 4400 
z
M 5175 3125 
Q 5675 3125 6050 3150 
L 6050 2675 
Q 5675 2700 5275 2700 
L 4500 2700 
L 4500 175 
Q 4500 -225 4275 -350 
Q 4050 -475 3475 -550 
Q 3425 -250 3275 25 
Q 3775 25 3900 62 
Q 4025 100 4025 350 
L 4025 2700 
L 3400 2700 
Q 2775 2700 2500 2650 
L 2500 3150 
Q 2825 3125 3400 3125 
L 5175 3125 
z
M 4900 4775 
Q 5425 4775 5750 4800 
L 5750 4300 
Q 5275 4350 4750 4350 
L 3525 4350 
Q 3125 4350 2750 4300 
L 2750 4800 
Q 3100 4775 3525 4775 
L 4900 4775 
z
M 5275 2025 
Q 5825 1175 6200 500 
Q 5925 375 5650 200 
Q 5375 925 4825 1725 
Q 5075 1850 5275 2025 
z
M 3600 1775 
Q 3500 1625 3225 975 
Q 2950 325 2800 50 
Q 2575 175 2300 275 
Q 2625 775 2787 1187 
Q 2950 1600 3050 2000 
Q 3325 1875 3600 1775 
z
" transform="scale(0.015625)"/>
      <path id="SimHei-5bf9" d="M 525 4250 
Q 900 4225 1400 4225 
L 2825 4225 
Q 2575 2625 2200 1750 
Q 2825 875 3125 400 
Q 2950 275 2725 75 
Q 2200 975 1950 1300 
Q 1650 775 1350 425 
Q 1050 75 600 -350 
Q 425 -125 200 -25 
Q 625 275 975 675 
Q 1325 1075 1650 1700 
Q 1050 2425 550 2900 
Q 700 3025 900 3225 
Q 1625 2425 1875 2150 
Q 2200 3050 2300 3825 
L 1400 3825 
Q 900 3825 525 3800 
L 525 4250 
z
M 2925 3700 
Q 3525 3675 3750 3675 
L 4825 3675 
L 4825 4425 
Q 4825 4750 4775 5125 
L 5350 5125 
Q 5325 4825 5325 4375 
L 5325 3675 
Q 5575 3675 6150 3700 
L 6150 3250 
Q 5575 3275 5325 3275 
L 5325 125 
Q 5350 -350 5012 -475 
Q 4675 -600 4250 -650 
Q 4175 -350 4025 -100 
Q 4575 -100 4712 -37 
Q 4850 25 4825 325 
L 4825 3275 
L 3775 3275 
Q 3550 3275 2925 3225 
L 2925 3700 
z
M 3450 2725 
Q 3875 1975 4175 1325 
Q 3850 1200 3700 1075 
Q 3475 1750 3050 2475 
Q 3225 2550 3450 2725 
z
" transform="scale(0.015625)"/>
      <path id="SimHei-6bd4" d="M 3775 5100 
Q 3750 4575 3750 4100 
L 3750 3050 
Q 4925 3600 5475 4175 
Q 5675 3900 5900 3675 
Q 5600 3500 5037 3187 
Q 4475 2875 3750 2550 
L 3750 450 
Q 3750 100 4050 100 
L 5000 100 
Q 5175 100 5262 250 
Q 5350 400 5450 900 
Q 5650 775 6025 675 
Q 5850 0 5650 -175 
Q 5450 -350 5225 -350 
L 3900 -350 
Q 3250 -350 3250 275 
L 3250 4000 
Q 3250 4550 3225 5100 
L 3775 5100 
z
M 1275 4975 
Q 1250 4575 1250 4000 
L 1250 3150 
L 1850 3150 
Q 2325 3150 2875 3175 
L 2875 2650 
Q 2325 2675 1850 2675 
L 1250 2675 
L 1250 475 
Q 1650 650 1962 812 
Q 2275 975 2850 1275 
Q 2900 950 2950 750 
Q 2375 475 1762 175 
Q 1150 -125 925 -325 
Q 750 -100 575 200 
Q 700 300 750 600 
L 750 3950 
Q 750 4550 725 4975 
L 1275 4975 
z
" transform="scale(0.015625)"/>
     </defs>
     <use xlink:href="#SimHei-5f52"/>
     <use xlink:href="#SimHei-4e00" transform="translate(100 0)"/>
     <use xlink:href="#SimHei-5316" transform="translate(200 0)"/>
     <use xlink:href="#SimHei-6307" transform="translate(300 0)"/>
     <use xlink:href="#SimHei-6807" transform="translate(400 0)"/>
     <use xlink:href="#SimHei-5bf9" transform="translate(500 0)"/>
     <use xlink:href="#SimHei-6bd4" transform="translate(600 0)"/>
    </g>
   </g>
   <g id="legend_1">
    <g id="patch_7">
     <path d="M 44.336695 94.883594 
L 136.336695 94.883594 
Q 138.336695 94.883594 138.336695 92.883594 
L 138.336695 37.977344 
Q 138.336695 35.977344 136.336695 35.977344 
L 44.336695 35.977344 
Q 42.336695 35.977344 42.336695 37.977344 
L 42.336695 92.883594 
Q 42.336695 94.883594 44.336695 94.883594 
z
" style="fill: #161b22; opacity: 0.9; stroke: #30363d; stroke-linejoin: miter"/>
    </g>
    <g id="line2d_41">
     <path d="M 46.336695 44.524219 
L 56.336695 44.524219 
L 66.336695 44.524219 
" style="fill: none; stroke: #008000; stroke-width: 2; stroke-linecap: square"/>
    </g>
    <g id="text_21">
     <!-- 融资余额 -->
     <g style="fill: #c9d1d9" transform="translate(74.336695 48.024219) scale(0.1 -0.1)">
      <defs>
       <path id="SimHei-878d" d="M 5200 975 
Q 5400 1025 5650 1125 
Q 5775 775 5887 475 
Q 6000 175 6150 -350 
Q 5925 -425 5675 -500 
Q 5575 -175 5500 50 
Q 4825 -100 4362 -212 
Q 3900 -325 3400 -500 
Q 3325 -225 3200 0 
Q 3575 25 4350 175 
L 4350 1750 
L 3850 1750 
L 3850 1225 
L 3375 1225 
Q 3400 1975 3400 2675 
Q 3400 3400 3375 3925 
L 4350 3925 
Q 4350 4925 4325 5200 
L 4825 5200 
Q 4800 4875 4800 3925 
L 5775 3925 
Q 5750 3325 5750 2700 
Q 5750 2100 5775 1550 
L 5300 1550 
L 5300 1750 
L 4800 1750 
L 4800 250 
Q 5075 325 5400 400 
Q 5325 650 5200 975 
z
M 2025 -50 
Q 2425 -50 2475 -12 
Q 2525 25 2550 150 
L 2550 1975 
L 825 1975 
L 825 -500 
L 350 -500 
Q 375 100 375 475 
L 375 1400 
Q 375 1850 350 2350 
L 3000 2350 
Q 2975 1950 2975 1450 
L 2975 -25 
Q 2975 -325 2787 -387 
Q 2600 -450 2225 -525 
Q 2125 -225 2025 -50 
z
M 625 2725 
Q 650 3050 650 3350 
Q 650 3675 625 3975 
L 2850 3975 
Q 2825 3675 2825 3350 
Q 2825 3050 2850 2725 
L 625 2725 
z
M 3000 4450 
Q 2650 4475 2175 4475 
L 1200 4475 
Q 625 4475 250 4450 
L 250 4875 
Q 550 4850 1125 4850 
L 2175 4850 
Q 2700 4850 3000 4875 
L 3000 4450 
z
M 2325 1675 
Q 2175 1475 2000 1025 
L 2325 1025 
L 2325 675 
L 1850 675 
L 1850 -125 
L 1425 -125 
L 1425 675 
L 1025 675 
L 1025 1025 
L 1700 1025 
Q 1875 1500 1925 1825 
Q 2100 1700 2325 1675 
z
M 5300 2125 
L 5300 3550 
L 4800 3550 
L 4800 2125 
L 5300 2125 
z
M 4350 2125 
L 4350 3550 
L 3850 3550 
L 3850 2125 
L 4350 2125 
z
M 2350 3100 
L 2350 3600 
L 1100 3600 
L 1100 3100 
L 2350 3100 
z
M 1575 1275 
Q 1400 1225 1225 1150 
Q 1150 1425 1025 1675 
L 1325 1825 
Q 1425 1550 1575 1275 
z
" transform="scale(0.015625)"/>
       <path id="SimHei-8d44" d="M 5300 2150 
Q 5275 1825 5275 1450 
Q 5275 1075 5300 575 
L 4800 575 
L 4800 1725 
L 1700 1725 
L 1700 425 
L 1200 425 
Q 1225 1000 1225 1375 
Q 1225 1775 1200 2150 
L 5300 2150 
z
M 4225 4075 
Q 4050 3775 4200 3562 
Q 4350 3350 4612 3162 
Q 4875 2975 5262 2850 
Q 5650 2725 6125 2700 
Q 5925 2425 5825 2175 
Q 5200 2300 4712 2550 
Q 4225 2800 3900 3350 
Q 3675 2775 3250 2550 
Q 2825 2325 2325 2175 
Q 2125 2400 1925 2575 
Q 2975 2775 3300 3175 
Q 3625 3575 3650 4150 
L 4225 4075 
z
M 3125 4250 
Q 2825 3850 2550 3650 
Q 2375 3825 2175 3950 
Q 2475 4150 2737 4487 
Q 3000 4825 3150 5200 
Q 3375 5100 3700 5050 
Q 3575 4825 3400 4650 
L 5750 4650 
Q 5675 4500 5300 3675 
Q 5000 3750 4800 3775 
Q 4925 4050 5025 4250 
L 3125 4250 
z
M 3525 1375 
Q 3400 1100 3337 825 
Q 3275 550 3012 262 
Q 2750 -25 2250 -275 
Q 1750 -525 800 -675 
Q 725 -425 500 -200 
Q 1225 -175 1712 -12 
Q 2200 150 2450 350 
Q 2700 550 2812 837 
Q 2925 1125 2925 1450 
Q 3225 1400 3525 1375 
z
M 3825 700 
Q 4300 525 4750 350 
Q 5200 175 5825 -100 
Q 5675 -300 5550 -600 
Q 5075 -325 4612 -125 
Q 4150 75 3625 250 
Q 3750 450 3825 700 
z
M 2075 3325 
Q 1450 2750 875 2050 
Q 625 2325 475 2425 
Q 1275 3050 1725 3625 
Q 1850 3500 2075 3325 
z
M 1700 3975 
Q 1300 4275 625 4675 
Q 800 4850 925 5025 
Q 1150 4875 2000 4350 
Q 1850 4200 1700 3975 
z
" transform="scale(0.015625)"/>
       <path id="SimHei-4f59" d="M 3850 3050 
Q 4150 3050 4525 3075 
L 4525 2600 
Q 4225 2625 3850 2625 
L 3450 2625 
L 3450 1825 
L 4475 1825 
Q 5050 1825 5375 1850 
L 5375 1350 
Q 5025 1375 4500 1375 
L 3450 1375 
L 3450 -75 
Q 3450 -450 3187 -525 
Q 2925 -600 2550 -650 
Q 2525 -425 2350 -50 
Q 2825 -75 2887 -25 
Q 2950 25 2950 175 
L 2950 1375 
L 1800 1375 
Q 1225 1375 900 1350 
L 900 1850 
Q 1200 1825 1800 1825 
L 2950 1825 
L 2950 2625 
L 2550 2625 
Q 2325 2625 1825 2600 
L 1825 3075 
Q 2225 3050 2525 3050 
L 3850 3050 
z
M 3400 4850 
Q 4450 3575 6150 3300 
Q 5925 3150 5750 2700 
Q 4150 3250 3100 4550 
Q 2375 3350 800 2400 
Q 450 2725 325 2800 
Q 1475 3325 2112 4100 
Q 2750 4875 2900 5275 
Q 3150 5175 3550 5050 
L 3400 4850 
z
M 2325 700 
Q 2075 500 1625 112 
Q 1175 -275 925 -450 
Q 725 -225 525 -50 
Q 1600 675 1900 1075 
Q 2100 875 2325 700 
z
M 4400 1175 
Q 4750 850 5025 550 
L 5600 0 
Q 5375 -175 5125 -400 
Q 4875 25 4050 850 
Q 4200 950 4400 1175 
z
" transform="scale(0.015625)"/>
       <path id="SimHei-989d" d="M 1925 3700 
Q 1725 3550 1550 3350 
L 2950 3350 
Q 2875 3150 2700 2875 
Q 2525 2600 2300 2300 
Q 2500 2200 2712 2075 
Q 2925 1950 3275 1725 
Q 3125 1575 2950 1325 
Q 2700 1525 2475 1662 
Q 2250 1800 1950 1950 
Q 1575 1650 1150 1375 
L 2800 1375 
Q 2775 950 2775 500 
Q 2775 50 2800 -450 
L 2325 -450 
L 2325 -50 
L 1325 -50 
L 1325 -575 
L 875 -575 
Q 900 -75 900 275 
L 900 1175 
Q 675 1075 550 1000 
Q 400 1225 225 1400 
Q 625 1550 975 1762 
Q 1325 1975 1550 2200 
Q 1300 2350 1075 2475 
Q 1175 2625 1350 2800 
Q 1625 2650 1925 2500 
Q 2150 2750 2300 3000 
L 1300 3000 
Q 1200 2875 1025 2687 
Q 850 2500 650 2275 
Q 475 2425 250 2575 
Q 650 2875 937 3237 
Q 1225 3600 1375 3925 
Q 1650 3800 1925 3700 
z
M 4150 4400 
Q 3775 4400 3375 4375 
L 3375 4825 
Q 3750 4800 4200 4800 
L 5300 4800 
Q 5600 4800 6000 4825 
L 6000 4375 
Q 5625 4400 5300 4400 
L 4950 4400 
Q 4850 3975 4725 3525 
L 5750 3525 
Q 5725 3125 5725 2775 
L 5725 1625 
Q 5725 1300 5750 825 
L 5300 825 
L 5300 3175 
L 3925 3175 
L 3925 800 
L 3450 800 
Q 3475 1275 3475 1650 
L 3475 2800 
Q 3475 3175 3450 3525 
L 4300 3525 
Q 4400 4025 4450 4400 
L 4150 4400 
z
M 2050 5100 
Q 2100 4825 2200 4475 
L 3225 4475 
Q 3200 4275 3200 4075 
Q 3200 3875 3225 3675 
L 2775 3675 
L 2775 4100 
L 875 4100 
L 875 3500 
L 400 3500 
Q 425 3775 425 4000 
Q 425 4250 400 4475 
L 1650 4475 
Q 1550 4750 1475 5000 
Q 1800 5050 2050 5100 
z
M 4925 2725 
Q 4850 2425 4837 2025 
Q 4825 1625 4712 1175 
Q 4600 725 4262 250 
Q 3925 -225 3250 -675 
Q 3050 -425 2850 -250 
Q 3375 -25 3687 262 
Q 4000 550 4162 937 
Q 4325 1325 4350 1750 
Q 4375 2175 4375 2775 
Q 4575 2750 4925 2725 
z
M 2325 325 
L 2325 1025 
L 1325 1025 
L 1325 325 
L 2325 325 
z
M 5075 800 
Q 5300 575 5487 400 
Q 5675 225 6025 -100 
Q 5800 -275 5600 -500 
Q 5450 -275 5275 -87 
Q 5100 100 4675 400 
Q 4875 575 5075 800 
z
" transform="scale(0.015625)"/>
      </defs>
      <use xlink:href="#SimHei-878d"/>
      <use xlink:href="#SimHei-8d44" transform="translate(100 0)"/>
      <use xlink:href="#SimHei-4f59" transform="translate(200 0)"/>
      <use xlink:href="#SimHei-989d" transform="translate(300 0)"/>
     </g>
    </g>
    <g id="line2d_42">
     <path d="M 46.336695 58.547656 
L 56.336695 58.547656 
L 66.336695 58.547656 
" style="fill: none; stroke: #00bfbf; stroke-width: 2; stroke-linecap: square"/>
    </g>
    <g id="text_22">
     <!-- 汇率 -->
     <g style="fill: #c9d1d9" transform="translate(74.336695 62.047656) scale(0.1 -0.1)">
      <defs>
       <path id="SimHei-6c47" d="M 4700 4675 
Q 5200 4675 5775 4700 
L 5775 4225 
Q 5200 4250 4700 4250 
L 2950 4250 
L 2950 100 
L 4850 100 
Q 5375 100 5950 125 
L 5950 -375 
Q 5375 -350 4950 -350 
L 2450 -350 
Q 2475 400 2475 825 
L 2475 3625 
Q 2475 4200 2450 4675 
L 4700 4675 
z
M 2175 1550 
Q 1525 525 1300 175 
Q 1075 -175 825 -525 
Q 600 -275 375 -175 
Q 725 225 1062 675 
Q 1400 1125 1800 1900 
Q 1925 1750 2175 1550 
z
M 625 3425 
Q 1175 3150 1800 2750 
Q 1675 2625 1500 2300 
Q 975 2700 350 3000 
Q 475 3150 625 3425 
z
M 950 5050 
Q 1450 4725 2025 4275 
Q 1800 4050 1675 3875 
Q 1175 4350 650 4675 
Q 850 4900 950 5050 
z
" transform="scale(0.015625)"/>
       <path id="SimHei-7387" d="M 3325 5150 
Q 3425 4900 3550 4525 
L 4800 4525 
Q 5250 4525 5800 4550 
L 5800 4125 
Q 5250 4175 4775 4175 
L 2800 4175 
Q 2975 4050 3300 3900 
Q 3075 3750 2875 3537 
Q 2675 3325 2475 3125 
L 3275 3125 
Q 3575 3425 3775 3775 
Q 4000 3600 4275 3425 
Q 3950 3250 3600 2875 
Q 3250 2500 2625 2000 
L 3850 2100 
Q 3725 2250 3600 2425 
Q 3750 2475 4000 2650 
Q 4250 2350 4700 1700 
Q 4475 1625 4225 1450 
Q 4175 1600 4025 1775 
Q 3700 1750 3425 1750 
L 3425 1050 
L 5150 1050 
Q 5675 1050 6100 1075 
L 6100 650 
Q 5700 675 5125 675 
L 3425 675 
L 3425 175 
Q 3425 -300 3450 -625 
L 2900 -625 
Q 2925 -300 2925 175 
L 2925 675 
L 1325 675 
Q 825 675 325 650 
L 325 1075 
Q 825 1050 1350 1050 
L 2925 1050 
L 2925 1700 
Q 2700 1675 2475 1637 
Q 2250 1600 2025 1525 
Q 1950 1775 1850 2000 
Q 2075 2025 2325 2200 
Q 2575 2375 2975 2800 
Q 2300 2725 2025 2625 
Q 1975 2875 1850 3175 
Q 2075 3175 2325 3487 
Q 2575 3800 2750 4175 
L 1700 4175 
Q 1150 4175 650 4125 
L 650 4550 
Q 1150 4525 1550 4525 
L 2975 4525 
Q 2900 4825 2800 5025 
Q 3025 5075 3325 5150 
z
M 1625 2575 
Q 1725 2400 1825 2200 
Q 1575 2050 1325 1862 
Q 1075 1675 800 1425 
Q 625 1675 475 1875 
Q 800 2025 1100 2212 
Q 1400 2400 1625 2575 
z
M 4850 2650 
Q 5125 2475 5337 2337 
Q 5550 2200 5875 1950 
Q 5675 1800 5500 1600 
Q 5300 1775 5062 1975 
Q 4825 2175 4575 2325 
Q 4725 2475 4850 2650 
z
M 5725 3525 
Q 5550 3450 5300 3262 
Q 5050 3075 4800 2825 
Q 4625 3050 4475 3175 
Q 4700 3325 4875 3487 
Q 5050 3650 5300 3925 
Q 5525 3700 5725 3525 
z
M 1050 3850 
Q 1425 3600 1775 3275 
Q 1575 3100 1425 2925 
Q 1075 3300 675 3525 
Q 875 3700 1050 3850 
z
" transform="scale(0.015625)"/>
      </defs>
      <use xlink:href="#SimHei-6c47"/>
      <use xlink:href="#SimHei-7387" transform="translate(100 0)"/>
     </g>
    </g>
    <g id="line2d_43">
     <path d="M 46.336695 72.883594 
L 56.336695 72.883594 
L 66.336695 72.883594 
" style="fill: none; stroke: #ffffff; stroke-width: 2; stroke-linecap: square"/>
    </g>
    <g id="text_23">
     <!-- 中美国债利差 -->
     <g style="fill: #c9d1d9" transform="translate(74.336695 76.383594) scale(0.1 -0.1)">
      <defs>
       <path id="SimHei-4e2d" d="M 3475 5200 
Q 3450 4500 3450 3875 
L 5625 3875 
Q 5600 3375 5600 2500 
Q 5600 1650 5625 1225 
L 5075 1225 
L 5075 1600 
L 3450 1600 
L 3450 525 
Q 3450 225 3475 -600 
L 2875 -600 
Q 2925 -150 2925 450 
L 2925 1600 
L 1300 1600 
L 1300 1225 
L 750 1225 
Q 775 1600 775 2500 
Q 775 3425 750 3875 
L 2925 3875 
Q 2925 4550 2900 5200 
L 3475 5200 
z
M 5075 2000 
L 5075 3475 
L 3450 3475 
L 3450 2000 
L 5075 2000 
z
M 2925 2000 
L 2925 3475 
L 1300 3475 
L 1300 2000 
L 2925 2000 
z
" transform="scale(0.015625)"/>
       <path id="SimHei-7f8e" d="M 4650 5000 
Q 4525 4900 4150 4350 
L 4800 4350 
Q 5300 4350 5575 4375 
L 5575 3950 
Q 5300 3975 4800 3975 
L 3450 3975 
L 3450 3375 
L 4475 3375 
Q 4875 3375 5250 3400 
L 5250 3000 
Q 4875 3025 4475 3025 
L 3450 3025 
L 3450 2450 
L 5025 2450 
Q 5500 2450 5900 2475 
L 5900 2050 
Q 5525 2075 5025 2075 
L 1425 2075 
Q 900 2075 525 2050 
L 525 2475 
Q 900 2450 1425 2450 
L 3000 2450 
L 3000 3025 
L 2050 3025 
Q 1625 3025 1200 3000 
L 1200 3400 
Q 1625 3375 2050 3375 
L 3000 3375 
L 3000 3975 
L 1725 3975 
Q 1325 3975 850 3950 
L 850 4375 
Q 1325 4350 1725 4350 
L 2250 4350 
Q 2100 4625 1800 4975 
Q 2000 5100 2175 5225 
L 2700 4550 
Q 2475 4450 2325 4350 
L 3675 4350 
Q 3900 4700 4150 5275 
Q 4350 5125 4650 5000 
z
M 525 -225 
Q 950 -175 1425 -25 
Q 1900 125 2275 412 
Q 2650 700 2800 1050 
L 1875 1050 
Q 1325 1050 725 1025 
L 725 1450 
Q 1325 1425 1875 1425 
L 2900 1425 
Q 2925 1750 2925 1975 
Q 3250 1875 3500 1875 
Q 3425 1650 3375 1425 
L 4600 1425 
Q 5250 1425 5725 1450 
L 5725 1025 
Q 5250 1050 4625 1050 
L 3600 1050 
Q 3900 700 4187 500 
Q 4475 300 4700 200 
Q 4925 100 5225 12 
Q 5525 -75 6050 -150 
Q 5900 -375 5750 -675 
Q 5175 -550 4775 -362 
Q 4375 -175 3962 137 
Q 3550 450 3225 900 
Q 3000 525 2787 300 
Q 2575 75 2250 -125 
Q 1925 -325 1575 -462 
Q 1225 -600 825 -700 
Q 750 -475 525 -225 
z
" transform="scale(0.015625)"/>
       <path id="SimHei-56fd" d="M 5775 4975 
Q 5750 4350 5750 3575 
L 5750 900 
Q 5750 125 5775 -625 
L 5275 -625 
L 5275 -275 
L 1125 -275 
L 1125 -650 
L 625 -650 
Q 650 125 650 950 
L 650 3575 
Q 650 4325 625 4975 
L 5775 4975 
z
M 5275 100 
L 5275 4600 
L 1125 4600 
L 1125 100 
L 5275 100 
z
M 3975 3925 
Q 4350 3925 4775 3950 
L 4775 3500 
Q 4400 3525 3975 3525 
L 3350 3525 
L 3350 2700 
L 3800 2700 
Q 4250 2700 4650 2725 
L 4650 2275 
Q 4250 2300 3800 2300 
L 3350 2300 
L 3350 1175 
L 4050 1175 
Q 4500 1175 4900 1200 
L 4900 750 
Q 4525 775 4050 775 
L 2350 775 
Q 1925 775 1500 750 
L 1500 1200 
Q 1925 1175 2350 1175 
L 2900 1175 
L 2900 2300 
L 2550 2300 
Q 2125 2300 1750 2275 
L 1750 2725 
Q 2125 2700 2550 2700 
L 2900 2700 
L 2900 3525 
L 2525 3525 
Q 2075 3525 1650 3500 
L 1650 3950 
Q 2075 3925 2525 3925 
L 3975 3925 
z
M 4050 2125 
Q 4175 2000 4550 1600 
Q 4300 1450 4125 1325 
Q 4050 1425 3700 1850 
Q 3900 2000 4050 2125 
z
" transform="scale(0.015625)"/>
       <path id="SimHei-503a" d="M 3750 4600 
Q 3750 4900 3725 5200 
L 4275 5200 
Q 4250 4875 4250 4600 
L 5000 4600 
Q 5550 4600 5800 4625 
L 5800 4200 
Q 5525 4225 5000 4225 
L 4250 4225 
L 4250 3850 
L 4875 3850 
Q 5250 3850 5625 3875 
L 5625 3450 
Q 5325 3475 4875 3475 
L 4250 3475 
L 4250 3100 
L 5150 3100 
Q 5725 3100 6050 3125 
L 6050 2700 
Q 5675 2725 5150 2725 
L 2875 2725 
Q 2400 2725 2000 2700 
L 2000 3125 
Q 2375 3100 2850 3100 
L 3750 3100 
L 3750 3475 
L 3325 3475 
Q 2850 3475 2500 3450 
L 2500 3875 
Q 2850 3850 3300 3850 
L 3750 3850 
L 3750 4225 
L 3225 4225 
Q 2675 4225 2300 4200 
L 2300 4625 
Q 2650 4600 3125 4600 
L 3750 4600 
z
M 250 2600 
Q 500 2875 887 3550 
Q 1275 4225 1500 5075 
Q 1750 4950 2100 4850 
Q 1900 4625 1550 3775 
L 1550 800 
Q 1550 -25 1575 -500 
L 1050 -500 
Q 1075 0 1075 825 
L 1075 2950 
Q 775 2450 625 2225 
L 250 2600 
z
M 5650 2300 
Q 5625 2100 5625 1550 
Q 5625 1025 5650 775 
L 5150 775 
L 5150 1925 
L 2975 1925 
L 2975 700 
L 2475 700 
Q 2500 1075 2500 1550 
Q 2500 2050 2475 2300 
L 5650 2300 
z
M 1950 -150 
Q 3250 25 3562 562 
Q 3875 1100 3800 1650 
L 4350 1600 
Q 4275 600 3825 112 
Q 3375 -375 2250 -600 
Q 2125 -350 1950 -150 
z
M 4675 675 
Q 5075 475 5412 300 
Q 5750 125 6050 -75 
Q 5900 -250 5750 -525 
Q 4875 125 4400 300 
Q 4525 500 4675 675 
z
" transform="scale(0.015625)"/>
       <path id="SimHei-5229" d="M 2400 2650 
Q 2950 2150 3500 1525 
Q 3325 1375 3125 1150 
Q 2775 1675 2400 2075 
L 2400 225 
Q 2400 -375 2425 -675 
L 1875 -675 
Q 1900 -350 1900 225 
L 1900 1975 
Q 1625 1450 1375 1100 
Q 1125 750 725 275 
Q 575 525 300 700 
Q 850 1150 1287 1837 
Q 1725 2525 1850 2950 
L 1375 2950 
Q 775 2950 500 2925 
L 500 3400 
Q 800 3375 1375 3375 
L 1900 3375 
L 1900 4350 
Q 1400 4250 825 4150 
Q 750 4400 625 4625 
Q 1050 4650 1800 4800 
Q 2550 4950 3225 5175 
Q 3350 4875 3550 4650 
Q 3050 4575 2400 4450 
L 2400 3375 
L 2825 3375 
Q 3350 3375 3750 3400 
L 3750 2925 
Q 3350 2950 2850 2950 
L 2400 2950 
L 2400 2650 
z
M 5775 5125 
Q 5750 4875 5750 4275 
L 5750 -100 
Q 5750 -400 5512 -487 
Q 5275 -575 4675 -675 
Q 4600 -300 4500 -75 
Q 5025 -100 5137 -50 
Q 5250 0 5250 150 
L 5250 4300 
Q 5250 4650 5225 5125 
L 5775 5125 
z
M 4625 4100 
Q 4600 3800 4600 3300 
L 4600 1725 
Q 4600 1200 4625 825 
L 4075 825 
Q 4100 1275 4100 1725 
L 4100 3300 
Q 4100 3700 4075 4100 
L 4625 4100 
z
" transform="scale(0.015625)"/>
       <path id="SimHei-5dee" d="M 4725 4975 
Q 4500 4725 4250 4275 
L 4850 4275 
Q 5450 4275 5825 4300 
L 5825 3850 
Q 5425 3875 4850 3875 
L 3275 3875 
Q 3225 3600 3150 3275 
L 4525 3275 
Q 5075 3275 5525 3300 
L 5525 2850 
Q 5075 2875 4500 2875 
L 3050 2875 
Q 2975 2650 2850 2325 
L 5125 2325 
Q 5675 2325 6025 2350 
L 6025 1900 
Q 5700 1925 5150 1925 
L 2650 1925 
Q 2425 1550 2250 1300 
Q 2650 1275 3100 1275 
L 4525 1275 
Q 4975 1275 5350 1300 
L 5350 850 
Q 4975 875 4575 875 
L 3925 875 
L 3925 -50 
L 5000 -50 
Q 5200 -50 5900 -25 
L 5900 -500 
Q 5275 -475 5025 -475 
L 2100 -475 
Q 1700 -475 1400 -500 
L 1400 -25 
Q 1775 -50 2125 -50 
L 3425 -50 
L 3425 875 
L 3100 875 
Q 2625 875 2175 850 
L 2175 1200 
Q 1925 875 1487 475 
Q 1050 75 625 -250 
Q 425 -25 200 150 
Q 750 475 1262 925 
Q 1775 1375 2100 1925 
L 1325 1925 
Q 750 1925 375 1900 
L 375 2350 
Q 750 2325 1350 2325 
L 2325 2325 
Q 2450 2575 2550 2875 
L 1725 2875 
Q 1375 2875 1000 2850 
L 1000 3300 
Q 1500 3275 1700 3275 
L 2650 3275 
Q 2725 3575 2775 3875 
L 1500 3875 
Q 1100 3875 650 3850 
L 650 4300 
Q 1025 4275 1425 4275 
L 2275 4275 
Q 2075 4675 1850 4950 
Q 2025 5050 2250 5225 
Q 2450 4975 2725 4550 
Q 2525 4450 2325 4275 
L 3750 4275 
Q 4000 4700 4150 5250 
Q 4400 5100 4725 4975 
z
" transform="scale(0.015625)"/>
      </defs>
      <use xlink:href="#SimHei-4e2d"/>
      <use xlink:href="#SimHei-7f8e" transform="translate(100 0)"/>
      <use xlink:href="#SimHei-56fd" transform="translate(200 0)"/>
      <use xlink:href="#SimHei-503a" transform="translate(300 0)"/>
      <use xlink:href="#SimHei-5229" transform="translate(400 0)"/>
      <use xlink:href="#SimHei-5dee" transform="translate(500 0)"/>
     </g>
    </g>
    <g id="line2d_44">
     <path d="M 46.336695 86.133594 
L 56.336695 86.133594 
L 66.336695 86.133594 
" style="fill: none; stroke: #ff0000; stroke-width: 2; stroke-linecap: square"/>
    </g>
    <g id="text_24">
     <!-- 500ETF -->
     <g style="fill: #c9d1d9" transform="translate(74.336695 89.633594) scale(0.1 -0.1)">
      <defs>
       <path id="SimHei-45" d="M 2900 125 
L 350 125 
L 350 4400 
L 2775 4400 
L 2775 3925 
L 925 3925 
L 925 2600 
L 2625 2600 
L 2625 2125 
L 925 2125 
L 925 600 
L 2900 600 
L 2900 125 
z
" transform="scale(0.015625)"/>
       <path id="SimHei-54" d="M 2850 3925 
L 1850 3925 
L 1850 125 
L 1275 125 
L 1275 3925 
L 275 3925 
L 275 4400 
L 2850 4400 
L 2850 3925 
z
" transform="scale(0.015625)"/>
       <path id="SimHei-46" d="M 2925 3925 
L 875 3925 
L 875 2525 
L 2425 2525 
L 2425 2050 
L 875 2050 
L 875 125 
L 300 125 
L 300 4400 
L 2925 4400 
L 2925 3925 
z
" transform="scale(0.015625)"/>
      </defs>
      <use xlink:href="#SimHei-35"/>
      <use xlink:href="#SimHei-30" transform="translate(50 0)"/>
      <use xlink:href="#SimHei-30" transform="translate(100 0)"/>
      <use xlink:href="#SimHei-45" transform="translate(150 0)"/>
      <use xlink:href="#SimHei-54" transform="translate(200 0)"/>
      <use xlink:href="#SimHei-46" transform="translate(250 0)"/>
     </g>
    </g>
   </g>
  </g>
 </g>
 <defs>
  <clipPath id="pddf43d61b5">
   <rect x="37.336695" y="30.977344" width="1025.28" height="525.6"/>
  </clipPath>
 </defs>
</svg>
