<?xml version="1.0" encoding="utf-8" standalone="no"?>
<!DOCTYPE svg PUBLIC "-//W3C//DTD SVG 1.1//EN"
  "http://www.w3.org/Graphics/SVG/1.1/DTD/svg11.dtd">
<svg xmlns:xlink="http://www.w3.org/1999/xlink" width="1061.68pt" height="595.606769pt" viewBox="0 0 1061.68 595.606769" xmlns="http://www.w3.org/2000/svg" version="1.1">
 <metadata>
  <rdf:RDF xmlns:dc="http://purl.org/dc/elements/1.1/" xmlns:cc="http://creativecommons.org/ns#" xmlns:rdf="http://www.w3.org/1999/02/22-rdf-syntax-ns#">
   <cc:Work>
    <dc:type rdf:resource="http://purl.org/dc/dcmitype/StillImage"/>
    <dc:date>2026-07-24T10:24:53.975396</dc:date>
    <dc:format>image/svg+xml</dc:format>
    <dc:creator>
     <cc:Agent>
      <dc:title>Matplotlib v3.10.9, https://matplotlib.org/</dc:title>
     </cc:Agent>
    </dc:creator>
   </cc:Work>
  </rdf:RDF>
 </metadata>
 <defs>
  <style type="text/css">*{stroke-linejoin: round; stroke-linecap: butt}</style>
 </defs>
 <g id="figure_1">
  <g id="patch_1">
   <path d="M 0 595.606769 
L 1061.68 595.606769 
L 1061.68 0 
L 0 0 
z
" style="fill: #0d1117"/>
  </g>
  <g id="axes_1">
   <g id="patch_2">
    <path d="M 29.2 556.870312 
L 1054.48 556.870312 
L 1054.48 31.270312 
L 29.2 31.270312 
z
" style="fill: #161b22"/>
   </g>
   <g id="matplotlib.axis_1">
    <g id="xtick_1">
     <g id="line2d_1">
      <path d="M 112.236447 556.870312 
L 112.236447 31.270312 
" clip-path="url(#pc8cdc36b1c)" style="fill: none; stroke-dasharray: 2.96,1.28; stroke-dashoffset: 0; stroke: #21262d; stroke-opacity: 0.4; stroke-width: 0.8"/>
     </g>
     <g id="line2d_2">
      <defs>
       <path id="m41d885ea4e" d="M 0 0 
L 0 3.5 
" style="stroke: #c9d1d9; stroke-width: 0.8"/>
      </defs>
      <g>
       <use xlink:href="#m41d885ea4e" x="112.236447" y="556.870312" style="fill: #c9d1d9; stroke: #c9d1d9; stroke-width: 0.8"/>
      </g>
     </g>
     <g id="text_1">
      <!-- 2025-10 -->
      <g style="fill: #c9d1d9" transform="translate(81.300557 587.324237) rotate(-30) scale(0.1 -0.1)">
       <defs>
        <path id="SimHei-32" d="M 300 250 
Q 325 625 650 925 
Q 975 1225 1475 1862 
Q 1975 2500 2125 2850 
Q 2275 3200 2237 3450 
Q 2200 3700 2000 3862 
Q 1800 4025 1537 4000 
Q 1275 3975 1037 3800 
Q 800 3625 675 3275 
L 200 3350 
Q 400 3925 712 4187 
Q 1025 4450 1450 4475 
Q 1700 4500 1900 4462 
Q 2100 4425 2312 4287 
Q 2525 4150 2662 3875 
Q 2800 3600 2762 3212 
Q 2725 2825 2375 2287 
Q 2025 1750 1025 600 
L 2825 600 
L 2825 150 
L 300 150 
L 300 250 
z
" transform="scale(0.015625)"/>
        <path id="SimHei-30" d="M 225 2537 
Q 250 3200 412 3587 
Q 575 3975 875 4225 
Q 1175 4475 1612 4475 
Q 2050 4475 2375 4112 
Q 2700 3750 2800 3200 
Q 2900 2650 2862 1937 
Q 2825 1225 2612 775 
Q 2400 325 1975 150 
Q 1550 -25 1125 187 
Q 700 400 525 750 
Q 350 1100 275 1487 
Q 200 1875 225 2537 
z
M 750 2687 
Q 675 2000 800 1462 
Q 925 925 1212 700 
Q 1500 475 1800 612 
Q 2100 750 2237 1162 
Q 2375 1575 2375 2062 
Q 2375 2550 2337 2950 
Q 2300 3350 2112 3675 
Q 1925 4000 1612 4012 
Q 1300 4025 1062 3700 
Q 825 3375 750 2687 
z
" transform="scale(0.015625)"/>
        <path id="SimHei-35" d="M 550 1325 
Q 725 650 1150 575 
Q 1575 500 1837 662 
Q 2100 825 2212 1087 
Q 2325 1350 2312 1675 
Q 2300 2000 2137 2225 
Q 1975 2450 1725 2525 
Q 1475 2600 1162 2525 
Q 850 2450 650 2175 
L 225 2225 
Q 275 2375 700 4375 
L 2675 4375 
L 2675 3925 
L 1075 3925 
Q 950 3250 825 2850 
Q 1200 3025 1525 3012 
Q 1850 3000 2150 2862 
Q 2450 2725 2587 2487 
Q 2725 2250 2787 2012 
Q 2850 1775 2837 1500 
Q 2825 1225 2725 937 
Q 2625 650 2425 462 
Q 2225 275 1937 162 
Q 1650 50 1275 75 
Q 900 100 562 350 
Q 225 600 100 1200 
L 550 1325 
z
" transform="scale(0.015625)"/>
        <path id="SimHei-2d" d="M 2975 2125 
L 125 2125 
L 125 2525 
L 2975 2525 
L 2975 2125 
z
" transform="scale(0.015625)"/>
        <path id="SimHei-31" d="M 1400 3600 
Q 1075 3275 575 2975 
L 575 3450 
Q 1200 3875 1600 4450 
L 1900 4450 
L 1900 150 
L 1400 150 
L 1400 3600 
z
" transform="scale(0.015625)"/>
       </defs>
       <use xlink:href="#SimHei-32"/>
       <use xlink:href="#SimHei-30" transform="translate(50 0)"/>
       <use xlink:href="#SimHei-32" transform="translate(100 0)"/>
       <use xlink:href="#SimHei-35" transform="translate(150 0)"/>
       <use xlink:href="#SimHei-2d" transform="translate(200 0)"/>
       <use xlink:href="#SimHei-31" transform="translate(250 0)"/>
       <use xlink:href="#SimHei-30" transform="translate(300 0)"/>
      </g>
     </g>
    </g>
    <g id="xtick_2">
     <g id="line2d_3">
      <path d="M 206.35454 556.870312 
L 206.35454 31.270312 
" clip-path="url(#pc8cdc36b1c)" style="fill: none; stroke-dasharray: 2.96,1.28; stroke-dashoffset: 0; stroke: #21262d; stroke-opacity: 0.4; stroke-width: 0.8"/>
     </g>
     <g id="line2d_4">
      <g>
       <use xlink:href="#m41d885ea4e" x="206.35454" y="556.870312" style="fill: #c9d1d9; stroke: #c9d1d9; stroke-width: 0.8"/>
      </g>
     </g>
     <g id="text_2">
      <!-- 2025-11 -->
      <g style="fill: #c9d1d9" transform="translate(175.41865 587.324237) rotate(-30) scale(0.1 -0.1)">
       <use xlink:href="#SimHei-32"/>
       <use xlink:href="#SimHei-30" transform="translate(50 0)"/>
       <use xlink:href="#SimHei-32" transform="translate(100 0)"/>
       <use xlink:href="#SimHei-35" transform="translate(150 0)"/>
       <use xlink:href="#SimHei-2d" transform="translate(200 0)"/>
       <use xlink:href="#SimHei-31" transform="translate(250 0)"/>
       <use xlink:href="#SimHei-31" transform="translate(300 0)"/>
      </g>
     </g>
    </g>
    <g id="xtick_3">
     <g id="line2d_5">
      <path d="M 297.436565 556.870312 
L 297.436565 31.270312 
" clip-path="url(#pc8cdc36b1c)" style="fill: none; stroke-dasharray: 2.96,1.28; stroke-dashoffset: 0; stroke: #21262d; stroke-opacity: 0.4; stroke-width: 0.8"/>
     </g>
     <g id="line2d_6">
      <g>
       <use xlink:href="#m41d885ea4e" x="297.436565" y="556.870312" style="fill: #c9d1d9; stroke: #c9d1d9; stroke-width: 0.8"/>
      </g>
     </g>
     <g id="text_3">
      <!-- 2025-12 -->
      <g style="fill: #c9d1d9" transform="translate(266.500676 587.324237) rotate(-30) scale(0.1 -0.1)">
       <use xlink:href="#SimHei-32"/>
       <use xlink:href="#SimHei-30" transform="translate(50 0)"/>
       <use xlink:href="#SimHei-32" transform="translate(100 0)"/>
       <use xlink:href="#SimHei-35" transform="translate(150 0)"/>
       <use xlink:href="#SimHei-2d" transform="translate(200 0)"/>
       <use xlink:href="#SimHei-31" transform="translate(250 0)"/>
       <use xlink:href="#SimHei-32" transform="translate(300 0)"/>
      </g>
     </g>
    </g>
    <g id="xtick_4">
     <g id="line2d_7">
      <path d="M 391.554658 556.870312 
L 391.554658 31.270312 
" clip-path="url(#pc8cdc36b1c)" style="fill: none; stroke-dasharray: 2.96,1.28; stroke-dashoffset: 0; stroke: #21262d; stroke-opacity: 0.4; stroke-width: 0.8"/>
     </g>
     <g id="line2d_8">
      <g>
       <use xlink:href="#m41d885ea4e" x="391.554658" y="556.870312" style="fill: #c9d1d9; stroke: #c9d1d9; stroke-width: 0.8"/>
      </g>
     </g>
     <g id="text_4">
      <!-- 2026-01 -->
      <g style="fill: #c9d1d9" transform="translate(360.618769 587.324237) rotate(-30) scale(0.1 -0.1)">
       <defs>
        <path id="SimHei-36" d="M 250 1612 
Q 275 1975 387 2225 
Q 500 2475 725 2850 
L 1750 4450 
L 2325 4450 
L 1275 2800 
Q 1950 2975 2350 2750 
Q 2750 2525 2887 2237 
Q 3025 1950 3037 1612 
Q 3050 1275 2937 950 
Q 2825 625 2537 362 
Q 2250 100 1737 75 
Q 1225 50 862 262 
Q 500 475 362 862 
Q 225 1250 250 1612 
z
M 1025 787 
Q 1250 550 1625 525 
Q 2000 500 2250 775 
Q 2500 1050 2500 1575 
Q 2500 2100 2187 2300 
Q 1875 2500 1487 2450 
Q 1100 2400 925 2075 
Q 750 1750 775 1387 
Q 800 1025 1025 787 
z
" transform="scale(0.015625)"/>
       </defs>
       <use xlink:href="#SimHei-32"/>
       <use xlink:href="#SimHei-30" transform="translate(50 0)"/>
       <use xlink:href="#SimHei-32" transform="translate(100 0)"/>
       <use xlink:href="#SimHei-36" transform="translate(150 0)"/>
       <use xlink:href="#SimHei-2d" transform="translate(200 0)"/>
       <use xlink:href="#SimHei-30" transform="translate(250 0)"/>
       <use xlink:href="#SimHei-31" transform="translate(300 0)"/>
      </g>
     </g>
    </g>
    <g id="xtick_5">
     <g id="line2d_9">
      <path d="M 485.672751 556.870312 
L 485.672751 31.270312 
" clip-path="url(#pc8cdc36b1c)" style="fill: none; stroke-dasharray: 2.96,1.28; stroke-dashoffset: 0; stroke: #21262d; stroke-opacity: 0.4; stroke-width: 0.8"/>
     </g>
     <g id="line2d_10">
      <g>
       <use xlink:href="#m41d885ea4e" x="485.672751" y="556.870312" style="fill: #c9d1d9; stroke: #c9d1d9; stroke-width: 0.8"/>
      </g>
     </g>
     <g id="text_5">
      <!-- 2026-02 -->
      <g style="fill: #c9d1d9" transform="translate(454.736862 587.324237) rotate(-30) scale(0.1 -0.1)">
       <use xlink:href="#SimHei-32"/>
       <use xlink:href="#SimHei-30" transform="translate(50 0)"/>
       <use xlink:href="#SimHei-32" transform="translate(100 0)"/>
       <use xlink:href="#SimHei-36" transform="translate(150 0)"/>
       <use xlink:href="#SimHei-2d" transform="translate(200 0)"/>
       <use xlink:href="#SimHei-30" transform="translate(250 0)"/>
       <use xlink:href="#SimHei-32" transform="translate(300 0)"/>
      </g>
     </g>
    </g>
    <g id="xtick_6">
     <g id="line2d_11">
      <path d="M 570.682641 556.870312 
L 570.682641 31.270312 
" clip-path="url(#pc8cdc36b1c)" style="fill: none; stroke-dasharray: 2.96,1.28; stroke-dashoffset: 0; stroke: #21262d; stroke-opacity: 0.4; stroke-width: 0.8"/>
     </g>
     <g id="line2d_12">
      <g>
       <use xlink:href="#m41d885ea4e" x="570.682641" y="556.870312" style="fill: #c9d1d9; stroke: #c9d1d9; stroke-width: 0.8"/>
      </g>
     </g>
     <g id="text_6">
      <!-- 2026-03 -->
      <g style="fill: #c9d1d9" transform="translate(539.746752 587.324237) rotate(-30) scale(0.1 -0.1)">
       <defs>
        <path id="SimHei-33" d="M 250 1225 
L 700 1300 
Q 800 975 1025 762 
Q 1250 550 1587 562 
Q 1925 575 2125 837 
Q 2325 1100 2300 1437 
Q 2275 1775 2037 1962 
Q 1800 2150 1275 2225 
L 1275 2550 
Q 1800 2600 2037 2825 
Q 2275 3050 2250 3412 
Q 2225 3775 1925 3937 
Q 1625 4100 1287 3975 
Q 950 3850 750 3275 
L 300 3350 
Q 450 3800 712 4100 
Q 975 4400 1425 4450 
Q 1875 4500 2212 4337 
Q 2550 4175 2687 3837 
Q 2825 3500 2725 3100 
Q 2625 2700 2150 2400 
Q 2500 2250 2687 1950 
Q 2875 1650 2812 1162 
Q 2750 675 2375 375 
Q 2000 75 1525 87 
Q 1050 100 700 387 
Q 350 675 250 1225 
z
" transform="scale(0.015625)"/>
       </defs>
       <use xlink:href="#SimHei-32"/>
       <use xlink:href="#SimHei-30" transform="translate(50 0)"/>
       <use xlink:href="#SimHei-32" transform="translate(100 0)"/>
       <use xlink:href="#SimHei-36" transform="translate(150 0)"/>
       <use xlink:href="#SimHei-2d" transform="translate(200 0)"/>
       <use xlink:href="#SimHei-30" transform="translate(250 0)"/>
       <use xlink:href="#SimHei-33" transform="translate(300 0)"/>
      </g>
     </g>
    </g>
    <g id="xtick_7">
     <g id="line2d_13">
      <path d="M 664.800734 556.870312 
L 664.800734 31.270312 
" clip-path="url(#pc8cdc36b1c)" style="fill: none; stroke-dasharray: 2.96,1.28; stroke-dashoffset: 0; stroke: #21262d; stroke-opacity: 0.4; stroke-width: 0.8"/>
     </g>
     <g id="line2d_14">
      <g>
       <use xlink:href="#m41d885ea4e" x="664.800734" y="556.870312" style="fill: #c9d1d9; stroke: #c9d1d9; stroke-width: 0.8"/>
      </g>
     </g>
     <g id="text_7">
      <!-- 2026-04 -->
      <g style="fill: #c9d1d9" transform="translate(633.864845 587.324237) rotate(-30) scale(0.1 -0.1)">
       <defs>
        <path id="SimHei-34" d="M 2000 1100 
L 75 1100 
L 75 1525 
L 2100 4450 
L 2475 4450 
L 2475 1525 
L 3075 1525 
L 3075 1100 
L 2475 1100 
L 2475 150 
L 2000 150 
L 2000 1100 
z
M 2000 1525 
L 2000 3500 
L 600 1525 
L 2000 1525 
z
" transform="scale(0.015625)"/>
       </defs>
       <use xlink:href="#SimHei-32"/>
       <use xlink:href="#SimHei-30" transform="translate(50 0)"/>
       <use xlink:href="#SimHei-32" transform="translate(100 0)"/>
       <use xlink:href="#SimHei-36" transform="translate(150 0)"/>
       <use xlink:href="#SimHei-2d" transform="translate(200 0)"/>
       <use xlink:href="#SimHei-30" transform="translate(250 0)"/>
       <use xlink:href="#SimHei-34" transform="translate(300 0)"/>
      </g>
     </g>
    </g>
    <g id="xtick_8">
     <g id="line2d_15">
      <path d="M 755.88276 556.870312 
L 755.88276 31.270312 
" clip-path="url(#pc8cdc36b1c)" style="fill: none; stroke-dasharray: 2.96,1.28; stroke-dashoffset: 0; stroke: #21262d; stroke-opacity: 0.4; stroke-width: 0.8"/>
     </g>
     <g id="line2d_16">
      <g>
       <use xlink:href="#m41d885ea4e" x="755.88276" y="556.870312" style="fill: #c9d1d9; stroke: #c9d1d9; stroke-width: 0.8"/>
      </g>
     </g>
     <g id="text_8">
      <!-- 2026-05 -->
      <g style="fill: #c9d1d9" transform="translate(724.946871 587.324237) rotate(-30) scale(0.1 -0.1)">
       <use xlink:href="#SimHei-32"/>
       <use xlink:href="#SimHei-30" transform="translate(50 0)"/>
       <use xlink:href="#SimHei-32" transform="translate(100 0)"/>
       <use xlink:href="#SimHei-36" transform="translate(150 0)"/>
       <use xlink:href="#SimHei-2d" transform="translate(200 0)"/>
       <use xlink:href="#SimHei-30" transform="translate(250 0)"/>
       <use xlink:href="#SimHei-35" transform="translate(300 0)"/>
      </g>
     </g>
    </g>
    <g id="xtick_9">
     <g id="line2d_17">
      <path d="M 850.000853 556.870312 
L 850.000853 31.270312 
" clip-path="url(#pc8cdc36b1c)" style="fill: none; stroke-dasharray: 2.96,1.28; stroke-dashoffset: 0; stroke: #21262d; stroke-opacity: 0.4; stroke-width: 0.8"/>
     </g>
     <g id="line2d_18">
      <g>
       <use xlink:href="#m41d885ea4e" x="850.000853" y="556.870312" style="fill: #c9d1d9; stroke: #c9d1d9; stroke-width: 0.8"/>
      </g>
     </g>
     <g id="text_9">
      <!-- 2026-06 -->
      <g style="fill: #c9d1d9" transform="translate(819.064964 587.324237) rotate(-30) scale(0.1 -0.1)">
       <use xlink:href="#SimHei-32"/>
       <use xlink:href="#SimHei-30" transform="translate(50 0)"/>
       <use xlink:href="#SimHei-32" transform="translate(100 0)"/>
       <use xlink:href="#SimHei-36" transform="translate(150 0)"/>
       <use xlink:href="#SimHei-2d" transform="translate(200 0)"/>
       <use xlink:href="#SimHei-30" transform="translate(250 0)"/>
       <use xlink:href="#SimHei-36" transform="translate(300 0)"/>
      </g>
     </g>
    </g>
    <g id="xtick_10">
     <g id="line2d_19">
      <path d="M 941.082878 556.870312 
L 941.082878 31.270312 
" clip-path="url(#pc8cdc36b1c)" style="fill: none; stroke-dasharray: 2.96,1.28; stroke-dashoffset: 0; stroke: #21262d; stroke-opacity: 0.4; stroke-width: 0.8"/>
     </g>
     <g id="line2d_20">
      <g>
       <use xlink:href="#m41d885ea4e" x="941.082878" y="556.870312" style="fill: #c9d1d9; stroke: #c9d1d9; stroke-width: 0.8"/>
      </g>
     </g>
     <g id="text_10">
      <!-- 2026-07 -->
      <g style="fill: #c9d1d9" transform="translate(910.146989 587.324237) rotate(-30) scale(0.1 -0.1)">
       <defs>
        <path id="SimHei-37" d="M 850 150 
Q 1300 2050 2425 3925 
L 275 3925 
L 275 4375 
L 2950 4375 
L 2950 3950 
Q 1775 2050 1400 150 
L 850 150 
z
" transform="scale(0.015625)"/>
       </defs>
       <use xlink:href="#SimHei-32"/>
       <use xlink:href="#SimHei-30" transform="translate(50 0)"/>
       <use xlink:href="#SimHei-32" transform="translate(100 0)"/>
       <use xlink:href="#SimHei-36" transform="translate(150 0)"/>
       <use xlink:href="#SimHei-2d" transform="translate(200 0)"/>
       <use xlink:href="#SimHei-30" transform="translate(250 0)"/>
       <use xlink:href="#SimHei-37" transform="translate(300 0)"/>
      </g>
     </g>
    </g>
    <g id="xtick_11">
     <g id="line2d_21">
      <path d="M 1035.200971 556.870312 
L 1035.200971 31.270312 
" clip-path="url(#pc8cdc36b1c)" style="fill: none; stroke-dasharray: 2.96,1.28; stroke-dashoffset: 0; stroke: #21262d; stroke-opacity: 0.4; stroke-width: 0.8"/>
     </g>
     <g id="line2d_22">
      <g>
       <use xlink:href="#m41d885ea4e" x="1035.200971" y="556.870312" style="fill: #c9d1d9; stroke: #c9d1d9; stroke-width: 0.8"/>
      </g>
     </g>
     <g id="text_11">
      <!-- 2026-08 -->
      <g style="fill: #c9d1d9" transform="translate(1004.265082 587.324237) rotate(-30) scale(0.1 -0.1)">
       <defs>
        <path id="SimHei-38" d="M 175 1375 
Q 175 1675 325 1962 
Q 475 2250 825 2425 
Q 525 2600 425 2812 
Q 325 3025 312 3300 
Q 300 3575 387 3775 
Q 475 3975 650 4150 
Q 825 4325 1037 4387 
Q 1250 4450 1500 4450 
Q 1750 4450 1950 4400 
Q 2150 4350 2375 4187 
Q 2600 4025 2700 3725 
Q 2800 3425 2687 3025 
Q 2575 2625 2100 2400 
Q 2525 2275 2700 2012 
Q 2875 1750 2875 1375 
Q 2875 1000 2762 775 
Q 2650 550 2512 400 
Q 2375 250 2137 162 
Q 1900 75 1537 75 
Q 1175 75 912 162 
Q 650 250 475 425 
Q 300 600 237 837 
Q 175 1075 175 1375 
z
M 687 1400 
Q 675 1100 787 875 
Q 900 650 1200 587 
Q 1500 525 1825 600 
Q 2150 675 2275 950 
Q 2400 1225 2362 1500 
Q 2325 1775 2050 1962 
Q 1775 2150 1450 2125 
Q 1125 2100 912 1900 
Q 700 1700 687 1400 
z
M 775 3350 
Q 775 3100 950 2875 
Q 1125 2650 1500 2650 
Q 1875 2650 2062 2875 
Q 2250 3100 2237 3412 
Q 2225 3725 2012 3875 
Q 1800 4025 1437 4000 
Q 1075 3975 925 3787 
Q 775 3600 775 3350 
z
" transform="scale(0.015625)"/>
       </defs>
       <use xlink:href="#SimHei-32"/>
       <use xlink:href="#SimHei-30" transform="translate(50 0)"/>
       <use xlink:href="#SimHei-32" transform="translate(100 0)"/>
       <use xlink:href="#SimHei-36" transform="translate(150 0)"/>
       <use xlink:href="#SimHei-2d" transform="translate(200 0)"/>
       <use xlink:href="#SimHei-30" transform="translate(250 0)"/>
       <use xlink:href="#SimHei-38" transform="translate(300 0)"/>
      </g>
     </g>
    </g>
   </g>
   <g id="matplotlib.axis_2">
    <g id="ytick_1">
     <g id="line2d_23">
      <path d="M 29.2 532.979403 
L 1054.48 532.979403 
" clip-path="url(#pc8cdc36b1c)" style="fill: none; stroke-dasharray: 2.96,1.28; stroke-dashoffset: 0; stroke: #21262d; stroke-opacity: 0.4; stroke-width: 0.8"/>
     </g>
     <g id="line2d_24">
      <defs>
       <path id="md1861389c4" d="M 0 0 
L -3.5 0 
" style="stroke: #c9d1d9; stroke-width: 0.8"/>
      </defs>
      <g>
       <use xlink:href="#md1861389c4" x="29.2" y="532.979403" style="fill: #c9d1d9; stroke: #c9d1d9; stroke-width: 0.8"/>
      </g>
     </g>
     <g id="text_12">
      <!-- 0.0 -->
      <g style="fill: #c9d1d9" transform="translate(7.2 536.416903) scale(0.1 -0.1)">
       <defs>
        <path id="SimHei-2e" d="M 1075 125 
L 500 125 
L 500 675 
L 1075 675 
L 1075 125 
z
" transform="scale(0.015625)"/>
       </defs>
       <use xlink:href="#SimHei-30"/>
       <use xlink:href="#SimHei-2e" transform="translate(50 0)"/>
       <use xlink:href="#SimHei-30" transform="translate(100 0)"/>
      </g>
     </g>
    </g>
    <g id="ytick_2">
     <g id="line2d_25">
      <path d="M 29.2 437.415767 
L 1054.48 437.415767 
" clip-path="url(#pc8cdc36b1c)" style="fill: none; stroke-dasharray: 2.96,1.28; stroke-dashoffset: 0; stroke: #21262d; stroke-opacity: 0.4; stroke-width: 0.8"/>
     </g>
     <g id="line2d_26">
      <g>
       <use xlink:href="#md1861389c4" x="29.2" y="437.415767" style="fill: #c9d1d9; stroke: #c9d1d9; stroke-width: 0.8"/>
      </g>
     </g>
     <g id="text_13">
      <!-- 0.2 -->
      <g style="fill: #c9d1d9" transform="translate(7.2 440.853267) scale(0.1 -0.1)">
       <use xlink:href="#SimHei-30"/>
       <use xlink:href="#SimHei-2e" transform="translate(50 0)"/>
       <use xlink:href="#SimHei-32" transform="translate(100 0)"/>
      </g>
     </g>
    </g>
    <g id="ytick_3">
     <g id="line2d_27">
      <path d="M 29.2 341.852131 
L 1054.48 341.852131 
" clip-path="url(#pc8cdc36b1c)" style="fill: none; stroke-dasharray: 2.96,1.28; stroke-dashoffset: 0; stroke: #21262d; stroke-opacity: 0.4; stroke-width: 0.8"/>
     </g>
     <g id="line2d_28">
      <g>
       <use xlink:href="#md1861389c4" x="29.2" y="341.852131" style="fill: #c9d1d9; stroke: #c9d1d9; stroke-width: 0.8"/>
      </g>
     </g>
     <g id="text_14">
      <!-- 0.4 -->
      <g style="fill: #c9d1d9" transform="translate(7.2 345.289631) scale(0.1 -0.1)">
       <use xlink:href="#SimHei-30"/>
       <use xlink:href="#SimHei-2e" transform="translate(50 0)"/>
       <use xlink:href="#SimHei-34" transform="translate(100 0)"/>
      </g>
     </g>
    </g>
    <g id="ytick_4">
     <g id="line2d_29">
      <path d="M 29.2 246.288494 
L 1054.48 246.288494 
" clip-path="url(#pc8cdc36b1c)" style="fill: none; stroke-dasharray: 2.96,1.28; stroke-dashoffset: 0; stroke: #21262d; stroke-opacity: 0.4; stroke-width: 0.8"/>
     </g>
     <g id="line2d_30">
      <g>
       <use xlink:href="#md1861389c4" x="29.2" y="246.288494" style="fill: #c9d1d9; stroke: #c9d1d9; stroke-width: 0.8"/>
      </g>
     </g>
     <g id="text_15">
      <!-- 0.6 -->
      <g style="fill: #c9d1d9" transform="translate(7.2 249.725994) scale(0.1 -0.1)">
       <use xlink:href="#SimHei-30"/>
       <use xlink:href="#SimHei-2e" transform="translate(50 0)"/>
       <use xlink:href="#SimHei-36" transform="translate(100 0)"/>
      </g>
     </g>
    </g>
    <g id="ytick_5">
     <g id="line2d_31">
      <path d="M 29.2 150.724858 
L 1054.48 150.724858 
" clip-path="url(#pc8cdc36b1c)" style="fill: none; stroke-dasharray: 2.96,1.28; stroke-dashoffset: 0; stroke: #21262d; stroke-opacity: 0.4; stroke-width: 0.8"/>
     </g>
     <g id="line2d_32">
      <g>
       <use xlink:href="#md1861389c4" x="29.2" y="150.724858" style="fill: #c9d1d9; stroke: #c9d1d9; stroke-width: 0.8"/>
      </g>
     </g>
     <g id="text_16">
      <!-- 0.8 -->
      <g style="fill: #c9d1d9" transform="translate(7.2 154.162358) scale(0.1 -0.1)">
       <use xlink:href="#SimHei-30"/>
       <use xlink:href="#SimHei-2e" transform="translate(50 0)"/>
       <use xlink:href="#SimHei-38" transform="translate(100 0)"/>
      </g>
     </g>
    </g>
    <g id="ytick_6">
     <g id="line2d_33">
      <path d="M 29.2 55.161222 
L 1054.48 55.161222 
" clip-path="url(#pc8cdc36b1c)" style="fill: none; stroke-dasharray: 2.96,1.28; stroke-dashoffset: 0; stroke: #21262d; stroke-opacity: 0.4; stroke-width: 0.8"/>
     </g>
     <g id="line2d_34">
      <g>
       <use xlink:href="#md1861389c4" x="29.2" y="55.161222" style="fill: #c9d1d9; stroke: #c9d1d9; stroke-width: 0.8"/>
      </g>
     </g>
     <g id="text_17">
      <!-- 1.0 -->
      <g style="fill: #c9d1d9" transform="translate(7.2 58.598722) scale(0.1 -0.1)">
       <use xlink:href="#SimHei-31"/>
       <use xlink:href="#SimHei-2e" transform="translate(50 0)"/>
       <use xlink:href="#SimHei-30" transform="translate(100 0)"/>
      </g>
     </g>
    </g>
   </g>
   <g id="line2d_35">
    <path d="M 75.803636 532.979403 
L 84.911839 516.674138 
L 87.947906 519.362183 
L 90.983974 508.731537 
L 94.020041 498.677391 
L 97.056109 515.884952 
L 106.164312 508.964294 
L 109.200379 531.488823 
L 136.524987 493.943604 
L 139.561054 497.853296 
L 151.705324 491.85054 
L 154.741392 489.193299 
L 157.777459 487.037209 
L 160.813527 507.969277 
L 169.921729 511.047323 
L 172.957797 501.144922 
L 175.993864 494.302426 
L 179.029932 495.826677 
L 191.174202 473.735917 
L 194.210269 464.605891 
L 197.246337 457.111431 
L 200.282405 462.957504 
L 203.318472 468.526723 
L 212.426675 460.355789 
L 215.462742 461.406137 
L 218.49881 460.961709 
L 221.534877 451.380966 
L 224.570945 458.123763 
L 233.679147 453.169302 
L 236.715215 448.295014 
L 242.78735 455.290587 
L 245.823417 463.563714 
L 254.93162 457.718354 
L 257.967687 452.691423 
L 261.003755 457.728626 
L 264.039822 465.504731 
L 267.07589 484.140014 
L 276.184092 485.128399 
L 279.22016 483.046878 
L 282.256227 479.350015 
L 285.292295 478.597865 
L 288.328362 478.571268 
L 297.436565 470.519988 
L 300.472633 470.351252 
L 303.5087 473.000149 
L 306.544768 472.044822 
L 309.580835 474.05013 
L 318.689038 461.603614 
L 321.725105 455.378721 
L 324.761173 455.188373 
L 327.79724 457.707083 
L 330.833308 464.79946 
L 339.94151 460.028997 
L 342.977578 451.580272 
L 346.013645 453.512183 
L 349.049713 460.129164 
L 352.08578 456.802517 
L 361.193983 447.930073 
L 364.23005 436.094262 
L 367.266118 429.395924 
L 373.338253 436.270384 
L 382.446455 431.881664 
L 385.482523 425.297094 
L 388.51859 439.761218 
L 403.698928 427.201683 
L 406.734996 413.69203 
L 409.771063 394.919454 
L 412.807131 383.043096 
L 415.843198 377.971952 
L 424.951401 349.640702 
L 427.987468 344.534276 
L 431.023536 331.943471 
L 434.059603 317.953641 
L 437.095671 298.050836 
L 446.203873 299.730074 
L 449.239941 311.753861 
L 452.276008 296.379734 
L 455.312076 292.902515 
L 458.348143 292.485878 
L 467.456346 290.379346 
L 470.492413 292.296469 
L 473.528481 271.665996 
L 476.564548 275.723529 
L 479.600616 296.287985 
L 488.708818 298.07288 
L 491.744886 304.723291 
L 494.780954 318.375106 
L 497.817021 325.928214 
L 500.853089 337.541462 
L 509.961291 336.933158 
L 512.997359 339.245973 
L 516.033426 352.648845 
L 519.069494 345.787227 
L 522.105561 391.181046 
L 555.502304 366.457923 
L 558.538371 345.201448 
L 561.574439 331.293423 
L 573.718709 325.607369 
L 576.754776 340.57973 
L 579.790844 344.035143 
L 582.826911 339.762868 
L 585.862979 344.599449 
L 594.971182 341.475369 
L 598.007249 336.239283 
L 601.043317 337.355008 
L 604.079384 332.104587 
L 607.115452 338.596578 
L 616.223654 330.850296 
L 619.259722 336.781714 
L 622.295789 334.505073 
L 625.331857 336.091041 
L 628.367924 348.421014 
L 637.476127 355.929398 
L 640.512194 358.822743 
L 643.548262 359.03214 
L 646.584329 359.625762 
L 649.620397 368.276782 
L 658.728599 362.523312 
L 661.764667 366.873526 
L 664.800734 367.12785 
L 667.836802 375.272364 
L 670.872869 387.87338 
L 683.017139 386.958538 
L 686.053207 376.885297 
L 689.089275 372.392431 
L 701.233545 356.296099 
L 704.269612 344.5699 
L 710.341747 329.997715 
L 713.377815 329.054696 
L 722.486017 307.402862 
L 725.522085 302.408436 
L 728.558152 290.721129 
L 731.59422 289.139215 
L 734.630287 293.822016 
L 743.73849 279.605685 
L 746.774557 280.255381 
L 749.810625 272.613181 
L 752.846692 284.083883 
L 771.063097 249.636877 
L 774.099165 225.763613 
L 777.135232 214.334692 
L 786.243435 190.154965 
L 789.279503 177.647034 
L 792.31557 159.969758 
L 795.351638 154.078297 
L 798.387705 160.023041 
L 807.495908 144.844336 
L 810.531975 140.269248 
L 813.568043 132.612073 
L 816.60411 136.84145 
L 819.640178 134.89985 
L 828.74838 116.523741 
L 831.784448 110.699119 
L 834.820515 108.675502 
L 837.856583 103.269191 
L 840.89265 129.648556 
L 850.000853 135.832995 
L 853.03692 134.559597 
L 856.072988 126.603316 
L 859.109055 122.79409 
L 862.145123 140.013371 
L 871.253325 157.912632 
L 874.289393 160.170603 
L 877.32546 166.823306 
L 880.361528 166.230627 
L 883.397595 165.241202 
L 892.505798 145.621611 
L 895.541866 127.450084 
L 898.577933 105.312904 
L 901.614001 94.682846 
L 913.758271 78.872183 
L 916.794338 80.385705 
L 919.830406 71.684335 
L 922.866473 55.161222 
L 925.902541 67.431527 
L 935.010743 79.385734 
L 938.046811 61.571762 
L 941.082878 57.335064 
L 944.118946 64.535403 
L 947.155013 84.655625 
L 956.263216 96.312195 
L 959.299283 105.288771 
L 962.335351 117.145619 
L 965.371418 118.97833 
L 968.407486 131.134609 
L 977.515688 152.100073 
L 980.551756 160.487905 
L 983.587824 171.510272 
L 986.623891 192.791286 
L 989.659959 250.696339 
L 998.768161 296.555138 
L 1001.804229 295.258696 
L 1004.840296 295.817794 
L 1007.876364 302.810766 
L 1007.876364 302.810766 
" clip-path="url(#pc8cdc36b1c)" style="fill: none; stroke: #008000; stroke-width: 2; stroke-linecap: square"/>
   </g>
   <g id="line2d_36">
    <path d="M 75.803636 491.446781 
L 84.911839 480.878181 
L 87.947906 478.764186 
L 90.983974 449.876932 
L 94.020041 427.330287 
L 97.056109 458.331881 
L 106.164312 404.079437 
L 109.200379 394.919938 
L 136.524987 342.077283 
L 139.561054 410.421079 
L 148.669257 429.444283 
L 151.705324 462.559183 
L 154.741392 419.580234 
L 157.777459 409.011634 
L 160.813527 477.355085 
L 169.921729 466.08228 
L 172.957797 416.762032 
L 175.993864 427.330287 
L 179.029932 414.648381 
L 191.174202 335.031435 
L 194.210269 351.941333 
L 197.246337 309.666934 
L 200.282405 337.145431 
L 203.318472 384.351683 
L 212.426675 379.419486 
L 215.462742 403.374887 
L 218.49881 399.147584 
L 221.534877 349.827682 
L 224.570945 356.873185 
L 233.679147 348.418237 
L 236.715215 379.419486 
L 239.751282 378.01073 
L 242.78735 344.89583 
L 245.823417 394.919938 
L 254.93162 416.762032 
L 257.967687 435.785236 
L 261.003755 425.921531 
L 264.039822 440.717433 
L 267.07589 519.629484 
L 276.184092 524.561337 
L 279.22016 496.378634 
L 282.256227 475.945984 
L 285.292295 478.764186 
L 288.328362 469.604687 
L 297.436565 432.96738 
L 303.5087 462.559183 
L 306.544768 454.104234 
L 309.580835 425.216981 
L 318.689038 401.26158 
L 321.725105 418.171133 
L 324.761173 422.398435 
L 327.79724 446.353836 
L 330.833308 428.035183 
L 339.94151 447.058731 
L 342.977578 480.173631 
L 346.013645 424.512431 
L 349.049713 446.353836 
L 352.08578 432.262485 
L 361.193983 402.670681 
L 364.23005 395.624833 
L 367.266118 383.647132 
L 370.302185 377.306179 
L 373.338253 364.623584 
L 382.446455 379.419486 
L 385.482523 372.373982 
L 388.51859 386.465334 
L 403.698928 322.349185 
L 406.734996 269.506186 
L 409.771063 282.188436 
L 412.807131 308.962383 
L 415.843198 293.461587 
L 424.951401 273.733488 
L 427.987468 285.711533 
L 431.023536 306.848388 
L 434.059603 300.507435 
L 437.095671 311.780585 
L 446.203873 310.334947 
L 449.239941 320.455102 
L 452.276008 316.117844 
L 455.312076 318.286301 
L 458.348143 334.912517 
L 467.456346 329.12962 
L 470.492413 330.575258 
L 473.528481 319.732283 
L 476.564548 288.648653 
L 479.600616 329.852439 
L 488.708818 410.091209 
L 491.744886 363.827345 
L 494.780954 332.74406 
L 497.817021 352.984371 
L 500.853089 374.67032 
L 509.961291 318.286301 
L 512.997359 313.949386 
L 516.033426 321.177921 
L 519.069494 318.286301 
L 522.105561 358.767268 
L 555.502304 326.237999 
L 558.538371 301.660429 
L 561.574439 312.503404 
L 564.610506 319.732283 
L 573.718709 309.612128 
L 576.754776 353.70719 
L 579.790844 402.86233 
L 582.826911 371.056225 
L 585.862979 361.658888 
L 594.971182 389.127734 
L 598.007249 350.09275 
L 601.043317 329.852439 
L 607.115452 354.430009 
L 616.223654 352.261552 
L 619.259722 376.839122 
L 622.295789 365.272983 
L 625.331857 410.814028 
L 628.367924 427.4399 
L 637.476127 532.979403 
L 640.512194 497.558514 
L 643.548262 450.571831 
L 646.584329 491.052798 
L 649.620397 476.595384 
L 658.728599 482.378281 
L 661.764667 509.124653 
L 664.800734 457.800711 
L 667.836802 490.329979 
L 670.872869 515.630368 
L 683.017139 521.413265 
L 686.053207 408.645226 
L 689.089275 430.33152 
L 692.125342 379.730398 
L 701.233545 372.501863 
L 704.269612 329.12962 
L 707.30568 342.141396 
L 710.341747 304.55205 
L 713.377815 309.612128 
L 722.486017 290.817455 
L 725.522085 282.865756 
L 728.558152 257.565367 
L 731.59422 264.793902 
L 734.630287 278.528497 
L 743.73849 278.528497 
L 746.774557 287.203015 
L 749.810625 250.336488 
L 752.846692 248.168031 
L 771.063097 201.904167 
L 774.099165 184.555132 
L 777.135232 203.349805 
L 786.243435 145.520147 
L 789.279503 147.688949 
L 792.31557 108.65362 
L 795.351638 163.592002 
L 798.387705 209.133046 
L 807.495908 227.927375 
L 810.531975 215.638762 
L 813.568043 214.193124 
L 816.60411 259.733824 
L 819.640178 220.69884 
L 828.74838 166.483622 
L 831.784448 141.182889 
L 834.820515 170.097717 
L 837.856583 170.097717 
L 840.89265 176.603778 
L 850.000853 216.361581 
L 853.03692 167.206441 
L 856.072988 146.242966 
L 859.109055 174.434976 
L 862.145123 234.433435 
L 871.253325 309.612128 
L 874.289393 246.722048 
L 877.32546 277.082859 
L 880.361528 300.93761 
L 883.397595 252.505289 
L 892.505798 179.495054 
L 895.541866 186.001114 
L 898.577933 151.303044 
L 901.614001 132.508371 
L 913.758271 55.161222 
L 916.794338 162.869183 
L 919.830406 144.797328 
L 922.866473 86.244852 
L 925.902541 188.169571 
L 935.010743 150.580225 
L 938.046811 107.207982 
L 941.082878 122.388216 
L 944.118946 229.373357 
L 947.155013 210.578684 
L 956.263216 209.855865 
L 959.299283 246.722048 
L 962.335351 266.962704 
L 965.371418 181.663856 
L 968.407486 244.553591 
L 977.515688 305.997688 
L 980.551756 238.770694 
L 983.587824 238.047875 
L 986.623891 299.491972 
L 989.659959 418.042563 
L 998.768161 373.947501 
L 1001.804229 274.914058 
L 1004.840296 290.817455 
L 1007.876364 274.914058 
L 1007.876364 274.914058 
" clip-path="url(#pc8cdc36b1c)" style="fill: none; stroke: #ff0000; stroke-width: 2; stroke-linecap: square"/>
   </g>
   <g id="line2d_37">
    <path d="M 75.803636 430.210091 
L 84.911839 418.988265 
L 87.947906 437.888263 
L 90.983974 405.994402 
L 94.020041 415.444472 
L 97.056109 436.116367 
L 106.164312 413.672575 
L 109.200379 395.363162 
L 136.524987 384.141195 
L 139.561054 405.994402 
L 148.669257 407.175713 
L 151.705324 446.157162 
L 154.741392 417.806954 
L 157.777459 440.250886 
L 160.813527 487.501093 
L 169.921729 479.822921 
L 172.957797 454.42592 
L 175.993864 460.922782 
L 179.029932 459.741611 
L 191.174202 417.806954 
L 194.210269 419.578851 
L 197.246337 396.544332 
L 200.282405 415.444472 
L 203.318472 413.672575 
L 212.426675 403.63192 
L 215.462742 430.800817 
L 218.49881 423.71323 
L 221.534877 401.269438 
L 224.570945 403.63192 
L 233.679147 399.497541 
L 236.715215 404.222505 
L 239.751282 416.035057 
L 242.78735 389.456745 
L 245.823417 413.081989 
L 254.93162 411.310093 
L 257.967687 423.122644 
L 261.003755 439.069575 
L 264.039822 449.700815 
L 267.07589 515.260576 
L 276.184092 498.132334 
L 279.22016 478.051024 
L 282.256227 476.279127 
L 285.292295 475.097956 
L 288.328362 452.063438 
L 297.436565 443.203954 
L 300.472633 457.378988 
L 303.5087 473.916645 
L 306.544768 472.735333 
L 309.580835 447.929059 
L 318.689038 432.572714 
L 321.725105 441.432057 
L 324.761173 434.935196 
L 327.79724 455.016506 
L 330.833308 443.203954 
L 339.94151 457.969714 
L 342.977578 486.910508 
L 346.013645 463.87599 
L 349.049713 466.829057 
L 352.08578 453.244609 
L 361.193983 435.525781 
L 364.23005 438.47899 
L 367.266118 408.356884 
L 370.302185 391.819368 
L 373.338253 385.322366 
L 382.446455 391.228642 
L 385.482523 386.503678 
L 388.51859 388.275574 
L 403.698928 348.70354 
L 406.734996 321.534643 
L 409.771063 313.265744 
L 412.807131 297.318814 
L 415.843198 250.659192 
L 424.951401 192.187019 
L 427.987468 232.349779 
L 431.023536 231.759053 
L 434.059603 229.396571 
L 437.095671 231.759053 
L 446.203873 227.624674 
L 449.239941 244.752916 
L 452.276008 234.712261 
L 455.312076 211.677743 
L 458.348143 167.971189 
L 467.456346 202.818259 
L 470.492413 194.549501 
L 473.528481 193.958916 
L 476.564548 205.180882 
L 479.600616 226.443503 
L 488.708818 303.225089 
L 491.744886 242.390434 
L 494.780954 240.027952 
L 497.817021 270.740502 
L 500.853089 279.009401 
L 509.961291 230.577882 
L 512.997359 231.168468 
L 516.033426 228.805985 
L 519.069494 211.087158 
L 522.105561 238.84664 
L 555.502304 216.993434 
L 558.538371 183.918261 
L 561.574439 172.105709 
L 564.610506 152.024258 
L 573.718709 176.830673 
L 576.754776 253.021674 
L 579.790844 267.787434 
L 582.826911 249.47788 
L 585.862979 232.349779 
L 594.971182 241.799708 
L 598.007249 208.133949 
L 601.043317 205.771467 
L 604.079384 209.905846 
L 607.115452 237.665329 
L 616.223654 240.027952 
L 619.259722 283.14378 
L 622.295789 268.968605 
L 625.331857 310.312677 
L 628.367924 344.56902 
L 637.476127 430.800817 
L 640.512194 390.047471 
L 643.548262 352.247193 
L 646.584329 381.187987 
L 649.620397 352.837919 
L 658.728599 348.70354 
L 661.764667 380.006816 
L 664.800734 348.70354 
L 667.836802 380.597402 
L 670.872869 403.041194 
L 683.017139 384.731781 
L 686.053207 301.453193 
L 689.089275 309.721951 
L 692.125342 292.003123 
L 701.233545 286.096847 
L 704.269612 255.384156 
L 707.30568 264.834226 
L 710.341747 232.940364 
L 713.377815 209.905846 
L 722.486017 204.590156 
L 725.522085 206.362053 
L 728.558152 170.333812 
L 731.59422 197.502709 
L 734.630287 212.859055 
L 743.73849 207.543364 
L 746.774557 230.577882 
L 749.810625 203.408985 
L 752.846692 193.958916 
L 771.063097 148.480465 
L 774.099165 113.04281 
L 777.135232 107.727119 
L 786.243435 79.967637 
L 789.279503 88.827121 
L 792.31557 55.161222 
L 795.351638 92.370914 
L 798.387705 118.949085 
L 807.495908 108.90843 
L 810.531975 89.417706 
L 813.568043 87.055224 
L 816.60411 159.702431 
L 819.640178 116.586603 
L 828.74838 90.599018 
L 831.784448 117.177189 
L 834.820515 149.661776 
L 837.856583 128.399155 
L 840.89265 184.508846 
L 850.000853 196.911983 
L 853.03692 191.005707 
L 856.072988 181.555638 
L 859.109055 179.193155 
L 862.145123 198.68388 
L 871.253325 260.109262 
L 874.289393 211.087158 
L 877.32546 231.168468 
L 880.361528 243.571605 
L 883.397595 232.349779 
L 892.505798 154.386741 
L 895.541866 119.539812 
L 898.577933 108.90843 
L 901.614001 89.417706 
L 913.758271 65.202017 
L 916.794338 111.861639 
L 919.830406 89.417706 
L 922.866473 76.423843 
L 925.902541 131.942949 
L 935.010743 135.486742 
L 938.046811 81.739533 
L 941.082878 62.839394 
L 944.118946 113.04281 
L 947.155013 123.083464 
L 956.263216 158.52126 
L 959.299283 199.865191 
L 962.335351 244.162331 
L 965.371418 206.362053 
L 968.407486 225.852777 
L 977.515688 323.306399 
L 980.551756 300.862607 
L 983.587824 317.990849 
L 986.623891 364.650471 
L 989.659959 469.19168 
L 998.768161 532.979403 
L 1001.804229 459.150885 
L 1004.840296 486.910508 
L 1007.876364 476.279127 
L 1007.876364 476.279127 
" clip-path="url(#pc8cdc36b1c)" style="fill: none; stroke: #0000ff; stroke-width: 2; stroke-linecap: square"/>
   </g>
   <g id="patch_3">
    <path d="M 29.2 556.870312 
L 29.2 31.270312 
" style="fill: none; stroke: #30363d; stroke-width: 0.8; stroke-linejoin: miter; stroke-linecap: square"/>
   </g>
   <g id="patch_4">
    <path d="M 1054.48 556.870312 
L 1054.48 31.270312 
" style="fill: none; stroke: #30363d; stroke-width: 0.8; stroke-linejoin: miter; stroke-linecap: square"/>
   </g>
   <g id="patch_5">
    <path d="M 29.2 556.870312 
L 1054.48 556.870312 
" style="fill: none; stroke: #30363d; stroke-width: 0.8; stroke-linejoin: miter; stroke-linecap: square"/>
   </g>
   <g id="patch_6">
    <path d="M 29.2 31.270312 
L 1054.48 31.270312 
" style="fill: none; stroke: #30363d; stroke-width: 0.8; stroke-linejoin: miter; stroke-linecap: square"/>
   </g>
   <g id="text_18">
    <!-- 2026-07-24 -->
    <g style="fill: #8b949e; opacity: 0.6" transform="translate(999.2272 550.489312) scale(0.09 -0.09)">
     <use xlink:href="#SimHei-32"/>
     <use xlink:href="#SimHei-30" transform="translate(50 0)"/>
     <use xlink:href="#SimHei-32" transform="translate(100 0)"/>
     <use xlink:href="#SimHei-36" transform="translate(150 0)"/>
     <use xlink:href="#SimHei-2d" transform="translate(200 0)"/>
     <use xlink:href="#SimHei-30" transform="translate(250 0)"/>
     <use xlink:href="#SimHei-37" transform="translate(300 0)"/>
     <use xlink:href="#SimHei-2d" transform="translate(350 0)"/>
     <use xlink:href="#SimHei-32" transform="translate(400 0)"/>
     <use xlink:href="#SimHei-34" transform="translate(450 0)"/>
    </g>
   </g>
   <g id="text_19">
    <!-- 融资余额与ETF对比 -->
    <g style="fill: #c9d1d9" transform="translate(478.09 19.270312) scale(0.15 -0.15)">
     <defs>
      <path id="SimHei-878d" d="M 5200 975 
Q 5400 1025 5650 1125 
Q 5775 775 5887 475 
Q 6000 175 6150 -350 
Q 5925 -425 5675 -500 
Q 5575 -175 5500 50 
Q 4825 -100 4362 -212 
Q 3900 -325 3400 -500 
Q 3325 -225 3200 0 
Q 3575 25 4350 175 
L 4350 1750 
L 3850 1750 
L 3850 1225 
L 3375 1225 
Q 3400 1975 3400 2675 
Q 3400 3400 3375 3925 
L 4350 3925 
Q 4350 4925 4325 5200 
L 4825 5200 
Q 4800 4875 4800 3925 
L 5775 3925 
Q 5750 3325 5750 2700 
Q 5750 2100 5775 1550 
L 5300 1550 
L 5300 1750 
L 4800 1750 
L 4800 250 
Q 5075 325 5400 400 
Q 5325 650 5200 975 
z
M 2025 -50 
Q 2425 -50 2475 -12 
Q 2525 25 2550 150 
L 2550 1975 
L 825 1975 
L 825 -500 
L 350 -500 
Q 375 100 375 475 
L 375 1400 
Q 375 1850 350 2350 
L 3000 2350 
Q 2975 1950 2975 1450 
L 2975 -25 
Q 2975 -325 2787 -387 
Q 2600 -450 2225 -525 
Q 2125 -225 2025 -50 
z
M 625 2725 
Q 650 3050 650 3350 
Q 650 3675 625 3975 
L 2850 3975 
Q 2825 3675 2825 3350 
Q 2825 3050 2850 2725 
L 625 2725 
z
M 3000 4450 
Q 2650 4475 2175 4475 
L 1200 4475 
Q 625 4475 250 4450 
L 250 4875 
Q 550 4850 1125 4850 
L 2175 4850 
Q 2700 4850 3000 4875 
L 3000 4450 
z
M 2325 1675 
Q 2175 1475 2000 1025 
L 2325 1025 
L 2325 675 
L 1850 675 
L 1850 -125 
L 1425 -125 
L 1425 675 
L 1025 675 
L 1025 1025 
L 1700 1025 
Q 1875 1500 1925 1825 
Q 2100 1700 2325 1675 
z
M 5300 2125 
L 5300 3550 
L 4800 3550 
L 4800 2125 
L 5300 2125 
z
M 4350 2125 
L 4350 3550 
L 3850 3550 
L 3850 2125 
L 4350 2125 
z
M 2350 3100 
L 2350 3600 
L 1100 3600 
L 1100 3100 
L 2350 3100 
z
M 1575 1275 
Q 1400 1225 1225 1150 
Q 1150 1425 1025 1675 
L 1325 1825 
Q 1425 1550 1575 1275 
z
" transform="scale(0.015625)"/>
      <path id="SimHei-8d44" d="M 5300 2150 
Q 5275 1825 5275 1450 
Q 5275 1075 5300 575 
L 4800 575 
L 4800 1725 
L 1700 1725 
L 1700 425 
L 1200 425 
Q 1225 1000 1225 1375 
Q 1225 1775 1200 2150 
L 5300 2150 
z
M 4225 4075 
Q 4050 3775 4200 3562 
Q 4350 3350 4612 3162 
Q 4875 2975 5262 2850 
Q 5650 2725 6125 2700 
Q 5925 2425 5825 2175 
Q 5200 2300 4712 2550 
Q 4225 2800 3900 3350 
Q 3675 2775 3250 2550 
Q 2825 2325 2325 2175 
Q 2125 2400 1925 2575 
Q 2975 2775 3300 3175 
Q 3625 3575 3650 4150 
L 4225 4075 
z
M 3125 4250 
Q 2825 3850 2550 3650 
Q 2375 3825 2175 3950 
Q 2475 4150 2737 4487 
Q 3000 4825 3150 5200 
Q 3375 5100 3700 5050 
Q 3575 4825 3400 4650 
L 5750 4650 
Q 5675 4500 5300 3675 
Q 5000 3750 4800 3775 
Q 4925 4050 5025 4250 
L 3125 4250 
z
M 3525 1375 
Q 3400 1100 3337 825 
Q 3275 550 3012 262 
Q 2750 -25 2250 -275 
Q 1750 -525 800 -675 
Q 725 -425 500 -200 
Q 1225 -175 1712 -12 
Q 2200 150 2450 350 
Q 2700 550 2812 837 
Q 2925 1125 2925 1450 
Q 3225 1400 3525 1375 
z
M 3825 700 
Q 4300 525 4750 350 
Q 5200 175 5825 -100 
Q 5675 -300 5550 -600 
Q 5075 -325 4612 -125 
Q 4150 75 3625 250 
Q 3750 450 3825 700 
z
M 2075 3325 
Q 1450 2750 875 2050 
Q 625 2325 475 2425 
Q 1275 3050 1725 3625 
Q 1850 3500 2075 3325 
z
M 1700 3975 
Q 1300 4275 625 4675 
Q 800 4850 925 5025 
Q 1150 4875 2000 4350 
Q 1850 4200 1700 3975 
z
" transform="scale(0.015625)"/>
      <path id="SimHei-4f59" d="M 3850 3050 
Q 4150 3050 4525 3075 
L 4525 2600 
Q 4225 2625 3850 2625 
L 3450 2625 
L 3450 1825 
L 4475 1825 
Q 5050 1825 5375 1850 
L 5375 1350 
Q 5025 1375 4500 1375 
L 3450 1375 
L 3450 -75 
Q 3450 -450 3187 -525 
Q 2925 -600 2550 -650 
Q 2525 -425 2350 -50 
Q 2825 -75 2887 -25 
Q 2950 25 2950 175 
L 2950 1375 
L 1800 1375 
Q 1225 1375 900 1350 
L 900 1850 
Q 1200 1825 1800 1825 
L 2950 1825 
L 2950 2625 
L 2550 2625 
Q 2325 2625 1825 2600 
L 1825 3075 
Q 2225 3050 2525 3050 
L 3850 3050 
z
M 3400 4850 
Q 4450 3575 6150 3300 
Q 5925 3150 5750 2700 
Q 4150 3250 3100 4550 
Q 2375 3350 800 2400 
Q 450 2725 325 2800 
Q 1475 3325 2112 4100 
Q 2750 4875 2900 5275 
Q 3150 5175 3550 5050 
L 3400 4850 
z
M 2325 700 
Q 2075 500 1625 112 
Q 1175 -275 925 -450 
Q 725 -225 525 -50 
Q 1600 675 1900 1075 
Q 2100 875 2325 700 
z
M 4400 1175 
Q 4750 850 5025 550 
L 5600 0 
Q 5375 -175 5125 -400 
Q 4875 25 4050 850 
Q 4200 950 4400 1175 
z
" transform="scale(0.015625)"/>
      <path id="SimHei-989d" d="M 1925 3700 
Q 1725 3550 1550 3350 
L 2950 3350 
Q 2875 3150 2700 2875 
Q 2525 2600 2300 2300 
Q 2500 2200 2712 2075 
Q 2925 1950 3275 1725 
Q 3125 1575 2950 1325 
Q 2700 1525 2475 1662 
Q 2250 1800 1950 1950 
Q 1575 1650 1150 1375 
L 2800 1375 
Q 2775 950 2775 500 
Q 2775 50 2800 -450 
L 2325 -450 
L 2325 -50 
L 1325 -50 
L 1325 -575 
L 875 -575 
Q 900 -75 900 275 
L 900 1175 
Q 675 1075 550 1000 
Q 400 1225 225 1400 
Q 625 1550 975 1762 
Q 1325 1975 1550 2200 
Q 1300 2350 1075 2475 
Q 1175 2625 1350 2800 
Q 1625 2650 1925 2500 
Q 2150 2750 2300 3000 
L 1300 3000 
Q 1200 2875 1025 2687 
Q 850 2500 650 2275 
Q 475 2425 250 2575 
Q 650 2875 937 3237 
Q 1225 3600 1375 3925 
Q 1650 3800 1925 3700 
z
M 4150 4400 
Q 3775 4400 3375 4375 
L 3375 4825 
Q 3750 4800 4200 4800 
L 5300 4800 
Q 5600 4800 6000 4825 
L 6000 4375 
Q 5625 4400 5300 4400 
L 4950 4400 
Q 4850 3975 4725 3525 
L 5750 3525 
Q 5725 3125 5725 2775 
L 5725 1625 
Q 5725 1300 5750 825 
L 5300 825 
L 5300 3175 
L 3925 3175 
L 3925 800 
L 3450 800 
Q 3475 1275 3475 1650 
L 3475 2800 
Q 3475 3175 3450 3525 
L 4300 3525 
Q 4400 4025 4450 4400 
L 4150 4400 
z
M 2050 5100 
Q 2100 4825 2200 4475 
L 3225 4475 
Q 3200 4275 3200 4075 
Q 3200 3875 3225 3675 
L 2775 3675 
L 2775 4100 
L 875 4100 
L 875 3500 
L 400 3500 
Q 425 3775 425 4000 
Q 425 4250 400 4475 
L 1650 4475 
Q 1550 4750 1475 5000 
Q 1800 5050 2050 5100 
z
M 4925 2725 
Q 4850 2425 4837 2025 
Q 4825 1625 4712 1175 
Q 4600 725 4262 250 
Q 3925 -225 3250 -675 
Q 3050 -425 2850 -250 
Q 3375 -25 3687 262 
Q 4000 550 4162 937 
Q 4325 1325 4350 1750 
Q 4375 2175 4375 2775 
Q 4575 2750 4925 2725 
z
M 2325 325 
L 2325 1025 
L 1325 1025 
L 1325 325 
L 2325 325 
z
M 5075 800 
Q 5300 575 5487 400 
Q 5675 225 6025 -100 
Q 5800 -275 5600 -500 
Q 5450 -275 5275 -87 
Q 5100 100 4675 400 
Q 4875 575 5075 800 
z
" transform="scale(0.015625)"/>
      <path id="SimHei-4e0e" d="M 5350 100 
Q 5275 -300 4925 -425 
Q 4575 -550 3900 -600 
Q 3875 -375 3650 -25 
Q 4375 -50 4575 0 
Q 4775 50 4837 225 
Q 4900 400 5100 2350 
L 1125 2350 
Q 1450 4350 1475 5200 
Q 1800 5150 2075 5125 
Q 1975 4825 1900 4275 
L 4900 4275 
Q 5400 4275 5800 4300 
L 5800 3825 
Q 5400 3850 4950 3850 
L 1850 3850 
L 1700 2750 
L 5675 2750 
Q 5625 2450 5575 2050 
L 5350 100 
z
M 3675 1350 
Q 4125 1350 4500 1375 
L 4500 875 
Q 4125 900 3850 900 
L 1450 900 
Q 1000 900 500 875 
L 500 1375 
Q 1000 1350 1450 1350 
L 3675 1350 
z
" transform="scale(0.015625)"/>
      <path id="SimHei-45" d="M 2900 125 
L 350 125 
L 350 4400 
L 2775 4400 
L 2775 3925 
L 925 3925 
L 925 2600 
L 2625 2600 
L 2625 2125 
L 925 2125 
L 925 600 
L 2900 600 
L 2900 125 
z
" transform="scale(0.015625)"/>
      <path id="SimHei-54" d="M 2850 3925 
L 1850 3925 
L 1850 125 
L 1275 125 
L 1275 3925 
L 275 3925 
L 275 4400 
L 2850 4400 
L 2850 3925 
z
" transform="scale(0.015625)"/>
      <path id="SimHei-46" d="M 2925 3925 
L 875 3925 
L 875 2525 
L 2425 2525 
L 2425 2050 
L 875 2050 
L 875 125 
L 300 125 
L 300 4400 
L 2925 4400 
L 2925 3925 
z
" transform="scale(0.015625)"/>
      <path id="SimHei-5bf9" d="M 525 4250 
Q 900 4225 1400 4225 
L 2825 4225 
Q 2575 2625 2200 1750 
Q 2825 875 3125 400 
Q 2950 275 2725 75 
Q 2200 975 1950 1300 
Q 1650 775 1350 425 
Q 1050 75 600 -350 
Q 425 -125 200 -25 
Q 625 275 975 675 
Q 1325 1075 1650 1700 
Q 1050 2425 550 2900 
Q 700 3025 900 3225 
Q 1625 2425 1875 2150 
Q 2200 3050 2300 3825 
L 1400 3825 
Q 900 3825 525 3800 
L 525 4250 
z
M 2925 3700 
Q 3525 3675 3750 3675 
L 4825 3675 
L 4825 4425 
Q 4825 4750 4775 5125 
L 5350 5125 
Q 5325 4825 5325 4375 
L 5325 3675 
Q 5575 3675 6150 3700 
L 6150 3250 
Q 5575 3275 5325 3275 
L 5325 125 
Q 5350 -350 5012 -475 
Q 4675 -600 4250 -650 
Q 4175 -350 4025 -100 
Q 4575 -100 4712 -37 
Q 4850 25 4825 325 
L 4825 3275 
L 3775 3275 
Q 3550 3275 2925 3225 
L 2925 3700 
z
M 3450 2725 
Q 3875 1975 4175 1325 
Q 3850 1200 3700 1075 
Q 3475 1750 3050 2475 
Q 3225 2550 3450 2725 
z
" transform="scale(0.015625)"/>
      <path id="SimHei-6bd4" d="M 3775 5100 
Q 3750 4575 3750 4100 
L 3750 3050 
Q 4925 3600 5475 4175 
Q 5675 3900 5900 3675 
Q 5600 3500 5037 3187 
Q 4475 2875 3750 2550 
L 3750 450 
Q 3750 100 4050 100 
L 5000 100 
Q 5175 100 5262 250 
Q 5350 400 5450 900 
Q 5650 775 6025 675 
Q 5850 0 5650 -175 
Q 5450 -350 5225 -350 
L 3900 -350 
Q 3250 -350 3250 275 
L 3250 4000 
Q 3250 4550 3225 5100 
L 3775 5100 
z
M 1275 4975 
Q 1250 4575 1250 4000 
L 1250 3150 
L 1850 3150 
Q 2325 3150 2875 3175 
L 2875 2650 
Q 2325 2675 1850 2675 
L 1250 2675 
L 1250 475 
Q 1650 650 1962 812 
Q 2275 975 2850 1275 
Q 2900 950 2950 750 
Q 2375 475 1762 175 
Q 1150 -125 925 -325 
Q 750 -100 575 200 
Q 700 300 750 600 
L 750 3950 
Q 750 4550 725 4975 
L 1275 4975 
z
" transform="scale(0.015625)"/>
     </defs>
     <use xlink:href="#SimHei-878d"/>
     <use xlink:href="#SimHei-8d44" transform="translate(100 0)"/>
     <use xlink:href="#SimHei-4f59" transform="translate(200 0)"/>
     <use xlink:href="#SimHei-989d" transform="translate(300 0)"/>
     <use xlink:href="#SimHei-4e0e" transform="translate(400 0)"/>
     <use xlink:href="#SimHei-45" transform="translate(500 0)"/>
     <use xlink:href="#SimHei-54" transform="translate(550 0)"/>
     <use xlink:href="#SimHei-46" transform="translate(600 0)"/>
     <use xlink:href="#SimHei-5bf9" transform="translate(650 0)"/>
     <use xlink:href="#SimHei-6bd4" transform="translate(750 0)"/>
    </g>
   </g>
   <g id="legend_1">
    <g id="patch_7">
     <path d="M 36.2 80.067187 
L 108.2 80.067187 
Q 110.2 80.067187 110.2 78.067187 
L 110.2 38.270312 
Q 110.2 36.270312 108.2 36.270312 
L 36.2 36.270312 
Q 34.2 36.270312 34.2 38.270312 
L 34.2 78.067187 
Q 34.2 80.067187 36.2 80.067187 
z
" style="fill: #161b22; opacity: 0.9; stroke: #30363d; stroke-linejoin: miter"/>
    </g>
    <g id="line2d_38">
     <path d="M 38.2 44.817187 
L 48.2 44.817187 
L 58.2 44.817187 
" style="fill: none; stroke: #008000; stroke-width: 2; stroke-linecap: square"/>
    </g>
    <g id="text_20">
     <!-- 融资余额 -->
     <g style="fill: #c9d1d9" transform="translate(66.2 48.317187) scale(0.1 -0.1)">
      <use xlink:href="#SimHei-878d"/>
      <use xlink:href="#SimHei-8d44" transform="translate(100 0)"/>
      <use xlink:href="#SimHei-4f59" transform="translate(200 0)"/>
      <use xlink:href="#SimHei-989d" transform="translate(300 0)"/>
     </g>
    </g>
    <g id="line2d_39">
     <path d="M 38.2 58.067187 
L 48.2 58.067187 
L 58.2 58.067187 
" style="fill: none; stroke: #ff0000; stroke-width: 2; stroke-linecap: square"/>
    </g>
    <g id="text_21">
     <!-- 300ETF -->
     <g style="fill: #c9d1d9" transform="translate(66.2 61.567187) scale(0.1 -0.1)">
      <use xlink:href="#SimHei-33"/>
      <use xlink:href="#SimHei-30" transform="translate(50 0)"/>
      <use xlink:href="#SimHei-30" transform="translate(100 0)"/>
      <use xlink:href="#SimHei-45" transform="translate(150 0)"/>
      <use xlink:href="#SimHei-54" transform="translate(200 0)"/>
      <use xlink:href="#SimHei-46" transform="translate(250 0)"/>
     </g>
    </g>
    <g id="line2d_40">
     <path d="M 38.2 71.317187 
L 48.2 71.317187 
L 58.2 71.317187 
" style="fill: none; stroke: #0000ff; stroke-width: 2; stroke-linecap: square"/>
    </g>
    <g id="text_22">
     <!-- 1000ETF -->
     <g style="fill: #c9d1d9" transform="translate(66.2 74.817187) scale(0.1 -0.1)">
      <use xlink:href="#SimHei-31"/>
      <use xlink:href="#SimHei-30" transform="translate(50 0)"/>
      <use xlink:href="#SimHei-30" transform="translate(100 0)"/>
      <use xlink:href="#SimHei-30" transform="translate(150 0)"/>
      <use xlink:href="#SimHei-45" transform="translate(200 0)"/>
      <use xlink:href="#SimHei-54" transform="translate(250 0)"/>
      <use xlink:href="#SimHei-46" transform="translate(300 0)"/>
     </g>
    </g>
   </g>
  </g>
 </g>
 <defs>
  <clipPath id="pc8cdc36b1c">
   <rect x="29.2" y="31.270312" width="1025.28" height="525.6"/>
  </clipPath>
 </defs>
</svg>
