<?xml version="1.0" encoding="utf-8" standalone="no"?>
<!DOCTYPE svg PUBLIC "-//W3C//DTD SVG 1.1//EN"
  "http://www.w3.org/Graphics/SVG/1.1/DTD/svg11.dtd">
<svg xmlns:xlink="http://www.w3.org/1999/xlink" width="1065.109257pt" height="595.3138pt" viewBox="0 0 1065.109257 595.3138" xmlns="http://www.w3.org/2000/svg" version="1.1">
 <metadata>
  <rdf:RDF xmlns:dc="http://purl.org/dc/elements/1.1/" xmlns:cc="http://creativecommons.org/ns#" xmlns:rdf="http://www.w3.org/1999/02/22-rdf-syntax-ns#">
   <cc:Work>
    <dc:type rdf:resource="http://purl.org/dc/dcmitype/StillImage"/>
    <dc:date>2026-08-07T01:03:51.794252</dc:date>
    <dc:format>image/svg+xml</dc:format>
    <dc:creator>
     <cc:Agent>
      <dc:title>Matplotlib v3.10.9, https://matplotlib.org/</dc:title>
     </cc:Agent>
    </dc:creator>
   </cc:Work>
  </rdf:RDF>
 </metadata>
 <defs>
  <style type="text/css">*{stroke-linejoin: round; stroke-linecap: butt}</style>
 </defs>
 <g id="figure_1">
  <g id="patch_1">
   <path d="M 0 595.3138 
L 1065.109257 595.3138 
L 1065.109257 0 
L 0 0 
z
" style="fill: #0d1117"/>
  </g>
  <g id="axes_1">
   <g id="patch_2">
    <path d="M 32.629257 556.577344 
L 1057.909257 556.577344 
L 1057.909257 30.977344 
L 32.629257 30.977344 
z
" style="fill: #161b22"/>
   </g>
   <g id="matplotlib.axis_1">
    <g id="xtick_1">
     <g id="line2d_1">
      <path d="M 41.573389 556.577344 
L 41.573389 30.977344 
" clip-path="url(#p82ee415ad7)" style="fill: none; stroke-dasharray: 2.96,1.28; stroke-dashoffset: 0; stroke: #21262d; stroke-opacity: 0.4; stroke-width: 0.8"/>
     </g>
     <g id="line2d_2">
      <defs>
       <path id="mcf138b84a3" d="M 0 0 
L 0 3.5 
" style="stroke: #c9d1d9; stroke-width: 0.8"/>
      </defs>
      <g>
       <use xlink:href="#mcf138b84a3" x="41.573389" y="556.577344" style="fill: #c9d1d9; stroke: #c9d1d9; stroke-width: 0.8"/>
      </g>
     </g>
     <g id="text_1">
      <!-- 2025-10 -->
      <g style="fill: #c9d1d9" transform="translate(10.6375 587.031268) rotate(-30) scale(0.1 -0.1)">
       <defs>
        <path id="SimHei-32" d="M 300 250 
Q 325 625 650 925 
Q 975 1225 1475 1862 
Q 1975 2500 2125 2850 
Q 2275 3200 2237 3450 
Q 2200 3700 2000 3862 
Q 1800 4025 1537 4000 
Q 1275 3975 1037 3800 
Q 800 3625 675 3275 
L 200 3350 
Q 400 3925 712 4187 
Q 1025 4450 1450 4475 
Q 1700 4500 1900 4462 
Q 2100 4425 2312 4287 
Q 2525 4150 2662 3875 
Q 2800 3600 2762 3212 
Q 2725 2825 2375 2287 
Q 2025 1750 1025 600 
L 2825 600 
L 2825 150 
L 300 150 
L 300 250 
z
" transform="scale(0.015625)"/>
        <path id="SimHei-30" d="M 225 2537 
Q 250 3200 412 3587 
Q 575 3975 875 4225 
Q 1175 4475 1612 4475 
Q 2050 4475 2375 4112 
Q 2700 3750 2800 3200 
Q 2900 2650 2862 1937 
Q 2825 1225 2612 775 
Q 2400 325 1975 150 
Q 1550 -25 1125 187 
Q 700 400 525 750 
Q 350 1100 275 1487 
Q 200 1875 225 2537 
z
M 750 2687 
Q 675 2000 800 1462 
Q 925 925 1212 700 
Q 1500 475 1800 612 
Q 2100 750 2237 1162 
Q 2375 1575 2375 2062 
Q 2375 2550 2337 2950 
Q 2300 3350 2112 3675 
Q 1925 4000 1612 4012 
Q 1300 4025 1062 3700 
Q 825 3375 750 2687 
z
" transform="scale(0.015625)"/>
        <path id="SimHei-35" d="M 550 1325 
Q 725 650 1150 575 
Q 1575 500 1837 662 
Q 2100 825 2212 1087 
Q 2325 1350 2312 1675 
Q 2300 2000 2137 2225 
Q 1975 2450 1725 2525 
Q 1475 2600 1162 2525 
Q 850 2450 650 2175 
L 225 2225 
Q 275 2375 700 4375 
L 2675 4375 
L 2675 3925 
L 1075 3925 
Q 950 3250 825 2850 
Q 1200 3025 1525 3012 
Q 1850 3000 2150 2862 
Q 2450 2725 2587 2487 
Q 2725 2250 2787 2012 
Q 2850 1775 2837 1500 
Q 2825 1225 2725 937 
Q 2625 650 2425 462 
Q 2225 275 1937 162 
Q 1650 50 1275 75 
Q 900 100 562 350 
Q 225 600 100 1200 
L 550 1325 
z
" transform="scale(0.015625)"/>
        <path id="SimHei-2d" d="M 2975 2125 
L 125 2125 
L 125 2525 
L 2975 2525 
L 2975 2125 
z
" transform="scale(0.015625)"/>
        <path id="SimHei-31" d="M 1400 3600 
Q 1075 3275 575 2975 
L 575 3450 
Q 1200 3875 1600 4450 
L 1900 4450 
L 1900 150 
L 1400 150 
L 1400 3600 
z
" transform="scale(0.015625)"/>
       </defs>
       <use xlink:href="#SimHei-32"/>
       <use xlink:href="#SimHei-30" transform="translate(50 0)"/>
       <use xlink:href="#SimHei-32" transform="translate(100 0)"/>
       <use xlink:href="#SimHei-35" transform="translate(150 0)"/>
       <use xlink:href="#SimHei-2d" transform="translate(200 0)"/>
       <use xlink:href="#SimHei-31" transform="translate(250 0)"/>
       <use xlink:href="#SimHei-30" transform="translate(300 0)"/>
      </g>
     </g>
    </g>
    <g id="xtick_2">
     <g id="line2d_3">
      <path d="M 138.860441 556.577344 
L 138.860441 30.977344 
" clip-path="url(#p82ee415ad7)" style="fill: none; stroke-dasharray: 2.96,1.28; stroke-dashoffset: 0; stroke: #21262d; stroke-opacity: 0.4; stroke-width: 0.8"/>
     </g>
     <g id="line2d_4">
      <g>
       <use xlink:href="#mcf138b84a3" x="138.860441" y="556.577344" style="fill: #c9d1d9; stroke: #c9d1d9; stroke-width: 0.8"/>
      </g>
     </g>
     <g id="text_2">
      <!-- 2025-11 -->
      <g style="fill: #c9d1d9" transform="translate(107.924552 587.031268) rotate(-30) scale(0.1 -0.1)">
       <use xlink:href="#SimHei-32"/>
       <use xlink:href="#SimHei-30" transform="translate(50 0)"/>
       <use xlink:href="#SimHei-32" transform="translate(100 0)"/>
       <use xlink:href="#SimHei-35" transform="translate(150 0)"/>
       <use xlink:href="#SimHei-2d" transform="translate(200 0)"/>
       <use xlink:href="#SimHei-31" transform="translate(250 0)"/>
       <use xlink:href="#SimHei-31" transform="translate(300 0)"/>
      </g>
     </g>
    </g>
    <g id="xtick_3">
     <g id="line2d_5">
      <path d="M 233.009202 556.577344 
L 233.009202 30.977344 
" clip-path="url(#p82ee415ad7)" style="fill: none; stroke-dasharray: 2.96,1.28; stroke-dashoffset: 0; stroke: #21262d; stroke-opacity: 0.4; stroke-width: 0.8"/>
     </g>
     <g id="line2d_6">
      <g>
       <use xlink:href="#mcf138b84a3" x="233.009202" y="556.577344" style="fill: #c9d1d9; stroke: #c9d1d9; stroke-width: 0.8"/>
      </g>
     </g>
     <g id="text_3">
      <!-- 2025-12 -->
      <g style="fill: #c9d1d9" transform="translate(202.073313 587.031268) rotate(-30) scale(0.1 -0.1)">
       <use xlink:href="#SimHei-32"/>
       <use xlink:href="#SimHei-30" transform="translate(50 0)"/>
       <use xlink:href="#SimHei-32" transform="translate(100 0)"/>
       <use xlink:href="#SimHei-35" transform="translate(150 0)"/>
       <use xlink:href="#SimHei-2d" transform="translate(200 0)"/>
       <use xlink:href="#SimHei-31" transform="translate(250 0)"/>
       <use xlink:href="#SimHei-32" transform="translate(300 0)"/>
      </g>
     </g>
    </g>
    <g id="xtick_4">
     <g id="line2d_7">
      <path d="M 330.296254 556.577344 
L 330.296254 30.977344 
" clip-path="url(#p82ee415ad7)" style="fill: none; stroke-dasharray: 2.96,1.28; stroke-dashoffset: 0; stroke: #21262d; stroke-opacity: 0.4; stroke-width: 0.8"/>
     </g>
     <g id="line2d_8">
      <g>
       <use xlink:href="#mcf138b84a3" x="330.296254" y="556.577344" style="fill: #c9d1d9; stroke: #c9d1d9; stroke-width: 0.8"/>
      </g>
     </g>
     <g id="text_4">
      <!-- 2026-01 -->
      <g style="fill: #c9d1d9" transform="translate(299.360365 587.031268) rotate(-30) scale(0.1 -0.1)">
       <defs>
        <path id="SimHei-36" d="M 250 1612 
Q 275 1975 387 2225 
Q 500 2475 725 2850 
L 1750 4450 
L 2325 4450 
L 1275 2800 
Q 1950 2975 2350 2750 
Q 2750 2525 2887 2237 
Q 3025 1950 3037 1612 
Q 3050 1275 2937 950 
Q 2825 625 2537 362 
Q 2250 100 1737 75 
Q 1225 50 862 262 
Q 500 475 362 862 
Q 225 1250 250 1612 
z
M 1025 787 
Q 1250 550 1625 525 
Q 2000 500 2250 775 
Q 2500 1050 2500 1575 
Q 2500 2100 2187 2300 
Q 1875 2500 1487 2450 
Q 1100 2400 925 2075 
Q 750 1750 775 1387 
Q 800 1025 1025 787 
z
" transform="scale(0.015625)"/>
       </defs>
       <use xlink:href="#SimHei-32"/>
       <use xlink:href="#SimHei-30" transform="translate(50 0)"/>
       <use xlink:href="#SimHei-32" transform="translate(100 0)"/>
       <use xlink:href="#SimHei-36" transform="translate(150 0)"/>
       <use xlink:href="#SimHei-2d" transform="translate(200 0)"/>
       <use xlink:href="#SimHei-30" transform="translate(250 0)"/>
       <use xlink:href="#SimHei-31" transform="translate(300 0)"/>
      </g>
     </g>
    </g>
    <g id="xtick_5">
     <g id="line2d_9">
      <path d="M 427.583306 556.577344 
L 427.583306 30.977344 
" clip-path="url(#p82ee415ad7)" style="fill: none; stroke-dasharray: 2.96,1.28; stroke-dashoffset: 0; stroke: #21262d; stroke-opacity: 0.4; stroke-width: 0.8"/>
     </g>
     <g id="line2d_10">
      <g>
       <use xlink:href="#mcf138b84a3" x="427.583306" y="556.577344" style="fill: #c9d1d9; stroke: #c9d1d9; stroke-width: 0.8"/>
      </g>
     </g>
     <g id="text_5">
      <!-- 2026-02 -->
      <g style="fill: #c9d1d9" transform="translate(396.647417 587.031268) rotate(-30) scale(0.1 -0.1)">
       <use xlink:href="#SimHei-32"/>
       <use xlink:href="#SimHei-30" transform="translate(50 0)"/>
       <use xlink:href="#SimHei-32" transform="translate(100 0)"/>
       <use xlink:href="#SimHei-36" transform="translate(150 0)"/>
       <use xlink:href="#SimHei-2d" transform="translate(200 0)"/>
       <use xlink:href="#SimHei-30" transform="translate(250 0)"/>
       <use xlink:href="#SimHei-32" transform="translate(300 0)"/>
      </g>
     </g>
    </g>
    <g id="xtick_6">
     <g id="line2d_11">
      <path d="M 515.455483 556.577344 
L 515.455483 30.977344 
" clip-path="url(#p82ee415ad7)" style="fill: none; stroke-dasharray: 2.96,1.28; stroke-dashoffset: 0; stroke: #21262d; stroke-opacity: 0.4; stroke-width: 0.8"/>
     </g>
     <g id="line2d_12">
      <g>
       <use xlink:href="#mcf138b84a3" x="515.455483" y="556.577344" style="fill: #c9d1d9; stroke: #c9d1d9; stroke-width: 0.8"/>
      </g>
     </g>
     <g id="text_6">
      <!-- 2026-03 -->
      <g style="fill: #c9d1d9" transform="translate(484.519594 587.031268) rotate(-30) scale(0.1 -0.1)">
       <defs>
        <path id="SimHei-33" d="M 250 1225 
L 700 1300 
Q 800 975 1025 762 
Q 1250 550 1587 562 
Q 1925 575 2125 837 
Q 2325 1100 2300 1437 
Q 2275 1775 2037 1962 
Q 1800 2150 1275 2225 
L 1275 2550 
Q 1800 2600 2037 2825 
Q 2275 3050 2250 3412 
Q 2225 3775 1925 3937 
Q 1625 4100 1287 3975 
Q 950 3850 750 3275 
L 300 3350 
Q 450 3800 712 4100 
Q 975 4400 1425 4450 
Q 1875 4500 2212 4337 
Q 2550 4175 2687 3837 
Q 2825 3500 2725 3100 
Q 2625 2700 2150 2400 
Q 2500 2250 2687 1950 
Q 2875 1650 2812 1162 
Q 2750 675 2375 375 
Q 2000 75 1525 87 
Q 1050 100 700 387 
Q 350 675 250 1225 
z
" transform="scale(0.015625)"/>
       </defs>
       <use xlink:href="#SimHei-32"/>
       <use xlink:href="#SimHei-30" transform="translate(50 0)"/>
       <use xlink:href="#SimHei-32" transform="translate(100 0)"/>
       <use xlink:href="#SimHei-36" transform="translate(150 0)"/>
       <use xlink:href="#SimHei-2d" transform="translate(200 0)"/>
       <use xlink:href="#SimHei-30" transform="translate(250 0)"/>
       <use xlink:href="#SimHei-33" transform="translate(300 0)"/>
      </g>
     </g>
    </g>
    <g id="xtick_7">
     <g id="line2d_13">
      <path d="M 612.742535 556.577344 
L 612.742535 30.977344 
" clip-path="url(#p82ee415ad7)" style="fill: none; stroke-dasharray: 2.96,1.28; stroke-dashoffset: 0; stroke: #21262d; stroke-opacity: 0.4; stroke-width: 0.8"/>
     </g>
     <g id="line2d_14">
      <g>
       <use xlink:href="#mcf138b84a3" x="612.742535" y="556.577344" style="fill: #c9d1d9; stroke: #c9d1d9; stroke-width: 0.8"/>
      </g>
     </g>
     <g id="text_7">
      <!-- 2026-04 -->
      <g style="fill: #c9d1d9" transform="translate(581.806646 587.031268) rotate(-30) scale(0.1 -0.1)">
       <defs>
        <path id="SimHei-34" d="M 2000 1100 
L 75 1100 
L 75 1525 
L 2100 4450 
L 2475 4450 
L 2475 1525 
L 3075 1525 
L 3075 1100 
L 2475 1100 
L 2475 150 
L 2000 150 
L 2000 1100 
z
M 2000 1525 
L 2000 3500 
L 600 1525 
L 2000 1525 
z
" transform="scale(0.015625)"/>
       </defs>
       <use xlink:href="#SimHei-32"/>
       <use xlink:href="#SimHei-30" transform="translate(50 0)"/>
       <use xlink:href="#SimHei-32" transform="translate(100 0)"/>
       <use xlink:href="#SimHei-36" transform="translate(150 0)"/>
       <use xlink:href="#SimHei-2d" transform="translate(200 0)"/>
       <use xlink:href="#SimHei-30" transform="translate(250 0)"/>
       <use xlink:href="#SimHei-34" transform="translate(300 0)"/>
      </g>
     </g>
    </g>
    <g id="xtick_8">
     <g id="line2d_15">
      <path d="M 706.891295 556.577344 
L 706.891295 30.977344 
" clip-path="url(#p82ee415ad7)" style="fill: none; stroke-dasharray: 2.96,1.28; stroke-dashoffset: 0; stroke: #21262d; stroke-opacity: 0.4; stroke-width: 0.8"/>
     </g>
     <g id="line2d_16">
      <g>
       <use xlink:href="#mcf138b84a3" x="706.891295" y="556.577344" style="fill: #c9d1d9; stroke: #c9d1d9; stroke-width: 0.8"/>
      </g>
     </g>
     <g id="text_8">
      <!-- 2026-05 -->
      <g style="fill: #c9d1d9" transform="translate(675.955406 587.031268) rotate(-30) scale(0.1 -0.1)">
       <use xlink:href="#SimHei-32"/>
       <use xlink:href="#SimHei-30" transform="translate(50 0)"/>
       <use xlink:href="#SimHei-32" transform="translate(100 0)"/>
       <use xlink:href="#SimHei-36" transform="translate(150 0)"/>
       <use xlink:href="#SimHei-2d" transform="translate(200 0)"/>
       <use xlink:href="#SimHei-30" transform="translate(250 0)"/>
       <use xlink:href="#SimHei-35" transform="translate(300 0)"/>
      </g>
     </g>
    </g>
    <g id="xtick_9">
     <g id="line2d_17">
      <path d="M 804.178348 556.577344 
L 804.178348 30.977344 
" clip-path="url(#p82ee415ad7)" style="fill: none; stroke-dasharray: 2.96,1.28; stroke-dashoffset: 0; stroke: #21262d; stroke-opacity: 0.4; stroke-width: 0.8"/>
     </g>
     <g id="line2d_18">
      <g>
       <use xlink:href="#mcf138b84a3" x="804.178348" y="556.577344" style="fill: #c9d1d9; stroke: #c9d1d9; stroke-width: 0.8"/>
      </g>
     </g>
     <g id="text_9">
      <!-- 2026-06 -->
      <g style="fill: #c9d1d9" transform="translate(773.242459 587.031268) rotate(-30) scale(0.1 -0.1)">
       <use xlink:href="#SimHei-32"/>
       <use xlink:href="#SimHei-30" transform="translate(50 0)"/>
       <use xlink:href="#SimHei-32" transform="translate(100 0)"/>
       <use xlink:href="#SimHei-36" transform="translate(150 0)"/>
       <use xlink:href="#SimHei-2d" transform="translate(200 0)"/>
       <use xlink:href="#SimHei-30" transform="translate(250 0)"/>
       <use xlink:href="#SimHei-36" transform="translate(300 0)"/>
      </g>
     </g>
    </g>
    <g id="xtick_10">
     <g id="line2d_19">
      <path d="M 898.327108 556.577344 
L 898.327108 30.977344 
" clip-path="url(#p82ee415ad7)" style="fill: none; stroke-dasharray: 2.96,1.28; stroke-dashoffset: 0; stroke: #21262d; stroke-opacity: 0.4; stroke-width: 0.8"/>
     </g>
     <g id="line2d_20">
      <g>
       <use xlink:href="#mcf138b84a3" x="898.327108" y="556.577344" style="fill: #c9d1d9; stroke: #c9d1d9; stroke-width: 0.8"/>
      </g>
     </g>
     <g id="text_10">
      <!-- 2026-07 -->
      <g style="fill: #c9d1d9" transform="translate(867.391219 587.031268) rotate(-30) scale(0.1 -0.1)">
       <defs>
        <path id="SimHei-37" d="M 850 150 
Q 1300 2050 2425 3925 
L 275 3925 
L 275 4375 
L 2950 4375 
L 2950 3950 
Q 1775 2050 1400 150 
L 850 150 
z
" transform="scale(0.015625)"/>
       </defs>
       <use xlink:href="#SimHei-32"/>
       <use xlink:href="#SimHei-30" transform="translate(50 0)"/>
       <use xlink:href="#SimHei-32" transform="translate(100 0)"/>
       <use xlink:href="#SimHei-36" transform="translate(150 0)"/>
       <use xlink:href="#SimHei-2d" transform="translate(200 0)"/>
       <use xlink:href="#SimHei-30" transform="translate(250 0)"/>
       <use xlink:href="#SimHei-37" transform="translate(300 0)"/>
      </g>
     </g>
    </g>
    <g id="xtick_11">
     <g id="line2d_21">
      <path d="M 995.61416 556.577344 
L 995.61416 30.977344 
" clip-path="url(#p82ee415ad7)" style="fill: none; stroke-dasharray: 2.96,1.28; stroke-dashoffset: 0; stroke: #21262d; stroke-opacity: 0.4; stroke-width: 0.8"/>
     </g>
     <g id="line2d_22">
      <g>
       <use xlink:href="#mcf138b84a3" x="995.61416" y="556.577344" style="fill: #c9d1d9; stroke: #c9d1d9; stroke-width: 0.8"/>
      </g>
     </g>
     <g id="text_11">
      <!-- 2026-08 -->
      <g style="fill: #c9d1d9" transform="translate(964.678271 587.031268) rotate(-30) scale(0.1 -0.1)">
       <defs>
        <path id="SimHei-38" d="M 175 1375 
Q 175 1675 325 1962 
Q 475 2250 825 2425 
Q 525 2600 425 2812 
Q 325 3025 312 3300 
Q 300 3575 387 3775 
Q 475 3975 650 4150 
Q 825 4325 1037 4387 
Q 1250 4450 1500 4450 
Q 1750 4450 1950 4400 
Q 2150 4350 2375 4187 
Q 2600 4025 2700 3725 
Q 2800 3425 2687 3025 
Q 2575 2625 2100 2400 
Q 2525 2275 2700 2012 
Q 2875 1750 2875 1375 
Q 2875 1000 2762 775 
Q 2650 550 2512 400 
Q 2375 250 2137 162 
Q 1900 75 1537 75 
Q 1175 75 912 162 
Q 650 250 475 425 
Q 300 600 237 837 
Q 175 1075 175 1375 
z
M 687 1400 
Q 675 1100 787 875 
Q 900 650 1200 587 
Q 1500 525 1825 600 
Q 2150 675 2275 950 
Q 2400 1225 2362 1500 
Q 2325 1775 2050 1962 
Q 1775 2150 1450 2125 
Q 1125 2100 912 1900 
Q 700 1700 687 1400 
z
M 775 3350 
Q 775 3100 950 2875 
Q 1125 2650 1500 2650 
Q 1875 2650 2062 2875 
Q 2250 3100 2237 3412 
Q 2225 3725 2012 3875 
Q 1800 4025 1437 4000 
Q 1075 3975 925 3787 
Q 775 3600 775 3350 
z
" transform="scale(0.015625)"/>
       </defs>
       <use xlink:href="#SimHei-32"/>
       <use xlink:href="#SimHei-30" transform="translate(50 0)"/>
       <use xlink:href="#SimHei-32" transform="translate(100 0)"/>
       <use xlink:href="#SimHei-36" transform="translate(150 0)"/>
       <use xlink:href="#SimHei-2d" transform="translate(200 0)"/>
       <use xlink:href="#SimHei-30" transform="translate(250 0)"/>
       <use xlink:href="#SimHei-38" transform="translate(300 0)"/>
      </g>
     </g>
    </g>
   </g>
   <g id="matplotlib.axis_2">
    <g id="ytick_1">
     <g id="line2d_23">
      <path d="M 32.629257 532.686435 
L 1057.909257 532.686435 
" clip-path="url(#p82ee415ad7)" style="fill: none; stroke-dasharray: 2.96,1.28; stroke-dashoffset: 0; stroke: #21262d; stroke-opacity: 0.4; stroke-width: 0.8"/>
     </g>
     <g id="line2d_24">
      <defs>
       <path id="m1a2e79f85a" d="M 0 0 
L -3.5 0 
" style="stroke: #c9d1d9; stroke-width: 0.8"/>
      </defs>
      <g>
       <use xlink:href="#m1a2e79f85a" x="32.629257" y="532.686435" style="fill: #c9d1d9; stroke: #c9d1d9; stroke-width: 0.8"/>
      </g>
     </g>
     <g id="text_12">
      <!-- 0.0 -->
      <g style="fill: #c9d1d9" transform="translate(10.629257 536.123935) scale(0.1 -0.1)">
       <defs>
        <path id="SimHei-2e" d="M 1075 125 
L 500 125 
L 500 675 
L 1075 675 
L 1075 125 
z
" transform="scale(0.015625)"/>
       </defs>
       <use xlink:href="#SimHei-30"/>
       <use xlink:href="#SimHei-2e" transform="translate(50 0)"/>
       <use xlink:href="#SimHei-30" transform="translate(100 0)"/>
      </g>
     </g>
    </g>
    <g id="ytick_2">
     <g id="line2d_25">
      <path d="M 32.629257 437.122798 
L 1057.909257 437.122798 
" clip-path="url(#p82ee415ad7)" style="fill: none; stroke-dasharray: 2.96,1.28; stroke-dashoffset: 0; stroke: #21262d; stroke-opacity: 0.4; stroke-width: 0.8"/>
     </g>
     <g id="line2d_26">
      <g>
       <use xlink:href="#m1a2e79f85a" x="32.629257" y="437.122798" style="fill: #c9d1d9; stroke: #c9d1d9; stroke-width: 0.8"/>
      </g>
     </g>
     <g id="text_13">
      <!-- 0.2 -->
      <g style="fill: #c9d1d9" transform="translate(10.629257 440.560298) scale(0.1 -0.1)">
       <use xlink:href="#SimHei-30"/>
       <use xlink:href="#SimHei-2e" transform="translate(50 0)"/>
       <use xlink:href="#SimHei-32" transform="translate(100 0)"/>
      </g>
     </g>
    </g>
    <g id="ytick_3">
     <g id="line2d_27">
      <path d="M 32.629257 341.559162 
L 1057.909257 341.559162 
" clip-path="url(#p82ee415ad7)" style="fill: none; stroke-dasharray: 2.96,1.28; stroke-dashoffset: 0; stroke: #21262d; stroke-opacity: 0.4; stroke-width: 0.8"/>
     </g>
     <g id="line2d_28">
      <g>
       <use xlink:href="#m1a2e79f85a" x="32.629257" y="341.559162" style="fill: #c9d1d9; stroke: #c9d1d9; stroke-width: 0.8"/>
      </g>
     </g>
     <g id="text_14">
      <!-- 0.4 -->
      <g style="fill: #c9d1d9" transform="translate(10.629257 344.996662) scale(0.1 -0.1)">
       <use xlink:href="#SimHei-30"/>
       <use xlink:href="#SimHei-2e" transform="translate(50 0)"/>
       <use xlink:href="#SimHei-34" transform="translate(100 0)"/>
      </g>
     </g>
    </g>
    <g id="ytick_4">
     <g id="line2d_29">
      <path d="M 32.629257 245.995526 
L 1057.909257 245.995526 
" clip-path="url(#p82ee415ad7)" style="fill: none; stroke-dasharray: 2.96,1.28; stroke-dashoffset: 0; stroke: #21262d; stroke-opacity: 0.4; stroke-width: 0.8"/>
     </g>
     <g id="line2d_30">
      <g>
       <use xlink:href="#m1a2e79f85a" x="32.629257" y="245.995526" style="fill: #c9d1d9; stroke: #c9d1d9; stroke-width: 0.8"/>
      </g>
     </g>
     <g id="text_15">
      <!-- 0.6 -->
      <g style="fill: #c9d1d9" transform="translate(10.629257 249.433026) scale(0.1 -0.1)">
       <use xlink:href="#SimHei-30"/>
       <use xlink:href="#SimHei-2e" transform="translate(50 0)"/>
       <use xlink:href="#SimHei-36" transform="translate(100 0)"/>
      </g>
     </g>
    </g>
    <g id="ytick_5">
     <g id="line2d_31">
      <path d="M 32.629257 150.431889 
L 1057.909257 150.431889 
" clip-path="url(#p82ee415ad7)" style="fill: none; stroke-dasharray: 2.96,1.28; stroke-dashoffset: 0; stroke: #21262d; stroke-opacity: 0.4; stroke-width: 0.8"/>
     </g>
     <g id="line2d_32">
      <g>
       <use xlink:href="#m1a2e79f85a" x="32.629257" y="150.431889" style="fill: #c9d1d9; stroke: #c9d1d9; stroke-width: 0.8"/>
      </g>
     </g>
     <g id="text_16">
      <!-- 0.8 -->
      <g style="fill: #c9d1d9" transform="translate(10.629257 153.869389) scale(0.1 -0.1)">
       <use xlink:href="#SimHei-30"/>
       <use xlink:href="#SimHei-2e" transform="translate(50 0)"/>
       <use xlink:href="#SimHei-38" transform="translate(100 0)"/>
      </g>
     </g>
    </g>
    <g id="ytick_6">
     <g id="line2d_33">
      <path d="M 32.629257 54.868253 
L 1057.909257 54.868253 
" clip-path="url(#p82ee415ad7)" style="fill: none; stroke-dasharray: 2.96,1.28; stroke-dashoffset: 0; stroke: #21262d; stroke-opacity: 0.4; stroke-width: 0.8"/>
     </g>
     <g id="line2d_34">
      <g>
       <use xlink:href="#m1a2e79f85a" x="32.629257" y="54.868253" style="fill: #c9d1d9; stroke: #c9d1d9; stroke-width: 0.8"/>
      </g>
     </g>
     <g id="text_17">
      <!-- 1.0 -->
      <g style="fill: #c9d1d9" transform="translate(10.629257 58.305753) scale(0.1 -0.1)">
       <use xlink:href="#SimHei-31"/>
       <use xlink:href="#SimHei-2e" transform="translate(50 0)"/>
       <use xlink:href="#SimHei-30" transform="translate(100 0)"/>
      </g>
     </g>
    </g>
   </g>
   <g id="line2d_35">
    <path d="M 79.232893 514.132415 
L 82.371185 512.566119 
L 85.509477 509.781042 
L 88.647769 507.521225 
L 91.786061 529.460307 
L 101.200937 532.686435 
L 104.339229 522.307642 
L 107.477521 515.135963 
L 110.615813 516.733543 
L 123.168981 493.580026 
L 126.307273 484.010766 
L 129.445565 476.155758 
L 132.583857 482.283078 
L 135.722149 488.120224 
L 145.137025 479.556197 
L 148.275318 480.657077 
L 151.41361 480.191268 
L 154.551902 470.149607 
L 157.690194 477.216792 
L 167.10507 472.023978 
L 170.243362 466.915194 
L 176.519946 474.247315 
L 179.658238 482.918452 
L 189.073114 476.791879 
L 192.211406 471.523109 
L 195.349698 476.802645 
L 198.48799 484.952848 
L 201.626282 504.48465 
L 211.041158 505.520585 
L 214.17945 503.338925 
L 217.317742 499.46421 
L 220.456034 498.675876 
L 223.594326 498.647999 
L 233.009202 490.209382 
L 236.147494 490.032529 
L 239.285786 492.80886 
L 242.424078 491.807574 
L 245.56237 493.909355 
L 254.977246 480.864053 
L 258.115538 474.33969 
L 261.25383 474.140184 
L 264.392122 476.780066 
L 267.530414 484.213648 
L 276.94529 479.213684 
L 280.083582 470.358502 
L 283.221874 472.383355 
L 286.360166 479.31867 
L 289.498458 475.831983 
L 298.913334 466.532696 
L 302.051626 454.12748 
L 305.189918 447.106894 
L 311.466502 454.312075 
L 320.881378 449.712219 
L 324.01967 442.810874 
L 327.157962 457.970848 
L 342.849422 444.807091 
L 345.987714 430.647506 
L 349.126006 410.971807 
L 352.264298 398.524093 
L 355.40259 393.208983 
L 364.817466 363.514753 
L 367.955758 358.162664 
L 371.09405 344.966132 
L 374.232342 330.30327 
L 377.370634 309.442967 
L 386.78551 311.202991 
L 389.923802 323.805227 
L 393.062094 307.69147 
L 396.200386 304.046966 
L 399.338678 303.610286 
L 408.753554 301.402411 
L 411.891846 303.411765 
L 415.030138 281.788787 
L 418.16843 286.041522 
L 421.306722 307.595307 
L 430.721598 309.466072 
L 433.859891 316.436425 
L 436.998183 330.745011 
L 440.136475 338.661489 
L 443.274767 350.833435 
L 452.689643 350.195866 
L 455.827935 352.619947 
L 458.966227 366.667614 
L 462.104519 359.475893 
L 465.242811 407.053549 
L 499.764023 381.141028 
L 502.902315 358.861932 
L 506.040607 344.284811 
L 518.593775 338.325209 
L 521.732067 354.01787 
L 524.870359 357.639518 
L 528.008651 353.16171 
L 531.146943 358.230973 
L 540.561819 354.956597 
L 543.700111 349.468609 
L 546.838403 350.638011 
L 549.976695 345.134999 
L 553.114987 351.939311 
L 562.529863 343.820365 
L 565.668155 350.037137 
L 568.806447 347.650969 
L 571.944739 349.313236 
L 575.083031 362.236388 
L 584.497907 370.10599 
L 587.636199 373.13853 
L 590.774491 373.358001 
L 593.912783 373.980181 
L 597.051075 383.04739 
L 606.465951 377.017129 
L 609.604243 381.576626 
L 612.742535 381.843185 
L 615.880827 390.379521 
L 619.019119 403.586755 
L 631.572287 402.627902 
L 634.710579 392.07005 
L 637.848871 387.361038 
L 650.402039 370.490333 
L 653.540331 358.200002 
L 659.816915 342.926768 
L 662.955207 341.938382 
L 672.370083 319.244906 
L 675.508375 314.010206 
L 678.646667 301.760637 
L 681.784959 300.102619 
L 684.923251 305.010704 
L 694.338127 290.110444 
L 697.476419 290.791396 
L 700.614711 282.78154 
L 703.753003 294.804082 
L 722.582756 258.699876 
L 725.721048 233.6781 
L 728.85934 221.69935 
L 738.274216 196.356367 
L 741.412508 183.246697 
L 744.5508 164.71899 
L 747.689092 158.544098 
L 750.827384 164.774836 
L 760.24226 148.865904 
L 763.380552 144.070714 
L 766.518844 136.045163 
L 769.657136 140.478009 
L 772.795428 138.443001 
L 782.210304 119.182842 
L 785.348596 113.078006 
L 788.486888 110.957035 
L 791.62518 105.290633 
L 794.763472 132.939075 
L 804.178348 139.421039 
L 807.31664 138.08638 
L 810.454932 129.747332 
L 813.593224 125.754849 
L 816.731516 143.802527 
L 826.146392 162.562898 
L 829.284684 164.929497 
L 832.422976 171.902253 
L 835.561268 171.281061 
L 838.69956 170.244036 
L 848.114436 149.680572 
L 851.252728 130.634837 
L 854.39102 107.432667 
L 857.529312 96.291211 
L 870.08248 79.719918 
L 873.220772 81.306253 
L 876.359064 72.186271 
L 879.497356 54.868253 
L 882.635648 67.728866 
L 892.050524 80.258174 
L 895.188816 61.587196 
L 898.327108 57.146676 
L 901.4654 64.693414 
L 904.603692 85.781593 
L 914.018568 97.998945 
L 917.15686 107.407373 
L 920.295152 119.834638 
L 923.433444 121.755518 
L 926.571736 134.49662 
L 935.986612 156.470705 
L 939.124904 165.262065 
L 942.263196 176.814703 
L 945.401488 199.119518 
L 948.53978 259.810307 
L 957.954656 307.875313 
L 961.092948 306.516501 
L 964.23124 307.102496 
L 967.369532 314.43189 
L 970.507824 327.210252 
L 979.9227 305.370545 
L 983.060992 329.818827 
L 986.199284 349.494976 
L 989.337576 372.633426 
L 992.475868 364.348121 
L 1001.890745 370.9625 
L 1008.167329 351.582306 
L 1011.305621 343.77328 
L 1011.305621 343.77328 
" clip-path="url(#p82ee415ad7)" style="fill: none; stroke: #008000; stroke-width: 2; stroke-linecap: square"/>
   </g>
   <g id="line2d_36">
    <path d="M 79.232893 451.408418 
L 82.371185 451.408418 
L 85.509477 494.877496 
L 88.647769 481.067208 
L 91.786061 477.444739 
L 101.200937 481.293376 
L 104.339229 473.482749 
L 107.477521 476.086111 
L 110.615813 480.500978 
L 123.168981 475.293713 
L 126.307273 462.954867 
L 129.445565 450.05033 
L 132.583857 450.276498 
L 135.722149 462.501991 
L 145.137025 470.539325 
L 148.275318 532.686435 
L 151.41361 484.80249 
L 154.551902 480.8405 
L 157.690194 472.463643 
L 167.10507 472.463643 
L 170.243362 473.256041 
L 176.519946 473.256041 
L 179.658238 464.992539 
L 189.073114 450.502666 
L 192.211406 459.898628 
L 201.626282 459.898628 
L 211.041158 458.879523 
L 214.17945 453.898966 
L 217.317742 433.862307 
L 220.456034 424.014008 
L 223.594326 424.014008 
L 233.009202 423.22161 
L 236.147494 419.372974 
L 239.285786 417.448656 
L 242.424078 410.20372 
L 245.56237 419.033452 
L 254.977246 416.99578 
L 258.115538 418.580576 
L 261.25383 409.864198 
L 264.392122 410.656596 
L 267.530414 403.751181 
L 276.94529 399.336315 
L 280.083582 391.412335 
L 283.221874 385.412672 
L 286.360166 386.884654 
L 289.498458 384.054584 
L 298.913334 384.50746 
L 302.051626 384.50746 
L 305.189918 369.904233 
M 311.466502 369.904233 
L 320.881378 369.904233 
L 324.01967 344.547496 
L 327.157962 333.793445 
L 342.849422 330.397685 
L 345.987714 324.624191 
L 349.126006 319.416926 
L 352.264298 334.246321 
L 355.40259 319.53028 
L 364.817466 312.398698 
L 367.955758 307.757664 
L 371.09405 312.73822 
L 374.232342 307.64431 
L 377.370634 299.720329 
L 386.78551 302.097523 
L 389.923802 302.097523 
L 393.062094 292.814915 
L 396.200386 297.116427 
L 399.338678 307.191434 
L 408.753554 307.191434 
L 411.891846 286.362376 
L 415.030138 286.702438 
L 418.16843 286.702438 
L 421.306722 279.344148 
L 430.721598 282.740448 
L 433.859891 277.41983 
L 436.998183 267.684345 
L 440.136475 267.684345 
L 443.274767 267.797699 
L 452.689643 268.929619 
L 455.827935 249.912066 
L 458.966227 237.007529 
L 462.104519 239.158016 
L 465.242811 225.121559 
L 499.764023 234.064105 
L 502.902315 205.877298 
L 506.040607 190.142691 
L 509.178899 158.106707 
L 518.593775 177.350968 
L 521.732067 204.632024 
L 524.870359 224.668683 
L 528.008651 221.611905 
L 531.146943 221.611905 
L 540.561819 221.046215 
L 543.700111 237.459866 
L 546.838403 198.406193 
L 549.976695 185.953993 
L 553.114987 189.802629 
L 562.529863 220.593339 
L 565.668155 287.834358 
L 568.806447 209.499766 
L 571.944739 193.991327 
L 575.083031 224.781497 
L 584.497907 208.820722 
L 587.636199 202.368183 
L 590.774491 215.725596 
L 593.912783 226.140125 
L 597.051075 237.120344 
L 606.465951 238.13945 
L 609.604243 238.13945 
L 612.742535 218.442312 
L 615.880827 191.614133 
L 619.019119 208.141138 
L 631.572287 204.971546 
L 634.710579 175.99234 
L 637.848871 144.296418 
L 640.987163 147.352656 
L 650.402039 143.277312 
L 653.540331 146.107382 
L 656.678623 129.580377 
L 659.816915 132.183739 
L 662.955207 135.693393 
L 672.370083 131.051819 
L 675.508375 131.504695 
L 681.784959 139.202508 
L 684.923251 141.24018 
L 694.338127 152.446567 
L 697.476419 137.617712 
L 700.614711 154.144717 
L 703.753003 154.258071 
L 722.582756 145.881214 
L 725.721048 124.259759 
L 728.85934 113.392894 
L 738.274216 112.373788 
L 741.412508 105.92125 
L 744.5508 102.751658 
L 747.689092 101.39357 
L 750.827384 94.941031 
L 760.24226 122.222087 
L 763.380552 111.808098 
L 766.518844 128.221749 
L 769.657136 112.373788 
L 772.795428 114.637628 
L 782.210304 105.581728 
L 785.348596 105.581728 
L 788.486888 95.959597 
L 791.62518 87.809449 
L 794.763472 88.601847 
L 804.178348 73.546284 
L 807.31664 72.187656 
L 810.454932 69.018064 
L 813.593224 76.942044 
L 816.731516 81.809786 
L 826.146392 72.753886 
L 829.284684 72.753886 
L 832.422976 80.677866 
L 835.561268 80.677866 
L 838.69956 84.073627 
L 848.114436 73.319576 
L 851.252728 63.131755 
L 854.39102 63.357923 
L 857.529312 63.357923 
L 870.08248 76.263 
L 873.220772 82.941707 
L 876.359064 100.487818 
L 882.635648 100.487818 
L 892.050524 109.543718 
L 895.188816 104.563162 
L 898.327108 104.563162 
L 901.4654 105.242206 
L 904.603692 98.903021 
L 914.018568 98.903021 
L 917.15686 107.05371 
L 920.295152 104.336454 
L 923.433444 114.637628 
L 926.571736 102.865012 
L 935.986612 85.318901 
L 939.124904 88.601847 
L 942.263196 77.847796 
L 945.401488 75.810124 
L 948.53978 80.677866 
L 961.092948 80.677866 
L 964.23124 72.86724 
L 967.369532 80.677866 
L 970.507824 80.677866 
L 979.9227 79.885468 
L 983.060992 72.980054 
L 986.199284 78.979716 
L 989.337576 73.43293 
L 992.475868 60.867915 
L 1001.890745 56.226341 
L 1005.029037 57.811137 
L 1008.167329 58.830243 
L 1011.305621 54.868253 
L 1011.305621 54.868253 
" clip-path="url(#p82ee415ad7)" style="fill: none; stroke: #00bfbf; stroke-width: 2; stroke-linecap: square"/>
   </g>
   <g id="line2d_37">
    <path d="M 101.200937 527.615755 
L 104.339229 530.764914 
L 107.477521 532.686435 
L 110.615813 516.56701 
L 113.754105 516.300132 
L 123.168981 518.275028 
L 126.307273 515.926503 
L 129.445565 469.436374 
L 132.583857 447.552386 
L 135.722149 439.866303 
L 145.137025 428.657431 
L 148.275318 446.805128 
L 151.41361 408.374712 
L 154.551902 447.659138 
L 157.690194 449.900912 
L 167.10507 439.065669 
L 170.243362 439.065669 
L 173.381654 462.123919 
L 176.519946 449.046903 
L 179.658238 433.781487 
L 189.073114 437.464402 
L 192.211406 443.442467 
L 195.349698 441.200693 
L 198.48799 454.864841 
L 201.626282 477.869715 
L 211.041158 490.893356 
L 214.17945 511.763208 
L 217.317742 525.694234 
L 220.456034 525.694234 
L 233.009202 472.532157 
L 236.147494 476.588701 
L 239.285786 496.711295 
L 242.424078 480.645245 
L 245.56237 451.929184 
L 254.977246 436.930646 
L 258.115538 427.643295 
L 261.25383 455.505348 
L 264.392122 447.87264 
L 267.530414 420.757846 
L 276.94529 431.005957 
L 280.083582 445.417363 
L 283.221874 433.781487 
L 286.360166 455.985728 
L 289.498458 432.073469 
L 298.913334 432.447098 
L 302.051626 423.746878 
L 305.189918 439.973054 
L 308.32821 439.973054 
L 311.466502 446.378124 
L 320.881378 468.15536 
L 324.01967 457.373493 
L 327.157962 430.205323 
L 339.71113 430.205323 
L 342.849422 441.46757 
L 345.987714 449.207029 
L 349.126006 475.361063 
L 352.264298 447.926015 
L 355.40259 446.698377 
L 364.817466 430.84583 
L 367.955758 432.6606 
L 371.09405 447.338884 
L 374.232342 439.332547 
L 377.370634 395.564573 
L 386.78551 395.564573 
L 389.923802 358.308419 
L 393.062094 378.911392 
L 396.200386 384.942832 
L 399.338678 388.83925 
L 408.753554 396.525333 
L 411.891846 389.533132 
L 415.030138 371.011806 
L 418.16843 382.220678 
L 421.306722 368.236276 
L 430.721598 356.920654 
L 433.859891 360.763695 
L 436.998183 356.547024 
L 440.136475 397.966474 
L 443.274767 389.052752 
L 452.689643 389.693259 
L 455.827935 420.651095 
L 458.966227 404.638421 
L 462.104519 447.285509 
L 465.242811 475.841443 
L 468.381103 475.841443 
L 499.764023 480.912123 
L 502.902315 482.780268 
L 506.040607 505.731767 
L 509.178899 510.482194 
L 512.317191 510.482194 
L 518.593775 461.590164 
L 521.732067 458.707882 
L 524.870359 440.613561 
L 528.008651 419.850461 
L 531.146943 410.829988 
L 540.561819 439.866303 
L 543.700111 423.907005 
L 546.838403 392.949169 
L 549.976695 359.696184 
L 553.114987 359.215803 
L 562.529863 394.924066 
L 565.668155 411.04349 
L 568.806447 371.598938 
L 571.944739 381.046415 
L 575.083031 308.829257 
L 584.497907 336.424431 
L 587.636199 307.388116 
L 590.774491 337.331816 
L 593.912783 287.212148 
L 597.051075 275.362769 
L 606.465951 317.582852 
L 609.604243 350.035204 
L 612.742535 337.918947 
L 615.880827 346.725918 
L 619.019119 324.841931 
L 631.572287 334.02253 
L 634.710579 353.504616 
L 637.848871 356.493649 
L 640.987163 342.402496 
L 650.402039 337.331816 
L 653.540331 353.130987 
L 656.678623 336.050802 
L 659.816915 320.198255 
L 662.955207 342.135618 
L 672.370083 342.34912 
L 675.508375 314.753946 
L 678.646667 308.295501 
L 681.784959 295.431987 
L 684.923251 314.273566 
L 694.338127 298.04739 
L 697.476419 290.414682 
L 700.614711 247.180463 
L 703.753003 259.403471 
L 722.582756 290.414682 
L 725.721048 262.499255 
L 728.85934 279.419313 
L 731.997632 279.419313 
L 738.274216 256.681316 
L 741.412508 233.729818 
L 744.5508 229.566522 
L 747.689092 228.178757 
L 750.827384 167.864353 
L 760.24226 153.29282 
L 763.380552 108.457334 
L 766.518844 163.807809 
L 769.657136 167.330597 
L 772.795428 176.457821 
L 782.210304 176.457821 
L 785.348596 202.398353 
L 788.486888 202.985484 
L 791.62518 217.770519 
L 794.763472 212.272835 
L 804.178348 197.274297 
L 807.31664 204.052996 
L 810.454932 192.950875 
L 813.593224 201.117339 
L 816.731516 165.142199 
L 826.146392 163.43418 
L 829.284684 184.837787 
L 832.422976 179.500229 
L 835.561268 232.822433 
L 838.69956 214.247731 
L 848.114436 220.599425 
L 851.252728 235.437836 
L 854.39102 200.530208 
L 857.529312 218.090773 
L 870.08248 195.459528 
L 873.220772 204.106371 
L 876.359064 253.051777 
L 879.497356 252.89165 
L 882.635648 261.59187 
L 892.050524 253.905786 
L 895.188816 230.420532 
L 898.327108 215.368618 
L 901.4654 208.002789 
L 904.603692 208.002789 
L 914.018568 211.685703 
L 917.15686 175.763939 
L 920.295152 169.305494 
L 923.433444 179.500229 
L 926.571736 169.999376 
L 935.986612 140.322555 
L 939.124904 159.537763 
L 942.263196 175.763939 
L 945.401488 166.743466 
L 948.53978 175.657188 
L 957.954656 151.584802 
L 961.092948 135.412001 
L 964.23124 105.895306 
L 967.369532 86.039591 
L 970.507824 94.419557 
L 979.9227 118.705445 
L 983.060992 140.802935 
L 986.199284 107.603325 
L 989.337576 95.166815 
L 992.475868 54.868253 
L 1001.890745 83.050558 
L 1005.029037 118.118314 
L 1008.167329 118.705445 
L 1011.305621 87.000351 
L 1011.305621 87.000351 
" clip-path="url(#p82ee415ad7)" style="fill: none; stroke: #ffffff; stroke-width: 2; stroke-linecap: square"/>
   </g>
   <g id="line2d_38">
    <path d="M 79.232893 421.032861 
L 82.371185 457.774367 
L 85.509477 436.545906 
L 88.647769 448.180789 
L 91.786061 493.495421 
L 101.200937 484.105894 
L 104.339229 459.611423 
L 107.477521 471.042156 
L 110.615813 465.939191 
L 123.168981 419.195705 
L 126.307273 426.748177 
L 129.445565 395.517837 
L 132.583857 415.317344 
L 135.722149 427.76873 
L 145.137025 427.156379 
L 148.275318 452.875453 
L 151.41361 449.405493 
L 154.551902 424.706872 
L 157.690194 426.952228 
L 167.10507 425.319323 
L 170.243362 436.341755 
L 173.381654 444.098378 
L 176.519946 421.849263 
L 179.658238 447.772588 
L 189.073114 448.180789 
L 192.211406 463.285633 
L 195.349698 470.429804 
L 198.48799 482.064588 
L 201.626282 532.686435 
L 211.041158 522.888706 
L 214.17945 505.742656 
L 217.317742 503.4972 
L 220.456034 506.558959 
L 223.594326 489.208859 
L 233.009202 475.532769 
L 236.147494 487.984155 
L 239.285786 495.740678 
L 242.424078 491.250064 
L 245.56237 472.675161 
L 254.977246 460.019724 
L 258.115538 471.042156 
L 261.25383 463.081583 
L 264.392122 475.73692 
L 267.530414 458.59097 
L 276.94529 468.592749 
L 280.083582 491.045914 
L 283.221874 463.897985 
L 286.360166 471.654508 
L 289.498458 458.386819 
L 298.913334 441.64897 
L 302.051626 440.424167 
L 305.189918 420.82871 
L 308.32821 407.764972 
L 311.466502 398.375445 
L 320.881378 404.907264 
L 324.01967 398.171394 
L 327.157962 396.74254 
L 342.849422 355.102119 
L 345.987714 320.605769 
L 349.126006 312.849147 
L 352.264298 307.746182 
L 355.40259 268.555268 
L 364.817466 227.73115 
L 367.955758 250.184515 
L 371.09405 238.14133 
L 374.232342 243.448446 
L 377.370634 239.746582 
L 386.78551 228.847439 
L 389.923802 233.782791 
L 393.062094 211.57281 
L 396.200386 203.963834 
L 399.338678 152.551641 
L 408.753554 184.427077 
L 411.891846 173.116239 
L 415.030138 158.309784 
L 418.16843 178.874582 
L 421.306722 209.927626 
L 430.721598 290.336384 
L 433.859891 225.145576 
L 436.998183 220.62152 
L 440.136475 255.787324 
L 443.274767 256.609916 
L 452.689643 219.181785 
L 455.827935 222.883448 
L 458.966227 215.891417 
L 462.104519 194.709476 
L 465.242811 223.70604 
L 499.764023 203.963834 
L 502.902315 176.612454 
L 506.040607 170.854311 
L 509.178899 148.849777 
L 518.593775 149.672569 
L 521.732067 223.294744 
L 524.870359 235.222327 
L 528.008651 224.117336 
L 531.146943 213.834937 
L 540.561819 227.202056 
L 543.700111 201.496059 
L 546.838403 204.169283 
L 549.976695 212.806697 
L 553.114987 236.456414 
L 562.529863 247.150109 
L 565.668155 284.372493 
L 568.806447 268.331851 
L 571.944739 311.723773 
L 575.083031 339.075154 
L 584.497907 400.769846 
L 587.636199 371.97903 
L 590.774491 336.195982 
L 593.912783 362.107827 
L 597.051075 340.925986 
L 606.465951 337.841266 
L 609.604243 365.603843 
L 612.742535 339.692098 
L 615.880827 367.865971 
L 619.019119 382.055781 
L 631.572287 376.708834 
L 634.710579 295.066287 
L 637.848871 307.816462 
L 640.987163 293.215456 
L 650.402039 294.654991 
L 653.540331 267.714907 
L 656.678623 277.58611 
L 659.816915 248.383797 
L 662.955207 240.775022 
L 672.370083 227.407903 
L 675.508375 232.343255 
L 678.646667 206.842906 
L 681.784959 223.294744 
L 684.923251 233.988439 
L 694.338127 224.73428 
L 697.476419 244.271038 
L 700.614711 213.629289 
L 703.753003 211.984106 
L 722.582756 165.096167 
L 725.721048 141.857746 
L 728.85934 142.269042 
L 738.274216 112.861382 
L 741.412508 123.143581 
L 744.5508 92.913328 
L 747.689092 141.652098 
L 750.827384 174.555774 
L 760.24226 170.648663 
L 763.380552 155.841809 
L 766.518844 146.58765 
L 769.657136 196.971604 
L 772.795428 165.096167 
L 782.210304 138.773027 
L 785.348596 145.765058 
L 788.486888 174.144678 
L 791.62518 166.946999 
L 794.763472 209.310682 
L 804.178348 224.322984 
L 807.31664 216.919657 
L 810.454932 206.842906 
L 813.593224 208.282442 
L 816.731516 230.698271 
L 826.146392 286.429072 
L 829.284684 244.887782 
L 832.422976 265.247331 
L 835.561268 273.061754 
L 838.69956 250.646125 
L 848.114436 188.540236 
L 851.252728 170.443015 
L 854.39102 143.50313 
L 857.529312 130.135812 
L 870.08248 93.324624 
L 873.220772 132.809235 
L 876.359064 97.84888 
L 879.497356 77.284082 
L 882.635648 123.349428 
L 892.050524 100.111007 
L 895.188816 54.868253 
L 898.327108 57.747325 
L 901.4654 125.817204 
L 904.603692 115.12331 
L 914.018568 133.837475 
L 917.15686 165.301815 
L 920.295152 187.1007 
L 923.433444 135.071363 
L 926.571736 156.870248 
L 935.986612 240.363726 
L 939.124904 215.480121 
L 942.263196 239.137425 
L 945.401488 279.962042 
L 948.53978 374.381917 
L 957.954656 390.921105 
L 961.092948 314.296569 
L 964.23124 325.183134 
L 967.369532 325.811159 
L 970.507824 366.007652 
L 979.9227 328.114117 
L 983.060992 383.174965 
L 986.199284 367.05446 
L 989.337576 409.763252 
L 992.475868 375.428725 
L 1001.890745 392.177255 
L 1005.029037 354.28372 
L 1008.167329 309.481312 
L 1008.167329 309.481312 
" clip-path="url(#p82ee415ad7)" style="fill: none; stroke: #ff0000; stroke-width: 2; stroke-linecap: square"/>
   </g>
   <g id="patch_3">
    <path d="M 32.629257 556.577344 
L 32.629257 30.977344 
" style="fill: none; stroke: #30363d; stroke-width: 0.8; stroke-linejoin: miter; stroke-linecap: square"/>
   </g>
   <g id="patch_4">
    <path d="M 1057.909257 556.577344 
L 1057.909257 30.977344 
" style="fill: none; stroke: #30363d; stroke-width: 0.8; stroke-linejoin: miter; stroke-linecap: square"/>
   </g>
   <g id="patch_5">
    <path d="M 32.629257 556.577344 
L 1057.909257 556.577344 
" style="fill: none; stroke: #30363d; stroke-width: 0.8; stroke-linejoin: miter; stroke-linecap: square"/>
   </g>
   <g id="patch_6">
    <path d="M 32.629257 30.977344 
L 1057.909257 30.977344 
" style="fill: none; stroke: #30363d; stroke-width: 0.8; stroke-linejoin: miter; stroke-linecap: square"/>
   </g>
   <g id="text_18">
    <!-- 2026-08-07 -->
    <g style="fill: #8b949e; opacity: 0.6" transform="translate(1002.656457 550.196344) scale(0.09 -0.09)">
     <use xlink:href="#SimHei-32"/>
     <use xlink:href="#SimHei-30" transform="translate(50 0)"/>
     <use xlink:href="#SimHei-32" transform="translate(100 0)"/>
     <use xlink:href="#SimHei-36" transform="translate(150 0)"/>
     <use xlink:href="#SimHei-2d" transform="translate(200 0)"/>
     <use xlink:href="#SimHei-30" transform="translate(250 0)"/>
     <use xlink:href="#SimHei-38" transform="translate(300 0)"/>
     <use xlink:href="#SimHei-2d" transform="translate(350 0)"/>
     <use xlink:href="#SimHei-30" transform="translate(400 0)"/>
     <use xlink:href="#SimHei-37" transform="translate(450 0)"/>
    </g>
   </g>
   <g id="text_19">
    <!-- 归一化指标对比 -->
    <g style="fill: #c9d1d9" transform="translate(492.769257 18.977344) scale(0.15 -0.15)">
     <defs>
      <path id="SimHei-5f52" d="M 2600 800 
Q 3075 775 3600 775 
L 5300 775 
L 5300 2275 
L 4150 2275 
Q 3550 2275 3100 2250 
L 3100 2725 
Q 3550 2700 4150 2700 
L 5300 2700 
L 5300 4175 
L 3775 4175 
Q 3300 4175 2800 4150 
L 2800 4625 
Q 3250 4600 3725 4600 
L 5850 4600 
Q 5825 4075 5825 3775 
L 5825 825 
Q 5825 200 5850 -300 
L 5300 -300 
L 5300 350 
L 3600 350 
Q 3075 350 2600 325 
L 2600 800 
z
M 350 -150 
Q 1125 325 1475 975 
Q 1825 1625 1900 2362 
Q 1975 3100 1962 3837 
Q 1950 4575 1925 5125 
L 2475 5125 
Q 2450 4725 2450 3950 
Q 2450 3175 2400 2437 
Q 2350 1700 2012 950 
Q 1675 200 800 -550 
Q 625 -325 350 -150 
z
M 500 1225 
Q 525 1650 525 2050 
L 525 3700 
Q 525 4125 500 4475 
L 1050 4475 
Q 1025 4100 1025 3700 
L 1025 2050 
Q 1025 1650 1050 1225 
L 500 1225 
z
" transform="scale(0.015625)"/>
      <path id="SimHei-4e00" d="M 4875 2675 
Q 5525 2675 6050 2700 
L 6050 2050 
Q 5525 2075 4900 2075 
L 1600 2075 
Q 950 2075 350 2050 
L 350 2700 
Q 950 2675 1600 2675 
L 4875 2675 
z
" transform="scale(0.015625)"/>
      <path id="SimHei-5316" d="M 3925 5025 
Q 3900 4900 3900 4400 
L 3900 2625 
Q 4375 3025 4775 3450 
Q 5175 3875 5400 4300 
Q 5600 4100 5900 3925 
Q 5700 3700 5225 3212 
Q 4750 2725 4487 2512 
Q 4225 2300 3900 2025 
L 3900 450 
Q 3900 50 4225 50 
L 5200 50 
Q 5400 75 5462 262 
Q 5525 450 5575 850 
Q 5800 650 6150 600 
Q 6000 -100 5825 -250 
Q 5650 -400 5350 -400 
L 3950 -400 
Q 3425 -400 3400 200 
L 3400 1675 
Q 3225 1525 2962 1350 
Q 2700 1175 2375 975 
Q 2225 1225 2025 1400 
Q 2350 1550 2737 1787 
Q 3125 2025 3400 2250 
L 3400 4500 
Q 3400 4800 3375 5025 
L 3925 5025 
z
M 2400 4850 
Q 2175 4550 2075 4337 
Q 1975 4125 1825 3775 
L 1825 675 
Q 1825 -75 1850 -550 
L 1325 -550 
Q 1350 -125 1350 650 
L 1350 3050 
Q 1125 2725 962 2525 
Q 800 2325 675 2175 
Q 500 2375 275 2525 
Q 625 2850 875 3212 
Q 1125 3575 1312 3912 
Q 1500 4250 1625 4575 
Q 1750 4900 1825 5100 
Q 1975 4975 2400 4850 
z
" transform="scale(0.015625)"/>
      <path id="SimHei-6307" d="M 5625 2225 
Q 5600 1925 5600 1350 
L 5600 300 
Q 5600 -225 5625 -525 
L 5125 -525 
L 5125 -125 
L 3300 -125 
L 3300 -625 
L 2800 -625 
Q 2825 -300 2825 300 
L 2825 1350 
Q 2825 1925 2800 2225 
L 5625 2225 
z
M 500 25 
Q 1075 -25 1175 37 
Q 1275 100 1275 275 
L 1275 1675 
Q 1050 1600 925 1537 
Q 800 1475 475 1275 
Q 400 1525 225 1800 
Q 625 1900 825 1975 
Q 1025 2050 1275 2125 
L 1275 3300 
L 1100 3300 
Q 775 3300 450 3275 
L 450 3725 
Q 750 3700 1100 3700 
L 1275 3700 
L 1275 4450 
Q 1275 4800 1250 5125 
L 1775 5125 
Q 1750 4850 1750 4450 
L 1750 3700 
Q 2075 3700 2425 3725 
L 2425 3275 
Q 2050 3300 1750 3300 
L 1750 2325 
Q 1850 2350 2025 2425 
L 2375 2575 
Q 2350 2300 2375 2100 
Q 2225 2050 2062 1987 
Q 1900 1925 1750 1850 
L 1750 100 
Q 1725 -200 1575 -337 
Q 1425 -475 675 -525 
Q 625 -250 500 25 
z
M 3325 5025 
Q 3300 4675 3300 4125 
Q 4125 4275 4512 4412 
Q 4900 4550 5225 4725 
Q 5325 4475 5575 4250 
Q 5450 4225 5237 4175 
Q 5025 4125 4725 4050 
Q 4425 3975 4037 3887 
Q 3650 3800 3300 3725 
L 3300 3175 
Q 3275 2925 3700 2925 
L 4925 2925 
Q 5300 2925 5387 3087 
Q 5475 3250 5550 3600 
Q 5750 3400 6050 3300 
Q 5825 2725 5700 2637 
Q 5575 2550 5275 2525 
L 3350 2525 
Q 3050 2525 2937 2687 
Q 2825 2850 2825 2975 
L 2825 4125 
Q 2825 4775 2800 5025 
L 3325 5025 
z
M 5125 275 
L 5125 875 
L 3300 875 
L 3300 275 
L 5125 275 
z
M 5125 1250 
L 5125 1825 
L 3300 1825 
L 3300 1250 
L 5125 1250 
z
" transform="scale(0.015625)"/>
      <path id="SimHei-6807" d="M 1275 4400 
Q 1275 4800 1250 5175 
L 1750 5175 
Q 1725 4825 1725 4400 
L 1725 3800 
Q 2125 3800 2575 3825 
L 2575 3350 
Q 2125 3375 1725 3375 
L 1725 2525 
Q 1900 2650 2075 2800 
Q 2400 2275 2650 1775 
Q 2375 1650 2175 1500 
Q 2025 2000 1725 2425 
L 1725 475 
Q 1725 -50 1750 -575 
L 1250 -575 
Q 1275 -25 1275 475 
L 1275 2100 
Q 1025 1400 500 750 
Q 350 950 125 1125 
Q 550 1550 812 2187 
Q 1075 2825 1150 3375 
Q 675 3375 325 3325 
L 325 3825 
Q 800 3800 1275 3800 
L 1275 4400 
z
M 5175 3125 
Q 5675 3125 6050 3150 
L 6050 2675 
Q 5675 2700 5275 2700 
L 4500 2700 
L 4500 175 
Q 4500 -225 4275 -350 
Q 4050 -475 3475 -550 
Q 3425 -250 3275 25 
Q 3775 25 3900 62 
Q 4025 100 4025 350 
L 4025 2700 
L 3400 2700 
Q 2775 2700 2500 2650 
L 2500 3150 
Q 2825 3125 3400 3125 
L 5175 3125 
z
M 4900 4775 
Q 5425 4775 5750 4800 
L 5750 4300 
Q 5275 4350 4750 4350 
L 3525 4350 
Q 3125 4350 2750 4300 
L 2750 4800 
Q 3100 4775 3525 4775 
L 4900 4775 
z
M 5275 2025 
Q 5825 1175 6200 500 
Q 5925 375 5650 200 
Q 5375 925 4825 1725 
Q 5075 1850 5275 2025 
z
M 3600 1775 
Q 3500 1625 3225 975 
Q 2950 325 2800 50 
Q 2575 175 2300 275 
Q 2625 775 2787 1187 
Q 2950 1600 3050 2000 
Q 3325 1875 3600 1775 
z
" transform="scale(0.015625)"/>
      <path id="SimHei-5bf9" d="M 525 4250 
Q 900 4225 1400 4225 
L 2825 4225 
Q 2575 2625 2200 1750 
Q 2825 875 3125 400 
Q 2950 275 2725 75 
Q 2200 975 1950 1300 
Q 1650 775 1350 425 
Q 1050 75 600 -350 
Q 425 -125 200 -25 
Q 625 275 975 675 
Q 1325 1075 1650 1700 
Q 1050 2425 550 2900 
Q 700 3025 900 3225 
Q 1625 2425 1875 2150 
Q 2200 3050 2300 3825 
L 1400 3825 
Q 900 3825 525 3800 
L 525 4250 
z
M 2925 3700 
Q 3525 3675 3750 3675 
L 4825 3675 
L 4825 4425 
Q 4825 4750 4775 5125 
L 5350 5125 
Q 5325 4825 5325 4375 
L 5325 3675 
Q 5575 3675 6150 3700 
L 6150 3250 
Q 5575 3275 5325 3275 
L 5325 125 
Q 5350 -350 5012 -475 
Q 4675 -600 4250 -650 
Q 4175 -350 4025 -100 
Q 4575 -100 4712 -37 
Q 4850 25 4825 325 
L 4825 3275 
L 3775 3275 
Q 3550 3275 2925 3225 
L 2925 3700 
z
M 3450 2725 
Q 3875 1975 4175 1325 
Q 3850 1200 3700 1075 
Q 3475 1750 3050 2475 
Q 3225 2550 3450 2725 
z
" transform="scale(0.015625)"/>
      <path id="SimHei-6bd4" d="M 3775 5100 
Q 3750 4575 3750 4100 
L 3750 3050 
Q 4925 3600 5475 4175 
Q 5675 3900 5900 3675 
Q 5600 3500 5037 3187 
Q 4475 2875 3750 2550 
L 3750 450 
Q 3750 100 4050 100 
L 5000 100 
Q 5175 100 5262 250 
Q 5350 400 5450 900 
Q 5650 775 6025 675 
Q 5850 0 5650 -175 
Q 5450 -350 5225 -350 
L 3900 -350 
Q 3250 -350 3250 275 
L 3250 4000 
Q 3250 4550 3225 5100 
L 3775 5100 
z
M 1275 4975 
Q 1250 4575 1250 4000 
L 1250 3150 
L 1850 3150 
Q 2325 3150 2875 3175 
L 2875 2650 
Q 2325 2675 1850 2675 
L 1250 2675 
L 1250 475 
Q 1650 650 1962 812 
Q 2275 975 2850 1275 
Q 2900 950 2950 750 
Q 2375 475 1762 175 
Q 1150 -125 925 -325 
Q 750 -100 575 200 
Q 700 300 750 600 
L 750 3950 
Q 750 4550 725 4975 
L 1275 4975 
z
" transform="scale(0.015625)"/>
     </defs>
     <use xlink:href="#SimHei-5f52"/>
     <use xlink:href="#SimHei-4e00" transform="translate(100 0)"/>
     <use xlink:href="#SimHei-5316" transform="translate(200 0)"/>
     <use xlink:href="#SimHei-6307" transform="translate(300 0)"/>
     <use xlink:href="#SimHei-6807" transform="translate(400 0)"/>
     <use xlink:href="#SimHei-5bf9" transform="translate(500 0)"/>
     <use xlink:href="#SimHei-6bd4" transform="translate(600 0)"/>
    </g>
   </g>
   <g id="legend_1">
    <g id="patch_7">
     <path d="M 39.629257 94.883594 
L 131.629257 94.883594 
Q 133.629257 94.883594 133.629257 92.883594 
L 133.629257 37.977344 
Q 133.629257 35.977344 131.629257 35.977344 
L 39.629257 35.977344 
Q 37.629257 35.977344 37.629257 37.977344 
L 37.629257 92.883594 
Q 37.629257 94.883594 39.629257 94.883594 
z
" style="fill: #161b22; opacity: 0.9; stroke: #30363d; stroke-linejoin: miter"/>
    </g>
    <g id="line2d_39">
     <path d="M 41.629257 44.524219 
L 51.629257 44.524219 
L 61.629257 44.524219 
" style="fill: none; stroke: #008000; stroke-width: 2; stroke-linecap: square"/>
    </g>
    <g id="text_20">
     <!-- 融资余额 -->
     <g style="fill: #c9d1d9" transform="translate(69.629257 48.024219) scale(0.1 -0.1)">
      <defs>
       <path id="SimHei-878d" d="M 5200 975 
Q 5400 1025 5650 1125 
Q 5775 775 5887 475 
Q 6000 175 6150 -350 
Q 5925 -425 5675 -500 
Q 5575 -175 5500 50 
Q 4825 -100 4362 -212 
Q 3900 -325 3400 -500 
Q 3325 -225 3200 0 
Q 3575 25 4350 175 
L 4350 1750 
L 3850 1750 
L 3850 1225 
L 3375 1225 
Q 3400 1975 3400 2675 
Q 3400 3400 3375 3925 
L 4350 3925 
Q 4350 4925 4325 5200 
L 4825 5200 
Q 4800 4875 4800 3925 
L 5775 3925 
Q 5750 3325 5750 2700 
Q 5750 2100 5775 1550 
L 5300 1550 
L 5300 1750 
L 4800 1750 
L 4800 250 
Q 5075 325 5400 400 
Q 5325 650 5200 975 
z
M 2025 -50 
Q 2425 -50 2475 -12 
Q 2525 25 2550 150 
L 2550 1975 
L 825 1975 
L 825 -500 
L 350 -500 
Q 375 100 375 475 
L 375 1400 
Q 375 1850 350 2350 
L 3000 2350 
Q 2975 1950 2975 1450 
L 2975 -25 
Q 2975 -325 2787 -387 
Q 2600 -450 2225 -525 
Q 2125 -225 2025 -50 
z
M 625 2725 
Q 650 3050 650 3350 
Q 650 3675 625 3975 
L 2850 3975 
Q 2825 3675 2825 3350 
Q 2825 3050 2850 2725 
L 625 2725 
z
M 3000 4450 
Q 2650 4475 2175 4475 
L 1200 4475 
Q 625 4475 250 4450 
L 250 4875 
Q 550 4850 1125 4850 
L 2175 4850 
Q 2700 4850 3000 4875 
L 3000 4450 
z
M 2325 1675 
Q 2175 1475 2000 1025 
L 2325 1025 
L 2325 675 
L 1850 675 
L 1850 -125 
L 1425 -125 
L 1425 675 
L 1025 675 
L 1025 1025 
L 1700 1025 
Q 1875 1500 1925 1825 
Q 2100 1700 2325 1675 
z
M 5300 2125 
L 5300 3550 
L 4800 3550 
L 4800 2125 
L 5300 2125 
z
M 4350 2125 
L 4350 3550 
L 3850 3550 
L 3850 2125 
L 4350 2125 
z
M 2350 3100 
L 2350 3600 
L 1100 3600 
L 1100 3100 
L 2350 3100 
z
M 1575 1275 
Q 1400 1225 1225 1150 
Q 1150 1425 1025 1675 
L 1325 1825 
Q 1425 1550 1575 1275 
z
" transform="scale(0.015625)"/>
       <path id="SimHei-8d44" d="M 5300 2150 
Q 5275 1825 5275 1450 
Q 5275 1075 5300 575 
L 4800 575 
L 4800 1725 
L 1700 1725 
L 1700 425 
L 1200 425 
Q 1225 1000 1225 1375 
Q 1225 1775 1200 2150 
L 5300 2150 
z
M 4225 4075 
Q 4050 3775 4200 3562 
Q 4350 3350 4612 3162 
Q 4875 2975 5262 2850 
Q 5650 2725 6125 2700 
Q 5925 2425 5825 2175 
Q 5200 2300 4712 2550 
Q 4225 2800 3900 3350 
Q 3675 2775 3250 2550 
Q 2825 2325 2325 2175 
Q 2125 2400 1925 2575 
Q 2975 2775 3300 3175 
Q 3625 3575 3650 4150 
L 4225 4075 
z
M 3125 4250 
Q 2825 3850 2550 3650 
Q 2375 3825 2175 3950 
Q 2475 4150 2737 4487 
Q 3000 4825 3150 5200 
Q 3375 5100 3700 5050 
Q 3575 4825 3400 4650 
L 5750 4650 
Q 5675 4500 5300 3675 
Q 5000 3750 4800 3775 
Q 4925 4050 5025 4250 
L 3125 4250 
z
M 3525 1375 
Q 3400 1100 3337 825 
Q 3275 550 3012 262 
Q 2750 -25 2250 -275 
Q 1750 -525 800 -675 
Q 725 -425 500 -200 
Q 1225 -175 1712 -12 
Q 2200 150 2450 350 
Q 2700 550 2812 837 
Q 2925 1125 2925 1450 
Q 3225 1400 3525 1375 
z
M 3825 700 
Q 4300 525 4750 350 
Q 5200 175 5825 -100 
Q 5675 -300 5550 -600 
Q 5075 -325 4612 -125 
Q 4150 75 3625 250 
Q 3750 450 3825 700 
z
M 2075 3325 
Q 1450 2750 875 2050 
Q 625 2325 475 2425 
Q 1275 3050 1725 3625 
Q 1850 3500 2075 3325 
z
M 1700 3975 
Q 1300 4275 625 4675 
Q 800 4850 925 5025 
Q 1150 4875 2000 4350 
Q 1850 4200 1700 3975 
z
" transform="scale(0.015625)"/>
       <path id="SimHei-4f59" d="M 3850 3050 
Q 4150 3050 4525 3075 
L 4525 2600 
Q 4225 2625 3850 2625 
L 3450 2625 
L 3450 1825 
L 4475 1825 
Q 5050 1825 5375 1850 
L 5375 1350 
Q 5025 1375 4500 1375 
L 3450 1375 
L 3450 -75 
Q 3450 -450 3187 -525 
Q 2925 -600 2550 -650 
Q 2525 -425 2350 -50 
Q 2825 -75 2887 -25 
Q 2950 25 2950 175 
L 2950 1375 
L 1800 1375 
Q 1225 1375 900 1350 
L 900 1850 
Q 1200 1825 1800 1825 
L 2950 1825 
L 2950 2625 
L 2550 2625 
Q 2325 2625 1825 2600 
L 1825 3075 
Q 2225 3050 2525 3050 
L 3850 3050 
z
M 3400 4850 
Q 4450 3575 6150 3300 
Q 5925 3150 5750 2700 
Q 4150 3250 3100 4550 
Q 2375 3350 800 2400 
Q 450 2725 325 2800 
Q 1475 3325 2112 4100 
Q 2750 4875 2900 5275 
Q 3150 5175 3550 5050 
L 3400 4850 
z
M 2325 700 
Q 2075 500 1625 112 
Q 1175 -275 925 -450 
Q 725 -225 525 -50 
Q 1600 675 1900 1075 
Q 2100 875 2325 700 
z
M 4400 1175 
Q 4750 850 5025 550 
L 5600 0 
Q 5375 -175 5125 -400 
Q 4875 25 4050 850 
Q 4200 950 4400 1175 
z
" transform="scale(0.015625)"/>
       <path id="SimHei-989d" d="M 1925 3700 
Q 1725 3550 1550 3350 
L 2950 3350 
Q 2875 3150 2700 2875 
Q 2525 2600 2300 2300 
Q 2500 2200 2712 2075 
Q 2925 1950 3275 1725 
Q 3125 1575 2950 1325 
Q 2700 1525 2475 1662 
Q 2250 1800 1950 1950 
Q 1575 1650 1150 1375 
L 2800 1375 
Q 2775 950 2775 500 
Q 2775 50 2800 -450 
L 2325 -450 
L 2325 -50 
L 1325 -50 
L 1325 -575 
L 875 -575 
Q 900 -75 900 275 
L 900 1175 
Q 675 1075 550 1000 
Q 400 1225 225 1400 
Q 625 1550 975 1762 
Q 1325 1975 1550 2200 
Q 1300 2350 1075 2475 
Q 1175 2625 1350 2800 
Q 1625 2650 1925 2500 
Q 2150 2750 2300 3000 
L 1300 3000 
Q 1200 2875 1025 2687 
Q 850 2500 650 2275 
Q 475 2425 250 2575 
Q 650 2875 937 3237 
Q 1225 3600 1375 3925 
Q 1650 3800 1925 3700 
z
M 4150 4400 
Q 3775 4400 3375 4375 
L 3375 4825 
Q 3750 4800 4200 4800 
L 5300 4800 
Q 5600 4800 6000 4825 
L 6000 4375 
Q 5625 4400 5300 4400 
L 4950 4400 
Q 4850 3975 4725 3525 
L 5750 3525 
Q 5725 3125 5725 2775 
L 5725 1625 
Q 5725 1300 5750 825 
L 5300 825 
L 5300 3175 
L 3925 3175 
L 3925 800 
L 3450 800 
Q 3475 1275 3475 1650 
L 3475 2800 
Q 3475 3175 3450 3525 
L 4300 3525 
Q 4400 4025 4450 4400 
L 4150 4400 
z
M 2050 5100 
Q 2100 4825 2200 4475 
L 3225 4475 
Q 3200 4275 3200 4075 
Q 3200 3875 3225 3675 
L 2775 3675 
L 2775 4100 
L 875 4100 
L 875 3500 
L 400 3500 
Q 425 3775 425 4000 
Q 425 4250 400 4475 
L 1650 4475 
Q 1550 4750 1475 5000 
Q 1800 5050 2050 5100 
z
M 4925 2725 
Q 4850 2425 4837 2025 
Q 4825 1625 4712 1175 
Q 4600 725 4262 250 
Q 3925 -225 3250 -675 
Q 3050 -425 2850 -250 
Q 3375 -25 3687 262 
Q 4000 550 4162 937 
Q 4325 1325 4350 1750 
Q 4375 2175 4375 2775 
Q 4575 2750 4925 2725 
z
M 2325 325 
L 2325 1025 
L 1325 1025 
L 1325 325 
L 2325 325 
z
M 5075 800 
Q 5300 575 5487 400 
Q 5675 225 6025 -100 
Q 5800 -275 5600 -500 
Q 5450 -275 5275 -87 
Q 5100 100 4675 400 
Q 4875 575 5075 800 
z
" transform="scale(0.015625)"/>
      </defs>
      <use xlink:href="#SimHei-878d"/>
      <use xlink:href="#SimHei-8d44" transform="translate(100 0)"/>
      <use xlink:href="#SimHei-4f59" transform="translate(200 0)"/>
      <use xlink:href="#SimHei-989d" transform="translate(300 0)"/>
     </g>
    </g>
    <g id="line2d_40">
     <path d="M 41.629257 58.547656 
L 51.629257 58.547656 
L 61.629257 58.547656 
" style="fill: none; stroke: #00bfbf; stroke-width: 2; stroke-linecap: square"/>
    </g>
    <g id="text_21">
     <!-- 汇率 -->
     <g style="fill: #c9d1d9" transform="translate(69.629257 62.047656) scale(0.1 -0.1)">
      <defs>
       <path id="SimHei-6c47" d="M 4700 4675 
Q 5200 4675 5775 4700 
L 5775 4225 
Q 5200 4250 4700 4250 
L 2950 4250 
L 2950 100 
L 4850 100 
Q 5375 100 5950 125 
L 5950 -375 
Q 5375 -350 4950 -350 
L 2450 -350 
Q 2475 400 2475 825 
L 2475 3625 
Q 2475 4200 2450 4675 
L 4700 4675 
z
M 2175 1550 
Q 1525 525 1300 175 
Q 1075 -175 825 -525 
Q 600 -275 375 -175 
Q 725 225 1062 675 
Q 1400 1125 1800 1900 
Q 1925 1750 2175 1550 
z
M 625 3425 
Q 1175 3150 1800 2750 
Q 1675 2625 1500 2300 
Q 975 2700 350 3000 
Q 475 3150 625 3425 
z
M 950 5050 
Q 1450 4725 2025 4275 
Q 1800 4050 1675 3875 
Q 1175 4350 650 4675 
Q 850 4900 950 5050 
z
" transform="scale(0.015625)"/>
       <path id="SimHei-7387" d="M 3325 5150 
Q 3425 4900 3550 4525 
L 4800 4525 
Q 5250 4525 5800 4550 
L 5800 4125 
Q 5250 4175 4775 4175 
L 2800 4175 
Q 2975 4050 3300 3900 
Q 3075 3750 2875 3537 
Q 2675 3325 2475 3125 
L 3275 3125 
Q 3575 3425 3775 3775 
Q 4000 3600 4275 3425 
Q 3950 3250 3600 2875 
Q 3250 2500 2625 2000 
L 3850 2100 
Q 3725 2250 3600 2425 
Q 3750 2475 4000 2650 
Q 4250 2350 4700 1700 
Q 4475 1625 4225 1450 
Q 4175 1600 4025 1775 
Q 3700 1750 3425 1750 
L 3425 1050 
L 5150 1050 
Q 5675 1050 6100 1075 
L 6100 650 
Q 5700 675 5125 675 
L 3425 675 
L 3425 175 
Q 3425 -300 3450 -625 
L 2900 -625 
Q 2925 -300 2925 175 
L 2925 675 
L 1325 675 
Q 825 675 325 650 
L 325 1075 
Q 825 1050 1350 1050 
L 2925 1050 
L 2925 1700 
Q 2700 1675 2475 1637 
Q 2250 1600 2025 1525 
Q 1950 1775 1850 2000 
Q 2075 2025 2325 2200 
Q 2575 2375 2975 2800 
Q 2300 2725 2025 2625 
Q 1975 2875 1850 3175 
Q 2075 3175 2325 3487 
Q 2575 3800 2750 4175 
L 1700 4175 
Q 1150 4175 650 4125 
L 650 4550 
Q 1150 4525 1550 4525 
L 2975 4525 
Q 2900 4825 2800 5025 
Q 3025 5075 3325 5150 
z
M 1625 2575 
Q 1725 2400 1825 2200 
Q 1575 2050 1325 1862 
Q 1075 1675 800 1425 
Q 625 1675 475 1875 
Q 800 2025 1100 2212 
Q 1400 2400 1625 2575 
z
M 4850 2650 
Q 5125 2475 5337 2337 
Q 5550 2200 5875 1950 
Q 5675 1800 5500 1600 
Q 5300 1775 5062 1975 
Q 4825 2175 4575 2325 
Q 4725 2475 4850 2650 
z
M 5725 3525 
Q 5550 3450 5300 3262 
Q 5050 3075 4800 2825 
Q 4625 3050 4475 3175 
Q 4700 3325 4875 3487 
Q 5050 3650 5300 3925 
Q 5525 3700 5725 3525 
z
M 1050 3850 
Q 1425 3600 1775 3275 
Q 1575 3100 1425 2925 
Q 1075 3300 675 3525 
Q 875 3700 1050 3850 
z
" transform="scale(0.015625)"/>
      </defs>
      <use xlink:href="#SimHei-6c47"/>
      <use xlink:href="#SimHei-7387" transform="translate(100 0)"/>
     </g>
    </g>
    <g id="line2d_41">
     <path d="M 41.629257 72.883594 
L 51.629257 72.883594 
L 61.629257 72.883594 
" style="fill: none; stroke: #ffffff; stroke-width: 2; stroke-linecap: square"/>
    </g>
    <g id="text_22">
     <!-- 中美国债利差 -->
     <g style="fill: #c9d1d9" transform="translate(69.629257 76.383594) scale(0.1 -0.1)">
      <defs>
       <path id="SimHei-4e2d" d="M 3475 5200 
Q 3450 4500 3450 3875 
L 5625 3875 
Q 5600 3375 5600 2500 
Q 5600 1650 5625 1225 
L 5075 1225 
L 5075 1600 
L 3450 1600 
L 3450 525 
Q 3450 225 3475 -600 
L 2875 -600 
Q 2925 -150 2925 450 
L 2925 1600 
L 1300 1600 
L 1300 1225 
L 750 1225 
Q 775 1600 775 2500 
Q 775 3425 750 3875 
L 2925 3875 
Q 2925 4550 2900 5200 
L 3475 5200 
z
M 5075 2000 
L 5075 3475 
L 3450 3475 
L 3450 2000 
L 5075 2000 
z
M 2925 2000 
L 2925 3475 
L 1300 3475 
L 1300 2000 
L 2925 2000 
z
" transform="scale(0.015625)"/>
       <path id="SimHei-7f8e" d="M 4650 5000 
Q 4525 4900 4150 4350 
L 4800 4350 
Q 5300 4350 5575 4375 
L 5575 3950 
Q 5300 3975 4800 3975 
L 3450 3975 
L 3450 3375 
L 4475 3375 
Q 4875 3375 5250 3400 
L 5250 3000 
Q 4875 3025 4475 3025 
L 3450 3025 
L 3450 2450 
L 5025 2450 
Q 5500 2450 5900 2475 
L 5900 2050 
Q 5525 2075 5025 2075 
L 1425 2075 
Q 900 2075 525 2050 
L 525 2475 
Q 900 2450 1425 2450 
L 3000 2450 
L 3000 3025 
L 2050 3025 
Q 1625 3025 1200 3000 
L 1200 3400 
Q 1625 3375 2050 3375 
L 3000 3375 
L 3000 3975 
L 1725 3975 
Q 1325 3975 850 3950 
L 850 4375 
Q 1325 4350 1725 4350 
L 2250 4350 
Q 2100 4625 1800 4975 
Q 2000 5100 2175 5225 
L 2700 4550 
Q 2475 4450 2325 4350 
L 3675 4350 
Q 3900 4700 4150 5275 
Q 4350 5125 4650 5000 
z
M 525 -225 
Q 950 -175 1425 -25 
Q 1900 125 2275 412 
Q 2650 700 2800 1050 
L 1875 1050 
Q 1325 1050 725 1025 
L 725 1450 
Q 1325 1425 1875 1425 
L 2900 1425 
Q 2925 1750 2925 1975 
Q 3250 1875 3500 1875 
Q 3425 1650 3375 1425 
L 4600 1425 
Q 5250 1425 5725 1450 
L 5725 1025 
Q 5250 1050 4625 1050 
L 3600 1050 
Q 3900 700 4187 500 
Q 4475 300 4700 200 
Q 4925 100 5225 12 
Q 5525 -75 6050 -150 
Q 5900 -375 5750 -675 
Q 5175 -550 4775 -362 
Q 4375 -175 3962 137 
Q 3550 450 3225 900 
Q 3000 525 2787 300 
Q 2575 75 2250 -125 
Q 1925 -325 1575 -462 
Q 1225 -600 825 -700 
Q 750 -475 525 -225 
z
" transform="scale(0.015625)"/>
       <path id="SimHei-56fd" d="M 5775 4975 
Q 5750 4350 5750 3575 
L 5750 900 
Q 5750 125 5775 -625 
L 5275 -625 
L 5275 -275 
L 1125 -275 
L 1125 -650 
L 625 -650 
Q 650 125 650 950 
L 650 3575 
Q 650 4325 625 4975 
L 5775 4975 
z
M 5275 100 
L 5275 4600 
L 1125 4600 
L 1125 100 
L 5275 100 
z
M 3975 3925 
Q 4350 3925 4775 3950 
L 4775 3500 
Q 4400 3525 3975 3525 
L 3350 3525 
L 3350 2700 
L 3800 2700 
Q 4250 2700 4650 2725 
L 4650 2275 
Q 4250 2300 3800 2300 
L 3350 2300 
L 3350 1175 
L 4050 1175 
Q 4500 1175 4900 1200 
L 4900 750 
Q 4525 775 4050 775 
L 2350 775 
Q 1925 775 1500 750 
L 1500 1200 
Q 1925 1175 2350 1175 
L 2900 1175 
L 2900 2300 
L 2550 2300 
Q 2125 2300 1750 2275 
L 1750 2725 
Q 2125 2700 2550 2700 
L 2900 2700 
L 2900 3525 
L 2525 3525 
Q 2075 3525 1650 3500 
L 1650 3950 
Q 2075 3925 2525 3925 
L 3975 3925 
z
M 4050 2125 
Q 4175 2000 4550 1600 
Q 4300 1450 4125 1325 
Q 4050 1425 3700 1850 
Q 3900 2000 4050 2125 
z
" transform="scale(0.015625)"/>
       <path id="SimHei-503a" d="M 3750 4600 
Q 3750 4900 3725 5200 
L 4275 5200 
Q 4250 4875 4250 4600 
L 5000 4600 
Q 5550 4600 5800 4625 
L 5800 4200 
Q 5525 4225 5000 4225 
L 4250 4225 
L 4250 3850 
L 4875 3850 
Q 5250 3850 5625 3875 
L 5625 3450 
Q 5325 3475 4875 3475 
L 4250 3475 
L 4250 3100 
L 5150 3100 
Q 5725 3100 6050 3125 
L 6050 2700 
Q 5675 2725 5150 2725 
L 2875 2725 
Q 2400 2725 2000 2700 
L 2000 3125 
Q 2375 3100 2850 3100 
L 3750 3100 
L 3750 3475 
L 3325 3475 
Q 2850 3475 2500 3450 
L 2500 3875 
Q 2850 3850 3300 3850 
L 3750 3850 
L 3750 4225 
L 3225 4225 
Q 2675 4225 2300 4200 
L 2300 4625 
Q 2650 4600 3125 4600 
L 3750 4600 
z
M 250 2600 
Q 500 2875 887 3550 
Q 1275 4225 1500 5075 
Q 1750 4950 2100 4850 
Q 1900 4625 1550 3775 
L 1550 800 
Q 1550 -25 1575 -500 
L 1050 -500 
Q 1075 0 1075 825 
L 1075 2950 
Q 775 2450 625 2225 
L 250 2600 
z
M 5650 2300 
Q 5625 2100 5625 1550 
Q 5625 1025 5650 775 
L 5150 775 
L 5150 1925 
L 2975 1925 
L 2975 700 
L 2475 700 
Q 2500 1075 2500 1550 
Q 2500 2050 2475 2300 
L 5650 2300 
z
M 1950 -150 
Q 3250 25 3562 562 
Q 3875 1100 3800 1650 
L 4350 1600 
Q 4275 600 3825 112 
Q 3375 -375 2250 -600 
Q 2125 -350 1950 -150 
z
M 4675 675 
Q 5075 475 5412 300 
Q 5750 125 6050 -75 
Q 5900 -250 5750 -525 
Q 4875 125 4400 300 
Q 4525 500 4675 675 
z
" transform="scale(0.015625)"/>
       <path id="SimHei-5229" d="M 2400 2650 
Q 2950 2150 3500 1525 
Q 3325 1375 3125 1150 
Q 2775 1675 2400 2075 
L 2400 225 
Q 2400 -375 2425 -675 
L 1875 -675 
Q 1900 -350 1900 225 
L 1900 1975 
Q 1625 1450 1375 1100 
Q 1125 750 725 275 
Q 575 525 300 700 
Q 850 1150 1287 1837 
Q 1725 2525 1850 2950 
L 1375 2950 
Q 775 2950 500 2925 
L 500 3400 
Q 800 3375 1375 3375 
L 1900 3375 
L 1900 4350 
Q 1400 4250 825 4150 
Q 750 4400 625 4625 
Q 1050 4650 1800 4800 
Q 2550 4950 3225 5175 
Q 3350 4875 3550 4650 
Q 3050 4575 2400 4450 
L 2400 3375 
L 2825 3375 
Q 3350 3375 3750 3400 
L 3750 2925 
Q 3350 2950 2850 2950 
L 2400 2950 
L 2400 2650 
z
M 5775 5125 
Q 5750 4875 5750 4275 
L 5750 -100 
Q 5750 -400 5512 -487 
Q 5275 -575 4675 -675 
Q 4600 -300 4500 -75 
Q 5025 -100 5137 -50 
Q 5250 0 5250 150 
L 5250 4300 
Q 5250 4650 5225 5125 
L 5775 5125 
z
M 4625 4100 
Q 4600 3800 4600 3300 
L 4600 1725 
Q 4600 1200 4625 825 
L 4075 825 
Q 4100 1275 4100 1725 
L 4100 3300 
Q 4100 3700 4075 4100 
L 4625 4100 
z
" transform="scale(0.015625)"/>
       <path id="SimHei-5dee" d="M 4725 4975 
Q 4500 4725 4250 4275 
L 4850 4275 
Q 5450 4275 5825 4300 
L 5825 3850 
Q 5425 3875 4850 3875 
L 3275 3875 
Q 3225 3600 3150 3275 
L 4525 3275 
Q 5075 3275 5525 3300 
L 5525 2850 
Q 5075 2875 4500 2875 
L 3050 2875 
Q 2975 2650 2850 2325 
L 5125 2325 
Q 5675 2325 6025 2350 
L 6025 1900 
Q 5700 1925 5150 1925 
L 2650 1925 
Q 2425 1550 2250 1300 
Q 2650 1275 3100 1275 
L 4525 1275 
Q 4975 1275 5350 1300 
L 5350 850 
Q 4975 875 4575 875 
L 3925 875 
L 3925 -50 
L 5000 -50 
Q 5200 -50 5900 -25 
L 5900 -500 
Q 5275 -475 5025 -475 
L 2100 -475 
Q 1700 -475 1400 -500 
L 1400 -25 
Q 1775 -50 2125 -50 
L 3425 -50 
L 3425 875 
L 3100 875 
Q 2625 875 2175 850 
L 2175 1200 
Q 1925 875 1487 475 
Q 1050 75 625 -250 
Q 425 -25 200 150 
Q 750 475 1262 925 
Q 1775 1375 2100 1925 
L 1325 1925 
Q 750 1925 375 1900 
L 375 2350 
Q 750 2325 1350 2325 
L 2325 2325 
Q 2450 2575 2550 2875 
L 1725 2875 
Q 1375 2875 1000 2850 
L 1000 3300 
Q 1500 3275 1700 3275 
L 2650 3275 
Q 2725 3575 2775 3875 
L 1500 3875 
Q 1100 3875 650 3850 
L 650 4300 
Q 1025 4275 1425 4275 
L 2275 4275 
Q 2075 4675 1850 4950 
Q 2025 5050 2250 5225 
Q 2450 4975 2725 4550 
Q 2525 4450 2325 4275 
L 3750 4275 
Q 4000 4700 4150 5250 
Q 4400 5100 4725 4975 
z
" transform="scale(0.015625)"/>
      </defs>
      <use xlink:href="#SimHei-4e2d"/>
      <use xlink:href="#SimHei-7f8e" transform="translate(100 0)"/>
      <use xlink:href="#SimHei-56fd" transform="translate(200 0)"/>
      <use xlink:href="#SimHei-503a" transform="translate(300 0)"/>
      <use xlink:href="#SimHei-5229" transform="translate(400 0)"/>
      <use xlink:href="#SimHei-5dee" transform="translate(500 0)"/>
     </g>
    </g>
    <g id="line2d_42">
     <path d="M 41.629257 86.133594 
L 51.629257 86.133594 
L 61.629257 86.133594 
" style="fill: none; stroke: #ff0000; stroke-width: 2; stroke-linecap: square"/>
    </g>
    <g id="text_23">
     <!-- 500ETF -->
     <g style="fill: #c9d1d9" transform="translate(69.629257 89.633594) scale(0.1 -0.1)">
      <defs>
       <path id="SimHei-45" d="M 2900 125 
L 350 125 
L 350 4400 
L 2775 4400 
L 2775 3925 
L 925 3925 
L 925 2600 
L 2625 2600 
L 2625 2125 
L 925 2125 
L 925 600 
L 2900 600 
L 2900 125 
z
" transform="scale(0.015625)"/>
       <path id="SimHei-54" d="M 2850 3925 
L 1850 3925 
L 1850 125 
L 1275 125 
L 1275 3925 
L 275 3925 
L 275 4400 
L 2850 4400 
L 2850 3925 
z
" transform="scale(0.015625)"/>
       <path id="SimHei-46" d="M 2925 3925 
L 875 3925 
L 875 2525 
L 2425 2525 
L 2425 2050 
L 875 2050 
L 875 125 
L 300 125 
L 300 4400 
L 2925 4400 
L 2925 3925 
z
" transform="scale(0.015625)"/>
      </defs>
      <use xlink:href="#SimHei-35"/>
      <use xlink:href="#SimHei-30" transform="translate(50 0)"/>
      <use xlink:href="#SimHei-30" transform="translate(100 0)"/>
      <use xlink:href="#SimHei-45" transform="translate(150 0)"/>
      <use xlink:href="#SimHei-54" transform="translate(200 0)"/>
      <use xlink:href="#SimHei-46" transform="translate(250 0)"/>
     </g>
    </g>
   </g>
  </g>
 </g>
 <defs>
  <clipPath id="p82ee415ad7">
   <rect x="32.629257" y="30.977344" width="1025.28" height="525.6"/>
  </clipPath>
 </defs>
</svg>
