<?xml version="1.0" encoding="utf-8" standalone="no"?>
<!DOCTYPE svg PUBLIC "-//W3C//DTD SVG 1.1//EN"
  "http://www.w3.org/Graphics/SVG/1.1/DTD/svg11.dtd">
<svg xmlns:xlink="http://www.w3.org/1999/xlink" width="1061.68pt" height="595.606769pt" viewBox="0 0 1061.68 595.606769" xmlns="http://www.w3.org/2000/svg" version="1.1">
 <metadata>
  <rdf:RDF xmlns:dc="http://purl.org/dc/elements/1.1/" xmlns:cc="http://creativecommons.org/ns#" xmlns:rdf="http://www.w3.org/1999/02/22-rdf-syntax-ns#">
   <cc:Work>
    <dc:type rdf:resource="http://purl.org/dc/dcmitype/StillImage"/>
    <dc:date>2026-07-17T22:13:49.650768</dc:date>
    <dc:format>image/svg+xml</dc:format>
    <dc:creator>
     <cc:Agent>
      <dc:title>Matplotlib v3.10.9, https://matplotlib.org/</dc:title>
     </cc:Agent>
    </dc:creator>
   </cc:Work>
  </rdf:RDF>
 </metadata>
 <defs>
  <style type="text/css">*{stroke-linejoin: round; stroke-linecap: butt}</style>
 </defs>
 <g id="figure_1">
  <g id="patch_1">
   <path d="M 0 595.606769 
L 1061.68 595.606769 
L 1061.68 0 
L 0 0 
z
" style="fill: #0d1117"/>
  </g>
  <g id="axes_1">
   <g id="patch_2">
    <path d="M 29.2 556.870312 
L 1054.48 556.870312 
L 1054.48 31.270312 
L 29.2 31.270312 
z
" style="fill: #161b22"/>
   </g>
   <g id="matplotlib.axis_1">
    <g id="xtick_1">
     <g id="line2d_1">
      <path d="M 42.406894 556.870312 
L 42.406894 31.270312 
" clip-path="url(#p431f34378e)" style="fill: none; stroke-dasharray: 2.96,1.28; stroke-dashoffset: 0; stroke: #21262d; stroke-opacity: 0.4; stroke-width: 0.8"/>
     </g>
     <g id="line2d_2">
      <defs>
       <path id="med09f7e4ad" d="M 0 0 
L 0 3.5 
" style="stroke: #c9d1d9; stroke-width: 0.8"/>
      </defs>
      <g>
       <use xlink:href="#med09f7e4ad" x="42.406894" y="556.870312" style="fill: #c9d1d9; stroke: #c9d1d9; stroke-width: 0.8"/>
      </g>
     </g>
     <g id="text_1">
      <!-- 2025-09 -->
      <g style="fill: #c9d1d9" transform="translate(11.471005 587.324237) rotate(-30) scale(0.1 -0.1)">
       <defs>
        <path id="SimHei-32" d="M 300 250 
Q 325 625 650 925 
Q 975 1225 1475 1862 
Q 1975 2500 2125 2850 
Q 2275 3200 2237 3450 
Q 2200 3700 2000 3862 
Q 1800 4025 1537 4000 
Q 1275 3975 1037 3800 
Q 800 3625 675 3275 
L 200 3350 
Q 400 3925 712 4187 
Q 1025 4450 1450 4475 
Q 1700 4500 1900 4462 
Q 2100 4425 2312 4287 
Q 2525 4150 2662 3875 
Q 2800 3600 2762 3212 
Q 2725 2825 2375 2287 
Q 2025 1750 1025 600 
L 2825 600 
L 2825 150 
L 300 150 
L 300 250 
z
" transform="scale(0.015625)"/>
        <path id="SimHei-30" d="M 225 2537 
Q 250 3200 412 3587 
Q 575 3975 875 4225 
Q 1175 4475 1612 4475 
Q 2050 4475 2375 4112 
Q 2700 3750 2800 3200 
Q 2900 2650 2862 1937 
Q 2825 1225 2612 775 
Q 2400 325 1975 150 
Q 1550 -25 1125 187 
Q 700 400 525 750 
Q 350 1100 275 1487 
Q 200 1875 225 2537 
z
M 750 2687 
Q 675 2000 800 1462 
Q 925 925 1212 700 
Q 1500 475 1800 612 
Q 2100 750 2237 1162 
Q 2375 1575 2375 2062 
Q 2375 2550 2337 2950 
Q 2300 3350 2112 3675 
Q 1925 4000 1612 4012 
Q 1300 4025 1062 3700 
Q 825 3375 750 2687 
z
" transform="scale(0.015625)"/>
        <path id="SimHei-35" d="M 550 1325 
Q 725 650 1150 575 
Q 1575 500 1837 662 
Q 2100 825 2212 1087 
Q 2325 1350 2312 1675 
Q 2300 2000 2137 2225 
Q 1975 2450 1725 2525 
Q 1475 2600 1162 2525 
Q 850 2450 650 2175 
L 225 2225 
Q 275 2375 700 4375 
L 2675 4375 
L 2675 3925 
L 1075 3925 
Q 950 3250 825 2850 
Q 1200 3025 1525 3012 
Q 1850 3000 2150 2862 
Q 2450 2725 2587 2487 
Q 2725 2250 2787 2012 
Q 2850 1775 2837 1500 
Q 2825 1225 2725 937 
Q 2625 650 2425 462 
Q 2225 275 1937 162 
Q 1650 50 1275 75 
Q 900 100 562 350 
Q 225 600 100 1200 
L 550 1325 
z
" transform="scale(0.015625)"/>
        <path id="SimHei-2d" d="M 2975 2125 
L 125 2125 
L 125 2525 
L 2975 2525 
L 2975 2125 
z
" transform="scale(0.015625)"/>
        <path id="SimHei-39" d="M 800 75 
Q 1350 1000 1700 1750 
Q 1075 1650 662 1912 
Q 250 2175 162 2625 
Q 75 3075 175 3437 
Q 275 3800 487 4037 
Q 700 4275 1000 4375 
Q 1300 4475 1537 4475 
Q 1775 4475 2025 4375 
Q 2275 4275 2475 4075 
Q 2675 3875 2750 3662 
Q 2825 3450 2825 3112 
Q 2825 2775 2575 2250 
Q 2325 1725 1350 75 
L 800 75 
z
M 662 2875 
Q 700 2550 937 2337 
Q 1175 2125 1450 2150 
Q 1725 2175 1887 2300 
Q 2050 2425 2200 2725 
Q 2300 3100 2250 3362 
Q 2200 3625 1987 3800 
Q 1775 3975 1525 3975 
Q 1375 4000 1137 3900 
Q 900 3800 762 3500 
Q 625 3200 662 2875 
z
" transform="scale(0.015625)"/>
       </defs>
       <use xlink:href="#SimHei-32"/>
       <use xlink:href="#SimHei-30" transform="translate(50 0)"/>
       <use xlink:href="#SimHei-32" transform="translate(100 0)"/>
       <use xlink:href="#SimHei-35" transform="translate(150 0)"/>
       <use xlink:href="#SimHei-2d" transform="translate(200 0)"/>
       <use xlink:href="#SimHei-30" transform="translate(250 0)"/>
       <use xlink:href="#SimHei-39" transform="translate(300 0)"/>
      </g>
     </g>
    </g>
    <g id="xtick_2">
     <g id="line2d_3">
      <path d="M 133.488919 556.870312 
L 133.488919 31.270312 
" clip-path="url(#p431f34378e)" style="fill: none; stroke-dasharray: 2.96,1.28; stroke-dashoffset: 0; stroke: #21262d; stroke-opacity: 0.4; stroke-width: 0.8"/>
     </g>
     <g id="line2d_4">
      <g>
       <use xlink:href="#med09f7e4ad" x="133.488919" y="556.870312" style="fill: #c9d1d9; stroke: #c9d1d9; stroke-width: 0.8"/>
      </g>
     </g>
     <g id="text_2">
      <!-- 2025-10 -->
      <g style="fill: #c9d1d9" transform="translate(102.55303 587.324237) rotate(-30) scale(0.1 -0.1)">
       <defs>
        <path id="SimHei-31" d="M 1400 3600 
Q 1075 3275 575 2975 
L 575 3450 
Q 1200 3875 1600 4450 
L 1900 4450 
L 1900 150 
L 1400 150 
L 1400 3600 
z
" transform="scale(0.015625)"/>
       </defs>
       <use xlink:href="#SimHei-32"/>
       <use xlink:href="#SimHei-30" transform="translate(50 0)"/>
       <use xlink:href="#SimHei-32" transform="translate(100 0)"/>
       <use xlink:href="#SimHei-35" transform="translate(150 0)"/>
       <use xlink:href="#SimHei-2d" transform="translate(200 0)"/>
       <use xlink:href="#SimHei-31" transform="translate(250 0)"/>
       <use xlink:href="#SimHei-30" transform="translate(300 0)"/>
      </g>
     </g>
    </g>
    <g id="xtick_3">
     <g id="line2d_5">
      <path d="M 227.607012 556.870312 
L 227.607012 31.270312 
" clip-path="url(#p431f34378e)" style="fill: none; stroke-dasharray: 2.96,1.28; stroke-dashoffset: 0; stroke: #21262d; stroke-opacity: 0.4; stroke-width: 0.8"/>
     </g>
     <g id="line2d_6">
      <g>
       <use xlink:href="#med09f7e4ad" x="227.607012" y="556.870312" style="fill: #c9d1d9; stroke: #c9d1d9; stroke-width: 0.8"/>
      </g>
     </g>
     <g id="text_3">
      <!-- 2025-11 -->
      <g style="fill: #c9d1d9" transform="translate(196.671123 587.324237) rotate(-30) scale(0.1 -0.1)">
       <use xlink:href="#SimHei-32"/>
       <use xlink:href="#SimHei-30" transform="translate(50 0)"/>
       <use xlink:href="#SimHei-32" transform="translate(100 0)"/>
       <use xlink:href="#SimHei-35" transform="translate(150 0)"/>
       <use xlink:href="#SimHei-2d" transform="translate(200 0)"/>
       <use xlink:href="#SimHei-31" transform="translate(250 0)"/>
       <use xlink:href="#SimHei-31" transform="translate(300 0)"/>
      </g>
     </g>
    </g>
    <g id="xtick_4">
     <g id="line2d_7">
      <path d="M 318.689038 556.870312 
L 318.689038 31.270312 
" clip-path="url(#p431f34378e)" style="fill: none; stroke-dasharray: 2.96,1.28; stroke-dashoffset: 0; stroke: #21262d; stroke-opacity: 0.4; stroke-width: 0.8"/>
     </g>
     <g id="line2d_8">
      <g>
       <use xlink:href="#med09f7e4ad" x="318.689038" y="556.870312" style="fill: #c9d1d9; stroke: #c9d1d9; stroke-width: 0.8"/>
      </g>
     </g>
     <g id="text_4">
      <!-- 2025-12 -->
      <g style="fill: #c9d1d9" transform="translate(287.753148 587.324237) rotate(-30) scale(0.1 -0.1)">
       <use xlink:href="#SimHei-32"/>
       <use xlink:href="#SimHei-30" transform="translate(50 0)"/>
       <use xlink:href="#SimHei-32" transform="translate(100 0)"/>
       <use xlink:href="#SimHei-35" transform="translate(150 0)"/>
       <use xlink:href="#SimHei-2d" transform="translate(200 0)"/>
       <use xlink:href="#SimHei-31" transform="translate(250 0)"/>
       <use xlink:href="#SimHei-32" transform="translate(300 0)"/>
      </g>
     </g>
    </g>
    <g id="xtick_5">
     <g id="line2d_9">
      <path d="M 412.807131 556.870312 
L 412.807131 31.270312 
" clip-path="url(#p431f34378e)" style="fill: none; stroke-dasharray: 2.96,1.28; stroke-dashoffset: 0; stroke: #21262d; stroke-opacity: 0.4; stroke-width: 0.8"/>
     </g>
     <g id="line2d_10">
      <g>
       <use xlink:href="#med09f7e4ad" x="412.807131" y="556.870312" style="fill: #c9d1d9; stroke: #c9d1d9; stroke-width: 0.8"/>
      </g>
     </g>
     <g id="text_5">
      <!-- 2026-01 -->
      <g style="fill: #c9d1d9" transform="translate(381.871241 587.324237) rotate(-30) scale(0.1 -0.1)">
       <defs>
        <path id="SimHei-36" d="M 250 1612 
Q 275 1975 387 2225 
Q 500 2475 725 2850 
L 1750 4450 
L 2325 4450 
L 1275 2800 
Q 1950 2975 2350 2750 
Q 2750 2525 2887 2237 
Q 3025 1950 3037 1612 
Q 3050 1275 2937 950 
Q 2825 625 2537 362 
Q 2250 100 1737 75 
Q 1225 50 862 262 
Q 500 475 362 862 
Q 225 1250 250 1612 
z
M 1025 787 
Q 1250 550 1625 525 
Q 2000 500 2250 775 
Q 2500 1050 2500 1575 
Q 2500 2100 2187 2300 
Q 1875 2500 1487 2450 
Q 1100 2400 925 2075 
Q 750 1750 775 1387 
Q 800 1025 1025 787 
z
" transform="scale(0.015625)"/>
       </defs>
       <use xlink:href="#SimHei-32"/>
       <use xlink:href="#SimHei-30" transform="translate(50 0)"/>
       <use xlink:href="#SimHei-32" transform="translate(100 0)"/>
       <use xlink:href="#SimHei-36" transform="translate(150 0)"/>
       <use xlink:href="#SimHei-2d" transform="translate(200 0)"/>
       <use xlink:href="#SimHei-30" transform="translate(250 0)"/>
       <use xlink:href="#SimHei-31" transform="translate(300 0)"/>
      </g>
     </g>
    </g>
    <g id="xtick_6">
     <g id="line2d_11">
      <path d="M 506.925224 556.870312 
L 506.925224 31.270312 
" clip-path="url(#p431f34378e)" style="fill: none; stroke-dasharray: 2.96,1.28; stroke-dashoffset: 0; stroke: #21262d; stroke-opacity: 0.4; stroke-width: 0.8"/>
     </g>
     <g id="line2d_12">
      <g>
       <use xlink:href="#med09f7e4ad" x="506.925224" y="556.870312" style="fill: #c9d1d9; stroke: #c9d1d9; stroke-width: 0.8"/>
      </g>
     </g>
     <g id="text_6">
      <!-- 2026-02 -->
      <g style="fill: #c9d1d9" transform="translate(475.989334 587.324237) rotate(-30) scale(0.1 -0.1)">
       <use xlink:href="#SimHei-32"/>
       <use xlink:href="#SimHei-30" transform="translate(50 0)"/>
       <use xlink:href="#SimHei-32" transform="translate(100 0)"/>
       <use xlink:href="#SimHei-36" transform="translate(150 0)"/>
       <use xlink:href="#SimHei-2d" transform="translate(200 0)"/>
       <use xlink:href="#SimHei-30" transform="translate(250 0)"/>
       <use xlink:href="#SimHei-32" transform="translate(300 0)"/>
      </g>
     </g>
    </g>
    <g id="xtick_7">
     <g id="line2d_13">
      <path d="M 591.935114 556.870312 
L 591.935114 31.270312 
" clip-path="url(#p431f34378e)" style="fill: none; stroke-dasharray: 2.96,1.28; stroke-dashoffset: 0; stroke: #21262d; stroke-opacity: 0.4; stroke-width: 0.8"/>
     </g>
     <g id="line2d_14">
      <g>
       <use xlink:href="#med09f7e4ad" x="591.935114" y="556.870312" style="fill: #c9d1d9; stroke: #c9d1d9; stroke-width: 0.8"/>
      </g>
     </g>
     <g id="text_7">
      <!-- 2026-03 -->
      <g style="fill: #c9d1d9" transform="translate(560.999225 587.324237) rotate(-30) scale(0.1 -0.1)">
       <defs>
        <path id="SimHei-33" d="M 250 1225 
L 700 1300 
Q 800 975 1025 762 
Q 1250 550 1587 562 
Q 1925 575 2125 837 
Q 2325 1100 2300 1437 
Q 2275 1775 2037 1962 
Q 1800 2150 1275 2225 
L 1275 2550 
Q 1800 2600 2037 2825 
Q 2275 3050 2250 3412 
Q 2225 3775 1925 3937 
Q 1625 4100 1287 3975 
Q 950 3850 750 3275 
L 300 3350 
Q 450 3800 712 4100 
Q 975 4400 1425 4450 
Q 1875 4500 2212 4337 
Q 2550 4175 2687 3837 
Q 2825 3500 2725 3100 
Q 2625 2700 2150 2400 
Q 2500 2250 2687 1950 
Q 2875 1650 2812 1162 
Q 2750 675 2375 375 
Q 2000 75 1525 87 
Q 1050 100 700 387 
Q 350 675 250 1225 
z
" transform="scale(0.015625)"/>
       </defs>
       <use xlink:href="#SimHei-32"/>
       <use xlink:href="#SimHei-30" transform="translate(50 0)"/>
       <use xlink:href="#SimHei-32" transform="translate(100 0)"/>
       <use xlink:href="#SimHei-36" transform="translate(150 0)"/>
       <use xlink:href="#SimHei-2d" transform="translate(200 0)"/>
       <use xlink:href="#SimHei-30" transform="translate(250 0)"/>
       <use xlink:href="#SimHei-33" transform="translate(300 0)"/>
      </g>
     </g>
    </g>
    <g id="xtick_8">
     <g id="line2d_15">
      <path d="M 686.053207 556.870312 
L 686.053207 31.270312 
" clip-path="url(#p431f34378e)" style="fill: none; stroke-dasharray: 2.96,1.28; stroke-dashoffset: 0; stroke: #21262d; stroke-opacity: 0.4; stroke-width: 0.8"/>
     </g>
     <g id="line2d_16">
      <g>
       <use xlink:href="#med09f7e4ad" x="686.053207" y="556.870312" style="fill: #c9d1d9; stroke: #c9d1d9; stroke-width: 0.8"/>
      </g>
     </g>
     <g id="text_8">
      <!-- 2026-04 -->
      <g style="fill: #c9d1d9" transform="translate(655.117318 587.324237) rotate(-30) scale(0.1 -0.1)">
       <defs>
        <path id="SimHei-34" d="M 2000 1100 
L 75 1100 
L 75 1525 
L 2100 4450 
L 2475 4450 
L 2475 1525 
L 3075 1525 
L 3075 1100 
L 2475 1100 
L 2475 150 
L 2000 150 
L 2000 1100 
z
M 2000 1525 
L 2000 3500 
L 600 1525 
L 2000 1525 
z
" transform="scale(0.015625)"/>
       </defs>
       <use xlink:href="#SimHei-32"/>
       <use xlink:href="#SimHei-30" transform="translate(50 0)"/>
       <use xlink:href="#SimHei-32" transform="translate(100 0)"/>
       <use xlink:href="#SimHei-36" transform="translate(150 0)"/>
       <use xlink:href="#SimHei-2d" transform="translate(200 0)"/>
       <use xlink:href="#SimHei-30" transform="translate(250 0)"/>
       <use xlink:href="#SimHei-34" transform="translate(300 0)"/>
      </g>
     </g>
    </g>
    <g id="xtick_9">
     <g id="line2d_17">
      <path d="M 777.135232 556.870312 
L 777.135232 31.270312 
" clip-path="url(#p431f34378e)" style="fill: none; stroke-dasharray: 2.96,1.28; stroke-dashoffset: 0; stroke: #21262d; stroke-opacity: 0.4; stroke-width: 0.8"/>
     </g>
     <g id="line2d_18">
      <g>
       <use xlink:href="#med09f7e4ad" x="777.135232" y="556.870312" style="fill: #c9d1d9; stroke: #c9d1d9; stroke-width: 0.8"/>
      </g>
     </g>
     <g id="text_9">
      <!-- 2026-05 -->
      <g style="fill: #c9d1d9" transform="translate(746.199343 587.324237) rotate(-30) scale(0.1 -0.1)">
       <use xlink:href="#SimHei-32"/>
       <use xlink:href="#SimHei-30" transform="translate(50 0)"/>
       <use xlink:href="#SimHei-32" transform="translate(100 0)"/>
       <use xlink:href="#SimHei-36" transform="translate(150 0)"/>
       <use xlink:href="#SimHei-2d" transform="translate(200 0)"/>
       <use xlink:href="#SimHei-30" transform="translate(250 0)"/>
       <use xlink:href="#SimHei-35" transform="translate(300 0)"/>
      </g>
     </g>
    </g>
    <g id="xtick_10">
     <g id="line2d_19">
      <path d="M 871.253325 556.870312 
L 871.253325 31.270312 
" clip-path="url(#p431f34378e)" style="fill: none; stroke-dasharray: 2.96,1.28; stroke-dashoffset: 0; stroke: #21262d; stroke-opacity: 0.4; stroke-width: 0.8"/>
     </g>
     <g id="line2d_20">
      <g>
       <use xlink:href="#med09f7e4ad" x="871.253325" y="556.870312" style="fill: #c9d1d9; stroke: #c9d1d9; stroke-width: 0.8"/>
      </g>
     </g>
     <g id="text_10">
      <!-- 2026-06 -->
      <g style="fill: #c9d1d9" transform="translate(840.317436 587.324237) rotate(-30) scale(0.1 -0.1)">
       <use xlink:href="#SimHei-32"/>
       <use xlink:href="#SimHei-30" transform="translate(50 0)"/>
       <use xlink:href="#SimHei-32" transform="translate(100 0)"/>
       <use xlink:href="#SimHei-36" transform="translate(150 0)"/>
       <use xlink:href="#SimHei-2d" transform="translate(200 0)"/>
       <use xlink:href="#SimHei-30" transform="translate(250 0)"/>
       <use xlink:href="#SimHei-36" transform="translate(300 0)"/>
      </g>
     </g>
    </g>
    <g id="xtick_11">
     <g id="line2d_21">
      <path d="M 962.335351 556.870312 
L 962.335351 31.270312 
" clip-path="url(#p431f34378e)" style="fill: none; stroke-dasharray: 2.96,1.28; stroke-dashoffset: 0; stroke: #21262d; stroke-opacity: 0.4; stroke-width: 0.8"/>
     </g>
     <g id="line2d_22">
      <g>
       <use xlink:href="#med09f7e4ad" x="962.335351" y="556.870312" style="fill: #c9d1d9; stroke: #c9d1d9; stroke-width: 0.8"/>
      </g>
     </g>
     <g id="text_11">
      <!-- 2026-07 -->
      <g style="fill: #c9d1d9" transform="translate(931.399462 587.324237) rotate(-30) scale(0.1 -0.1)">
       <defs>
        <path id="SimHei-37" d="M 850 150 
Q 1300 2050 2425 3925 
L 275 3925 
L 275 4375 
L 2950 4375 
L 2950 3950 
Q 1775 2050 1400 150 
L 850 150 
z
" transform="scale(0.015625)"/>
       </defs>
       <use xlink:href="#SimHei-32"/>
       <use xlink:href="#SimHei-30" transform="translate(50 0)"/>
       <use xlink:href="#SimHei-32" transform="translate(100 0)"/>
       <use xlink:href="#SimHei-36" transform="translate(150 0)"/>
       <use xlink:href="#SimHei-2d" transform="translate(200 0)"/>
       <use xlink:href="#SimHei-30" transform="translate(250 0)"/>
       <use xlink:href="#SimHei-37" transform="translate(300 0)"/>
      </g>
     </g>
    </g>
   </g>
   <g id="matplotlib.axis_2">
    <g id="ytick_1">
     <g id="line2d_23">
      <path d="M 29.2 532.979403 
L 1054.48 532.979403 
" clip-path="url(#p431f34378e)" style="fill: none; stroke-dasharray: 2.96,1.28; stroke-dashoffset: 0; stroke: #21262d; stroke-opacity: 0.4; stroke-width: 0.8"/>
     </g>
     <g id="line2d_24">
      <defs>
       <path id="mc8d32b3251" d="M 0 0 
L -3.5 0 
" style="stroke: #c9d1d9; stroke-width: 0.8"/>
      </defs>
      <g>
       <use xlink:href="#mc8d32b3251" x="29.2" y="532.979403" style="fill: #c9d1d9; stroke: #c9d1d9; stroke-width: 0.8"/>
      </g>
     </g>
     <g id="text_12">
      <!-- 0.0 -->
      <g style="fill: #c9d1d9" transform="translate(7.2 536.416903) scale(0.1 -0.1)">
       <defs>
        <path id="SimHei-2e" d="M 1075 125 
L 500 125 
L 500 675 
L 1075 675 
L 1075 125 
z
" transform="scale(0.015625)"/>
       </defs>
       <use xlink:href="#SimHei-30"/>
       <use xlink:href="#SimHei-2e" transform="translate(50 0)"/>
       <use xlink:href="#SimHei-30" transform="translate(100 0)"/>
      </g>
     </g>
    </g>
    <g id="ytick_2">
     <g id="line2d_25">
      <path d="M 29.2 437.415767 
L 1054.48 437.415767 
" clip-path="url(#p431f34378e)" style="fill: none; stroke-dasharray: 2.96,1.28; stroke-dashoffset: 0; stroke: #21262d; stroke-opacity: 0.4; stroke-width: 0.8"/>
     </g>
     <g id="line2d_26">
      <g>
       <use xlink:href="#mc8d32b3251" x="29.2" y="437.415767" style="fill: #c9d1d9; stroke: #c9d1d9; stroke-width: 0.8"/>
      </g>
     </g>
     <g id="text_13">
      <!-- 0.2 -->
      <g style="fill: #c9d1d9" transform="translate(7.2 440.853267) scale(0.1 -0.1)">
       <use xlink:href="#SimHei-30"/>
       <use xlink:href="#SimHei-2e" transform="translate(50 0)"/>
       <use xlink:href="#SimHei-32" transform="translate(100 0)"/>
      </g>
     </g>
    </g>
    <g id="ytick_3">
     <g id="line2d_27">
      <path d="M 29.2 341.852131 
L 1054.48 341.852131 
" clip-path="url(#p431f34378e)" style="fill: none; stroke-dasharray: 2.96,1.28; stroke-dashoffset: 0; stroke: #21262d; stroke-opacity: 0.4; stroke-width: 0.8"/>
     </g>
     <g id="line2d_28">
      <g>
       <use xlink:href="#mc8d32b3251" x="29.2" y="341.852131" style="fill: #c9d1d9; stroke: #c9d1d9; stroke-width: 0.8"/>
      </g>
     </g>
     <g id="text_14">
      <!-- 0.4 -->
      <g style="fill: #c9d1d9" transform="translate(7.2 345.289631) scale(0.1 -0.1)">
       <use xlink:href="#SimHei-30"/>
       <use xlink:href="#SimHei-2e" transform="translate(50 0)"/>
       <use xlink:href="#SimHei-34" transform="translate(100 0)"/>
      </g>
     </g>
    </g>
    <g id="ytick_4">
     <g id="line2d_29">
      <path d="M 29.2 246.288494 
L 1054.48 246.288494 
" clip-path="url(#p431f34378e)" style="fill: none; stroke-dasharray: 2.96,1.28; stroke-dashoffset: 0; stroke: #21262d; stroke-opacity: 0.4; stroke-width: 0.8"/>
     </g>
     <g id="line2d_30">
      <g>
       <use xlink:href="#mc8d32b3251" x="29.2" y="246.288494" style="fill: #c9d1d9; stroke: #c9d1d9; stroke-width: 0.8"/>
      </g>
     </g>
     <g id="text_15">
      <!-- 0.6 -->
      <g style="fill: #c9d1d9" transform="translate(7.2 249.725994) scale(0.1 -0.1)">
       <use xlink:href="#SimHei-30"/>
       <use xlink:href="#SimHei-2e" transform="translate(50 0)"/>
       <use xlink:href="#SimHei-36" transform="translate(100 0)"/>
      </g>
     </g>
    </g>
    <g id="ytick_5">
     <g id="line2d_31">
      <path d="M 29.2 150.724858 
L 1054.48 150.724858 
" clip-path="url(#p431f34378e)" style="fill: none; stroke-dasharray: 2.96,1.28; stroke-dashoffset: 0; stroke: #21262d; stroke-opacity: 0.4; stroke-width: 0.8"/>
     </g>
     <g id="line2d_32">
      <g>
       <use xlink:href="#mc8d32b3251" x="29.2" y="150.724858" style="fill: #c9d1d9; stroke: #c9d1d9; stroke-width: 0.8"/>
      </g>
     </g>
     <g id="text_16">
      <!-- 0.8 -->
      <g style="fill: #c9d1d9" transform="translate(7.2 154.162358) scale(0.1 -0.1)">
       <defs>
        <path id="SimHei-38" d="M 175 1375 
Q 175 1675 325 1962 
Q 475 2250 825 2425 
Q 525 2600 425 2812 
Q 325 3025 312 3300 
Q 300 3575 387 3775 
Q 475 3975 650 4150 
Q 825 4325 1037 4387 
Q 1250 4450 1500 4450 
Q 1750 4450 1950 4400 
Q 2150 4350 2375 4187 
Q 2600 4025 2700 3725 
Q 2800 3425 2687 3025 
Q 2575 2625 2100 2400 
Q 2525 2275 2700 2012 
Q 2875 1750 2875 1375 
Q 2875 1000 2762 775 
Q 2650 550 2512 400 
Q 2375 250 2137 162 
Q 1900 75 1537 75 
Q 1175 75 912 162 
Q 650 250 475 425 
Q 300 600 237 837 
Q 175 1075 175 1375 
z
M 687 1400 
Q 675 1100 787 875 
Q 900 650 1200 587 
Q 1500 525 1825 600 
Q 2150 675 2275 950 
Q 2400 1225 2362 1500 
Q 2325 1775 2050 1962 
Q 1775 2150 1450 2125 
Q 1125 2100 912 1900 
Q 700 1700 687 1400 
z
M 775 3350 
Q 775 3100 950 2875 
Q 1125 2650 1500 2650 
Q 1875 2650 2062 2875 
Q 2250 3100 2237 3412 
Q 2225 3725 2012 3875 
Q 1800 4025 1437 4000 
Q 1075 3975 925 3787 
Q 775 3600 775 3350 
z
" transform="scale(0.015625)"/>
       </defs>
       <use xlink:href="#SimHei-30"/>
       <use xlink:href="#SimHei-2e" transform="translate(50 0)"/>
       <use xlink:href="#SimHei-38" transform="translate(100 0)"/>
      </g>
     </g>
    </g>
    <g id="ytick_6">
     <g id="line2d_33">
      <path d="M 29.2 55.161222 
L 1054.48 55.161222 
" clip-path="url(#p431f34378e)" style="fill: none; stroke-dasharray: 2.96,1.28; stroke-dashoffset: 0; stroke: #21262d; stroke-opacity: 0.4; stroke-width: 0.8"/>
     </g>
     <g id="line2d_34">
      <g>
       <use xlink:href="#mc8d32b3251" x="29.2" y="55.161222" style="fill: #c9d1d9; stroke: #c9d1d9; stroke-width: 0.8"/>
      </g>
     </g>
     <g id="text_17">
      <!-- 1.0 -->
      <g style="fill: #c9d1d9" transform="translate(7.2 58.598722) scale(0.1 -0.1)">
       <use xlink:href="#SimHei-31"/>
       <use xlink:href="#SimHei-2e" transform="translate(50 0)"/>
       <use xlink:href="#SimHei-30" transform="translate(100 0)"/>
      </g>
     </g>
    </g>
   </g>
   <g id="line2d_35">
    <path d="M 75.803636 532.979403 
L 84.911839 519.279074 
L 87.947906 501.981909 
L 90.983974 496.495704 
L 94.020041 497.206983 
L 97.056109 499.453437 
L 106.164312 484.292226 
L 109.200379 486.791665 
L 112.236447 476.906914 
L 115.272514 467.558215 
L 118.308582 483.558413 
L 127.416784 477.123341 
L 130.452852 498.067443 
L 157.777459 463.156572 
L 160.813527 466.791942 
L 172.957797 461.210368 
L 175.993864 458.739571 
L 179.029932 456.734763 
L 182.065999 476.198138 
L 191.174202 479.060215 
L 194.210269 469.852612 
L 197.246337 463.490218 
L 200.282405 464.907521 
L 212.426675 444.366752 
L 215.462742 435.877331 
L 218.49881 428.908718 
L 221.534877 434.344603 
L 224.570945 439.523059 
L 233.679147 431.925436 
L 236.715215 432.902087 
L 239.751282 432.488842 
L 242.78735 423.580329 
L 245.823417 429.85002 
L 254.93162 425.243187 
L 257.967687 420.710902 
L 264.039822 427.215633 
L 267.07589 434.908279 
L 276.184092 429.473057 
L 279.22016 424.798838 
L 282.256227 429.482608 
L 285.292295 436.713105 
L 288.328362 454.040849 
L 297.436565 454.959884 
L 300.472633 453.024412 
L 303.5087 449.586938 
L 306.544768 448.887563 
L 309.580835 448.862832 
L 318.689038 441.376467 
L 321.725105 441.219571 
L 324.761173 443.682608 
L 327.79724 442.794312 
L 330.833308 444.658918 
L 339.94151 433.085708 
L 342.977578 427.297583 
L 346.013645 427.12059 
L 349.049713 429.462576 
L 352.08578 436.057319 
L 361.193983 431.621574 
L 364.23005 423.765651 
L 367.266118 425.56201 
L 370.302185 431.714713 
L 373.338253 428.621479 
L 382.446455 420.371567 
L 385.482523 409.366212 
L 388.51859 403.137861 
L 394.590725 409.529977 
L 403.698928 405.449189 
L 406.734996 399.326624 
L 409.771063 412.775877 
L 424.951401 401.097578 
L 427.987468 388.535826 
L 431.023536 371.080422 
L 434.059603 360.037365 
L 437.095671 355.322036 
L 446.203873 328.978639 
L 449.239941 324.230504 
L 452.276008 312.52313 
L 455.312076 299.514892 
L 458.348143 281.008561 
L 467.456346 282.569976 
L 470.492413 293.750118 
L 473.528481 279.454711 
L 476.564548 276.22147 
L 479.600616 275.834066 
L 488.708818 273.875338 
L 491.744886 275.657947 
L 494.780954 256.475005 
L 497.817021 260.247842 
L 500.853089 279.369399 
L 509.961291 281.029058 
L 512.997359 287.212845 
L 516.033426 299.906785 
L 519.069494 306.929931 
L 522.105561 317.728339 
L 531.213764 317.162717 
L 534.249831 319.313253 
L 537.285899 331.775717 
L 540.321966 325.395543 
L 543.358034 367.604318 
L 576.754776 344.615885 
L 579.790844 324.850864 
L 582.826911 311.918692 
L 594.971182 306.631598 
L 598.007249 320.553428 
L 601.043317 323.766393 
L 604.079384 319.793881 
L 607.115452 324.291105 
L 616.223654 321.386225 
L 619.259722 316.517527 
L 622.295789 317.554968 
L 625.331857 312.672941 
L 628.367924 318.709423 
L 637.476127 311.506656 
L 640.512194 317.021899 
L 643.548262 314.904997 
L 646.584329 316.379686 
L 649.620397 327.844531 
L 658.728599 334.826091 
L 661.764667 337.516425 
L 664.800734 337.71113 
L 667.836802 338.2631 
L 670.872869 346.307124 
L 679.981072 340.957345 
L 683.017139 345.002328 
L 686.053207 345.238807 
L 689.089275 352.811864 
L 692.125342 364.528733 
L 704.269612 363.678081 
L 707.30568 354.311626 
L 710.341747 350.134 
L 722.486017 335.167063 
L 725.522085 324.263629 
L 731.59422 310.713897 
L 734.630287 309.837044 
L 743.73849 289.704404 
L 746.774557 285.060411 
L 749.810625 274.19314 
L 752.846692 272.722221 
L 755.88276 277.076455 
L 764.990962 263.857608 
L 768.02703 264.461719 
L 771.063097 257.355731 
L 774.099165 268.021594 
L 792.31557 235.991552 
L 795.351638 213.793348 
L 798.387705 203.166335 
L 807.495908 180.68317 
L 810.531975 169.052855 
L 813.568043 152.615899 
L 816.60411 147.137811 
L 819.640178 152.665444 
L 828.74838 138.551748 
L 831.784448 134.297669 
L 834.820515 127.177758 
L 837.856583 131.110381 
L 840.89265 129.305013 
L 850.000853 112.218258 
L 853.03692 106.80232 
L 856.072988 104.920689 
L 859.109055 99.89371 
L 862.145123 124.422175 
L 871.253325 130.172685 
L 874.289393 128.988635 
L 877.32546 121.590603 
L 880.361528 118.04865 
L 883.397595 134.059746 
L 892.505798 150.703111 
L 895.541866 152.802652 
L 898.577933 158.98857 
L 901.614001 158.437476 
L 904.650068 157.517474 
L 913.758271 139.274485 
L 916.794338 122.377958 
L 919.830406 101.794027 
L 922.866473 91.909823 
L 935.010743 77.208511 
L 938.046811 78.615837 
L 941.082878 70.524995 
L 944.118946 55.161222 
L 947.155013 66.570584 
L 956.263216 77.686028 
L 959.299283 61.121968 
L 962.335351 57.182537 
L 965.371418 63.877666 
L 968.407486 82.586159 
L 977.515688 93.424849 
L 980.551756 101.771587 
L 983.587824 112.796503 
L 986.623891 114.500622 
L 989.659959 125.80396 
L 998.768161 145.298389 
L 1001.804229 153.097691 
L 1004.840296 163.346676 
L 1007.876364 183.134514 
L 1007.876364 183.134514 
" clip-path="url(#p431f34378e)" style="fill: none; stroke: #008000; stroke-width: 2; stroke-linecap: square"/>
   </g>
   <g id="line2d_36">
    <path d="M 75.803636 479.469081 
L 84.911839 473.832333 
L 87.947906 480.173631 
L 90.983974 456.922781 
L 94.020041 498.492629 
L 97.056109 491.446781 
L 106.164312 480.878181 
L 109.200379 478.764186 
L 112.236447 449.876932 
L 115.272514 427.330287 
L 118.308582 458.331881 
L 127.416784 404.079437 
L 130.452852 394.919938 
L 157.777459 342.077283 
L 160.813527 410.421079 
L 169.921729 429.444283 
L 172.957797 462.559183 
L 175.993864 419.580234 
L 179.029932 409.011634 
L 182.065999 477.355085 
L 191.174202 466.08228 
L 194.210269 416.762032 
L 197.246337 427.330287 
L 200.282405 414.648381 
L 212.426675 335.031435 
L 215.462742 351.941333 
L 218.49881 309.666934 
L 221.534877 337.145431 
L 224.570945 384.351683 
L 233.679147 379.419486 
L 236.715215 403.374887 
L 239.751282 399.147584 
L 242.78735 349.827682 
L 245.823417 356.873185 
L 254.93162 348.418237 
L 257.967687 379.419486 
L 261.003755 378.01073 
L 264.039822 344.89583 
L 267.07589 394.919938 
L 276.184092 416.762032 
L 279.22016 435.785236 
L 282.256227 425.921531 
L 285.292295 440.717433 
L 288.328362 519.629484 
L 297.436565 524.561337 
L 300.472633 496.378634 
L 303.5087 475.945984 
L 306.544768 478.764186 
L 309.580835 469.604687 
L 318.689038 432.96738 
L 324.761173 462.559183 
L 327.79724 454.104234 
L 330.833308 425.216981 
L 339.94151 401.26158 
L 342.977578 418.171133 
L 346.013645 422.398435 
L 349.049713 446.353836 
L 352.08578 428.035183 
L 361.193983 447.058731 
L 364.23005 480.173631 
L 367.266118 424.512431 
L 370.302185 446.353836 
L 373.338253 432.262485 
L 382.446455 402.670681 
L 385.482523 395.624833 
L 388.51859 383.647132 
L 391.554658 377.306179 
L 394.590725 364.623584 
L 403.698928 379.419486 
L 406.734996 372.373982 
L 409.771063 386.465334 
L 424.951401 322.349185 
L 427.987468 269.506186 
L 431.023536 282.188436 
L 434.059603 308.962383 
L 437.095671 293.461587 
L 446.203873 273.733488 
L 449.239941 285.711533 
L 452.276008 306.848388 
L 455.312076 300.507435 
L 458.348143 311.780585 
L 467.456346 310.334947 
L 470.492413 320.455102 
L 473.528481 316.117844 
L 476.564548 318.286301 
L 479.600616 334.912517 
L 488.708818 329.12962 
L 491.744886 330.575258 
L 494.780954 319.732283 
L 497.817021 288.648653 
L 500.853089 329.852439 
L 509.961291 410.091209 
L 512.997359 363.827345 
L 516.033426 332.74406 
L 519.069494 352.984371 
L 522.105561 374.67032 
L 531.213764 318.286301 
L 534.249831 313.949386 
L 537.285899 321.177921 
L 540.321966 318.286301 
L 543.358034 358.767268 
L 576.754776 326.237999 
L 579.790844 301.660429 
L 582.826911 312.503404 
L 585.862979 319.732283 
L 594.971182 309.612128 
L 598.007249 353.70719 
L 601.043317 402.86233 
L 604.079384 371.056225 
L 607.115452 361.658888 
L 616.223654 389.127734 
L 619.259722 350.09275 
L 622.295789 329.852439 
L 628.367924 354.430009 
L 637.476127 352.261552 
L 640.512194 376.839122 
L 643.548262 365.272983 
L 646.584329 410.814028 
L 649.620397 427.4399 
L 658.728599 532.979403 
L 661.764667 497.558514 
L 664.800734 450.571831 
L 667.836802 491.052798 
L 670.872869 476.595384 
L 679.981072 482.378281 
L 683.017139 509.124653 
L 686.053207 457.800711 
L 689.089275 490.329979 
L 692.125342 515.630368 
L 704.269612 521.413265 
L 707.30568 408.645226 
L 710.341747 430.33152 
L 713.377815 379.730398 
L 722.486017 372.501863 
L 725.522085 329.12962 
L 728.558152 342.141396 
L 731.59422 304.55205 
L 734.630287 309.612128 
L 743.73849 290.817455 
L 746.774557 282.865756 
L 749.810625 257.565367 
L 752.846692 264.793902 
L 755.88276 278.528497 
L 764.990962 278.528497 
L 768.02703 287.203015 
L 771.063097 250.336488 
L 774.099165 248.168031 
L 792.31557 201.904167 
L 795.351638 184.555132 
L 798.387705 203.349805 
L 807.495908 145.520147 
L 810.531975 147.688949 
L 813.568043 108.65362 
L 816.60411 163.592002 
L 819.640178 209.133046 
L 828.74838 227.927375 
L 831.784448 215.638762 
L 834.820515 214.193124 
L 837.856583 259.733824 
L 840.89265 220.69884 
L 850.000853 166.483622 
L 853.03692 141.182889 
L 856.072988 170.097717 
L 859.109055 170.097717 
L 862.145123 176.603778 
L 871.253325 216.361581 
L 874.289393 167.206441 
L 877.32546 146.242966 
L 880.361528 174.434976 
L 883.397595 234.433435 
L 892.505798 309.612128 
L 895.541866 246.722048 
L 898.577933 277.082859 
L 901.614001 300.93761 
L 904.650068 252.505289 
L 913.758271 179.495054 
L 916.794338 186.001114 
L 919.830406 151.303044 
L 922.866473 132.508371 
L 935.010743 55.161222 
L 938.046811 162.869183 
L 941.082878 144.797328 
L 944.118946 86.244852 
L 947.155013 188.169571 
L 956.263216 150.580225 
L 959.299283 107.207982 
L 962.335351 122.388216 
L 965.371418 229.373357 
L 968.407486 210.578684 
L 977.515688 209.855865 
L 980.551756 246.722048 
L 983.587824 266.962704 
L 986.623891 181.663856 
L 989.659959 244.553591 
L 998.768161 305.997688 
L 1001.804229 238.770694 
L 1004.840296 238.047875 
L 1007.876364 299.491972 
L 1007.876364 299.491972 
" clip-path="url(#p431f34378e)" style="fill: none; stroke: #ff0000; stroke-width: 2; stroke-linecap: square"/>
   </g>
   <g id="line2d_37">
    <path d="M 75.803636 448.947294 
L 84.911839 453.240891 
L 87.947906 429.932623 
L 90.983974 414.598367 
L 94.020041 437.29316 
L 97.056109 444.65355 
L 106.164312 432.999562 
L 109.200379 452.627416 
L 112.236447 419.505294 
L 115.272514 429.319294 
L 118.308582 450.787282 
L 127.416784 427.47916 
L 130.452852 408.464635 
L 157.777459 396.810501 
L 160.813527 419.505294 
L 169.921729 420.732099 
L 172.957797 461.214757 
L 175.993864 431.772757 
L 179.029932 455.081025 
L 182.065999 504.150879 
L 191.174202 496.177013 
L 194.210269 469.801952 
L 197.246337 476.549013 
L 200.282405 475.322355 
L 212.426675 431.772757 
L 215.462742 433.612891 
L 218.49881 409.691294 
L 221.534877 429.319294 
L 224.570945 427.47916 
L 233.679147 417.05183 
L 236.715215 445.267026 
L 239.751282 437.906489 
L 242.78735 414.598367 
L 245.823417 417.05183 
L 254.93162 412.758233 
L 257.967687 417.66516 
L 261.003755 429.932623 
L 264.039822 402.330757 
L 267.07589 426.86583 
L 276.184092 425.025696 
L 279.22016 437.29316 
L 282.256227 453.854221 
L 285.292295 464.894879 
L 288.328362 532.979403 
L 297.436565 515.191538 
L 300.472633 494.336879 
L 303.5087 492.496745 
L 306.544768 491.270086 
L 309.580835 467.348489 
L 318.689038 458.147818 
L 321.725105 472.868745 
L 324.761173 490.043282 
L 327.79724 488.816477 
L 330.833308 463.054891 
L 339.94151 447.10716 
L 342.977578 456.307684 
L 346.013645 449.560623 
L 349.049713 470.415282 
L 352.08578 458.147818 
L 361.193983 473.482221 
L 364.23005 503.53755 
L 367.266118 479.615952 
L 370.302185 482.682745 
L 373.338253 468.575147 
L 382.446455 450.173952 
L 385.482523 453.240891 
L 388.51859 421.958757 
L 391.554658 404.784367 
L 394.590725 398.03716 
L 403.698928 404.170892 
L 406.734996 399.263965 
L 409.771063 401.104099 
L 424.951401 360.008111 
L 427.987468 331.792916 
L 431.023536 323.205575 
L 434.059603 306.644514 
L 437.095671 258.187989 
L 446.203873 197.464002 
L 449.239941 239.173465 
L 452.276008 238.559989 
L 455.312076 236.106526 
L 458.348143 238.559989 
L 467.456346 234.266392 
L 470.492413 252.054258 
L 473.528481 241.626928 
L 476.564548 217.705331 
L 479.600616 172.315599 
L 488.708818 208.50466 
L 491.744886 199.917465 
L 494.780954 199.304136 
L 497.817021 210.95827 
L 500.853089 233.039733 
L 509.961291 312.778245 
L 512.997359 249.600794 
L 516.033426 247.147331 
L 519.069494 279.042648 
L 522.105561 287.629989 
L 531.213764 237.333331 
L 534.249831 237.94666 
L 537.285899 235.493197 
L 540.321966 217.092002 
L 543.358034 245.920526 
L 576.754776 223.225733 
L 579.790844 188.876807 
L 582.826911 176.609343 
L 585.862979 155.754538 
L 594.971182 181.51627 
L 598.007249 260.641453 
L 601.043317 275.975855 
L 604.079384 256.961185 
L 607.115452 239.173465 
L 616.223654 248.987319 
L 619.259722 214.025063 
L 622.295789 211.571599 
L 625.331857 215.865197 
L 628.367924 244.693721 
L 637.476127 247.147331 
L 640.512194 291.923587 
L 643.548262 277.202514 
L 646.584329 320.138782 
L 649.620397 355.714367 
L 658.728599 445.267026 
L 661.764667 402.944233 
L 664.800734 363.688233 
L 667.836802 393.743562 
L 670.872869 364.301709 
L 679.981072 360.008111 
L 683.017139 392.516904 
L 686.053207 360.008111 
L 689.089275 393.130233 
L 692.125342 416.438355 
L 704.269612 397.423831 
L 707.30568 310.938111 
L 710.341747 319.525306 
L 713.377815 301.124111 
L 722.486017 294.99038 
L 725.522085 263.094916 
L 728.558152 272.908916 
L 731.59422 239.786794 
L 734.630287 215.865197 
L 743.73849 210.344794 
L 746.774557 212.184929 
L 749.810625 174.769209 
L 752.846692 202.984404 
L 755.88276 218.932136 
L 764.990962 213.411733 
L 768.02703 237.333331 
L 771.063097 209.118136 
L 774.099165 199.304136 
L 792.31557 152.07427 
L 795.351638 115.27188 
L 798.387705 109.751478 
L 807.495908 80.922953 
L 810.531975 90.123624 
L 813.568043 55.161222 
L 816.60411 93.803892 
L 819.640178 121.405612 
L 828.74838 110.978282 
L 831.784448 90.736953 
L 834.820515 88.28349 
L 837.856583 163.728404 
L 840.89265 118.952148 
L 850.000853 91.963758 
L 853.03692 119.565478 
L 856.072988 153.301075 
L 859.109055 131.219612 
L 862.145123 189.490136 
L 871.253325 202.370929 
L 874.289393 196.237197 
L 877.32546 186.423197 
L 880.361528 183.969733 
L 883.397595 204.211063 
L 892.505798 268.001989 
L 895.541866 217.092002 
L 898.577933 237.94666 
L 901.614001 250.827453 
L 904.650068 239.173465 
L 913.758271 158.208002 
L 916.794338 122.019087 
L 919.830406 110.978282 
L 922.866473 90.736953 
L 935.010743 65.588697 
L 938.046811 114.045221 
L 941.082878 90.736953 
L 944.118946 77.242685 
L 947.155013 134.89988 
L 956.263216 138.580148 
L 959.299283 82.763087 
L 962.335351 63.135087 
L 965.371418 115.27188 
L 968.407486 125.699209 
L 977.515688 162.501746 
L 980.551756 205.437868 
L 983.587824 251.440928 
L 986.623891 212.184929 
L 989.659959 232.426258 
L 998.768161 333.632904 
L 1001.804229 310.324782 
L 1004.840296 328.112648 
L 1007.876364 376.569172 
L 1007.876364 376.569172 
" clip-path="url(#p431f34378e)" style="fill: none; stroke: #0000ff; stroke-width: 2; stroke-linecap: square"/>
   </g>
   <g id="patch_3">
    <path d="M 29.2 556.870312 
L 29.2 31.270312 
" style="fill: none; stroke: #30363d; stroke-width: 0.8; stroke-linejoin: miter; stroke-linecap: square"/>
   </g>
   <g id="patch_4">
    <path d="M 1054.48 556.870312 
L 1054.48 31.270312 
" style="fill: none; stroke: #30363d; stroke-width: 0.8; stroke-linejoin: miter; stroke-linecap: square"/>
   </g>
   <g id="patch_5">
    <path d="M 29.2 556.870312 
L 1054.48 556.870312 
" style="fill: none; stroke: #30363d; stroke-width: 0.8; stroke-linejoin: miter; stroke-linecap: square"/>
   </g>
   <g id="patch_6">
    <path d="M 29.2 31.270312 
L 1054.48 31.270312 
" style="fill: none; stroke: #30363d; stroke-width: 0.8; stroke-linejoin: miter; stroke-linecap: square"/>
   </g>
   <g id="text_18">
    <!-- 2026-07-17 -->
    <g style="fill: #8b949e; opacity: 0.6" transform="translate(999.2272 550.489312) scale(0.09 -0.09)">
     <use xlink:href="#SimHei-32"/>
     <use xlink:href="#SimHei-30" transform="translate(50 0)"/>
     <use xlink:href="#SimHei-32" transform="translate(100 0)"/>
     <use xlink:href="#SimHei-36" transform="translate(150 0)"/>
     <use xlink:href="#SimHei-2d" transform="translate(200 0)"/>
     <use xlink:href="#SimHei-30" transform="translate(250 0)"/>
     <use xlink:href="#SimHei-37" transform="translate(300 0)"/>
     <use xlink:href="#SimHei-2d" transform="translate(350 0)"/>
     <use xlink:href="#SimHei-31" transform="translate(400 0)"/>
     <use xlink:href="#SimHei-37" transform="translate(450 0)"/>
    </g>
   </g>
   <g id="text_19">
    <!-- 融资余额与ETF对比 -->
    <g style="fill: #c9d1d9" transform="translate(478.09 19.270312) scale(0.15 -0.15)">
     <defs>
      <path id="SimHei-878d" d="M 5200 975 
Q 5400 1025 5650 1125 
Q 5775 775 5887 475 
Q 6000 175 6150 -350 
Q 5925 -425 5675 -500 
Q 5575 -175 5500 50 
Q 4825 -100 4362 -212 
Q 3900 -325 3400 -500 
Q 3325 -225 3200 0 
Q 3575 25 4350 175 
L 4350 1750 
L 3850 1750 
L 3850 1225 
L 3375 1225 
Q 3400 1975 3400 2675 
Q 3400 3400 3375 3925 
L 4350 3925 
Q 4350 4925 4325 5200 
L 4825 5200 
Q 4800 4875 4800 3925 
L 5775 3925 
Q 5750 3325 5750 2700 
Q 5750 2100 5775 1550 
L 5300 1550 
L 5300 1750 
L 4800 1750 
L 4800 250 
Q 5075 325 5400 400 
Q 5325 650 5200 975 
z
M 2025 -50 
Q 2425 -50 2475 -12 
Q 2525 25 2550 150 
L 2550 1975 
L 825 1975 
L 825 -500 
L 350 -500 
Q 375 100 375 475 
L 375 1400 
Q 375 1850 350 2350 
L 3000 2350 
Q 2975 1950 2975 1450 
L 2975 -25 
Q 2975 -325 2787 -387 
Q 2600 -450 2225 -525 
Q 2125 -225 2025 -50 
z
M 625 2725 
Q 650 3050 650 3350 
Q 650 3675 625 3975 
L 2850 3975 
Q 2825 3675 2825 3350 
Q 2825 3050 2850 2725 
L 625 2725 
z
M 3000 4450 
Q 2650 4475 2175 4475 
L 1200 4475 
Q 625 4475 250 4450 
L 250 4875 
Q 550 4850 1125 4850 
L 2175 4850 
Q 2700 4850 3000 4875 
L 3000 4450 
z
M 2325 1675 
Q 2175 1475 2000 1025 
L 2325 1025 
L 2325 675 
L 1850 675 
L 1850 -125 
L 1425 -125 
L 1425 675 
L 1025 675 
L 1025 1025 
L 1700 1025 
Q 1875 1500 1925 1825 
Q 2100 1700 2325 1675 
z
M 5300 2125 
L 5300 3550 
L 4800 3550 
L 4800 2125 
L 5300 2125 
z
M 4350 2125 
L 4350 3550 
L 3850 3550 
L 3850 2125 
L 4350 2125 
z
M 2350 3100 
L 2350 3600 
L 1100 3600 
L 1100 3100 
L 2350 3100 
z
M 1575 1275 
Q 1400 1225 1225 1150 
Q 1150 1425 1025 1675 
L 1325 1825 
Q 1425 1550 1575 1275 
z
" transform="scale(0.015625)"/>
      <path id="SimHei-8d44" d="M 5300 2150 
Q 5275 1825 5275 1450 
Q 5275 1075 5300 575 
L 4800 575 
L 4800 1725 
L 1700 1725 
L 1700 425 
L 1200 425 
Q 1225 1000 1225 1375 
Q 1225 1775 1200 2150 
L 5300 2150 
z
M 4225 4075 
Q 4050 3775 4200 3562 
Q 4350 3350 4612 3162 
Q 4875 2975 5262 2850 
Q 5650 2725 6125 2700 
Q 5925 2425 5825 2175 
Q 5200 2300 4712 2550 
Q 4225 2800 3900 3350 
Q 3675 2775 3250 2550 
Q 2825 2325 2325 2175 
Q 2125 2400 1925 2575 
Q 2975 2775 3300 3175 
Q 3625 3575 3650 4150 
L 4225 4075 
z
M 3125 4250 
Q 2825 3850 2550 3650 
Q 2375 3825 2175 3950 
Q 2475 4150 2737 4487 
Q 3000 4825 3150 5200 
Q 3375 5100 3700 5050 
Q 3575 4825 3400 4650 
L 5750 4650 
Q 5675 4500 5300 3675 
Q 5000 3750 4800 3775 
Q 4925 4050 5025 4250 
L 3125 4250 
z
M 3525 1375 
Q 3400 1100 3337 825 
Q 3275 550 3012 262 
Q 2750 -25 2250 -275 
Q 1750 -525 800 -675 
Q 725 -425 500 -200 
Q 1225 -175 1712 -12 
Q 2200 150 2450 350 
Q 2700 550 2812 837 
Q 2925 1125 2925 1450 
Q 3225 1400 3525 1375 
z
M 3825 700 
Q 4300 525 4750 350 
Q 5200 175 5825 -100 
Q 5675 -300 5550 -600 
Q 5075 -325 4612 -125 
Q 4150 75 3625 250 
Q 3750 450 3825 700 
z
M 2075 3325 
Q 1450 2750 875 2050 
Q 625 2325 475 2425 
Q 1275 3050 1725 3625 
Q 1850 3500 2075 3325 
z
M 1700 3975 
Q 1300 4275 625 4675 
Q 800 4850 925 5025 
Q 1150 4875 2000 4350 
Q 1850 4200 1700 3975 
z
" transform="scale(0.015625)"/>
      <path id="SimHei-4f59" d="M 3850 3050 
Q 4150 3050 4525 3075 
L 4525 2600 
Q 4225 2625 3850 2625 
L 3450 2625 
L 3450 1825 
L 4475 1825 
Q 5050 1825 5375 1850 
L 5375 1350 
Q 5025 1375 4500 1375 
L 3450 1375 
L 3450 -75 
Q 3450 -450 3187 -525 
Q 2925 -600 2550 -650 
Q 2525 -425 2350 -50 
Q 2825 -75 2887 -25 
Q 2950 25 2950 175 
L 2950 1375 
L 1800 1375 
Q 1225 1375 900 1350 
L 900 1850 
Q 1200 1825 1800 1825 
L 2950 1825 
L 2950 2625 
L 2550 2625 
Q 2325 2625 1825 2600 
L 1825 3075 
Q 2225 3050 2525 3050 
L 3850 3050 
z
M 3400 4850 
Q 4450 3575 6150 3300 
Q 5925 3150 5750 2700 
Q 4150 3250 3100 4550 
Q 2375 3350 800 2400 
Q 450 2725 325 2800 
Q 1475 3325 2112 4100 
Q 2750 4875 2900 5275 
Q 3150 5175 3550 5050 
L 3400 4850 
z
M 2325 700 
Q 2075 500 1625 112 
Q 1175 -275 925 -450 
Q 725 -225 525 -50 
Q 1600 675 1900 1075 
Q 2100 875 2325 700 
z
M 4400 1175 
Q 4750 850 5025 550 
L 5600 0 
Q 5375 -175 5125 -400 
Q 4875 25 4050 850 
Q 4200 950 4400 1175 
z
" transform="scale(0.015625)"/>
      <path id="SimHei-989d" d="M 1925 3700 
Q 1725 3550 1550 3350 
L 2950 3350 
Q 2875 3150 2700 2875 
Q 2525 2600 2300 2300 
Q 2500 2200 2712 2075 
Q 2925 1950 3275 1725 
Q 3125 1575 2950 1325 
Q 2700 1525 2475 1662 
Q 2250 1800 1950 1950 
Q 1575 1650 1150 1375 
L 2800 1375 
Q 2775 950 2775 500 
Q 2775 50 2800 -450 
L 2325 -450 
L 2325 -50 
L 1325 -50 
L 1325 -575 
L 875 -575 
Q 900 -75 900 275 
L 900 1175 
Q 675 1075 550 1000 
Q 400 1225 225 1400 
Q 625 1550 975 1762 
Q 1325 1975 1550 2200 
Q 1300 2350 1075 2475 
Q 1175 2625 1350 2800 
Q 1625 2650 1925 2500 
Q 2150 2750 2300 3000 
L 1300 3000 
Q 1200 2875 1025 2687 
Q 850 2500 650 2275 
Q 475 2425 250 2575 
Q 650 2875 937 3237 
Q 1225 3600 1375 3925 
Q 1650 3800 1925 3700 
z
M 4150 4400 
Q 3775 4400 3375 4375 
L 3375 4825 
Q 3750 4800 4200 4800 
L 5300 4800 
Q 5600 4800 6000 4825 
L 6000 4375 
Q 5625 4400 5300 4400 
L 4950 4400 
Q 4850 3975 4725 3525 
L 5750 3525 
Q 5725 3125 5725 2775 
L 5725 1625 
Q 5725 1300 5750 825 
L 5300 825 
L 5300 3175 
L 3925 3175 
L 3925 800 
L 3450 800 
Q 3475 1275 3475 1650 
L 3475 2800 
Q 3475 3175 3450 3525 
L 4300 3525 
Q 4400 4025 4450 4400 
L 4150 4400 
z
M 2050 5100 
Q 2100 4825 2200 4475 
L 3225 4475 
Q 3200 4275 3200 4075 
Q 3200 3875 3225 3675 
L 2775 3675 
L 2775 4100 
L 875 4100 
L 875 3500 
L 400 3500 
Q 425 3775 425 4000 
Q 425 4250 400 4475 
L 1650 4475 
Q 1550 4750 1475 5000 
Q 1800 5050 2050 5100 
z
M 4925 2725 
Q 4850 2425 4837 2025 
Q 4825 1625 4712 1175 
Q 4600 725 4262 250 
Q 3925 -225 3250 -675 
Q 3050 -425 2850 -250 
Q 3375 -25 3687 262 
Q 4000 550 4162 937 
Q 4325 1325 4350 1750 
Q 4375 2175 4375 2775 
Q 4575 2750 4925 2725 
z
M 2325 325 
L 2325 1025 
L 1325 1025 
L 1325 325 
L 2325 325 
z
M 5075 800 
Q 5300 575 5487 400 
Q 5675 225 6025 -100 
Q 5800 -275 5600 -500 
Q 5450 -275 5275 -87 
Q 5100 100 4675 400 
Q 4875 575 5075 800 
z
" transform="scale(0.015625)"/>
      <path id="SimHei-4e0e" d="M 5350 100 
Q 5275 -300 4925 -425 
Q 4575 -550 3900 -600 
Q 3875 -375 3650 -25 
Q 4375 -50 4575 0 
Q 4775 50 4837 225 
Q 4900 400 5100 2350 
L 1125 2350 
Q 1450 4350 1475 5200 
Q 1800 5150 2075 5125 
Q 1975 4825 1900 4275 
L 4900 4275 
Q 5400 4275 5800 4300 
L 5800 3825 
Q 5400 3850 4950 3850 
L 1850 3850 
L 1700 2750 
L 5675 2750 
Q 5625 2450 5575 2050 
L 5350 100 
z
M 3675 1350 
Q 4125 1350 4500 1375 
L 4500 875 
Q 4125 900 3850 900 
L 1450 900 
Q 1000 900 500 875 
L 500 1375 
Q 1000 1350 1450 1350 
L 3675 1350 
z
" transform="scale(0.015625)"/>
      <path id="SimHei-45" d="M 2900 125 
L 350 125 
L 350 4400 
L 2775 4400 
L 2775 3925 
L 925 3925 
L 925 2600 
L 2625 2600 
L 2625 2125 
L 925 2125 
L 925 600 
L 2900 600 
L 2900 125 
z
" transform="scale(0.015625)"/>
      <path id="SimHei-54" d="M 2850 3925 
L 1850 3925 
L 1850 125 
L 1275 125 
L 1275 3925 
L 275 3925 
L 275 4400 
L 2850 4400 
L 2850 3925 
z
" transform="scale(0.015625)"/>
      <path id="SimHei-46" d="M 2925 3925 
L 875 3925 
L 875 2525 
L 2425 2525 
L 2425 2050 
L 875 2050 
L 875 125 
L 300 125 
L 300 4400 
L 2925 4400 
L 2925 3925 
z
" transform="scale(0.015625)"/>
      <path id="SimHei-5bf9" d="M 525 4250 
Q 900 4225 1400 4225 
L 2825 4225 
Q 2575 2625 2200 1750 
Q 2825 875 3125 400 
Q 2950 275 2725 75 
Q 2200 975 1950 1300 
Q 1650 775 1350 425 
Q 1050 75 600 -350 
Q 425 -125 200 -25 
Q 625 275 975 675 
Q 1325 1075 1650 1700 
Q 1050 2425 550 2900 
Q 700 3025 900 3225 
Q 1625 2425 1875 2150 
Q 2200 3050 2300 3825 
L 1400 3825 
Q 900 3825 525 3800 
L 525 4250 
z
M 2925 3700 
Q 3525 3675 3750 3675 
L 4825 3675 
L 4825 4425 
Q 4825 4750 4775 5125 
L 5350 5125 
Q 5325 4825 5325 4375 
L 5325 3675 
Q 5575 3675 6150 3700 
L 6150 3250 
Q 5575 3275 5325 3275 
L 5325 125 
Q 5350 -350 5012 -475 
Q 4675 -600 4250 -650 
Q 4175 -350 4025 -100 
Q 4575 -100 4712 -37 
Q 4850 25 4825 325 
L 4825 3275 
L 3775 3275 
Q 3550 3275 2925 3225 
L 2925 3700 
z
M 3450 2725 
Q 3875 1975 4175 1325 
Q 3850 1200 3700 1075 
Q 3475 1750 3050 2475 
Q 3225 2550 3450 2725 
z
" transform="scale(0.015625)"/>
      <path id="SimHei-6bd4" d="M 3775 5100 
Q 3750 4575 3750 4100 
L 3750 3050 
Q 4925 3600 5475 4175 
Q 5675 3900 5900 3675 
Q 5600 3500 5037 3187 
Q 4475 2875 3750 2550 
L 3750 450 
Q 3750 100 4050 100 
L 5000 100 
Q 5175 100 5262 250 
Q 5350 400 5450 900 
Q 5650 775 6025 675 
Q 5850 0 5650 -175 
Q 5450 -350 5225 -350 
L 3900 -350 
Q 3250 -350 3250 275 
L 3250 4000 
Q 3250 4550 3225 5100 
L 3775 5100 
z
M 1275 4975 
Q 1250 4575 1250 4000 
L 1250 3150 
L 1850 3150 
Q 2325 3150 2875 3175 
L 2875 2650 
Q 2325 2675 1850 2675 
L 1250 2675 
L 1250 475 
Q 1650 650 1962 812 
Q 2275 975 2850 1275 
Q 2900 950 2950 750 
Q 2375 475 1762 175 
Q 1150 -125 925 -325 
Q 750 -100 575 200 
Q 700 300 750 600 
L 750 3950 
Q 750 4550 725 4975 
L 1275 4975 
z
" transform="scale(0.015625)"/>
     </defs>
     <use xlink:href="#SimHei-878d"/>
     <use xlink:href="#SimHei-8d44" transform="translate(100 0)"/>
     <use xlink:href="#SimHei-4f59" transform="translate(200 0)"/>
     <use xlink:href="#SimHei-989d" transform="translate(300 0)"/>
     <use xlink:href="#SimHei-4e0e" transform="translate(400 0)"/>
     <use xlink:href="#SimHei-45" transform="translate(500 0)"/>
     <use xlink:href="#SimHei-54" transform="translate(550 0)"/>
     <use xlink:href="#SimHei-46" transform="translate(600 0)"/>
     <use xlink:href="#SimHei-5bf9" transform="translate(650 0)"/>
     <use xlink:href="#SimHei-6bd4" transform="translate(750 0)"/>
    </g>
   </g>
   <g id="legend_1">
    <g id="patch_7">
     <path d="M 36.2 80.067187 
L 108.2 80.067187 
Q 110.2 80.067187 110.2 78.067187 
L 110.2 38.270312 
Q 110.2 36.270312 108.2 36.270312 
L 36.2 36.270312 
Q 34.2 36.270312 34.2 38.270312 
L 34.2 78.067187 
Q 34.2 80.067187 36.2 80.067187 
z
" style="fill: #161b22; opacity: 0.9; stroke: #30363d; stroke-linejoin: miter"/>
    </g>
    <g id="line2d_38">
     <path d="M 38.2 44.817187 
L 48.2 44.817187 
L 58.2 44.817187 
" style="fill: none; stroke: #008000; stroke-width: 2; stroke-linecap: square"/>
    </g>
    <g id="text_20">
     <!-- 融资余额 -->
     <g style="fill: #c9d1d9" transform="translate(66.2 48.317187) scale(0.1 -0.1)">
      <use xlink:href="#SimHei-878d"/>
      <use xlink:href="#SimHei-8d44" transform="translate(100 0)"/>
      <use xlink:href="#SimHei-4f59" transform="translate(200 0)"/>
      <use xlink:href="#SimHei-989d" transform="translate(300 0)"/>
     </g>
    </g>
    <g id="line2d_39">
     <path d="M 38.2 58.067187 
L 48.2 58.067187 
L 58.2 58.067187 
" style="fill: none; stroke: #ff0000; stroke-width: 2; stroke-linecap: square"/>
    </g>
    <g id="text_21">
     <!-- 300ETF -->
     <g style="fill: #c9d1d9" transform="translate(66.2 61.567187) scale(0.1 -0.1)">
      <use xlink:href="#SimHei-33"/>
      <use xlink:href="#SimHei-30" transform="translate(50 0)"/>
      <use xlink:href="#SimHei-30" transform="translate(100 0)"/>
      <use xlink:href="#SimHei-45" transform="translate(150 0)"/>
      <use xlink:href="#SimHei-54" transform="translate(200 0)"/>
      <use xlink:href="#SimHei-46" transform="translate(250 0)"/>
     </g>
    </g>
    <g id="line2d_40">
     <path d="M 38.2 71.317187 
L 48.2 71.317187 
L 58.2 71.317187 
" style="fill: none; stroke: #0000ff; stroke-width: 2; stroke-linecap: square"/>
    </g>
    <g id="text_22">
     <!-- 1000ETF -->
     <g style="fill: #c9d1d9" transform="translate(66.2 74.817187) scale(0.1 -0.1)">
      <use xlink:href="#SimHei-31"/>
      <use xlink:href="#SimHei-30" transform="translate(50 0)"/>
      <use xlink:href="#SimHei-30" transform="translate(100 0)"/>
      <use xlink:href="#SimHei-30" transform="translate(150 0)"/>
      <use xlink:href="#SimHei-45" transform="translate(200 0)"/>
      <use xlink:href="#SimHei-54" transform="translate(250 0)"/>
      <use xlink:href="#SimHei-46" transform="translate(300 0)"/>
     </g>
    </g>
   </g>
  </g>
 </g>
 <defs>
  <clipPath id="p431f34378e">
   <rect x="29.2" y="31.270312" width="1025.28" height="525.6"/>
  </clipPath>
 </defs>
</svg>
