<?xml version="1.0" encoding="utf-8" standalone="no"?>
<!DOCTYPE svg PUBLIC "-//W3C//DTD SVG 1.1//EN"
  "http://www.w3.org/Graphics/SVG/1.1/DTD/svg11.dtd">
<svg xmlns:xlink="http://www.w3.org/1999/xlink" width="1061.68pt" height="595.3138pt" viewBox="0 0 1061.68 595.3138" xmlns="http://www.w3.org/2000/svg" version="1.1">
 <metadata>
  <rdf:RDF xmlns:dc="http://purl.org/dc/elements/1.1/" xmlns:cc="http://creativecommons.org/ns#" xmlns:rdf="http://www.w3.org/1999/02/22-rdf-syntax-ns#">
   <cc:Work>
    <dc:type rdf:resource="http://purl.org/dc/dcmitype/StillImage"/>
    <dc:date>2026-07-06T22:44:58.087431</dc:date>
    <dc:format>image/svg+xml</dc:format>
    <dc:creator>
     <cc:Agent>
      <dc:title>Matplotlib v3.10.9, https://matplotlib.org/</dc:title>
     </cc:Agent>
    </dc:creator>
   </cc:Work>
  </rdf:RDF>
 </metadata>
 <defs>
  <style type="text/css">*{stroke-linejoin: round; stroke-linecap: butt}</style>
 </defs>
 <g id="figure_1">
  <g id="patch_1">
   <path d="M 0 595.3138 
L 1061.68 595.3138 
L 1061.68 0 
L 0 0 
z
" style="fill: #0d1117"/>
  </g>
  <g id="axes_1">
   <g id="patch_2">
    <path d="M 29.2 556.577344 
L 1054.48 556.577344 
L 1054.48 30.977344 
L 29.2 30.977344 
z
" style="fill: #161b22"/>
   </g>
   <g id="matplotlib.axis_1">
    <g id="xtick_1">
     <g id="line2d_1">
      <path d="M 75.803636 556.577344 
L 75.803636 30.977344 
" clip-path="url(#pe3d74c7692)" style="fill: none; stroke-dasharray: 2.96,1.28; stroke-dashoffset: 0; stroke: #21262d; stroke-opacity: 0.4; stroke-width: 0.8"/>
     </g>
     <g id="line2d_2">
      <defs>
       <path id="m6dfdbb15f2" d="M 0 0 
L 0 3.5 
" style="stroke: #c9d1d9; stroke-width: 0.8"/>
      </defs>
      <g>
       <use xlink:href="#m6dfdbb15f2" x="75.803636" y="556.577344" style="fill: #c9d1d9; stroke: #c9d1d9; stroke-width: 0.8"/>
      </g>
     </g>
     <g id="text_1">
      <!-- 2025-09 -->
      <g style="fill: #c9d1d9" transform="translate(44.867747 587.031268) rotate(-30) scale(0.1 -0.1)">
       <defs>
        <path id="SimHei-32" d="M 300 250 
Q 325 625 650 925 
Q 975 1225 1475 1862 
Q 1975 2500 2125 2850 
Q 2275 3200 2237 3450 
Q 2200 3700 2000 3862 
Q 1800 4025 1537 4000 
Q 1275 3975 1037 3800 
Q 800 3625 675 3275 
L 200 3350 
Q 400 3925 712 4187 
Q 1025 4450 1450 4475 
Q 1700 4500 1900 4462 
Q 2100 4425 2312 4287 
Q 2525 4150 2662 3875 
Q 2800 3600 2762 3212 
Q 2725 2825 2375 2287 
Q 2025 1750 1025 600 
L 2825 600 
L 2825 150 
L 300 150 
L 300 250 
z
" transform="scale(0.015625)"/>
        <path id="SimHei-30" d="M 225 2537 
Q 250 3200 412 3587 
Q 575 3975 875 4225 
Q 1175 4475 1612 4475 
Q 2050 4475 2375 4112 
Q 2700 3750 2800 3200 
Q 2900 2650 2862 1937 
Q 2825 1225 2612 775 
Q 2400 325 1975 150 
Q 1550 -25 1125 187 
Q 700 400 525 750 
Q 350 1100 275 1487 
Q 200 1875 225 2537 
z
M 750 2687 
Q 675 2000 800 1462 
Q 925 925 1212 700 
Q 1500 475 1800 612 
Q 2100 750 2237 1162 
Q 2375 1575 2375 2062 
Q 2375 2550 2337 2950 
Q 2300 3350 2112 3675 
Q 1925 4000 1612 4012 
Q 1300 4025 1062 3700 
Q 825 3375 750 2687 
z
" transform="scale(0.015625)"/>
        <path id="SimHei-35" d="M 550 1325 
Q 725 650 1150 575 
Q 1575 500 1837 662 
Q 2100 825 2212 1087 
Q 2325 1350 2312 1675 
Q 2300 2000 2137 2225 
Q 1975 2450 1725 2525 
Q 1475 2600 1162 2525 
Q 850 2450 650 2175 
L 225 2225 
Q 275 2375 700 4375 
L 2675 4375 
L 2675 3925 
L 1075 3925 
Q 950 3250 825 2850 
Q 1200 3025 1525 3012 
Q 1850 3000 2150 2862 
Q 2450 2725 2587 2487 
Q 2725 2250 2787 2012 
Q 2850 1775 2837 1500 
Q 2825 1225 2725 937 
Q 2625 650 2425 462 
Q 2225 275 1937 162 
Q 1650 50 1275 75 
Q 900 100 562 350 
Q 225 600 100 1200 
L 550 1325 
z
" transform="scale(0.015625)"/>
        <path id="SimHei-2d" d="M 2975 2125 
L 125 2125 
L 125 2525 
L 2975 2525 
L 2975 2125 
z
" transform="scale(0.015625)"/>
        <path id="SimHei-39" d="M 800 75 
Q 1350 1000 1700 1750 
Q 1075 1650 662 1912 
Q 250 2175 162 2625 
Q 75 3075 175 3437 
Q 275 3800 487 4037 
Q 700 4275 1000 4375 
Q 1300 4475 1537 4475 
Q 1775 4475 2025 4375 
Q 2275 4275 2475 4075 
Q 2675 3875 2750 3662 
Q 2825 3450 2825 3112 
Q 2825 2775 2575 2250 
Q 2325 1725 1350 75 
L 800 75 
z
M 662 2875 
Q 700 2550 937 2337 
Q 1175 2125 1450 2150 
Q 1725 2175 1887 2300 
Q 2050 2425 2200 2725 
Q 2300 3100 2250 3362 
Q 2200 3625 1987 3800 
Q 1775 3975 1525 3975 
Q 1375 4000 1137 3900 
Q 900 3800 762 3500 
Q 625 3200 662 2875 
z
" transform="scale(0.015625)"/>
       </defs>
       <use xlink:href="#SimHei-32"/>
       <use xlink:href="#SimHei-30" transform="translate(50 0)"/>
       <use xlink:href="#SimHei-32" transform="translate(100 0)"/>
       <use xlink:href="#SimHei-35" transform="translate(150 0)"/>
       <use xlink:href="#SimHei-2d" transform="translate(200 0)"/>
       <use xlink:href="#SimHei-30" transform="translate(250 0)"/>
       <use xlink:href="#SimHei-39" transform="translate(300 0)"/>
      </g>
     </g>
    </g>
    <g id="xtick_2">
     <g id="line2d_3">
      <path d="M 166.589941 556.577344 
L 166.589941 30.977344 
" clip-path="url(#pe3d74c7692)" style="fill: none; stroke-dasharray: 2.96,1.28; stroke-dashoffset: 0; stroke: #21262d; stroke-opacity: 0.4; stroke-width: 0.8"/>
     </g>
     <g id="line2d_4">
      <g>
       <use xlink:href="#m6dfdbb15f2" x="166.589941" y="556.577344" style="fill: #c9d1d9; stroke: #c9d1d9; stroke-width: 0.8"/>
      </g>
     </g>
     <g id="text_2">
      <!-- 2025-10 -->
      <g style="fill: #c9d1d9" transform="translate(135.654052 587.031268) rotate(-30) scale(0.1 -0.1)">
       <defs>
        <path id="SimHei-31" d="M 1400 3600 
Q 1075 3275 575 2975 
L 575 3450 
Q 1200 3875 1600 4450 
L 1900 4450 
L 1900 150 
L 1400 150 
L 1400 3600 
z
" transform="scale(0.015625)"/>
       </defs>
       <use xlink:href="#SimHei-32"/>
       <use xlink:href="#SimHei-30" transform="translate(50 0)"/>
       <use xlink:href="#SimHei-32" transform="translate(100 0)"/>
       <use xlink:href="#SimHei-35" transform="translate(150 0)"/>
       <use xlink:href="#SimHei-2d" transform="translate(200 0)"/>
       <use xlink:href="#SimHei-31" transform="translate(250 0)"/>
       <use xlink:href="#SimHei-30" transform="translate(300 0)"/>
      </g>
     </g>
    </g>
    <g id="xtick_3">
     <g id="line2d_5">
      <path d="M 260.402456 556.577344 
L 260.402456 30.977344 
" clip-path="url(#pe3d74c7692)" style="fill: none; stroke-dasharray: 2.96,1.28; stroke-dashoffset: 0; stroke: #21262d; stroke-opacity: 0.4; stroke-width: 0.8"/>
     </g>
     <g id="line2d_6">
      <g>
       <use xlink:href="#m6dfdbb15f2" x="260.402456" y="556.577344" style="fill: #c9d1d9; stroke: #c9d1d9; stroke-width: 0.8"/>
      </g>
     </g>
     <g id="text_3">
      <!-- 2025-11 -->
      <g style="fill: #c9d1d9" transform="translate(229.466567 587.031268) rotate(-30) scale(0.1 -0.1)">
       <use xlink:href="#SimHei-32"/>
       <use xlink:href="#SimHei-30" transform="translate(50 0)"/>
       <use xlink:href="#SimHei-32" transform="translate(100 0)"/>
       <use xlink:href="#SimHei-35" transform="translate(150 0)"/>
       <use xlink:href="#SimHei-2d" transform="translate(200 0)"/>
       <use xlink:href="#SimHei-31" transform="translate(250 0)"/>
       <use xlink:href="#SimHei-31" transform="translate(300 0)"/>
      </g>
     </g>
    </g>
    <g id="xtick_4">
     <g id="line2d_7">
      <path d="M 351.18876 556.577344 
L 351.18876 30.977344 
" clip-path="url(#pe3d74c7692)" style="fill: none; stroke-dasharray: 2.96,1.28; stroke-dashoffset: 0; stroke: #21262d; stroke-opacity: 0.4; stroke-width: 0.8"/>
     </g>
     <g id="line2d_8">
      <g>
       <use xlink:href="#m6dfdbb15f2" x="351.18876" y="556.577344" style="fill: #c9d1d9; stroke: #c9d1d9; stroke-width: 0.8"/>
      </g>
     </g>
     <g id="text_4">
      <!-- 2025-12 -->
      <g style="fill: #c9d1d9" transform="translate(320.252871 587.031268) rotate(-30) scale(0.1 -0.1)">
       <use xlink:href="#SimHei-32"/>
       <use xlink:href="#SimHei-30" transform="translate(50 0)"/>
       <use xlink:href="#SimHei-32" transform="translate(100 0)"/>
       <use xlink:href="#SimHei-35" transform="translate(150 0)"/>
       <use xlink:href="#SimHei-2d" transform="translate(200 0)"/>
       <use xlink:href="#SimHei-31" transform="translate(250 0)"/>
       <use xlink:href="#SimHei-32" transform="translate(300 0)"/>
      </g>
     </g>
    </g>
    <g id="xtick_5">
     <g id="line2d_9">
      <path d="M 445.001275 556.577344 
L 445.001275 30.977344 
" clip-path="url(#pe3d74c7692)" style="fill: none; stroke-dasharray: 2.96,1.28; stroke-dashoffset: 0; stroke: #21262d; stroke-opacity: 0.4; stroke-width: 0.8"/>
     </g>
     <g id="line2d_10">
      <g>
       <use xlink:href="#m6dfdbb15f2" x="445.001275" y="556.577344" style="fill: #c9d1d9; stroke: #c9d1d9; stroke-width: 0.8"/>
      </g>
     </g>
     <g id="text_5">
      <!-- 2026-01 -->
      <g style="fill: #c9d1d9" transform="translate(414.065386 587.031268) rotate(-30) scale(0.1 -0.1)">
       <defs>
        <path id="SimHei-36" d="M 250 1612 
Q 275 1975 387 2225 
Q 500 2475 725 2850 
L 1750 4450 
L 2325 4450 
L 1275 2800 
Q 1950 2975 2350 2750 
Q 2750 2525 2887 2237 
Q 3025 1950 3037 1612 
Q 3050 1275 2937 950 
Q 2825 625 2537 362 
Q 2250 100 1737 75 
Q 1225 50 862 262 
Q 500 475 362 862 
Q 225 1250 250 1612 
z
M 1025 787 
Q 1250 550 1625 525 
Q 2000 500 2250 775 
Q 2500 1050 2500 1575 
Q 2500 2100 2187 2300 
Q 1875 2500 1487 2450 
Q 1100 2400 925 2075 
Q 750 1750 775 1387 
Q 800 1025 1025 787 
z
" transform="scale(0.015625)"/>
       </defs>
       <use xlink:href="#SimHei-32"/>
       <use xlink:href="#SimHei-30" transform="translate(50 0)"/>
       <use xlink:href="#SimHei-32" transform="translate(100 0)"/>
       <use xlink:href="#SimHei-36" transform="translate(150 0)"/>
       <use xlink:href="#SimHei-2d" transform="translate(200 0)"/>
       <use xlink:href="#SimHei-30" transform="translate(250 0)"/>
       <use xlink:href="#SimHei-31" transform="translate(300 0)"/>
      </g>
     </g>
    </g>
    <g id="xtick_6">
     <g id="line2d_11">
      <path d="M 538.81379 556.577344 
L 538.81379 30.977344 
" clip-path="url(#pe3d74c7692)" style="fill: none; stroke-dasharray: 2.96,1.28; stroke-dashoffset: 0; stroke: #21262d; stroke-opacity: 0.4; stroke-width: 0.8"/>
     </g>
     <g id="line2d_12">
      <g>
       <use xlink:href="#m6dfdbb15f2" x="538.81379" y="556.577344" style="fill: #c9d1d9; stroke: #c9d1d9; stroke-width: 0.8"/>
      </g>
     </g>
     <g id="text_6">
      <!-- 2026-02 -->
      <g style="fill: #c9d1d9" transform="translate(507.877901 587.031268) rotate(-30) scale(0.1 -0.1)">
       <use xlink:href="#SimHei-32"/>
       <use xlink:href="#SimHei-30" transform="translate(50 0)"/>
       <use xlink:href="#SimHei-32" transform="translate(100 0)"/>
       <use xlink:href="#SimHei-36" transform="translate(150 0)"/>
       <use xlink:href="#SimHei-2d" transform="translate(200 0)"/>
       <use xlink:href="#SimHei-30" transform="translate(250 0)"/>
       <use xlink:href="#SimHei-32" transform="translate(300 0)"/>
      </g>
     </g>
    </g>
    <g id="xtick_7">
     <g id="line2d_13">
      <path d="M 623.547674 556.577344 
L 623.547674 30.977344 
" clip-path="url(#pe3d74c7692)" style="fill: none; stroke-dasharray: 2.96,1.28; stroke-dashoffset: 0; stroke: #21262d; stroke-opacity: 0.4; stroke-width: 0.8"/>
     </g>
     <g id="line2d_14">
      <g>
       <use xlink:href="#m6dfdbb15f2" x="623.547674" y="556.577344" style="fill: #c9d1d9; stroke: #c9d1d9; stroke-width: 0.8"/>
      </g>
     </g>
     <g id="text_7">
      <!-- 2026-03 -->
      <g style="fill: #c9d1d9" transform="translate(592.611785 587.031268) rotate(-30) scale(0.1 -0.1)">
       <defs>
        <path id="SimHei-33" d="M 250 1225 
L 700 1300 
Q 800 975 1025 762 
Q 1250 550 1587 562 
Q 1925 575 2125 837 
Q 2325 1100 2300 1437 
Q 2275 1775 2037 1962 
Q 1800 2150 1275 2225 
L 1275 2550 
Q 1800 2600 2037 2825 
Q 2275 3050 2250 3412 
Q 2225 3775 1925 3937 
Q 1625 4100 1287 3975 
Q 950 3850 750 3275 
L 300 3350 
Q 450 3800 712 4100 
Q 975 4400 1425 4450 
Q 1875 4500 2212 4337 
Q 2550 4175 2687 3837 
Q 2825 3500 2725 3100 
Q 2625 2700 2150 2400 
Q 2500 2250 2687 1950 
Q 2875 1650 2812 1162 
Q 2750 675 2375 375 
Q 2000 75 1525 87 
Q 1050 100 700 387 
Q 350 675 250 1225 
z
" transform="scale(0.015625)"/>
       </defs>
       <use xlink:href="#SimHei-32"/>
       <use xlink:href="#SimHei-30" transform="translate(50 0)"/>
       <use xlink:href="#SimHei-32" transform="translate(100 0)"/>
       <use xlink:href="#SimHei-36" transform="translate(150 0)"/>
       <use xlink:href="#SimHei-2d" transform="translate(200 0)"/>
       <use xlink:href="#SimHei-30" transform="translate(250 0)"/>
       <use xlink:href="#SimHei-33" transform="translate(300 0)"/>
      </g>
     </g>
    </g>
    <g id="xtick_8">
     <g id="line2d_15">
      <path d="M 717.360189 556.577344 
L 717.360189 30.977344 
" clip-path="url(#pe3d74c7692)" style="fill: none; stroke-dasharray: 2.96,1.28; stroke-dashoffset: 0; stroke: #21262d; stroke-opacity: 0.4; stroke-width: 0.8"/>
     </g>
     <g id="line2d_16">
      <g>
       <use xlink:href="#m6dfdbb15f2" x="717.360189" y="556.577344" style="fill: #c9d1d9; stroke: #c9d1d9; stroke-width: 0.8"/>
      </g>
     </g>
     <g id="text_8">
      <!-- 2026-04 -->
      <g style="fill: #c9d1d9" transform="translate(686.4243 587.031268) rotate(-30) scale(0.1 -0.1)">
       <defs>
        <path id="SimHei-34" d="M 2000 1100 
L 75 1100 
L 75 1525 
L 2100 4450 
L 2475 4450 
L 2475 1525 
L 3075 1525 
L 3075 1100 
L 2475 1100 
L 2475 150 
L 2000 150 
L 2000 1100 
z
M 2000 1525 
L 2000 3500 
L 600 1525 
L 2000 1525 
z
" transform="scale(0.015625)"/>
       </defs>
       <use xlink:href="#SimHei-32"/>
       <use xlink:href="#SimHei-30" transform="translate(50 0)"/>
       <use xlink:href="#SimHei-32" transform="translate(100 0)"/>
       <use xlink:href="#SimHei-36" transform="translate(150 0)"/>
       <use xlink:href="#SimHei-2d" transform="translate(200 0)"/>
       <use xlink:href="#SimHei-30" transform="translate(250 0)"/>
       <use xlink:href="#SimHei-34" transform="translate(300 0)"/>
      </g>
     </g>
    </g>
    <g id="xtick_9">
     <g id="line2d_17">
      <path d="M 808.146494 556.577344 
L 808.146494 30.977344 
" clip-path="url(#pe3d74c7692)" style="fill: none; stroke-dasharray: 2.96,1.28; stroke-dashoffset: 0; stroke: #21262d; stroke-opacity: 0.4; stroke-width: 0.8"/>
     </g>
     <g id="line2d_18">
      <g>
       <use xlink:href="#m6dfdbb15f2" x="808.146494" y="556.577344" style="fill: #c9d1d9; stroke: #c9d1d9; stroke-width: 0.8"/>
      </g>
     </g>
     <g id="text_9">
      <!-- 2026-05 -->
      <g style="fill: #c9d1d9" transform="translate(777.210604 587.031268) rotate(-30) scale(0.1 -0.1)">
       <use xlink:href="#SimHei-32"/>
       <use xlink:href="#SimHei-30" transform="translate(50 0)"/>
       <use xlink:href="#SimHei-32" transform="translate(100 0)"/>
       <use xlink:href="#SimHei-36" transform="translate(150 0)"/>
       <use xlink:href="#SimHei-2d" transform="translate(200 0)"/>
       <use xlink:href="#SimHei-30" transform="translate(250 0)"/>
       <use xlink:href="#SimHei-35" transform="translate(300 0)"/>
      </g>
     </g>
    </g>
    <g id="xtick_10">
     <g id="line2d_19">
      <path d="M 901.959008 556.577344 
L 901.959008 30.977344 
" clip-path="url(#pe3d74c7692)" style="fill: none; stroke-dasharray: 2.96,1.28; stroke-dashoffset: 0; stroke: #21262d; stroke-opacity: 0.4; stroke-width: 0.8"/>
     </g>
     <g id="line2d_20">
      <g>
       <use xlink:href="#m6dfdbb15f2" x="901.959008" y="556.577344" style="fill: #c9d1d9; stroke: #c9d1d9; stroke-width: 0.8"/>
      </g>
     </g>
     <g id="text_10">
      <!-- 2026-06 -->
      <g style="fill: #c9d1d9" transform="translate(871.023119 587.031268) rotate(-30) scale(0.1 -0.1)">
       <use xlink:href="#SimHei-32"/>
       <use xlink:href="#SimHei-30" transform="translate(50 0)"/>
       <use xlink:href="#SimHei-32" transform="translate(100 0)"/>
       <use xlink:href="#SimHei-36" transform="translate(150 0)"/>
       <use xlink:href="#SimHei-2d" transform="translate(200 0)"/>
       <use xlink:href="#SimHei-30" transform="translate(250 0)"/>
       <use xlink:href="#SimHei-36" transform="translate(300 0)"/>
      </g>
     </g>
    </g>
    <g id="xtick_11">
     <g id="line2d_21">
      <path d="M 992.745313 556.577344 
L 992.745313 30.977344 
" clip-path="url(#pe3d74c7692)" style="fill: none; stroke-dasharray: 2.96,1.28; stroke-dashoffset: 0; stroke: #21262d; stroke-opacity: 0.4; stroke-width: 0.8"/>
     </g>
     <g id="line2d_22">
      <g>
       <use xlink:href="#m6dfdbb15f2" x="992.745313" y="556.577344" style="fill: #c9d1d9; stroke: #c9d1d9; stroke-width: 0.8"/>
      </g>
     </g>
     <g id="text_11">
      <!-- 2026-07 -->
      <g style="fill: #c9d1d9" transform="translate(961.809424 587.031268) rotate(-30) scale(0.1 -0.1)">
       <defs>
        <path id="SimHei-37" d="M 850 150 
Q 1300 2050 2425 3925 
L 275 3925 
L 275 4375 
L 2950 4375 
L 2950 3950 
Q 1775 2050 1400 150 
L 850 150 
z
" transform="scale(0.015625)"/>
       </defs>
       <use xlink:href="#SimHei-32"/>
       <use xlink:href="#SimHei-30" transform="translate(50 0)"/>
       <use xlink:href="#SimHei-32" transform="translate(100 0)"/>
       <use xlink:href="#SimHei-36" transform="translate(150 0)"/>
       <use xlink:href="#SimHei-2d" transform="translate(200 0)"/>
       <use xlink:href="#SimHei-30" transform="translate(250 0)"/>
       <use xlink:href="#SimHei-37" transform="translate(300 0)"/>
      </g>
     </g>
    </g>
   </g>
   <g id="matplotlib.axis_2">
    <g id="ytick_1">
     <g id="line2d_23">
      <path d="M 29.2 532.686435 
L 1054.48 532.686435 
" clip-path="url(#pe3d74c7692)" style="fill: none; stroke-dasharray: 2.96,1.28; stroke-dashoffset: 0; stroke: #21262d; stroke-opacity: 0.4; stroke-width: 0.8"/>
     </g>
     <g id="line2d_24">
      <defs>
       <path id="m2d9e1c6515" d="M 0 0 
L -3.5 0 
" style="stroke: #c9d1d9; stroke-width: 0.8"/>
      </defs>
      <g>
       <use xlink:href="#m2d9e1c6515" x="29.2" y="532.686435" style="fill: #c9d1d9; stroke: #c9d1d9; stroke-width: 0.8"/>
      </g>
     </g>
     <g id="text_12">
      <!-- 0.0 -->
      <g style="fill: #c9d1d9" transform="translate(7.2 536.123935) scale(0.1 -0.1)">
       <defs>
        <path id="SimHei-2e" d="M 1075 125 
L 500 125 
L 500 675 
L 1075 675 
L 1075 125 
z
" transform="scale(0.015625)"/>
       </defs>
       <use xlink:href="#SimHei-30"/>
       <use xlink:href="#SimHei-2e" transform="translate(50 0)"/>
       <use xlink:href="#SimHei-30" transform="translate(100 0)"/>
      </g>
     </g>
    </g>
    <g id="ytick_2">
     <g id="line2d_25">
      <path d="M 29.2 437.122798 
L 1054.48 437.122798 
" clip-path="url(#pe3d74c7692)" style="fill: none; stroke-dasharray: 2.96,1.28; stroke-dashoffset: 0; stroke: #21262d; stroke-opacity: 0.4; stroke-width: 0.8"/>
     </g>
     <g id="line2d_26">
      <g>
       <use xlink:href="#m2d9e1c6515" x="29.2" y="437.122798" style="fill: #c9d1d9; stroke: #c9d1d9; stroke-width: 0.8"/>
      </g>
     </g>
     <g id="text_13">
      <!-- 0.2 -->
      <g style="fill: #c9d1d9" transform="translate(7.2 440.560298) scale(0.1 -0.1)">
       <use xlink:href="#SimHei-30"/>
       <use xlink:href="#SimHei-2e" transform="translate(50 0)"/>
       <use xlink:href="#SimHei-32" transform="translate(100 0)"/>
      </g>
     </g>
    </g>
    <g id="ytick_3">
     <g id="line2d_27">
      <path d="M 29.2 341.559162 
L 1054.48 341.559162 
" clip-path="url(#pe3d74c7692)" style="fill: none; stroke-dasharray: 2.96,1.28; stroke-dashoffset: 0; stroke: #21262d; stroke-opacity: 0.4; stroke-width: 0.8"/>
     </g>
     <g id="line2d_28">
      <g>
       <use xlink:href="#m2d9e1c6515" x="29.2" y="341.559162" style="fill: #c9d1d9; stroke: #c9d1d9; stroke-width: 0.8"/>
      </g>
     </g>
     <g id="text_14">
      <!-- 0.4 -->
      <g style="fill: #c9d1d9" transform="translate(7.2 344.996662) scale(0.1 -0.1)">
       <use xlink:href="#SimHei-30"/>
       <use xlink:href="#SimHei-2e" transform="translate(50 0)"/>
       <use xlink:href="#SimHei-34" transform="translate(100 0)"/>
      </g>
     </g>
    </g>
    <g id="ytick_4">
     <g id="line2d_29">
      <path d="M 29.2 245.995526 
L 1054.48 245.995526 
" clip-path="url(#pe3d74c7692)" style="fill: none; stroke-dasharray: 2.96,1.28; stroke-dashoffset: 0; stroke: #21262d; stroke-opacity: 0.4; stroke-width: 0.8"/>
     </g>
     <g id="line2d_30">
      <g>
       <use xlink:href="#m2d9e1c6515" x="29.2" y="245.995526" style="fill: #c9d1d9; stroke: #c9d1d9; stroke-width: 0.8"/>
      </g>
     </g>
     <g id="text_15">
      <!-- 0.6 -->
      <g style="fill: #c9d1d9" transform="translate(7.2 249.433026) scale(0.1 -0.1)">
       <use xlink:href="#SimHei-30"/>
       <use xlink:href="#SimHei-2e" transform="translate(50 0)"/>
       <use xlink:href="#SimHei-36" transform="translate(100 0)"/>
      </g>
     </g>
    </g>
    <g id="ytick_5">
     <g id="line2d_31">
      <path d="M 29.2 150.431889 
L 1054.48 150.431889 
" clip-path="url(#pe3d74c7692)" style="fill: none; stroke-dasharray: 2.96,1.28; stroke-dashoffset: 0; stroke: #21262d; stroke-opacity: 0.4; stroke-width: 0.8"/>
     </g>
     <g id="line2d_32">
      <g>
       <use xlink:href="#m2d9e1c6515" x="29.2" y="150.431889" style="fill: #c9d1d9; stroke: #c9d1d9; stroke-width: 0.8"/>
      </g>
     </g>
     <g id="text_16">
      <!-- 0.8 -->
      <g style="fill: #c9d1d9" transform="translate(7.2 153.869389) scale(0.1 -0.1)">
       <defs>
        <path id="SimHei-38" d="M 175 1375 
Q 175 1675 325 1962 
Q 475 2250 825 2425 
Q 525 2600 425 2812 
Q 325 3025 312 3300 
Q 300 3575 387 3775 
Q 475 3975 650 4150 
Q 825 4325 1037 4387 
Q 1250 4450 1500 4450 
Q 1750 4450 1950 4400 
Q 2150 4350 2375 4187 
Q 2600 4025 2700 3725 
Q 2800 3425 2687 3025 
Q 2575 2625 2100 2400 
Q 2525 2275 2700 2012 
Q 2875 1750 2875 1375 
Q 2875 1000 2762 775 
Q 2650 550 2512 400 
Q 2375 250 2137 162 
Q 1900 75 1537 75 
Q 1175 75 912 162 
Q 650 250 475 425 
Q 300 600 237 837 
Q 175 1075 175 1375 
z
M 687 1400 
Q 675 1100 787 875 
Q 900 650 1200 587 
Q 1500 525 1825 600 
Q 2150 675 2275 950 
Q 2400 1225 2362 1500 
Q 2325 1775 2050 1962 
Q 1775 2150 1450 2125 
Q 1125 2100 912 1900 
Q 700 1700 687 1400 
z
M 775 3350 
Q 775 3100 950 2875 
Q 1125 2650 1500 2650 
Q 1875 2650 2062 2875 
Q 2250 3100 2237 3412 
Q 2225 3725 2012 3875 
Q 1800 4025 1437 4000 
Q 1075 3975 925 3787 
Q 775 3600 775 3350 
z
" transform="scale(0.015625)"/>
       </defs>
       <use xlink:href="#SimHei-30"/>
       <use xlink:href="#SimHei-2e" transform="translate(50 0)"/>
       <use xlink:href="#SimHei-38" transform="translate(100 0)"/>
      </g>
     </g>
    </g>
    <g id="ytick_6">
     <g id="line2d_33">
      <path d="M 29.2 54.868253 
L 1054.48 54.868253 
" clip-path="url(#pe3d74c7692)" style="fill: none; stroke-dasharray: 2.96,1.28; stroke-dashoffset: 0; stroke: #21262d; stroke-opacity: 0.4; stroke-width: 0.8"/>
     </g>
     <g id="line2d_34">
      <g>
       <use xlink:href="#m2d9e1c6515" x="29.2" y="54.868253" style="fill: #c9d1d9; stroke: #c9d1d9; stroke-width: 0.8"/>
      </g>
     </g>
     <g id="text_17">
      <!-- 1.0 -->
      <g style="fill: #c9d1d9" transform="translate(7.2 58.305753) scale(0.1 -0.1)">
       <use xlink:href="#SimHei-31"/>
       <use xlink:href="#SimHei-2e" transform="translate(50 0)"/>
       <use xlink:href="#SimHei-30" transform="translate(100 0)"/>
      </g>
     </g>
    </g>
   </g>
   <g id="line2d_35">
    <path d="M 75.803636 522.70075 
L 78.829847 525.900132 
L 81.856057 526.769186 
L 84.882267 532.686435 
L 87.908477 529.083547 
L 96.987107 515.317546 
L 100.013318 509.115797 
L 103.039528 506.118708 
L 106.065738 502.104719 
L 109.091948 492.316355 
L 118.170579 479.773544 
L 121.196789 463.937789 
L 124.222999 458.915104 
L 127.249209 459.566289 
L 130.275419 461.622943 
L 139.35405 447.742678 
L 142.38026 450.030943 
L 145.40647 440.981339 
L 148.43268 432.422497 
L 151.45889 447.070864 
L 160.537521 441.17948 
L 163.563731 460.354049 
L 190.799622 428.392741 
L 193.825832 431.720964 
L 205.930673 426.610968 
L 208.956883 424.348925 
L 211.983093 422.5135 
L 215.009303 440.332447 
L 224.087934 442.952711 
L 227.114144 434.523044 
L 230.140354 428.698198 
L 233.166564 429.995755 
L 245.271405 411.190442 
L 248.297615 403.418279 
L 251.323825 397.038432 
L 254.350035 402.015048 
L 257.376246 406.755985 
L 266.454876 399.800273 
L 269.481086 400.694408 
L 272.507296 400.316078 
L 275.533506 392.16023 
L 278.559717 397.900205 
L 287.638347 393.682596 
L 290.664557 389.533236 
L 296.716978 395.488393 
L 299.743188 402.5311 
L 308.821818 397.555091 
L 311.848028 393.27579 
L 314.874238 397.563835 
L 317.900449 404.183439 
L 320.926659 420.04719 
L 330.005289 420.888578 
L 333.031499 419.116631 
L 336.05771 415.969583 
L 339.08392 415.329297 
L 342.11013 415.306656 
L 351.18876 408.452802 
L 354.21497 408.309161 
L 357.241181 410.564101 
L 360.267391 409.750855 
L 363.293601 411.457924 
L 372.372231 400.862515 
L 375.398442 395.56342 
L 378.424652 395.401381 
L 381.450862 397.545496 
L 384.477072 403.583059 
L 393.555702 399.522083 
L 396.581913 392.329894 
L 399.608123 393.974482 
L 402.634333 399.607353 
L 405.660543 396.775462 
L 414.739174 389.222571 
L 417.765384 379.147041 
L 420.791594 373.444913 
L 426.844014 379.296969 
L 435.922645 375.560961 
L 438.948855 369.955681 
L 441.975065 382.268629 
L 457.106116 371.57701 
L 460.132326 360.07658 
L 463.158536 344.095955 
L 466.184746 333.985908 
L 469.210956 329.66897 
L 478.289587 305.551283 
L 481.315797 301.20431 
L 484.342007 290.486073 
L 487.368217 278.57688 
L 490.394427 261.634119 
L 499.473058 263.063612 
L 502.499268 273.299162 
L 505.525478 260.21155 
L 508.551688 257.251481 
L 511.577898 256.896808 
L 520.656529 255.10357 
L 523.682739 256.735569 
L 526.708949 239.173363 
L 529.735159 242.627439 
L 532.76137 260.133447 
L 541.84 261.652884 
L 544.86621 267.314213 
L 547.89242 278.935662 
L 550.91863 285.365435 
L 553.944841 295.251502 
L 563.023471 294.733669 
L 566.049681 296.70251 
L 569.075891 308.11204 
L 572.102102 302.270917 
L 575.128312 340.913542 
L 608.416623 319.867363 
L 611.442834 301.772257 
L 614.469044 289.932703 
L 626.573884 285.092307 
L 629.600094 297.837904 
L 632.626305 300.779411 
L 635.652515 297.14253 
L 638.678725 301.259791 
L 647.757355 298.600339 
L 650.783566 294.14299 
L 653.809776 295.092779 
L 656.835986 290.623226 
L 659.862196 296.149696 
L 668.940826 289.55548 
L 671.967037 294.604748 
L 674.993247 292.6667 
L 678.019457 294.016795 
L 681.045667 304.512994 
L 690.124298 310.904693 
L 693.150508 313.367726 
L 696.176718 313.54598 
L 699.202928 314.051315 
L 702.229138 321.415713 
L 711.307769 316.517928 
L 714.333979 320.221156 
L 717.360189 320.437656 
L 720.386399 327.370877 
L 723.412609 338.097808 
L 735.51745 337.319026 
L 738.54366 328.743927 
L 741.56987 324.919262 
L 753.674711 311.216857 
L 756.700921 301.234636 
L 762.753341 288.829699 
L 765.779551 288.02693 
L 774.858182 269.595264 
L 777.884392 265.343635 
L 780.910602 255.394522 
L 783.936812 254.047878 
L 786.963022 258.034229 
L 796.041653 245.932222 
L 799.067863 246.485292 
L 802.094073 239.979678 
L 805.120283 249.7444 
L 823.277544 220.420523 
L 826.303754 200.09781 
L 829.329965 190.368655 
L 838.408595 169.785057 
L 841.434805 159.137368 
L 844.461015 144.089144 
L 847.487226 139.07389 
L 850.513436 144.134502 
L 859.592066 131.213249 
L 862.618276 127.318591 
L 865.644486 120.800229 
L 868.670697 124.400592 
L 871.696907 122.747756 
L 880.775537 107.104634 
L 883.801747 102.146279 
L 886.827957 100.423624 
L 889.854168 95.821366 
L 892.880378 118.277461 
L 901.959008 123.54212 
L 904.985218 122.458108 
L 908.011429 115.685124 
L 911.037639 112.442425 
L 914.063849 127.100769 
L 923.142479 142.337963 
L 926.168689 144.260118 
L 929.1949 149.923398 
L 932.22111 149.418865 
L 935.24732 148.576592 
L 944.32595 131.874924 
L 947.352161 116.405957 
L 950.378371 97.561128 
L 953.404581 88.512025 
L 965.509421 75.052803 
L 968.535632 76.341226 
L 971.561842 68.933966 
L 974.588052 54.868253 
L 977.614262 65.313657 
L 986.692893 75.489975 
L 989.719103 60.325386 
L 992.745313 56.71879 
L 995.771523 62.848259 
L 998.797733 79.976102 
L 998.797733 79.976102 
" clip-path="url(#pe3d74c7692)" style="fill: none; stroke: #008000; stroke-width: 2; stroke-linecap: square"/>
   </g>
   <g id="line2d_36">
    <path d="M 75.803636 484.996841 
L 78.829847 484.996841 
L 81.856057 494.903107 
L 84.882267 497.667633 
L 87.908477 497.667633 
L 96.987107 487.41587 
L 100.013318 483.729651 
L 103.039528 474.053534 
L 106.065738 473.822836 
L 109.091948 471.173658 
L 118.170579 477.854552 
L 121.196789 471.289007 
L 124.222999 466.3356 
L 127.249209 453.779606 
L 130.275419 464.837713 
L 139.35405 464.837713 
L 142.38026 466.104902 
L 145.40647 463.340375 
L 148.43268 486.26348 
L 151.45889 488.913207 
L 160.537521 487.761367 
L 163.563731 472.325499 
L 190.799622 471.289007 
L 193.825832 481.656119 
L 202.904463 449.978039 
L 205.930673 449.978039 
L 208.956883 494.212112 
L 211.983093 480.158782 
L 215.009303 476.472563 
L 224.087934 480.38893 
L 227.114144 472.440848 
L 230.140354 475.090025 
L 233.166564 479.582587 
L 245.271405 474.283682 
L 248.297615 461.727689 
L 251.323825 448.59605 
L 254.350035 448.826199 
L 257.376246 461.266843 
L 266.454876 469.445623 
L 269.481086 532.686435 
L 272.507296 483.9598 
L 275.533506 479.928084 
L 278.559717 471.403807 
L 287.638347 471.403807 
L 290.664557 472.21015 
L 296.716978 472.21015 
L 299.743188 463.801221 
L 308.821818 449.056347 
L 311.848028 458.617665 
L 320.926659 458.617665 
L 330.005289 457.580625 
L 333.031499 452.512417 
L 336.05771 432.123141 
L 339.08392 422.101526 
L 342.11013 422.101526 
L 351.18876 421.295183 
L 354.21497 417.378816 
L 357.241181 415.420633 
L 360.267391 408.048196 
L 363.293601 417.033319 
L 372.372231 414.959787 
L 375.398442 416.572473 
L 378.424652 407.702699 
L 381.450862 408.509042 
L 384.477072 401.482102 
L 393.555702 396.98954 
L 396.581913 388.926109 
L 399.608123 382.820861 
L 402.634333 384.318748 
L 405.660543 381.438872 
L 414.739174 381.899718 
L 417.765384 381.899718 
L 420.791594 367.039495 
M 426.844014 367.039495 
L 435.922645 367.039495 
L 438.948855 341.236515 
L 441.975065 330.293208 
L 457.106116 326.837687 
L 460.132326 320.962588 
L 463.158536 315.663683 
L 466.184746 330.754054 
L 469.210956 315.779032 
L 478.289587 308.521943 
L 481.315797 303.799233 
L 484.342007 308.86744 
L 487.368217 303.683884 
L 490.394427 295.620453 
L 499.473058 298.039482 
L 502.499268 298.039482 
L 505.525478 288.593513 
L 508.551688 292.970726 
L 511.577898 303.223038 
L 520.656529 303.223038 
L 523.682739 282.027419 
L 526.708949 282.373466 
L 529.735159 282.373466 
L 532.76137 274.88568 
L 541.84 278.34175 
L 544.86621 272.927496 
L 547.89242 263.020681 
L 550.91863 263.020681 
L 553.944841 263.13603 
L 563.023471 264.28787 
L 566.049681 244.935635 
L 569.075891 231.803996 
L 572.102102 233.992328 
L 575.128312 219.708849 
L 608.416623 228.808772 
L 611.442834 200.125916 
L 614.469044 184.114402 
L 617.495254 151.51463 
L 626.573884 171.097563 
L 629.600094 198.858727 
L 632.626305 219.248003 
L 635.652515 216.13743 
L 638.678725 216.13743 
L 647.757355 215.561785 
L 650.783566 232.264293 
L 653.809776 192.523331 
L 656.835986 179.851989 
L 659.862196 183.768356 
L 668.940826 215.100939 
L 671.967037 283.525306 
L 674.993247 203.812135 
L 678.019457 188.030769 
L 681.045667 219.362803 
L 690.124298 203.12114 
L 693.150508 196.555046 
L 696.176718 210.147531 
L 699.202928 220.745341 
L 702.229138 231.918796 
L 711.307769 232.955836 
L 714.333979 232.955836 
L 717.360189 212.912058 
L 720.386399 185.61174 
L 723.412609 202.429597 
L 735.51745 199.204224 
L 738.54366 169.715025 
L 741.56987 137.4613 
L 744.59608 140.571323 
L 753.674711 136.424259 
L 756.700921 139.304134 
L 759.727131 122.486277 
L 762.753341 125.135455 
L 765.779551 128.706874 
L 774.858182 123.983615 
L 777.884392 124.44446 
L 783.936812 132.277744 
L 786.963022 134.351276 
L 796.041653 145.754879 
L 799.067863 130.665057 
L 802.094073 147.482914 
L 805.120283 147.598263 
L 823.277544 139.073986 
L 826.303754 117.072023 
L 829.329965 106.013917 
L 838.408595 104.976876 
L 841.434805 98.410782 
L 844.461015 95.18541 
L 847.487226 93.803421 
L 850.513436 87.237327 
L 859.592066 114.998491 
L 862.618276 104.401231 
L 865.644486 121.103739 
L 868.670697 104.976876 
L 871.696907 107.280557 
L 880.775537 98.065285 
L 883.801747 98.065285 
L 886.827957 88.273819 
L 889.854168 79.980239 
L 892.880378 80.786582 
L 901.959008 65.466062 
L 904.985218 64.083525 
L 908.011429 60.858152 
L 911.037639 68.921583 
L 914.063849 73.874991 
L 923.142479 64.659719 
L 926.168689 64.659719 
L 929.1949 72.723151 
L 932.22111 72.723151 
L 935.24732 76.178672 
L 944.32595 65.235365 
L 947.352161 54.868253 
L 950.378371 55.098401 
L 953.404581 55.098401 
L 965.509421 68.230589 
L 968.535632 75.026831 
L 971.561842 92.881729 
L 977.614262 92.881729 
L 986.692893 102.097001 
L 989.719103 97.028794 
L 992.745313 97.028794 
L 995.771523 97.719788 
L 998.797733 91.269043 
L 998.797733 91.269043 
" clip-path="url(#pe3d74c7692)" style="fill: none; stroke: #00bfbf; stroke-width: 2; stroke-linecap: square"/>
   </g>
   <g id="line2d_37">
    <path d="M 106.065738 532.686435 
L 109.091948 498.454149 
L 118.170579 507.654449 
L 121.196789 501.859455 
L 124.222999 479.2769 
L 127.249209 461.175011 
L 130.275419 457.769705 
L 139.35405 443.312091 
L 142.38026 468.583045 
L 145.40647 459.741198 
L 148.43268 436.919675 
L 151.45889 420.669794 
L 157.511311 420.669794 
L 160.537521 456.634604 
L 163.563731 434.828697 
L 190.799622 438.472972 
L 193.825832 491.882506 
L 202.904463 491.882506 
L 205.930673 498.334665 
L 208.956883 491.225342 
L 211.983093 524.561494 
L 215.009303 497.020336 
L 224.087934 524.023814 
L 227.114144 527.548605 
L 230.140354 529.699324 
L 233.166564 511.657177 
L 236.192774 511.358466 
L 245.271405 513.568928 
L 248.297615 510.940271 
L 251.323825 458.904807 
L 254.350035 434.410502 
L 257.376246 425.807624 
L 266.454876 413.26176 
L 269.481086 433.574111 
L 272.507296 390.559721 
L 275.533506 434.529986 
L 278.559717 437.039159 
L 287.638347 424.911491 
L 290.664557 424.911491 
L 293.690767 450.720125 
L 296.716978 436.083284 
L 299.743188 418.997012 
L 308.821818 423.119225 
L 311.848028 429.810352 
L 314.874238 427.301179 
L 317.900449 442.595185 
L 320.926659 468.344076 
L 330.005289 482.921175 
L 333.031499 506.280379 
L 336.05771 521.873095 
L 339.08392 521.873095 
L 351.18876 462.369856 
L 354.21497 466.910263 
L 357.241181 489.433076 
L 360.267391 471.450671 
L 363.293601 439.309363 
L 372.372231 422.521803 
L 375.398442 412.126658 
L 378.424652 443.312091 
L 381.450862 434.768955 
L 384.477072 404.419913 
L 393.555702 415.890417 
L 396.581913 432.020814 
L 399.608123 418.997012 
L 402.634333 443.849771 
L 405.660543 417.085262 
L 414.739174 417.503457 
L 417.765384 407.765477 
L 420.791594 425.927108 
L 423.817804 425.927108 
L 426.844014 433.096173 
L 435.922645 457.470994 
L 438.948855 445.403068 
L 441.975065 414.994284 
L 454.079906 414.994284 
L 457.106116 427.59989 
L 460.132326 436.26251 
L 463.158536 465.536193 
L 466.184746 434.828697 
L 469.210956 433.454627 
L 478.289587 415.711191 
L 481.315797 417.742426 
L 484.342007 434.171533 
L 487.368217 425.210202 
L 490.394427 376.221591 
L 499.473058 376.221591 
L 502.499268 334.52153 
L 505.525478 357.582022 
L 508.551688 364.332892 
L 511.577898 368.694073 
L 520.656529 377.296951 
L 523.682739 369.470722 
L 526.708949 348.740175 
L 529.735159 361.286039 
L 532.76137 345.633581 
L 541.84 332.968232 
L 544.86621 337.269671 
L 547.89242 332.550037 
L 550.91863 378.909991 
L 553.944841 368.933042 
L 563.023471 369.649948 
L 566.049681 404.300429 
L 569.075891 386.377767 
L 572.102102 434.111791 
L 575.128312 466.073872 
L 578.154522 466.073872 
L 608.416623 471.749382 
L 611.442834 473.84036 
L 614.469044 499.529509 
L 617.495254 504.846566 
L 620.521464 504.846566 
L 626.573884 450.122703 
L 629.600094 446.896624 
L 632.626305 426.644015 
L 635.652515 403.404296 
L 638.678725 393.307863 
L 647.757355 425.807624 
L 650.783566 407.944704 
L 653.809776 373.294223 
L 656.835986 336.074827 
L 659.862196 335.537147 
L 668.940826 375.504685 
L 671.967037 393.546832 
L 674.993247 349.39734 
L 678.019457 359.971711 
L 681.045667 279.140503 
L 690.124298 310.027224 
L 693.150508 277.527463 
L 696.176718 311.042842 
L 699.202928 254.944908 
L 702.229138 241.682138 
L 711.307769 288.938225 
L 714.333979 325.261488 
L 717.360189 311.700006 
L 720.386399 321.557471 
L 723.412609 297.063165 
L 735.51745 307.338825 
L 738.54366 329.144731 
L 741.56987 332.490295 
L 744.59608 316.718352 
L 753.674711 311.042842 
L 756.700921 328.726536 
L 759.727131 309.609029 
L 762.753341 291.865593 
L 765.779551 316.419641 
L 774.858182 316.65861 
L 777.884392 285.771888 
L 780.910602 278.543081 
L 783.936812 264.145208 
L 786.963022 285.234208 
L 796.041653 267.072577 
L 799.067863 258.529441 
L 802.094073 210.138252 
L 805.120283 223.819218 
L 823.277544 258.529441 
L 826.303754 227.284266 
L 829.329965 246.222546 
L 832.356175 246.222546 
L 838.408595 220.772365 
L 841.434805 195.083216 
L 844.461015 190.423323 
L 847.487226 188.870026 
L 850.513436 121.361331 
L 859.592066 105.051708 
L 862.618276 54.868253 
L 865.644486 116.820923 
L 868.670697 120.763909 
L 871.696907 130.979826 
L 880.775537 130.979826 
L 883.801747 160.014539 
L 886.827957 160.671704 
L 889.854168 177.220295 
L 892.880378 171.066848 
L 901.959008 154.279287 
L 904.985218 161.866548 
L 908.011429 149.440169 
L 911.037639 158.580726 
L 914.063849 118.314478 
L 923.142479 116.402727 
L 926.168689 140.359353 
L 929.1949 134.385132 
L 932.22111 194.067598 
L 935.24732 173.27731 
L 944.32595 180.386632 
L 947.352161 196.994966 
L 950.378371 157.923562 
L 953.404581 177.578749 
L 965.509421 152.248052 
L 968.535632 161.92629 
L 971.561842 216.709895 
L 974.588052 216.530668 
L 977.614262 226.268648 
L 986.692893 217.66577 
L 989.719103 191.379199 
L 992.745313 174.531896 
L 995.771523 166.287471 
L 998.797733 166.287471 
L 1007.876364 170.409684 
L 1007.876364 170.409684 
" clip-path="url(#pe3d74c7692)" style="fill: none; stroke: #ffffff; stroke-width: 2; stroke-linecap: square"/>
   </g>
   <g id="line2d_38">
    <path d="M 75.803636 450.545102 
L 78.829847 479.592691 
L 81.856057 501.715031 
L 84.882267 532.686435 
L 87.908477 488.056846 
L 96.987107 476.130066 
L 100.013318 489.018707 
L 103.039528 489.595934 
L 106.065738 447.082384 
L 109.091948 443.619758 
L 118.170579 446.69775 
L 121.196789 435.925056 
L 124.222999 421.497419 
L 127.249209 434.001427 
L 130.275419 439.964724 
L 139.35405 428.999805 
L 142.38026 436.886917 
L 145.40647 407.069783 
L 148.43268 405.33847 
L 151.45889 425.53718 
L 160.537521 401.29871 
L 163.563731 390.333699 
L 190.799622 365.325777 
L 193.825832 393.026872 
L 202.904463 399.952215 
L 205.930673 434.578469 
L 208.956883 414.572169 
L 211.983093 425.53718 
L 215.009303 468.242954 
L 224.087934 459.394074 
L 227.114144 436.309782 
L 230.140354 447.082384 
L 233.166564 442.273172 
L 245.271405 398.22081 
L 248.297615 405.33847 
L 251.323825 375.906154 
L 254.350035 394.565776 
L 257.376246 406.300331 
L 266.454876 405.723196 
L 269.481086 429.961574 
L 272.507296 426.691357 
L 275.533506 403.414748 
L 278.559717 405.530787 
L 287.638347 403.991883 
L 290.664557 414.379759 
L 293.690767 421.689829 
L 296.716978 400.721575 
L 299.743188 425.152454 
L 308.821818 425.53718 
L 311.848028 439.772407 
L 314.874238 446.505249 
L 317.900449 457.47026 
L 320.926659 505.177748 
L 330.005289 495.94405 
L 333.031499 479.785101 
L 336.05771 477.66897 
L 339.08392 480.55446 
L 342.11013 464.203194 
L 351.18876 451.314461 
L 354.21497 463.049016 
L 357.241181 470.358993 
L 360.267391 466.126916 
L 363.293601 448.62138 
L 372.372231 436.694508 
L 375.398442 447.082384 
L 378.424652 439.58009 
L 381.450862 451.50687 
L 384.477072 435.348013 
L 393.555702 444.774029 
L 396.581913 465.934507 
L 399.608123 440.349542 
L 402.634333 447.659519 
L 405.660543 435.155604 
L 414.739174 419.381381 
L 417.765384 418.227111 
L 420.791594 399.759806 
L 423.817804 387.448208 
L 426.844014 378.599236 
L 435.922645 384.755035 
L 438.948855 378.406919 
L 441.975065 377.060332 
L 457.106116 337.817183 
L 460.132326 305.306875 
L 463.158536 297.996806 
L 466.184746 293.187594 
L 469.210956 256.252985 
L 478.289587 217.779103 
L 481.315797 238.939858 
L 484.342007 227.590121 
L 487.368217 232.59165 
L 490.394427 229.102963 
L 499.473058 218.831161 
L 502.499268 223.482435 
L 505.525478 202.551055 
L 508.551688 195.380164 
L 511.577898 146.927806 
L 520.656529 176.968216 
L 523.682739 166.308638 
L 526.708949 152.354447 
L 529.735159 171.735464 
L 532.76137 201.000692 
L 541.84 276.780139 
L 544.86621 215.342475 
L 547.89242 211.078791 
L 550.91863 244.220112 
L 553.944841 244.995294 
L 563.023471 209.721946 
L 566.049681 213.210633 
L 569.075891 206.621035 
L 572.102102 186.658725 
L 575.128312 213.985814 
L 608.416623 195.380164 
L 611.442834 169.603437 
L 614.469044 164.176797 
L 617.495254 143.43912 
L 626.573884 144.214486 
L 629.600094 213.598224 
L 632.626305 224.839095 
L 635.652515 214.373405 
L 638.678725 204.683082 
L 647.757355 217.280613 
L 650.783566 193.054434 
L 653.809776 195.573867 
L 656.835986 203.714012 
L 659.862196 226.002052 
L 668.940826 236.080152 
L 671.967037 271.159611 
L 674.993247 256.042462 
L 678.019457 296.936245 
L 681.045667 322.712972 
L 690.124298 380.855746 
L 693.150508 353.722451 
L 696.176718 319.99956 
L 699.202928 344.419626 
L 702.229138 324.457223 
L 711.307769 321.550107 
L 714.333979 347.714332 
L 717.360189 323.294358 
L 720.386399 349.846267 
L 723.412609 363.219072 
L 735.51745 358.180023 
L 738.54366 281.23771 
L 741.56987 293.253856 
L 744.59608 279.49346 
L 753.674711 280.85012 
L 756.700921 255.460984 
L 759.727131 264.763901 
L 762.753341 237.242924 
L 765.779551 230.072033 
L 774.858182 217.474501 
L 777.884392 222.125775 
L 780.910602 198.093484 
L 783.936812 213.598224 
L 786.963022 223.676323 
L 796.041653 214.954884 
L 799.067863 233.366831 
L 802.094073 204.489194 
L 805.120283 202.938646 
L 823.277544 158.750156 
L 826.303754 136.849707 
L 829.329965 137.237298 
L 838.408595 109.522617 
L 841.434805 119.212941 
L 844.461015 90.723079 
L 847.487226 136.655819 
L 850.513436 167.665298 
L 859.592066 163.983094 
L 862.618276 150.028717 
L 865.644486 141.307278 
L 868.670697 188.790566 
L 871.696907 158.750156 
L 880.775537 133.942499 
L 883.801747 140.532096 
L 886.827957 167.277708 
L 889.854168 160.494407 
L 892.880378 200.419213 
L 901.959008 214.567293 
L 904.985218 207.590105 
L 908.011429 198.093484 
L 911.037639 199.450144 
L 914.063849 220.575412 
L 923.142479 273.09775 
L 926.168689 233.948125 
L 929.1949 253.135439 
L 932.22111 260.500033 
L 935.24732 239.37495 
L 944.32595 180.844494 
L 947.352161 163.789206 
L 950.378371 138.400255 
L 953.404581 125.802538 
L 965.509421 91.11067 
L 968.535632 128.322156 
L 971.561842 95.374538 
L 974.588052 75.993521 
L 977.614262 119.406829 
L 986.692893 97.506379 
L 989.719103 54.868253 
L 992.745313 57.581573 
L 995.771523 121.732558 
L 998.797733 111.654459 
L 998.797733 111.654459 
" clip-path="url(#pe3d74c7692)" style="fill: none; stroke: #ff0000; stroke-width: 2; stroke-linecap: square"/>
   </g>
   <g id="patch_3">
    <path d="M 29.2 556.577344 
L 29.2 30.977344 
" style="fill: none; stroke: #30363d; stroke-width: 0.8; stroke-linejoin: miter; stroke-linecap: square"/>
   </g>
   <g id="patch_4">
    <path d="M 1054.48 556.577344 
L 1054.48 30.977344 
" style="fill: none; stroke: #30363d; stroke-width: 0.8; stroke-linejoin: miter; stroke-linecap: square"/>
   </g>
   <g id="patch_5">
    <path d="M 29.2 556.577344 
L 1054.48 556.577344 
" style="fill: none; stroke: #30363d; stroke-width: 0.8; stroke-linejoin: miter; stroke-linecap: square"/>
   </g>
   <g id="patch_6">
    <path d="M 29.2 30.977344 
L 1054.48 30.977344 
" style="fill: none; stroke: #30363d; stroke-width: 0.8; stroke-linejoin: miter; stroke-linecap: square"/>
   </g>
   <g id="text_18">
    <!-- 2026-07-06 -->
    <g style="fill: #8b949e; opacity: 0.6" transform="translate(999.2272 550.196344) scale(0.09 -0.09)">
     <use xlink:href="#SimHei-32"/>
     <use xlink:href="#SimHei-30" transform="translate(50 0)"/>
     <use xlink:href="#SimHei-32" transform="translate(100 0)"/>
     <use xlink:href="#SimHei-36" transform="translate(150 0)"/>
     <use xlink:href="#SimHei-2d" transform="translate(200 0)"/>
     <use xlink:href="#SimHei-30" transform="translate(250 0)"/>
     <use xlink:href="#SimHei-37" transform="translate(300 0)"/>
     <use xlink:href="#SimHei-2d" transform="translate(350 0)"/>
     <use xlink:href="#SimHei-30" transform="translate(400 0)"/>
     <use xlink:href="#SimHei-36" transform="translate(450 0)"/>
    </g>
   </g>
   <g id="text_19">
    <!-- 归一化指标对比 -->
    <g style="fill: #c9d1d9" transform="translate(489.34 18.977344) scale(0.15 -0.15)">
     <defs>
      <path id="SimHei-5f52" d="M 2600 800 
Q 3075 775 3600 775 
L 5300 775 
L 5300 2275 
L 4150 2275 
Q 3550 2275 3100 2250 
L 3100 2725 
Q 3550 2700 4150 2700 
L 5300 2700 
L 5300 4175 
L 3775 4175 
Q 3300 4175 2800 4150 
L 2800 4625 
Q 3250 4600 3725 4600 
L 5850 4600 
Q 5825 4075 5825 3775 
L 5825 825 
Q 5825 200 5850 -300 
L 5300 -300 
L 5300 350 
L 3600 350 
Q 3075 350 2600 325 
L 2600 800 
z
M 350 -150 
Q 1125 325 1475 975 
Q 1825 1625 1900 2362 
Q 1975 3100 1962 3837 
Q 1950 4575 1925 5125 
L 2475 5125 
Q 2450 4725 2450 3950 
Q 2450 3175 2400 2437 
Q 2350 1700 2012 950 
Q 1675 200 800 -550 
Q 625 -325 350 -150 
z
M 500 1225 
Q 525 1650 525 2050 
L 525 3700 
Q 525 4125 500 4475 
L 1050 4475 
Q 1025 4100 1025 3700 
L 1025 2050 
Q 1025 1650 1050 1225 
L 500 1225 
z
" transform="scale(0.015625)"/>
      <path id="SimHei-4e00" d="M 4875 2675 
Q 5525 2675 6050 2700 
L 6050 2050 
Q 5525 2075 4900 2075 
L 1600 2075 
Q 950 2075 350 2050 
L 350 2700 
Q 950 2675 1600 2675 
L 4875 2675 
z
" transform="scale(0.015625)"/>
      <path id="SimHei-5316" d="M 3925 5025 
Q 3900 4900 3900 4400 
L 3900 2625 
Q 4375 3025 4775 3450 
Q 5175 3875 5400 4300 
Q 5600 4100 5900 3925 
Q 5700 3700 5225 3212 
Q 4750 2725 4487 2512 
Q 4225 2300 3900 2025 
L 3900 450 
Q 3900 50 4225 50 
L 5200 50 
Q 5400 75 5462 262 
Q 5525 450 5575 850 
Q 5800 650 6150 600 
Q 6000 -100 5825 -250 
Q 5650 -400 5350 -400 
L 3950 -400 
Q 3425 -400 3400 200 
L 3400 1675 
Q 3225 1525 2962 1350 
Q 2700 1175 2375 975 
Q 2225 1225 2025 1400 
Q 2350 1550 2737 1787 
Q 3125 2025 3400 2250 
L 3400 4500 
Q 3400 4800 3375 5025 
L 3925 5025 
z
M 2400 4850 
Q 2175 4550 2075 4337 
Q 1975 4125 1825 3775 
L 1825 675 
Q 1825 -75 1850 -550 
L 1325 -550 
Q 1350 -125 1350 650 
L 1350 3050 
Q 1125 2725 962 2525 
Q 800 2325 675 2175 
Q 500 2375 275 2525 
Q 625 2850 875 3212 
Q 1125 3575 1312 3912 
Q 1500 4250 1625 4575 
Q 1750 4900 1825 5100 
Q 1975 4975 2400 4850 
z
" transform="scale(0.015625)"/>
      <path id="SimHei-6307" d="M 5625 2225 
Q 5600 1925 5600 1350 
L 5600 300 
Q 5600 -225 5625 -525 
L 5125 -525 
L 5125 -125 
L 3300 -125 
L 3300 -625 
L 2800 -625 
Q 2825 -300 2825 300 
L 2825 1350 
Q 2825 1925 2800 2225 
L 5625 2225 
z
M 500 25 
Q 1075 -25 1175 37 
Q 1275 100 1275 275 
L 1275 1675 
Q 1050 1600 925 1537 
Q 800 1475 475 1275 
Q 400 1525 225 1800 
Q 625 1900 825 1975 
Q 1025 2050 1275 2125 
L 1275 3300 
L 1100 3300 
Q 775 3300 450 3275 
L 450 3725 
Q 750 3700 1100 3700 
L 1275 3700 
L 1275 4450 
Q 1275 4800 1250 5125 
L 1775 5125 
Q 1750 4850 1750 4450 
L 1750 3700 
Q 2075 3700 2425 3725 
L 2425 3275 
Q 2050 3300 1750 3300 
L 1750 2325 
Q 1850 2350 2025 2425 
L 2375 2575 
Q 2350 2300 2375 2100 
Q 2225 2050 2062 1987 
Q 1900 1925 1750 1850 
L 1750 100 
Q 1725 -200 1575 -337 
Q 1425 -475 675 -525 
Q 625 -250 500 25 
z
M 3325 5025 
Q 3300 4675 3300 4125 
Q 4125 4275 4512 4412 
Q 4900 4550 5225 4725 
Q 5325 4475 5575 4250 
Q 5450 4225 5237 4175 
Q 5025 4125 4725 4050 
Q 4425 3975 4037 3887 
Q 3650 3800 3300 3725 
L 3300 3175 
Q 3275 2925 3700 2925 
L 4925 2925 
Q 5300 2925 5387 3087 
Q 5475 3250 5550 3600 
Q 5750 3400 6050 3300 
Q 5825 2725 5700 2637 
Q 5575 2550 5275 2525 
L 3350 2525 
Q 3050 2525 2937 2687 
Q 2825 2850 2825 2975 
L 2825 4125 
Q 2825 4775 2800 5025 
L 3325 5025 
z
M 5125 275 
L 5125 875 
L 3300 875 
L 3300 275 
L 5125 275 
z
M 5125 1250 
L 5125 1825 
L 3300 1825 
L 3300 1250 
L 5125 1250 
z
" transform="scale(0.015625)"/>
      <path id="SimHei-6807" d="M 1275 4400 
Q 1275 4800 1250 5175 
L 1750 5175 
Q 1725 4825 1725 4400 
L 1725 3800 
Q 2125 3800 2575 3825 
L 2575 3350 
Q 2125 3375 1725 3375 
L 1725 2525 
Q 1900 2650 2075 2800 
Q 2400 2275 2650 1775 
Q 2375 1650 2175 1500 
Q 2025 2000 1725 2425 
L 1725 475 
Q 1725 -50 1750 -575 
L 1250 -575 
Q 1275 -25 1275 475 
L 1275 2100 
Q 1025 1400 500 750 
Q 350 950 125 1125 
Q 550 1550 812 2187 
Q 1075 2825 1150 3375 
Q 675 3375 325 3325 
L 325 3825 
Q 800 3800 1275 3800 
L 1275 4400 
z
M 5175 3125 
Q 5675 3125 6050 3150 
L 6050 2675 
Q 5675 2700 5275 2700 
L 4500 2700 
L 4500 175 
Q 4500 -225 4275 -350 
Q 4050 -475 3475 -550 
Q 3425 -250 3275 25 
Q 3775 25 3900 62 
Q 4025 100 4025 350 
L 4025 2700 
L 3400 2700 
Q 2775 2700 2500 2650 
L 2500 3150 
Q 2825 3125 3400 3125 
L 5175 3125 
z
M 4900 4775 
Q 5425 4775 5750 4800 
L 5750 4300 
Q 5275 4350 4750 4350 
L 3525 4350 
Q 3125 4350 2750 4300 
L 2750 4800 
Q 3100 4775 3525 4775 
L 4900 4775 
z
M 5275 2025 
Q 5825 1175 6200 500 
Q 5925 375 5650 200 
Q 5375 925 4825 1725 
Q 5075 1850 5275 2025 
z
M 3600 1775 
Q 3500 1625 3225 975 
Q 2950 325 2800 50 
Q 2575 175 2300 275 
Q 2625 775 2787 1187 
Q 2950 1600 3050 2000 
Q 3325 1875 3600 1775 
z
" transform="scale(0.015625)"/>
      <path id="SimHei-5bf9" d="M 525 4250 
Q 900 4225 1400 4225 
L 2825 4225 
Q 2575 2625 2200 1750 
Q 2825 875 3125 400 
Q 2950 275 2725 75 
Q 2200 975 1950 1300 
Q 1650 775 1350 425 
Q 1050 75 600 -350 
Q 425 -125 200 -25 
Q 625 275 975 675 
Q 1325 1075 1650 1700 
Q 1050 2425 550 2900 
Q 700 3025 900 3225 
Q 1625 2425 1875 2150 
Q 2200 3050 2300 3825 
L 1400 3825 
Q 900 3825 525 3800 
L 525 4250 
z
M 2925 3700 
Q 3525 3675 3750 3675 
L 4825 3675 
L 4825 4425 
Q 4825 4750 4775 5125 
L 5350 5125 
Q 5325 4825 5325 4375 
L 5325 3675 
Q 5575 3675 6150 3700 
L 6150 3250 
Q 5575 3275 5325 3275 
L 5325 125 
Q 5350 -350 5012 -475 
Q 4675 -600 4250 -650 
Q 4175 -350 4025 -100 
Q 4575 -100 4712 -37 
Q 4850 25 4825 325 
L 4825 3275 
L 3775 3275 
Q 3550 3275 2925 3225 
L 2925 3700 
z
M 3450 2725 
Q 3875 1975 4175 1325 
Q 3850 1200 3700 1075 
Q 3475 1750 3050 2475 
Q 3225 2550 3450 2725 
z
" transform="scale(0.015625)"/>
      <path id="SimHei-6bd4" d="M 3775 5100 
Q 3750 4575 3750 4100 
L 3750 3050 
Q 4925 3600 5475 4175 
Q 5675 3900 5900 3675 
Q 5600 3500 5037 3187 
Q 4475 2875 3750 2550 
L 3750 450 
Q 3750 100 4050 100 
L 5000 100 
Q 5175 100 5262 250 
Q 5350 400 5450 900 
Q 5650 775 6025 675 
Q 5850 0 5650 -175 
Q 5450 -350 5225 -350 
L 3900 -350 
Q 3250 -350 3250 275 
L 3250 4000 
Q 3250 4550 3225 5100 
L 3775 5100 
z
M 1275 4975 
Q 1250 4575 1250 4000 
L 1250 3150 
L 1850 3150 
Q 2325 3150 2875 3175 
L 2875 2650 
Q 2325 2675 1850 2675 
L 1250 2675 
L 1250 475 
Q 1650 650 1962 812 
Q 2275 975 2850 1275 
Q 2900 950 2950 750 
Q 2375 475 1762 175 
Q 1150 -125 925 -325 
Q 750 -100 575 200 
Q 700 300 750 600 
L 750 3950 
Q 750 4550 725 4975 
L 1275 4975 
z
" transform="scale(0.015625)"/>
     </defs>
     <use xlink:href="#SimHei-5f52"/>
     <use xlink:href="#SimHei-4e00" transform="translate(100 0)"/>
     <use xlink:href="#SimHei-5316" transform="translate(200 0)"/>
     <use xlink:href="#SimHei-6307" transform="translate(300 0)"/>
     <use xlink:href="#SimHei-6807" transform="translate(400 0)"/>
     <use xlink:href="#SimHei-5bf9" transform="translate(500 0)"/>
     <use xlink:href="#SimHei-6bd4" transform="translate(600 0)"/>
    </g>
   </g>
   <g id="legend_1">
    <g id="patch_7">
     <path d="M 36.2 94.883594 
L 128.2 94.883594 
Q 130.2 94.883594 130.2 92.883594 
L 130.2 37.977344 
Q 130.2 35.977344 128.2 35.977344 
L 36.2 35.977344 
Q 34.2 35.977344 34.2 37.977344 
L 34.2 92.883594 
Q 34.2 94.883594 36.2 94.883594 
z
" style="fill: #161b22; opacity: 0.9; stroke: #30363d; stroke-linejoin: miter"/>
    </g>
    <g id="line2d_39">
     <path d="M 38.2 44.524219 
L 48.2 44.524219 
L 58.2 44.524219 
" style="fill: none; stroke: #008000; stroke-width: 2; stroke-linecap: square"/>
    </g>
    <g id="text_20">
     <!-- 融资余额 -->
     <g style="fill: #c9d1d9" transform="translate(66.2 48.024219) scale(0.1 -0.1)">
      <defs>
       <path id="SimHei-878d" d="M 5200 975 
Q 5400 1025 5650 1125 
Q 5775 775 5887 475 
Q 6000 175 6150 -350 
Q 5925 -425 5675 -500 
Q 5575 -175 5500 50 
Q 4825 -100 4362 -212 
Q 3900 -325 3400 -500 
Q 3325 -225 3200 0 
Q 3575 25 4350 175 
L 4350 1750 
L 3850 1750 
L 3850 1225 
L 3375 1225 
Q 3400 1975 3400 2675 
Q 3400 3400 3375 3925 
L 4350 3925 
Q 4350 4925 4325 5200 
L 4825 5200 
Q 4800 4875 4800 3925 
L 5775 3925 
Q 5750 3325 5750 2700 
Q 5750 2100 5775 1550 
L 5300 1550 
L 5300 1750 
L 4800 1750 
L 4800 250 
Q 5075 325 5400 400 
Q 5325 650 5200 975 
z
M 2025 -50 
Q 2425 -50 2475 -12 
Q 2525 25 2550 150 
L 2550 1975 
L 825 1975 
L 825 -500 
L 350 -500 
Q 375 100 375 475 
L 375 1400 
Q 375 1850 350 2350 
L 3000 2350 
Q 2975 1950 2975 1450 
L 2975 -25 
Q 2975 -325 2787 -387 
Q 2600 -450 2225 -525 
Q 2125 -225 2025 -50 
z
M 625 2725 
Q 650 3050 650 3350 
Q 650 3675 625 3975 
L 2850 3975 
Q 2825 3675 2825 3350 
Q 2825 3050 2850 2725 
L 625 2725 
z
M 3000 4450 
Q 2650 4475 2175 4475 
L 1200 4475 
Q 625 4475 250 4450 
L 250 4875 
Q 550 4850 1125 4850 
L 2175 4850 
Q 2700 4850 3000 4875 
L 3000 4450 
z
M 2325 1675 
Q 2175 1475 2000 1025 
L 2325 1025 
L 2325 675 
L 1850 675 
L 1850 -125 
L 1425 -125 
L 1425 675 
L 1025 675 
L 1025 1025 
L 1700 1025 
Q 1875 1500 1925 1825 
Q 2100 1700 2325 1675 
z
M 5300 2125 
L 5300 3550 
L 4800 3550 
L 4800 2125 
L 5300 2125 
z
M 4350 2125 
L 4350 3550 
L 3850 3550 
L 3850 2125 
L 4350 2125 
z
M 2350 3100 
L 2350 3600 
L 1100 3600 
L 1100 3100 
L 2350 3100 
z
M 1575 1275 
Q 1400 1225 1225 1150 
Q 1150 1425 1025 1675 
L 1325 1825 
Q 1425 1550 1575 1275 
z
" transform="scale(0.015625)"/>
       <path id="SimHei-8d44" d="M 5300 2150 
Q 5275 1825 5275 1450 
Q 5275 1075 5300 575 
L 4800 575 
L 4800 1725 
L 1700 1725 
L 1700 425 
L 1200 425 
Q 1225 1000 1225 1375 
Q 1225 1775 1200 2150 
L 5300 2150 
z
M 4225 4075 
Q 4050 3775 4200 3562 
Q 4350 3350 4612 3162 
Q 4875 2975 5262 2850 
Q 5650 2725 6125 2700 
Q 5925 2425 5825 2175 
Q 5200 2300 4712 2550 
Q 4225 2800 3900 3350 
Q 3675 2775 3250 2550 
Q 2825 2325 2325 2175 
Q 2125 2400 1925 2575 
Q 2975 2775 3300 3175 
Q 3625 3575 3650 4150 
L 4225 4075 
z
M 3125 4250 
Q 2825 3850 2550 3650 
Q 2375 3825 2175 3950 
Q 2475 4150 2737 4487 
Q 3000 4825 3150 5200 
Q 3375 5100 3700 5050 
Q 3575 4825 3400 4650 
L 5750 4650 
Q 5675 4500 5300 3675 
Q 5000 3750 4800 3775 
Q 4925 4050 5025 4250 
L 3125 4250 
z
M 3525 1375 
Q 3400 1100 3337 825 
Q 3275 550 3012 262 
Q 2750 -25 2250 -275 
Q 1750 -525 800 -675 
Q 725 -425 500 -200 
Q 1225 -175 1712 -12 
Q 2200 150 2450 350 
Q 2700 550 2812 837 
Q 2925 1125 2925 1450 
Q 3225 1400 3525 1375 
z
M 3825 700 
Q 4300 525 4750 350 
Q 5200 175 5825 -100 
Q 5675 -300 5550 -600 
Q 5075 -325 4612 -125 
Q 4150 75 3625 250 
Q 3750 450 3825 700 
z
M 2075 3325 
Q 1450 2750 875 2050 
Q 625 2325 475 2425 
Q 1275 3050 1725 3625 
Q 1850 3500 2075 3325 
z
M 1700 3975 
Q 1300 4275 625 4675 
Q 800 4850 925 5025 
Q 1150 4875 2000 4350 
Q 1850 4200 1700 3975 
z
" transform="scale(0.015625)"/>
       <path id="SimHei-4f59" d="M 3850 3050 
Q 4150 3050 4525 3075 
L 4525 2600 
Q 4225 2625 3850 2625 
L 3450 2625 
L 3450 1825 
L 4475 1825 
Q 5050 1825 5375 1850 
L 5375 1350 
Q 5025 1375 4500 1375 
L 3450 1375 
L 3450 -75 
Q 3450 -450 3187 -525 
Q 2925 -600 2550 -650 
Q 2525 -425 2350 -50 
Q 2825 -75 2887 -25 
Q 2950 25 2950 175 
L 2950 1375 
L 1800 1375 
Q 1225 1375 900 1350 
L 900 1850 
Q 1200 1825 1800 1825 
L 2950 1825 
L 2950 2625 
L 2550 2625 
Q 2325 2625 1825 2600 
L 1825 3075 
Q 2225 3050 2525 3050 
L 3850 3050 
z
M 3400 4850 
Q 4450 3575 6150 3300 
Q 5925 3150 5750 2700 
Q 4150 3250 3100 4550 
Q 2375 3350 800 2400 
Q 450 2725 325 2800 
Q 1475 3325 2112 4100 
Q 2750 4875 2900 5275 
Q 3150 5175 3550 5050 
L 3400 4850 
z
M 2325 700 
Q 2075 500 1625 112 
Q 1175 -275 925 -450 
Q 725 -225 525 -50 
Q 1600 675 1900 1075 
Q 2100 875 2325 700 
z
M 4400 1175 
Q 4750 850 5025 550 
L 5600 0 
Q 5375 -175 5125 -400 
Q 4875 25 4050 850 
Q 4200 950 4400 1175 
z
" transform="scale(0.015625)"/>
       <path id="SimHei-989d" d="M 1925 3700 
Q 1725 3550 1550 3350 
L 2950 3350 
Q 2875 3150 2700 2875 
Q 2525 2600 2300 2300 
Q 2500 2200 2712 2075 
Q 2925 1950 3275 1725 
Q 3125 1575 2950 1325 
Q 2700 1525 2475 1662 
Q 2250 1800 1950 1950 
Q 1575 1650 1150 1375 
L 2800 1375 
Q 2775 950 2775 500 
Q 2775 50 2800 -450 
L 2325 -450 
L 2325 -50 
L 1325 -50 
L 1325 -575 
L 875 -575 
Q 900 -75 900 275 
L 900 1175 
Q 675 1075 550 1000 
Q 400 1225 225 1400 
Q 625 1550 975 1762 
Q 1325 1975 1550 2200 
Q 1300 2350 1075 2475 
Q 1175 2625 1350 2800 
Q 1625 2650 1925 2500 
Q 2150 2750 2300 3000 
L 1300 3000 
Q 1200 2875 1025 2687 
Q 850 2500 650 2275 
Q 475 2425 250 2575 
Q 650 2875 937 3237 
Q 1225 3600 1375 3925 
Q 1650 3800 1925 3700 
z
M 4150 4400 
Q 3775 4400 3375 4375 
L 3375 4825 
Q 3750 4800 4200 4800 
L 5300 4800 
Q 5600 4800 6000 4825 
L 6000 4375 
Q 5625 4400 5300 4400 
L 4950 4400 
Q 4850 3975 4725 3525 
L 5750 3525 
Q 5725 3125 5725 2775 
L 5725 1625 
Q 5725 1300 5750 825 
L 5300 825 
L 5300 3175 
L 3925 3175 
L 3925 800 
L 3450 800 
Q 3475 1275 3475 1650 
L 3475 2800 
Q 3475 3175 3450 3525 
L 4300 3525 
Q 4400 4025 4450 4400 
L 4150 4400 
z
M 2050 5100 
Q 2100 4825 2200 4475 
L 3225 4475 
Q 3200 4275 3200 4075 
Q 3200 3875 3225 3675 
L 2775 3675 
L 2775 4100 
L 875 4100 
L 875 3500 
L 400 3500 
Q 425 3775 425 4000 
Q 425 4250 400 4475 
L 1650 4475 
Q 1550 4750 1475 5000 
Q 1800 5050 2050 5100 
z
M 4925 2725 
Q 4850 2425 4837 2025 
Q 4825 1625 4712 1175 
Q 4600 725 4262 250 
Q 3925 -225 3250 -675 
Q 3050 -425 2850 -250 
Q 3375 -25 3687 262 
Q 4000 550 4162 937 
Q 4325 1325 4350 1750 
Q 4375 2175 4375 2775 
Q 4575 2750 4925 2725 
z
M 2325 325 
L 2325 1025 
L 1325 1025 
L 1325 325 
L 2325 325 
z
M 5075 800 
Q 5300 575 5487 400 
Q 5675 225 6025 -100 
Q 5800 -275 5600 -500 
Q 5450 -275 5275 -87 
Q 5100 100 4675 400 
Q 4875 575 5075 800 
z
" transform="scale(0.015625)"/>
      </defs>
      <use xlink:href="#SimHei-878d"/>
      <use xlink:href="#SimHei-8d44" transform="translate(100 0)"/>
      <use xlink:href="#SimHei-4f59" transform="translate(200 0)"/>
      <use xlink:href="#SimHei-989d" transform="translate(300 0)"/>
     </g>
    </g>
    <g id="line2d_40">
     <path d="M 38.2 58.547656 
L 48.2 58.547656 
L 58.2 58.547656 
" style="fill: none; stroke: #00bfbf; stroke-width: 2; stroke-linecap: square"/>
    </g>
    <g id="text_21">
     <!-- 汇率 -->
     <g style="fill: #c9d1d9" transform="translate(66.2 62.047656) scale(0.1 -0.1)">
      <defs>
       <path id="SimHei-6c47" d="M 4700 4675 
Q 5200 4675 5775 4700 
L 5775 4225 
Q 5200 4250 4700 4250 
L 2950 4250 
L 2950 100 
L 4850 100 
Q 5375 100 5950 125 
L 5950 -375 
Q 5375 -350 4950 -350 
L 2450 -350 
Q 2475 400 2475 825 
L 2475 3625 
Q 2475 4200 2450 4675 
L 4700 4675 
z
M 2175 1550 
Q 1525 525 1300 175 
Q 1075 -175 825 -525 
Q 600 -275 375 -175 
Q 725 225 1062 675 
Q 1400 1125 1800 1900 
Q 1925 1750 2175 1550 
z
M 625 3425 
Q 1175 3150 1800 2750 
Q 1675 2625 1500 2300 
Q 975 2700 350 3000 
Q 475 3150 625 3425 
z
M 950 5050 
Q 1450 4725 2025 4275 
Q 1800 4050 1675 3875 
Q 1175 4350 650 4675 
Q 850 4900 950 5050 
z
" transform="scale(0.015625)"/>
       <path id="SimHei-7387" d="M 3325 5150 
Q 3425 4900 3550 4525 
L 4800 4525 
Q 5250 4525 5800 4550 
L 5800 4125 
Q 5250 4175 4775 4175 
L 2800 4175 
Q 2975 4050 3300 3900 
Q 3075 3750 2875 3537 
Q 2675 3325 2475 3125 
L 3275 3125 
Q 3575 3425 3775 3775 
Q 4000 3600 4275 3425 
Q 3950 3250 3600 2875 
Q 3250 2500 2625 2000 
L 3850 2100 
Q 3725 2250 3600 2425 
Q 3750 2475 4000 2650 
Q 4250 2350 4700 1700 
Q 4475 1625 4225 1450 
Q 4175 1600 4025 1775 
Q 3700 1750 3425 1750 
L 3425 1050 
L 5150 1050 
Q 5675 1050 6100 1075 
L 6100 650 
Q 5700 675 5125 675 
L 3425 675 
L 3425 175 
Q 3425 -300 3450 -625 
L 2900 -625 
Q 2925 -300 2925 175 
L 2925 675 
L 1325 675 
Q 825 675 325 650 
L 325 1075 
Q 825 1050 1350 1050 
L 2925 1050 
L 2925 1700 
Q 2700 1675 2475 1637 
Q 2250 1600 2025 1525 
Q 1950 1775 1850 2000 
Q 2075 2025 2325 2200 
Q 2575 2375 2975 2800 
Q 2300 2725 2025 2625 
Q 1975 2875 1850 3175 
Q 2075 3175 2325 3487 
Q 2575 3800 2750 4175 
L 1700 4175 
Q 1150 4175 650 4125 
L 650 4550 
Q 1150 4525 1550 4525 
L 2975 4525 
Q 2900 4825 2800 5025 
Q 3025 5075 3325 5150 
z
M 1625 2575 
Q 1725 2400 1825 2200 
Q 1575 2050 1325 1862 
Q 1075 1675 800 1425 
Q 625 1675 475 1875 
Q 800 2025 1100 2212 
Q 1400 2400 1625 2575 
z
M 4850 2650 
Q 5125 2475 5337 2337 
Q 5550 2200 5875 1950 
Q 5675 1800 5500 1600 
Q 5300 1775 5062 1975 
Q 4825 2175 4575 2325 
Q 4725 2475 4850 2650 
z
M 5725 3525 
Q 5550 3450 5300 3262 
Q 5050 3075 4800 2825 
Q 4625 3050 4475 3175 
Q 4700 3325 4875 3487 
Q 5050 3650 5300 3925 
Q 5525 3700 5725 3525 
z
M 1050 3850 
Q 1425 3600 1775 3275 
Q 1575 3100 1425 2925 
Q 1075 3300 675 3525 
Q 875 3700 1050 3850 
z
" transform="scale(0.015625)"/>
      </defs>
      <use xlink:href="#SimHei-6c47"/>
      <use xlink:href="#SimHei-7387" transform="translate(100 0)"/>
     </g>
    </g>
    <g id="line2d_41">
     <path d="M 38.2 72.883594 
L 48.2 72.883594 
L 58.2 72.883594 
" style="fill: none; stroke: #ffffff; stroke-width: 2; stroke-linecap: square"/>
    </g>
    <g id="text_22">
     <!-- 中美国债利差 -->
     <g style="fill: #c9d1d9" transform="translate(66.2 76.383594) scale(0.1 -0.1)">
      <defs>
       <path id="SimHei-4e2d" d="M 3475 5200 
Q 3450 4500 3450 3875 
L 5625 3875 
Q 5600 3375 5600 2500 
Q 5600 1650 5625 1225 
L 5075 1225 
L 5075 1600 
L 3450 1600 
L 3450 525 
Q 3450 225 3475 -600 
L 2875 -600 
Q 2925 -150 2925 450 
L 2925 1600 
L 1300 1600 
L 1300 1225 
L 750 1225 
Q 775 1600 775 2500 
Q 775 3425 750 3875 
L 2925 3875 
Q 2925 4550 2900 5200 
L 3475 5200 
z
M 5075 2000 
L 5075 3475 
L 3450 3475 
L 3450 2000 
L 5075 2000 
z
M 2925 2000 
L 2925 3475 
L 1300 3475 
L 1300 2000 
L 2925 2000 
z
" transform="scale(0.015625)"/>
       <path id="SimHei-7f8e" d="M 4650 5000 
Q 4525 4900 4150 4350 
L 4800 4350 
Q 5300 4350 5575 4375 
L 5575 3950 
Q 5300 3975 4800 3975 
L 3450 3975 
L 3450 3375 
L 4475 3375 
Q 4875 3375 5250 3400 
L 5250 3000 
Q 4875 3025 4475 3025 
L 3450 3025 
L 3450 2450 
L 5025 2450 
Q 5500 2450 5900 2475 
L 5900 2050 
Q 5525 2075 5025 2075 
L 1425 2075 
Q 900 2075 525 2050 
L 525 2475 
Q 900 2450 1425 2450 
L 3000 2450 
L 3000 3025 
L 2050 3025 
Q 1625 3025 1200 3000 
L 1200 3400 
Q 1625 3375 2050 3375 
L 3000 3375 
L 3000 3975 
L 1725 3975 
Q 1325 3975 850 3950 
L 850 4375 
Q 1325 4350 1725 4350 
L 2250 4350 
Q 2100 4625 1800 4975 
Q 2000 5100 2175 5225 
L 2700 4550 
Q 2475 4450 2325 4350 
L 3675 4350 
Q 3900 4700 4150 5275 
Q 4350 5125 4650 5000 
z
M 525 -225 
Q 950 -175 1425 -25 
Q 1900 125 2275 412 
Q 2650 700 2800 1050 
L 1875 1050 
Q 1325 1050 725 1025 
L 725 1450 
Q 1325 1425 1875 1425 
L 2900 1425 
Q 2925 1750 2925 1975 
Q 3250 1875 3500 1875 
Q 3425 1650 3375 1425 
L 4600 1425 
Q 5250 1425 5725 1450 
L 5725 1025 
Q 5250 1050 4625 1050 
L 3600 1050 
Q 3900 700 4187 500 
Q 4475 300 4700 200 
Q 4925 100 5225 12 
Q 5525 -75 6050 -150 
Q 5900 -375 5750 -675 
Q 5175 -550 4775 -362 
Q 4375 -175 3962 137 
Q 3550 450 3225 900 
Q 3000 525 2787 300 
Q 2575 75 2250 -125 
Q 1925 -325 1575 -462 
Q 1225 -600 825 -700 
Q 750 -475 525 -225 
z
" transform="scale(0.015625)"/>
       <path id="SimHei-56fd" d="M 5775 4975 
Q 5750 4350 5750 3575 
L 5750 900 
Q 5750 125 5775 -625 
L 5275 -625 
L 5275 -275 
L 1125 -275 
L 1125 -650 
L 625 -650 
Q 650 125 650 950 
L 650 3575 
Q 650 4325 625 4975 
L 5775 4975 
z
M 5275 100 
L 5275 4600 
L 1125 4600 
L 1125 100 
L 5275 100 
z
M 3975 3925 
Q 4350 3925 4775 3950 
L 4775 3500 
Q 4400 3525 3975 3525 
L 3350 3525 
L 3350 2700 
L 3800 2700 
Q 4250 2700 4650 2725 
L 4650 2275 
Q 4250 2300 3800 2300 
L 3350 2300 
L 3350 1175 
L 4050 1175 
Q 4500 1175 4900 1200 
L 4900 750 
Q 4525 775 4050 775 
L 2350 775 
Q 1925 775 1500 750 
L 1500 1200 
Q 1925 1175 2350 1175 
L 2900 1175 
L 2900 2300 
L 2550 2300 
Q 2125 2300 1750 2275 
L 1750 2725 
Q 2125 2700 2550 2700 
L 2900 2700 
L 2900 3525 
L 2525 3525 
Q 2075 3525 1650 3500 
L 1650 3950 
Q 2075 3925 2525 3925 
L 3975 3925 
z
M 4050 2125 
Q 4175 2000 4550 1600 
Q 4300 1450 4125 1325 
Q 4050 1425 3700 1850 
Q 3900 2000 4050 2125 
z
" transform="scale(0.015625)"/>
       <path id="SimHei-503a" d="M 3750 4600 
Q 3750 4900 3725 5200 
L 4275 5200 
Q 4250 4875 4250 4600 
L 5000 4600 
Q 5550 4600 5800 4625 
L 5800 4200 
Q 5525 4225 5000 4225 
L 4250 4225 
L 4250 3850 
L 4875 3850 
Q 5250 3850 5625 3875 
L 5625 3450 
Q 5325 3475 4875 3475 
L 4250 3475 
L 4250 3100 
L 5150 3100 
Q 5725 3100 6050 3125 
L 6050 2700 
Q 5675 2725 5150 2725 
L 2875 2725 
Q 2400 2725 2000 2700 
L 2000 3125 
Q 2375 3100 2850 3100 
L 3750 3100 
L 3750 3475 
L 3325 3475 
Q 2850 3475 2500 3450 
L 2500 3875 
Q 2850 3850 3300 3850 
L 3750 3850 
L 3750 4225 
L 3225 4225 
Q 2675 4225 2300 4200 
L 2300 4625 
Q 2650 4600 3125 4600 
L 3750 4600 
z
M 250 2600 
Q 500 2875 887 3550 
Q 1275 4225 1500 5075 
Q 1750 4950 2100 4850 
Q 1900 4625 1550 3775 
L 1550 800 
Q 1550 -25 1575 -500 
L 1050 -500 
Q 1075 0 1075 825 
L 1075 2950 
Q 775 2450 625 2225 
L 250 2600 
z
M 5650 2300 
Q 5625 2100 5625 1550 
Q 5625 1025 5650 775 
L 5150 775 
L 5150 1925 
L 2975 1925 
L 2975 700 
L 2475 700 
Q 2500 1075 2500 1550 
Q 2500 2050 2475 2300 
L 5650 2300 
z
M 1950 -150 
Q 3250 25 3562 562 
Q 3875 1100 3800 1650 
L 4350 1600 
Q 4275 600 3825 112 
Q 3375 -375 2250 -600 
Q 2125 -350 1950 -150 
z
M 4675 675 
Q 5075 475 5412 300 
Q 5750 125 6050 -75 
Q 5900 -250 5750 -525 
Q 4875 125 4400 300 
Q 4525 500 4675 675 
z
" transform="scale(0.015625)"/>
       <path id="SimHei-5229" d="M 2400 2650 
Q 2950 2150 3500 1525 
Q 3325 1375 3125 1150 
Q 2775 1675 2400 2075 
L 2400 225 
Q 2400 -375 2425 -675 
L 1875 -675 
Q 1900 -350 1900 225 
L 1900 1975 
Q 1625 1450 1375 1100 
Q 1125 750 725 275 
Q 575 525 300 700 
Q 850 1150 1287 1837 
Q 1725 2525 1850 2950 
L 1375 2950 
Q 775 2950 500 2925 
L 500 3400 
Q 800 3375 1375 3375 
L 1900 3375 
L 1900 4350 
Q 1400 4250 825 4150 
Q 750 4400 625 4625 
Q 1050 4650 1800 4800 
Q 2550 4950 3225 5175 
Q 3350 4875 3550 4650 
Q 3050 4575 2400 4450 
L 2400 3375 
L 2825 3375 
Q 3350 3375 3750 3400 
L 3750 2925 
Q 3350 2950 2850 2950 
L 2400 2950 
L 2400 2650 
z
M 5775 5125 
Q 5750 4875 5750 4275 
L 5750 -100 
Q 5750 -400 5512 -487 
Q 5275 -575 4675 -675 
Q 4600 -300 4500 -75 
Q 5025 -100 5137 -50 
Q 5250 0 5250 150 
L 5250 4300 
Q 5250 4650 5225 5125 
L 5775 5125 
z
M 4625 4100 
Q 4600 3800 4600 3300 
L 4600 1725 
Q 4600 1200 4625 825 
L 4075 825 
Q 4100 1275 4100 1725 
L 4100 3300 
Q 4100 3700 4075 4100 
L 4625 4100 
z
" transform="scale(0.015625)"/>
       <path id="SimHei-5dee" d="M 4725 4975 
Q 4500 4725 4250 4275 
L 4850 4275 
Q 5450 4275 5825 4300 
L 5825 3850 
Q 5425 3875 4850 3875 
L 3275 3875 
Q 3225 3600 3150 3275 
L 4525 3275 
Q 5075 3275 5525 3300 
L 5525 2850 
Q 5075 2875 4500 2875 
L 3050 2875 
Q 2975 2650 2850 2325 
L 5125 2325 
Q 5675 2325 6025 2350 
L 6025 1900 
Q 5700 1925 5150 1925 
L 2650 1925 
Q 2425 1550 2250 1300 
Q 2650 1275 3100 1275 
L 4525 1275 
Q 4975 1275 5350 1300 
L 5350 850 
Q 4975 875 4575 875 
L 3925 875 
L 3925 -50 
L 5000 -50 
Q 5200 -50 5900 -25 
L 5900 -500 
Q 5275 -475 5025 -475 
L 2100 -475 
Q 1700 -475 1400 -500 
L 1400 -25 
Q 1775 -50 2125 -50 
L 3425 -50 
L 3425 875 
L 3100 875 
Q 2625 875 2175 850 
L 2175 1200 
Q 1925 875 1487 475 
Q 1050 75 625 -250 
Q 425 -25 200 150 
Q 750 475 1262 925 
Q 1775 1375 2100 1925 
L 1325 1925 
Q 750 1925 375 1900 
L 375 2350 
Q 750 2325 1350 2325 
L 2325 2325 
Q 2450 2575 2550 2875 
L 1725 2875 
Q 1375 2875 1000 2850 
L 1000 3300 
Q 1500 3275 1700 3275 
L 2650 3275 
Q 2725 3575 2775 3875 
L 1500 3875 
Q 1100 3875 650 3850 
L 650 4300 
Q 1025 4275 1425 4275 
L 2275 4275 
Q 2075 4675 1850 4950 
Q 2025 5050 2250 5225 
Q 2450 4975 2725 4550 
Q 2525 4450 2325 4275 
L 3750 4275 
Q 4000 4700 4150 5250 
Q 4400 5100 4725 4975 
z
" transform="scale(0.015625)"/>
      </defs>
      <use xlink:href="#SimHei-4e2d"/>
      <use xlink:href="#SimHei-7f8e" transform="translate(100 0)"/>
      <use xlink:href="#SimHei-56fd" transform="translate(200 0)"/>
      <use xlink:href="#SimHei-503a" transform="translate(300 0)"/>
      <use xlink:href="#SimHei-5229" transform="translate(400 0)"/>
      <use xlink:href="#SimHei-5dee" transform="translate(500 0)"/>
     </g>
    </g>
    <g id="line2d_42">
     <path d="M 38.2 86.133594 
L 48.2 86.133594 
L 58.2 86.133594 
" style="fill: none; stroke: #ff0000; stroke-width: 2; stroke-linecap: square"/>
    </g>
    <g id="text_23">
     <!-- 500ETF -->
     <g style="fill: #c9d1d9" transform="translate(66.2 89.633594) scale(0.1 -0.1)">
      <defs>
       <path id="SimHei-45" d="M 2900 125 
L 350 125 
L 350 4400 
L 2775 4400 
L 2775 3925 
L 925 3925 
L 925 2600 
L 2625 2600 
L 2625 2125 
L 925 2125 
L 925 600 
L 2900 600 
L 2900 125 
z
" transform="scale(0.015625)"/>
       <path id="SimHei-54" d="M 2850 3925 
L 1850 3925 
L 1850 125 
L 1275 125 
L 1275 3925 
L 275 3925 
L 275 4400 
L 2850 4400 
L 2850 3925 
z
" transform="scale(0.015625)"/>
       <path id="SimHei-46" d="M 2925 3925 
L 875 3925 
L 875 2525 
L 2425 2525 
L 2425 2050 
L 875 2050 
L 875 125 
L 300 125 
L 300 4400 
L 2925 4400 
L 2925 3925 
z
" transform="scale(0.015625)"/>
      </defs>
      <use xlink:href="#SimHei-35"/>
      <use xlink:href="#SimHei-30" transform="translate(50 0)"/>
      <use xlink:href="#SimHei-30" transform="translate(100 0)"/>
      <use xlink:href="#SimHei-45" transform="translate(150 0)"/>
      <use xlink:href="#SimHei-54" transform="translate(200 0)"/>
      <use xlink:href="#SimHei-46" transform="translate(250 0)"/>
     </g>
    </g>
   </g>
  </g>
 </g>
 <defs>
  <clipPath id="pe3d74c7692">
   <rect x="29.2" y="30.977344" width="1025.28" height="525.6"/>
  </clipPath>
 </defs>
</svg>
