<?xml version="1.0" encoding="utf-8" standalone="no"?>
<!DOCTYPE svg PUBLIC "-//W3C//DTD SVG 1.1//EN"
  "http://www.w3.org/Graphics/SVG/1.1/DTD/svg11.dtd">
<svg xmlns:xlink="http://www.w3.org/1999/xlink" width="1061.68pt" height="595.3138pt" viewBox="0 0 1061.68 595.3138" xmlns="http://www.w3.org/2000/svg" version="1.1">
 <metadata>
  <rdf:RDF xmlns:dc="http://purl.org/dc/elements/1.1/" xmlns:cc="http://creativecommons.org/ns#" xmlns:rdf="http://www.w3.org/1999/02/22-rdf-syntax-ns#">
   <cc:Work>
    <dc:type rdf:resource="http://purl.org/dc/dcmitype/StillImage"/>
    <dc:date>2026-07-14T22:29:20.448668</dc:date>
    <dc:format>image/svg+xml</dc:format>
    <dc:creator>
     <cc:Agent>
      <dc:title>Matplotlib v3.10.9, https://matplotlib.org/</dc:title>
     </cc:Agent>
    </dc:creator>
   </cc:Work>
  </rdf:RDF>
 </metadata>
 <defs>
  <style type="text/css">*{stroke-linejoin: round; stroke-linecap: butt}</style>
 </defs>
 <g id="figure_1">
  <g id="patch_1">
   <path d="M 0 595.3138 
L 1061.68 595.3138 
L 1061.68 0 
L 0 0 
z
" style="fill: #0d1117"/>
  </g>
  <g id="axes_1">
   <g id="patch_2">
    <path d="M 29.2 556.577344 
L 1054.48 556.577344 
L 1054.48 30.977344 
L 29.2 30.977344 
z
" style="fill: #161b22"/>
   </g>
   <g id="matplotlib.axis_1">
    <g id="xtick_1">
     <g id="line2d_1">
      <path d="M 51.593955 556.577344 
L 51.593955 30.977344 
" clip-path="url(#p944b2e05aa)" style="fill: none; stroke-dasharray: 2.96,1.28; stroke-dashoffset: 0; stroke: #21262d; stroke-opacity: 0.4; stroke-width: 0.8"/>
     </g>
     <g id="line2d_2">
      <defs>
       <path id="mad25624cdb" d="M 0 0 
L 0 3.5 
" style="stroke: #c9d1d9; stroke-width: 0.8"/>
      </defs>
      <g>
       <use xlink:href="#mad25624cdb" x="51.593955" y="556.577344" style="fill: #c9d1d9; stroke: #c9d1d9; stroke-width: 0.8"/>
      </g>
     </g>
     <g id="text_1">
      <!-- 2025-09 -->
      <g style="fill: #c9d1d9" transform="translate(20.658066 587.031268) rotate(-30) scale(0.1 -0.1)">
       <defs>
        <path id="SimHei-32" d="M 300 250 
Q 325 625 650 925 
Q 975 1225 1475 1862 
Q 1975 2500 2125 2850 
Q 2275 3200 2237 3450 
Q 2200 3700 2000 3862 
Q 1800 4025 1537 4000 
Q 1275 3975 1037 3800 
Q 800 3625 675 3275 
L 200 3350 
Q 400 3925 712 4187 
Q 1025 4450 1450 4475 
Q 1700 4500 1900 4462 
Q 2100 4425 2312 4287 
Q 2525 4150 2662 3875 
Q 2800 3600 2762 3212 
Q 2725 2825 2375 2287 
Q 2025 1750 1025 600 
L 2825 600 
L 2825 150 
L 300 150 
L 300 250 
z
" transform="scale(0.015625)"/>
        <path id="SimHei-30" d="M 225 2537 
Q 250 3200 412 3587 
Q 575 3975 875 4225 
Q 1175 4475 1612 4475 
Q 2050 4475 2375 4112 
Q 2700 3750 2800 3200 
Q 2900 2650 2862 1937 
Q 2825 1225 2612 775 
Q 2400 325 1975 150 
Q 1550 -25 1125 187 
Q 700 400 525 750 
Q 350 1100 275 1487 
Q 200 1875 225 2537 
z
M 750 2687 
Q 675 2000 800 1462 
Q 925 925 1212 700 
Q 1500 475 1800 612 
Q 2100 750 2237 1162 
Q 2375 1575 2375 2062 
Q 2375 2550 2337 2950 
Q 2300 3350 2112 3675 
Q 1925 4000 1612 4012 
Q 1300 4025 1062 3700 
Q 825 3375 750 2687 
z
" transform="scale(0.015625)"/>
        <path id="SimHei-35" d="M 550 1325 
Q 725 650 1150 575 
Q 1575 500 1837 662 
Q 2100 825 2212 1087 
Q 2325 1350 2312 1675 
Q 2300 2000 2137 2225 
Q 1975 2450 1725 2525 
Q 1475 2600 1162 2525 
Q 850 2450 650 2175 
L 225 2225 
Q 275 2375 700 4375 
L 2675 4375 
L 2675 3925 
L 1075 3925 
Q 950 3250 825 2850 
Q 1200 3025 1525 3012 
Q 1850 3000 2150 2862 
Q 2450 2725 2587 2487 
Q 2725 2250 2787 2012 
Q 2850 1775 2837 1500 
Q 2825 1225 2725 937 
Q 2625 650 2425 462 
Q 2225 275 1937 162 
Q 1650 50 1275 75 
Q 900 100 562 350 
Q 225 600 100 1200 
L 550 1325 
z
" transform="scale(0.015625)"/>
        <path id="SimHei-2d" d="M 2975 2125 
L 125 2125 
L 125 2525 
L 2975 2525 
L 2975 2125 
z
" transform="scale(0.015625)"/>
        <path id="SimHei-39" d="M 800 75 
Q 1350 1000 1700 1750 
Q 1075 1650 662 1912 
Q 250 2175 162 2625 
Q 75 3075 175 3437 
Q 275 3800 487 4037 
Q 700 4275 1000 4375 
Q 1300 4475 1537 4475 
Q 1775 4475 2025 4375 
Q 2275 4275 2475 4075 
Q 2675 3875 2750 3662 
Q 2825 3450 2825 3112 
Q 2825 2775 2575 2250 
Q 2325 1725 1350 75 
L 800 75 
z
M 662 2875 
Q 700 2550 937 2337 
Q 1175 2125 1450 2150 
Q 1725 2175 1887 2300 
Q 2050 2425 2200 2725 
Q 2300 3100 2250 3362 
Q 2200 3625 1987 3800 
Q 1775 3975 1525 3975 
Q 1375 4000 1137 3900 
Q 900 3800 762 3500 
Q 625 3200 662 2875 
z
" transform="scale(0.015625)"/>
       </defs>
       <use xlink:href="#SimHei-32"/>
       <use xlink:href="#SimHei-30" transform="translate(50 0)"/>
       <use xlink:href="#SimHei-32" transform="translate(100 0)"/>
       <use xlink:href="#SimHei-35" transform="translate(150 0)"/>
       <use xlink:href="#SimHei-2d" transform="translate(200 0)"/>
       <use xlink:href="#SimHei-30" transform="translate(250 0)"/>
       <use xlink:href="#SimHei-39" transform="translate(300 0)"/>
      </g>
     </g>
    </g>
    <g id="xtick_2">
     <g id="line2d_3">
      <path d="M 142.38026 556.577344 
L 142.38026 30.977344 
" clip-path="url(#p944b2e05aa)" style="fill: none; stroke-dasharray: 2.96,1.28; stroke-dashoffset: 0; stroke: #21262d; stroke-opacity: 0.4; stroke-width: 0.8"/>
     </g>
     <g id="line2d_4">
      <g>
       <use xlink:href="#mad25624cdb" x="142.38026" y="556.577344" style="fill: #c9d1d9; stroke: #c9d1d9; stroke-width: 0.8"/>
      </g>
     </g>
     <g id="text_2">
      <!-- 2025-10 -->
      <g style="fill: #c9d1d9" transform="translate(111.444371 587.031268) rotate(-30) scale(0.1 -0.1)">
       <defs>
        <path id="SimHei-31" d="M 1400 3600 
Q 1075 3275 575 2975 
L 575 3450 
Q 1200 3875 1600 4450 
L 1900 4450 
L 1900 150 
L 1400 150 
L 1400 3600 
z
" transform="scale(0.015625)"/>
       </defs>
       <use xlink:href="#SimHei-32"/>
       <use xlink:href="#SimHei-30" transform="translate(50 0)"/>
       <use xlink:href="#SimHei-32" transform="translate(100 0)"/>
       <use xlink:href="#SimHei-35" transform="translate(150 0)"/>
       <use xlink:href="#SimHei-2d" transform="translate(200 0)"/>
       <use xlink:href="#SimHei-31" transform="translate(250 0)"/>
       <use xlink:href="#SimHei-30" transform="translate(300 0)"/>
      </g>
     </g>
    </g>
    <g id="xtick_3">
     <g id="line2d_5">
      <path d="M 236.192774 556.577344 
L 236.192774 30.977344 
" clip-path="url(#p944b2e05aa)" style="fill: none; stroke-dasharray: 2.96,1.28; stroke-dashoffset: 0; stroke: #21262d; stroke-opacity: 0.4; stroke-width: 0.8"/>
     </g>
     <g id="line2d_6">
      <g>
       <use xlink:href="#mad25624cdb" x="236.192774" y="556.577344" style="fill: #c9d1d9; stroke: #c9d1d9; stroke-width: 0.8"/>
      </g>
     </g>
     <g id="text_3">
      <!-- 2025-11 -->
      <g style="fill: #c9d1d9" transform="translate(205.256885 587.031268) rotate(-30) scale(0.1 -0.1)">
       <use xlink:href="#SimHei-32"/>
       <use xlink:href="#SimHei-30" transform="translate(50 0)"/>
       <use xlink:href="#SimHei-32" transform="translate(100 0)"/>
       <use xlink:href="#SimHei-35" transform="translate(150 0)"/>
       <use xlink:href="#SimHei-2d" transform="translate(200 0)"/>
       <use xlink:href="#SimHei-31" transform="translate(250 0)"/>
       <use xlink:href="#SimHei-31" transform="translate(300 0)"/>
      </g>
     </g>
    </g>
    <g id="xtick_4">
     <g id="line2d_7">
      <path d="M 326.979079 556.577344 
L 326.979079 30.977344 
" clip-path="url(#p944b2e05aa)" style="fill: none; stroke-dasharray: 2.96,1.28; stroke-dashoffset: 0; stroke: #21262d; stroke-opacity: 0.4; stroke-width: 0.8"/>
     </g>
     <g id="line2d_8">
      <g>
       <use xlink:href="#mad25624cdb" x="326.979079" y="556.577344" style="fill: #c9d1d9; stroke: #c9d1d9; stroke-width: 0.8"/>
      </g>
     </g>
     <g id="text_4">
      <!-- 2025-12 -->
      <g style="fill: #c9d1d9" transform="translate(296.04319 587.031268) rotate(-30) scale(0.1 -0.1)">
       <use xlink:href="#SimHei-32"/>
       <use xlink:href="#SimHei-30" transform="translate(50 0)"/>
       <use xlink:href="#SimHei-32" transform="translate(100 0)"/>
       <use xlink:href="#SimHei-35" transform="translate(150 0)"/>
       <use xlink:href="#SimHei-2d" transform="translate(200 0)"/>
       <use xlink:href="#SimHei-31" transform="translate(250 0)"/>
       <use xlink:href="#SimHei-32" transform="translate(300 0)"/>
      </g>
     </g>
    </g>
    <g id="xtick_5">
     <g id="line2d_9">
      <path d="M 420.791594 556.577344 
L 420.791594 30.977344 
" clip-path="url(#p944b2e05aa)" style="fill: none; stroke-dasharray: 2.96,1.28; stroke-dashoffset: 0; stroke: #21262d; stroke-opacity: 0.4; stroke-width: 0.8"/>
     </g>
     <g id="line2d_10">
      <g>
       <use xlink:href="#mad25624cdb" x="420.791594" y="556.577344" style="fill: #c9d1d9; stroke: #c9d1d9; stroke-width: 0.8"/>
      </g>
     </g>
     <g id="text_5">
      <!-- 2026-01 -->
      <g style="fill: #c9d1d9" transform="translate(389.855705 587.031268) rotate(-30) scale(0.1 -0.1)">
       <defs>
        <path id="SimHei-36" d="M 250 1612 
Q 275 1975 387 2225 
Q 500 2475 725 2850 
L 1750 4450 
L 2325 4450 
L 1275 2800 
Q 1950 2975 2350 2750 
Q 2750 2525 2887 2237 
Q 3025 1950 3037 1612 
Q 3050 1275 2937 950 
Q 2825 625 2537 362 
Q 2250 100 1737 75 
Q 1225 50 862 262 
Q 500 475 362 862 
Q 225 1250 250 1612 
z
M 1025 787 
Q 1250 550 1625 525 
Q 2000 500 2250 775 
Q 2500 1050 2500 1575 
Q 2500 2100 2187 2300 
Q 1875 2500 1487 2450 
Q 1100 2400 925 2075 
Q 750 1750 775 1387 
Q 800 1025 1025 787 
z
" transform="scale(0.015625)"/>
       </defs>
       <use xlink:href="#SimHei-32"/>
       <use xlink:href="#SimHei-30" transform="translate(50 0)"/>
       <use xlink:href="#SimHei-32" transform="translate(100 0)"/>
       <use xlink:href="#SimHei-36" transform="translate(150 0)"/>
       <use xlink:href="#SimHei-2d" transform="translate(200 0)"/>
       <use xlink:href="#SimHei-30" transform="translate(250 0)"/>
       <use xlink:href="#SimHei-31" transform="translate(300 0)"/>
      </g>
     </g>
    </g>
    <g id="xtick_6">
     <g id="line2d_11">
      <path d="M 514.604109 556.577344 
L 514.604109 30.977344 
" clip-path="url(#p944b2e05aa)" style="fill: none; stroke-dasharray: 2.96,1.28; stroke-dashoffset: 0; stroke: #21262d; stroke-opacity: 0.4; stroke-width: 0.8"/>
     </g>
     <g id="line2d_12">
      <g>
       <use xlink:href="#mad25624cdb" x="514.604109" y="556.577344" style="fill: #c9d1d9; stroke: #c9d1d9; stroke-width: 0.8"/>
      </g>
     </g>
     <g id="text_6">
      <!-- 2026-02 -->
      <g style="fill: #c9d1d9" transform="translate(483.668219 587.031268) rotate(-30) scale(0.1 -0.1)">
       <use xlink:href="#SimHei-32"/>
       <use xlink:href="#SimHei-30" transform="translate(50 0)"/>
       <use xlink:href="#SimHei-32" transform="translate(100 0)"/>
       <use xlink:href="#SimHei-36" transform="translate(150 0)"/>
       <use xlink:href="#SimHei-2d" transform="translate(200 0)"/>
       <use xlink:href="#SimHei-30" transform="translate(250 0)"/>
       <use xlink:href="#SimHei-32" transform="translate(300 0)"/>
      </g>
     </g>
    </g>
    <g id="xtick_7">
     <g id="line2d_13">
      <path d="M 599.337993 556.577344 
L 599.337993 30.977344 
" clip-path="url(#p944b2e05aa)" style="fill: none; stroke-dasharray: 2.96,1.28; stroke-dashoffset: 0; stroke: #21262d; stroke-opacity: 0.4; stroke-width: 0.8"/>
     </g>
     <g id="line2d_14">
      <g>
       <use xlink:href="#mad25624cdb" x="599.337993" y="556.577344" style="fill: #c9d1d9; stroke: #c9d1d9; stroke-width: 0.8"/>
      </g>
     </g>
     <g id="text_7">
      <!-- 2026-03 -->
      <g style="fill: #c9d1d9" transform="translate(568.402104 587.031268) rotate(-30) scale(0.1 -0.1)">
       <defs>
        <path id="SimHei-33" d="M 250 1225 
L 700 1300 
Q 800 975 1025 762 
Q 1250 550 1587 562 
Q 1925 575 2125 837 
Q 2325 1100 2300 1437 
Q 2275 1775 2037 1962 
Q 1800 2150 1275 2225 
L 1275 2550 
Q 1800 2600 2037 2825 
Q 2275 3050 2250 3412 
Q 2225 3775 1925 3937 
Q 1625 4100 1287 3975 
Q 950 3850 750 3275 
L 300 3350 
Q 450 3800 712 4100 
Q 975 4400 1425 4450 
Q 1875 4500 2212 4337 
Q 2550 4175 2687 3837 
Q 2825 3500 2725 3100 
Q 2625 2700 2150 2400 
Q 2500 2250 2687 1950 
Q 2875 1650 2812 1162 
Q 2750 675 2375 375 
Q 2000 75 1525 87 
Q 1050 100 700 387 
Q 350 675 250 1225 
z
" transform="scale(0.015625)"/>
       </defs>
       <use xlink:href="#SimHei-32"/>
       <use xlink:href="#SimHei-30" transform="translate(50 0)"/>
       <use xlink:href="#SimHei-32" transform="translate(100 0)"/>
       <use xlink:href="#SimHei-36" transform="translate(150 0)"/>
       <use xlink:href="#SimHei-2d" transform="translate(200 0)"/>
       <use xlink:href="#SimHei-30" transform="translate(250 0)"/>
       <use xlink:href="#SimHei-33" transform="translate(300 0)"/>
      </g>
     </g>
    </g>
    <g id="xtick_8">
     <g id="line2d_15">
      <path d="M 693.150508 556.577344 
L 693.150508 30.977344 
" clip-path="url(#p944b2e05aa)" style="fill: none; stroke-dasharray: 2.96,1.28; stroke-dashoffset: 0; stroke: #21262d; stroke-opacity: 0.4; stroke-width: 0.8"/>
     </g>
     <g id="line2d_16">
      <g>
       <use xlink:href="#mad25624cdb" x="693.150508" y="556.577344" style="fill: #c9d1d9; stroke: #c9d1d9; stroke-width: 0.8"/>
      </g>
     </g>
     <g id="text_8">
      <!-- 2026-04 -->
      <g style="fill: #c9d1d9" transform="translate(662.214619 587.031268) rotate(-30) scale(0.1 -0.1)">
       <defs>
        <path id="SimHei-34" d="M 2000 1100 
L 75 1100 
L 75 1525 
L 2100 4450 
L 2475 4450 
L 2475 1525 
L 3075 1525 
L 3075 1100 
L 2475 1100 
L 2475 150 
L 2000 150 
L 2000 1100 
z
M 2000 1525 
L 2000 3500 
L 600 1525 
L 2000 1525 
z
" transform="scale(0.015625)"/>
       </defs>
       <use xlink:href="#SimHei-32"/>
       <use xlink:href="#SimHei-30" transform="translate(50 0)"/>
       <use xlink:href="#SimHei-32" transform="translate(100 0)"/>
       <use xlink:href="#SimHei-36" transform="translate(150 0)"/>
       <use xlink:href="#SimHei-2d" transform="translate(200 0)"/>
       <use xlink:href="#SimHei-30" transform="translate(250 0)"/>
       <use xlink:href="#SimHei-34" transform="translate(300 0)"/>
      </g>
     </g>
    </g>
    <g id="xtick_9">
     <g id="line2d_17">
      <path d="M 783.936812 556.577344 
L 783.936812 30.977344 
" clip-path="url(#p944b2e05aa)" style="fill: none; stroke-dasharray: 2.96,1.28; stroke-dashoffset: 0; stroke: #21262d; stroke-opacity: 0.4; stroke-width: 0.8"/>
     </g>
     <g id="line2d_18">
      <g>
       <use xlink:href="#mad25624cdb" x="783.936812" y="556.577344" style="fill: #c9d1d9; stroke: #c9d1d9; stroke-width: 0.8"/>
      </g>
     </g>
     <g id="text_9">
      <!-- 2026-05 -->
      <g style="fill: #c9d1d9" transform="translate(753.000923 587.031268) rotate(-30) scale(0.1 -0.1)">
       <use xlink:href="#SimHei-32"/>
       <use xlink:href="#SimHei-30" transform="translate(50 0)"/>
       <use xlink:href="#SimHei-32" transform="translate(100 0)"/>
       <use xlink:href="#SimHei-36" transform="translate(150 0)"/>
       <use xlink:href="#SimHei-2d" transform="translate(200 0)"/>
       <use xlink:href="#SimHei-30" transform="translate(250 0)"/>
       <use xlink:href="#SimHei-35" transform="translate(300 0)"/>
      </g>
     </g>
    </g>
    <g id="xtick_10">
     <g id="line2d_19">
      <path d="M 877.749327 556.577344 
L 877.749327 30.977344 
" clip-path="url(#p944b2e05aa)" style="fill: none; stroke-dasharray: 2.96,1.28; stroke-dashoffset: 0; stroke: #21262d; stroke-opacity: 0.4; stroke-width: 0.8"/>
     </g>
     <g id="line2d_20">
      <g>
       <use xlink:href="#mad25624cdb" x="877.749327" y="556.577344" style="fill: #c9d1d9; stroke: #c9d1d9; stroke-width: 0.8"/>
      </g>
     </g>
     <g id="text_10">
      <!-- 2026-06 -->
      <g style="fill: #c9d1d9" transform="translate(846.813438 587.031268) rotate(-30) scale(0.1 -0.1)">
       <use xlink:href="#SimHei-32"/>
       <use xlink:href="#SimHei-30" transform="translate(50 0)"/>
       <use xlink:href="#SimHei-32" transform="translate(100 0)"/>
       <use xlink:href="#SimHei-36" transform="translate(150 0)"/>
       <use xlink:href="#SimHei-2d" transform="translate(200 0)"/>
       <use xlink:href="#SimHei-30" transform="translate(250 0)"/>
       <use xlink:href="#SimHei-36" transform="translate(300 0)"/>
      </g>
     </g>
    </g>
    <g id="xtick_11">
     <g id="line2d_21">
      <path d="M 968.535632 556.577344 
L 968.535632 30.977344 
" clip-path="url(#p944b2e05aa)" style="fill: none; stroke-dasharray: 2.96,1.28; stroke-dashoffset: 0; stroke: #21262d; stroke-opacity: 0.4; stroke-width: 0.8"/>
     </g>
     <g id="line2d_22">
      <g>
       <use xlink:href="#mad25624cdb" x="968.535632" y="556.577344" style="fill: #c9d1d9; stroke: #c9d1d9; stroke-width: 0.8"/>
      </g>
     </g>
     <g id="text_11">
      <!-- 2026-07 -->
      <g style="fill: #c9d1d9" transform="translate(937.599743 587.031268) rotate(-30) scale(0.1 -0.1)">
       <defs>
        <path id="SimHei-37" d="M 850 150 
Q 1300 2050 2425 3925 
L 275 3925 
L 275 4375 
L 2950 4375 
L 2950 3950 
Q 1775 2050 1400 150 
L 850 150 
z
" transform="scale(0.015625)"/>
       </defs>
       <use xlink:href="#SimHei-32"/>
       <use xlink:href="#SimHei-30" transform="translate(50 0)"/>
       <use xlink:href="#SimHei-32" transform="translate(100 0)"/>
       <use xlink:href="#SimHei-36" transform="translate(150 0)"/>
       <use xlink:href="#SimHei-2d" transform="translate(200 0)"/>
       <use xlink:href="#SimHei-30" transform="translate(250 0)"/>
       <use xlink:href="#SimHei-37" transform="translate(300 0)"/>
      </g>
     </g>
    </g>
   </g>
   <g id="matplotlib.axis_2">
    <g id="ytick_1">
     <g id="line2d_23">
      <path d="M 29.2 532.686435 
L 1054.48 532.686435 
" clip-path="url(#p944b2e05aa)" style="fill: none; stroke-dasharray: 2.96,1.28; stroke-dashoffset: 0; stroke: #21262d; stroke-opacity: 0.4; stroke-width: 0.8"/>
     </g>
     <g id="line2d_24">
      <defs>
       <path id="m634a886398" d="M 0 0 
L -3.5 0 
" style="stroke: #c9d1d9; stroke-width: 0.8"/>
      </defs>
      <g>
       <use xlink:href="#m634a886398" x="29.2" y="532.686435" style="fill: #c9d1d9; stroke: #c9d1d9; stroke-width: 0.8"/>
      </g>
     </g>
     <g id="text_12">
      <!-- 0.0 -->
      <g style="fill: #c9d1d9" transform="translate(7.2 536.123935) scale(0.1 -0.1)">
       <defs>
        <path id="SimHei-2e" d="M 1075 125 
L 500 125 
L 500 675 
L 1075 675 
L 1075 125 
z
" transform="scale(0.015625)"/>
       </defs>
       <use xlink:href="#SimHei-30"/>
       <use xlink:href="#SimHei-2e" transform="translate(50 0)"/>
       <use xlink:href="#SimHei-30" transform="translate(100 0)"/>
      </g>
     </g>
    </g>
    <g id="ytick_2">
     <g id="line2d_25">
      <path d="M 29.2 437.122798 
L 1054.48 437.122798 
" clip-path="url(#p944b2e05aa)" style="fill: none; stroke-dasharray: 2.96,1.28; stroke-dashoffset: 0; stroke: #21262d; stroke-opacity: 0.4; stroke-width: 0.8"/>
     </g>
     <g id="line2d_26">
      <g>
       <use xlink:href="#m634a886398" x="29.2" y="437.122798" style="fill: #c9d1d9; stroke: #c9d1d9; stroke-width: 0.8"/>
      </g>
     </g>
     <g id="text_13">
      <!-- 0.2 -->
      <g style="fill: #c9d1d9" transform="translate(7.2 440.560298) scale(0.1 -0.1)">
       <use xlink:href="#SimHei-30"/>
       <use xlink:href="#SimHei-2e" transform="translate(50 0)"/>
       <use xlink:href="#SimHei-32" transform="translate(100 0)"/>
      </g>
     </g>
    </g>
    <g id="ytick_3">
     <g id="line2d_27">
      <path d="M 29.2 341.559162 
L 1054.48 341.559162 
" clip-path="url(#p944b2e05aa)" style="fill: none; stroke-dasharray: 2.96,1.28; stroke-dashoffset: 0; stroke: #21262d; stroke-opacity: 0.4; stroke-width: 0.8"/>
     </g>
     <g id="line2d_28">
      <g>
       <use xlink:href="#m634a886398" x="29.2" y="341.559162" style="fill: #c9d1d9; stroke: #c9d1d9; stroke-width: 0.8"/>
      </g>
     </g>
     <g id="text_14">
      <!-- 0.4 -->
      <g style="fill: #c9d1d9" transform="translate(7.2 344.996662) scale(0.1 -0.1)">
       <use xlink:href="#SimHei-30"/>
       <use xlink:href="#SimHei-2e" transform="translate(50 0)"/>
       <use xlink:href="#SimHei-34" transform="translate(100 0)"/>
      </g>
     </g>
    </g>
    <g id="ytick_4">
     <g id="line2d_29">
      <path d="M 29.2 245.995526 
L 1054.48 245.995526 
" clip-path="url(#p944b2e05aa)" style="fill: none; stroke-dasharray: 2.96,1.28; stroke-dashoffset: 0; stroke: #21262d; stroke-opacity: 0.4; stroke-width: 0.8"/>
     </g>
     <g id="line2d_30">
      <g>
       <use xlink:href="#m634a886398" x="29.2" y="245.995526" style="fill: #c9d1d9; stroke: #c9d1d9; stroke-width: 0.8"/>
      </g>
     </g>
     <g id="text_15">
      <!-- 0.6 -->
      <g style="fill: #c9d1d9" transform="translate(7.2 249.433026) scale(0.1 -0.1)">
       <use xlink:href="#SimHei-30"/>
       <use xlink:href="#SimHei-2e" transform="translate(50 0)"/>
       <use xlink:href="#SimHei-36" transform="translate(100 0)"/>
      </g>
     </g>
    </g>
    <g id="ytick_5">
     <g id="line2d_31">
      <path d="M 29.2 150.431889 
L 1054.48 150.431889 
" clip-path="url(#p944b2e05aa)" style="fill: none; stroke-dasharray: 2.96,1.28; stroke-dashoffset: 0; stroke: #21262d; stroke-opacity: 0.4; stroke-width: 0.8"/>
     </g>
     <g id="line2d_32">
      <g>
       <use xlink:href="#m634a886398" x="29.2" y="150.431889" style="fill: #c9d1d9; stroke: #c9d1d9; stroke-width: 0.8"/>
      </g>
     </g>
     <g id="text_16">
      <!-- 0.8 -->
      <g style="fill: #c9d1d9" transform="translate(7.2 153.869389) scale(0.1 -0.1)">
       <defs>
        <path id="SimHei-38" d="M 175 1375 
Q 175 1675 325 1962 
Q 475 2250 825 2425 
Q 525 2600 425 2812 
Q 325 3025 312 3300 
Q 300 3575 387 3775 
Q 475 3975 650 4150 
Q 825 4325 1037 4387 
Q 1250 4450 1500 4450 
Q 1750 4450 1950 4400 
Q 2150 4350 2375 4187 
Q 2600 4025 2700 3725 
Q 2800 3425 2687 3025 
Q 2575 2625 2100 2400 
Q 2525 2275 2700 2012 
Q 2875 1750 2875 1375 
Q 2875 1000 2762 775 
Q 2650 550 2512 400 
Q 2375 250 2137 162 
Q 1900 75 1537 75 
Q 1175 75 912 162 
Q 650 250 475 425 
Q 300 600 237 837 
Q 175 1075 175 1375 
z
M 687 1400 
Q 675 1100 787 875 
Q 900 650 1200 587 
Q 1500 525 1825 600 
Q 2150 675 2275 950 
Q 2400 1225 2362 1500 
Q 2325 1775 2050 1962 
Q 1775 2150 1450 2125 
Q 1125 2100 912 1900 
Q 700 1700 687 1400 
z
M 775 3350 
Q 775 3100 950 2875 
Q 1125 2650 1500 2650 
Q 1875 2650 2062 2875 
Q 2250 3100 2237 3412 
Q 2225 3725 2012 3875 
Q 1800 4025 1437 4000 
Q 1075 3975 925 3787 
Q 775 3600 775 3350 
z
" transform="scale(0.015625)"/>
       </defs>
       <use xlink:href="#SimHei-30"/>
       <use xlink:href="#SimHei-2e" transform="translate(50 0)"/>
       <use xlink:href="#SimHei-38" transform="translate(100 0)"/>
      </g>
     </g>
    </g>
    <g id="ytick_6">
     <g id="line2d_33">
      <path d="M 29.2 54.868253 
L 1054.48 54.868253 
" clip-path="url(#p944b2e05aa)" style="fill: none; stroke-dasharray: 2.96,1.28; stroke-dashoffset: 0; stroke: #21262d; stroke-opacity: 0.4; stroke-width: 0.8"/>
     </g>
     <g id="line2d_34">
      <g>
       <use xlink:href="#m634a886398" x="29.2" y="54.868253" style="fill: #c9d1d9; stroke: #c9d1d9; stroke-width: 0.8"/>
      </g>
     </g>
     <g id="text_17">
      <!-- 1.0 -->
      <g style="fill: #c9d1d9" transform="translate(7.2 58.305753) scale(0.1 -0.1)">
       <use xlink:href="#SimHei-31"/>
       <use xlink:href="#SimHei-2e" transform="translate(50 0)"/>
       <use xlink:href="#SimHei-30" transform="translate(100 0)"/>
      </g>
     </g>
    </g>
   </g>
   <g id="line2d_35">
    <path d="M 75.803636 532.686435 
L 78.829847 529.533829 
L 81.856057 525.311556 
L 84.882267 515.01528 
L 93.960897 501.82163 
L 96.987107 485.164166 
L 100.013318 479.880857 
L 103.039528 480.565832 
L 106.065738 482.729205 
L 115.144368 468.1287 
L 118.170579 470.535703 
L 121.196789 461.01652 
L 124.222999 452.013564 
L 127.249209 467.422026 
L 136.327839 461.224942 
L 139.35405 481.394468 
L 166.589941 447.774707 
L 169.616151 451.27563 
L 181.720992 445.900479 
L 184.747202 443.52106 
L 187.773412 441.590395 
L 190.799622 460.333957 
L 199.878253 463.090185 
L 202.904463 454.223108 
L 205.930673 448.096014 
L 208.956883 449.4609 
L 221.061724 429.679791 
L 224.087934 421.504334 
L 227.114144 414.793442 
L 230.140354 420.028291 
L 233.166564 425.015233 
L 242.245195 417.698593 
L 245.271405 418.639124 
L 248.297615 418.241162 
L 251.323825 409.662112 
L 254.350035 415.699931 
L 263.428666 411.263473 
L 266.454876 406.898805 
L 272.507296 413.162971 
L 275.533506 420.57112 
L 284.612137 415.336909 
L 287.638347 410.835558 
L 290.664557 415.346107 
L 293.690767 422.309198 
L 296.716978 438.99611 
L 305.795608 439.881157 
L 308.821818 438.017265 
L 311.848028 434.706919 
L 314.874238 434.033409 
L 317.900449 434.009592 
L 326.979079 426.800096 
L 330.005289 426.649002 
L 333.031499 429.020949 
L 336.05771 428.165504 
L 339.08392 429.961152 
L 348.16255 418.815954 
L 351.18876 413.241891 
L 354.21497 413.071444 
L 357.241181 415.326817 
L 360.267391 421.677665 
L 369.346021 417.405968 
L 372.372231 409.84058 
L 375.398442 411.570505 
L 378.424652 417.495662 
L 381.450862 414.516826 
L 390.529492 406.57202 
L 393.555702 395.973676 
L 396.581913 389.975668 
L 402.634333 396.131384 
L 411.712963 392.201517 
L 414.739174 386.305382 
L 417.765384 399.257242 
L 432.896434 388.010841 
L 435.922645 375.91366 
L 438.948855 359.10381 
L 441.975065 348.469159 
L 445.001275 343.928217 
L 454.079906 318.559078 
L 457.106116 313.986543 
L 460.132326 302.712143 
L 463.158536 290.184988 
L 466.184746 272.363078 
L 475.263377 273.866747 
L 478.289587 284.633413 
L 481.315797 270.866693 
L 484.342007 267.753027 
L 487.368217 267.379951 
L 496.446848 265.493663 
L 499.473058 267.210345 
L 502.499268 248.736846 
L 505.525478 252.370153 
L 508.551688 270.784537 
L 517.630319 272.382817 
L 520.656529 278.337909 
L 523.682739 290.562388 
L 526.708949 297.325798 
L 529.735159 307.724848 
L 538.81379 307.180144 
L 541.84 309.251147 
L 544.86621 321.252711 
L 547.89242 315.108495 
L 550.91863 355.756263 
L 584.206942 333.618011 
L 587.233152 314.58396 
L 590.259362 302.130059 
L 602.364203 297.038498 
L 605.390413 310.445456 
L 608.416623 313.539596 
L 611.442834 309.714 
L 614.469044 314.044903 
L 623.547674 311.247454 
L 626.573884 306.558815 
L 629.600094 307.557888 
L 632.626305 302.856413 
L 635.652515 308.669648 
L 644.731145 301.733262 
L 647.757355 307.044534 
L 650.783566 305.005922 
L 653.809776 306.426072 
L 656.835986 317.466912 
L 665.914616 324.190274 
L 668.940826 326.781111 
L 671.967037 326.968615 
L 674.993247 327.500172 
L 678.019457 335.246704 
L 687.098087 330.094776 
L 690.124298 333.990162 
L 693.150508 334.217896 
L 696.176718 341.510878 
L 699.202928 352.794423 
L 711.307769 351.97523 
L 714.333979 342.955174 
L 717.360189 338.93205 
L 729.46503 324.518635 
L 732.49124 314.018443 
L 738.54366 300.969821 
L 741.56987 300.125397 
L 750.648501 280.737322 
L 753.674711 276.265078 
L 756.700921 265.799712 
L 759.727131 264.383191 
L 762.753341 268.576392 
L 771.831972 255.846418 
L 774.858182 256.428187 
L 777.884392 249.585001 
L 780.910602 259.856408 
L 799.067863 229.010933 
L 802.094073 207.633686 
L 805.120283 197.399691 
L 814.198914 175.748022 
L 817.225124 164.547831 
L 820.251334 148.718763 
L 823.277544 143.443271 
L 826.303754 148.766475 
L 835.382385 135.174746 
L 838.408595 131.077996 
L 841.434805 124.221401 
L 844.461015 128.008584 
L 847.487226 126.269984 
L 856.565856 109.815149 
L 859.592066 104.599508 
L 862.618276 102.787465 
L 865.644486 97.946399 
L 868.670697 121.567728 
L 877.749327 127.105566 
L 880.775537 125.965306 
L 883.801747 118.840876 
L 886.827957 115.429915 
L 889.854168 130.848872 
L 898.932798 146.876715 
L 901.959008 148.898609 
L 904.985218 154.855754 
L 908.011429 154.325041 
L 911.037639 153.439063 
L 920.116269 135.870755 
L 923.142479 119.599112 
L 926.168689 99.776437 
L 929.1949 90.257781 
L 941.29974 76.100167 
L 944.32595 77.455446 
L 947.352161 69.663828 
L 950.378371 54.868253 
L 953.404581 65.855663 
L 962.483211 76.560024 
L 965.509421 60.608553 
L 968.535632 56.814814 
L 971.561842 63.262337 
L 974.588052 81.278933 
L 983.666682 91.716777 
L 986.692893 99.754827 
L 989.719103 110.372008 
L 992.745313 112.013104 
L 995.771523 122.89841 
L 1004.850153 141.671876 
L 1004.850153 141.671876 
" clip-path="url(#p944b2e05aa)" style="fill: none; stroke: #008000; stroke-width: 2; stroke-linecap: square"/>
   </g>
   <g id="line2d_36">
    <path d="M 75.803636 483.729651 
L 78.829847 474.053534 
L 81.856057 473.822836 
L 84.882267 471.173658 
L 93.960897 477.854552 
L 96.987107 471.289007 
L 100.013318 466.3356 
L 103.039528 453.779606 
L 106.065738 464.837713 
L 115.144368 464.837713 
L 118.170579 466.104902 
L 121.196789 463.340375 
L 124.222999 486.26348 
L 127.249209 488.913207 
L 136.327839 487.761367 
L 139.35405 472.325499 
L 166.589941 471.289007 
L 169.616151 481.656119 
L 178.694782 449.978039 
L 181.720992 449.978039 
L 184.747202 494.212112 
L 187.773412 480.158782 
L 190.799622 476.472563 
L 199.878253 480.38893 
L 202.904463 472.440848 
L 205.930673 475.090025 
L 208.956883 479.582587 
L 221.061724 474.283682 
L 224.087934 461.727689 
L 227.114144 448.59605 
L 230.140354 448.826199 
L 233.166564 461.266843 
L 242.245195 469.445623 
L 245.271405 532.686435 
L 248.297615 483.9598 
L 251.323825 479.928084 
L 254.350035 471.403807 
L 263.428666 471.403807 
L 266.454876 472.21015 
L 272.507296 472.21015 
L 275.533506 463.801221 
L 284.612137 449.056347 
L 287.638347 458.617665 
L 296.716978 458.617665 
L 305.795608 457.580625 
L 308.821818 452.512417 
L 311.848028 432.123141 
L 314.874238 422.101526 
L 317.900449 422.101526 
L 326.979079 421.295183 
L 330.005289 417.378816 
L 333.031499 415.420633 
L 336.05771 408.048196 
L 339.08392 417.033319 
L 348.16255 414.959787 
L 351.18876 416.572473 
L 354.21497 407.702699 
L 357.241181 408.509042 
L 360.267391 401.482102 
L 369.346021 396.98954 
L 372.372231 388.926109 
L 375.398442 382.820861 
L 378.424652 384.318748 
L 381.450862 381.438872 
L 390.529492 381.899718 
L 393.555702 381.899718 
L 396.581913 367.039495 
M 402.634333 367.039495 
L 411.712963 367.039495 
L 414.739174 341.236515 
L 417.765384 330.293208 
L 432.896434 326.837687 
L 435.922645 320.962588 
L 438.948855 315.663683 
L 441.975065 330.754054 
L 445.001275 315.779032 
L 454.079906 308.521943 
L 457.106116 303.799233 
L 460.132326 308.86744 
L 463.158536 303.683884 
L 466.184746 295.620453 
L 475.263377 298.039482 
L 478.289587 298.039482 
L 481.315797 288.593513 
L 484.342007 292.970726 
L 487.368217 303.223038 
L 496.446848 303.223038 
L 499.473058 282.027419 
L 502.499268 282.373466 
L 505.525478 282.373466 
L 508.551688 274.88568 
L 517.630319 278.34175 
L 520.656529 272.927496 
L 523.682739 263.020681 
L 526.708949 263.020681 
L 529.735159 263.13603 
L 538.81379 264.28787 
L 541.84 244.935635 
L 544.86621 231.803996 
L 547.89242 233.992328 
L 550.91863 219.708849 
L 584.206942 228.808772 
L 587.233152 200.125916 
L 590.259362 184.114402 
L 593.285573 151.51463 
L 602.364203 171.097563 
L 605.390413 198.858727 
L 608.416623 219.248003 
L 611.442834 216.13743 
L 614.469044 216.13743 
L 623.547674 215.561785 
L 626.573884 232.264293 
L 629.600094 192.523331 
L 632.626305 179.851989 
L 635.652515 183.768356 
L 644.731145 215.100939 
L 647.757355 283.525306 
L 650.783566 203.812135 
L 653.809776 188.030769 
L 656.835986 219.362803 
L 665.914616 203.12114 
L 668.940826 196.555046 
L 671.967037 210.147531 
L 674.993247 220.745341 
L 678.019457 231.918796 
L 687.098087 232.955836 
L 690.124298 232.955836 
L 693.150508 212.912058 
L 696.176718 185.61174 
L 699.202928 202.429597 
L 711.307769 199.204224 
L 714.333979 169.715025 
L 717.360189 137.4613 
L 720.386399 140.571323 
L 729.46503 136.424259 
L 732.49124 139.304134 
L 735.51745 122.486277 
L 738.54366 125.135455 
L 741.56987 128.706874 
L 750.648501 123.983615 
L 753.674711 124.44446 
L 759.727131 132.277744 
L 762.753341 134.351276 
L 771.831972 145.754879 
L 774.858182 130.665057 
L 777.884392 147.482914 
L 780.910602 147.598263 
L 799.067863 139.073986 
L 802.094073 117.072023 
L 805.120283 106.013917 
L 814.198914 104.976876 
L 817.225124 98.410782 
L 820.251334 95.18541 
L 823.277544 93.803421 
L 826.303754 87.237327 
L 835.382385 114.998491 
L 838.408595 104.401231 
L 841.434805 121.103739 
L 844.461015 104.976876 
L 847.487226 107.280557 
L 856.565856 98.065285 
L 859.592066 98.065285 
L 862.618276 88.273819 
L 865.644486 79.980239 
L 868.670697 80.786582 
L 877.749327 65.466062 
L 880.775537 64.083525 
L 883.801747 60.858152 
L 886.827957 68.921583 
L 889.854168 73.874991 
L 898.932798 64.659719 
L 901.959008 64.659719 
L 904.985218 72.723151 
L 908.011429 72.723151 
L 911.037639 76.178672 
L 920.116269 65.235365 
L 923.142479 54.868253 
L 926.168689 55.098401 
L 929.1949 55.098401 
L 941.29974 68.230589 
L 944.32595 75.026831 
L 947.352161 92.881729 
L 953.404581 92.881729 
L 962.483211 102.097001 
L 965.509421 97.028794 
L 968.535632 97.028794 
L 971.561842 97.719788 
L 974.588052 91.269043 
L 983.666682 91.269043 
L 986.692893 99.563172 
L 989.719103 96.798096 
L 992.745313 107.280557 
L 995.771523 95.300759 
L 1004.850153 77.445861 
L 1004.850153 77.445861 
" clip-path="url(#p944b2e05aa)" style="fill: none; stroke: #00bfbf; stroke-width: 2; stroke-linecap: square"/>
   </g>
   <g id="line2d_37">
    <path d="M 106.065738 460.304315 
L 115.144368 445.755749 
L 118.170579 471.18568 
L 121.196789 462.28821 
L 124.222999 439.323119 
L 127.249209 422.971012 
L 133.301629 422.971012 
L 136.327839 459.162072 
L 139.35405 437.218987 
L 166.589941 440.886188 
L 169.616151 494.631715 
L 178.694782 494.631715 
L 181.720992 501.124464 
L 184.747202 493.970417 
L 187.773412 527.516283 
L 190.799622 499.801867 
L 199.878253 526.975221 
L 202.904463 530.522185 
L 205.930673 532.686435 
L 208.956883 514.530787 
L 211.983093 514.230196 
L 221.061724 516.454564 
L 224.087934 513.80937 
L 227.114144 461.446557 
L 230.140354 436.798161 
L 233.166564 428.141163 
L 242.245195 415.516375 
L 245.271405 435.956508 
L 248.297615 392.67152 
L 251.323825 436.918397 
L 254.350035 439.443355 
L 263.428666 427.239393 
L 266.454876 427.239393 
L 269.481086 453.210386 
L 272.507296 438.481466 
L 275.533506 421.287707 
L 284.612137 425.435851 
L 287.638347 432.169072 
L 290.664557 429.644114 
L 293.690767 445.034332 
L 296.716978 470.945208 
L 305.795608 485.614009 
L 308.821818 509.120163 
L 311.848028 524.810971 
L 314.874238 524.810971 
L 326.979079 464.933404 
L 330.005289 469.502375 
L 333.031499 492.166876 
L 336.05771 474.071346 
L 339.08392 441.72784 
L 348.16255 424.834671 
L 351.18876 414.374132 
L 354.21497 445.755749 
L 357.241181 437.158869 
L 360.267391 406.618905 
L 369.346021 418.161568 
L 372.372231 434.393439 
L 375.398442 421.287707 
L 378.424652 446.296811 
L 381.450862 419.363929 
L 390.529492 419.784756 
L 393.555702 409.985515 
L 396.581913 428.261399 
L 399.608123 428.261399 
L 402.634333 435.475564 
L 411.712963 460.003724 
L 414.739174 447.85988 
L 417.765384 417.259798 
L 429.870224 417.259798 
L 432.896434 429.944704 
L 435.922645 438.66182 
L 438.948855 468.11966 
L 441.975065 437.218987 
L 445.001275 435.836272 
L 454.079906 417.981214 
L 457.106116 420.025228 
L 460.132326 436.557689 
L 463.158536 427.539983 
L 466.184746 378.24319 
L 475.263377 378.24319 
L 478.289587 336.280798 
L 481.315797 359.486361 
L 484.342007 366.2797 
L 487.368217 370.668317 
L 496.446848 379.325315 
L 499.473058 371.449851 
L 502.499268 350.588892 
L 505.525478 363.21368 
L 508.551688 347.462753 
L 517.630319 334.717729 
L 520.656529 339.046228 
L 523.682739 334.296903 
L 526.708949 380.948502 
L 529.735159 370.908789 
L 538.81379 371.630206 
L 541.84 406.498669 
L 544.86621 388.463257 
L 547.89242 436.497571 
L 550.91863 468.660722 
L 553.944841 468.660722 
L 584.206942 474.371936 
L 587.233152 476.476067 
L 590.259362 502.326824 
L 593.285573 507.67733 
L 596.311783 507.67733 
L 602.364203 452.609205 
L 605.390413 449.362831 
L 608.416623 428.982816 
L 611.442834 405.596898 
L 614.469044 395.436949 
L 623.547674 428.141163 
L 626.573884 410.165869 
L 629.600094 375.297406 
L 632.626305 337.843867 
L 635.652515 337.302805 
L 644.731145 377.521773 
L 647.757355 395.677422 
L 650.783566 351.25019 
L 653.809776 361.891083 
L 656.835986 280.551375 
L 665.914616 311.632402 
L 668.940826 278.928188 
L 671.967037 312.654408 
L 674.993247 256.203569 
L 678.019457 242.857364 
L 687.098087 290.410734 
L 690.124298 326.962502 
L 693.150508 313.315707 
L 696.176718 323.235183 
L 699.202928 298.586787 
L 711.307769 308.92709 
L 714.333979 330.870174 
L 717.360189 334.236785 
L 720.386399 318.365622 
L 729.46503 312.654408 
L 732.49124 330.449348 
L 735.51745 311.211575 
L 738.54366 293.356517 
L 741.56987 318.065032 
L 750.648501 318.305504 
L 753.674711 287.224477 
L 756.700921 279.950195 
L 759.727131 265.461747 
L 762.753341 286.683415 
L 771.831972 268.407531 
L 774.858182 259.810651 
L 777.884392 211.115039 
L 780.910602 224.88207 
L 799.067863 259.810651 
L 802.094073 228.368916 
L 805.120283 247.426335 
L 808.146494 247.426335 
L 814.198914 221.81605 
L 817.225124 195.965293 
L 820.251334 191.276086 
L 823.277544 189.713017 
L 826.303754 121.779631 
L 835.382385 105.367406 
L 838.408595 54.868253 
L 841.434805 117.21066 
L 844.461015 121.178451 
L 847.487226 131.458636 
L 856.565856 131.458636 
L 859.592066 160.676003 
L 862.618276 161.337302 
L 865.644486 177.989999 
L 868.670697 171.797841 
L 877.749327 154.904671 
L 880.775537 162.539662 
L 883.801747 150.03511 
L 886.827957 159.23317 
L 889.854168 118.713611 
L 898.932798 116.789834 
L 901.959008 140.897168 
L 904.985218 134.885364 
L 908.011429 194.943286 
L 911.037639 174.022208 
L 920.116269 181.176255 
L 923.142479 197.88907 
L 926.168689 158.571872 
L 929.1949 178.350707 
L 941.29974 152.860658 
L 944.32595 162.59978 
L 947.352161 217.728023 
L 950.378371 217.547669 
L 953.404581 227.34691 
L 962.483211 218.689912 
L 965.509421 192.237974 
L 968.535632 175.284687 
L 971.561842 166.988397 
L 974.588052 166.988397 
L 983.666682 171.136542 
L 986.692893 130.677101 
L 989.719103 123.402818 
L 992.745313 134.885364 
L 995.771523 124.184353 
L 1004.850153 90.758723 
L 1007.876364 112.401217 
L 1007.876364 112.401217 
" clip-path="url(#p944b2e05aa)" style="fill: none; stroke: #ffffff; stroke-width: 2; stroke-linecap: square"/>
   </g>
   <g id="line2d_38">
    <path d="M 75.803636 515.540263 
L 78.829847 516.152752 
L 81.856057 471.042117 
L 84.882267 467.367966 
L 93.960897 470.633987 
L 96.987107 459.203206 
L 100.013318 443.894208 
L 103.039528 457.162065 
L 106.065738 463.489651 
L 115.144368 451.854903 
L 118.170579 460.223826 
L 121.196789 428.585211 
L 124.222999 426.748135 
L 127.249209 448.180751 
L 136.327839 422.461592 
L 139.35405 410.826746 
L 166.589941 384.29113 
L 169.616151 413.684441 
L 178.694782 421.032842 
L 181.720992 457.774358 
L 184.747202 436.545905 
L 187.773412 448.180751 
L 190.799622 493.495353 
L 199.878253 484.105909 
L 202.904463 459.611434 
L 205.930673 471.042117 
L 208.956883 465.939118 
L 221.061724 419.195668 
L 224.087934 426.748135 
L 227.114144 395.517846 
L 230.140354 415.317354 
L 233.166564 427.768754 
L 242.245195 427.156363 
L 245.271405 452.875424 
L 248.297615 449.405436 
L 251.323825 424.706896 
L 254.350035 426.9522 
L 263.428666 425.319287 
L 266.454876 436.341742 
L 269.481086 444.098371 
L 272.507296 421.849201 
L 275.533506 447.772523 
L 284.612137 448.180751 
L 287.638347 463.285586 
L 290.664557 470.429726 
L 293.690767 482.064572 
L 296.716978 532.686435 
L 305.795608 522.888664 
L 308.821818 505.742591 
L 311.848028 503.497189 
L 314.874238 506.558949 
L 317.900449 489.20881 
L 326.979079 475.532725 
L 330.005289 487.984126 
L 333.031499 495.740657 
L 336.05771 491.250049 
L 339.08392 472.675128 
L 348.16255 460.019662 
L 351.18876 471.042117 
L 354.21497 463.081521 
L 357.241181 475.736888 
L 360.267391 458.590913 
L 369.346021 468.592748 
L 372.372231 491.045886 
L 375.398442 463.897977 
L 378.424652 471.654509 
L 381.450862 458.38675 
L 390.529492 441.648904 
L 393.555702 440.424122 
L 396.581913 420.828679 
L 399.608123 407.764985 
L 402.634333 398.375443 
L 411.712963 404.90729 
L 414.739174 398.171378 
L 417.765384 396.742531 
L 432.896434 355.10208 
L 435.922645 320.60577 
L 438.948855 312.84914 
L 441.975065 307.746141 
L 445.001275 268.555256 
L 454.079906 227.731066 
L 457.106116 250.184498 
L 460.132326 238.141423 
L 463.158536 243.448488 
L 466.184746 239.746683 
L 475.263377 228.847393 
L 478.289587 233.782806 
L 481.315797 211.572761 
L 484.342007 203.963812 
L 487.368217 152.551577 
L 496.446848 184.427107 
L 499.473058 173.116353 
L 502.499268 158.309722 
L 505.525478 178.874694 
L 508.551688 209.927689 
L 517.630319 290.336381 
L 520.656529 225.145588 
L 523.682739 220.621443 
L 526.708949 255.787314 
L 529.735159 256.60985 
L 538.81379 219.181711 
L 541.84 222.883515 
L 544.86621 215.89137 
L 547.89242 194.709594 
L 550.91863 223.706052 
L 584.206942 203.963812 
L 587.233152 176.612426 
L 590.259362 170.854281 
L 593.285573 148.849772 
L 602.364203 149.672504 
L 605.390413 223.294784 
L 608.416623 235.222342 
L 611.442834 224.11732 
L 614.469044 213.83503 
L 623.547674 227.202124 
L 626.573884 201.496007 
L 629.600094 204.169348 
L 632.626305 212.806761 
L 635.652515 236.456342 
L 644.731145 247.150096 
L 647.757355 284.372504 
L 650.783566 268.331873 
L 653.809776 311.723792 
L 656.835986 339.075177 
L 665.914616 400.7698 
L 668.940826 371.978976 
L 671.967037 336.196007 
L 674.993247 362.107856 
L 678.019457 340.925982 
L 687.098087 337.841275 
L 690.124298 365.603831 
L 693.150508 339.692079 
L 696.176718 367.866001 
L 699.202928 382.05573 
L 711.307769 376.708853 
L 714.333979 295.066258 
L 717.360189 307.816451 
L 720.386399 293.215454 
L 729.46503 294.65499 
L 732.49124 267.714873 
L 735.51745 277.586091 
L 738.54366 248.383901 
L 741.56987 240.774951 
L 750.648501 227.407856 
L 753.674711 232.343269 
L 756.700921 206.842884 
L 759.727131 223.294784 
L 762.753341 233.988538 
L 771.831972 224.73432 
L 774.858182 244.271024 
L 777.884392 213.629298 
L 780.910602 211.984029 
L 799.067863 165.096136 
L 802.094073 141.857823 
L 805.120283 142.269091 
L 814.198914 112.861365 
L 817.225124 123.143655 
L 820.251334 92.913393 
L 823.277544 141.652091 
L 826.303754 174.555889 
L 835.382385 170.648745 
L 838.408595 155.841918 
L 841.434805 146.5877 
L 844.461015 196.971666 
L 847.487226 165.096136 
L 856.565856 138.773018 
L 859.592066 145.765164 
L 862.618276 174.144621 
L 865.644486 166.94694 
L 868.670697 209.310689 
L 877.749327 224.323052 
L 880.775537 216.919638 
L 883.801747 206.842884 
L 886.827957 208.28242 
L 889.854168 230.698197 
L 898.932798 286.429041 
L 901.959008 244.887828 
L 904.985218 265.247264 
L 908.011429 273.06175 
L 911.037639 250.646169 
L 920.116269 188.54018 
L 923.142479 170.443013 
L 926.168689 143.503091 
L 929.1949 130.1358 
L 941.29974 93.324661 
L 944.32595 132.809337 
L 947.352161 97.849002 
L 950.378371 77.284029 
L 953.404581 123.349387 
L 962.483211 100.111074 
L 965.509421 54.868253 
L 968.535632 57.747325 
L 971.561842 125.817191 
L 974.588052 115.123437 
L 983.666682 133.837409 
L 986.692893 165.301868 
L 989.719103 187.100644 
L 992.745313 135.071409 
L 995.771523 156.870186 
L 1004.850153 240.363683 
L 1004.850153 240.363683 
" clip-path="url(#p944b2e05aa)" style="fill: none; stroke: #ff0000; stroke-width: 2; stroke-linecap: square"/>
   </g>
   <g id="patch_3">
    <path d="M 29.2 556.577344 
L 29.2 30.977344 
" style="fill: none; stroke: #30363d; stroke-width: 0.8; stroke-linejoin: miter; stroke-linecap: square"/>
   </g>
   <g id="patch_4">
    <path d="M 1054.48 556.577344 
L 1054.48 30.977344 
" style="fill: none; stroke: #30363d; stroke-width: 0.8; stroke-linejoin: miter; stroke-linecap: square"/>
   </g>
   <g id="patch_5">
    <path d="M 29.2 556.577344 
L 1054.48 556.577344 
" style="fill: none; stroke: #30363d; stroke-width: 0.8; stroke-linejoin: miter; stroke-linecap: square"/>
   </g>
   <g id="patch_6">
    <path d="M 29.2 30.977344 
L 1054.48 30.977344 
" style="fill: none; stroke: #30363d; stroke-width: 0.8; stroke-linejoin: miter; stroke-linecap: square"/>
   </g>
   <g id="text_18">
    <!-- 2026-07-14 -->
    <g style="fill: #8b949e; opacity: 0.6" transform="translate(999.2272 550.196344) scale(0.09 -0.09)">
     <use xlink:href="#SimHei-32"/>
     <use xlink:href="#SimHei-30" transform="translate(50 0)"/>
     <use xlink:href="#SimHei-32" transform="translate(100 0)"/>
     <use xlink:href="#SimHei-36" transform="translate(150 0)"/>
     <use xlink:href="#SimHei-2d" transform="translate(200 0)"/>
     <use xlink:href="#SimHei-30" transform="translate(250 0)"/>
     <use xlink:href="#SimHei-37" transform="translate(300 0)"/>
     <use xlink:href="#SimHei-2d" transform="translate(350 0)"/>
     <use xlink:href="#SimHei-31" transform="translate(400 0)"/>
     <use xlink:href="#SimHei-34" transform="translate(450 0)"/>
    </g>
   </g>
   <g id="text_19">
    <!-- 归一化指标对比 -->
    <g style="fill: #c9d1d9" transform="translate(489.34 18.977344) scale(0.15 -0.15)">
     <defs>
      <path id="SimHei-5f52" d="M 2600 800 
Q 3075 775 3600 775 
L 5300 775 
L 5300 2275 
L 4150 2275 
Q 3550 2275 3100 2250 
L 3100 2725 
Q 3550 2700 4150 2700 
L 5300 2700 
L 5300 4175 
L 3775 4175 
Q 3300 4175 2800 4150 
L 2800 4625 
Q 3250 4600 3725 4600 
L 5850 4600 
Q 5825 4075 5825 3775 
L 5825 825 
Q 5825 200 5850 -300 
L 5300 -300 
L 5300 350 
L 3600 350 
Q 3075 350 2600 325 
L 2600 800 
z
M 350 -150 
Q 1125 325 1475 975 
Q 1825 1625 1900 2362 
Q 1975 3100 1962 3837 
Q 1950 4575 1925 5125 
L 2475 5125 
Q 2450 4725 2450 3950 
Q 2450 3175 2400 2437 
Q 2350 1700 2012 950 
Q 1675 200 800 -550 
Q 625 -325 350 -150 
z
M 500 1225 
Q 525 1650 525 2050 
L 525 3700 
Q 525 4125 500 4475 
L 1050 4475 
Q 1025 4100 1025 3700 
L 1025 2050 
Q 1025 1650 1050 1225 
L 500 1225 
z
" transform="scale(0.015625)"/>
      <path id="SimHei-4e00" d="M 4875 2675 
Q 5525 2675 6050 2700 
L 6050 2050 
Q 5525 2075 4900 2075 
L 1600 2075 
Q 950 2075 350 2050 
L 350 2700 
Q 950 2675 1600 2675 
L 4875 2675 
z
" transform="scale(0.015625)"/>
      <path id="SimHei-5316" d="M 3925 5025 
Q 3900 4900 3900 4400 
L 3900 2625 
Q 4375 3025 4775 3450 
Q 5175 3875 5400 4300 
Q 5600 4100 5900 3925 
Q 5700 3700 5225 3212 
Q 4750 2725 4487 2512 
Q 4225 2300 3900 2025 
L 3900 450 
Q 3900 50 4225 50 
L 5200 50 
Q 5400 75 5462 262 
Q 5525 450 5575 850 
Q 5800 650 6150 600 
Q 6000 -100 5825 -250 
Q 5650 -400 5350 -400 
L 3950 -400 
Q 3425 -400 3400 200 
L 3400 1675 
Q 3225 1525 2962 1350 
Q 2700 1175 2375 975 
Q 2225 1225 2025 1400 
Q 2350 1550 2737 1787 
Q 3125 2025 3400 2250 
L 3400 4500 
Q 3400 4800 3375 5025 
L 3925 5025 
z
M 2400 4850 
Q 2175 4550 2075 4337 
Q 1975 4125 1825 3775 
L 1825 675 
Q 1825 -75 1850 -550 
L 1325 -550 
Q 1350 -125 1350 650 
L 1350 3050 
Q 1125 2725 962 2525 
Q 800 2325 675 2175 
Q 500 2375 275 2525 
Q 625 2850 875 3212 
Q 1125 3575 1312 3912 
Q 1500 4250 1625 4575 
Q 1750 4900 1825 5100 
Q 1975 4975 2400 4850 
z
" transform="scale(0.015625)"/>
      <path id="SimHei-6307" d="M 5625 2225 
Q 5600 1925 5600 1350 
L 5600 300 
Q 5600 -225 5625 -525 
L 5125 -525 
L 5125 -125 
L 3300 -125 
L 3300 -625 
L 2800 -625 
Q 2825 -300 2825 300 
L 2825 1350 
Q 2825 1925 2800 2225 
L 5625 2225 
z
M 500 25 
Q 1075 -25 1175 37 
Q 1275 100 1275 275 
L 1275 1675 
Q 1050 1600 925 1537 
Q 800 1475 475 1275 
Q 400 1525 225 1800 
Q 625 1900 825 1975 
Q 1025 2050 1275 2125 
L 1275 3300 
L 1100 3300 
Q 775 3300 450 3275 
L 450 3725 
Q 750 3700 1100 3700 
L 1275 3700 
L 1275 4450 
Q 1275 4800 1250 5125 
L 1775 5125 
Q 1750 4850 1750 4450 
L 1750 3700 
Q 2075 3700 2425 3725 
L 2425 3275 
Q 2050 3300 1750 3300 
L 1750 2325 
Q 1850 2350 2025 2425 
L 2375 2575 
Q 2350 2300 2375 2100 
Q 2225 2050 2062 1987 
Q 1900 1925 1750 1850 
L 1750 100 
Q 1725 -200 1575 -337 
Q 1425 -475 675 -525 
Q 625 -250 500 25 
z
M 3325 5025 
Q 3300 4675 3300 4125 
Q 4125 4275 4512 4412 
Q 4900 4550 5225 4725 
Q 5325 4475 5575 4250 
Q 5450 4225 5237 4175 
Q 5025 4125 4725 4050 
Q 4425 3975 4037 3887 
Q 3650 3800 3300 3725 
L 3300 3175 
Q 3275 2925 3700 2925 
L 4925 2925 
Q 5300 2925 5387 3087 
Q 5475 3250 5550 3600 
Q 5750 3400 6050 3300 
Q 5825 2725 5700 2637 
Q 5575 2550 5275 2525 
L 3350 2525 
Q 3050 2525 2937 2687 
Q 2825 2850 2825 2975 
L 2825 4125 
Q 2825 4775 2800 5025 
L 3325 5025 
z
M 5125 275 
L 5125 875 
L 3300 875 
L 3300 275 
L 5125 275 
z
M 5125 1250 
L 5125 1825 
L 3300 1825 
L 3300 1250 
L 5125 1250 
z
" transform="scale(0.015625)"/>
      <path id="SimHei-6807" d="M 1275 4400 
Q 1275 4800 1250 5175 
L 1750 5175 
Q 1725 4825 1725 4400 
L 1725 3800 
Q 2125 3800 2575 3825 
L 2575 3350 
Q 2125 3375 1725 3375 
L 1725 2525 
Q 1900 2650 2075 2800 
Q 2400 2275 2650 1775 
Q 2375 1650 2175 1500 
Q 2025 2000 1725 2425 
L 1725 475 
Q 1725 -50 1750 -575 
L 1250 -575 
Q 1275 -25 1275 475 
L 1275 2100 
Q 1025 1400 500 750 
Q 350 950 125 1125 
Q 550 1550 812 2187 
Q 1075 2825 1150 3375 
Q 675 3375 325 3325 
L 325 3825 
Q 800 3800 1275 3800 
L 1275 4400 
z
M 5175 3125 
Q 5675 3125 6050 3150 
L 6050 2675 
Q 5675 2700 5275 2700 
L 4500 2700 
L 4500 175 
Q 4500 -225 4275 -350 
Q 4050 -475 3475 -550 
Q 3425 -250 3275 25 
Q 3775 25 3900 62 
Q 4025 100 4025 350 
L 4025 2700 
L 3400 2700 
Q 2775 2700 2500 2650 
L 2500 3150 
Q 2825 3125 3400 3125 
L 5175 3125 
z
M 4900 4775 
Q 5425 4775 5750 4800 
L 5750 4300 
Q 5275 4350 4750 4350 
L 3525 4350 
Q 3125 4350 2750 4300 
L 2750 4800 
Q 3100 4775 3525 4775 
L 4900 4775 
z
M 5275 2025 
Q 5825 1175 6200 500 
Q 5925 375 5650 200 
Q 5375 925 4825 1725 
Q 5075 1850 5275 2025 
z
M 3600 1775 
Q 3500 1625 3225 975 
Q 2950 325 2800 50 
Q 2575 175 2300 275 
Q 2625 775 2787 1187 
Q 2950 1600 3050 2000 
Q 3325 1875 3600 1775 
z
" transform="scale(0.015625)"/>
      <path id="SimHei-5bf9" d="M 525 4250 
Q 900 4225 1400 4225 
L 2825 4225 
Q 2575 2625 2200 1750 
Q 2825 875 3125 400 
Q 2950 275 2725 75 
Q 2200 975 1950 1300 
Q 1650 775 1350 425 
Q 1050 75 600 -350 
Q 425 -125 200 -25 
Q 625 275 975 675 
Q 1325 1075 1650 1700 
Q 1050 2425 550 2900 
Q 700 3025 900 3225 
Q 1625 2425 1875 2150 
Q 2200 3050 2300 3825 
L 1400 3825 
Q 900 3825 525 3800 
L 525 4250 
z
M 2925 3700 
Q 3525 3675 3750 3675 
L 4825 3675 
L 4825 4425 
Q 4825 4750 4775 5125 
L 5350 5125 
Q 5325 4825 5325 4375 
L 5325 3675 
Q 5575 3675 6150 3700 
L 6150 3250 
Q 5575 3275 5325 3275 
L 5325 125 
Q 5350 -350 5012 -475 
Q 4675 -600 4250 -650 
Q 4175 -350 4025 -100 
Q 4575 -100 4712 -37 
Q 4850 25 4825 325 
L 4825 3275 
L 3775 3275 
Q 3550 3275 2925 3225 
L 2925 3700 
z
M 3450 2725 
Q 3875 1975 4175 1325 
Q 3850 1200 3700 1075 
Q 3475 1750 3050 2475 
Q 3225 2550 3450 2725 
z
" transform="scale(0.015625)"/>
      <path id="SimHei-6bd4" d="M 3775 5100 
Q 3750 4575 3750 4100 
L 3750 3050 
Q 4925 3600 5475 4175 
Q 5675 3900 5900 3675 
Q 5600 3500 5037 3187 
Q 4475 2875 3750 2550 
L 3750 450 
Q 3750 100 4050 100 
L 5000 100 
Q 5175 100 5262 250 
Q 5350 400 5450 900 
Q 5650 775 6025 675 
Q 5850 0 5650 -175 
Q 5450 -350 5225 -350 
L 3900 -350 
Q 3250 -350 3250 275 
L 3250 4000 
Q 3250 4550 3225 5100 
L 3775 5100 
z
M 1275 4975 
Q 1250 4575 1250 4000 
L 1250 3150 
L 1850 3150 
Q 2325 3150 2875 3175 
L 2875 2650 
Q 2325 2675 1850 2675 
L 1250 2675 
L 1250 475 
Q 1650 650 1962 812 
Q 2275 975 2850 1275 
Q 2900 950 2950 750 
Q 2375 475 1762 175 
Q 1150 -125 925 -325 
Q 750 -100 575 200 
Q 700 300 750 600 
L 750 3950 
Q 750 4550 725 4975 
L 1275 4975 
z
" transform="scale(0.015625)"/>
     </defs>
     <use xlink:href="#SimHei-5f52"/>
     <use xlink:href="#SimHei-4e00" transform="translate(100 0)"/>
     <use xlink:href="#SimHei-5316" transform="translate(200 0)"/>
     <use xlink:href="#SimHei-6307" transform="translate(300 0)"/>
     <use xlink:href="#SimHei-6807" transform="translate(400 0)"/>
     <use xlink:href="#SimHei-5bf9" transform="translate(500 0)"/>
     <use xlink:href="#SimHei-6bd4" transform="translate(600 0)"/>
    </g>
   </g>
   <g id="legend_1">
    <g id="patch_7">
     <path d="M 36.2 94.883594 
L 128.2 94.883594 
Q 130.2 94.883594 130.2 92.883594 
L 130.2 37.977344 
Q 130.2 35.977344 128.2 35.977344 
L 36.2 35.977344 
Q 34.2 35.977344 34.2 37.977344 
L 34.2 92.883594 
Q 34.2 94.883594 36.2 94.883594 
z
" style="fill: #161b22; opacity: 0.9; stroke: #30363d; stroke-linejoin: miter"/>
    </g>
    <g id="line2d_39">
     <path d="M 38.2 44.524219 
L 48.2 44.524219 
L 58.2 44.524219 
" style="fill: none; stroke: #008000; stroke-width: 2; stroke-linecap: square"/>
    </g>
    <g id="text_20">
     <!-- 融资余额 -->
     <g style="fill: #c9d1d9" transform="translate(66.2 48.024219) scale(0.1 -0.1)">
      <defs>
       <path id="SimHei-878d" d="M 5200 975 
Q 5400 1025 5650 1125 
Q 5775 775 5887 475 
Q 6000 175 6150 -350 
Q 5925 -425 5675 -500 
Q 5575 -175 5500 50 
Q 4825 -100 4362 -212 
Q 3900 -325 3400 -500 
Q 3325 -225 3200 0 
Q 3575 25 4350 175 
L 4350 1750 
L 3850 1750 
L 3850 1225 
L 3375 1225 
Q 3400 1975 3400 2675 
Q 3400 3400 3375 3925 
L 4350 3925 
Q 4350 4925 4325 5200 
L 4825 5200 
Q 4800 4875 4800 3925 
L 5775 3925 
Q 5750 3325 5750 2700 
Q 5750 2100 5775 1550 
L 5300 1550 
L 5300 1750 
L 4800 1750 
L 4800 250 
Q 5075 325 5400 400 
Q 5325 650 5200 975 
z
M 2025 -50 
Q 2425 -50 2475 -12 
Q 2525 25 2550 150 
L 2550 1975 
L 825 1975 
L 825 -500 
L 350 -500 
Q 375 100 375 475 
L 375 1400 
Q 375 1850 350 2350 
L 3000 2350 
Q 2975 1950 2975 1450 
L 2975 -25 
Q 2975 -325 2787 -387 
Q 2600 -450 2225 -525 
Q 2125 -225 2025 -50 
z
M 625 2725 
Q 650 3050 650 3350 
Q 650 3675 625 3975 
L 2850 3975 
Q 2825 3675 2825 3350 
Q 2825 3050 2850 2725 
L 625 2725 
z
M 3000 4450 
Q 2650 4475 2175 4475 
L 1200 4475 
Q 625 4475 250 4450 
L 250 4875 
Q 550 4850 1125 4850 
L 2175 4850 
Q 2700 4850 3000 4875 
L 3000 4450 
z
M 2325 1675 
Q 2175 1475 2000 1025 
L 2325 1025 
L 2325 675 
L 1850 675 
L 1850 -125 
L 1425 -125 
L 1425 675 
L 1025 675 
L 1025 1025 
L 1700 1025 
Q 1875 1500 1925 1825 
Q 2100 1700 2325 1675 
z
M 5300 2125 
L 5300 3550 
L 4800 3550 
L 4800 2125 
L 5300 2125 
z
M 4350 2125 
L 4350 3550 
L 3850 3550 
L 3850 2125 
L 4350 2125 
z
M 2350 3100 
L 2350 3600 
L 1100 3600 
L 1100 3100 
L 2350 3100 
z
M 1575 1275 
Q 1400 1225 1225 1150 
Q 1150 1425 1025 1675 
L 1325 1825 
Q 1425 1550 1575 1275 
z
" transform="scale(0.015625)"/>
       <path id="SimHei-8d44" d="M 5300 2150 
Q 5275 1825 5275 1450 
Q 5275 1075 5300 575 
L 4800 575 
L 4800 1725 
L 1700 1725 
L 1700 425 
L 1200 425 
Q 1225 1000 1225 1375 
Q 1225 1775 1200 2150 
L 5300 2150 
z
M 4225 4075 
Q 4050 3775 4200 3562 
Q 4350 3350 4612 3162 
Q 4875 2975 5262 2850 
Q 5650 2725 6125 2700 
Q 5925 2425 5825 2175 
Q 5200 2300 4712 2550 
Q 4225 2800 3900 3350 
Q 3675 2775 3250 2550 
Q 2825 2325 2325 2175 
Q 2125 2400 1925 2575 
Q 2975 2775 3300 3175 
Q 3625 3575 3650 4150 
L 4225 4075 
z
M 3125 4250 
Q 2825 3850 2550 3650 
Q 2375 3825 2175 3950 
Q 2475 4150 2737 4487 
Q 3000 4825 3150 5200 
Q 3375 5100 3700 5050 
Q 3575 4825 3400 4650 
L 5750 4650 
Q 5675 4500 5300 3675 
Q 5000 3750 4800 3775 
Q 4925 4050 5025 4250 
L 3125 4250 
z
M 3525 1375 
Q 3400 1100 3337 825 
Q 3275 550 3012 262 
Q 2750 -25 2250 -275 
Q 1750 -525 800 -675 
Q 725 -425 500 -200 
Q 1225 -175 1712 -12 
Q 2200 150 2450 350 
Q 2700 550 2812 837 
Q 2925 1125 2925 1450 
Q 3225 1400 3525 1375 
z
M 3825 700 
Q 4300 525 4750 350 
Q 5200 175 5825 -100 
Q 5675 -300 5550 -600 
Q 5075 -325 4612 -125 
Q 4150 75 3625 250 
Q 3750 450 3825 700 
z
M 2075 3325 
Q 1450 2750 875 2050 
Q 625 2325 475 2425 
Q 1275 3050 1725 3625 
Q 1850 3500 2075 3325 
z
M 1700 3975 
Q 1300 4275 625 4675 
Q 800 4850 925 5025 
Q 1150 4875 2000 4350 
Q 1850 4200 1700 3975 
z
" transform="scale(0.015625)"/>
       <path id="SimHei-4f59" d="M 3850 3050 
Q 4150 3050 4525 3075 
L 4525 2600 
Q 4225 2625 3850 2625 
L 3450 2625 
L 3450 1825 
L 4475 1825 
Q 5050 1825 5375 1850 
L 5375 1350 
Q 5025 1375 4500 1375 
L 3450 1375 
L 3450 -75 
Q 3450 -450 3187 -525 
Q 2925 -600 2550 -650 
Q 2525 -425 2350 -50 
Q 2825 -75 2887 -25 
Q 2950 25 2950 175 
L 2950 1375 
L 1800 1375 
Q 1225 1375 900 1350 
L 900 1850 
Q 1200 1825 1800 1825 
L 2950 1825 
L 2950 2625 
L 2550 2625 
Q 2325 2625 1825 2600 
L 1825 3075 
Q 2225 3050 2525 3050 
L 3850 3050 
z
M 3400 4850 
Q 4450 3575 6150 3300 
Q 5925 3150 5750 2700 
Q 4150 3250 3100 4550 
Q 2375 3350 800 2400 
Q 450 2725 325 2800 
Q 1475 3325 2112 4100 
Q 2750 4875 2900 5275 
Q 3150 5175 3550 5050 
L 3400 4850 
z
M 2325 700 
Q 2075 500 1625 112 
Q 1175 -275 925 -450 
Q 725 -225 525 -50 
Q 1600 675 1900 1075 
Q 2100 875 2325 700 
z
M 4400 1175 
Q 4750 850 5025 550 
L 5600 0 
Q 5375 -175 5125 -400 
Q 4875 25 4050 850 
Q 4200 950 4400 1175 
z
" transform="scale(0.015625)"/>
       <path id="SimHei-989d" d="M 1925 3700 
Q 1725 3550 1550 3350 
L 2950 3350 
Q 2875 3150 2700 2875 
Q 2525 2600 2300 2300 
Q 2500 2200 2712 2075 
Q 2925 1950 3275 1725 
Q 3125 1575 2950 1325 
Q 2700 1525 2475 1662 
Q 2250 1800 1950 1950 
Q 1575 1650 1150 1375 
L 2800 1375 
Q 2775 950 2775 500 
Q 2775 50 2800 -450 
L 2325 -450 
L 2325 -50 
L 1325 -50 
L 1325 -575 
L 875 -575 
Q 900 -75 900 275 
L 900 1175 
Q 675 1075 550 1000 
Q 400 1225 225 1400 
Q 625 1550 975 1762 
Q 1325 1975 1550 2200 
Q 1300 2350 1075 2475 
Q 1175 2625 1350 2800 
Q 1625 2650 1925 2500 
Q 2150 2750 2300 3000 
L 1300 3000 
Q 1200 2875 1025 2687 
Q 850 2500 650 2275 
Q 475 2425 250 2575 
Q 650 2875 937 3237 
Q 1225 3600 1375 3925 
Q 1650 3800 1925 3700 
z
M 4150 4400 
Q 3775 4400 3375 4375 
L 3375 4825 
Q 3750 4800 4200 4800 
L 5300 4800 
Q 5600 4800 6000 4825 
L 6000 4375 
Q 5625 4400 5300 4400 
L 4950 4400 
Q 4850 3975 4725 3525 
L 5750 3525 
Q 5725 3125 5725 2775 
L 5725 1625 
Q 5725 1300 5750 825 
L 5300 825 
L 5300 3175 
L 3925 3175 
L 3925 800 
L 3450 800 
Q 3475 1275 3475 1650 
L 3475 2800 
Q 3475 3175 3450 3525 
L 4300 3525 
Q 4400 4025 4450 4400 
L 4150 4400 
z
M 2050 5100 
Q 2100 4825 2200 4475 
L 3225 4475 
Q 3200 4275 3200 4075 
Q 3200 3875 3225 3675 
L 2775 3675 
L 2775 4100 
L 875 4100 
L 875 3500 
L 400 3500 
Q 425 3775 425 4000 
Q 425 4250 400 4475 
L 1650 4475 
Q 1550 4750 1475 5000 
Q 1800 5050 2050 5100 
z
M 4925 2725 
Q 4850 2425 4837 2025 
Q 4825 1625 4712 1175 
Q 4600 725 4262 250 
Q 3925 -225 3250 -675 
Q 3050 -425 2850 -250 
Q 3375 -25 3687 262 
Q 4000 550 4162 937 
Q 4325 1325 4350 1750 
Q 4375 2175 4375 2775 
Q 4575 2750 4925 2725 
z
M 2325 325 
L 2325 1025 
L 1325 1025 
L 1325 325 
L 2325 325 
z
M 5075 800 
Q 5300 575 5487 400 
Q 5675 225 6025 -100 
Q 5800 -275 5600 -500 
Q 5450 -275 5275 -87 
Q 5100 100 4675 400 
Q 4875 575 5075 800 
z
" transform="scale(0.015625)"/>
      </defs>
      <use xlink:href="#SimHei-878d"/>
      <use xlink:href="#SimHei-8d44" transform="translate(100 0)"/>
      <use xlink:href="#SimHei-4f59" transform="translate(200 0)"/>
      <use xlink:href="#SimHei-989d" transform="translate(300 0)"/>
     </g>
    </g>
    <g id="line2d_40">
     <path d="M 38.2 58.547656 
L 48.2 58.547656 
L 58.2 58.547656 
" style="fill: none; stroke: #00bfbf; stroke-width: 2; stroke-linecap: square"/>
    </g>
    <g id="text_21">
     <!-- 汇率 -->
     <g style="fill: #c9d1d9" transform="translate(66.2 62.047656) scale(0.1 -0.1)">
      <defs>
       <path id="SimHei-6c47" d="M 4700 4675 
Q 5200 4675 5775 4700 
L 5775 4225 
Q 5200 4250 4700 4250 
L 2950 4250 
L 2950 100 
L 4850 100 
Q 5375 100 5950 125 
L 5950 -375 
Q 5375 -350 4950 -350 
L 2450 -350 
Q 2475 400 2475 825 
L 2475 3625 
Q 2475 4200 2450 4675 
L 4700 4675 
z
M 2175 1550 
Q 1525 525 1300 175 
Q 1075 -175 825 -525 
Q 600 -275 375 -175 
Q 725 225 1062 675 
Q 1400 1125 1800 1900 
Q 1925 1750 2175 1550 
z
M 625 3425 
Q 1175 3150 1800 2750 
Q 1675 2625 1500 2300 
Q 975 2700 350 3000 
Q 475 3150 625 3425 
z
M 950 5050 
Q 1450 4725 2025 4275 
Q 1800 4050 1675 3875 
Q 1175 4350 650 4675 
Q 850 4900 950 5050 
z
" transform="scale(0.015625)"/>
       <path id="SimHei-7387" d="M 3325 5150 
Q 3425 4900 3550 4525 
L 4800 4525 
Q 5250 4525 5800 4550 
L 5800 4125 
Q 5250 4175 4775 4175 
L 2800 4175 
Q 2975 4050 3300 3900 
Q 3075 3750 2875 3537 
Q 2675 3325 2475 3125 
L 3275 3125 
Q 3575 3425 3775 3775 
Q 4000 3600 4275 3425 
Q 3950 3250 3600 2875 
Q 3250 2500 2625 2000 
L 3850 2100 
Q 3725 2250 3600 2425 
Q 3750 2475 4000 2650 
Q 4250 2350 4700 1700 
Q 4475 1625 4225 1450 
Q 4175 1600 4025 1775 
Q 3700 1750 3425 1750 
L 3425 1050 
L 5150 1050 
Q 5675 1050 6100 1075 
L 6100 650 
Q 5700 675 5125 675 
L 3425 675 
L 3425 175 
Q 3425 -300 3450 -625 
L 2900 -625 
Q 2925 -300 2925 175 
L 2925 675 
L 1325 675 
Q 825 675 325 650 
L 325 1075 
Q 825 1050 1350 1050 
L 2925 1050 
L 2925 1700 
Q 2700 1675 2475 1637 
Q 2250 1600 2025 1525 
Q 1950 1775 1850 2000 
Q 2075 2025 2325 2200 
Q 2575 2375 2975 2800 
Q 2300 2725 2025 2625 
Q 1975 2875 1850 3175 
Q 2075 3175 2325 3487 
Q 2575 3800 2750 4175 
L 1700 4175 
Q 1150 4175 650 4125 
L 650 4550 
Q 1150 4525 1550 4525 
L 2975 4525 
Q 2900 4825 2800 5025 
Q 3025 5075 3325 5150 
z
M 1625 2575 
Q 1725 2400 1825 2200 
Q 1575 2050 1325 1862 
Q 1075 1675 800 1425 
Q 625 1675 475 1875 
Q 800 2025 1100 2212 
Q 1400 2400 1625 2575 
z
M 4850 2650 
Q 5125 2475 5337 2337 
Q 5550 2200 5875 1950 
Q 5675 1800 5500 1600 
Q 5300 1775 5062 1975 
Q 4825 2175 4575 2325 
Q 4725 2475 4850 2650 
z
M 5725 3525 
Q 5550 3450 5300 3262 
Q 5050 3075 4800 2825 
Q 4625 3050 4475 3175 
Q 4700 3325 4875 3487 
Q 5050 3650 5300 3925 
Q 5525 3700 5725 3525 
z
M 1050 3850 
Q 1425 3600 1775 3275 
Q 1575 3100 1425 2925 
Q 1075 3300 675 3525 
Q 875 3700 1050 3850 
z
" transform="scale(0.015625)"/>
      </defs>
      <use xlink:href="#SimHei-6c47"/>
      <use xlink:href="#SimHei-7387" transform="translate(100 0)"/>
     </g>
    </g>
    <g id="line2d_41">
     <path d="M 38.2 72.883594 
L 48.2 72.883594 
L 58.2 72.883594 
" style="fill: none; stroke: #ffffff; stroke-width: 2; stroke-linecap: square"/>
    </g>
    <g id="text_22">
     <!-- 中美国债利差 -->
     <g style="fill: #c9d1d9" transform="translate(66.2 76.383594) scale(0.1 -0.1)">
      <defs>
       <path id="SimHei-4e2d" d="M 3475 5200 
Q 3450 4500 3450 3875 
L 5625 3875 
Q 5600 3375 5600 2500 
Q 5600 1650 5625 1225 
L 5075 1225 
L 5075 1600 
L 3450 1600 
L 3450 525 
Q 3450 225 3475 -600 
L 2875 -600 
Q 2925 -150 2925 450 
L 2925 1600 
L 1300 1600 
L 1300 1225 
L 750 1225 
Q 775 1600 775 2500 
Q 775 3425 750 3875 
L 2925 3875 
Q 2925 4550 2900 5200 
L 3475 5200 
z
M 5075 2000 
L 5075 3475 
L 3450 3475 
L 3450 2000 
L 5075 2000 
z
M 2925 2000 
L 2925 3475 
L 1300 3475 
L 1300 2000 
L 2925 2000 
z
" transform="scale(0.015625)"/>
       <path id="SimHei-7f8e" d="M 4650 5000 
Q 4525 4900 4150 4350 
L 4800 4350 
Q 5300 4350 5575 4375 
L 5575 3950 
Q 5300 3975 4800 3975 
L 3450 3975 
L 3450 3375 
L 4475 3375 
Q 4875 3375 5250 3400 
L 5250 3000 
Q 4875 3025 4475 3025 
L 3450 3025 
L 3450 2450 
L 5025 2450 
Q 5500 2450 5900 2475 
L 5900 2050 
Q 5525 2075 5025 2075 
L 1425 2075 
Q 900 2075 525 2050 
L 525 2475 
Q 900 2450 1425 2450 
L 3000 2450 
L 3000 3025 
L 2050 3025 
Q 1625 3025 1200 3000 
L 1200 3400 
Q 1625 3375 2050 3375 
L 3000 3375 
L 3000 3975 
L 1725 3975 
Q 1325 3975 850 3950 
L 850 4375 
Q 1325 4350 1725 4350 
L 2250 4350 
Q 2100 4625 1800 4975 
Q 2000 5100 2175 5225 
L 2700 4550 
Q 2475 4450 2325 4350 
L 3675 4350 
Q 3900 4700 4150 5275 
Q 4350 5125 4650 5000 
z
M 525 -225 
Q 950 -175 1425 -25 
Q 1900 125 2275 412 
Q 2650 700 2800 1050 
L 1875 1050 
Q 1325 1050 725 1025 
L 725 1450 
Q 1325 1425 1875 1425 
L 2900 1425 
Q 2925 1750 2925 1975 
Q 3250 1875 3500 1875 
Q 3425 1650 3375 1425 
L 4600 1425 
Q 5250 1425 5725 1450 
L 5725 1025 
Q 5250 1050 4625 1050 
L 3600 1050 
Q 3900 700 4187 500 
Q 4475 300 4700 200 
Q 4925 100 5225 12 
Q 5525 -75 6050 -150 
Q 5900 -375 5750 -675 
Q 5175 -550 4775 -362 
Q 4375 -175 3962 137 
Q 3550 450 3225 900 
Q 3000 525 2787 300 
Q 2575 75 2250 -125 
Q 1925 -325 1575 -462 
Q 1225 -600 825 -700 
Q 750 -475 525 -225 
z
" transform="scale(0.015625)"/>
       <path id="SimHei-56fd" d="M 5775 4975 
Q 5750 4350 5750 3575 
L 5750 900 
Q 5750 125 5775 -625 
L 5275 -625 
L 5275 -275 
L 1125 -275 
L 1125 -650 
L 625 -650 
Q 650 125 650 950 
L 650 3575 
Q 650 4325 625 4975 
L 5775 4975 
z
M 5275 100 
L 5275 4600 
L 1125 4600 
L 1125 100 
L 5275 100 
z
M 3975 3925 
Q 4350 3925 4775 3950 
L 4775 3500 
Q 4400 3525 3975 3525 
L 3350 3525 
L 3350 2700 
L 3800 2700 
Q 4250 2700 4650 2725 
L 4650 2275 
Q 4250 2300 3800 2300 
L 3350 2300 
L 3350 1175 
L 4050 1175 
Q 4500 1175 4900 1200 
L 4900 750 
Q 4525 775 4050 775 
L 2350 775 
Q 1925 775 1500 750 
L 1500 1200 
Q 1925 1175 2350 1175 
L 2900 1175 
L 2900 2300 
L 2550 2300 
Q 2125 2300 1750 2275 
L 1750 2725 
Q 2125 2700 2550 2700 
L 2900 2700 
L 2900 3525 
L 2525 3525 
Q 2075 3525 1650 3500 
L 1650 3950 
Q 2075 3925 2525 3925 
L 3975 3925 
z
M 4050 2125 
Q 4175 2000 4550 1600 
Q 4300 1450 4125 1325 
Q 4050 1425 3700 1850 
Q 3900 2000 4050 2125 
z
" transform="scale(0.015625)"/>
       <path id="SimHei-503a" d="M 3750 4600 
Q 3750 4900 3725 5200 
L 4275 5200 
Q 4250 4875 4250 4600 
L 5000 4600 
Q 5550 4600 5800 4625 
L 5800 4200 
Q 5525 4225 5000 4225 
L 4250 4225 
L 4250 3850 
L 4875 3850 
Q 5250 3850 5625 3875 
L 5625 3450 
Q 5325 3475 4875 3475 
L 4250 3475 
L 4250 3100 
L 5150 3100 
Q 5725 3100 6050 3125 
L 6050 2700 
Q 5675 2725 5150 2725 
L 2875 2725 
Q 2400 2725 2000 2700 
L 2000 3125 
Q 2375 3100 2850 3100 
L 3750 3100 
L 3750 3475 
L 3325 3475 
Q 2850 3475 2500 3450 
L 2500 3875 
Q 2850 3850 3300 3850 
L 3750 3850 
L 3750 4225 
L 3225 4225 
Q 2675 4225 2300 4200 
L 2300 4625 
Q 2650 4600 3125 4600 
L 3750 4600 
z
M 250 2600 
Q 500 2875 887 3550 
Q 1275 4225 1500 5075 
Q 1750 4950 2100 4850 
Q 1900 4625 1550 3775 
L 1550 800 
Q 1550 -25 1575 -500 
L 1050 -500 
Q 1075 0 1075 825 
L 1075 2950 
Q 775 2450 625 2225 
L 250 2600 
z
M 5650 2300 
Q 5625 2100 5625 1550 
Q 5625 1025 5650 775 
L 5150 775 
L 5150 1925 
L 2975 1925 
L 2975 700 
L 2475 700 
Q 2500 1075 2500 1550 
Q 2500 2050 2475 2300 
L 5650 2300 
z
M 1950 -150 
Q 3250 25 3562 562 
Q 3875 1100 3800 1650 
L 4350 1600 
Q 4275 600 3825 112 
Q 3375 -375 2250 -600 
Q 2125 -350 1950 -150 
z
M 4675 675 
Q 5075 475 5412 300 
Q 5750 125 6050 -75 
Q 5900 -250 5750 -525 
Q 4875 125 4400 300 
Q 4525 500 4675 675 
z
" transform="scale(0.015625)"/>
       <path id="SimHei-5229" d="M 2400 2650 
Q 2950 2150 3500 1525 
Q 3325 1375 3125 1150 
Q 2775 1675 2400 2075 
L 2400 225 
Q 2400 -375 2425 -675 
L 1875 -675 
Q 1900 -350 1900 225 
L 1900 1975 
Q 1625 1450 1375 1100 
Q 1125 750 725 275 
Q 575 525 300 700 
Q 850 1150 1287 1837 
Q 1725 2525 1850 2950 
L 1375 2950 
Q 775 2950 500 2925 
L 500 3400 
Q 800 3375 1375 3375 
L 1900 3375 
L 1900 4350 
Q 1400 4250 825 4150 
Q 750 4400 625 4625 
Q 1050 4650 1800 4800 
Q 2550 4950 3225 5175 
Q 3350 4875 3550 4650 
Q 3050 4575 2400 4450 
L 2400 3375 
L 2825 3375 
Q 3350 3375 3750 3400 
L 3750 2925 
Q 3350 2950 2850 2950 
L 2400 2950 
L 2400 2650 
z
M 5775 5125 
Q 5750 4875 5750 4275 
L 5750 -100 
Q 5750 -400 5512 -487 
Q 5275 -575 4675 -675 
Q 4600 -300 4500 -75 
Q 5025 -100 5137 -50 
Q 5250 0 5250 150 
L 5250 4300 
Q 5250 4650 5225 5125 
L 5775 5125 
z
M 4625 4100 
Q 4600 3800 4600 3300 
L 4600 1725 
Q 4600 1200 4625 825 
L 4075 825 
Q 4100 1275 4100 1725 
L 4100 3300 
Q 4100 3700 4075 4100 
L 4625 4100 
z
" transform="scale(0.015625)"/>
       <path id="SimHei-5dee" d="M 4725 4975 
Q 4500 4725 4250 4275 
L 4850 4275 
Q 5450 4275 5825 4300 
L 5825 3850 
Q 5425 3875 4850 3875 
L 3275 3875 
Q 3225 3600 3150 3275 
L 4525 3275 
Q 5075 3275 5525 3300 
L 5525 2850 
Q 5075 2875 4500 2875 
L 3050 2875 
Q 2975 2650 2850 2325 
L 5125 2325 
Q 5675 2325 6025 2350 
L 6025 1900 
Q 5700 1925 5150 1925 
L 2650 1925 
Q 2425 1550 2250 1300 
Q 2650 1275 3100 1275 
L 4525 1275 
Q 4975 1275 5350 1300 
L 5350 850 
Q 4975 875 4575 875 
L 3925 875 
L 3925 -50 
L 5000 -50 
Q 5200 -50 5900 -25 
L 5900 -500 
Q 5275 -475 5025 -475 
L 2100 -475 
Q 1700 -475 1400 -500 
L 1400 -25 
Q 1775 -50 2125 -50 
L 3425 -50 
L 3425 875 
L 3100 875 
Q 2625 875 2175 850 
L 2175 1200 
Q 1925 875 1487 475 
Q 1050 75 625 -250 
Q 425 -25 200 150 
Q 750 475 1262 925 
Q 1775 1375 2100 1925 
L 1325 1925 
Q 750 1925 375 1900 
L 375 2350 
Q 750 2325 1350 2325 
L 2325 2325 
Q 2450 2575 2550 2875 
L 1725 2875 
Q 1375 2875 1000 2850 
L 1000 3300 
Q 1500 3275 1700 3275 
L 2650 3275 
Q 2725 3575 2775 3875 
L 1500 3875 
Q 1100 3875 650 3850 
L 650 4300 
Q 1025 4275 1425 4275 
L 2275 4275 
Q 2075 4675 1850 4950 
Q 2025 5050 2250 5225 
Q 2450 4975 2725 4550 
Q 2525 4450 2325 4275 
L 3750 4275 
Q 4000 4700 4150 5250 
Q 4400 5100 4725 4975 
z
" transform="scale(0.015625)"/>
      </defs>
      <use xlink:href="#SimHei-4e2d"/>
      <use xlink:href="#SimHei-7f8e" transform="translate(100 0)"/>
      <use xlink:href="#SimHei-56fd" transform="translate(200 0)"/>
      <use xlink:href="#SimHei-503a" transform="translate(300 0)"/>
      <use xlink:href="#SimHei-5229" transform="translate(400 0)"/>
      <use xlink:href="#SimHei-5dee" transform="translate(500 0)"/>
     </g>
    </g>
    <g id="line2d_42">
     <path d="M 38.2 86.133594 
L 48.2 86.133594 
L 58.2 86.133594 
" style="fill: none; stroke: #ff0000; stroke-width: 2; stroke-linecap: square"/>
    </g>
    <g id="text_23">
     <!-- 500ETF -->
     <g style="fill: #c9d1d9" transform="translate(66.2 89.633594) scale(0.1 -0.1)">
      <defs>
       <path id="SimHei-45" d="M 2900 125 
L 350 125 
L 350 4400 
L 2775 4400 
L 2775 3925 
L 925 3925 
L 925 2600 
L 2625 2600 
L 2625 2125 
L 925 2125 
L 925 600 
L 2900 600 
L 2900 125 
z
" transform="scale(0.015625)"/>
       <path id="SimHei-54" d="M 2850 3925 
L 1850 3925 
L 1850 125 
L 1275 125 
L 1275 3925 
L 275 3925 
L 275 4400 
L 2850 4400 
L 2850 3925 
z
" transform="scale(0.015625)"/>
       <path id="SimHei-46" d="M 2925 3925 
L 875 3925 
L 875 2525 
L 2425 2525 
L 2425 2050 
L 875 2050 
L 875 125 
L 300 125 
L 300 4400 
L 2925 4400 
L 2925 3925 
z
" transform="scale(0.015625)"/>
      </defs>
      <use xlink:href="#SimHei-35"/>
      <use xlink:href="#SimHei-30" transform="translate(50 0)"/>
      <use xlink:href="#SimHei-30" transform="translate(100 0)"/>
      <use xlink:href="#SimHei-45" transform="translate(150 0)"/>
      <use xlink:href="#SimHei-54" transform="translate(200 0)"/>
      <use xlink:href="#SimHei-46" transform="translate(250 0)"/>
     </g>
    </g>
   </g>
  </g>
 </g>
 <defs>
  <clipPath id="p944b2e05aa">
   <rect x="29.2" y="30.977344" width="1025.28" height="525.6"/>
  </clipPath>
 </defs>
</svg>
