<?xml version="1.0" encoding="utf-8" standalone="no"?>
<!DOCTYPE svg PUBLIC "-//W3C//DTD SVG 1.1//EN"
  "http://www.w3.org/Graphics/SVG/1.1/DTD/svg11.dtd">
<svg xmlns:xlink="http://www.w3.org/1999/xlink" width="1072.990766pt" height="595.606769pt" viewBox="0 0 1072.990766 595.606769" xmlns="http://www.w3.org/2000/svg" version="1.1">
 <metadata>
  <rdf:RDF xmlns:dc="http://purl.org/dc/elements/1.1/" xmlns:cc="http://creativecommons.org/ns#" xmlns:rdf="http://www.w3.org/1999/02/22-rdf-syntax-ns#">
   <cc:Work>
    <dc:type rdf:resource="http://purl.org/dc/dcmitype/StillImage"/>
    <dc:date>2026-07-21T22:26:44.422492</dc:date>
    <dc:format>image/svg+xml</dc:format>
    <dc:creator>
     <cc:Agent>
      <dc:title>Matplotlib v3.10.9, https://matplotlib.org/</dc:title>
     </cc:Agent>
    </dc:creator>
   </cc:Work>
  </rdf:RDF>
 </metadata>
 <defs>
  <style type="text/css">*{stroke-linejoin: round; stroke-linecap: butt}</style>
 </defs>
 <g id="figure_1">
  <g id="patch_1">
   <path d="M 0 595.606769 
L 1072.990766 595.606769 
L 1072.990766 0 
L 0 0 
z
" style="fill: #0d1117"/>
  </g>
  <g id="axes_1">
   <g id="patch_2">
    <path d="M 40.510766 556.870312 
L 1065.790766 556.870312 
L 1065.790766 31.270312 
L 40.510766 31.270312 
z
" style="fill: #161b22"/>
   </g>
   <g id="matplotlib.axis_1">
    <g id="xtick_1">
     <g id="line2d_1">
      <path d="M 41.573389 556.870312 
L 41.573389 31.270312 
" clip-path="url(#p10b8ea2546)" style="fill: none; stroke-dasharray: 2.96,1.28; stroke-dashoffset: 0; stroke: #21262d; stroke-opacity: 0.4; stroke-width: 0.8"/>
     </g>
     <g id="line2d_2">
      <defs>
       <path id="md81b7879da" d="M 0 0 
L 0 3.5 
" style="stroke: #c9d1d9; stroke-width: 0.8"/>
      </defs>
      <g>
       <use xlink:href="#md81b7879da" x="41.573389" y="556.870312" style="fill: #c9d1d9; stroke: #c9d1d9; stroke-width: 0.8"/>
      </g>
     </g>
     <g id="text_1">
      <!-- 2025-09 -->
      <g style="fill: #c9d1d9" transform="translate(10.6375 587.324237) rotate(-30) scale(0.1 -0.1)">
       <defs>
        <path id="SimHei-32" d="M 300 250 
Q 325 625 650 925 
Q 975 1225 1475 1862 
Q 1975 2500 2125 2850 
Q 2275 3200 2237 3450 
Q 2200 3700 2000 3862 
Q 1800 4025 1537 4000 
Q 1275 3975 1037 3800 
Q 800 3625 675 3275 
L 200 3350 
Q 400 3925 712 4187 
Q 1025 4450 1450 4475 
Q 1700 4500 1900 4462 
Q 2100 4425 2312 4287 
Q 2525 4150 2662 3875 
Q 2800 3600 2762 3212 
Q 2725 2825 2375 2287 
Q 2025 1750 1025 600 
L 2825 600 
L 2825 150 
L 300 150 
L 300 250 
z
" transform="scale(0.015625)"/>
        <path id="SimHei-30" d="M 225 2537 
Q 250 3200 412 3587 
Q 575 3975 875 4225 
Q 1175 4475 1612 4475 
Q 2050 4475 2375 4112 
Q 2700 3750 2800 3200 
Q 2900 2650 2862 1937 
Q 2825 1225 2612 775 
Q 2400 325 1975 150 
Q 1550 -25 1125 187 
Q 700 400 525 750 
Q 350 1100 275 1487 
Q 200 1875 225 2537 
z
M 750 2687 
Q 675 2000 800 1462 
Q 925 925 1212 700 
Q 1500 475 1800 612 
Q 2100 750 2237 1162 
Q 2375 1575 2375 2062 
Q 2375 2550 2337 2950 
Q 2300 3350 2112 3675 
Q 1925 4000 1612 4012 
Q 1300 4025 1062 3700 
Q 825 3375 750 2687 
z
" transform="scale(0.015625)"/>
        <path id="SimHei-35" d="M 550 1325 
Q 725 650 1150 575 
Q 1575 500 1837 662 
Q 2100 825 2212 1087 
Q 2325 1350 2312 1675 
Q 2300 2000 2137 2225 
Q 1975 2450 1725 2525 
Q 1475 2600 1162 2525 
Q 850 2450 650 2175 
L 225 2225 
Q 275 2375 700 4375 
L 2675 4375 
L 2675 3925 
L 1075 3925 
Q 950 3250 825 2850 
Q 1200 3025 1525 3012 
Q 1850 3000 2150 2862 
Q 2450 2725 2587 2487 
Q 2725 2250 2787 2012 
Q 2850 1775 2837 1500 
Q 2825 1225 2725 937 
Q 2625 650 2425 462 
Q 2225 275 1937 162 
Q 1650 50 1275 75 
Q 900 100 562 350 
Q 225 600 100 1200 
L 550 1325 
z
" transform="scale(0.015625)"/>
        <path id="SimHei-2d" d="M 2975 2125 
L 125 2125 
L 125 2525 
L 2975 2525 
L 2975 2125 
z
" transform="scale(0.015625)"/>
        <path id="SimHei-39" d="M 800 75 
Q 1350 1000 1700 1750 
Q 1075 1650 662 1912 
Q 250 2175 162 2625 
Q 75 3075 175 3437 
Q 275 3800 487 4037 
Q 700 4275 1000 4375 
Q 1300 4475 1537 4475 
Q 1775 4475 2025 4375 
Q 2275 4275 2475 4075 
Q 2675 3875 2750 3662 
Q 2825 3450 2825 3112 
Q 2825 2775 2575 2250 
Q 2325 1725 1350 75 
L 800 75 
z
M 662 2875 
Q 700 2550 937 2337 
Q 1175 2125 1450 2150 
Q 1725 2175 1887 2300 
Q 2050 2425 2200 2725 
Q 2300 3100 2250 3362 
Q 2200 3625 1987 3800 
Q 1775 3975 1525 3975 
Q 1375 4000 1137 3900 
Q 900 3800 762 3500 
Q 625 3200 662 2875 
z
" transform="scale(0.015625)"/>
       </defs>
       <use xlink:href="#SimHei-32"/>
       <use xlink:href="#SimHei-30" transform="translate(50 0)"/>
       <use xlink:href="#SimHei-32" transform="translate(100 0)"/>
       <use xlink:href="#SimHei-35" transform="translate(150 0)"/>
       <use xlink:href="#SimHei-2d" transform="translate(200 0)"/>
       <use xlink:href="#SimHei-30" transform="translate(250 0)"/>
       <use xlink:href="#SimHei-39" transform="translate(300 0)"/>
      </g>
     </g>
    </g>
    <g id="xtick_2">
     <g id="line2d_3">
      <path d="M 132.655415 556.870312 
L 132.655415 31.270312 
" clip-path="url(#p10b8ea2546)" style="fill: none; stroke-dasharray: 2.96,1.28; stroke-dashoffset: 0; stroke: #21262d; stroke-opacity: 0.4; stroke-width: 0.8"/>
     </g>
     <g id="line2d_4">
      <g>
       <use xlink:href="#md81b7879da" x="132.655415" y="556.870312" style="fill: #c9d1d9; stroke: #c9d1d9; stroke-width: 0.8"/>
      </g>
     </g>
     <g id="text_2">
      <!-- 2025-10 -->
      <g style="fill: #c9d1d9" transform="translate(101.719525 587.324237) rotate(-30) scale(0.1 -0.1)">
       <defs>
        <path id="SimHei-31" d="M 1400 3600 
Q 1075 3275 575 2975 
L 575 3450 
Q 1200 3875 1600 4450 
L 1900 4450 
L 1900 150 
L 1400 150 
L 1400 3600 
z
" transform="scale(0.015625)"/>
       </defs>
       <use xlink:href="#SimHei-32"/>
       <use xlink:href="#SimHei-30" transform="translate(50 0)"/>
       <use xlink:href="#SimHei-32" transform="translate(100 0)"/>
       <use xlink:href="#SimHei-35" transform="translate(150 0)"/>
       <use xlink:href="#SimHei-2d" transform="translate(200 0)"/>
       <use xlink:href="#SimHei-31" transform="translate(250 0)"/>
       <use xlink:href="#SimHei-30" transform="translate(300 0)"/>
      </g>
     </g>
    </g>
    <g id="xtick_3">
     <g id="line2d_5">
      <path d="M 226.773508 556.870312 
L 226.773508 31.270312 
" clip-path="url(#p10b8ea2546)" style="fill: none; stroke-dasharray: 2.96,1.28; stroke-dashoffset: 0; stroke: #21262d; stroke-opacity: 0.4; stroke-width: 0.8"/>
     </g>
     <g id="line2d_6">
      <g>
       <use xlink:href="#md81b7879da" x="226.773508" y="556.870312" style="fill: #c9d1d9; stroke: #c9d1d9; stroke-width: 0.8"/>
      </g>
     </g>
     <g id="text_3">
      <!-- 2025-11 -->
      <g style="fill: #c9d1d9" transform="translate(195.837618 587.324237) rotate(-30) scale(0.1 -0.1)">
       <use xlink:href="#SimHei-32"/>
       <use xlink:href="#SimHei-30" transform="translate(50 0)"/>
       <use xlink:href="#SimHei-32" transform="translate(100 0)"/>
       <use xlink:href="#SimHei-35" transform="translate(150 0)"/>
       <use xlink:href="#SimHei-2d" transform="translate(200 0)"/>
       <use xlink:href="#SimHei-31" transform="translate(250 0)"/>
       <use xlink:href="#SimHei-31" transform="translate(300 0)"/>
      </g>
     </g>
    </g>
    <g id="xtick_4">
     <g id="line2d_7">
      <path d="M 317.855533 556.870312 
L 317.855533 31.270312 
" clip-path="url(#p10b8ea2546)" style="fill: none; stroke-dasharray: 2.96,1.28; stroke-dashoffset: 0; stroke: #21262d; stroke-opacity: 0.4; stroke-width: 0.8"/>
     </g>
     <g id="line2d_8">
      <g>
       <use xlink:href="#md81b7879da" x="317.855533" y="556.870312" style="fill: #c9d1d9; stroke: #c9d1d9; stroke-width: 0.8"/>
      </g>
     </g>
     <g id="text_4">
      <!-- 2025-12 -->
      <g style="fill: #c9d1d9" transform="translate(286.919644 587.324237) rotate(-30) scale(0.1 -0.1)">
       <use xlink:href="#SimHei-32"/>
       <use xlink:href="#SimHei-30" transform="translate(50 0)"/>
       <use xlink:href="#SimHei-32" transform="translate(100 0)"/>
       <use xlink:href="#SimHei-35" transform="translate(150 0)"/>
       <use xlink:href="#SimHei-2d" transform="translate(200 0)"/>
       <use xlink:href="#SimHei-31" transform="translate(250 0)"/>
       <use xlink:href="#SimHei-32" transform="translate(300 0)"/>
      </g>
     </g>
    </g>
    <g id="xtick_5">
     <g id="line2d_9">
      <path d="M 411.973626 556.870312 
L 411.973626 31.270312 
" clip-path="url(#p10b8ea2546)" style="fill: none; stroke-dasharray: 2.96,1.28; stroke-dashoffset: 0; stroke: #21262d; stroke-opacity: 0.4; stroke-width: 0.8"/>
     </g>
     <g id="line2d_10">
      <g>
       <use xlink:href="#md81b7879da" x="411.973626" y="556.870312" style="fill: #c9d1d9; stroke: #c9d1d9; stroke-width: 0.8"/>
      </g>
     </g>
     <g id="text_5">
      <!-- 2026-01 -->
      <g style="fill: #c9d1d9" transform="translate(381.037737 587.324237) rotate(-30) scale(0.1 -0.1)">
       <defs>
        <path id="SimHei-36" d="M 250 1612 
Q 275 1975 387 2225 
Q 500 2475 725 2850 
L 1750 4450 
L 2325 4450 
L 1275 2800 
Q 1950 2975 2350 2750 
Q 2750 2525 2887 2237 
Q 3025 1950 3037 1612 
Q 3050 1275 2937 950 
Q 2825 625 2537 362 
Q 2250 100 1737 75 
Q 1225 50 862 262 
Q 500 475 362 862 
Q 225 1250 250 1612 
z
M 1025 787 
Q 1250 550 1625 525 
Q 2000 500 2250 775 
Q 2500 1050 2500 1575 
Q 2500 2100 2187 2300 
Q 1875 2500 1487 2450 
Q 1100 2400 925 2075 
Q 750 1750 775 1387 
Q 800 1025 1025 787 
z
" transform="scale(0.015625)"/>
       </defs>
       <use xlink:href="#SimHei-32"/>
       <use xlink:href="#SimHei-30" transform="translate(50 0)"/>
       <use xlink:href="#SimHei-32" transform="translate(100 0)"/>
       <use xlink:href="#SimHei-36" transform="translate(150 0)"/>
       <use xlink:href="#SimHei-2d" transform="translate(200 0)"/>
       <use xlink:href="#SimHei-30" transform="translate(250 0)"/>
       <use xlink:href="#SimHei-31" transform="translate(300 0)"/>
      </g>
     </g>
    </g>
    <g id="xtick_6">
     <g id="line2d_11">
      <path d="M 506.091719 556.870312 
L 506.091719 31.270312 
" clip-path="url(#p10b8ea2546)" style="fill: none; stroke-dasharray: 2.96,1.28; stroke-dashoffset: 0; stroke: #21262d; stroke-opacity: 0.4; stroke-width: 0.8"/>
     </g>
     <g id="line2d_12">
      <g>
       <use xlink:href="#md81b7879da" x="506.091719" y="556.870312" style="fill: #c9d1d9; stroke: #c9d1d9; stroke-width: 0.8"/>
      </g>
     </g>
     <g id="text_6">
      <!-- 2026-02 -->
      <g style="fill: #c9d1d9" transform="translate(475.15583 587.324237) rotate(-30) scale(0.1 -0.1)">
       <use xlink:href="#SimHei-32"/>
       <use xlink:href="#SimHei-30" transform="translate(50 0)"/>
       <use xlink:href="#SimHei-32" transform="translate(100 0)"/>
       <use xlink:href="#SimHei-36" transform="translate(150 0)"/>
       <use xlink:href="#SimHei-2d" transform="translate(200 0)"/>
       <use xlink:href="#SimHei-30" transform="translate(250 0)"/>
       <use xlink:href="#SimHei-32" transform="translate(300 0)"/>
      </g>
     </g>
    </g>
    <g id="xtick_7">
     <g id="line2d_13">
      <path d="M 591.101609 556.870312 
L 591.101609 31.270312 
" clip-path="url(#p10b8ea2546)" style="fill: none; stroke-dasharray: 2.96,1.28; stroke-dashoffset: 0; stroke: #21262d; stroke-opacity: 0.4; stroke-width: 0.8"/>
     </g>
     <g id="line2d_14">
      <g>
       <use xlink:href="#md81b7879da" x="591.101609" y="556.870312" style="fill: #c9d1d9; stroke: #c9d1d9; stroke-width: 0.8"/>
      </g>
     </g>
     <g id="text_7">
      <!-- 2026-03 -->
      <g style="fill: #c9d1d9" transform="translate(560.16572 587.324237) rotate(-30) scale(0.1 -0.1)">
       <defs>
        <path id="SimHei-33" d="M 250 1225 
L 700 1300 
Q 800 975 1025 762 
Q 1250 550 1587 562 
Q 1925 575 2125 837 
Q 2325 1100 2300 1437 
Q 2275 1775 2037 1962 
Q 1800 2150 1275 2225 
L 1275 2550 
Q 1800 2600 2037 2825 
Q 2275 3050 2250 3412 
Q 2225 3775 1925 3937 
Q 1625 4100 1287 3975 
Q 950 3850 750 3275 
L 300 3350 
Q 450 3800 712 4100 
Q 975 4400 1425 4450 
Q 1875 4500 2212 4337 
Q 2550 4175 2687 3837 
Q 2825 3500 2725 3100 
Q 2625 2700 2150 2400 
Q 2500 2250 2687 1950 
Q 2875 1650 2812 1162 
Q 2750 675 2375 375 
Q 2000 75 1525 87 
Q 1050 100 700 387 
Q 350 675 250 1225 
z
" transform="scale(0.015625)"/>
       </defs>
       <use xlink:href="#SimHei-32"/>
       <use xlink:href="#SimHei-30" transform="translate(50 0)"/>
       <use xlink:href="#SimHei-32" transform="translate(100 0)"/>
       <use xlink:href="#SimHei-36" transform="translate(150 0)"/>
       <use xlink:href="#SimHei-2d" transform="translate(200 0)"/>
       <use xlink:href="#SimHei-30" transform="translate(250 0)"/>
       <use xlink:href="#SimHei-33" transform="translate(300 0)"/>
      </g>
     </g>
    </g>
    <g id="xtick_8">
     <g id="line2d_15">
      <path d="M 685.219702 556.870312 
L 685.219702 31.270312 
" clip-path="url(#p10b8ea2546)" style="fill: none; stroke-dasharray: 2.96,1.28; stroke-dashoffset: 0; stroke: #21262d; stroke-opacity: 0.4; stroke-width: 0.8"/>
     </g>
     <g id="line2d_16">
      <g>
       <use xlink:href="#md81b7879da" x="685.219702" y="556.870312" style="fill: #c9d1d9; stroke: #c9d1d9; stroke-width: 0.8"/>
      </g>
     </g>
     <g id="text_8">
      <!-- 2026-04 -->
      <g style="fill: #c9d1d9" transform="translate(654.283813 587.324237) rotate(-30) scale(0.1 -0.1)">
       <defs>
        <path id="SimHei-34" d="M 2000 1100 
L 75 1100 
L 75 1525 
L 2100 4450 
L 2475 4450 
L 2475 1525 
L 3075 1525 
L 3075 1100 
L 2475 1100 
L 2475 150 
L 2000 150 
L 2000 1100 
z
M 2000 1525 
L 2000 3500 
L 600 1525 
L 2000 1525 
z
" transform="scale(0.015625)"/>
       </defs>
       <use xlink:href="#SimHei-32"/>
       <use xlink:href="#SimHei-30" transform="translate(50 0)"/>
       <use xlink:href="#SimHei-32" transform="translate(100 0)"/>
       <use xlink:href="#SimHei-36" transform="translate(150 0)"/>
       <use xlink:href="#SimHei-2d" transform="translate(200 0)"/>
       <use xlink:href="#SimHei-30" transform="translate(250 0)"/>
       <use xlink:href="#SimHei-34" transform="translate(300 0)"/>
      </g>
     </g>
    </g>
    <g id="xtick_9">
     <g id="line2d_17">
      <path d="M 776.301728 556.870312 
L 776.301728 31.270312 
" clip-path="url(#p10b8ea2546)" style="fill: none; stroke-dasharray: 2.96,1.28; stroke-dashoffset: 0; stroke: #21262d; stroke-opacity: 0.4; stroke-width: 0.8"/>
     </g>
     <g id="line2d_18">
      <g>
       <use xlink:href="#md81b7879da" x="776.301728" y="556.870312" style="fill: #c9d1d9; stroke: #c9d1d9; stroke-width: 0.8"/>
      </g>
     </g>
     <g id="text_9">
      <!-- 2026-05 -->
      <g style="fill: #c9d1d9" transform="translate(745.365839 587.324237) rotate(-30) scale(0.1 -0.1)">
       <use xlink:href="#SimHei-32"/>
       <use xlink:href="#SimHei-30" transform="translate(50 0)"/>
       <use xlink:href="#SimHei-32" transform="translate(100 0)"/>
       <use xlink:href="#SimHei-36" transform="translate(150 0)"/>
       <use xlink:href="#SimHei-2d" transform="translate(200 0)"/>
       <use xlink:href="#SimHei-30" transform="translate(250 0)"/>
       <use xlink:href="#SimHei-35" transform="translate(300 0)"/>
      </g>
     </g>
    </g>
    <g id="xtick_10">
     <g id="line2d_19">
      <path d="M 870.419821 556.870312 
L 870.419821 31.270312 
" clip-path="url(#p10b8ea2546)" style="fill: none; stroke-dasharray: 2.96,1.28; stroke-dashoffset: 0; stroke: #21262d; stroke-opacity: 0.4; stroke-width: 0.8"/>
     </g>
     <g id="line2d_20">
      <g>
       <use xlink:href="#md81b7879da" x="870.419821" y="556.870312" style="fill: #c9d1d9; stroke: #c9d1d9; stroke-width: 0.8"/>
      </g>
     </g>
     <g id="text_10">
      <!-- 2026-06 -->
      <g style="fill: #c9d1d9" transform="translate(839.483932 587.324237) rotate(-30) scale(0.1 -0.1)">
       <use xlink:href="#SimHei-32"/>
       <use xlink:href="#SimHei-30" transform="translate(50 0)"/>
       <use xlink:href="#SimHei-32" transform="translate(100 0)"/>
       <use xlink:href="#SimHei-36" transform="translate(150 0)"/>
       <use xlink:href="#SimHei-2d" transform="translate(200 0)"/>
       <use xlink:href="#SimHei-30" transform="translate(250 0)"/>
       <use xlink:href="#SimHei-36" transform="translate(300 0)"/>
      </g>
     </g>
    </g>
    <g id="xtick_11">
     <g id="line2d_21">
      <path d="M 961.501846 556.870312 
L 961.501846 31.270312 
" clip-path="url(#p10b8ea2546)" style="fill: none; stroke-dasharray: 2.96,1.28; stroke-dashoffset: 0; stroke: #21262d; stroke-opacity: 0.4; stroke-width: 0.8"/>
     </g>
     <g id="line2d_22">
      <g>
       <use xlink:href="#md81b7879da" x="961.501846" y="556.870312" style="fill: #c9d1d9; stroke: #c9d1d9; stroke-width: 0.8"/>
      </g>
     </g>
     <g id="text_11">
      <!-- 2026-07 -->
      <g style="fill: #c9d1d9" transform="translate(930.565957 587.324237) rotate(-30) scale(0.1 -0.1)">
       <defs>
        <path id="SimHei-37" d="M 850 150 
Q 1300 2050 2425 3925 
L 275 3925 
L 275 4375 
L 2950 4375 
L 2950 3950 
Q 1775 2050 1400 150 
L 850 150 
z
" transform="scale(0.015625)"/>
       </defs>
       <use xlink:href="#SimHei-32"/>
       <use xlink:href="#SimHei-30" transform="translate(50 0)"/>
       <use xlink:href="#SimHei-32" transform="translate(100 0)"/>
       <use xlink:href="#SimHei-36" transform="translate(150 0)"/>
       <use xlink:href="#SimHei-2d" transform="translate(200 0)"/>
       <use xlink:href="#SimHei-30" transform="translate(250 0)"/>
       <use xlink:href="#SimHei-37" transform="translate(300 0)"/>
      </g>
     </g>
    </g>
    <g id="xtick_12">
     <g id="line2d_23">
      <path d="M 1055.619939 556.870312 
L 1055.619939 31.270312 
" clip-path="url(#p10b8ea2546)" style="fill: none; stroke-dasharray: 2.96,1.28; stroke-dashoffset: 0; stroke: #21262d; stroke-opacity: 0.4; stroke-width: 0.8"/>
     </g>
     <g id="line2d_24">
      <g>
       <use xlink:href="#md81b7879da" x="1055.619939" y="556.870312" style="fill: #c9d1d9; stroke: #c9d1d9; stroke-width: 0.8"/>
      </g>
     </g>
     <g id="text_12">
      <!-- 2026-08 -->
      <g style="fill: #c9d1d9" transform="translate(1024.68405 587.324237) rotate(-30) scale(0.1 -0.1)">
       <defs>
        <path id="SimHei-38" d="M 175 1375 
Q 175 1675 325 1962 
Q 475 2250 825 2425 
Q 525 2600 425 2812 
Q 325 3025 312 3300 
Q 300 3575 387 3775 
Q 475 3975 650 4150 
Q 825 4325 1037 4387 
Q 1250 4450 1500 4450 
Q 1750 4450 1950 4400 
Q 2150 4350 2375 4187 
Q 2600 4025 2700 3725 
Q 2800 3425 2687 3025 
Q 2575 2625 2100 2400 
Q 2525 2275 2700 2012 
Q 2875 1750 2875 1375 
Q 2875 1000 2762 775 
Q 2650 550 2512 400 
Q 2375 250 2137 162 
Q 1900 75 1537 75 
Q 1175 75 912 162 
Q 650 250 475 425 
Q 300 600 237 837 
Q 175 1075 175 1375 
z
M 687 1400 
Q 675 1100 787 875 
Q 900 650 1200 587 
Q 1500 525 1825 600 
Q 2150 675 2275 950 
Q 2400 1225 2362 1500 
Q 2325 1775 2050 1962 
Q 1775 2150 1450 2125 
Q 1125 2100 912 1900 
Q 700 1700 687 1400 
z
M 775 3350 
Q 775 3100 950 2875 
Q 1125 2650 1500 2650 
Q 1875 2650 2062 2875 
Q 2250 3100 2237 3412 
Q 2225 3725 2012 3875 
Q 1800 4025 1437 4000 
Q 1075 3975 925 3787 
Q 775 3600 775 3350 
z
" transform="scale(0.015625)"/>
       </defs>
       <use xlink:href="#SimHei-32"/>
       <use xlink:href="#SimHei-30" transform="translate(50 0)"/>
       <use xlink:href="#SimHei-32" transform="translate(100 0)"/>
       <use xlink:href="#SimHei-36" transform="translate(150 0)"/>
       <use xlink:href="#SimHei-2d" transform="translate(200 0)"/>
       <use xlink:href="#SimHei-30" transform="translate(250 0)"/>
       <use xlink:href="#SimHei-38" transform="translate(300 0)"/>
      </g>
     </g>
    </g>
   </g>
   <g id="matplotlib.axis_2">
    <g id="ytick_1">
     <g id="line2d_25">
      <path d="M 40.510766 532.979403 
L 1065.790766 532.979403 
" clip-path="url(#p10b8ea2546)" style="fill: none; stroke-dasharray: 2.96,1.28; stroke-dashoffset: 0; stroke: #21262d; stroke-opacity: 0.4; stroke-width: 0.8"/>
     </g>
     <g id="line2d_26">
      <defs>
       <path id="m612a71e431" d="M 0 0 
L -3.5 0 
" style="stroke: #c9d1d9; stroke-width: 0.8"/>
      </defs>
      <g>
       <use xlink:href="#m612a71e431" x="40.510766" y="532.979403" style="fill: #c9d1d9; stroke: #c9d1d9; stroke-width: 0.8"/>
      </g>
     </g>
     <g id="text_13">
      <!-- 0.0 -->
      <g style="fill: #c9d1d9" transform="translate(18.510766 536.416903) scale(0.1 -0.1)">
       <defs>
        <path id="SimHei-2e" d="M 1075 125 
L 500 125 
L 500 675 
L 1075 675 
L 1075 125 
z
" transform="scale(0.015625)"/>
       </defs>
       <use xlink:href="#SimHei-30"/>
       <use xlink:href="#SimHei-2e" transform="translate(50 0)"/>
       <use xlink:href="#SimHei-30" transform="translate(100 0)"/>
      </g>
     </g>
    </g>
    <g id="ytick_2">
     <g id="line2d_27">
      <path d="M 40.510766 437.415767 
L 1065.790766 437.415767 
" clip-path="url(#p10b8ea2546)" style="fill: none; stroke-dasharray: 2.96,1.28; stroke-dashoffset: 0; stroke: #21262d; stroke-opacity: 0.4; stroke-width: 0.8"/>
     </g>
     <g id="line2d_28">
      <g>
       <use xlink:href="#m612a71e431" x="40.510766" y="437.415767" style="fill: #c9d1d9; stroke: #c9d1d9; stroke-width: 0.8"/>
      </g>
     </g>
     <g id="text_14">
      <!-- 0.2 -->
      <g style="fill: #c9d1d9" transform="translate(18.510766 440.853267) scale(0.1 -0.1)">
       <use xlink:href="#SimHei-30"/>
       <use xlink:href="#SimHei-2e" transform="translate(50 0)"/>
       <use xlink:href="#SimHei-32" transform="translate(100 0)"/>
      </g>
     </g>
    </g>
    <g id="ytick_3">
     <g id="line2d_29">
      <path d="M 40.510766 341.852131 
L 1065.790766 341.852131 
" clip-path="url(#p10b8ea2546)" style="fill: none; stroke-dasharray: 2.96,1.28; stroke-dashoffset: 0; stroke: #21262d; stroke-opacity: 0.4; stroke-width: 0.8"/>
     </g>
     <g id="line2d_30">
      <g>
       <use xlink:href="#m612a71e431" x="40.510766" y="341.852131" style="fill: #c9d1d9; stroke: #c9d1d9; stroke-width: 0.8"/>
      </g>
     </g>
     <g id="text_15">
      <!-- 0.4 -->
      <g style="fill: #c9d1d9" transform="translate(18.510766 345.289631) scale(0.1 -0.1)">
       <use xlink:href="#SimHei-30"/>
       <use xlink:href="#SimHei-2e" transform="translate(50 0)"/>
       <use xlink:href="#SimHei-34" transform="translate(100 0)"/>
      </g>
     </g>
    </g>
    <g id="ytick_4">
     <g id="line2d_31">
      <path d="M 40.510766 246.288494 
L 1065.790766 246.288494 
" clip-path="url(#p10b8ea2546)" style="fill: none; stroke-dasharray: 2.96,1.28; stroke-dashoffset: 0; stroke: #21262d; stroke-opacity: 0.4; stroke-width: 0.8"/>
     </g>
     <g id="line2d_32">
      <g>
       <use xlink:href="#m612a71e431" x="40.510766" y="246.288494" style="fill: #c9d1d9; stroke: #c9d1d9; stroke-width: 0.8"/>
      </g>
     </g>
     <g id="text_16">
      <!-- 0.6 -->
      <g style="fill: #c9d1d9" transform="translate(18.510766 249.725994) scale(0.1 -0.1)">
       <use xlink:href="#SimHei-30"/>
       <use xlink:href="#SimHei-2e" transform="translate(50 0)"/>
       <use xlink:href="#SimHei-36" transform="translate(100 0)"/>
      </g>
     </g>
    </g>
    <g id="ytick_5">
     <g id="line2d_33">
      <path d="M 40.510766 150.724858 
L 1065.790766 150.724858 
" clip-path="url(#p10b8ea2546)" style="fill: none; stroke-dasharray: 2.96,1.28; stroke-dashoffset: 0; stroke: #21262d; stroke-opacity: 0.4; stroke-width: 0.8"/>
     </g>
     <g id="line2d_34">
      <g>
       <use xlink:href="#m612a71e431" x="40.510766" y="150.724858" style="fill: #c9d1d9; stroke: #c9d1d9; stroke-width: 0.8"/>
      </g>
     </g>
     <g id="text_17">
      <!-- 0.8 -->
      <g style="fill: #c9d1d9" transform="translate(18.510766 154.162358) scale(0.1 -0.1)">
       <use xlink:href="#SimHei-30"/>
       <use xlink:href="#SimHei-2e" transform="translate(50 0)"/>
       <use xlink:href="#SimHei-38" transform="translate(100 0)"/>
      </g>
     </g>
    </g>
    <g id="ytick_6">
     <g id="line2d_35">
      <path d="M 40.510766 55.161222 
L 1065.790766 55.161222 
" clip-path="url(#p10b8ea2546)" style="fill: none; stroke-dasharray: 2.96,1.28; stroke-dashoffset: 0; stroke: #21262d; stroke-opacity: 0.4; stroke-width: 0.8"/>
     </g>
     <g id="line2d_36">
      <g>
       <use xlink:href="#m612a71e431" x="40.510766" y="55.161222" style="fill: #c9d1d9; stroke: #c9d1d9; stroke-width: 0.8"/>
      </g>
     </g>
     <g id="text_18">
      <!-- 1.0 -->
      <g style="fill: #c9d1d9" transform="translate(18.510766 58.598722) scale(0.1 -0.1)">
       <use xlink:href="#SimHei-31"/>
       <use xlink:href="#SimHei-2e" transform="translate(50 0)"/>
       <use xlink:href="#SimHei-30" transform="translate(100 0)"/>
      </g>
     </g>
    </g>
   </g>
   <g id="line2d_37">
    <path d="M 87.114402 532.979403 
L 90.150469 527.112601 
L 93.186537 527.873224 
L 96.222604 530.275522 
L 105.330807 514.062525 
L 108.366874 516.735359 
L 111.402942 506.16487 
L 114.43901 496.167619 
L 117.475077 513.277806 
L 126.58328 506.39631 
L 129.619347 528.793377 
L 156.943955 491.460619 
L 159.980022 495.348186 
L 172.124292 489.379399 
L 175.16036 486.737195 
L 178.196427 484.593306 
L 181.232495 505.406923 
L 190.340697 508.467552 
L 193.376765 498.621186 
L 196.412832 491.817411 
L 199.4489 493.333036 
L 211.59317 471.367283 
L 214.629238 462.288922 
L 217.665305 454.836872 
L 220.701373 460.649863 
L 223.73744 466.187567 
L 232.845643 458.062871 
L 235.88171 459.107276 
L 238.917778 458.665362 
L 241.953845 449.138834 
L 244.989913 455.843476 
L 254.098115 450.917051 
L 257.134183 446.070345 
L 263.206318 453.026332 
L 266.242385 461.252643 
L 275.350588 455.440361 
L 278.386655 450.441876 
L 281.422723 455.450575 
L 284.45879 463.182676 
L 287.494858 481.712506 
L 296.60306 482.695298 
L 299.639128 480.625556 
L 302.675195 476.949612 
L 305.711263 476.201719 
L 308.747331 476.175272 
L 317.855533 468.169552 
L 320.891601 468.001771 
L 323.927668 470.635679 
L 326.963736 469.685758 
L 329.999803 471.679718 
L 339.108006 459.303635 
L 342.144073 453.113968 
L 345.180141 452.924696 
L 348.216208 455.429154 
L 351.252276 462.481396 
L 360.360478 457.737928 
L 363.396546 449.337013 
L 366.432613 451.257992 
L 369.468681 457.837529 
L 372.504748 454.529707 
L 381.612951 445.70747 
L 384.649018 433.938635 
L 387.685086 427.278202 
L 393.757221 434.113761 
L 402.865423 429.749875 
L 405.901491 423.202566 
L 408.937559 437.584841 
L 424.117896 425.096377 
L 427.153964 411.663173 
L 430.190031 392.996828 
L 433.226099 381.187676 
L 436.262166 376.145229 
L 445.370369 347.974299 
L 448.406436 342.89677 
L 451.442504 330.377214 
L 454.478571 316.46655 
L 457.514639 296.676371 
L 466.622841 298.346106 
L 469.658909 310.301853 
L 472.694976 295.014724 
L 475.731044 291.557182 
L 478.767111 291.142903 
L 487.875314 289.048292 
L 490.911381 290.954566 
L 493.947449 270.440837 
L 496.983516 274.475409 
L 500.019584 294.923495 
L 509.127787 296.69829 
L 512.163854 303.311068 
L 515.199922 316.88563 
L 518.235989 324.395996 
L 521.272057 335.943527 
L 530.380259 335.338665 
L 533.416327 337.638392 
L 536.452394 350.96542 
L 539.488462 344.142631 
L 542.524529 389.279575 
L 575.921272 364.696354 
L 578.957339 343.560166 
L 581.993407 329.730844 
L 594.137677 324.076967 
L 597.173744 338.964602 
L 600.209812 342.400461 
L 603.24588 338.152362 
L 606.281947 342.961574 
L 615.39015 339.855173 
L 618.426217 334.648716 
L 621.462285 335.758128 
L 624.498352 330.537418 
L 627.53442 336.992671 
L 636.642622 329.290224 
L 639.67869 335.188078 
L 642.714757 332.92432 
L 645.750825 334.501313 
L 648.786892 346.761514 
L 657.895095 354.227409 
L 660.931162 357.104381 
L 663.96723 357.312593 
L 667.003297 357.902855 
L 670.039365 366.504921 
L 679.147567 360.784009 
L 682.183635 365.109606 
L 685.219702 365.362491 
L 688.25577 373.460917 
L 691.291837 385.990626 
L 703.436108 385.080961 
L 706.472175 375.064722 
L 709.508243 370.597281 
L 721.652513 354.592035 
L 724.68858 342.932192 
L 730.760715 328.442468 
L 733.796783 327.504786 
L 742.904985 305.975475 
L 745.941053 301.009312 
L 748.97712 289.388141 
L 752.013188 287.815179 
L 755.049255 292.471481 
L 764.157458 278.335597 
L 767.193525 278.981617 
L 770.229593 271.382662 
L 773.26566 282.788453 
L 791.482065 248.536376 
L 794.518133 224.798207 
L 797.554201 213.43396 
L 806.662403 189.391061 
L 809.698471 176.953911 
L 812.734538 159.376667 
L 815.770606 153.518544 
L 818.806673 159.429648 
L 827.914876 144.336836 
L 830.950943 139.787638 
L 833.987011 132.173794 
L 837.023078 136.379237 
L 840.059146 134.448624 
L 849.167348 116.176502 
L 852.203416 110.384841 
L 855.239483 108.372675 
L 858.275551 102.996957 
L 861.311618 129.227046 
L 870.419821 135.376489 
L 873.455888 134.110297 
L 876.491956 126.199039 
L 879.528023 122.411369 
L 882.564091 139.533209 
L 891.672293 157.331181 
L 894.708361 159.576375 
L 897.744429 166.191432 
L 900.780496 165.602107 
L 903.816564 164.618281 
L 912.924766 145.109713 
L 915.960834 127.041015 
L 918.996901 105.029106 
L 922.032969 94.459201 
L 934.177239 78.738008 
L 937.213306 80.242965 
L 940.249374 71.590834 
L 943.285441 55.161222 
L 946.321509 67.362091 
L 955.429711 79.248652 
L 958.465779 61.535486 
L 961.501846 57.322762 
L 964.537914 64.482356 
L 967.573981 84.488721 
L 976.682184 96.079329 
L 979.718251 105.005109 
L 982.754319 116.794861 
L 985.790386 118.617201 
L 988.826454 130.70469 
L 997.934657 151.551515 
L 1000.970724 159.891882 
L 1004.006792 170.851875 
L 1007.042859 192.012464 
L 1010.078927 249.589843 
L 1019.187129 295.189136 
L 1019.187129 295.189136 
" clip-path="url(#p10b8ea2546)" style="fill: none; stroke: #008000; stroke-width: 2; stroke-linecap: square"/>
   </g>
   <g id="line2d_38">
    <path d="M 87.114402 480.173631 
L 90.150469 456.922781 
L 93.186537 498.492629 
L 96.222604 491.446781 
L 105.330807 480.878181 
L 108.366874 478.764186 
L 111.402942 449.876932 
L 114.43901 427.330287 
L 117.475077 458.331881 
L 126.58328 404.079437 
L 129.619347 394.919938 
L 156.943955 342.077283 
L 159.980022 410.421079 
L 169.088225 429.444283 
L 172.124292 462.559183 
L 175.16036 419.580234 
L 178.196427 409.011634 
L 181.232495 477.355085 
L 190.340697 466.08228 
L 193.376765 416.762032 
L 196.412832 427.330287 
L 199.4489 414.648381 
L 211.59317 335.031435 
L 214.629238 351.941333 
L 217.665305 309.666934 
L 220.701373 337.145431 
L 223.73744 384.351683 
L 232.845643 379.419486 
L 235.88171 403.374887 
L 238.917778 399.147584 
L 241.953845 349.827682 
L 244.989913 356.873185 
L 254.098115 348.418237 
L 257.134183 379.419486 
L 260.17025 378.01073 
L 263.206318 344.89583 
L 266.242385 394.919938 
L 275.350588 416.762032 
L 278.386655 435.785236 
L 281.422723 425.921531 
L 284.45879 440.717433 
L 287.494858 519.629484 
L 296.60306 524.561337 
L 299.639128 496.378634 
L 302.675195 475.945984 
L 305.711263 478.764186 
L 308.747331 469.604687 
L 317.855533 432.96738 
L 323.927668 462.559183 
L 326.963736 454.104234 
L 329.999803 425.216981 
L 339.108006 401.26158 
L 342.144073 418.171133 
L 345.180141 422.398435 
L 348.216208 446.353836 
L 351.252276 428.035183 
L 360.360478 447.058731 
L 363.396546 480.173631 
L 366.432613 424.512431 
L 369.468681 446.353836 
L 372.504748 432.262485 
L 381.612951 402.670681 
L 384.649018 395.624833 
L 387.685086 383.647132 
L 390.721153 377.306179 
L 393.757221 364.623584 
L 402.865423 379.419486 
L 405.901491 372.373982 
L 408.937559 386.465334 
L 424.117896 322.349185 
L 427.153964 269.506186 
L 430.190031 282.188436 
L 433.226099 308.962383 
L 436.262166 293.461587 
L 445.370369 273.733488 
L 448.406436 285.711533 
L 451.442504 306.848388 
L 454.478571 300.507435 
L 457.514639 311.780585 
L 466.622841 310.334947 
L 469.658909 320.455102 
L 472.694976 316.117844 
L 475.731044 318.286301 
L 478.767111 334.912517 
L 487.875314 329.12962 
L 490.911381 330.575258 
L 493.947449 319.732283 
L 496.983516 288.648653 
L 500.019584 329.852439 
L 509.127787 410.091209 
L 512.163854 363.827345 
L 515.199922 332.74406 
L 518.235989 352.984371 
L 521.272057 374.67032 
L 530.380259 318.286301 
L 533.416327 313.949386 
L 536.452394 321.177921 
L 539.488462 318.286301 
L 542.524529 358.767268 
L 575.921272 326.237999 
L 578.957339 301.660429 
L 581.993407 312.503404 
L 585.029474 319.732283 
L 594.137677 309.612128 
L 597.173744 353.70719 
L 600.209812 402.86233 
L 603.24588 371.056225 
L 606.281947 361.658888 
L 615.39015 389.127734 
L 618.426217 350.09275 
L 621.462285 329.852439 
L 627.53442 354.430009 
L 636.642622 352.261552 
L 639.67869 376.839122 
L 642.714757 365.272983 
L 645.750825 410.814028 
L 648.786892 427.4399 
L 657.895095 532.979403 
L 660.931162 497.558514 
L 663.96723 450.571831 
L 667.003297 491.052798 
L 670.039365 476.595384 
L 679.147567 482.378281 
L 682.183635 509.124653 
L 685.219702 457.800711 
L 688.25577 490.329979 
L 691.291837 515.630368 
L 703.436108 521.413265 
L 706.472175 408.645226 
L 709.508243 430.33152 
L 712.54431 379.730398 
L 721.652513 372.501863 
L 724.68858 329.12962 
L 727.724648 342.141396 
L 730.760715 304.55205 
L 733.796783 309.612128 
L 742.904985 290.817455 
L 745.941053 282.865756 
L 748.97712 257.565367 
L 752.013188 264.793902 
L 755.049255 278.528497 
L 764.157458 278.528497 
L 767.193525 287.203015 
L 770.229593 250.336488 
L 773.26566 248.168031 
L 791.482065 201.904167 
L 794.518133 184.555132 
L 797.554201 203.349805 
L 806.662403 145.520147 
L 809.698471 147.688949 
L 812.734538 108.65362 
L 815.770606 163.592002 
L 818.806673 209.133046 
L 827.914876 227.927375 
L 830.950943 215.638762 
L 833.987011 214.193124 
L 837.023078 259.733824 
L 840.059146 220.69884 
L 849.167348 166.483622 
L 852.203416 141.182889 
L 855.239483 170.097717 
L 858.275551 170.097717 
L 861.311618 176.603778 
L 870.419821 216.361581 
L 873.455888 167.206441 
L 876.491956 146.242966 
L 879.528023 174.434976 
L 882.564091 234.433435 
L 891.672293 309.612128 
L 894.708361 246.722048 
L 897.744429 277.082859 
L 900.780496 300.93761 
L 903.816564 252.505289 
L 912.924766 179.495054 
L 915.960834 186.001114 
L 918.996901 151.303044 
L 922.032969 132.508371 
L 934.177239 55.161222 
L 937.213306 162.869183 
L 940.249374 144.797328 
L 943.285441 86.244852 
L 946.321509 188.169571 
L 955.429711 150.580225 
L 958.465779 107.207982 
L 961.501846 122.388216 
L 964.537914 229.373357 
L 967.573981 210.578684 
L 976.682184 209.855865 
L 979.718251 246.722048 
L 982.754319 266.962704 
L 985.790386 181.663856 
L 988.826454 244.553591 
L 997.934657 305.997688 
L 1000.970724 238.770694 
L 1004.006792 238.047875 
L 1007.042859 299.491972 
L 1010.078927 418.042563 
L 1019.187129 373.947501 
L 1019.187129 373.947501 
" clip-path="url(#p10b8ea2546)" style="fill: none; stroke: #ff0000; stroke-width: 2; stroke-linecap: square"/>
   </g>
   <g id="line2d_39">
    <path d="M 87.114402 416.035057 
L 90.150469 401.269438 
L 93.186537 423.122644 
L 96.222604 430.210091 
L 105.330807 418.988265 
L 108.366874 437.888263 
L 111.402942 405.994402 
L 114.43901 415.444472 
L 117.475077 436.116367 
L 126.58328 413.672575 
L 129.619347 395.363162 
L 156.943955 384.141195 
L 159.980022 405.994402 
L 169.088225 407.175713 
L 172.124292 446.157162 
L 175.16036 417.806954 
L 178.196427 440.250886 
L 181.232495 487.501093 
L 190.340697 479.822921 
L 193.376765 454.42592 
L 196.412832 460.922782 
L 199.4489 459.741611 
L 211.59317 417.806954 
L 214.629238 419.578851 
L 217.665305 396.544332 
L 220.701373 415.444472 
L 223.73744 413.672575 
L 232.845643 403.63192 
L 235.88171 430.800817 
L 238.917778 423.71323 
L 241.953845 401.269438 
L 244.989913 403.63192 
L 254.098115 399.497541 
L 257.134183 404.222505 
L 260.17025 416.035057 
L 263.206318 389.456745 
L 266.242385 413.081989 
L 275.350588 411.310093 
L 278.386655 423.122644 
L 281.422723 439.069575 
L 284.45879 449.700815 
L 287.494858 515.260576 
L 296.60306 498.132334 
L 299.639128 478.051024 
L 302.675195 476.279127 
L 305.711263 475.097956 
L 308.747331 452.063438 
L 317.855533 443.203954 
L 320.891601 457.378988 
L 323.927668 473.916645 
L 326.963736 472.735333 
L 329.999803 447.929059 
L 339.108006 432.572714 
L 342.144073 441.432057 
L 345.180141 434.935196 
L 348.216208 455.016506 
L 351.252276 443.203954 
L 360.360478 457.969714 
L 363.396546 486.910508 
L 366.432613 463.87599 
L 369.468681 466.829057 
L 372.504748 453.244609 
L 381.612951 435.525781 
L 384.649018 438.47899 
L 387.685086 408.356884 
L 390.721153 391.819368 
L 393.757221 385.322366 
L 402.865423 391.228642 
L 405.901491 386.503678 
L 408.937559 388.275574 
L 424.117896 348.70354 
L 427.153964 321.534643 
L 430.190031 313.265744 
L 433.226099 297.318814 
L 436.262166 250.659192 
L 445.370369 192.187019 
L 448.406436 232.349779 
L 451.442504 231.759053 
L 454.478571 229.396571 
L 457.514639 231.759053 
L 466.622841 227.624674 
L 469.658909 244.752916 
L 472.694976 234.712261 
L 475.731044 211.677743 
L 478.767111 167.971189 
L 487.875314 202.818259 
L 490.911381 194.549501 
L 493.947449 193.958916 
L 496.983516 205.180882 
L 500.019584 226.443503 
L 509.127787 303.225089 
L 512.163854 242.390434 
L 515.199922 240.027952 
L 518.235989 270.740502 
L 521.272057 279.009401 
L 530.380259 230.577882 
L 533.416327 231.168468 
L 536.452394 228.805985 
L 539.488462 211.087158 
L 542.524529 238.84664 
L 575.921272 216.993434 
L 578.957339 183.918261 
L 581.993407 172.105709 
L 585.029474 152.024258 
L 594.137677 176.830673 
L 597.173744 253.021674 
L 600.209812 267.787434 
L 603.24588 249.47788 
L 606.281947 232.349779 
L 615.39015 241.799708 
L 618.426217 208.133949 
L 621.462285 205.771467 
L 624.498352 209.905846 
L 627.53442 237.665329 
L 636.642622 240.027952 
L 639.67869 283.14378 
L 642.714757 268.968605 
L 645.750825 310.312677 
L 648.786892 344.56902 
L 657.895095 430.800817 
L 660.931162 390.047471 
L 663.96723 352.247193 
L 667.003297 381.187987 
L 670.039365 352.837919 
L 679.147567 348.70354 
L 682.183635 380.006816 
L 685.219702 348.70354 
L 688.25577 380.597402 
L 691.291837 403.041194 
L 703.436108 384.731781 
L 706.472175 301.453193 
L 709.508243 309.721951 
L 712.54431 292.003123 
L 721.652513 286.096847 
L 724.68858 255.384156 
L 727.724648 264.834226 
L 730.760715 232.940364 
L 733.796783 209.905846 
L 742.904985 204.590156 
L 745.941053 206.362053 
L 748.97712 170.333812 
L 752.013188 197.502709 
L 755.049255 212.859055 
L 764.157458 207.543364 
L 767.193525 230.577882 
L 770.229593 203.408985 
L 773.26566 193.958916 
L 791.482065 148.480465 
L 794.518133 113.04281 
L 797.554201 107.727119 
L 806.662403 79.967637 
L 809.698471 88.827121 
L 812.734538 55.161222 
L 815.770606 92.370914 
L 818.806673 118.949085 
L 827.914876 108.90843 
L 830.950943 89.417706 
L 833.987011 87.055224 
L 837.023078 159.702431 
L 840.059146 116.586603 
L 849.167348 90.599018 
L 852.203416 117.177189 
L 855.239483 149.661776 
L 858.275551 128.399155 
L 861.311618 184.508846 
L 870.419821 196.911983 
L 873.455888 191.005707 
L 876.491956 181.555638 
L 879.528023 179.193155 
L 882.564091 198.68388 
L 891.672293 260.109262 
L 894.708361 211.087158 
L 897.744429 231.168468 
L 900.780496 243.571605 
L 903.816564 232.349779 
L 912.924766 154.386741 
L 915.960834 119.539812 
L 918.996901 108.90843 
L 922.032969 89.417706 
L 934.177239 65.202017 
L 937.213306 111.861639 
L 940.249374 89.417706 
L 943.285441 76.423843 
L 946.321509 131.942949 
L 955.429711 135.486742 
L 958.465779 81.739533 
L 961.501846 62.839394 
L 964.537914 113.04281 
L 967.573981 123.083464 
L 976.682184 158.52126 
L 979.718251 199.865191 
L 982.754319 244.162331 
L 985.790386 206.362053 
L 988.826454 225.852777 
L 997.934657 323.306399 
L 1000.970724 300.862607 
L 1004.006792 317.990849 
L 1007.042859 364.650471 
L 1010.078927 469.19168 
L 1019.187129 532.979403 
L 1019.187129 532.979403 
" clip-path="url(#p10b8ea2546)" style="fill: none; stroke: #0000ff; stroke-width: 2; stroke-linecap: square"/>
   </g>
   <g id="patch_3">
    <path d="M 40.510766 556.870312 
L 40.510766 31.270312 
" style="fill: none; stroke: #30363d; stroke-width: 0.8; stroke-linejoin: miter; stroke-linecap: square"/>
   </g>
   <g id="patch_4">
    <path d="M 1065.790766 556.870312 
L 1065.790766 31.270312 
" style="fill: none; stroke: #30363d; stroke-width: 0.8; stroke-linejoin: miter; stroke-linecap: square"/>
   </g>
   <g id="patch_5">
    <path d="M 40.510766 556.870312 
L 1065.790766 556.870312 
" style="fill: none; stroke: #30363d; stroke-width: 0.8; stroke-linejoin: miter; stroke-linecap: square"/>
   </g>
   <g id="patch_6">
    <path d="M 40.510766 31.270312 
L 1065.790766 31.270312 
" style="fill: none; stroke: #30363d; stroke-width: 0.8; stroke-linejoin: miter; stroke-linecap: square"/>
   </g>
   <g id="text_19">
    <!-- 2026-07-21 -->
    <g style="fill: #8b949e; opacity: 0.6" transform="translate(1010.537966 550.489312) scale(0.09 -0.09)">
     <use xlink:href="#SimHei-32"/>
     <use xlink:href="#SimHei-30" transform="translate(50 0)"/>
     <use xlink:href="#SimHei-32" transform="translate(100 0)"/>
     <use xlink:href="#SimHei-36" transform="translate(150 0)"/>
     <use xlink:href="#SimHei-2d" transform="translate(200 0)"/>
     <use xlink:href="#SimHei-30" transform="translate(250 0)"/>
     <use xlink:href="#SimHei-37" transform="translate(300 0)"/>
     <use xlink:href="#SimHei-2d" transform="translate(350 0)"/>
     <use xlink:href="#SimHei-32" transform="translate(400 0)"/>
     <use xlink:href="#SimHei-31" transform="translate(450 0)"/>
    </g>
   </g>
   <g id="text_20">
    <!-- 融资余额与ETF对比 -->
    <g style="fill: #c9d1d9" transform="translate(489.400766 19.270312) scale(0.15 -0.15)">
     <defs>
      <path id="SimHei-878d" d="M 5200 975 
Q 5400 1025 5650 1125 
Q 5775 775 5887 475 
Q 6000 175 6150 -350 
Q 5925 -425 5675 -500 
Q 5575 -175 5500 50 
Q 4825 -100 4362 -212 
Q 3900 -325 3400 -500 
Q 3325 -225 3200 0 
Q 3575 25 4350 175 
L 4350 1750 
L 3850 1750 
L 3850 1225 
L 3375 1225 
Q 3400 1975 3400 2675 
Q 3400 3400 3375 3925 
L 4350 3925 
Q 4350 4925 4325 5200 
L 4825 5200 
Q 4800 4875 4800 3925 
L 5775 3925 
Q 5750 3325 5750 2700 
Q 5750 2100 5775 1550 
L 5300 1550 
L 5300 1750 
L 4800 1750 
L 4800 250 
Q 5075 325 5400 400 
Q 5325 650 5200 975 
z
M 2025 -50 
Q 2425 -50 2475 -12 
Q 2525 25 2550 150 
L 2550 1975 
L 825 1975 
L 825 -500 
L 350 -500 
Q 375 100 375 475 
L 375 1400 
Q 375 1850 350 2350 
L 3000 2350 
Q 2975 1950 2975 1450 
L 2975 -25 
Q 2975 -325 2787 -387 
Q 2600 -450 2225 -525 
Q 2125 -225 2025 -50 
z
M 625 2725 
Q 650 3050 650 3350 
Q 650 3675 625 3975 
L 2850 3975 
Q 2825 3675 2825 3350 
Q 2825 3050 2850 2725 
L 625 2725 
z
M 3000 4450 
Q 2650 4475 2175 4475 
L 1200 4475 
Q 625 4475 250 4450 
L 250 4875 
Q 550 4850 1125 4850 
L 2175 4850 
Q 2700 4850 3000 4875 
L 3000 4450 
z
M 2325 1675 
Q 2175 1475 2000 1025 
L 2325 1025 
L 2325 675 
L 1850 675 
L 1850 -125 
L 1425 -125 
L 1425 675 
L 1025 675 
L 1025 1025 
L 1700 1025 
Q 1875 1500 1925 1825 
Q 2100 1700 2325 1675 
z
M 5300 2125 
L 5300 3550 
L 4800 3550 
L 4800 2125 
L 5300 2125 
z
M 4350 2125 
L 4350 3550 
L 3850 3550 
L 3850 2125 
L 4350 2125 
z
M 2350 3100 
L 2350 3600 
L 1100 3600 
L 1100 3100 
L 2350 3100 
z
M 1575 1275 
Q 1400 1225 1225 1150 
Q 1150 1425 1025 1675 
L 1325 1825 
Q 1425 1550 1575 1275 
z
" transform="scale(0.015625)"/>
      <path id="SimHei-8d44" d="M 5300 2150 
Q 5275 1825 5275 1450 
Q 5275 1075 5300 575 
L 4800 575 
L 4800 1725 
L 1700 1725 
L 1700 425 
L 1200 425 
Q 1225 1000 1225 1375 
Q 1225 1775 1200 2150 
L 5300 2150 
z
M 4225 4075 
Q 4050 3775 4200 3562 
Q 4350 3350 4612 3162 
Q 4875 2975 5262 2850 
Q 5650 2725 6125 2700 
Q 5925 2425 5825 2175 
Q 5200 2300 4712 2550 
Q 4225 2800 3900 3350 
Q 3675 2775 3250 2550 
Q 2825 2325 2325 2175 
Q 2125 2400 1925 2575 
Q 2975 2775 3300 3175 
Q 3625 3575 3650 4150 
L 4225 4075 
z
M 3125 4250 
Q 2825 3850 2550 3650 
Q 2375 3825 2175 3950 
Q 2475 4150 2737 4487 
Q 3000 4825 3150 5200 
Q 3375 5100 3700 5050 
Q 3575 4825 3400 4650 
L 5750 4650 
Q 5675 4500 5300 3675 
Q 5000 3750 4800 3775 
Q 4925 4050 5025 4250 
L 3125 4250 
z
M 3525 1375 
Q 3400 1100 3337 825 
Q 3275 550 3012 262 
Q 2750 -25 2250 -275 
Q 1750 -525 800 -675 
Q 725 -425 500 -200 
Q 1225 -175 1712 -12 
Q 2200 150 2450 350 
Q 2700 550 2812 837 
Q 2925 1125 2925 1450 
Q 3225 1400 3525 1375 
z
M 3825 700 
Q 4300 525 4750 350 
Q 5200 175 5825 -100 
Q 5675 -300 5550 -600 
Q 5075 -325 4612 -125 
Q 4150 75 3625 250 
Q 3750 450 3825 700 
z
M 2075 3325 
Q 1450 2750 875 2050 
Q 625 2325 475 2425 
Q 1275 3050 1725 3625 
Q 1850 3500 2075 3325 
z
M 1700 3975 
Q 1300 4275 625 4675 
Q 800 4850 925 5025 
Q 1150 4875 2000 4350 
Q 1850 4200 1700 3975 
z
" transform="scale(0.015625)"/>
      <path id="SimHei-4f59" d="M 3850 3050 
Q 4150 3050 4525 3075 
L 4525 2600 
Q 4225 2625 3850 2625 
L 3450 2625 
L 3450 1825 
L 4475 1825 
Q 5050 1825 5375 1850 
L 5375 1350 
Q 5025 1375 4500 1375 
L 3450 1375 
L 3450 -75 
Q 3450 -450 3187 -525 
Q 2925 -600 2550 -650 
Q 2525 -425 2350 -50 
Q 2825 -75 2887 -25 
Q 2950 25 2950 175 
L 2950 1375 
L 1800 1375 
Q 1225 1375 900 1350 
L 900 1850 
Q 1200 1825 1800 1825 
L 2950 1825 
L 2950 2625 
L 2550 2625 
Q 2325 2625 1825 2600 
L 1825 3075 
Q 2225 3050 2525 3050 
L 3850 3050 
z
M 3400 4850 
Q 4450 3575 6150 3300 
Q 5925 3150 5750 2700 
Q 4150 3250 3100 4550 
Q 2375 3350 800 2400 
Q 450 2725 325 2800 
Q 1475 3325 2112 4100 
Q 2750 4875 2900 5275 
Q 3150 5175 3550 5050 
L 3400 4850 
z
M 2325 700 
Q 2075 500 1625 112 
Q 1175 -275 925 -450 
Q 725 -225 525 -50 
Q 1600 675 1900 1075 
Q 2100 875 2325 700 
z
M 4400 1175 
Q 4750 850 5025 550 
L 5600 0 
Q 5375 -175 5125 -400 
Q 4875 25 4050 850 
Q 4200 950 4400 1175 
z
" transform="scale(0.015625)"/>
      <path id="SimHei-989d" d="M 1925 3700 
Q 1725 3550 1550 3350 
L 2950 3350 
Q 2875 3150 2700 2875 
Q 2525 2600 2300 2300 
Q 2500 2200 2712 2075 
Q 2925 1950 3275 1725 
Q 3125 1575 2950 1325 
Q 2700 1525 2475 1662 
Q 2250 1800 1950 1950 
Q 1575 1650 1150 1375 
L 2800 1375 
Q 2775 950 2775 500 
Q 2775 50 2800 -450 
L 2325 -450 
L 2325 -50 
L 1325 -50 
L 1325 -575 
L 875 -575 
Q 900 -75 900 275 
L 900 1175 
Q 675 1075 550 1000 
Q 400 1225 225 1400 
Q 625 1550 975 1762 
Q 1325 1975 1550 2200 
Q 1300 2350 1075 2475 
Q 1175 2625 1350 2800 
Q 1625 2650 1925 2500 
Q 2150 2750 2300 3000 
L 1300 3000 
Q 1200 2875 1025 2687 
Q 850 2500 650 2275 
Q 475 2425 250 2575 
Q 650 2875 937 3237 
Q 1225 3600 1375 3925 
Q 1650 3800 1925 3700 
z
M 4150 4400 
Q 3775 4400 3375 4375 
L 3375 4825 
Q 3750 4800 4200 4800 
L 5300 4800 
Q 5600 4800 6000 4825 
L 6000 4375 
Q 5625 4400 5300 4400 
L 4950 4400 
Q 4850 3975 4725 3525 
L 5750 3525 
Q 5725 3125 5725 2775 
L 5725 1625 
Q 5725 1300 5750 825 
L 5300 825 
L 5300 3175 
L 3925 3175 
L 3925 800 
L 3450 800 
Q 3475 1275 3475 1650 
L 3475 2800 
Q 3475 3175 3450 3525 
L 4300 3525 
Q 4400 4025 4450 4400 
L 4150 4400 
z
M 2050 5100 
Q 2100 4825 2200 4475 
L 3225 4475 
Q 3200 4275 3200 4075 
Q 3200 3875 3225 3675 
L 2775 3675 
L 2775 4100 
L 875 4100 
L 875 3500 
L 400 3500 
Q 425 3775 425 4000 
Q 425 4250 400 4475 
L 1650 4475 
Q 1550 4750 1475 5000 
Q 1800 5050 2050 5100 
z
M 4925 2725 
Q 4850 2425 4837 2025 
Q 4825 1625 4712 1175 
Q 4600 725 4262 250 
Q 3925 -225 3250 -675 
Q 3050 -425 2850 -250 
Q 3375 -25 3687 262 
Q 4000 550 4162 937 
Q 4325 1325 4350 1750 
Q 4375 2175 4375 2775 
Q 4575 2750 4925 2725 
z
M 2325 325 
L 2325 1025 
L 1325 1025 
L 1325 325 
L 2325 325 
z
M 5075 800 
Q 5300 575 5487 400 
Q 5675 225 6025 -100 
Q 5800 -275 5600 -500 
Q 5450 -275 5275 -87 
Q 5100 100 4675 400 
Q 4875 575 5075 800 
z
" transform="scale(0.015625)"/>
      <path id="SimHei-4e0e" d="M 5350 100 
Q 5275 -300 4925 -425 
Q 4575 -550 3900 -600 
Q 3875 -375 3650 -25 
Q 4375 -50 4575 0 
Q 4775 50 4837 225 
Q 4900 400 5100 2350 
L 1125 2350 
Q 1450 4350 1475 5200 
Q 1800 5150 2075 5125 
Q 1975 4825 1900 4275 
L 4900 4275 
Q 5400 4275 5800 4300 
L 5800 3825 
Q 5400 3850 4950 3850 
L 1850 3850 
L 1700 2750 
L 5675 2750 
Q 5625 2450 5575 2050 
L 5350 100 
z
M 3675 1350 
Q 4125 1350 4500 1375 
L 4500 875 
Q 4125 900 3850 900 
L 1450 900 
Q 1000 900 500 875 
L 500 1375 
Q 1000 1350 1450 1350 
L 3675 1350 
z
" transform="scale(0.015625)"/>
      <path id="SimHei-45" d="M 2900 125 
L 350 125 
L 350 4400 
L 2775 4400 
L 2775 3925 
L 925 3925 
L 925 2600 
L 2625 2600 
L 2625 2125 
L 925 2125 
L 925 600 
L 2900 600 
L 2900 125 
z
" transform="scale(0.015625)"/>
      <path id="SimHei-54" d="M 2850 3925 
L 1850 3925 
L 1850 125 
L 1275 125 
L 1275 3925 
L 275 3925 
L 275 4400 
L 2850 4400 
L 2850 3925 
z
" transform="scale(0.015625)"/>
      <path id="SimHei-46" d="M 2925 3925 
L 875 3925 
L 875 2525 
L 2425 2525 
L 2425 2050 
L 875 2050 
L 875 125 
L 300 125 
L 300 4400 
L 2925 4400 
L 2925 3925 
z
" transform="scale(0.015625)"/>
      <path id="SimHei-5bf9" d="M 525 4250 
Q 900 4225 1400 4225 
L 2825 4225 
Q 2575 2625 2200 1750 
Q 2825 875 3125 400 
Q 2950 275 2725 75 
Q 2200 975 1950 1300 
Q 1650 775 1350 425 
Q 1050 75 600 -350 
Q 425 -125 200 -25 
Q 625 275 975 675 
Q 1325 1075 1650 1700 
Q 1050 2425 550 2900 
Q 700 3025 900 3225 
Q 1625 2425 1875 2150 
Q 2200 3050 2300 3825 
L 1400 3825 
Q 900 3825 525 3800 
L 525 4250 
z
M 2925 3700 
Q 3525 3675 3750 3675 
L 4825 3675 
L 4825 4425 
Q 4825 4750 4775 5125 
L 5350 5125 
Q 5325 4825 5325 4375 
L 5325 3675 
Q 5575 3675 6150 3700 
L 6150 3250 
Q 5575 3275 5325 3275 
L 5325 125 
Q 5350 -350 5012 -475 
Q 4675 -600 4250 -650 
Q 4175 -350 4025 -100 
Q 4575 -100 4712 -37 
Q 4850 25 4825 325 
L 4825 3275 
L 3775 3275 
Q 3550 3275 2925 3225 
L 2925 3700 
z
M 3450 2725 
Q 3875 1975 4175 1325 
Q 3850 1200 3700 1075 
Q 3475 1750 3050 2475 
Q 3225 2550 3450 2725 
z
" transform="scale(0.015625)"/>
      <path id="SimHei-6bd4" d="M 3775 5100 
Q 3750 4575 3750 4100 
L 3750 3050 
Q 4925 3600 5475 4175 
Q 5675 3900 5900 3675 
Q 5600 3500 5037 3187 
Q 4475 2875 3750 2550 
L 3750 450 
Q 3750 100 4050 100 
L 5000 100 
Q 5175 100 5262 250 
Q 5350 400 5450 900 
Q 5650 775 6025 675 
Q 5850 0 5650 -175 
Q 5450 -350 5225 -350 
L 3900 -350 
Q 3250 -350 3250 275 
L 3250 4000 
Q 3250 4550 3225 5100 
L 3775 5100 
z
M 1275 4975 
Q 1250 4575 1250 4000 
L 1250 3150 
L 1850 3150 
Q 2325 3150 2875 3175 
L 2875 2650 
Q 2325 2675 1850 2675 
L 1250 2675 
L 1250 475 
Q 1650 650 1962 812 
Q 2275 975 2850 1275 
Q 2900 950 2950 750 
Q 2375 475 1762 175 
Q 1150 -125 925 -325 
Q 750 -100 575 200 
Q 700 300 750 600 
L 750 3950 
Q 750 4550 725 4975 
L 1275 4975 
z
" transform="scale(0.015625)"/>
     </defs>
     <use xlink:href="#SimHei-878d"/>
     <use xlink:href="#SimHei-8d44" transform="translate(100 0)"/>
     <use xlink:href="#SimHei-4f59" transform="translate(200 0)"/>
     <use xlink:href="#SimHei-989d" transform="translate(300 0)"/>
     <use xlink:href="#SimHei-4e0e" transform="translate(400 0)"/>
     <use xlink:href="#SimHei-45" transform="translate(500 0)"/>
     <use xlink:href="#SimHei-54" transform="translate(550 0)"/>
     <use xlink:href="#SimHei-46" transform="translate(600 0)"/>
     <use xlink:href="#SimHei-5bf9" transform="translate(650 0)"/>
     <use xlink:href="#SimHei-6bd4" transform="translate(750 0)"/>
    </g>
   </g>
   <g id="legend_1">
    <g id="patch_7">
     <path d="M 47.510766 80.067187 
L 119.510766 80.067187 
Q 121.510766 80.067187 121.510766 78.067187 
L 121.510766 38.270312 
Q 121.510766 36.270312 119.510766 36.270312 
L 47.510766 36.270312 
Q 45.510766 36.270312 45.510766 38.270312 
L 45.510766 78.067187 
Q 45.510766 80.067187 47.510766 80.067187 
z
" style="fill: #161b22; opacity: 0.9; stroke: #30363d; stroke-linejoin: miter"/>
    </g>
    <g id="line2d_40">
     <path d="M 49.510766 44.817187 
L 59.510766 44.817187 
L 69.510766 44.817187 
" style="fill: none; stroke: #008000; stroke-width: 2; stroke-linecap: square"/>
    </g>
    <g id="text_21">
     <!-- 融资余额 -->
     <g style="fill: #c9d1d9" transform="translate(77.510766 48.317187) scale(0.1 -0.1)">
      <use xlink:href="#SimHei-878d"/>
      <use xlink:href="#SimHei-8d44" transform="translate(100 0)"/>
      <use xlink:href="#SimHei-4f59" transform="translate(200 0)"/>
      <use xlink:href="#SimHei-989d" transform="translate(300 0)"/>
     </g>
    </g>
    <g id="line2d_41">
     <path d="M 49.510766 58.067187 
L 59.510766 58.067187 
L 69.510766 58.067187 
" style="fill: none; stroke: #ff0000; stroke-width: 2; stroke-linecap: square"/>
    </g>
    <g id="text_22">
     <!-- 300ETF -->
     <g style="fill: #c9d1d9" transform="translate(77.510766 61.567187) scale(0.1 -0.1)">
      <use xlink:href="#SimHei-33"/>
      <use xlink:href="#SimHei-30" transform="translate(50 0)"/>
      <use xlink:href="#SimHei-30" transform="translate(100 0)"/>
      <use xlink:href="#SimHei-45" transform="translate(150 0)"/>
      <use xlink:href="#SimHei-54" transform="translate(200 0)"/>
      <use xlink:href="#SimHei-46" transform="translate(250 0)"/>
     </g>
    </g>
    <g id="line2d_42">
     <path d="M 49.510766 71.317187 
L 59.510766 71.317187 
L 69.510766 71.317187 
" style="fill: none; stroke: #0000ff; stroke-width: 2; stroke-linecap: square"/>
    </g>
    <g id="text_23">
     <!-- 1000ETF -->
     <g style="fill: #c9d1d9" transform="translate(77.510766 74.817187) scale(0.1 -0.1)">
      <use xlink:href="#SimHei-31"/>
      <use xlink:href="#SimHei-30" transform="translate(50 0)"/>
      <use xlink:href="#SimHei-30" transform="translate(100 0)"/>
      <use xlink:href="#SimHei-30" transform="translate(150 0)"/>
      <use xlink:href="#SimHei-45" transform="translate(200 0)"/>
      <use xlink:href="#SimHei-54" transform="translate(250 0)"/>
      <use xlink:href="#SimHei-46" transform="translate(300 0)"/>
     </g>
    </g>
   </g>
  </g>
 </g>
 <defs>
  <clipPath id="p10b8ea2546">
   <rect x="40.510766" y="31.270312" width="1025.28" height="525.6"/>
  </clipPath>
 </defs>
</svg>
