<?xml version="1.0" encoding="utf-8" standalone="no"?>
<!DOCTYPE svg PUBLIC "-//W3C//DTD SVG 1.1//EN"
  "http://www.w3.org/Graphics/SVG/1.1/DTD/svg11.dtd">
<svg xmlns:xlink="http://www.w3.org/1999/xlink" width="1061.68pt" height="595.606769pt" viewBox="0 0 1061.68 595.606769" xmlns="http://www.w3.org/2000/svg" version="1.1">
 <metadata>
  <rdf:RDF xmlns:dc="http://purl.org/dc/elements/1.1/" xmlns:cc="http://creativecommons.org/ns#" xmlns:rdf="http://www.w3.org/1999/02/22-rdf-syntax-ns#">
   <cc:Work>
    <dc:type rdf:resource="http://purl.org/dc/dcmitype/StillImage"/>
    <dc:date>2026-07-06T22:44:58.231889</dc:date>
    <dc:format>image/svg+xml</dc:format>
    <dc:creator>
     <cc:Agent>
      <dc:title>Matplotlib v3.10.9, https://matplotlib.org/</dc:title>
     </cc:Agent>
    </dc:creator>
   </cc:Work>
  </rdf:RDF>
 </metadata>
 <defs>
  <style type="text/css">*{stroke-linejoin: round; stroke-linecap: butt}</style>
 </defs>
 <g id="figure_1">
  <g id="patch_1">
   <path d="M 0 595.606769 
L 1061.68 595.606769 
L 1061.68 0 
L 0 0 
z
" style="fill: #0d1117"/>
  </g>
  <g id="axes_1">
   <g id="patch_2">
    <path d="M 29.2 556.870312 
L 1054.48 556.870312 
L 1054.48 31.270312 
L 29.2 31.270312 
z
" style="fill: #161b22"/>
   </g>
   <g id="matplotlib.axis_1">
    <g id="xtick_1">
     <g id="line2d_1">
      <path d="M 75.803636 556.870312 
L 75.803636 31.270312 
" clip-path="url(#p19dab2ef9d)" style="fill: none; stroke-dasharray: 2.96,1.28; stroke-dashoffset: 0; stroke: #21262d; stroke-opacity: 0.4; stroke-width: 0.8"/>
     </g>
     <g id="line2d_2">
      <defs>
       <path id="md64318240c" d="M 0 0 
L 0 3.5 
" style="stroke: #c9d1d9; stroke-width: 0.8"/>
      </defs>
      <g>
       <use xlink:href="#md64318240c" x="75.803636" y="556.870312" style="fill: #c9d1d9; stroke: #c9d1d9; stroke-width: 0.8"/>
      </g>
     </g>
     <g id="text_1">
      <!-- 2025-09 -->
      <g style="fill: #c9d1d9" transform="translate(44.867747 587.324237) rotate(-30) scale(0.1 -0.1)">
       <defs>
        <path id="SimHei-32" d="M 300 250 
Q 325 625 650 925 
Q 975 1225 1475 1862 
Q 1975 2500 2125 2850 
Q 2275 3200 2237 3450 
Q 2200 3700 2000 3862 
Q 1800 4025 1537 4000 
Q 1275 3975 1037 3800 
Q 800 3625 675 3275 
L 200 3350 
Q 400 3925 712 4187 
Q 1025 4450 1450 4475 
Q 1700 4500 1900 4462 
Q 2100 4425 2312 4287 
Q 2525 4150 2662 3875 
Q 2800 3600 2762 3212 
Q 2725 2825 2375 2287 
Q 2025 1750 1025 600 
L 2825 600 
L 2825 150 
L 300 150 
L 300 250 
z
" transform="scale(0.015625)"/>
        <path id="SimHei-30" d="M 225 2537 
Q 250 3200 412 3587 
Q 575 3975 875 4225 
Q 1175 4475 1612 4475 
Q 2050 4475 2375 4112 
Q 2700 3750 2800 3200 
Q 2900 2650 2862 1937 
Q 2825 1225 2612 775 
Q 2400 325 1975 150 
Q 1550 -25 1125 187 
Q 700 400 525 750 
Q 350 1100 275 1487 
Q 200 1875 225 2537 
z
M 750 2687 
Q 675 2000 800 1462 
Q 925 925 1212 700 
Q 1500 475 1800 612 
Q 2100 750 2237 1162 
Q 2375 1575 2375 2062 
Q 2375 2550 2337 2950 
Q 2300 3350 2112 3675 
Q 1925 4000 1612 4012 
Q 1300 4025 1062 3700 
Q 825 3375 750 2687 
z
" transform="scale(0.015625)"/>
        <path id="SimHei-35" d="M 550 1325 
Q 725 650 1150 575 
Q 1575 500 1837 662 
Q 2100 825 2212 1087 
Q 2325 1350 2312 1675 
Q 2300 2000 2137 2225 
Q 1975 2450 1725 2525 
Q 1475 2600 1162 2525 
Q 850 2450 650 2175 
L 225 2225 
Q 275 2375 700 4375 
L 2675 4375 
L 2675 3925 
L 1075 3925 
Q 950 3250 825 2850 
Q 1200 3025 1525 3012 
Q 1850 3000 2150 2862 
Q 2450 2725 2587 2487 
Q 2725 2250 2787 2012 
Q 2850 1775 2837 1500 
Q 2825 1225 2725 937 
Q 2625 650 2425 462 
Q 2225 275 1937 162 
Q 1650 50 1275 75 
Q 900 100 562 350 
Q 225 600 100 1200 
L 550 1325 
z
" transform="scale(0.015625)"/>
        <path id="SimHei-2d" d="M 2975 2125 
L 125 2125 
L 125 2525 
L 2975 2525 
L 2975 2125 
z
" transform="scale(0.015625)"/>
        <path id="SimHei-39" d="M 800 75 
Q 1350 1000 1700 1750 
Q 1075 1650 662 1912 
Q 250 2175 162 2625 
Q 75 3075 175 3437 
Q 275 3800 487 4037 
Q 700 4275 1000 4375 
Q 1300 4475 1537 4475 
Q 1775 4475 2025 4375 
Q 2275 4275 2475 4075 
Q 2675 3875 2750 3662 
Q 2825 3450 2825 3112 
Q 2825 2775 2575 2250 
Q 2325 1725 1350 75 
L 800 75 
z
M 662 2875 
Q 700 2550 937 2337 
Q 1175 2125 1450 2150 
Q 1725 2175 1887 2300 
Q 2050 2425 2200 2725 
Q 2300 3100 2250 3362 
Q 2200 3625 1987 3800 
Q 1775 3975 1525 3975 
Q 1375 4000 1137 3900 
Q 900 3800 762 3500 
Q 625 3200 662 2875 
z
" transform="scale(0.015625)"/>
       </defs>
       <use xlink:href="#SimHei-32"/>
       <use xlink:href="#SimHei-30" transform="translate(50 0)"/>
       <use xlink:href="#SimHei-32" transform="translate(100 0)"/>
       <use xlink:href="#SimHei-35" transform="translate(150 0)"/>
       <use xlink:href="#SimHei-2d" transform="translate(200 0)"/>
       <use xlink:href="#SimHei-30" transform="translate(250 0)"/>
       <use xlink:href="#SimHei-39" transform="translate(300 0)"/>
      </g>
     </g>
    </g>
    <g id="xtick_2">
     <g id="line2d_3">
      <path d="M 167.482921 556.870312 
L 167.482921 31.270312 
" clip-path="url(#p19dab2ef9d)" style="fill: none; stroke-dasharray: 2.96,1.28; stroke-dashoffset: 0; stroke: #21262d; stroke-opacity: 0.4; stroke-width: 0.8"/>
     </g>
     <g id="line2d_4">
      <g>
       <use xlink:href="#md64318240c" x="167.482921" y="556.870312" style="fill: #c9d1d9; stroke: #c9d1d9; stroke-width: 0.8"/>
      </g>
     </g>
     <g id="text_2">
      <!-- 2025-10 -->
      <g style="fill: #c9d1d9" transform="translate(136.547032 587.324237) rotate(-30) scale(0.1 -0.1)">
       <defs>
        <path id="SimHei-31" d="M 1400 3600 
Q 1075 3275 575 2975 
L 575 3450 
Q 1200 3875 1600 4450 
L 1900 4450 
L 1900 150 
L 1400 150 
L 1400 3600 
z
" transform="scale(0.015625)"/>
       </defs>
       <use xlink:href="#SimHei-32"/>
       <use xlink:href="#SimHei-30" transform="translate(50 0)"/>
       <use xlink:href="#SimHei-32" transform="translate(100 0)"/>
       <use xlink:href="#SimHei-35" transform="translate(150 0)"/>
       <use xlink:href="#SimHei-2d" transform="translate(200 0)"/>
       <use xlink:href="#SimHei-31" transform="translate(250 0)"/>
       <use xlink:href="#SimHei-30" transform="translate(300 0)"/>
      </g>
     </g>
    </g>
    <g id="xtick_3">
     <g id="line2d_5">
      <path d="M 262.218182 556.870312 
L 262.218182 31.270312 
" clip-path="url(#p19dab2ef9d)" style="fill: none; stroke-dasharray: 2.96,1.28; stroke-dashoffset: 0; stroke: #21262d; stroke-opacity: 0.4; stroke-width: 0.8"/>
     </g>
     <g id="line2d_6">
      <g>
       <use xlink:href="#md64318240c" x="262.218182" y="556.870312" style="fill: #c9d1d9; stroke: #c9d1d9; stroke-width: 0.8"/>
      </g>
     </g>
     <g id="text_3">
      <!-- 2025-11 -->
      <g style="fill: #c9d1d9" transform="translate(231.282293 587.324237) rotate(-30) scale(0.1 -0.1)">
       <use xlink:href="#SimHei-32"/>
       <use xlink:href="#SimHei-30" transform="translate(50 0)"/>
       <use xlink:href="#SimHei-32" transform="translate(100 0)"/>
       <use xlink:href="#SimHei-35" transform="translate(150 0)"/>
       <use xlink:href="#SimHei-2d" transform="translate(200 0)"/>
       <use xlink:href="#SimHei-31" transform="translate(250 0)"/>
       <use xlink:href="#SimHei-31" transform="translate(300 0)"/>
      </g>
     </g>
    </g>
    <g id="xtick_4">
     <g id="line2d_7">
      <path d="M 353.897466 556.870312 
L 353.897466 31.270312 
" clip-path="url(#p19dab2ef9d)" style="fill: none; stroke-dasharray: 2.96,1.28; stroke-dashoffset: 0; stroke: #21262d; stroke-opacity: 0.4; stroke-width: 0.8"/>
     </g>
     <g id="line2d_8">
      <g>
       <use xlink:href="#md64318240c" x="353.897466" y="556.870312" style="fill: #c9d1d9; stroke: #c9d1d9; stroke-width: 0.8"/>
      </g>
     </g>
     <g id="text_4">
      <!-- 2025-12 -->
      <g style="fill: #c9d1d9" transform="translate(322.961577 587.324237) rotate(-30) scale(0.1 -0.1)">
       <use xlink:href="#SimHei-32"/>
       <use xlink:href="#SimHei-30" transform="translate(50 0)"/>
       <use xlink:href="#SimHei-32" transform="translate(100 0)"/>
       <use xlink:href="#SimHei-35" transform="translate(150 0)"/>
       <use xlink:href="#SimHei-2d" transform="translate(200 0)"/>
       <use xlink:href="#SimHei-31" transform="translate(250 0)"/>
       <use xlink:href="#SimHei-32" transform="translate(300 0)"/>
      </g>
     </g>
    </g>
    <g id="xtick_5">
     <g id="line2d_9">
      <path d="M 448.632727 556.870312 
L 448.632727 31.270312 
" clip-path="url(#p19dab2ef9d)" style="fill: none; stroke-dasharray: 2.96,1.28; stroke-dashoffset: 0; stroke: #21262d; stroke-opacity: 0.4; stroke-width: 0.8"/>
     </g>
     <g id="line2d_10">
      <g>
       <use xlink:href="#md64318240c" x="448.632727" y="556.870312" style="fill: #c9d1d9; stroke: #c9d1d9; stroke-width: 0.8"/>
      </g>
     </g>
     <g id="text_5">
      <!-- 2026-01 -->
      <g style="fill: #c9d1d9" transform="translate(417.696838 587.324237) rotate(-30) scale(0.1 -0.1)">
       <defs>
        <path id="SimHei-36" d="M 250 1612 
Q 275 1975 387 2225 
Q 500 2475 725 2850 
L 1750 4450 
L 2325 4450 
L 1275 2800 
Q 1950 2975 2350 2750 
Q 2750 2525 2887 2237 
Q 3025 1950 3037 1612 
Q 3050 1275 2937 950 
Q 2825 625 2537 362 
Q 2250 100 1737 75 
Q 1225 50 862 262 
Q 500 475 362 862 
Q 225 1250 250 1612 
z
M 1025 787 
Q 1250 550 1625 525 
Q 2000 500 2250 775 
Q 2500 1050 2500 1575 
Q 2500 2100 2187 2300 
Q 1875 2500 1487 2450 
Q 1100 2400 925 2075 
Q 750 1750 775 1387 
Q 800 1025 1025 787 
z
" transform="scale(0.015625)"/>
       </defs>
       <use xlink:href="#SimHei-32"/>
       <use xlink:href="#SimHei-30" transform="translate(50 0)"/>
       <use xlink:href="#SimHei-32" transform="translate(100 0)"/>
       <use xlink:href="#SimHei-36" transform="translate(150 0)"/>
       <use xlink:href="#SimHei-2d" transform="translate(200 0)"/>
       <use xlink:href="#SimHei-30" transform="translate(250 0)"/>
       <use xlink:href="#SimHei-31" transform="translate(300 0)"/>
      </g>
     </g>
    </g>
    <g id="xtick_6">
     <g id="line2d_11">
      <path d="M 543.367988 556.870312 
L 543.367988 31.270312 
" clip-path="url(#p19dab2ef9d)" style="fill: none; stroke-dasharray: 2.96,1.28; stroke-dashoffset: 0; stroke: #21262d; stroke-opacity: 0.4; stroke-width: 0.8"/>
     </g>
     <g id="line2d_12">
      <g>
       <use xlink:href="#md64318240c" x="543.367988" y="556.870312" style="fill: #c9d1d9; stroke: #c9d1d9; stroke-width: 0.8"/>
      </g>
     </g>
     <g id="text_6">
      <!-- 2026-02 -->
      <g style="fill: #c9d1d9" transform="translate(512.432099 587.324237) rotate(-30) scale(0.1 -0.1)">
       <use xlink:href="#SimHei-32"/>
       <use xlink:href="#SimHei-30" transform="translate(50 0)"/>
       <use xlink:href="#SimHei-32" transform="translate(100 0)"/>
       <use xlink:href="#SimHei-36" transform="translate(150 0)"/>
       <use xlink:href="#SimHei-2d" transform="translate(200 0)"/>
       <use xlink:href="#SimHei-30" transform="translate(250 0)"/>
       <use xlink:href="#SimHei-32" transform="translate(300 0)"/>
      </g>
     </g>
    </g>
    <g id="xtick_7">
     <g id="line2d_13">
      <path d="M 628.93532 556.870312 
L 628.93532 31.270312 
" clip-path="url(#p19dab2ef9d)" style="fill: none; stroke-dasharray: 2.96,1.28; stroke-dashoffset: 0; stroke: #21262d; stroke-opacity: 0.4; stroke-width: 0.8"/>
     </g>
     <g id="line2d_14">
      <g>
       <use xlink:href="#md64318240c" x="628.93532" y="556.870312" style="fill: #c9d1d9; stroke: #c9d1d9; stroke-width: 0.8"/>
      </g>
     </g>
     <g id="text_7">
      <!-- 2026-03 -->
      <g style="fill: #c9d1d9" transform="translate(597.999431 587.324237) rotate(-30) scale(0.1 -0.1)">
       <defs>
        <path id="SimHei-33" d="M 250 1225 
L 700 1300 
Q 800 975 1025 762 
Q 1250 550 1587 562 
Q 1925 575 2125 837 
Q 2325 1100 2300 1437 
Q 2275 1775 2037 1962 
Q 1800 2150 1275 2225 
L 1275 2550 
Q 1800 2600 2037 2825 
Q 2275 3050 2250 3412 
Q 2225 3775 1925 3937 
Q 1625 4100 1287 3975 
Q 950 3850 750 3275 
L 300 3350 
Q 450 3800 712 4100 
Q 975 4400 1425 4450 
Q 1875 4500 2212 4337 
Q 2550 4175 2687 3837 
Q 2825 3500 2725 3100 
Q 2625 2700 2150 2400 
Q 2500 2250 2687 1950 
Q 2875 1650 2812 1162 
Q 2750 675 2375 375 
Q 2000 75 1525 87 
Q 1050 100 700 387 
Q 350 675 250 1225 
z
" transform="scale(0.015625)"/>
       </defs>
       <use xlink:href="#SimHei-32"/>
       <use xlink:href="#SimHei-30" transform="translate(50 0)"/>
       <use xlink:href="#SimHei-32" transform="translate(100 0)"/>
       <use xlink:href="#SimHei-36" transform="translate(150 0)"/>
       <use xlink:href="#SimHei-2d" transform="translate(200 0)"/>
       <use xlink:href="#SimHei-30" transform="translate(250 0)"/>
       <use xlink:href="#SimHei-33" transform="translate(300 0)"/>
      </g>
     </g>
    </g>
    <g id="xtick_8">
     <g id="line2d_15">
      <path d="M 723.670581 556.870312 
L 723.670581 31.270312 
" clip-path="url(#p19dab2ef9d)" style="fill: none; stroke-dasharray: 2.96,1.28; stroke-dashoffset: 0; stroke: #21262d; stroke-opacity: 0.4; stroke-width: 0.8"/>
     </g>
     <g id="line2d_16">
      <g>
       <use xlink:href="#md64318240c" x="723.670581" y="556.870312" style="fill: #c9d1d9; stroke: #c9d1d9; stroke-width: 0.8"/>
      </g>
     </g>
     <g id="text_8">
      <!-- 2026-04 -->
      <g style="fill: #c9d1d9" transform="translate(692.734692 587.324237) rotate(-30) scale(0.1 -0.1)">
       <defs>
        <path id="SimHei-34" d="M 2000 1100 
L 75 1100 
L 75 1525 
L 2100 4450 
L 2475 4450 
L 2475 1525 
L 3075 1525 
L 3075 1100 
L 2475 1100 
L 2475 150 
L 2000 150 
L 2000 1100 
z
M 2000 1525 
L 2000 3500 
L 600 1525 
L 2000 1525 
z
" transform="scale(0.015625)"/>
       </defs>
       <use xlink:href="#SimHei-32"/>
       <use xlink:href="#SimHei-30" transform="translate(50 0)"/>
       <use xlink:href="#SimHei-32" transform="translate(100 0)"/>
       <use xlink:href="#SimHei-36" transform="translate(150 0)"/>
       <use xlink:href="#SimHei-2d" transform="translate(200 0)"/>
       <use xlink:href="#SimHei-30" transform="translate(250 0)"/>
       <use xlink:href="#SimHei-34" transform="translate(300 0)"/>
      </g>
     </g>
    </g>
    <g id="xtick_9">
     <g id="line2d_17">
      <path d="M 815.349866 556.870312 
L 815.349866 31.270312 
" clip-path="url(#p19dab2ef9d)" style="fill: none; stroke-dasharray: 2.96,1.28; stroke-dashoffset: 0; stroke: #21262d; stroke-opacity: 0.4; stroke-width: 0.8"/>
     </g>
     <g id="line2d_18">
      <g>
       <use xlink:href="#md64318240c" x="815.349866" y="556.870312" style="fill: #c9d1d9; stroke: #c9d1d9; stroke-width: 0.8"/>
      </g>
     </g>
     <g id="text_9">
      <!-- 2026-05 -->
      <g style="fill: #c9d1d9" transform="translate(784.413977 587.324237) rotate(-30) scale(0.1 -0.1)">
       <use xlink:href="#SimHei-32"/>
       <use xlink:href="#SimHei-30" transform="translate(50 0)"/>
       <use xlink:href="#SimHei-32" transform="translate(100 0)"/>
       <use xlink:href="#SimHei-36" transform="translate(150 0)"/>
       <use xlink:href="#SimHei-2d" transform="translate(200 0)"/>
       <use xlink:href="#SimHei-30" transform="translate(250 0)"/>
       <use xlink:href="#SimHei-35" transform="translate(300 0)"/>
      </g>
     </g>
    </g>
    <g id="xtick_10">
     <g id="line2d_19">
      <path d="M 910.085127 556.870312 
L 910.085127 31.270312 
" clip-path="url(#p19dab2ef9d)" style="fill: none; stroke-dasharray: 2.96,1.28; stroke-dashoffset: 0; stroke: #21262d; stroke-opacity: 0.4; stroke-width: 0.8"/>
     </g>
     <g id="line2d_20">
      <g>
       <use xlink:href="#md64318240c" x="910.085127" y="556.870312" style="fill: #c9d1d9; stroke: #c9d1d9; stroke-width: 0.8"/>
      </g>
     </g>
     <g id="text_10">
      <!-- 2026-06 -->
      <g style="fill: #c9d1d9" transform="translate(879.149238 587.324237) rotate(-30) scale(0.1 -0.1)">
       <use xlink:href="#SimHei-32"/>
       <use xlink:href="#SimHei-30" transform="translate(50 0)"/>
       <use xlink:href="#SimHei-32" transform="translate(100 0)"/>
       <use xlink:href="#SimHei-36" transform="translate(150 0)"/>
       <use xlink:href="#SimHei-2d" transform="translate(200 0)"/>
       <use xlink:href="#SimHei-30" transform="translate(250 0)"/>
       <use xlink:href="#SimHei-36" transform="translate(300 0)"/>
      </g>
     </g>
    </g>
    <g id="xtick_11">
     <g id="line2d_21">
      <path d="M 1001.764411 556.870312 
L 1001.764411 31.270312 
" clip-path="url(#p19dab2ef9d)" style="fill: none; stroke-dasharray: 2.96,1.28; stroke-dashoffset: 0; stroke: #21262d; stroke-opacity: 0.4; stroke-width: 0.8"/>
     </g>
     <g id="line2d_22">
      <g>
       <use xlink:href="#md64318240c" x="1001.764411" y="556.870312" style="fill: #c9d1d9; stroke: #c9d1d9; stroke-width: 0.8"/>
      </g>
     </g>
     <g id="text_11">
      <!-- 2026-07 -->
      <g style="fill: #c9d1d9" transform="translate(970.828522 587.324237) rotate(-30) scale(0.1 -0.1)">
       <defs>
        <path id="SimHei-37" d="M 850 150 
Q 1300 2050 2425 3925 
L 275 3925 
L 275 4375 
L 2950 4375 
L 2950 3950 
Q 1775 2050 1400 150 
L 850 150 
z
" transform="scale(0.015625)"/>
       </defs>
       <use xlink:href="#SimHei-32"/>
       <use xlink:href="#SimHei-30" transform="translate(50 0)"/>
       <use xlink:href="#SimHei-32" transform="translate(100 0)"/>
       <use xlink:href="#SimHei-36" transform="translate(150 0)"/>
       <use xlink:href="#SimHei-2d" transform="translate(200 0)"/>
       <use xlink:href="#SimHei-30" transform="translate(250 0)"/>
       <use xlink:href="#SimHei-37" transform="translate(300 0)"/>
      </g>
     </g>
    </g>
   </g>
   <g id="matplotlib.axis_2">
    <g id="ytick_1">
     <g id="line2d_23">
      <path d="M 29.2 532.979403 
L 1054.48 532.979403 
" clip-path="url(#p19dab2ef9d)" style="fill: none; stroke-dasharray: 2.96,1.28; stroke-dashoffset: 0; stroke: #21262d; stroke-opacity: 0.4; stroke-width: 0.8"/>
     </g>
     <g id="line2d_24">
      <defs>
       <path id="mc436173529" d="M 0 0 
L -3.5 0 
" style="stroke: #c9d1d9; stroke-width: 0.8"/>
      </defs>
      <g>
       <use xlink:href="#mc436173529" x="29.2" y="532.979403" style="fill: #c9d1d9; stroke: #c9d1d9; stroke-width: 0.8"/>
      </g>
     </g>
     <g id="text_12">
      <!-- 0.0 -->
      <g style="fill: #c9d1d9" transform="translate(7.2 536.416903) scale(0.1 -0.1)">
       <defs>
        <path id="SimHei-2e" d="M 1075 125 
L 500 125 
L 500 675 
L 1075 675 
L 1075 125 
z
" transform="scale(0.015625)"/>
       </defs>
       <use xlink:href="#SimHei-30"/>
       <use xlink:href="#SimHei-2e" transform="translate(50 0)"/>
       <use xlink:href="#SimHei-30" transform="translate(100 0)"/>
      </g>
     </g>
    </g>
    <g id="ytick_2">
     <g id="line2d_25">
      <path d="M 29.2 437.415767 
L 1054.48 437.415767 
" clip-path="url(#p19dab2ef9d)" style="fill: none; stroke-dasharray: 2.96,1.28; stroke-dashoffset: 0; stroke: #21262d; stroke-opacity: 0.4; stroke-width: 0.8"/>
     </g>
     <g id="line2d_26">
      <g>
       <use xlink:href="#mc436173529" x="29.2" y="437.415767" style="fill: #c9d1d9; stroke: #c9d1d9; stroke-width: 0.8"/>
      </g>
     </g>
     <g id="text_13">
      <!-- 0.2 -->
      <g style="fill: #c9d1d9" transform="translate(7.2 440.853267) scale(0.1 -0.1)">
       <use xlink:href="#SimHei-30"/>
       <use xlink:href="#SimHei-2e" transform="translate(50 0)"/>
       <use xlink:href="#SimHei-32" transform="translate(100 0)"/>
      </g>
     </g>
    </g>
    <g id="ytick_3">
     <g id="line2d_27">
      <path d="M 29.2 341.852131 
L 1054.48 341.852131 
" clip-path="url(#p19dab2ef9d)" style="fill: none; stroke-dasharray: 2.96,1.28; stroke-dashoffset: 0; stroke: #21262d; stroke-opacity: 0.4; stroke-width: 0.8"/>
     </g>
     <g id="line2d_28">
      <g>
       <use xlink:href="#mc436173529" x="29.2" y="341.852131" style="fill: #c9d1d9; stroke: #c9d1d9; stroke-width: 0.8"/>
      </g>
     </g>
     <g id="text_14">
      <!-- 0.4 -->
      <g style="fill: #c9d1d9" transform="translate(7.2 345.289631) scale(0.1 -0.1)">
       <use xlink:href="#SimHei-30"/>
       <use xlink:href="#SimHei-2e" transform="translate(50 0)"/>
       <use xlink:href="#SimHei-34" transform="translate(100 0)"/>
      </g>
     </g>
    </g>
    <g id="ytick_4">
     <g id="line2d_29">
      <path d="M 29.2 246.288494 
L 1054.48 246.288494 
" clip-path="url(#p19dab2ef9d)" style="fill: none; stroke-dasharray: 2.96,1.28; stroke-dashoffset: 0; stroke: #21262d; stroke-opacity: 0.4; stroke-width: 0.8"/>
     </g>
     <g id="line2d_30">
      <g>
       <use xlink:href="#mc436173529" x="29.2" y="246.288494" style="fill: #c9d1d9; stroke: #c9d1d9; stroke-width: 0.8"/>
      </g>
     </g>
     <g id="text_15">
      <!-- 0.6 -->
      <g style="fill: #c9d1d9" transform="translate(7.2 249.725994) scale(0.1 -0.1)">
       <use xlink:href="#SimHei-30"/>
       <use xlink:href="#SimHei-2e" transform="translate(50 0)"/>
       <use xlink:href="#SimHei-36" transform="translate(100 0)"/>
      </g>
     </g>
    </g>
    <g id="ytick_5">
     <g id="line2d_31">
      <path d="M 29.2 150.724858 
L 1054.48 150.724858 
" clip-path="url(#p19dab2ef9d)" style="fill: none; stroke-dasharray: 2.96,1.28; stroke-dashoffset: 0; stroke: #21262d; stroke-opacity: 0.4; stroke-width: 0.8"/>
     </g>
     <g id="line2d_32">
      <g>
       <use xlink:href="#mc436173529" x="29.2" y="150.724858" style="fill: #c9d1d9; stroke: #c9d1d9; stroke-width: 0.8"/>
      </g>
     </g>
     <g id="text_16">
      <!-- 0.8 -->
      <g style="fill: #c9d1d9" transform="translate(7.2 154.162358) scale(0.1 -0.1)">
       <defs>
        <path id="SimHei-38" d="M 175 1375 
Q 175 1675 325 1962 
Q 475 2250 825 2425 
Q 525 2600 425 2812 
Q 325 3025 312 3300 
Q 300 3575 387 3775 
Q 475 3975 650 4150 
Q 825 4325 1037 4387 
Q 1250 4450 1500 4450 
Q 1750 4450 1950 4400 
Q 2150 4350 2375 4187 
Q 2600 4025 2700 3725 
Q 2800 3425 2687 3025 
Q 2575 2625 2100 2400 
Q 2525 2275 2700 2012 
Q 2875 1750 2875 1375 
Q 2875 1000 2762 775 
Q 2650 550 2512 400 
Q 2375 250 2137 162 
Q 1900 75 1537 75 
Q 1175 75 912 162 
Q 650 250 475 425 
Q 300 600 237 837 
Q 175 1075 175 1375 
z
M 687 1400 
Q 675 1100 787 875 
Q 900 650 1200 587 
Q 1500 525 1825 600 
Q 2150 675 2275 950 
Q 2400 1225 2362 1500 
Q 2325 1775 2050 1962 
Q 1775 2150 1450 2125 
Q 1125 2100 912 1900 
Q 700 1700 687 1400 
z
M 775 3350 
Q 775 3100 950 2875 
Q 1125 2650 1500 2650 
Q 1875 2650 2062 2875 
Q 2250 3100 2237 3412 
Q 2225 3725 2012 3875 
Q 1800 4025 1437 4000 
Q 1075 3975 925 3787 
Q 775 3600 775 3350 
z
" transform="scale(0.015625)"/>
       </defs>
       <use xlink:href="#SimHei-30"/>
       <use xlink:href="#SimHei-2e" transform="translate(50 0)"/>
       <use xlink:href="#SimHei-38" transform="translate(100 0)"/>
      </g>
     </g>
    </g>
    <g id="ytick_6">
     <g id="line2d_33">
      <path d="M 29.2 55.161222 
L 1054.48 55.161222 
" clip-path="url(#p19dab2ef9d)" style="fill: none; stroke-dasharray: 2.96,1.28; stroke-dashoffset: 0; stroke: #21262d; stroke-opacity: 0.4; stroke-width: 0.8"/>
     </g>
     <g id="line2d_34">
      <g>
       <use xlink:href="#mc436173529" x="29.2" y="55.161222" style="fill: #c9d1d9; stroke: #c9d1d9; stroke-width: 0.8"/>
      </g>
     </g>
     <g id="text_17">
      <!-- 1.0 -->
      <g style="fill: #c9d1d9" transform="translate(7.2 58.598722) scale(0.1 -0.1)">
       <use xlink:href="#SimHei-31"/>
       <use xlink:href="#SimHei-2e" transform="translate(50 0)"/>
       <use xlink:href="#SimHei-30" transform="translate(100 0)"/>
      </g>
     </g>
    </g>
   </g>
   <g id="line2d_35">
    <path d="M 75.803636 522.993718 
L 78.859613 526.193101 
L 81.915589 527.062155 
L 84.971565 532.979403 
L 88.027541 529.376516 
L 97.195469 515.610515 
L 100.251446 509.408766 
L 103.307422 506.411677 
L 106.363398 502.397687 
L 109.419374 492.609324 
L 118.587303 480.066513 
L 121.643279 464.230758 
L 124.699255 459.208073 
L 127.755231 459.859257 
L 130.811207 461.915912 
L 139.979136 448.035647 
L 143.035112 450.323912 
L 146.091088 441.274308 
L 149.147064 432.715465 
L 152.20304 447.363833 
L 161.370969 441.472449 
L 164.426945 460.647018 
L 191.93073 428.68571 
L 194.986706 432.013933 
L 207.210611 426.903937 
L 210.266587 424.641894 
L 213.322563 422.806468 
L 216.378539 440.625415 
L 225.546468 443.24568 
L 228.602444 434.816013 
L 231.65842 428.991167 
L 234.714396 430.288724 
L 246.938301 411.483411 
L 249.994277 403.711247 
L 253.050253 397.331401 
L 256.10623 402.308017 
L 259.162206 407.048954 
L 268.330134 400.093242 
L 271.38611 400.987377 
L 274.442086 400.609047 
L 277.498063 392.453199 
L 280.554039 398.193174 
L 289.721967 393.975565 
L 292.777943 389.826205 
L 298.889896 395.781362 
L 301.945872 402.824069 
L 311.1138 397.84806 
L 314.169776 393.568758 
L 317.225753 397.856804 
L 320.281729 404.476408 
L 323.337705 420.340159 
L 332.505633 421.181547 
L 335.56161 419.4096 
L 338.617586 416.262552 
L 341.673562 415.622266 
L 344.729538 415.599624 
L 353.897466 408.74577 
L 356.953443 408.60213 
L 360.009419 410.85707 
L 363.065395 410.043824 
L 366.121371 411.750892 
L 375.2893 401.155484 
L 378.345276 395.856388 
L 381.401252 395.694349 
L 384.457228 397.838465 
L 387.513204 403.876028 
L 396.681133 399.815052 
L 399.737109 392.622863 
L 402.793085 394.267451 
L 405.849061 399.900322 
L 408.905037 397.068431 
L 418.072966 389.51554 
L 421.128942 379.44001 
L 424.184918 373.737881 
L 430.29687 379.589938 
L 439.464799 375.85393 
L 442.520775 370.24865 
L 445.576751 382.561598 
L 460.856632 371.869979 
L 463.912608 360.369549 
L 466.968584 344.388924 
L 470.02456 334.278877 
L 473.080537 329.961938 
L 482.248465 305.844252 
L 485.304441 301.497279 
L 488.360417 290.779041 
L 491.416393 278.869848 
L 494.47237 261.927087 
L 503.640298 263.356581 
L 506.696274 273.592131 
L 509.75225 260.504519 
L 512.808227 257.544449 
L 515.864203 257.189777 
L 525.032131 255.396539 
L 528.088107 257.028538 
L 531.144083 239.466331 
L 534.20006 242.920408 
L 537.256036 260.426416 
L 546.423964 261.945853 
L 549.47994 267.607182 
L 552.535917 279.228631 
L 555.591893 285.658403 
L 558.647869 295.544471 
L 567.815797 295.026637 
L 570.871773 296.995478 
L 573.92775 308.405009 
L 576.983726 302.563885 
L 580.039702 341.20651 
L 613.65544 320.160332 
L 616.711416 302.065226 
L 619.767392 290.225671 
L 631.991297 285.385276 
L 635.047273 298.130873 
L 638.103249 301.07238 
L 641.159225 297.435499 
L 644.215201 301.55276 
L 653.38313 298.893308 
L 656.439106 294.435958 
L 659.495082 295.385748 
L 662.551058 290.916195 
L 665.607034 296.442665 
L 674.774963 289.848448 
L 677.830939 294.897717 
L 680.886915 292.959669 
L 683.942891 294.309764 
L 686.998867 304.805962 
L 696.166796 311.197662 
L 699.222772 313.660694 
L 702.278748 313.838949 
L 705.334724 314.344284 
L 708.3907 321.708682 
L 717.558629 316.810897 
L 720.614605 320.514125 
L 723.670581 320.730624 
L 726.726557 327.663846 
L 729.782534 338.390777 
L 742.006438 337.611995 
L 745.062414 329.036895 
L 748.11839 325.212231 
L 760.342295 311.509826 
L 763.398271 301.527605 
L 769.510224 289.122668 
L 772.5662 288.319899 
L 781.734128 269.888233 
L 784.790104 265.636603 
L 787.84608 255.68749 
L 790.902057 254.340847 
L 793.958033 258.327198 
L 803.125961 246.22519 
L 806.181937 246.778261 
L 809.237914 240.272646 
L 812.29389 250.037368 
L 830.629747 220.713492 
L 833.685723 200.390778 
L 836.741699 190.661624 
L 845.909627 170.078025 
L 848.965604 159.430336 
L 852.02158 144.382112 
L 855.077556 139.366858 
L 858.133532 144.427471 
L 867.301461 131.506218 
L 870.357437 127.61156 
L 873.413413 121.093198 
L 876.469389 124.693561 
L 879.525365 123.040725 
L 888.693294 107.397602 
L 891.74927 102.439248 
L 894.805246 100.716593 
L 897.861222 96.114335 
L 900.917198 118.57043 
L 910.085127 123.835088 
L 913.141103 122.751077 
L 916.197079 115.978093 
L 919.253055 112.735394 
L 922.309031 127.393738 
L 931.47696 142.630932 
L 934.532936 144.553087 
L 937.588912 150.216367 
L 940.644888 149.711834 
L 943.700864 148.869561 
L 952.868793 132.167892 
L 955.924769 116.698925 
L 958.980745 97.854097 
L 962.036721 88.804994 
L 974.260626 75.345771 
L 977.316602 76.634195 
L 980.372578 69.226935 
L 983.428554 55.161222 
L 986.484531 65.606626 
L 995.652459 75.782944 
L 998.708435 60.618355 
L 1001.764411 57.011759 
L 1004.820387 63.141228 
L 1007.876364 80.269071 
L 1007.876364 80.269071 
" clip-path="url(#p19dab2ef9d)" style="fill: none; stroke: #008000; stroke-width: 2; stroke-linecap: square"/>
   </g>
   <g id="line2d_36">
    <path d="M 75.803636 433.332591 
L 78.859613 449.524958 
L 81.915589 475.059814 
L 84.971565 532.979403 
L 88.027541 471.945651 
L 97.195469 471.322879 
L 100.251446 488.138323 
L 103.307422 481.910302 
L 106.363398 405.929725 
L 109.419374 430.218733 
L 118.587303 425.236255 
L 121.643279 430.841505 
L 124.699255 410.289431 
L 127.755231 447.034176 
L 130.811207 440.806155 
L 139.979136 431.464276 
L 143.035112 429.595657 
L 146.091088 404.06141 
L 149.147064 384.131804 
L 152.20304 411.534975 
L 161.370969 363.579731 
L 164.426945 355.483395 
L 191.93073 308.774304 
L 194.986706 369.185285 
L 204.154635 386.000424 
L 207.210611 415.271604 
L 210.266587 377.281316 
L 213.322563 367.939437 
L 216.378539 428.350113 
L 225.546468 418.385767 
L 228.602444 374.79023 
L 231.65842 384.131804 
L 234.714396 372.921915 
L 246.938301 302.546283 
L 249.994277 317.493412 
L 253.050253 280.125895 
L 256.10623 304.414903 
L 259.162206 346.141821 
L 268.330134 341.782115 
L 271.38611 362.956959 
L 274.442086 359.22033 
L 277.498063 315.625097 
L 280.554039 321.852813 
L 289.721967 314.379249 
L 292.777943 341.782115 
L 295.83392 340.536876 
L 298.889896 311.265695 
L 301.945872 355.483395 
L 311.1138 374.79023 
L 314.169776 391.605368 
L 317.225753 382.886566 
L 320.281729 395.965075 
L 323.337705 465.71763 
L 332.505633 470.077031 
L 335.56161 445.165557 
L 338.617586 427.10457 
L 341.673562 429.595657 
L 344.729538 421.499321 
L 353.897466 389.114587 
L 360.009419 415.271604 
L 363.065395 407.79804 
L 366.121371 382.263794 
L 375.2893 361.088949 
L 378.345276 376.035773 
L 381.401252 379.772403 
L 384.457228 400.947248 
L 387.513204 384.75488 
L 396.681133 401.570324 
L 399.737109 430.841505 
L 402.793085 381.641022 
L 405.849061 400.947248 
L 408.905037 388.49151 
L 418.072966 362.334492 
L 421.128942 356.106471 
L 424.184918 345.519049 
L 427.240894 339.914104 
L 430.29687 328.703606 
L 439.464799 341.782115 
L 442.520775 335.554398 
L 445.576751 348.010136 
L 460.856632 291.336089 
L 463.912608 244.626693 
L 466.968584 255.836887 
L 470.02456 279.503123 
L 473.080537 265.801538 
L 482.248465 248.363323 
L 485.304441 258.95105 
L 488.360417 277.634504 
L 491.416393 272.029559 
L 494.47237 281.99421 
L 503.640298 280.71637 
L 506.696274 289.661857 
L 509.75225 285.828034 
L 512.808227 287.744793 
L 515.864203 302.441168 
L 525.032131 297.329504 
L 528.088107 298.607344 
L 531.144083 289.022937 
L 534.20006 261.547252 
L 537.256036 297.968424 
L 546.423964 368.893704 
L 549.47994 327.999788 
L 552.535917 300.524408 
L 555.591893 318.415382 
L 558.647869 337.584195 
L 567.815797 287.744793 
L 570.871773 283.911274 
L 573.92775 290.300777 
L 576.983726 287.744793 
L 580.039702 323.527045 
L 613.65544 294.77352 
L 616.711416 273.048723 
L 619.767392 282.63313 
L 622.823368 289.022937 
L 631.991297 280.077451 
L 635.047273 319.054302 
L 638.103249 362.503896 
L 641.159225 334.389596 
L 644.215201 326.083029 
L 653.38313 350.363505 
L 656.439106 315.859398 
L 659.495082 297.968424 
L 665.607034 319.693221 
L 674.774963 317.776462 
L 677.830939 339.501259 
L 680.886915 329.277628 
L 683.942891 369.532623 
L 686.998867 384.228693 
L 696.166796 477.517994 
L 699.222772 446.208486 
L 702.278748 404.675651 
L 705.334724 440.457903 
L 708.3907 427.678592 
L 717.558629 432.790256 
L 720.614605 456.432117 
L 723.670581 411.065458 
L 726.726557 439.818983 
L 729.782534 462.1827 
L 742.006438 467.294363 
L 745.062414 367.615559 
L 748.11839 386.784677 
L 751.174367 342.056938 
L 760.342295 335.667436 
L 763.398271 297.329504 
L 766.454247 308.830975 
L 769.510224 275.604707 
L 772.5662 280.077451 
L 781.734128 263.464317 
L 784.790104 256.435589 
L 787.84608 234.071872 
L 790.902057 240.461375 
L 793.958033 252.601766 
L 803.125961 252.601766 
L 806.181937 260.269413 
L 809.237914 227.682065 
L 812.29389 225.765305 
L 830.629747 184.87139 
L 833.685723 169.536096 
L 836.741699 186.14923 
L 845.909627 135.031988 
L 848.965604 136.949052 
L 852.02158 102.44464 
L 855.077556 151.006202 
L 858.133532 191.261197 
L 867.301461 207.874027 
L 870.357437 197.01178 
L 873.413413 195.733941 
L 876.469389 235.988632 
L 879.525365 201.484524 
L 888.693294 153.562186 
L 891.74927 131.198164 
L 894.805246 156.756785 
L 897.861222 156.756785 
L 900.917198 162.507673 
L 910.085127 197.6507 
L 913.141103 154.201106 
L 916.197079 135.670908 
L 919.253055 160.590609 
L 922.309031 213.624914 
L 931.47696 280.077451 
L 934.532936 224.487161 
L 937.588912 251.323926 
L 940.644888 272.409803 
L 943.700864 229.599129 
L 952.868793 165.063352 
L 955.924769 170.81424 
L 958.980745 140.143651 
L 962.036721 123.530517 
L 974.260626 55.161222 
L 977.316602 150.367282 
L 980.372578 134.393068 
L 983.428554 82.636907 
L 986.484531 172.730999 
L 995.652459 139.504731 
L 998.708435 101.1668 
L 1001.764411 114.58503 
L 1004.820387 209.152171 
L 1007.876364 192.539037 
L 1007.876364 192.539037 
" clip-path="url(#p19dab2ef9d)" style="fill: none; stroke: #ff0000; stroke-width: 2; stroke-linecap: square"/>
   </g>
   <g id="line2d_37">
    <path d="M 75.803636 419.639243 
L 78.859613 464.378795 
L 81.915589 491.819038 
L 84.971565 532.979403 
L 88.027541 481.678104 
L 97.195469 467.957982 
L 100.251446 488.239851 
L 103.307422 486.450258 
L 106.363398 437.535035 
L 109.419374 438.131661 
L 118.587303 442.307332 
L 121.643279 419.639243 
L 124.699255 404.726154 
L 127.755231 426.797617 
L 130.811207 433.955848 
L 139.979136 422.621946 
L 143.035112 441.710706 
L 146.091088 409.498308 
L 149.147064 419.042759 
L 152.20304 439.921113 
L 161.370969 417.253166 
L 164.426945 398.76089 
L 191.93073 387.426845 
L 194.986706 409.498308 
L 204.154635 410.691418 
L 207.210611 450.06219 
L 210.266587 421.428836 
L 213.322563 444.096925 
L 216.378539 491.819038 
L 225.546468 484.064181 
L 228.602444 458.413531 
L 231.65842 464.975279 
L 234.714396 463.782311 
L 246.938301 421.428836 
L 249.994277 423.21843 
L 253.050253 399.953857 
L 256.10623 419.042759 
L 259.162206 417.253166 
L 268.330134 407.112231 
L 271.38611 434.552474 
L 274.442086 427.394101 
L 277.498063 404.726154 
L 280.554039 407.112231 
L 289.721967 402.93656 
L 292.777943 407.708715 
L 295.83392 419.639243 
L 298.889896 392.795483 
L 301.945872 416.656682 
L 311.1138 414.867089 
L 314.169776 426.797617 
L 317.225753 442.903816 
L 320.281729 453.641234 
L 323.337705 519.855765 
L 332.505633 502.556457 
L 335.56161 482.274587 
L 338.617586 480.484994 
L 341.673562 479.292026 
L 344.729538 456.027454 
L 353.897466 447.079486 
L 356.953443 461.396092 
L 360.009419 478.098917 
L 363.065395 476.905807 
L 366.121371 451.851783 
L 375.2893 436.342068 
L 378.345276 445.289893 
L 381.401252 438.728145 
L 384.457228 459.010015 
L 387.513204 447.079486 
L 396.681133 461.992718 
L 399.737109 491.222555 
L 402.793085 467.957982 
L 405.849061 470.940543 
L 408.905037 457.220421 
L 418.072966 439.324629 
L 421.128942 442.307332 
L 424.184918 411.884385 
L 427.240894 395.181703 
L 430.29687 388.619813 
L 439.464799 394.585077 
L 442.520775 389.812922 
L 445.576751 391.602516 
L 460.856632 351.635261 
L 463.912608 324.195017 
L 466.968584 315.843534 
L 470.02456 299.737335 
L 473.080537 252.611706 
L 482.248465 193.555548 
L 485.304441 234.119429 
L 488.360417 233.522804 
L 491.416393 231.136726 
L 494.47237 233.522804 
L 503.640298 229.347133 
L 506.696274 246.646441 
L 509.75225 236.505507 
L 512.808227 213.240934 
L 515.864203 169.097866 
L 525.032131 204.292967 
L 528.088107 195.941625 
L 531.144083 195.345142 
L 534.20006 206.679186 
L 537.256036 228.154165 
L 546.423964 305.702599 
L 549.47994 244.260364 
L 552.535917 241.874287 
L 555.591893 272.893575 
L 558.647869 281.245059 
L 567.815797 232.329836 
L 570.871773 232.92632 
L 573.92775 230.540243 
L 576.983726 212.64445 
L 580.039702 240.681177 
L 613.65544 218.609714 
L 616.711416 185.204207 
L 619.767392 173.273679 
L 622.823368 152.991667 
L 631.991297 178.045833 
L 635.047273 254.997783 
L 638.103249 269.911014 
L 641.159225 251.418596 
L 644.215201 234.119429 
L 653.38313 243.663738 
L 656.439106 209.661747 
L 659.495082 207.27567 
L 662.551058 211.451341 
L 665.607034 239.488068 
L 674.774963 241.874287 
L 677.830939 285.420729 
L 680.886915 271.103982 
L 683.942891 312.860973 
L 686.998867 347.459448 
L 696.166796 434.552474 
L 699.222772 393.392109 
L 702.278748 355.214305 
L 705.334724 384.444142 
L 708.3907 355.810931 
L 717.558629 351.635261 
L 720.614605 383.251175 
L 723.670581 351.635261 
L 726.726557 383.847658 
L 729.782534 406.515605 
L 742.006438 388.023329 
L 745.062414 303.913005 
L 748.11839 312.264347 
L 751.174367 294.368554 
L 760.342295 288.40329 
L 763.398271 257.38386 
L 766.454247 266.928311 
L 769.510224 234.715913 
L 772.5662 211.451341 
L 781.734128 206.08256 
L 784.790104 207.872154 
L 787.84608 171.484085 
L 790.902057 198.924329 
L 793.958033 214.434044 
L 803.125961 209.065263 
L 806.181937 232.329836 
L 809.237914 204.889593 
L 812.29389 195.345142 
L 830.629747 149.41248 
L 833.685723 113.620895 
L 836.741699 108.252115 
L 845.909627 80.215388 
L 848.965604 89.163355 
L 852.02158 55.161222 
L 855.077556 92.742542 
L 858.133532 119.586159 
L 867.301461 109.445225 
L 870.357437 89.759839 
L 873.413413 87.373762 
L 876.469389 160.746524 
L 879.525365 117.200082 
L 888.693294 90.952949 
L 891.74927 117.796566 
L 894.805246 150.60559 
L 897.861222 129.13061 
L 900.917198 185.800691 
L 910.085127 198.327703 
L 913.141103 192.362438 
L 916.197079 182.817987 
L 919.253055 180.43191 
L 922.309031 200.117296 
L 931.47696 262.156157 
L 934.532936 212.64445 
L 937.588912 232.92632 
L 940.644888 245.453332 
L 943.700864 234.119429 
L 952.868793 155.377744 
L 955.924769 120.182785 
L 958.980745 109.445225 
L 962.036721 89.759839 
L 974.260626 65.302299 
L 977.316602 112.427928 
L 980.372578 89.759839 
L 983.428554 76.636201 
L 986.484531 132.709797 
L 995.652459 136.288984 
L 998.708435 82.004981 
L 1001.764411 62.916079 
L 1004.820387 113.620895 
L 1007.876364 123.76183 
L 1007.876364 123.76183 
" clip-path="url(#p19dab2ef9d)" style="fill: none; stroke: #0000ff; stroke-width: 2; stroke-linecap: square"/>
   </g>
   <g id="patch_3">
    <path d="M 29.2 556.870312 
L 29.2 31.270312 
" style="fill: none; stroke: #30363d; stroke-width: 0.8; stroke-linejoin: miter; stroke-linecap: square"/>
   </g>
   <g id="patch_4">
    <path d="M 1054.48 556.870312 
L 1054.48 31.270312 
" style="fill: none; stroke: #30363d; stroke-width: 0.8; stroke-linejoin: miter; stroke-linecap: square"/>
   </g>
   <g id="patch_5">
    <path d="M 29.2 556.870312 
L 1054.48 556.870312 
" style="fill: none; stroke: #30363d; stroke-width: 0.8; stroke-linejoin: miter; stroke-linecap: square"/>
   </g>
   <g id="patch_6">
    <path d="M 29.2 31.270312 
L 1054.48 31.270312 
" style="fill: none; stroke: #30363d; stroke-width: 0.8; stroke-linejoin: miter; stroke-linecap: square"/>
   </g>
   <g id="text_18">
    <!-- 2026-07-06 -->
    <g style="fill: #8b949e; opacity: 0.6" transform="translate(999.2272 550.489312) scale(0.09 -0.09)">
     <use xlink:href="#SimHei-32"/>
     <use xlink:href="#SimHei-30" transform="translate(50 0)"/>
     <use xlink:href="#SimHei-32" transform="translate(100 0)"/>
     <use xlink:href="#SimHei-36" transform="translate(150 0)"/>
     <use xlink:href="#SimHei-2d" transform="translate(200 0)"/>
     <use xlink:href="#SimHei-30" transform="translate(250 0)"/>
     <use xlink:href="#SimHei-37" transform="translate(300 0)"/>
     <use xlink:href="#SimHei-2d" transform="translate(350 0)"/>
     <use xlink:href="#SimHei-30" transform="translate(400 0)"/>
     <use xlink:href="#SimHei-36" transform="translate(450 0)"/>
    </g>
   </g>
   <g id="text_19">
    <!-- 融资余额与ETF对比 -->
    <g style="fill: #c9d1d9" transform="translate(478.09 19.270312) scale(0.15 -0.15)">
     <defs>
      <path id="SimHei-878d" d="M 5200 975 
Q 5400 1025 5650 1125 
Q 5775 775 5887 475 
Q 6000 175 6150 -350 
Q 5925 -425 5675 -500 
Q 5575 -175 5500 50 
Q 4825 -100 4362 -212 
Q 3900 -325 3400 -500 
Q 3325 -225 3200 0 
Q 3575 25 4350 175 
L 4350 1750 
L 3850 1750 
L 3850 1225 
L 3375 1225 
Q 3400 1975 3400 2675 
Q 3400 3400 3375 3925 
L 4350 3925 
Q 4350 4925 4325 5200 
L 4825 5200 
Q 4800 4875 4800 3925 
L 5775 3925 
Q 5750 3325 5750 2700 
Q 5750 2100 5775 1550 
L 5300 1550 
L 5300 1750 
L 4800 1750 
L 4800 250 
Q 5075 325 5400 400 
Q 5325 650 5200 975 
z
M 2025 -50 
Q 2425 -50 2475 -12 
Q 2525 25 2550 150 
L 2550 1975 
L 825 1975 
L 825 -500 
L 350 -500 
Q 375 100 375 475 
L 375 1400 
Q 375 1850 350 2350 
L 3000 2350 
Q 2975 1950 2975 1450 
L 2975 -25 
Q 2975 -325 2787 -387 
Q 2600 -450 2225 -525 
Q 2125 -225 2025 -50 
z
M 625 2725 
Q 650 3050 650 3350 
Q 650 3675 625 3975 
L 2850 3975 
Q 2825 3675 2825 3350 
Q 2825 3050 2850 2725 
L 625 2725 
z
M 3000 4450 
Q 2650 4475 2175 4475 
L 1200 4475 
Q 625 4475 250 4450 
L 250 4875 
Q 550 4850 1125 4850 
L 2175 4850 
Q 2700 4850 3000 4875 
L 3000 4450 
z
M 2325 1675 
Q 2175 1475 2000 1025 
L 2325 1025 
L 2325 675 
L 1850 675 
L 1850 -125 
L 1425 -125 
L 1425 675 
L 1025 675 
L 1025 1025 
L 1700 1025 
Q 1875 1500 1925 1825 
Q 2100 1700 2325 1675 
z
M 5300 2125 
L 5300 3550 
L 4800 3550 
L 4800 2125 
L 5300 2125 
z
M 4350 2125 
L 4350 3550 
L 3850 3550 
L 3850 2125 
L 4350 2125 
z
M 2350 3100 
L 2350 3600 
L 1100 3600 
L 1100 3100 
L 2350 3100 
z
M 1575 1275 
Q 1400 1225 1225 1150 
Q 1150 1425 1025 1675 
L 1325 1825 
Q 1425 1550 1575 1275 
z
" transform="scale(0.015625)"/>
      <path id="SimHei-8d44" d="M 5300 2150 
Q 5275 1825 5275 1450 
Q 5275 1075 5300 575 
L 4800 575 
L 4800 1725 
L 1700 1725 
L 1700 425 
L 1200 425 
Q 1225 1000 1225 1375 
Q 1225 1775 1200 2150 
L 5300 2150 
z
M 4225 4075 
Q 4050 3775 4200 3562 
Q 4350 3350 4612 3162 
Q 4875 2975 5262 2850 
Q 5650 2725 6125 2700 
Q 5925 2425 5825 2175 
Q 5200 2300 4712 2550 
Q 4225 2800 3900 3350 
Q 3675 2775 3250 2550 
Q 2825 2325 2325 2175 
Q 2125 2400 1925 2575 
Q 2975 2775 3300 3175 
Q 3625 3575 3650 4150 
L 4225 4075 
z
M 3125 4250 
Q 2825 3850 2550 3650 
Q 2375 3825 2175 3950 
Q 2475 4150 2737 4487 
Q 3000 4825 3150 5200 
Q 3375 5100 3700 5050 
Q 3575 4825 3400 4650 
L 5750 4650 
Q 5675 4500 5300 3675 
Q 5000 3750 4800 3775 
Q 4925 4050 5025 4250 
L 3125 4250 
z
M 3525 1375 
Q 3400 1100 3337 825 
Q 3275 550 3012 262 
Q 2750 -25 2250 -275 
Q 1750 -525 800 -675 
Q 725 -425 500 -200 
Q 1225 -175 1712 -12 
Q 2200 150 2450 350 
Q 2700 550 2812 837 
Q 2925 1125 2925 1450 
Q 3225 1400 3525 1375 
z
M 3825 700 
Q 4300 525 4750 350 
Q 5200 175 5825 -100 
Q 5675 -300 5550 -600 
Q 5075 -325 4612 -125 
Q 4150 75 3625 250 
Q 3750 450 3825 700 
z
M 2075 3325 
Q 1450 2750 875 2050 
Q 625 2325 475 2425 
Q 1275 3050 1725 3625 
Q 1850 3500 2075 3325 
z
M 1700 3975 
Q 1300 4275 625 4675 
Q 800 4850 925 5025 
Q 1150 4875 2000 4350 
Q 1850 4200 1700 3975 
z
" transform="scale(0.015625)"/>
      <path id="SimHei-4f59" d="M 3850 3050 
Q 4150 3050 4525 3075 
L 4525 2600 
Q 4225 2625 3850 2625 
L 3450 2625 
L 3450 1825 
L 4475 1825 
Q 5050 1825 5375 1850 
L 5375 1350 
Q 5025 1375 4500 1375 
L 3450 1375 
L 3450 -75 
Q 3450 -450 3187 -525 
Q 2925 -600 2550 -650 
Q 2525 -425 2350 -50 
Q 2825 -75 2887 -25 
Q 2950 25 2950 175 
L 2950 1375 
L 1800 1375 
Q 1225 1375 900 1350 
L 900 1850 
Q 1200 1825 1800 1825 
L 2950 1825 
L 2950 2625 
L 2550 2625 
Q 2325 2625 1825 2600 
L 1825 3075 
Q 2225 3050 2525 3050 
L 3850 3050 
z
M 3400 4850 
Q 4450 3575 6150 3300 
Q 5925 3150 5750 2700 
Q 4150 3250 3100 4550 
Q 2375 3350 800 2400 
Q 450 2725 325 2800 
Q 1475 3325 2112 4100 
Q 2750 4875 2900 5275 
Q 3150 5175 3550 5050 
L 3400 4850 
z
M 2325 700 
Q 2075 500 1625 112 
Q 1175 -275 925 -450 
Q 725 -225 525 -50 
Q 1600 675 1900 1075 
Q 2100 875 2325 700 
z
M 4400 1175 
Q 4750 850 5025 550 
L 5600 0 
Q 5375 -175 5125 -400 
Q 4875 25 4050 850 
Q 4200 950 4400 1175 
z
" transform="scale(0.015625)"/>
      <path id="SimHei-989d" d="M 1925 3700 
Q 1725 3550 1550 3350 
L 2950 3350 
Q 2875 3150 2700 2875 
Q 2525 2600 2300 2300 
Q 2500 2200 2712 2075 
Q 2925 1950 3275 1725 
Q 3125 1575 2950 1325 
Q 2700 1525 2475 1662 
Q 2250 1800 1950 1950 
Q 1575 1650 1150 1375 
L 2800 1375 
Q 2775 950 2775 500 
Q 2775 50 2800 -450 
L 2325 -450 
L 2325 -50 
L 1325 -50 
L 1325 -575 
L 875 -575 
Q 900 -75 900 275 
L 900 1175 
Q 675 1075 550 1000 
Q 400 1225 225 1400 
Q 625 1550 975 1762 
Q 1325 1975 1550 2200 
Q 1300 2350 1075 2475 
Q 1175 2625 1350 2800 
Q 1625 2650 1925 2500 
Q 2150 2750 2300 3000 
L 1300 3000 
Q 1200 2875 1025 2687 
Q 850 2500 650 2275 
Q 475 2425 250 2575 
Q 650 2875 937 3237 
Q 1225 3600 1375 3925 
Q 1650 3800 1925 3700 
z
M 4150 4400 
Q 3775 4400 3375 4375 
L 3375 4825 
Q 3750 4800 4200 4800 
L 5300 4800 
Q 5600 4800 6000 4825 
L 6000 4375 
Q 5625 4400 5300 4400 
L 4950 4400 
Q 4850 3975 4725 3525 
L 5750 3525 
Q 5725 3125 5725 2775 
L 5725 1625 
Q 5725 1300 5750 825 
L 5300 825 
L 5300 3175 
L 3925 3175 
L 3925 800 
L 3450 800 
Q 3475 1275 3475 1650 
L 3475 2800 
Q 3475 3175 3450 3525 
L 4300 3525 
Q 4400 4025 4450 4400 
L 4150 4400 
z
M 2050 5100 
Q 2100 4825 2200 4475 
L 3225 4475 
Q 3200 4275 3200 4075 
Q 3200 3875 3225 3675 
L 2775 3675 
L 2775 4100 
L 875 4100 
L 875 3500 
L 400 3500 
Q 425 3775 425 4000 
Q 425 4250 400 4475 
L 1650 4475 
Q 1550 4750 1475 5000 
Q 1800 5050 2050 5100 
z
M 4925 2725 
Q 4850 2425 4837 2025 
Q 4825 1625 4712 1175 
Q 4600 725 4262 250 
Q 3925 -225 3250 -675 
Q 3050 -425 2850 -250 
Q 3375 -25 3687 262 
Q 4000 550 4162 937 
Q 4325 1325 4350 1750 
Q 4375 2175 4375 2775 
Q 4575 2750 4925 2725 
z
M 2325 325 
L 2325 1025 
L 1325 1025 
L 1325 325 
L 2325 325 
z
M 5075 800 
Q 5300 575 5487 400 
Q 5675 225 6025 -100 
Q 5800 -275 5600 -500 
Q 5450 -275 5275 -87 
Q 5100 100 4675 400 
Q 4875 575 5075 800 
z
" transform="scale(0.015625)"/>
      <path id="SimHei-4e0e" d="M 5350 100 
Q 5275 -300 4925 -425 
Q 4575 -550 3900 -600 
Q 3875 -375 3650 -25 
Q 4375 -50 4575 0 
Q 4775 50 4837 225 
Q 4900 400 5100 2350 
L 1125 2350 
Q 1450 4350 1475 5200 
Q 1800 5150 2075 5125 
Q 1975 4825 1900 4275 
L 4900 4275 
Q 5400 4275 5800 4300 
L 5800 3825 
Q 5400 3850 4950 3850 
L 1850 3850 
L 1700 2750 
L 5675 2750 
Q 5625 2450 5575 2050 
L 5350 100 
z
M 3675 1350 
Q 4125 1350 4500 1375 
L 4500 875 
Q 4125 900 3850 900 
L 1450 900 
Q 1000 900 500 875 
L 500 1375 
Q 1000 1350 1450 1350 
L 3675 1350 
z
" transform="scale(0.015625)"/>
      <path id="SimHei-45" d="M 2900 125 
L 350 125 
L 350 4400 
L 2775 4400 
L 2775 3925 
L 925 3925 
L 925 2600 
L 2625 2600 
L 2625 2125 
L 925 2125 
L 925 600 
L 2900 600 
L 2900 125 
z
" transform="scale(0.015625)"/>
      <path id="SimHei-54" d="M 2850 3925 
L 1850 3925 
L 1850 125 
L 1275 125 
L 1275 3925 
L 275 3925 
L 275 4400 
L 2850 4400 
L 2850 3925 
z
" transform="scale(0.015625)"/>
      <path id="SimHei-46" d="M 2925 3925 
L 875 3925 
L 875 2525 
L 2425 2525 
L 2425 2050 
L 875 2050 
L 875 125 
L 300 125 
L 300 4400 
L 2925 4400 
L 2925 3925 
z
" transform="scale(0.015625)"/>
      <path id="SimHei-5bf9" d="M 525 4250 
Q 900 4225 1400 4225 
L 2825 4225 
Q 2575 2625 2200 1750 
Q 2825 875 3125 400 
Q 2950 275 2725 75 
Q 2200 975 1950 1300 
Q 1650 775 1350 425 
Q 1050 75 600 -350 
Q 425 -125 200 -25 
Q 625 275 975 675 
Q 1325 1075 1650 1700 
Q 1050 2425 550 2900 
Q 700 3025 900 3225 
Q 1625 2425 1875 2150 
Q 2200 3050 2300 3825 
L 1400 3825 
Q 900 3825 525 3800 
L 525 4250 
z
M 2925 3700 
Q 3525 3675 3750 3675 
L 4825 3675 
L 4825 4425 
Q 4825 4750 4775 5125 
L 5350 5125 
Q 5325 4825 5325 4375 
L 5325 3675 
Q 5575 3675 6150 3700 
L 6150 3250 
Q 5575 3275 5325 3275 
L 5325 125 
Q 5350 -350 5012 -475 
Q 4675 -600 4250 -650 
Q 4175 -350 4025 -100 
Q 4575 -100 4712 -37 
Q 4850 25 4825 325 
L 4825 3275 
L 3775 3275 
Q 3550 3275 2925 3225 
L 2925 3700 
z
M 3450 2725 
Q 3875 1975 4175 1325 
Q 3850 1200 3700 1075 
Q 3475 1750 3050 2475 
Q 3225 2550 3450 2725 
z
" transform="scale(0.015625)"/>
      <path id="SimHei-6bd4" d="M 3775 5100 
Q 3750 4575 3750 4100 
L 3750 3050 
Q 4925 3600 5475 4175 
Q 5675 3900 5900 3675 
Q 5600 3500 5037 3187 
Q 4475 2875 3750 2550 
L 3750 450 
Q 3750 100 4050 100 
L 5000 100 
Q 5175 100 5262 250 
Q 5350 400 5450 900 
Q 5650 775 6025 675 
Q 5850 0 5650 -175 
Q 5450 -350 5225 -350 
L 3900 -350 
Q 3250 -350 3250 275 
L 3250 4000 
Q 3250 4550 3225 5100 
L 3775 5100 
z
M 1275 4975 
Q 1250 4575 1250 4000 
L 1250 3150 
L 1850 3150 
Q 2325 3150 2875 3175 
L 2875 2650 
Q 2325 2675 1850 2675 
L 1250 2675 
L 1250 475 
Q 1650 650 1962 812 
Q 2275 975 2850 1275 
Q 2900 950 2950 750 
Q 2375 475 1762 175 
Q 1150 -125 925 -325 
Q 750 -100 575 200 
Q 700 300 750 600 
L 750 3950 
Q 750 4550 725 4975 
L 1275 4975 
z
" transform="scale(0.015625)"/>
     </defs>
     <use xlink:href="#SimHei-878d"/>
     <use xlink:href="#SimHei-8d44" transform="translate(100 0)"/>
     <use xlink:href="#SimHei-4f59" transform="translate(200 0)"/>
     <use xlink:href="#SimHei-989d" transform="translate(300 0)"/>
     <use xlink:href="#SimHei-4e0e" transform="translate(400 0)"/>
     <use xlink:href="#SimHei-45" transform="translate(500 0)"/>
     <use xlink:href="#SimHei-54" transform="translate(550 0)"/>
     <use xlink:href="#SimHei-46" transform="translate(600 0)"/>
     <use xlink:href="#SimHei-5bf9" transform="translate(650 0)"/>
     <use xlink:href="#SimHei-6bd4" transform="translate(750 0)"/>
    </g>
   </g>
   <g id="legend_1">
    <g id="patch_7">
     <path d="M 36.2 80.067187 
L 108.2 80.067187 
Q 110.2 80.067187 110.2 78.067187 
L 110.2 38.270312 
Q 110.2 36.270312 108.2 36.270312 
L 36.2 36.270312 
Q 34.2 36.270312 34.2 38.270312 
L 34.2 78.067187 
Q 34.2 80.067187 36.2 80.067187 
z
" style="fill: #161b22; opacity: 0.9; stroke: #30363d; stroke-linejoin: miter"/>
    </g>
    <g id="line2d_38">
     <path d="M 38.2 44.817187 
L 48.2 44.817187 
L 58.2 44.817187 
" style="fill: none; stroke: #008000; stroke-width: 2; stroke-linecap: square"/>
    </g>
    <g id="text_20">
     <!-- 融资余额 -->
     <g style="fill: #c9d1d9" transform="translate(66.2 48.317187) scale(0.1 -0.1)">
      <use xlink:href="#SimHei-878d"/>
      <use xlink:href="#SimHei-8d44" transform="translate(100 0)"/>
      <use xlink:href="#SimHei-4f59" transform="translate(200 0)"/>
      <use xlink:href="#SimHei-989d" transform="translate(300 0)"/>
     </g>
    </g>
    <g id="line2d_39">
     <path d="M 38.2 58.067187 
L 48.2 58.067187 
L 58.2 58.067187 
" style="fill: none; stroke: #ff0000; stroke-width: 2; stroke-linecap: square"/>
    </g>
    <g id="text_21">
     <!-- 300ETF -->
     <g style="fill: #c9d1d9" transform="translate(66.2 61.567187) scale(0.1 -0.1)">
      <use xlink:href="#SimHei-33"/>
      <use xlink:href="#SimHei-30" transform="translate(50 0)"/>
      <use xlink:href="#SimHei-30" transform="translate(100 0)"/>
      <use xlink:href="#SimHei-45" transform="translate(150 0)"/>
      <use xlink:href="#SimHei-54" transform="translate(200 0)"/>
      <use xlink:href="#SimHei-46" transform="translate(250 0)"/>
     </g>
    </g>
    <g id="line2d_40">
     <path d="M 38.2 71.317187 
L 48.2 71.317187 
L 58.2 71.317187 
" style="fill: none; stroke: #0000ff; stroke-width: 2; stroke-linecap: square"/>
    </g>
    <g id="text_22">
     <!-- 1000ETF -->
     <g style="fill: #c9d1d9" transform="translate(66.2 74.817187) scale(0.1 -0.1)">
      <use xlink:href="#SimHei-31"/>
      <use xlink:href="#SimHei-30" transform="translate(50 0)"/>
      <use xlink:href="#SimHei-30" transform="translate(100 0)"/>
      <use xlink:href="#SimHei-30" transform="translate(150 0)"/>
      <use xlink:href="#SimHei-45" transform="translate(200 0)"/>
      <use xlink:href="#SimHei-54" transform="translate(250 0)"/>
      <use xlink:href="#SimHei-46" transform="translate(300 0)"/>
     </g>
    </g>
   </g>
  </g>
 </g>
 <defs>
  <clipPath id="p19dab2ef9d">
   <rect x="29.2" y="31.270312" width="1025.28" height="525.6"/>
  </clipPath>
 </defs>
</svg>
