<?xml version="1.0" encoding="utf-8" standalone="no"?>
<!DOCTYPE svg PUBLIC "-//W3C//DTD SVG 1.1//EN"
  "http://www.w3.org/Graphics/SVG/1.1/DTD/svg11.dtd">
<svg xmlns:xlink="http://www.w3.org/1999/xlink" width="1070.233419pt" height="595.606769pt" viewBox="0 0 1070.233419 595.606769" xmlns="http://www.w3.org/2000/svg" version="1.1">
 <metadata>
  <rdf:RDF xmlns:dc="http://purl.org/dc/elements/1.1/" xmlns:cc="http://creativecommons.org/ns#" xmlns:rdf="http://www.w3.org/1999/02/22-rdf-syntax-ns#">
   <cc:Work>
    <dc:type rdf:resource="http://purl.org/dc/dcmitype/StillImage"/>
    <dc:date>2026-07-20T22:30:20.848209</dc:date>
    <dc:format>image/svg+xml</dc:format>
    <dc:creator>
     <cc:Agent>
      <dc:title>Matplotlib v3.10.9, https://matplotlib.org/</dc:title>
     </cc:Agent>
    </dc:creator>
   </cc:Work>
  </rdf:RDF>
 </metadata>
 <defs>
  <style type="text/css">*{stroke-linejoin: round; stroke-linecap: butt}</style>
 </defs>
 <g id="figure_1">
  <g id="patch_1">
   <path d="M 0 595.606769 
L 1070.233419 595.606769 
L 1070.233419 0 
L 0 0 
z
" style="fill: #0d1117"/>
  </g>
  <g id="axes_1">
   <g id="patch_2">
    <path d="M 37.753419 556.870312 
L 1063.033419 556.870312 
L 1063.033419 31.270312 
L 37.753419 31.270312 
z
" style="fill: #161b22"/>
   </g>
   <g id="matplotlib.axis_1">
    <g id="xtick_1">
     <g id="line2d_1">
      <path d="M 41.573389 556.870312 
L 41.573389 31.270312 
" clip-path="url(#p4b4f22fced)" style="fill: none; stroke-dasharray: 2.96,1.28; stroke-dashoffset: 0; stroke: #21262d; stroke-opacity: 0.4; stroke-width: 0.8"/>
     </g>
     <g id="line2d_2">
      <defs>
       <path id="m72e25080f3" d="M 0 0 
L 0 3.5 
" style="stroke: #c9d1d9; stroke-width: 0.8"/>
      </defs>
      <g>
       <use xlink:href="#m72e25080f3" x="41.573389" y="556.870312" style="fill: #c9d1d9; stroke: #c9d1d9; stroke-width: 0.8"/>
      </g>
     </g>
     <g id="text_1">
      <!-- 2025-09 -->
      <g style="fill: #c9d1d9" transform="translate(10.6375 587.324237) rotate(-30) scale(0.1 -0.1)">
       <defs>
        <path id="SimHei-32" d="M 300 250 
Q 325 625 650 925 
Q 975 1225 1475 1862 
Q 1975 2500 2125 2850 
Q 2275 3200 2237 3450 
Q 2200 3700 2000 3862 
Q 1800 4025 1537 4000 
Q 1275 3975 1037 3800 
Q 800 3625 675 3275 
L 200 3350 
Q 400 3925 712 4187 
Q 1025 4450 1450 4475 
Q 1700 4500 1900 4462 
Q 2100 4425 2312 4287 
Q 2525 4150 2662 3875 
Q 2800 3600 2762 3212 
Q 2725 2825 2375 2287 
Q 2025 1750 1025 600 
L 2825 600 
L 2825 150 
L 300 150 
L 300 250 
z
" transform="scale(0.015625)"/>
        <path id="SimHei-30" d="M 225 2537 
Q 250 3200 412 3587 
Q 575 3975 875 4225 
Q 1175 4475 1612 4475 
Q 2050 4475 2375 4112 
Q 2700 3750 2800 3200 
Q 2900 2650 2862 1937 
Q 2825 1225 2612 775 
Q 2400 325 1975 150 
Q 1550 -25 1125 187 
Q 700 400 525 750 
Q 350 1100 275 1487 
Q 200 1875 225 2537 
z
M 750 2687 
Q 675 2000 800 1462 
Q 925 925 1212 700 
Q 1500 475 1800 612 
Q 2100 750 2237 1162 
Q 2375 1575 2375 2062 
Q 2375 2550 2337 2950 
Q 2300 3350 2112 3675 
Q 1925 4000 1612 4012 
Q 1300 4025 1062 3700 
Q 825 3375 750 2687 
z
" transform="scale(0.015625)"/>
        <path id="SimHei-35" d="M 550 1325 
Q 725 650 1150 575 
Q 1575 500 1837 662 
Q 2100 825 2212 1087 
Q 2325 1350 2312 1675 
Q 2300 2000 2137 2225 
Q 1975 2450 1725 2525 
Q 1475 2600 1162 2525 
Q 850 2450 650 2175 
L 225 2225 
Q 275 2375 700 4375 
L 2675 4375 
L 2675 3925 
L 1075 3925 
Q 950 3250 825 2850 
Q 1200 3025 1525 3012 
Q 1850 3000 2150 2862 
Q 2450 2725 2587 2487 
Q 2725 2250 2787 2012 
Q 2850 1775 2837 1500 
Q 2825 1225 2725 937 
Q 2625 650 2425 462 
Q 2225 275 1937 162 
Q 1650 50 1275 75 
Q 900 100 562 350 
Q 225 600 100 1200 
L 550 1325 
z
" transform="scale(0.015625)"/>
        <path id="SimHei-2d" d="M 2975 2125 
L 125 2125 
L 125 2525 
L 2975 2525 
L 2975 2125 
z
" transform="scale(0.015625)"/>
        <path id="SimHei-39" d="M 800 75 
Q 1350 1000 1700 1750 
Q 1075 1650 662 1912 
Q 250 2175 162 2625 
Q 75 3075 175 3437 
Q 275 3800 487 4037 
Q 700 4275 1000 4375 
Q 1300 4475 1537 4475 
Q 1775 4475 2025 4375 
Q 2275 4275 2475 4075 
Q 2675 3875 2750 3662 
Q 2825 3450 2825 3112 
Q 2825 2775 2575 2250 
Q 2325 1725 1350 75 
L 800 75 
z
M 662 2875 
Q 700 2550 937 2337 
Q 1175 2125 1450 2150 
Q 1725 2175 1887 2300 
Q 2050 2425 2200 2725 
Q 2300 3100 2250 3362 
Q 2200 3625 1987 3800 
Q 1775 3975 1525 3975 
Q 1375 4000 1137 3900 
Q 900 3800 762 3500 
Q 625 3200 662 2875 
z
" transform="scale(0.015625)"/>
       </defs>
       <use xlink:href="#SimHei-32"/>
       <use xlink:href="#SimHei-30" transform="translate(50 0)"/>
       <use xlink:href="#SimHei-32" transform="translate(100 0)"/>
       <use xlink:href="#SimHei-35" transform="translate(150 0)"/>
       <use xlink:href="#SimHei-2d" transform="translate(200 0)"/>
       <use xlink:href="#SimHei-30" transform="translate(250 0)"/>
       <use xlink:href="#SimHei-39" transform="translate(300 0)"/>
      </g>
     </g>
    </g>
    <g id="xtick_2">
     <g id="line2d_3">
      <path d="M 133.252674 556.870312 
L 133.252674 31.270312 
" clip-path="url(#p4b4f22fced)" style="fill: none; stroke-dasharray: 2.96,1.28; stroke-dashoffset: 0; stroke: #21262d; stroke-opacity: 0.4; stroke-width: 0.8"/>
     </g>
     <g id="line2d_4">
      <g>
       <use xlink:href="#m72e25080f3" x="133.252674" y="556.870312" style="fill: #c9d1d9; stroke: #c9d1d9; stroke-width: 0.8"/>
      </g>
     </g>
     <g id="text_2">
      <!-- 2025-10 -->
      <g style="fill: #c9d1d9" transform="translate(102.316785 587.324237) rotate(-30) scale(0.1 -0.1)">
       <defs>
        <path id="SimHei-31" d="M 1400 3600 
Q 1075 3275 575 2975 
L 575 3450 
Q 1200 3875 1600 4450 
L 1900 4450 
L 1900 150 
L 1400 150 
L 1400 3600 
z
" transform="scale(0.015625)"/>
       </defs>
       <use xlink:href="#SimHei-32"/>
       <use xlink:href="#SimHei-30" transform="translate(50 0)"/>
       <use xlink:href="#SimHei-32" transform="translate(100 0)"/>
       <use xlink:href="#SimHei-35" transform="translate(150 0)"/>
       <use xlink:href="#SimHei-2d" transform="translate(200 0)"/>
       <use xlink:href="#SimHei-31" transform="translate(250 0)"/>
       <use xlink:href="#SimHei-30" transform="translate(300 0)"/>
      </g>
     </g>
    </g>
    <g id="xtick_3">
     <g id="line2d_5">
      <path d="M 227.987935 556.870312 
L 227.987935 31.270312 
" clip-path="url(#p4b4f22fced)" style="fill: none; stroke-dasharray: 2.96,1.28; stroke-dashoffset: 0; stroke: #21262d; stroke-opacity: 0.4; stroke-width: 0.8"/>
     </g>
     <g id="line2d_6">
      <g>
       <use xlink:href="#m72e25080f3" x="227.987935" y="556.870312" style="fill: #c9d1d9; stroke: #c9d1d9; stroke-width: 0.8"/>
      </g>
     </g>
     <g id="text_3">
      <!-- 2025-11 -->
      <g style="fill: #c9d1d9" transform="translate(197.052045 587.324237) rotate(-30) scale(0.1 -0.1)">
       <use xlink:href="#SimHei-32"/>
       <use xlink:href="#SimHei-30" transform="translate(50 0)"/>
       <use xlink:href="#SimHei-32" transform="translate(100 0)"/>
       <use xlink:href="#SimHei-35" transform="translate(150 0)"/>
       <use xlink:href="#SimHei-2d" transform="translate(200 0)"/>
       <use xlink:href="#SimHei-31" transform="translate(250 0)"/>
       <use xlink:href="#SimHei-31" transform="translate(300 0)"/>
      </g>
     </g>
    </g>
    <g id="xtick_4">
     <g id="line2d_7">
      <path d="M 319.667219 556.870312 
L 319.667219 31.270312 
" clip-path="url(#p4b4f22fced)" style="fill: none; stroke-dasharray: 2.96,1.28; stroke-dashoffset: 0; stroke: #21262d; stroke-opacity: 0.4; stroke-width: 0.8"/>
     </g>
     <g id="line2d_8">
      <g>
       <use xlink:href="#m72e25080f3" x="319.667219" y="556.870312" style="fill: #c9d1d9; stroke: #c9d1d9; stroke-width: 0.8"/>
      </g>
     </g>
     <g id="text_4">
      <!-- 2025-12 -->
      <g style="fill: #c9d1d9" transform="translate(288.73133 587.324237) rotate(-30) scale(0.1 -0.1)">
       <use xlink:href="#SimHei-32"/>
       <use xlink:href="#SimHei-30" transform="translate(50 0)"/>
       <use xlink:href="#SimHei-32" transform="translate(100 0)"/>
       <use xlink:href="#SimHei-35" transform="translate(150 0)"/>
       <use xlink:href="#SimHei-2d" transform="translate(200 0)"/>
       <use xlink:href="#SimHei-31" transform="translate(250 0)"/>
       <use xlink:href="#SimHei-32" transform="translate(300 0)"/>
      </g>
     </g>
    </g>
    <g id="xtick_5">
     <g id="line2d_9">
      <path d="M 414.40248 556.870312 
L 414.40248 31.270312 
" clip-path="url(#p4b4f22fced)" style="fill: none; stroke-dasharray: 2.96,1.28; stroke-dashoffset: 0; stroke: #21262d; stroke-opacity: 0.4; stroke-width: 0.8"/>
     </g>
     <g id="line2d_10">
      <g>
       <use xlink:href="#m72e25080f3" x="414.40248" y="556.870312" style="fill: #c9d1d9; stroke: #c9d1d9; stroke-width: 0.8"/>
      </g>
     </g>
     <g id="text_5">
      <!-- 2026-01 -->
      <g style="fill: #c9d1d9" transform="translate(383.466591 587.324237) rotate(-30) scale(0.1 -0.1)">
       <defs>
        <path id="SimHei-36" d="M 250 1612 
Q 275 1975 387 2225 
Q 500 2475 725 2850 
L 1750 4450 
L 2325 4450 
L 1275 2800 
Q 1950 2975 2350 2750 
Q 2750 2525 2887 2237 
Q 3025 1950 3037 1612 
Q 3050 1275 2937 950 
Q 2825 625 2537 362 
Q 2250 100 1737 75 
Q 1225 50 862 262 
Q 500 475 362 862 
Q 225 1250 250 1612 
z
M 1025 787 
Q 1250 550 1625 525 
Q 2000 500 2250 775 
Q 2500 1050 2500 1575 
Q 2500 2100 2187 2300 
Q 1875 2500 1487 2450 
Q 1100 2400 925 2075 
Q 750 1750 775 1387 
Q 800 1025 1025 787 
z
" transform="scale(0.015625)"/>
       </defs>
       <use xlink:href="#SimHei-32"/>
       <use xlink:href="#SimHei-30" transform="translate(50 0)"/>
       <use xlink:href="#SimHei-32" transform="translate(100 0)"/>
       <use xlink:href="#SimHei-36" transform="translate(150 0)"/>
       <use xlink:href="#SimHei-2d" transform="translate(200 0)"/>
       <use xlink:href="#SimHei-30" transform="translate(250 0)"/>
       <use xlink:href="#SimHei-31" transform="translate(300 0)"/>
      </g>
     </g>
    </g>
    <g id="xtick_6">
     <g id="line2d_11">
      <path d="M 509.137741 556.870312 
L 509.137741 31.270312 
" clip-path="url(#p4b4f22fced)" style="fill: none; stroke-dasharray: 2.96,1.28; stroke-dashoffset: 0; stroke: #21262d; stroke-opacity: 0.4; stroke-width: 0.8"/>
     </g>
     <g id="line2d_12">
      <g>
       <use xlink:href="#m72e25080f3" x="509.137741" y="556.870312" style="fill: #c9d1d9; stroke: #c9d1d9; stroke-width: 0.8"/>
      </g>
     </g>
     <g id="text_6">
      <!-- 2026-02 -->
      <g style="fill: #c9d1d9" transform="translate(478.201852 587.324237) rotate(-30) scale(0.1 -0.1)">
       <use xlink:href="#SimHei-32"/>
       <use xlink:href="#SimHei-30" transform="translate(50 0)"/>
       <use xlink:href="#SimHei-32" transform="translate(100 0)"/>
       <use xlink:href="#SimHei-36" transform="translate(150 0)"/>
       <use xlink:href="#SimHei-2d" transform="translate(200 0)"/>
       <use xlink:href="#SimHei-30" transform="translate(250 0)"/>
       <use xlink:href="#SimHei-32" transform="translate(300 0)"/>
      </g>
     </g>
    </g>
    <g id="xtick_7">
     <g id="line2d_13">
      <path d="M 594.705073 556.870312 
L 594.705073 31.270312 
" clip-path="url(#p4b4f22fced)" style="fill: none; stroke-dasharray: 2.96,1.28; stroke-dashoffset: 0; stroke: #21262d; stroke-opacity: 0.4; stroke-width: 0.8"/>
     </g>
     <g id="line2d_14">
      <g>
       <use xlink:href="#m72e25080f3" x="594.705073" y="556.870312" style="fill: #c9d1d9; stroke: #c9d1d9; stroke-width: 0.8"/>
      </g>
     </g>
     <g id="text_7">
      <!-- 2026-03 -->
      <g style="fill: #c9d1d9" transform="translate(563.769184 587.324237) rotate(-30) scale(0.1 -0.1)">
       <defs>
        <path id="SimHei-33" d="M 250 1225 
L 700 1300 
Q 800 975 1025 762 
Q 1250 550 1587 562 
Q 1925 575 2125 837 
Q 2325 1100 2300 1437 
Q 2275 1775 2037 1962 
Q 1800 2150 1275 2225 
L 1275 2550 
Q 1800 2600 2037 2825 
Q 2275 3050 2250 3412 
Q 2225 3775 1925 3937 
Q 1625 4100 1287 3975 
Q 950 3850 750 3275 
L 300 3350 
Q 450 3800 712 4100 
Q 975 4400 1425 4450 
Q 1875 4500 2212 4337 
Q 2550 4175 2687 3837 
Q 2825 3500 2725 3100 
Q 2625 2700 2150 2400 
Q 2500 2250 2687 1950 
Q 2875 1650 2812 1162 
Q 2750 675 2375 375 
Q 2000 75 1525 87 
Q 1050 100 700 387 
Q 350 675 250 1225 
z
" transform="scale(0.015625)"/>
       </defs>
       <use xlink:href="#SimHei-32"/>
       <use xlink:href="#SimHei-30" transform="translate(50 0)"/>
       <use xlink:href="#SimHei-32" transform="translate(100 0)"/>
       <use xlink:href="#SimHei-36" transform="translate(150 0)"/>
       <use xlink:href="#SimHei-2d" transform="translate(200 0)"/>
       <use xlink:href="#SimHei-30" transform="translate(250 0)"/>
       <use xlink:href="#SimHei-33" transform="translate(300 0)"/>
      </g>
     </g>
    </g>
    <g id="xtick_8">
     <g id="line2d_15">
      <path d="M 689.440334 556.870312 
L 689.440334 31.270312 
" clip-path="url(#p4b4f22fced)" style="fill: none; stroke-dasharray: 2.96,1.28; stroke-dashoffset: 0; stroke: #21262d; stroke-opacity: 0.4; stroke-width: 0.8"/>
     </g>
     <g id="line2d_16">
      <g>
       <use xlink:href="#m72e25080f3" x="689.440334" y="556.870312" style="fill: #c9d1d9; stroke: #c9d1d9; stroke-width: 0.8"/>
      </g>
     </g>
     <g id="text_8">
      <!-- 2026-04 -->
      <g style="fill: #c9d1d9" transform="translate(658.504445 587.324237) rotate(-30) scale(0.1 -0.1)">
       <defs>
        <path id="SimHei-34" d="M 2000 1100 
L 75 1100 
L 75 1525 
L 2100 4450 
L 2475 4450 
L 2475 1525 
L 3075 1525 
L 3075 1100 
L 2475 1100 
L 2475 150 
L 2000 150 
L 2000 1100 
z
M 2000 1525 
L 2000 3500 
L 600 1525 
L 2000 1525 
z
" transform="scale(0.015625)"/>
       </defs>
       <use xlink:href="#SimHei-32"/>
       <use xlink:href="#SimHei-30" transform="translate(50 0)"/>
       <use xlink:href="#SimHei-32" transform="translate(100 0)"/>
       <use xlink:href="#SimHei-36" transform="translate(150 0)"/>
       <use xlink:href="#SimHei-2d" transform="translate(200 0)"/>
       <use xlink:href="#SimHei-30" transform="translate(250 0)"/>
       <use xlink:href="#SimHei-34" transform="translate(300 0)"/>
      </g>
     </g>
    </g>
    <g id="xtick_9">
     <g id="line2d_17">
      <path d="M 781.119619 556.870312 
L 781.119619 31.270312 
" clip-path="url(#p4b4f22fced)" style="fill: none; stroke-dasharray: 2.96,1.28; stroke-dashoffset: 0; stroke: #21262d; stroke-opacity: 0.4; stroke-width: 0.8"/>
     </g>
     <g id="line2d_18">
      <g>
       <use xlink:href="#m72e25080f3" x="781.119619" y="556.870312" style="fill: #c9d1d9; stroke: #c9d1d9; stroke-width: 0.8"/>
      </g>
     </g>
     <g id="text_9">
      <!-- 2026-05 -->
      <g style="fill: #c9d1d9" transform="translate(750.18373 587.324237) rotate(-30) scale(0.1 -0.1)">
       <use xlink:href="#SimHei-32"/>
       <use xlink:href="#SimHei-30" transform="translate(50 0)"/>
       <use xlink:href="#SimHei-32" transform="translate(100 0)"/>
       <use xlink:href="#SimHei-36" transform="translate(150 0)"/>
       <use xlink:href="#SimHei-2d" transform="translate(200 0)"/>
       <use xlink:href="#SimHei-30" transform="translate(250 0)"/>
       <use xlink:href="#SimHei-35" transform="translate(300 0)"/>
      </g>
     </g>
    </g>
    <g id="xtick_10">
     <g id="line2d_19">
      <path d="M 875.854879 556.870312 
L 875.854879 31.270312 
" clip-path="url(#p4b4f22fced)" style="fill: none; stroke-dasharray: 2.96,1.28; stroke-dashoffset: 0; stroke: #21262d; stroke-opacity: 0.4; stroke-width: 0.8"/>
     </g>
     <g id="line2d_20">
      <g>
       <use xlink:href="#m72e25080f3" x="875.854879" y="556.870312" style="fill: #c9d1d9; stroke: #c9d1d9; stroke-width: 0.8"/>
      </g>
     </g>
     <g id="text_10">
      <!-- 2026-06 -->
      <g style="fill: #c9d1d9" transform="translate(844.91899 587.324237) rotate(-30) scale(0.1 -0.1)">
       <use xlink:href="#SimHei-32"/>
       <use xlink:href="#SimHei-30" transform="translate(50 0)"/>
       <use xlink:href="#SimHei-32" transform="translate(100 0)"/>
       <use xlink:href="#SimHei-36" transform="translate(150 0)"/>
       <use xlink:href="#SimHei-2d" transform="translate(200 0)"/>
       <use xlink:href="#SimHei-30" transform="translate(250 0)"/>
       <use xlink:href="#SimHei-36" transform="translate(300 0)"/>
      </g>
     </g>
    </g>
    <g id="xtick_11">
     <g id="line2d_21">
      <path d="M 967.534164 556.870312 
L 967.534164 31.270312 
" clip-path="url(#p4b4f22fced)" style="fill: none; stroke-dasharray: 2.96,1.28; stroke-dashoffset: 0; stroke: #21262d; stroke-opacity: 0.4; stroke-width: 0.8"/>
     </g>
     <g id="line2d_22">
      <g>
       <use xlink:href="#m72e25080f3" x="967.534164" y="556.870312" style="fill: #c9d1d9; stroke: #c9d1d9; stroke-width: 0.8"/>
      </g>
     </g>
     <g id="text_11">
      <!-- 2026-07 -->
      <g style="fill: #c9d1d9" transform="translate(936.598275 587.324237) rotate(-30) scale(0.1 -0.1)">
       <defs>
        <path id="SimHei-37" d="M 850 150 
Q 1300 2050 2425 3925 
L 275 3925 
L 275 4375 
L 2950 4375 
L 2950 3950 
Q 1775 2050 1400 150 
L 850 150 
z
" transform="scale(0.015625)"/>
       </defs>
       <use xlink:href="#SimHei-32"/>
       <use xlink:href="#SimHei-30" transform="translate(50 0)"/>
       <use xlink:href="#SimHei-32" transform="translate(100 0)"/>
       <use xlink:href="#SimHei-36" transform="translate(150 0)"/>
       <use xlink:href="#SimHei-2d" transform="translate(200 0)"/>
       <use xlink:href="#SimHei-30" transform="translate(250 0)"/>
       <use xlink:href="#SimHei-37" transform="translate(300 0)"/>
      </g>
     </g>
    </g>
    <g id="xtick_12">
     <g id="line2d_23">
      <path d="M 1062.269425 556.870312 
L 1062.269425 31.270312 
" clip-path="url(#p4b4f22fced)" style="fill: none; stroke-dasharray: 2.96,1.28; stroke-dashoffset: 0; stroke: #21262d; stroke-opacity: 0.4; stroke-width: 0.8"/>
     </g>
     <g id="line2d_24">
      <g>
       <use xlink:href="#m72e25080f3" x="1062.269425" y="556.870312" style="fill: #c9d1d9; stroke: #c9d1d9; stroke-width: 0.8"/>
      </g>
     </g>
     <g id="text_12">
      <!-- 2026-08 -->
      <g style="fill: #c9d1d9" transform="translate(1031.333536 587.324237) rotate(-30) scale(0.1 -0.1)">
       <defs>
        <path id="SimHei-38" d="M 175 1375 
Q 175 1675 325 1962 
Q 475 2250 825 2425 
Q 525 2600 425 2812 
Q 325 3025 312 3300 
Q 300 3575 387 3775 
Q 475 3975 650 4150 
Q 825 4325 1037 4387 
Q 1250 4450 1500 4450 
Q 1750 4450 1950 4400 
Q 2150 4350 2375 4187 
Q 2600 4025 2700 3725 
Q 2800 3425 2687 3025 
Q 2575 2625 2100 2400 
Q 2525 2275 2700 2012 
Q 2875 1750 2875 1375 
Q 2875 1000 2762 775 
Q 2650 550 2512 400 
Q 2375 250 2137 162 
Q 1900 75 1537 75 
Q 1175 75 912 162 
Q 650 250 475 425 
Q 300 600 237 837 
Q 175 1075 175 1375 
z
M 687 1400 
Q 675 1100 787 875 
Q 900 650 1200 587 
Q 1500 525 1825 600 
Q 2150 675 2275 950 
Q 2400 1225 2362 1500 
Q 2325 1775 2050 1962 
Q 1775 2150 1450 2125 
Q 1125 2100 912 1900 
Q 700 1700 687 1400 
z
M 775 3350 
Q 775 3100 950 2875 
Q 1125 2650 1500 2650 
Q 1875 2650 2062 2875 
Q 2250 3100 2237 3412 
Q 2225 3725 2012 3875 
Q 1800 4025 1437 4000 
Q 1075 3975 925 3787 
Q 775 3600 775 3350 
z
" transform="scale(0.015625)"/>
       </defs>
       <use xlink:href="#SimHei-32"/>
       <use xlink:href="#SimHei-30" transform="translate(50 0)"/>
       <use xlink:href="#SimHei-32" transform="translate(100 0)"/>
       <use xlink:href="#SimHei-36" transform="translate(150 0)"/>
       <use xlink:href="#SimHei-2d" transform="translate(200 0)"/>
       <use xlink:href="#SimHei-30" transform="translate(250 0)"/>
       <use xlink:href="#SimHei-38" transform="translate(300 0)"/>
      </g>
     </g>
    </g>
   </g>
   <g id="matplotlib.axis_2">
    <g id="ytick_1">
     <g id="line2d_25">
      <path d="M 37.753419 532.979403 
L 1063.033419 532.979403 
" clip-path="url(#p4b4f22fced)" style="fill: none; stroke-dasharray: 2.96,1.28; stroke-dashoffset: 0; stroke: #21262d; stroke-opacity: 0.4; stroke-width: 0.8"/>
     </g>
     <g id="line2d_26">
      <defs>
       <path id="m2729c53d98" d="M 0 0 
L -3.5 0 
" style="stroke: #c9d1d9; stroke-width: 0.8"/>
      </defs>
      <g>
       <use xlink:href="#m2729c53d98" x="37.753419" y="532.979403" style="fill: #c9d1d9; stroke: #c9d1d9; stroke-width: 0.8"/>
      </g>
     </g>
     <g id="text_13">
      <!-- 0.0 -->
      <g style="fill: #c9d1d9" transform="translate(15.753419 536.416903) scale(0.1 -0.1)">
       <defs>
        <path id="SimHei-2e" d="M 1075 125 
L 500 125 
L 500 675 
L 1075 675 
L 1075 125 
z
" transform="scale(0.015625)"/>
       </defs>
       <use xlink:href="#SimHei-30"/>
       <use xlink:href="#SimHei-2e" transform="translate(50 0)"/>
       <use xlink:href="#SimHei-30" transform="translate(100 0)"/>
      </g>
     </g>
    </g>
    <g id="ytick_2">
     <g id="line2d_27">
      <path d="M 37.753419 437.415767 
L 1063.033419 437.415767 
" clip-path="url(#p4b4f22fced)" style="fill: none; stroke-dasharray: 2.96,1.28; stroke-dashoffset: 0; stroke: #21262d; stroke-opacity: 0.4; stroke-width: 0.8"/>
     </g>
     <g id="line2d_28">
      <g>
       <use xlink:href="#m2729c53d98" x="37.753419" y="437.415767" style="fill: #c9d1d9; stroke: #c9d1d9; stroke-width: 0.8"/>
      </g>
     </g>
     <g id="text_14">
      <!-- 0.2 -->
      <g style="fill: #c9d1d9" transform="translate(15.753419 440.853267) scale(0.1 -0.1)">
       <use xlink:href="#SimHei-30"/>
       <use xlink:href="#SimHei-2e" transform="translate(50 0)"/>
       <use xlink:href="#SimHei-32" transform="translate(100 0)"/>
      </g>
     </g>
    </g>
    <g id="ytick_3">
     <g id="line2d_29">
      <path d="M 37.753419 341.852131 
L 1063.033419 341.852131 
" clip-path="url(#p4b4f22fced)" style="fill: none; stroke-dasharray: 2.96,1.28; stroke-dashoffset: 0; stroke: #21262d; stroke-opacity: 0.4; stroke-width: 0.8"/>
     </g>
     <g id="line2d_30">
      <g>
       <use xlink:href="#m2729c53d98" x="37.753419" y="341.852131" style="fill: #c9d1d9; stroke: #c9d1d9; stroke-width: 0.8"/>
      </g>
     </g>
     <g id="text_15">
      <!-- 0.4 -->
      <g style="fill: #c9d1d9" transform="translate(15.753419 345.289631) scale(0.1 -0.1)">
       <use xlink:href="#SimHei-30"/>
       <use xlink:href="#SimHei-2e" transform="translate(50 0)"/>
       <use xlink:href="#SimHei-34" transform="translate(100 0)"/>
      </g>
     </g>
    </g>
    <g id="ytick_4">
     <g id="line2d_31">
      <path d="M 37.753419 246.288494 
L 1063.033419 246.288494 
" clip-path="url(#p4b4f22fced)" style="fill: none; stroke-dasharray: 2.96,1.28; stroke-dashoffset: 0; stroke: #21262d; stroke-opacity: 0.4; stroke-width: 0.8"/>
     </g>
     <g id="line2d_32">
      <g>
       <use xlink:href="#m2729c53d98" x="37.753419" y="246.288494" style="fill: #c9d1d9; stroke: #c9d1d9; stroke-width: 0.8"/>
      </g>
     </g>
     <g id="text_16">
      <!-- 0.6 -->
      <g style="fill: #c9d1d9" transform="translate(15.753419 249.725994) scale(0.1 -0.1)">
       <use xlink:href="#SimHei-30"/>
       <use xlink:href="#SimHei-2e" transform="translate(50 0)"/>
       <use xlink:href="#SimHei-36" transform="translate(100 0)"/>
      </g>
     </g>
    </g>
    <g id="ytick_5">
     <g id="line2d_33">
      <path d="M 37.753419 150.724858 
L 1063.033419 150.724858 
" clip-path="url(#p4b4f22fced)" style="fill: none; stroke-dasharray: 2.96,1.28; stroke-dashoffset: 0; stroke: #21262d; stroke-opacity: 0.4; stroke-width: 0.8"/>
     </g>
     <g id="line2d_34">
      <g>
       <use xlink:href="#m2729c53d98" x="37.753419" y="150.724858" style="fill: #c9d1d9; stroke: #c9d1d9; stroke-width: 0.8"/>
      </g>
     </g>
     <g id="text_17">
      <!-- 0.8 -->
      <g style="fill: #c9d1d9" transform="translate(15.753419 154.162358) scale(0.1 -0.1)">
       <use xlink:href="#SimHei-30"/>
       <use xlink:href="#SimHei-2e" transform="translate(50 0)"/>
       <use xlink:href="#SimHei-38" transform="translate(100 0)"/>
      </g>
     </g>
    </g>
    <g id="ytick_6">
     <g id="line2d_35">
      <path d="M 37.753419 55.161222 
L 1063.033419 55.161222 
" clip-path="url(#p4b4f22fced)" style="fill: none; stroke-dasharray: 2.96,1.28; stroke-dashoffset: 0; stroke: #21262d; stroke-opacity: 0.4; stroke-width: 0.8"/>
     </g>
     <g id="line2d_36">
      <g>
       <use xlink:href="#m2729c53d98" x="37.753419" y="55.161222" style="fill: #c9d1d9; stroke: #c9d1d9; stroke-width: 0.8"/>
      </g>
     </g>
     <g id="text_18">
      <!-- 1.0 -->
      <g style="fill: #c9d1d9" transform="translate(15.753419 58.598722) scale(0.1 -0.1)">
       <use xlink:href="#SimHei-31"/>
       <use xlink:href="#SimHei-2e" transform="translate(50 0)"/>
       <use xlink:href="#SimHei-30" transform="translate(100 0)"/>
      </g>
     </g>
    </g>
   </g>
   <g id="line2d_37">
    <path d="M 84.357055 532.979403 
L 87.413031 515.171642 
L 90.469008 509.523489 
L 93.524984 510.255765 
L 96.58096 512.568532 
L 105.748888 496.959776 
L 108.804865 499.532996 
L 111.860841 489.356457 
L 114.916817 479.731793 
L 117.972793 496.204302 
L 127.140721 489.579272 
L 130.196698 511.141624 
L 157.700483 475.200217 
L 160.756459 478.9429 
L 172.980364 473.196562 
L 176.03634 470.65283 
L 179.092316 468.588842 
L 182.148292 488.626758 
L 191.316221 491.573321 
L 194.372197 482.093918 
L 197.428173 475.543712 
L 200.484149 477.002852 
L 212.708054 455.855739 
L 215.76403 447.115718 
L 218.820006 439.941398 
L 221.875982 445.537745 
L 224.931958 450.869065 
L 234.099887 443.047167 
L 237.155863 444.052648 
L 240.211839 443.627204 
L 243.267815 434.45572 
L 246.323792 440.910486 
L 255.49172 436.167664 
L 258.547696 431.50159 
L 264.659648 438.198334 
L 267.715625 446.11806 
L 276.883553 440.522395 
L 279.939529 435.710198 
L 282.995505 440.532228 
L 286.051482 447.976163 
L 289.107458 465.815406 
L 298.275386 466.76157 
L 301.331362 464.768965 
L 304.387338 461.23002 
L 307.443315 460.51 
L 310.499291 460.484539 
L 319.667219 452.777184 
L 322.723195 452.615656 
L 325.779172 455.1514 
L 328.835148 454.236882 
L 331.891124 456.156529 
L 341.059052 444.241689 
L 344.115028 438.282704 
L 347.171005 438.100487 
L 350.226981 440.511606 
L 353.282957 447.301019 
L 362.450885 442.734335 
L 365.506862 434.646512 
L 368.562838 436.495899 
L 371.618814 442.830223 
L 374.67479 439.64568 
L 383.842718 431.152238 
L 386.898695 419.822015 
L 389.954671 413.409809 
L 396.066623 419.990614 
L 405.234552 415.789366 
L 408.290528 409.486068 
L 411.346504 423.33233 
L 426.626385 411.309299 
L 429.682361 398.376735 
L 432.738337 380.406064 
L 435.794313 369.037027 
L 438.850289 364.182506 
L 448.018218 337.061476 
L 451.074194 332.17318 
L 454.13017 320.120215 
L 457.186146 306.727986 
L 460.242122 287.675365 
L 469.410051 289.282872 
L 472.466027 300.793041 
L 475.522003 286.075647 
L 478.577979 282.746963 
L 481.633955 282.348124 
L 490.801884 280.331576 
L 493.85786 282.166806 
L 496.913836 262.417601 
L 499.969812 266.301809 
L 503.025789 285.987817 
L 512.193717 287.696468 
L 515.249693 294.062794 
L 518.305669 307.131447 
L 521.361645 314.36191 
L 524.417622 325.479077 
L 533.58555 324.896758 
L 536.641526 327.110776 
L 539.697502 339.941121 
L 542.753479 333.37261 
L 545.809455 376.827349 
L 579.425192 353.160319 
L 582.481169 332.811852 
L 585.537145 319.497934 
L 597.761049 314.054771 
L 600.817025 328.38756 
L 603.873002 331.695369 
L 606.928978 327.605592 
L 609.984954 332.23557 
L 619.152882 329.24494 
L 622.208859 324.232523 
L 625.264835 325.300588 
L 628.320811 320.274448 
L 631.376787 326.489122 
L 640.544716 319.073736 
L 643.600692 324.751783 
L 646.656668 322.572393 
L 649.712644 324.090614 
L 652.76862 335.89389 
L 661.936549 343.081539 
L 664.992525 345.85129 
L 668.048501 346.051742 
L 671.104477 346.620006 
L 674.160453 354.901482 
L 683.328382 349.393782 
L 686.384358 353.558169 
L 689.440334 353.801629 
L 692.49631 361.598235 
L 695.552286 373.660976 
L 707.776191 372.785213 
L 710.832167 363.142269 
L 713.888143 358.841324 
L 726.112048 343.432576 
L 729.168024 332.207282 
L 735.279976 318.257575 
L 738.335952 317.354839 
L 747.503881 296.627902 
L 750.559857 291.846823 
L 753.615833 280.65876 
L 756.671809 279.14442 
L 759.727786 283.627187 
L 768.895714 270.018132 
L 771.95169 270.640075 
L 775.007666 263.324326 
L 778.063642 274.305035 
L 796.399499 241.329496 
L 799.455476 218.476022 
L 802.511452 207.535308 
L 811.67938 184.388462 
L 814.735356 172.41483 
L 817.791333 155.492671 
L 820.847309 149.852874 
L 823.903285 155.543678 
L 833.071213 141.013359 
L 836.127189 136.633704 
L 839.183166 129.30362 
L 842.239142 133.35233 
L 845.295118 131.493669 
L 854.463046 113.902529 
L 857.519023 108.326717 
L 860.574999 106.389543 
L 863.630975 101.214171 
L 866.686951 126.466694 
L 875.854879 132.386954 
L 878.910856 131.167952 
L 881.966832 123.551537 
L 885.022808 119.905029 
L 888.078784 136.388757 
L 897.246713 153.523419 
L 900.302689 155.684937 
L 903.358665 162.053457 
L 906.414641 161.486096 
L 909.470617 160.538936 
L 918.638546 141.757431 
L 921.694522 124.362134 
L 924.750498 103.170584 
L 927.806474 92.994608 
L 940.030379 77.859326 
L 943.086355 79.308196 
L 946.142331 70.97852 
L 949.198307 55.161222 
L 952.254283 66.907378 
L 961.422212 78.35094 
L 964.478188 61.297924 
L 967.534164 57.242204 
L 970.59014 64.134968 
L 973.646116 83.395718 
L 982.814045 94.554356 
L 985.870021 103.147482 
L 988.925997 114.497843 
L 991.981973 116.252266 
L 995.037949 127.889268 
L 1004.205878 147.959154 
L 1007.261854 155.988685 
L 1010.31783 166.540211 
L 1013.373806 186.912167 
L 1016.429783 242.343701 
L 1016.429783 242.343701 
" clip-path="url(#p4b4f22fced)" style="fill: none; stroke: #008000; stroke-width: 2; stroke-linecap: square"/>
   </g>
   <g id="line2d_38">
    <path d="M 84.357055 473.832333 
L 87.413031 480.173631 
L 90.469008 456.922781 
L 93.524984 498.492629 
L 96.58096 491.446781 
L 105.748888 480.878181 
L 108.804865 478.764186 
L 111.860841 449.876932 
L 114.916817 427.330287 
L 117.972793 458.331881 
L 127.140721 404.079437 
L 130.196698 394.919938 
L 157.700483 342.077283 
L 160.756459 410.421079 
L 169.924388 429.444283 
L 172.980364 462.559183 
L 176.03634 419.580234 
L 179.092316 409.011634 
L 182.148292 477.355085 
L 191.316221 466.08228 
L 194.372197 416.762032 
L 197.428173 427.330287 
L 200.484149 414.648381 
L 212.708054 335.031435 
L 215.76403 351.941333 
L 218.820006 309.666934 
L 221.875982 337.145431 
L 224.931958 384.351683 
L 234.099887 379.419486 
L 237.155863 403.374887 
L 240.211839 399.147584 
L 243.267815 349.827682 
L 246.323792 356.873185 
L 255.49172 348.418237 
L 258.547696 379.419486 
L 261.603672 378.01073 
L 264.659648 344.89583 
L 267.715625 394.919938 
L 276.883553 416.762032 
L 279.939529 435.785236 
L 282.995505 425.921531 
L 286.051482 440.717433 
L 289.107458 519.629484 
L 298.275386 524.561337 
L 301.331362 496.378634 
L 304.387338 475.945984 
L 307.443315 478.764186 
L 310.499291 469.604687 
L 319.667219 432.96738 
L 325.779172 462.559183 
L 328.835148 454.104234 
L 331.891124 425.216981 
L 341.059052 401.26158 
L 344.115028 418.171133 
L 347.171005 422.398435 
L 350.226981 446.353836 
L 353.282957 428.035183 
L 362.450885 447.058731 
L 365.506862 480.173631 
L 368.562838 424.512431 
L 371.618814 446.353836 
L 374.67479 432.262485 
L 383.842718 402.670681 
L 386.898695 395.624833 
L 389.954671 383.647132 
L 393.010647 377.306179 
L 396.066623 364.623584 
L 405.234552 379.419486 
L 408.290528 372.373982 
L 411.346504 386.465334 
L 426.626385 322.349185 
L 429.682361 269.506186 
L 432.738337 282.188436 
L 435.794313 308.962383 
L 438.850289 293.461587 
L 448.018218 273.733488 
L 451.074194 285.711533 
L 454.13017 306.848388 
L 457.186146 300.507435 
L 460.242122 311.780585 
L 469.410051 310.334947 
L 472.466027 320.455102 
L 475.522003 316.117844 
L 478.577979 318.286301 
L 481.633955 334.912517 
L 490.801884 329.12962 
L 493.85786 330.575258 
L 496.913836 319.732283 
L 499.969812 288.648653 
L 503.025789 329.852439 
L 512.193717 410.091209 
L 515.249693 363.827345 
L 518.305669 332.74406 
L 521.361645 352.984371 
L 524.417622 374.67032 
L 533.58555 318.286301 
L 536.641526 313.949386 
L 539.697502 321.177921 
L 542.753479 318.286301 
L 545.809455 358.767268 
L 579.425192 326.237999 
L 582.481169 301.660429 
L 585.537145 312.503404 
L 588.593121 319.732283 
L 597.761049 309.612128 
L 600.817025 353.70719 
L 603.873002 402.86233 
L 606.928978 371.056225 
L 609.984954 361.658888 
L 619.152882 389.127734 
L 622.208859 350.09275 
L 625.264835 329.852439 
L 631.376787 354.430009 
L 640.544716 352.261552 
L 643.600692 376.839122 
L 646.656668 365.272983 
L 649.712644 410.814028 
L 652.76862 427.4399 
L 661.936549 532.979403 
L 664.992525 497.558514 
L 668.048501 450.571831 
L 671.104477 491.052798 
L 674.160453 476.595384 
L 683.328382 482.378281 
L 686.384358 509.124653 
L 689.440334 457.800711 
L 692.49631 490.329979 
L 695.552286 515.630368 
L 707.776191 521.413265 
L 710.832167 408.645226 
L 713.888143 430.33152 
L 716.944119 379.730398 
L 726.112048 372.501863 
L 729.168024 329.12962 
L 732.224 342.141396 
L 735.279976 304.55205 
L 738.335952 309.612128 
L 747.503881 290.817455 
L 750.559857 282.865756 
L 753.615833 257.565367 
L 756.671809 264.793902 
L 759.727786 278.528497 
L 768.895714 278.528497 
L 771.95169 287.203015 
L 775.007666 250.336488 
L 778.063642 248.168031 
L 796.399499 201.904167 
L 799.455476 184.555132 
L 802.511452 203.349805 
L 811.67938 145.520147 
L 814.735356 147.688949 
L 817.791333 108.65362 
L 820.847309 163.592002 
L 823.903285 209.133046 
L 833.071213 227.927375 
L 836.127189 215.638762 
L 839.183166 214.193124 
L 842.239142 259.733824 
L 845.295118 220.69884 
L 854.463046 166.483622 
L 857.519023 141.182889 
L 860.574999 170.097717 
L 863.630975 170.097717 
L 866.686951 176.603778 
L 875.854879 216.361581 
L 878.910856 167.206441 
L 881.966832 146.242966 
L 885.022808 174.434976 
L 888.078784 234.433435 
L 897.246713 309.612128 
L 900.302689 246.722048 
L 903.358665 277.082859 
L 906.414641 300.93761 
L 909.470617 252.505289 
L 918.638546 179.495054 
L 921.694522 186.001114 
L 924.750498 151.303044 
L 927.806474 132.508371 
L 940.030379 55.161222 
L 943.086355 162.869183 
L 946.142331 144.797328 
L 949.198307 86.244852 
L 952.254283 188.169571 
L 961.422212 150.580225 
L 964.478188 107.207982 
L 967.534164 122.388216 
L 970.59014 229.373357 
L 973.646116 210.578684 
L 982.814045 209.855865 
L 985.870021 246.722048 
L 988.925997 266.962704 
L 991.981973 181.663856 
L 995.037949 244.553591 
L 1004.205878 305.997688 
L 1007.261854 238.770694 
L 1010.31783 238.047875 
L 1013.373806 299.491972 
L 1016.429783 418.042563 
L 1016.429783 418.042563 
" clip-path="url(#p4b4f22fced)" style="fill: none; stroke: #ff0000; stroke-width: 2; stroke-linecap: square"/>
   </g>
   <g id="line2d_39">
    <path d="M 84.357055 453.240891 
L 87.413031 429.932623 
L 90.469008 414.598367 
L 93.524984 437.29316 
L 96.58096 444.65355 
L 105.748888 432.999562 
L 108.804865 452.627416 
L 111.860841 419.505294 
L 114.916817 429.319294 
L 117.972793 450.787282 
L 127.140721 427.47916 
L 130.196698 408.464635 
L 157.700483 396.810501 
L 160.756459 419.505294 
L 169.924388 420.732099 
L 172.980364 461.214757 
L 176.03634 431.772757 
L 179.092316 455.081025 
L 182.148292 504.150879 
L 191.316221 496.177013 
L 194.372197 469.801952 
L 197.428173 476.549013 
L 200.484149 475.322355 
L 212.708054 431.772757 
L 215.76403 433.612891 
L 218.820006 409.691294 
L 221.875982 429.319294 
L 224.931958 427.47916 
L 234.099887 417.05183 
L 237.155863 445.267026 
L 240.211839 437.906489 
L 243.267815 414.598367 
L 246.323792 417.05183 
L 255.49172 412.758233 
L 258.547696 417.66516 
L 261.603672 429.932623 
L 264.659648 402.330757 
L 267.715625 426.86583 
L 276.883553 425.025696 
L 279.939529 437.29316 
L 282.995505 453.854221 
L 286.051482 464.894879 
L 289.107458 532.979403 
L 298.275386 515.191538 
L 301.331362 494.336879 
L 304.387338 492.496745 
L 307.443315 491.270086 
L 310.499291 467.348489 
L 319.667219 458.147818 
L 322.723195 472.868745 
L 325.779172 490.043282 
L 328.835148 488.816477 
L 331.891124 463.054891 
L 341.059052 447.10716 
L 344.115028 456.307684 
L 347.171005 449.560623 
L 350.226981 470.415282 
L 353.282957 458.147818 
L 362.450885 473.482221 
L 365.506862 503.53755 
L 368.562838 479.615952 
L 371.618814 482.682745 
L 374.67479 468.575147 
L 383.842718 450.173952 
L 386.898695 453.240891 
L 389.954671 421.958757 
L 393.010647 404.784367 
L 396.066623 398.03716 
L 405.234552 404.170892 
L 408.290528 399.263965 
L 411.346504 401.104099 
L 426.626385 360.008111 
L 429.682361 331.792916 
L 432.738337 323.205575 
L 435.794313 306.644514 
L 438.850289 258.187989 
L 448.018218 197.464002 
L 451.074194 239.173465 
L 454.13017 238.559989 
L 457.186146 236.106526 
L 460.242122 238.559989 
L 469.410051 234.266392 
L 472.466027 252.054258 
L 475.522003 241.626928 
L 478.577979 217.705331 
L 481.633955 172.315599 
L 490.801884 208.50466 
L 493.85786 199.917465 
L 496.913836 199.304136 
L 499.969812 210.95827 
L 503.025789 233.039733 
L 512.193717 312.778245 
L 515.249693 249.600794 
L 518.305669 247.147331 
L 521.361645 279.042648 
L 524.417622 287.629989 
L 533.58555 237.333331 
L 536.641526 237.94666 
L 539.697502 235.493197 
L 542.753479 217.092002 
L 545.809455 245.920526 
L 579.425192 223.225733 
L 582.481169 188.876807 
L 585.537145 176.609343 
L 588.593121 155.754538 
L 597.761049 181.51627 
L 600.817025 260.641453 
L 603.873002 275.975855 
L 606.928978 256.961185 
L 609.984954 239.173465 
L 619.152882 248.987319 
L 622.208859 214.025063 
L 625.264835 211.571599 
L 628.320811 215.865197 
L 631.376787 244.693721 
L 640.544716 247.147331 
L 643.600692 291.923587 
L 646.656668 277.202514 
L 649.712644 320.138782 
L 652.76862 355.714367 
L 661.936549 445.267026 
L 664.992525 402.944233 
L 668.048501 363.688233 
L 671.104477 393.743562 
L 674.160453 364.301709 
L 683.328382 360.008111 
L 686.384358 392.516904 
L 689.440334 360.008111 
L 692.49631 393.130233 
L 695.552286 416.438355 
L 707.776191 397.423831 
L 710.832167 310.938111 
L 713.888143 319.525306 
L 716.944119 301.124111 
L 726.112048 294.99038 
L 729.168024 263.094916 
L 732.224 272.908916 
L 735.279976 239.786794 
L 738.335952 215.865197 
L 747.503881 210.344794 
L 750.559857 212.184929 
L 753.615833 174.769209 
L 756.671809 202.984404 
L 759.727786 218.932136 
L 768.895714 213.411733 
L 771.95169 237.333331 
L 775.007666 209.118136 
L 778.063642 199.304136 
L 796.399499 152.07427 
L 799.455476 115.27188 
L 802.511452 109.751478 
L 811.67938 80.922953 
L 814.735356 90.123624 
L 817.791333 55.161222 
L 820.847309 93.803892 
L 823.903285 121.405612 
L 833.071213 110.978282 
L 836.127189 90.736953 
L 839.183166 88.28349 
L 842.239142 163.728404 
L 845.295118 118.952148 
L 854.463046 91.963758 
L 857.519023 119.565478 
L 860.574999 153.301075 
L 863.630975 131.219612 
L 866.686951 189.490136 
L 875.854879 202.370929 
L 878.910856 196.237197 
L 881.966832 186.423197 
L 885.022808 183.969733 
L 888.078784 204.211063 
L 897.246713 268.001989 
L 900.302689 217.092002 
L 903.358665 237.94666 
L 906.414641 250.827453 
L 909.470617 239.173465 
L 918.638546 158.208002 
L 921.694522 122.019087 
L 924.750498 110.978282 
L 927.806474 90.736953 
L 940.030379 65.588697 
L 943.086355 114.045221 
L 946.142331 90.736953 
L 949.198307 77.242685 
L 952.254283 134.89988 
L 961.422212 138.580148 
L 964.478188 82.763087 
L 967.534164 63.135087 
L 970.59014 115.27188 
L 973.646116 125.699209 
L 982.814045 162.501746 
L 985.870021 205.437868 
L 988.925997 251.440928 
L 991.981973 212.184929 
L 995.037949 232.426258 
L 1004.205878 333.632904 
L 1007.261854 310.324782 
L 1010.31783 328.112648 
L 1013.373806 376.569172 
L 1016.429783 485.136355 
L 1016.429783 485.136355 
" clip-path="url(#p4b4f22fced)" style="fill: none; stroke: #0000ff; stroke-width: 2; stroke-linecap: square"/>
   </g>
   <g id="patch_3">
    <path d="M 37.753419 556.870312 
L 37.753419 31.270312 
" style="fill: none; stroke: #30363d; stroke-width: 0.8; stroke-linejoin: miter; stroke-linecap: square"/>
   </g>
   <g id="patch_4">
    <path d="M 1063.033419 556.870312 
L 1063.033419 31.270312 
" style="fill: none; stroke: #30363d; stroke-width: 0.8; stroke-linejoin: miter; stroke-linecap: square"/>
   </g>
   <g id="patch_5">
    <path d="M 37.753419 556.870312 
L 1063.033419 556.870312 
" style="fill: none; stroke: #30363d; stroke-width: 0.8; stroke-linejoin: miter; stroke-linecap: square"/>
   </g>
   <g id="patch_6">
    <path d="M 37.753419 31.270312 
L 1063.033419 31.270312 
" style="fill: none; stroke: #30363d; stroke-width: 0.8; stroke-linejoin: miter; stroke-linecap: square"/>
   </g>
   <g id="text_19">
    <!-- 2026-07-20 -->
    <g style="fill: #8b949e; opacity: 0.6" transform="translate(1007.780619 550.489312) scale(0.09 -0.09)">
     <use xlink:href="#SimHei-32"/>
     <use xlink:href="#SimHei-30" transform="translate(50 0)"/>
     <use xlink:href="#SimHei-32" transform="translate(100 0)"/>
     <use xlink:href="#SimHei-36" transform="translate(150 0)"/>
     <use xlink:href="#SimHei-2d" transform="translate(200 0)"/>
     <use xlink:href="#SimHei-30" transform="translate(250 0)"/>
     <use xlink:href="#SimHei-37" transform="translate(300 0)"/>
     <use xlink:href="#SimHei-2d" transform="translate(350 0)"/>
     <use xlink:href="#SimHei-32" transform="translate(400 0)"/>
     <use xlink:href="#SimHei-30" transform="translate(450 0)"/>
    </g>
   </g>
   <g id="text_20">
    <!-- 融资余额与ETF对比 -->
    <g style="fill: #c9d1d9" transform="translate(486.643419 19.270312) scale(0.15 -0.15)">
     <defs>
      <path id="SimHei-878d" d="M 5200 975 
Q 5400 1025 5650 1125 
Q 5775 775 5887 475 
Q 6000 175 6150 -350 
Q 5925 -425 5675 -500 
Q 5575 -175 5500 50 
Q 4825 -100 4362 -212 
Q 3900 -325 3400 -500 
Q 3325 -225 3200 0 
Q 3575 25 4350 175 
L 4350 1750 
L 3850 1750 
L 3850 1225 
L 3375 1225 
Q 3400 1975 3400 2675 
Q 3400 3400 3375 3925 
L 4350 3925 
Q 4350 4925 4325 5200 
L 4825 5200 
Q 4800 4875 4800 3925 
L 5775 3925 
Q 5750 3325 5750 2700 
Q 5750 2100 5775 1550 
L 5300 1550 
L 5300 1750 
L 4800 1750 
L 4800 250 
Q 5075 325 5400 400 
Q 5325 650 5200 975 
z
M 2025 -50 
Q 2425 -50 2475 -12 
Q 2525 25 2550 150 
L 2550 1975 
L 825 1975 
L 825 -500 
L 350 -500 
Q 375 100 375 475 
L 375 1400 
Q 375 1850 350 2350 
L 3000 2350 
Q 2975 1950 2975 1450 
L 2975 -25 
Q 2975 -325 2787 -387 
Q 2600 -450 2225 -525 
Q 2125 -225 2025 -50 
z
M 625 2725 
Q 650 3050 650 3350 
Q 650 3675 625 3975 
L 2850 3975 
Q 2825 3675 2825 3350 
Q 2825 3050 2850 2725 
L 625 2725 
z
M 3000 4450 
Q 2650 4475 2175 4475 
L 1200 4475 
Q 625 4475 250 4450 
L 250 4875 
Q 550 4850 1125 4850 
L 2175 4850 
Q 2700 4850 3000 4875 
L 3000 4450 
z
M 2325 1675 
Q 2175 1475 2000 1025 
L 2325 1025 
L 2325 675 
L 1850 675 
L 1850 -125 
L 1425 -125 
L 1425 675 
L 1025 675 
L 1025 1025 
L 1700 1025 
Q 1875 1500 1925 1825 
Q 2100 1700 2325 1675 
z
M 5300 2125 
L 5300 3550 
L 4800 3550 
L 4800 2125 
L 5300 2125 
z
M 4350 2125 
L 4350 3550 
L 3850 3550 
L 3850 2125 
L 4350 2125 
z
M 2350 3100 
L 2350 3600 
L 1100 3600 
L 1100 3100 
L 2350 3100 
z
M 1575 1275 
Q 1400 1225 1225 1150 
Q 1150 1425 1025 1675 
L 1325 1825 
Q 1425 1550 1575 1275 
z
" transform="scale(0.015625)"/>
      <path id="SimHei-8d44" d="M 5300 2150 
Q 5275 1825 5275 1450 
Q 5275 1075 5300 575 
L 4800 575 
L 4800 1725 
L 1700 1725 
L 1700 425 
L 1200 425 
Q 1225 1000 1225 1375 
Q 1225 1775 1200 2150 
L 5300 2150 
z
M 4225 4075 
Q 4050 3775 4200 3562 
Q 4350 3350 4612 3162 
Q 4875 2975 5262 2850 
Q 5650 2725 6125 2700 
Q 5925 2425 5825 2175 
Q 5200 2300 4712 2550 
Q 4225 2800 3900 3350 
Q 3675 2775 3250 2550 
Q 2825 2325 2325 2175 
Q 2125 2400 1925 2575 
Q 2975 2775 3300 3175 
Q 3625 3575 3650 4150 
L 4225 4075 
z
M 3125 4250 
Q 2825 3850 2550 3650 
Q 2375 3825 2175 3950 
Q 2475 4150 2737 4487 
Q 3000 4825 3150 5200 
Q 3375 5100 3700 5050 
Q 3575 4825 3400 4650 
L 5750 4650 
Q 5675 4500 5300 3675 
Q 5000 3750 4800 3775 
Q 4925 4050 5025 4250 
L 3125 4250 
z
M 3525 1375 
Q 3400 1100 3337 825 
Q 3275 550 3012 262 
Q 2750 -25 2250 -275 
Q 1750 -525 800 -675 
Q 725 -425 500 -200 
Q 1225 -175 1712 -12 
Q 2200 150 2450 350 
Q 2700 550 2812 837 
Q 2925 1125 2925 1450 
Q 3225 1400 3525 1375 
z
M 3825 700 
Q 4300 525 4750 350 
Q 5200 175 5825 -100 
Q 5675 -300 5550 -600 
Q 5075 -325 4612 -125 
Q 4150 75 3625 250 
Q 3750 450 3825 700 
z
M 2075 3325 
Q 1450 2750 875 2050 
Q 625 2325 475 2425 
Q 1275 3050 1725 3625 
Q 1850 3500 2075 3325 
z
M 1700 3975 
Q 1300 4275 625 4675 
Q 800 4850 925 5025 
Q 1150 4875 2000 4350 
Q 1850 4200 1700 3975 
z
" transform="scale(0.015625)"/>
      <path id="SimHei-4f59" d="M 3850 3050 
Q 4150 3050 4525 3075 
L 4525 2600 
Q 4225 2625 3850 2625 
L 3450 2625 
L 3450 1825 
L 4475 1825 
Q 5050 1825 5375 1850 
L 5375 1350 
Q 5025 1375 4500 1375 
L 3450 1375 
L 3450 -75 
Q 3450 -450 3187 -525 
Q 2925 -600 2550 -650 
Q 2525 -425 2350 -50 
Q 2825 -75 2887 -25 
Q 2950 25 2950 175 
L 2950 1375 
L 1800 1375 
Q 1225 1375 900 1350 
L 900 1850 
Q 1200 1825 1800 1825 
L 2950 1825 
L 2950 2625 
L 2550 2625 
Q 2325 2625 1825 2600 
L 1825 3075 
Q 2225 3050 2525 3050 
L 3850 3050 
z
M 3400 4850 
Q 4450 3575 6150 3300 
Q 5925 3150 5750 2700 
Q 4150 3250 3100 4550 
Q 2375 3350 800 2400 
Q 450 2725 325 2800 
Q 1475 3325 2112 4100 
Q 2750 4875 2900 5275 
Q 3150 5175 3550 5050 
L 3400 4850 
z
M 2325 700 
Q 2075 500 1625 112 
Q 1175 -275 925 -450 
Q 725 -225 525 -50 
Q 1600 675 1900 1075 
Q 2100 875 2325 700 
z
M 4400 1175 
Q 4750 850 5025 550 
L 5600 0 
Q 5375 -175 5125 -400 
Q 4875 25 4050 850 
Q 4200 950 4400 1175 
z
" transform="scale(0.015625)"/>
      <path id="SimHei-989d" d="M 1925 3700 
Q 1725 3550 1550 3350 
L 2950 3350 
Q 2875 3150 2700 2875 
Q 2525 2600 2300 2300 
Q 2500 2200 2712 2075 
Q 2925 1950 3275 1725 
Q 3125 1575 2950 1325 
Q 2700 1525 2475 1662 
Q 2250 1800 1950 1950 
Q 1575 1650 1150 1375 
L 2800 1375 
Q 2775 950 2775 500 
Q 2775 50 2800 -450 
L 2325 -450 
L 2325 -50 
L 1325 -50 
L 1325 -575 
L 875 -575 
Q 900 -75 900 275 
L 900 1175 
Q 675 1075 550 1000 
Q 400 1225 225 1400 
Q 625 1550 975 1762 
Q 1325 1975 1550 2200 
Q 1300 2350 1075 2475 
Q 1175 2625 1350 2800 
Q 1625 2650 1925 2500 
Q 2150 2750 2300 3000 
L 1300 3000 
Q 1200 2875 1025 2687 
Q 850 2500 650 2275 
Q 475 2425 250 2575 
Q 650 2875 937 3237 
Q 1225 3600 1375 3925 
Q 1650 3800 1925 3700 
z
M 4150 4400 
Q 3775 4400 3375 4375 
L 3375 4825 
Q 3750 4800 4200 4800 
L 5300 4800 
Q 5600 4800 6000 4825 
L 6000 4375 
Q 5625 4400 5300 4400 
L 4950 4400 
Q 4850 3975 4725 3525 
L 5750 3525 
Q 5725 3125 5725 2775 
L 5725 1625 
Q 5725 1300 5750 825 
L 5300 825 
L 5300 3175 
L 3925 3175 
L 3925 800 
L 3450 800 
Q 3475 1275 3475 1650 
L 3475 2800 
Q 3475 3175 3450 3525 
L 4300 3525 
Q 4400 4025 4450 4400 
L 4150 4400 
z
M 2050 5100 
Q 2100 4825 2200 4475 
L 3225 4475 
Q 3200 4275 3200 4075 
Q 3200 3875 3225 3675 
L 2775 3675 
L 2775 4100 
L 875 4100 
L 875 3500 
L 400 3500 
Q 425 3775 425 4000 
Q 425 4250 400 4475 
L 1650 4475 
Q 1550 4750 1475 5000 
Q 1800 5050 2050 5100 
z
M 4925 2725 
Q 4850 2425 4837 2025 
Q 4825 1625 4712 1175 
Q 4600 725 4262 250 
Q 3925 -225 3250 -675 
Q 3050 -425 2850 -250 
Q 3375 -25 3687 262 
Q 4000 550 4162 937 
Q 4325 1325 4350 1750 
Q 4375 2175 4375 2775 
Q 4575 2750 4925 2725 
z
M 2325 325 
L 2325 1025 
L 1325 1025 
L 1325 325 
L 2325 325 
z
M 5075 800 
Q 5300 575 5487 400 
Q 5675 225 6025 -100 
Q 5800 -275 5600 -500 
Q 5450 -275 5275 -87 
Q 5100 100 4675 400 
Q 4875 575 5075 800 
z
" transform="scale(0.015625)"/>
      <path id="SimHei-4e0e" d="M 5350 100 
Q 5275 -300 4925 -425 
Q 4575 -550 3900 -600 
Q 3875 -375 3650 -25 
Q 4375 -50 4575 0 
Q 4775 50 4837 225 
Q 4900 400 5100 2350 
L 1125 2350 
Q 1450 4350 1475 5200 
Q 1800 5150 2075 5125 
Q 1975 4825 1900 4275 
L 4900 4275 
Q 5400 4275 5800 4300 
L 5800 3825 
Q 5400 3850 4950 3850 
L 1850 3850 
L 1700 2750 
L 5675 2750 
Q 5625 2450 5575 2050 
L 5350 100 
z
M 3675 1350 
Q 4125 1350 4500 1375 
L 4500 875 
Q 4125 900 3850 900 
L 1450 900 
Q 1000 900 500 875 
L 500 1375 
Q 1000 1350 1450 1350 
L 3675 1350 
z
" transform="scale(0.015625)"/>
      <path id="SimHei-45" d="M 2900 125 
L 350 125 
L 350 4400 
L 2775 4400 
L 2775 3925 
L 925 3925 
L 925 2600 
L 2625 2600 
L 2625 2125 
L 925 2125 
L 925 600 
L 2900 600 
L 2900 125 
z
" transform="scale(0.015625)"/>
      <path id="SimHei-54" d="M 2850 3925 
L 1850 3925 
L 1850 125 
L 1275 125 
L 1275 3925 
L 275 3925 
L 275 4400 
L 2850 4400 
L 2850 3925 
z
" transform="scale(0.015625)"/>
      <path id="SimHei-46" d="M 2925 3925 
L 875 3925 
L 875 2525 
L 2425 2525 
L 2425 2050 
L 875 2050 
L 875 125 
L 300 125 
L 300 4400 
L 2925 4400 
L 2925 3925 
z
" transform="scale(0.015625)"/>
      <path id="SimHei-5bf9" d="M 525 4250 
Q 900 4225 1400 4225 
L 2825 4225 
Q 2575 2625 2200 1750 
Q 2825 875 3125 400 
Q 2950 275 2725 75 
Q 2200 975 1950 1300 
Q 1650 775 1350 425 
Q 1050 75 600 -350 
Q 425 -125 200 -25 
Q 625 275 975 675 
Q 1325 1075 1650 1700 
Q 1050 2425 550 2900 
Q 700 3025 900 3225 
Q 1625 2425 1875 2150 
Q 2200 3050 2300 3825 
L 1400 3825 
Q 900 3825 525 3800 
L 525 4250 
z
M 2925 3700 
Q 3525 3675 3750 3675 
L 4825 3675 
L 4825 4425 
Q 4825 4750 4775 5125 
L 5350 5125 
Q 5325 4825 5325 4375 
L 5325 3675 
Q 5575 3675 6150 3700 
L 6150 3250 
Q 5575 3275 5325 3275 
L 5325 125 
Q 5350 -350 5012 -475 
Q 4675 -600 4250 -650 
Q 4175 -350 4025 -100 
Q 4575 -100 4712 -37 
Q 4850 25 4825 325 
L 4825 3275 
L 3775 3275 
Q 3550 3275 2925 3225 
L 2925 3700 
z
M 3450 2725 
Q 3875 1975 4175 1325 
Q 3850 1200 3700 1075 
Q 3475 1750 3050 2475 
Q 3225 2550 3450 2725 
z
" transform="scale(0.015625)"/>
      <path id="SimHei-6bd4" d="M 3775 5100 
Q 3750 4575 3750 4100 
L 3750 3050 
Q 4925 3600 5475 4175 
Q 5675 3900 5900 3675 
Q 5600 3500 5037 3187 
Q 4475 2875 3750 2550 
L 3750 450 
Q 3750 100 4050 100 
L 5000 100 
Q 5175 100 5262 250 
Q 5350 400 5450 900 
Q 5650 775 6025 675 
Q 5850 0 5650 -175 
Q 5450 -350 5225 -350 
L 3900 -350 
Q 3250 -350 3250 275 
L 3250 4000 
Q 3250 4550 3225 5100 
L 3775 5100 
z
M 1275 4975 
Q 1250 4575 1250 4000 
L 1250 3150 
L 1850 3150 
Q 2325 3150 2875 3175 
L 2875 2650 
Q 2325 2675 1850 2675 
L 1250 2675 
L 1250 475 
Q 1650 650 1962 812 
Q 2275 975 2850 1275 
Q 2900 950 2950 750 
Q 2375 475 1762 175 
Q 1150 -125 925 -325 
Q 750 -100 575 200 
Q 700 300 750 600 
L 750 3950 
Q 750 4550 725 4975 
L 1275 4975 
z
" transform="scale(0.015625)"/>
     </defs>
     <use xlink:href="#SimHei-878d"/>
     <use xlink:href="#SimHei-8d44" transform="translate(100 0)"/>
     <use xlink:href="#SimHei-4f59" transform="translate(200 0)"/>
     <use xlink:href="#SimHei-989d" transform="translate(300 0)"/>
     <use xlink:href="#SimHei-4e0e" transform="translate(400 0)"/>
     <use xlink:href="#SimHei-45" transform="translate(500 0)"/>
     <use xlink:href="#SimHei-54" transform="translate(550 0)"/>
     <use xlink:href="#SimHei-46" transform="translate(600 0)"/>
     <use xlink:href="#SimHei-5bf9" transform="translate(650 0)"/>
     <use xlink:href="#SimHei-6bd4" transform="translate(750 0)"/>
    </g>
   </g>
   <g id="legend_1">
    <g id="patch_7">
     <path d="M 44.753419 80.067187 
L 116.753419 80.067187 
Q 118.753419 80.067187 118.753419 78.067187 
L 118.753419 38.270312 
Q 118.753419 36.270312 116.753419 36.270312 
L 44.753419 36.270312 
Q 42.753419 36.270312 42.753419 38.270312 
L 42.753419 78.067187 
Q 42.753419 80.067187 44.753419 80.067187 
z
" style="fill: #161b22; opacity: 0.9; stroke: #30363d; stroke-linejoin: miter"/>
    </g>
    <g id="line2d_40">
     <path d="M 46.753419 44.817187 
L 56.753419 44.817187 
L 66.753419 44.817187 
" style="fill: none; stroke: #008000; stroke-width: 2; stroke-linecap: square"/>
    </g>
    <g id="text_21">
     <!-- 融资余额 -->
     <g style="fill: #c9d1d9" transform="translate(74.753419 48.317187) scale(0.1 -0.1)">
      <use xlink:href="#SimHei-878d"/>
      <use xlink:href="#SimHei-8d44" transform="translate(100 0)"/>
      <use xlink:href="#SimHei-4f59" transform="translate(200 0)"/>
      <use xlink:href="#SimHei-989d" transform="translate(300 0)"/>
     </g>
    </g>
    <g id="line2d_41">
     <path d="M 46.753419 58.067187 
L 56.753419 58.067187 
L 66.753419 58.067187 
" style="fill: none; stroke: #ff0000; stroke-width: 2; stroke-linecap: square"/>
    </g>
    <g id="text_22">
     <!-- 300ETF -->
     <g style="fill: #c9d1d9" transform="translate(74.753419 61.567187) scale(0.1 -0.1)">
      <use xlink:href="#SimHei-33"/>
      <use xlink:href="#SimHei-30" transform="translate(50 0)"/>
      <use xlink:href="#SimHei-30" transform="translate(100 0)"/>
      <use xlink:href="#SimHei-45" transform="translate(150 0)"/>
      <use xlink:href="#SimHei-54" transform="translate(200 0)"/>
      <use xlink:href="#SimHei-46" transform="translate(250 0)"/>
     </g>
    </g>
    <g id="line2d_42">
     <path d="M 46.753419 71.317187 
L 56.753419 71.317187 
L 66.753419 71.317187 
" style="fill: none; stroke: #0000ff; stroke-width: 2; stroke-linecap: square"/>
    </g>
    <g id="text_23">
     <!-- 1000ETF -->
     <g style="fill: #c9d1d9" transform="translate(74.753419 74.817187) scale(0.1 -0.1)">
      <use xlink:href="#SimHei-31"/>
      <use xlink:href="#SimHei-30" transform="translate(50 0)"/>
      <use xlink:href="#SimHei-30" transform="translate(100 0)"/>
      <use xlink:href="#SimHei-30" transform="translate(150 0)"/>
      <use xlink:href="#SimHei-45" transform="translate(200 0)"/>
      <use xlink:href="#SimHei-54" transform="translate(250 0)"/>
      <use xlink:href="#SimHei-46" transform="translate(300 0)"/>
     </g>
    </g>
   </g>
  </g>
 </g>
 <defs>
  <clipPath id="p4b4f22fced">
   <rect x="37.753419" y="31.270312" width="1025.28" height="525.6"/>
  </clipPath>
 </defs>
</svg>
