<?xml version="1.0" encoding="utf-8" standalone="no"?>
<!DOCTYPE svg PUBLIC "-//W3C//DTD SVG 1.1//EN"
  "http://www.w3.org/Graphics/SVG/1.1/DTD/svg11.dtd">
<svg xmlns:xlink="http://www.w3.org/1999/xlink" width="1061.68pt" height="595.606769pt" viewBox="0 0 1061.68 595.606769" xmlns="http://www.w3.org/2000/svg" version="1.1">
 <metadata>
  <rdf:RDF xmlns:dc="http://purl.org/dc/elements/1.1/" xmlns:cc="http://creativecommons.org/ns#" xmlns:rdf="http://www.w3.org/1999/02/22-rdf-syntax-ns#">
   <cc:Work>
    <dc:type rdf:resource="http://purl.org/dc/dcmitype/StillImage"/>
    <dc:date>2026-07-08T22:32:21.350726</dc:date>
    <dc:format>image/svg+xml</dc:format>
    <dc:creator>
     <cc:Agent>
      <dc:title>Matplotlib v3.10.9, https://matplotlib.org/</dc:title>
     </cc:Agent>
    </dc:creator>
   </cc:Work>
  </rdf:RDF>
 </metadata>
 <defs>
  <style type="text/css">*{stroke-linejoin: round; stroke-linecap: butt}</style>
 </defs>
 <g id="figure_1">
  <g id="patch_1">
   <path d="M 0 595.606769 
L 1061.68 595.606769 
L 1061.68 0 
L 0 0 
z
" style="fill: #0d1117"/>
  </g>
  <g id="axes_1">
   <g id="patch_2">
    <path d="M 29.2 556.870312 
L 1054.48 556.870312 
L 1054.48 31.270312 
L 29.2 31.270312 
z
" style="fill: #161b22"/>
   </g>
   <g id="matplotlib.axis_1">
    <g id="xtick_1">
     <g id="line2d_1">
      <path d="M 69.731501 556.870312 
L 69.731501 31.270312 
" clip-path="url(#p39f4ad7325)" style="fill: none; stroke-dasharray: 2.96,1.28; stroke-dashoffset: 0; stroke: #21262d; stroke-opacity: 0.4; stroke-width: 0.8"/>
     </g>
     <g id="line2d_2">
      <defs>
       <path id="m7f7662b81d" d="M 0 0 
L 0 3.5 
" style="stroke: #c9d1d9; stroke-width: 0.8"/>
      </defs>
      <g>
       <use xlink:href="#m7f7662b81d" x="69.731501" y="556.870312" style="fill: #c9d1d9; stroke: #c9d1d9; stroke-width: 0.8"/>
      </g>
     </g>
     <g id="text_1">
      <!-- 2025-09 -->
      <g style="fill: #c9d1d9" transform="translate(38.795612 587.324237) rotate(-30) scale(0.1 -0.1)">
       <defs>
        <path id="SimHei-32" d="M 300 250 
Q 325 625 650 925 
Q 975 1225 1475 1862 
Q 1975 2500 2125 2850 
Q 2275 3200 2237 3450 
Q 2200 3700 2000 3862 
Q 1800 4025 1537 4000 
Q 1275 3975 1037 3800 
Q 800 3625 675 3275 
L 200 3350 
Q 400 3925 712 4187 
Q 1025 4450 1450 4475 
Q 1700 4500 1900 4462 
Q 2100 4425 2312 4287 
Q 2525 4150 2662 3875 
Q 2800 3600 2762 3212 
Q 2725 2825 2375 2287 
Q 2025 1750 1025 600 
L 2825 600 
L 2825 150 
L 300 150 
L 300 250 
z
" transform="scale(0.015625)"/>
        <path id="SimHei-30" d="M 225 2537 
Q 250 3200 412 3587 
Q 575 3975 875 4225 
Q 1175 4475 1612 4475 
Q 2050 4475 2375 4112 
Q 2700 3750 2800 3200 
Q 2900 2650 2862 1937 
Q 2825 1225 2612 775 
Q 2400 325 1975 150 
Q 1550 -25 1125 187 
Q 700 400 525 750 
Q 350 1100 275 1487 
Q 200 1875 225 2537 
z
M 750 2687 
Q 675 2000 800 1462 
Q 925 925 1212 700 
Q 1500 475 1800 612 
Q 2100 750 2237 1162 
Q 2375 1575 2375 2062 
Q 2375 2550 2337 2950 
Q 2300 3350 2112 3675 
Q 1925 4000 1612 4012 
Q 1300 4025 1062 3700 
Q 825 3375 750 2687 
z
" transform="scale(0.015625)"/>
        <path id="SimHei-35" d="M 550 1325 
Q 725 650 1150 575 
Q 1575 500 1837 662 
Q 2100 825 2212 1087 
Q 2325 1350 2312 1675 
Q 2300 2000 2137 2225 
Q 1975 2450 1725 2525 
Q 1475 2600 1162 2525 
Q 850 2450 650 2175 
L 225 2225 
Q 275 2375 700 4375 
L 2675 4375 
L 2675 3925 
L 1075 3925 
Q 950 3250 825 2850 
Q 1200 3025 1525 3012 
Q 1850 3000 2150 2862 
Q 2450 2725 2587 2487 
Q 2725 2250 2787 2012 
Q 2850 1775 2837 1500 
Q 2825 1225 2725 937 
Q 2625 650 2425 462 
Q 2225 275 1937 162 
Q 1650 50 1275 75 
Q 900 100 562 350 
Q 225 600 100 1200 
L 550 1325 
z
" transform="scale(0.015625)"/>
        <path id="SimHei-2d" d="M 2975 2125 
L 125 2125 
L 125 2525 
L 2975 2525 
L 2975 2125 
z
" transform="scale(0.015625)"/>
        <path id="SimHei-39" d="M 800 75 
Q 1350 1000 1700 1750 
Q 1075 1650 662 1912 
Q 250 2175 162 2625 
Q 75 3075 175 3437 
Q 275 3800 487 4037 
Q 700 4275 1000 4375 
Q 1300 4475 1537 4475 
Q 1775 4475 2025 4375 
Q 2275 4275 2475 4075 
Q 2675 3875 2750 3662 
Q 2825 3450 2825 3112 
Q 2825 2775 2575 2250 
Q 2325 1725 1350 75 
L 800 75 
z
M 662 2875 
Q 700 2550 937 2337 
Q 1175 2125 1450 2150 
Q 1725 2175 1887 2300 
Q 2050 2425 2200 2725 
Q 2300 3100 2250 3362 
Q 2200 3625 1987 3800 
Q 1775 3975 1525 3975 
Q 1375 4000 1137 3900 
Q 900 3800 762 3500 
Q 625 3200 662 2875 
z
" transform="scale(0.015625)"/>
       </defs>
       <use xlink:href="#SimHei-32"/>
       <use xlink:href="#SimHei-30" transform="translate(50 0)"/>
       <use xlink:href="#SimHei-32" transform="translate(100 0)"/>
       <use xlink:href="#SimHei-35" transform="translate(150 0)"/>
       <use xlink:href="#SimHei-2d" transform="translate(200 0)"/>
       <use xlink:href="#SimHei-30" transform="translate(250 0)"/>
       <use xlink:href="#SimHei-39" transform="translate(300 0)"/>
      </g>
     </g>
    </g>
    <g id="xtick_2">
     <g id="line2d_3">
      <path d="M 160.813527 556.870312 
L 160.813527 31.270312 
" clip-path="url(#p39f4ad7325)" style="fill: none; stroke-dasharray: 2.96,1.28; stroke-dashoffset: 0; stroke: #21262d; stroke-opacity: 0.4; stroke-width: 0.8"/>
     </g>
     <g id="line2d_4">
      <g>
       <use xlink:href="#m7f7662b81d" x="160.813527" y="556.870312" style="fill: #c9d1d9; stroke: #c9d1d9; stroke-width: 0.8"/>
      </g>
     </g>
     <g id="text_2">
      <!-- 2025-10 -->
      <g style="fill: #c9d1d9" transform="translate(129.877638 587.324237) rotate(-30) scale(0.1 -0.1)">
       <defs>
        <path id="SimHei-31" d="M 1400 3600 
Q 1075 3275 575 2975 
L 575 3450 
Q 1200 3875 1600 4450 
L 1900 4450 
L 1900 150 
L 1400 150 
L 1400 3600 
z
" transform="scale(0.015625)"/>
       </defs>
       <use xlink:href="#SimHei-32"/>
       <use xlink:href="#SimHei-30" transform="translate(50 0)"/>
       <use xlink:href="#SimHei-32" transform="translate(100 0)"/>
       <use xlink:href="#SimHei-35" transform="translate(150 0)"/>
       <use xlink:href="#SimHei-2d" transform="translate(200 0)"/>
       <use xlink:href="#SimHei-31" transform="translate(250 0)"/>
       <use xlink:href="#SimHei-30" transform="translate(300 0)"/>
      </g>
     </g>
    </g>
    <g id="xtick_3">
     <g id="line2d_5">
      <path d="M 254.93162 556.870312 
L 254.93162 31.270312 
" clip-path="url(#p39f4ad7325)" style="fill: none; stroke-dasharray: 2.96,1.28; stroke-dashoffset: 0; stroke: #21262d; stroke-opacity: 0.4; stroke-width: 0.8"/>
     </g>
     <g id="line2d_6">
      <g>
       <use xlink:href="#m7f7662b81d" x="254.93162" y="556.870312" style="fill: #c9d1d9; stroke: #c9d1d9; stroke-width: 0.8"/>
      </g>
     </g>
     <g id="text_3">
      <!-- 2025-11 -->
      <g style="fill: #c9d1d9" transform="translate(223.995731 587.324237) rotate(-30) scale(0.1 -0.1)">
       <use xlink:href="#SimHei-32"/>
       <use xlink:href="#SimHei-30" transform="translate(50 0)"/>
       <use xlink:href="#SimHei-32" transform="translate(100 0)"/>
       <use xlink:href="#SimHei-35" transform="translate(150 0)"/>
       <use xlink:href="#SimHei-2d" transform="translate(200 0)"/>
       <use xlink:href="#SimHei-31" transform="translate(250 0)"/>
       <use xlink:href="#SimHei-31" transform="translate(300 0)"/>
      </g>
     </g>
    </g>
    <g id="xtick_4">
     <g id="line2d_7">
      <path d="M 346.013645 556.870312 
L 346.013645 31.270312 
" clip-path="url(#p39f4ad7325)" style="fill: none; stroke-dasharray: 2.96,1.28; stroke-dashoffset: 0; stroke: #21262d; stroke-opacity: 0.4; stroke-width: 0.8"/>
     </g>
     <g id="line2d_8">
      <g>
       <use xlink:href="#m7f7662b81d" x="346.013645" y="556.870312" style="fill: #c9d1d9; stroke: #c9d1d9; stroke-width: 0.8"/>
      </g>
     </g>
     <g id="text_4">
      <!-- 2025-12 -->
      <g style="fill: #c9d1d9" transform="translate(315.077756 587.324237) rotate(-30) scale(0.1 -0.1)">
       <use xlink:href="#SimHei-32"/>
       <use xlink:href="#SimHei-30" transform="translate(50 0)"/>
       <use xlink:href="#SimHei-32" transform="translate(100 0)"/>
       <use xlink:href="#SimHei-35" transform="translate(150 0)"/>
       <use xlink:href="#SimHei-2d" transform="translate(200 0)"/>
       <use xlink:href="#SimHei-31" transform="translate(250 0)"/>
       <use xlink:href="#SimHei-32" transform="translate(300 0)"/>
      </g>
     </g>
    </g>
    <g id="xtick_5">
     <g id="line2d_9">
      <path d="M 440.131738 556.870312 
L 440.131738 31.270312 
" clip-path="url(#p39f4ad7325)" style="fill: none; stroke-dasharray: 2.96,1.28; stroke-dashoffset: 0; stroke: #21262d; stroke-opacity: 0.4; stroke-width: 0.8"/>
     </g>
     <g id="line2d_10">
      <g>
       <use xlink:href="#m7f7662b81d" x="440.131738" y="556.870312" style="fill: #c9d1d9; stroke: #c9d1d9; stroke-width: 0.8"/>
      </g>
     </g>
     <g id="text_5">
      <!-- 2026-01 -->
      <g style="fill: #c9d1d9" transform="translate(409.195849 587.324237) rotate(-30) scale(0.1 -0.1)">
       <defs>
        <path id="SimHei-36" d="M 250 1612 
Q 275 1975 387 2225 
Q 500 2475 725 2850 
L 1750 4450 
L 2325 4450 
L 1275 2800 
Q 1950 2975 2350 2750 
Q 2750 2525 2887 2237 
Q 3025 1950 3037 1612 
Q 3050 1275 2937 950 
Q 2825 625 2537 362 
Q 2250 100 1737 75 
Q 1225 50 862 262 
Q 500 475 362 862 
Q 225 1250 250 1612 
z
M 1025 787 
Q 1250 550 1625 525 
Q 2000 500 2250 775 
Q 2500 1050 2500 1575 
Q 2500 2100 2187 2300 
Q 1875 2500 1487 2450 
Q 1100 2400 925 2075 
Q 750 1750 775 1387 
Q 800 1025 1025 787 
z
" transform="scale(0.015625)"/>
       </defs>
       <use xlink:href="#SimHei-32"/>
       <use xlink:href="#SimHei-30" transform="translate(50 0)"/>
       <use xlink:href="#SimHei-32" transform="translate(100 0)"/>
       <use xlink:href="#SimHei-36" transform="translate(150 0)"/>
       <use xlink:href="#SimHei-2d" transform="translate(200 0)"/>
       <use xlink:href="#SimHei-30" transform="translate(250 0)"/>
       <use xlink:href="#SimHei-31" transform="translate(300 0)"/>
      </g>
     </g>
    </g>
    <g id="xtick_6">
     <g id="line2d_11">
      <path d="M 534.249831 556.870312 
L 534.249831 31.270312 
" clip-path="url(#p39f4ad7325)" style="fill: none; stroke-dasharray: 2.96,1.28; stroke-dashoffset: 0; stroke: #21262d; stroke-opacity: 0.4; stroke-width: 0.8"/>
     </g>
     <g id="line2d_12">
      <g>
       <use xlink:href="#m7f7662b81d" x="534.249831" y="556.870312" style="fill: #c9d1d9; stroke: #c9d1d9; stroke-width: 0.8"/>
      </g>
     </g>
     <g id="text_6">
      <!-- 2026-02 -->
      <g style="fill: #c9d1d9" transform="translate(503.313942 587.324237) rotate(-30) scale(0.1 -0.1)">
       <use xlink:href="#SimHei-32"/>
       <use xlink:href="#SimHei-30" transform="translate(50 0)"/>
       <use xlink:href="#SimHei-32" transform="translate(100 0)"/>
       <use xlink:href="#SimHei-36" transform="translate(150 0)"/>
       <use xlink:href="#SimHei-2d" transform="translate(200 0)"/>
       <use xlink:href="#SimHei-30" transform="translate(250 0)"/>
       <use xlink:href="#SimHei-32" transform="translate(300 0)"/>
      </g>
     </g>
    </g>
    <g id="xtick_7">
     <g id="line2d_13">
      <path d="M 619.259722 556.870312 
L 619.259722 31.270312 
" clip-path="url(#p39f4ad7325)" style="fill: none; stroke-dasharray: 2.96,1.28; stroke-dashoffset: 0; stroke: #21262d; stroke-opacity: 0.4; stroke-width: 0.8"/>
     </g>
     <g id="line2d_14">
      <g>
       <use xlink:href="#m7f7662b81d" x="619.259722" y="556.870312" style="fill: #c9d1d9; stroke: #c9d1d9; stroke-width: 0.8"/>
      </g>
     </g>
     <g id="text_7">
      <!-- 2026-03 -->
      <g style="fill: #c9d1d9" transform="translate(588.323833 587.324237) rotate(-30) scale(0.1 -0.1)">
       <defs>
        <path id="SimHei-33" d="M 250 1225 
L 700 1300 
Q 800 975 1025 762 
Q 1250 550 1587 562 
Q 1925 575 2125 837 
Q 2325 1100 2300 1437 
Q 2275 1775 2037 1962 
Q 1800 2150 1275 2225 
L 1275 2550 
Q 1800 2600 2037 2825 
Q 2275 3050 2250 3412 
Q 2225 3775 1925 3937 
Q 1625 4100 1287 3975 
Q 950 3850 750 3275 
L 300 3350 
Q 450 3800 712 4100 
Q 975 4400 1425 4450 
Q 1875 4500 2212 4337 
Q 2550 4175 2687 3837 
Q 2825 3500 2725 3100 
Q 2625 2700 2150 2400 
Q 2500 2250 2687 1950 
Q 2875 1650 2812 1162 
Q 2750 675 2375 375 
Q 2000 75 1525 87 
Q 1050 100 700 387 
Q 350 675 250 1225 
z
" transform="scale(0.015625)"/>
       </defs>
       <use xlink:href="#SimHei-32"/>
       <use xlink:href="#SimHei-30" transform="translate(50 0)"/>
       <use xlink:href="#SimHei-32" transform="translate(100 0)"/>
       <use xlink:href="#SimHei-36" transform="translate(150 0)"/>
       <use xlink:href="#SimHei-2d" transform="translate(200 0)"/>
       <use xlink:href="#SimHei-30" transform="translate(250 0)"/>
       <use xlink:href="#SimHei-33" transform="translate(300 0)"/>
      </g>
     </g>
    </g>
    <g id="xtick_8">
     <g id="line2d_15">
      <path d="M 713.377815 556.870312 
L 713.377815 31.270312 
" clip-path="url(#p39f4ad7325)" style="fill: none; stroke-dasharray: 2.96,1.28; stroke-dashoffset: 0; stroke: #21262d; stroke-opacity: 0.4; stroke-width: 0.8"/>
     </g>
     <g id="line2d_16">
      <g>
       <use xlink:href="#m7f7662b81d" x="713.377815" y="556.870312" style="fill: #c9d1d9; stroke: #c9d1d9; stroke-width: 0.8"/>
      </g>
     </g>
     <g id="text_8">
      <!-- 2026-04 -->
      <g style="fill: #c9d1d9" transform="translate(682.441925 587.324237) rotate(-30) scale(0.1 -0.1)">
       <defs>
        <path id="SimHei-34" d="M 2000 1100 
L 75 1100 
L 75 1525 
L 2100 4450 
L 2475 4450 
L 2475 1525 
L 3075 1525 
L 3075 1100 
L 2475 1100 
L 2475 150 
L 2000 150 
L 2000 1100 
z
M 2000 1525 
L 2000 3500 
L 600 1525 
L 2000 1525 
z
" transform="scale(0.015625)"/>
       </defs>
       <use xlink:href="#SimHei-32"/>
       <use xlink:href="#SimHei-30" transform="translate(50 0)"/>
       <use xlink:href="#SimHei-32" transform="translate(100 0)"/>
       <use xlink:href="#SimHei-36" transform="translate(150 0)"/>
       <use xlink:href="#SimHei-2d" transform="translate(200 0)"/>
       <use xlink:href="#SimHei-30" transform="translate(250 0)"/>
       <use xlink:href="#SimHei-34" transform="translate(300 0)"/>
      </g>
     </g>
    </g>
    <g id="xtick_9">
     <g id="line2d_17">
      <path d="M 804.45984 556.870312 
L 804.45984 31.270312 
" clip-path="url(#p39f4ad7325)" style="fill: none; stroke-dasharray: 2.96,1.28; stroke-dashoffset: 0; stroke: #21262d; stroke-opacity: 0.4; stroke-width: 0.8"/>
     </g>
     <g id="line2d_18">
      <g>
       <use xlink:href="#m7f7662b81d" x="804.45984" y="556.870312" style="fill: #c9d1d9; stroke: #c9d1d9; stroke-width: 0.8"/>
      </g>
     </g>
     <g id="text_9">
      <!-- 2026-05 -->
      <g style="fill: #c9d1d9" transform="translate(773.523951 587.324237) rotate(-30) scale(0.1 -0.1)">
       <use xlink:href="#SimHei-32"/>
       <use xlink:href="#SimHei-30" transform="translate(50 0)"/>
       <use xlink:href="#SimHei-32" transform="translate(100 0)"/>
       <use xlink:href="#SimHei-36" transform="translate(150 0)"/>
       <use xlink:href="#SimHei-2d" transform="translate(200 0)"/>
       <use xlink:href="#SimHei-30" transform="translate(250 0)"/>
       <use xlink:href="#SimHei-35" transform="translate(300 0)"/>
      </g>
     </g>
    </g>
    <g id="xtick_10">
     <g id="line2d_19">
      <path d="M 898.577933 556.870312 
L 898.577933 31.270312 
" clip-path="url(#p39f4ad7325)" style="fill: none; stroke-dasharray: 2.96,1.28; stroke-dashoffset: 0; stroke: #21262d; stroke-opacity: 0.4; stroke-width: 0.8"/>
     </g>
     <g id="line2d_20">
      <g>
       <use xlink:href="#m7f7662b81d" x="898.577933" y="556.870312" style="fill: #c9d1d9; stroke: #c9d1d9; stroke-width: 0.8"/>
      </g>
     </g>
     <g id="text_10">
      <!-- 2026-06 -->
      <g style="fill: #c9d1d9" transform="translate(867.642044 587.324237) rotate(-30) scale(0.1 -0.1)">
       <use xlink:href="#SimHei-32"/>
       <use xlink:href="#SimHei-30" transform="translate(50 0)"/>
       <use xlink:href="#SimHei-32" transform="translate(100 0)"/>
       <use xlink:href="#SimHei-36" transform="translate(150 0)"/>
       <use xlink:href="#SimHei-2d" transform="translate(200 0)"/>
       <use xlink:href="#SimHei-30" transform="translate(250 0)"/>
       <use xlink:href="#SimHei-36" transform="translate(300 0)"/>
      </g>
     </g>
    </g>
    <g id="xtick_11">
     <g id="line2d_21">
      <path d="M 989.659959 556.870312 
L 989.659959 31.270312 
" clip-path="url(#p39f4ad7325)" style="fill: none; stroke-dasharray: 2.96,1.28; stroke-dashoffset: 0; stroke: #21262d; stroke-opacity: 0.4; stroke-width: 0.8"/>
     </g>
     <g id="line2d_22">
      <g>
       <use xlink:href="#m7f7662b81d" x="989.659959" y="556.870312" style="fill: #c9d1d9; stroke: #c9d1d9; stroke-width: 0.8"/>
      </g>
     </g>
     <g id="text_11">
      <!-- 2026-07 -->
      <g style="fill: #c9d1d9" transform="translate(958.724069 587.324237) rotate(-30) scale(0.1 -0.1)">
       <defs>
        <path id="SimHei-37" d="M 850 150 
Q 1300 2050 2425 3925 
L 275 3925 
L 275 4375 
L 2950 4375 
L 2950 3950 
Q 1775 2050 1400 150 
L 850 150 
z
" transform="scale(0.015625)"/>
       </defs>
       <use xlink:href="#SimHei-32"/>
       <use xlink:href="#SimHei-30" transform="translate(50 0)"/>
       <use xlink:href="#SimHei-32" transform="translate(100 0)"/>
       <use xlink:href="#SimHei-36" transform="translate(150 0)"/>
       <use xlink:href="#SimHei-2d" transform="translate(200 0)"/>
       <use xlink:href="#SimHei-30" transform="translate(250 0)"/>
       <use xlink:href="#SimHei-37" transform="translate(300 0)"/>
      </g>
     </g>
    </g>
   </g>
   <g id="matplotlib.axis_2">
    <g id="ytick_1">
     <g id="line2d_23">
      <path d="M 29.2 532.979403 
L 1054.48 532.979403 
" clip-path="url(#p39f4ad7325)" style="fill: none; stroke-dasharray: 2.96,1.28; stroke-dashoffset: 0; stroke: #21262d; stroke-opacity: 0.4; stroke-width: 0.8"/>
     </g>
     <g id="line2d_24">
      <defs>
       <path id="ma8129976a5" d="M 0 0 
L -3.5 0 
" style="stroke: #c9d1d9; stroke-width: 0.8"/>
      </defs>
      <g>
       <use xlink:href="#ma8129976a5" x="29.2" y="532.979403" style="fill: #c9d1d9; stroke: #c9d1d9; stroke-width: 0.8"/>
      </g>
     </g>
     <g id="text_12">
      <!-- 0.0 -->
      <g style="fill: #c9d1d9" transform="translate(7.2 536.416903) scale(0.1 -0.1)">
       <defs>
        <path id="SimHei-2e" d="M 1075 125 
L 500 125 
L 500 675 
L 1075 675 
L 1075 125 
z
" transform="scale(0.015625)"/>
       </defs>
       <use xlink:href="#SimHei-30"/>
       <use xlink:href="#SimHei-2e" transform="translate(50 0)"/>
       <use xlink:href="#SimHei-30" transform="translate(100 0)"/>
      </g>
     </g>
    </g>
    <g id="ytick_2">
     <g id="line2d_25">
      <path d="M 29.2 437.415767 
L 1054.48 437.415767 
" clip-path="url(#p39f4ad7325)" style="fill: none; stroke-dasharray: 2.96,1.28; stroke-dashoffset: 0; stroke: #21262d; stroke-opacity: 0.4; stroke-width: 0.8"/>
     </g>
     <g id="line2d_26">
      <g>
       <use xlink:href="#ma8129976a5" x="29.2" y="437.415767" style="fill: #c9d1d9; stroke: #c9d1d9; stroke-width: 0.8"/>
      </g>
     </g>
     <g id="text_13">
      <!-- 0.2 -->
      <g style="fill: #c9d1d9" transform="translate(7.2 440.853267) scale(0.1 -0.1)">
       <use xlink:href="#SimHei-30"/>
       <use xlink:href="#SimHei-2e" transform="translate(50 0)"/>
       <use xlink:href="#SimHei-32" transform="translate(100 0)"/>
      </g>
     </g>
    </g>
    <g id="ytick_3">
     <g id="line2d_27">
      <path d="M 29.2 341.852131 
L 1054.48 341.852131 
" clip-path="url(#p39f4ad7325)" style="fill: none; stroke-dasharray: 2.96,1.28; stroke-dashoffset: 0; stroke: #21262d; stroke-opacity: 0.4; stroke-width: 0.8"/>
     </g>
     <g id="line2d_28">
      <g>
       <use xlink:href="#ma8129976a5" x="29.2" y="341.852131" style="fill: #c9d1d9; stroke: #c9d1d9; stroke-width: 0.8"/>
      </g>
     </g>
     <g id="text_14">
      <!-- 0.4 -->
      <g style="fill: #c9d1d9" transform="translate(7.2 345.289631) scale(0.1 -0.1)">
       <use xlink:href="#SimHei-30"/>
       <use xlink:href="#SimHei-2e" transform="translate(50 0)"/>
       <use xlink:href="#SimHei-34" transform="translate(100 0)"/>
      </g>
     </g>
    </g>
    <g id="ytick_4">
     <g id="line2d_29">
      <path d="M 29.2 246.288494 
L 1054.48 246.288494 
" clip-path="url(#p39f4ad7325)" style="fill: none; stroke-dasharray: 2.96,1.28; stroke-dashoffset: 0; stroke: #21262d; stroke-opacity: 0.4; stroke-width: 0.8"/>
     </g>
     <g id="line2d_30">
      <g>
       <use xlink:href="#ma8129976a5" x="29.2" y="246.288494" style="fill: #c9d1d9; stroke: #c9d1d9; stroke-width: 0.8"/>
      </g>
     </g>
     <g id="text_15">
      <!-- 0.6 -->
      <g style="fill: #c9d1d9" transform="translate(7.2 249.725994) scale(0.1 -0.1)">
       <use xlink:href="#SimHei-30"/>
       <use xlink:href="#SimHei-2e" transform="translate(50 0)"/>
       <use xlink:href="#SimHei-36" transform="translate(100 0)"/>
      </g>
     </g>
    </g>
    <g id="ytick_5">
     <g id="line2d_31">
      <path d="M 29.2 150.724858 
L 1054.48 150.724858 
" clip-path="url(#p39f4ad7325)" style="fill: none; stroke-dasharray: 2.96,1.28; stroke-dashoffset: 0; stroke: #21262d; stroke-opacity: 0.4; stroke-width: 0.8"/>
     </g>
     <g id="line2d_32">
      <g>
       <use xlink:href="#ma8129976a5" x="29.2" y="150.724858" style="fill: #c9d1d9; stroke: #c9d1d9; stroke-width: 0.8"/>
      </g>
     </g>
     <g id="text_16">
      <!-- 0.8 -->
      <g style="fill: #c9d1d9" transform="translate(7.2 154.162358) scale(0.1 -0.1)">
       <defs>
        <path id="SimHei-38" d="M 175 1375 
Q 175 1675 325 1962 
Q 475 2250 825 2425 
Q 525 2600 425 2812 
Q 325 3025 312 3300 
Q 300 3575 387 3775 
Q 475 3975 650 4150 
Q 825 4325 1037 4387 
Q 1250 4450 1500 4450 
Q 1750 4450 1950 4400 
Q 2150 4350 2375 4187 
Q 2600 4025 2700 3725 
Q 2800 3425 2687 3025 
Q 2575 2625 2100 2400 
Q 2525 2275 2700 2012 
Q 2875 1750 2875 1375 
Q 2875 1000 2762 775 
Q 2650 550 2512 400 
Q 2375 250 2137 162 
Q 1900 75 1537 75 
Q 1175 75 912 162 
Q 650 250 475 425 
Q 300 600 237 837 
Q 175 1075 175 1375 
z
M 687 1400 
Q 675 1100 787 875 
Q 900 650 1200 587 
Q 1500 525 1825 600 
Q 2150 675 2275 950 
Q 2400 1225 2362 1500 
Q 2325 1775 2050 1962 
Q 1775 2150 1450 2125 
Q 1125 2100 912 1900 
Q 700 1700 687 1400 
z
M 775 3350 
Q 775 3100 950 2875 
Q 1125 2650 1500 2650 
Q 1875 2650 2062 2875 
Q 2250 3100 2237 3412 
Q 2225 3725 2012 3875 
Q 1800 4025 1437 4000 
Q 1075 3975 925 3787 
Q 775 3600 775 3350 
z
" transform="scale(0.015625)"/>
       </defs>
       <use xlink:href="#SimHei-30"/>
       <use xlink:href="#SimHei-2e" transform="translate(50 0)"/>
       <use xlink:href="#SimHei-38" transform="translate(100 0)"/>
      </g>
     </g>
    </g>
    <g id="ytick_6">
     <g id="line2d_33">
      <path d="M 29.2 55.161222 
L 1054.48 55.161222 
" clip-path="url(#p39f4ad7325)" style="fill: none; stroke-dasharray: 2.96,1.28; stroke-dashoffset: 0; stroke: #21262d; stroke-opacity: 0.4; stroke-width: 0.8"/>
     </g>
     <g id="line2d_34">
      <g>
       <use xlink:href="#ma8129976a5" x="29.2" y="55.161222" style="fill: #c9d1d9; stroke: #c9d1d9; stroke-width: 0.8"/>
      </g>
     </g>
     <g id="text_17">
      <!-- 1.0 -->
      <g style="fill: #c9d1d9" transform="translate(7.2 58.598722) scale(0.1 -0.1)">
       <use xlink:href="#SimHei-31"/>
       <use xlink:href="#SimHei-2e" transform="translate(50 0)"/>
       <use xlink:href="#SimHei-30" transform="translate(100 0)"/>
      </g>
     </g>
    </g>
   </g>
   <g id="line2d_35">
    <path d="M 75.803636 527.062155 
L 78.839704 532.979403 
L 81.875771 529.376516 
L 90.983974 515.610515 
L 94.020041 509.408766 
L 97.056109 506.411677 
L 100.092176 502.397687 
L 103.128244 492.609324 
L 112.236447 480.066513 
L 115.272514 464.230758 
L 118.308582 459.208073 
L 121.344649 459.859257 
L 124.380717 461.915912 
L 133.488919 448.035647 
L 136.524987 450.323912 
L 139.561054 441.274308 
L 142.597122 432.715465 
L 145.633189 447.363833 
L 154.741392 441.472449 
L 157.777459 460.647018 
L 185.102067 428.68571 
L 188.138134 432.013933 
L 200.282405 426.903937 
L 203.318472 424.641894 
L 206.35454 422.806468 
L 209.390607 440.625415 
L 218.49881 443.24568 
L 221.534877 434.816013 
L 224.570945 428.991167 
L 227.607012 430.288724 
L 239.751282 411.483411 
L 242.78735 403.711247 
L 245.823417 397.331401 
L 248.859485 402.308017 
L 251.895552 407.048954 
L 261.003755 400.093242 
L 264.039822 400.987377 
L 267.07589 400.609047 
L 270.111957 392.453199 
L 273.148025 398.193174 
L 282.256227 393.975565 
L 285.292295 389.826205 
L 291.36443 395.781362 
L 294.400497 402.824069 
L 303.5087 397.84806 
L 306.544768 393.568758 
L 309.580835 397.856804 
L 312.616903 404.476408 
L 315.65297 420.340159 
L 324.761173 421.181547 
L 327.79724 419.4096 
L 330.833308 416.262552 
L 333.869375 415.622266 
L 336.905443 415.599624 
L 346.013645 408.74577 
L 349.049713 408.60213 
L 352.08578 410.85707 
L 355.121848 410.043824 
L 358.157915 411.750892 
L 367.266118 401.155484 
L 370.302185 395.856388 
L 373.338253 395.694349 
L 376.37432 397.838465 
L 379.410388 403.876028 
L 388.51859 399.815052 
L 391.554658 392.622863 
L 394.590725 394.267451 
L 397.626793 399.900322 
L 400.662861 397.068431 
L 409.771063 389.51554 
L 412.807131 379.44001 
L 415.843198 373.737881 
L 421.915333 379.589938 
L 431.023536 375.85393 
L 434.059603 370.24865 
L 437.095671 382.561598 
L 452.276008 371.869979 
L 455.312076 360.369549 
L 458.348143 344.388924 
L 461.384211 334.278877 
L 464.420278 329.961938 
L 473.528481 305.844252 
L 476.564548 301.497279 
L 479.600616 290.779041 
L 482.636683 278.869848 
L 485.672751 261.927087 
L 494.780954 263.356581 
L 497.817021 273.592131 
L 500.853089 260.504519 
L 503.889156 257.544449 
L 506.925224 257.189777 
L 516.033426 255.396539 
L 519.069494 257.028538 
L 522.105561 239.466331 
L 525.141629 242.920408 
L 528.177696 260.426416 
L 537.285899 261.945853 
L 540.321966 267.607182 
L 543.358034 279.228631 
L 546.394101 285.658403 
L 549.430169 295.544471 
L 558.538371 295.026637 
L 561.574439 296.995478 
L 564.610506 308.405009 
L 567.646574 302.563885 
L 570.682641 341.20651 
L 604.079384 320.160332 
L 607.115452 302.065226 
L 610.151519 290.225671 
L 622.295789 285.385276 
L 625.331857 298.130873 
L 628.367924 301.07238 
L 631.403992 297.435499 
L 634.440059 301.55276 
L 643.548262 298.893308 
L 646.584329 294.435958 
L 649.620397 295.385748 
L 652.656464 290.916195 
L 655.692532 296.442665 
L 664.800734 289.848448 
L 667.836802 294.897717 
L 670.872869 292.959669 
L 673.908937 294.309764 
L 676.945004 304.805962 
L 686.053207 311.197662 
L 689.089275 313.660694 
L 692.125342 313.838949 
L 695.16141 314.344284 
L 698.197477 321.708682 
L 707.30568 316.810897 
L 710.341747 320.514125 
L 713.377815 320.730624 
L 716.413882 327.663846 
L 719.44995 338.390777 
L 731.59422 337.611995 
L 734.630287 329.036895 
L 737.666355 325.212231 
L 749.810625 311.509826 
L 752.846692 301.527605 
L 758.918827 289.122668 
L 761.954895 288.319899 
L 771.063097 269.888233 
L 774.099165 265.636603 
L 777.135232 255.68749 
L 780.1713 254.340847 
L 783.207367 258.327198 
L 792.31557 246.22519 
L 795.351638 246.778261 
L 798.387705 240.272646 
L 801.423773 250.037368 
L 819.640178 220.713492 
L 822.676245 200.390778 
L 825.712313 190.661624 
L 834.820515 170.078025 
L 837.856583 159.430336 
L 840.89265 144.382112 
L 843.928718 139.366858 
L 846.964785 144.427471 
L 856.072988 131.506218 
L 859.109055 127.61156 
L 862.145123 121.093198 
L 865.18119 124.693561 
L 868.217258 123.040725 
L 877.32546 107.397602 
L 880.361528 102.439248 
L 883.397595 100.716593 
L 886.433663 96.114335 
L 889.469731 118.57043 
L 898.577933 123.835088 
L 901.614001 122.751077 
L 904.650068 115.978093 
L 907.686136 112.735394 
L 910.722203 127.393738 
L 919.830406 142.630932 
L 922.866473 144.553087 
L 925.902541 150.216367 
L 928.938608 149.711834 
L 931.974676 148.869561 
L 941.082878 132.167892 
L 944.118946 116.698925 
L 947.155013 97.854097 
L 950.191081 88.804994 
L 962.335351 75.345771 
L 965.371418 76.634195 
L 968.407486 69.226935 
L 971.443553 55.161222 
L 974.479621 65.606626 
L 983.587824 75.782944 
L 986.623891 60.618355 
L 989.659959 57.011759 
L 992.696026 63.141228 
L 995.732094 80.269071 
L 1004.840296 90.192018 
L 1007.876364 97.833553 
L 1007.876364 97.833553 
" clip-path="url(#p39f4ad7325)" style="fill: none; stroke: #008000; stroke-width: 2; stroke-linecap: square"/>
   </g>
   <g id="line2d_36">
    <path d="M 75.803636 475.059814 
L 78.839704 532.979403 
L 81.875771 471.945651 
L 90.983974 471.322879 
L 94.020041 488.138323 
L 97.056109 481.910302 
L 100.092176 405.929725 
L 103.128244 430.218733 
L 112.236447 425.236255 
L 115.272514 430.841505 
L 118.308582 410.289431 
L 121.344649 447.034176 
L 124.380717 440.806155 
L 133.488919 431.464276 
L 136.524987 429.595657 
L 139.561054 404.06141 
L 142.597122 384.131804 
L 145.633189 411.534975 
L 154.741392 363.579731 
L 157.777459 355.483395 
L 185.102067 308.774304 
L 188.138134 369.185285 
L 197.246337 386.000424 
L 200.282405 415.271604 
L 203.318472 377.281316 
L 206.35454 367.939437 
L 209.390607 428.350113 
L 218.49881 418.385767 
L 221.534877 374.79023 
L 224.570945 384.131804 
L 227.607012 372.921915 
L 239.751282 302.546283 
L 242.78735 317.493412 
L 245.823417 280.125895 
L 248.859485 304.414903 
L 251.895552 346.141821 
L 261.003755 341.782115 
L 264.039822 362.956959 
L 267.07589 359.22033 
L 270.111957 315.625097 
L 273.148025 321.852813 
L 282.256227 314.379249 
L 285.292295 341.782115 
L 288.328362 340.536876 
L 291.36443 311.265695 
L 294.400497 355.483395 
L 303.5087 374.79023 
L 306.544768 391.605368 
L 309.580835 382.886566 
L 312.616903 395.965075 
L 315.65297 465.71763 
L 324.761173 470.077031 
L 327.79724 445.165557 
L 330.833308 427.10457 
L 333.869375 429.595657 
L 336.905443 421.499321 
L 346.013645 389.114587 
L 352.08578 415.271604 
L 355.121848 407.79804 
L 358.157915 382.263794 
L 367.266118 361.088949 
L 370.302185 376.035773 
L 373.338253 379.772403 
L 376.37432 400.947248 
L 379.410388 384.75488 
L 388.51859 401.570324 
L 391.554658 430.841505 
L 394.590725 381.641022 
L 397.626793 400.947248 
L 400.662861 388.49151 
L 409.771063 362.334492 
L 412.807131 356.106471 
L 415.843198 345.519049 
L 418.879266 339.914104 
L 421.915333 328.703606 
L 431.023536 341.782115 
L 434.059603 335.554398 
L 437.095671 348.010136 
L 452.276008 291.336089 
L 455.312076 244.626693 
L 458.348143 255.836887 
L 461.384211 279.503123 
L 464.420278 265.801538 
L 473.528481 248.363323 
L 476.564548 258.95105 
L 479.600616 277.634504 
L 482.636683 272.029559 
L 485.672751 281.99421 
L 494.780954 280.71637 
L 497.817021 289.661857 
L 500.853089 285.828034 
L 503.889156 287.744793 
L 506.925224 302.441168 
L 516.033426 297.329504 
L 519.069494 298.607344 
L 522.105561 289.022937 
L 525.141629 261.547252 
L 528.177696 297.968424 
L 537.285899 368.893704 
L 540.321966 327.999788 
L 543.358034 300.524408 
L 546.394101 318.415382 
L 549.430169 337.584195 
L 558.538371 287.744793 
L 561.574439 283.911274 
L 564.610506 290.300777 
L 567.646574 287.744793 
L 570.682641 323.527045 
L 604.079384 294.77352 
L 607.115452 273.048723 
L 610.151519 282.63313 
L 613.187587 289.022937 
L 622.295789 280.077451 
L 625.331857 319.054302 
L 628.367924 362.503896 
L 631.403992 334.389596 
L 634.440059 326.083029 
L 643.548262 350.363505 
L 646.584329 315.859398 
L 649.620397 297.968424 
L 655.692532 319.693221 
L 664.800734 317.776462 
L 667.836802 339.501259 
L 670.872869 329.277628 
L 673.908937 369.532623 
L 676.945004 384.228693 
L 686.053207 477.517994 
L 689.089275 446.208486 
L 692.125342 404.675651 
L 695.16141 440.457903 
L 698.197477 427.678592 
L 707.30568 432.790256 
L 710.341747 456.432117 
L 713.377815 411.065458 
L 716.413882 439.818983 
L 719.44995 462.1827 
L 731.59422 467.294363 
L 734.630287 367.615559 
L 737.666355 386.784677 
L 740.702422 342.056938 
L 749.810625 335.667436 
L 752.846692 297.329504 
L 755.88276 308.830975 
L 758.918827 275.604707 
L 761.954895 280.077451 
L 771.063097 263.464317 
L 774.099165 256.435589 
L 777.135232 234.071872 
L 780.1713 240.461375 
L 783.207367 252.601766 
L 792.31557 252.601766 
L 795.351638 260.269413 
L 798.387705 227.682065 
L 801.423773 225.765305 
L 819.640178 184.87139 
L 822.676245 169.536096 
L 825.712313 186.14923 
L 834.820515 135.031988 
L 837.856583 136.949052 
L 840.89265 102.44464 
L 843.928718 151.006202 
L 846.964785 191.261197 
L 856.072988 207.874027 
L 859.109055 197.01178 
L 862.145123 195.733941 
L 865.18119 235.988632 
L 868.217258 201.484524 
L 877.32546 153.562186 
L 880.361528 131.198164 
L 883.397595 156.756785 
L 886.433663 156.756785 
L 889.469731 162.507673 
L 898.577933 197.6507 
L 901.614001 154.201106 
L 904.650068 135.670908 
L 907.686136 160.590609 
L 910.722203 213.624914 
L 919.830406 280.077451 
L 922.866473 224.487161 
L 925.902541 251.323926 
L 928.938608 272.409803 
L 931.974676 229.599129 
L 941.082878 165.063352 
L 944.118946 170.81424 
L 947.155013 140.143651 
L 950.191081 123.530517 
L 962.335351 55.161222 
L 965.371418 150.367282 
L 968.407486 134.393068 
L 971.443553 82.636907 
L 974.479621 172.730999 
L 983.587824 139.504731 
L 986.623891 101.1668 
L 989.659959 114.58503 
L 992.696026 209.152171 
L 995.732094 192.539037 
L 1004.840296 191.900117 
L 1007.876364 224.487161 
L 1007.876364 224.487161 
" clip-path="url(#p39f4ad7325)" style="fill: none; stroke: #ff0000; stroke-width: 2; stroke-linecap: square"/>
   </g>
   <g id="line2d_37">
    <path d="M 75.803636 491.819038 
L 78.839704 532.979403 
L 81.875771 481.678104 
L 90.983974 467.957982 
L 94.020041 488.239851 
L 97.056109 486.450258 
L 100.092176 437.535035 
L 103.128244 438.131661 
L 112.236447 442.307332 
L 115.272514 419.639243 
L 118.308582 404.726154 
L 121.344649 426.797617 
L 124.380717 433.955848 
L 133.488919 422.621946 
L 136.524987 441.710706 
L 139.561054 409.498308 
L 142.597122 419.042759 
L 145.633189 439.921113 
L 154.741392 417.253166 
L 157.777459 398.76089 
L 185.102067 387.426845 
L 188.138134 409.498308 
L 197.246337 410.691418 
L 200.282405 450.06219 
L 203.318472 421.428836 
L 206.35454 444.096925 
L 209.390607 491.819038 
L 218.49881 484.064181 
L 221.534877 458.413531 
L 224.570945 464.975279 
L 227.607012 463.782311 
L 239.751282 421.428836 
L 242.78735 423.21843 
L 245.823417 399.953857 
L 248.859485 419.042759 
L 251.895552 417.253166 
L 261.003755 407.112231 
L 264.039822 434.552474 
L 267.07589 427.394101 
L 270.111957 404.726154 
L 273.148025 407.112231 
L 282.256227 402.93656 
L 285.292295 407.708715 
L 288.328362 419.639243 
L 291.36443 392.795483 
L 294.400497 416.656682 
L 303.5087 414.867089 
L 306.544768 426.797617 
L 309.580835 442.903816 
L 312.616903 453.641234 
L 315.65297 519.855765 
L 324.761173 502.556457 
L 327.79724 482.274587 
L 330.833308 480.484994 
L 333.869375 479.292026 
L 336.905443 456.027454 
L 346.013645 447.079486 
L 349.049713 461.396092 
L 352.08578 478.098917 
L 355.121848 476.905807 
L 358.157915 451.851783 
L 367.266118 436.342068 
L 370.302185 445.289893 
L 373.338253 438.728145 
L 376.37432 459.010015 
L 379.410388 447.079486 
L 388.51859 461.992718 
L 391.554658 491.222555 
L 394.590725 467.957982 
L 397.626793 470.940543 
L 400.662861 457.220421 
L 409.771063 439.324629 
L 412.807131 442.307332 
L 415.843198 411.884385 
L 418.879266 395.181703 
L 421.915333 388.619813 
L 431.023536 394.585077 
L 434.059603 389.812922 
L 437.095671 391.602516 
L 452.276008 351.635261 
L 455.312076 324.195017 
L 458.348143 315.843534 
L 461.384211 299.737335 
L 464.420278 252.611706 
L 473.528481 193.555548 
L 476.564548 234.119429 
L 479.600616 233.522804 
L 482.636683 231.136726 
L 485.672751 233.522804 
L 494.780954 229.347133 
L 497.817021 246.646441 
L 500.853089 236.505507 
L 503.889156 213.240934 
L 506.925224 169.097866 
L 516.033426 204.292967 
L 519.069494 195.941625 
L 522.105561 195.345142 
L 525.141629 206.679186 
L 528.177696 228.154165 
L 537.285899 305.702599 
L 540.321966 244.260364 
L 543.358034 241.874287 
L 546.394101 272.893575 
L 549.430169 281.245059 
L 558.538371 232.329836 
L 561.574439 232.92632 
L 564.610506 230.540243 
L 567.646574 212.64445 
L 570.682641 240.681177 
L 604.079384 218.609714 
L 607.115452 185.204207 
L 610.151519 173.273679 
L 613.187587 152.991667 
L 622.295789 178.045833 
L 625.331857 254.997783 
L 628.367924 269.911014 
L 631.403992 251.418596 
L 634.440059 234.119429 
L 643.548262 243.663738 
L 646.584329 209.661747 
L 649.620397 207.27567 
L 652.656464 211.451341 
L 655.692532 239.488068 
L 664.800734 241.874287 
L 667.836802 285.420729 
L 670.872869 271.103982 
L 673.908937 312.860973 
L 676.945004 347.459448 
L 686.053207 434.552474 
L 689.089275 393.392109 
L 692.125342 355.214305 
L 695.16141 384.444142 
L 698.197477 355.810931 
L 707.30568 351.635261 
L 710.341747 383.251175 
L 713.377815 351.635261 
L 716.413882 383.847658 
L 719.44995 406.515605 
L 731.59422 388.023329 
L 734.630287 303.913005 
L 737.666355 312.264347 
L 740.702422 294.368554 
L 749.810625 288.40329 
L 752.846692 257.38386 
L 755.88276 266.928311 
L 758.918827 234.715913 
L 761.954895 211.451341 
L 771.063097 206.08256 
L 774.099165 207.872154 
L 777.135232 171.484085 
L 780.1713 198.924329 
L 783.207367 214.434044 
L 792.31557 209.065263 
L 795.351638 232.329836 
L 798.387705 204.889593 
L 801.423773 195.345142 
L 819.640178 149.41248 
L 822.676245 113.620895 
L 825.712313 108.252115 
L 834.820515 80.215388 
L 837.856583 89.163355 
L 840.89265 55.161222 
L 843.928718 92.742542 
L 846.964785 119.586159 
L 856.072988 109.445225 
L 859.109055 89.759839 
L 862.145123 87.373762 
L 865.18119 160.746524 
L 868.217258 117.200082 
L 877.32546 90.952949 
L 880.361528 117.796566 
L 883.397595 150.60559 
L 886.433663 129.13061 
L 889.469731 185.800691 
L 898.577933 198.327703 
L 901.614001 192.362438 
L 904.650068 182.817987 
L 907.686136 180.43191 
L 910.722203 200.117296 
L 919.830406 262.156157 
L 922.866473 212.64445 
L 925.902541 232.92632 
L 928.938608 245.453332 
L 931.974676 234.119429 
L 941.082878 155.377744 
L 944.118946 120.182785 
L 947.155013 109.445225 
L 950.191081 89.759839 
L 962.335351 65.302299 
L 965.371418 112.427928 
L 968.407486 89.759839 
L 971.443553 76.636201 
L 974.479621 132.709797 
L 983.587824 136.288984 
L 986.623891 82.004981 
L 989.659959 62.916079 
L 992.696026 113.620895 
L 995.732094 123.76183 
L 1004.840296 159.553557 
L 1007.876364 201.310406 
L 1007.876364 201.310406 
" clip-path="url(#p39f4ad7325)" style="fill: none; stroke: #0000ff; stroke-width: 2; stroke-linecap: square"/>
   </g>
   <g id="patch_3">
    <path d="M 29.2 556.870312 
L 29.2 31.270312 
" style="fill: none; stroke: #30363d; stroke-width: 0.8; stroke-linejoin: miter; stroke-linecap: square"/>
   </g>
   <g id="patch_4">
    <path d="M 1054.48 556.870312 
L 1054.48 31.270312 
" style="fill: none; stroke: #30363d; stroke-width: 0.8; stroke-linejoin: miter; stroke-linecap: square"/>
   </g>
   <g id="patch_5">
    <path d="M 29.2 556.870312 
L 1054.48 556.870312 
" style="fill: none; stroke: #30363d; stroke-width: 0.8; stroke-linejoin: miter; stroke-linecap: square"/>
   </g>
   <g id="patch_6">
    <path d="M 29.2 31.270312 
L 1054.48 31.270312 
" style="fill: none; stroke: #30363d; stroke-width: 0.8; stroke-linejoin: miter; stroke-linecap: square"/>
   </g>
   <g id="text_18">
    <!-- 2026-07-08 -->
    <g style="fill: #8b949e; opacity: 0.6" transform="translate(999.2272 550.489312) scale(0.09 -0.09)">
     <use xlink:href="#SimHei-32"/>
     <use xlink:href="#SimHei-30" transform="translate(50 0)"/>
     <use xlink:href="#SimHei-32" transform="translate(100 0)"/>
     <use xlink:href="#SimHei-36" transform="translate(150 0)"/>
     <use xlink:href="#SimHei-2d" transform="translate(200 0)"/>
     <use xlink:href="#SimHei-30" transform="translate(250 0)"/>
     <use xlink:href="#SimHei-37" transform="translate(300 0)"/>
     <use xlink:href="#SimHei-2d" transform="translate(350 0)"/>
     <use xlink:href="#SimHei-30" transform="translate(400 0)"/>
     <use xlink:href="#SimHei-38" transform="translate(450 0)"/>
    </g>
   </g>
   <g id="text_19">
    <!-- 融资余额与ETF对比 -->
    <g style="fill: #c9d1d9" transform="translate(478.09 19.270312) scale(0.15 -0.15)">
     <defs>
      <path id="SimHei-878d" d="M 5200 975 
Q 5400 1025 5650 1125 
Q 5775 775 5887 475 
Q 6000 175 6150 -350 
Q 5925 -425 5675 -500 
Q 5575 -175 5500 50 
Q 4825 -100 4362 -212 
Q 3900 -325 3400 -500 
Q 3325 -225 3200 0 
Q 3575 25 4350 175 
L 4350 1750 
L 3850 1750 
L 3850 1225 
L 3375 1225 
Q 3400 1975 3400 2675 
Q 3400 3400 3375 3925 
L 4350 3925 
Q 4350 4925 4325 5200 
L 4825 5200 
Q 4800 4875 4800 3925 
L 5775 3925 
Q 5750 3325 5750 2700 
Q 5750 2100 5775 1550 
L 5300 1550 
L 5300 1750 
L 4800 1750 
L 4800 250 
Q 5075 325 5400 400 
Q 5325 650 5200 975 
z
M 2025 -50 
Q 2425 -50 2475 -12 
Q 2525 25 2550 150 
L 2550 1975 
L 825 1975 
L 825 -500 
L 350 -500 
Q 375 100 375 475 
L 375 1400 
Q 375 1850 350 2350 
L 3000 2350 
Q 2975 1950 2975 1450 
L 2975 -25 
Q 2975 -325 2787 -387 
Q 2600 -450 2225 -525 
Q 2125 -225 2025 -50 
z
M 625 2725 
Q 650 3050 650 3350 
Q 650 3675 625 3975 
L 2850 3975 
Q 2825 3675 2825 3350 
Q 2825 3050 2850 2725 
L 625 2725 
z
M 3000 4450 
Q 2650 4475 2175 4475 
L 1200 4475 
Q 625 4475 250 4450 
L 250 4875 
Q 550 4850 1125 4850 
L 2175 4850 
Q 2700 4850 3000 4875 
L 3000 4450 
z
M 2325 1675 
Q 2175 1475 2000 1025 
L 2325 1025 
L 2325 675 
L 1850 675 
L 1850 -125 
L 1425 -125 
L 1425 675 
L 1025 675 
L 1025 1025 
L 1700 1025 
Q 1875 1500 1925 1825 
Q 2100 1700 2325 1675 
z
M 5300 2125 
L 5300 3550 
L 4800 3550 
L 4800 2125 
L 5300 2125 
z
M 4350 2125 
L 4350 3550 
L 3850 3550 
L 3850 2125 
L 4350 2125 
z
M 2350 3100 
L 2350 3600 
L 1100 3600 
L 1100 3100 
L 2350 3100 
z
M 1575 1275 
Q 1400 1225 1225 1150 
Q 1150 1425 1025 1675 
L 1325 1825 
Q 1425 1550 1575 1275 
z
" transform="scale(0.015625)"/>
      <path id="SimHei-8d44" d="M 5300 2150 
Q 5275 1825 5275 1450 
Q 5275 1075 5300 575 
L 4800 575 
L 4800 1725 
L 1700 1725 
L 1700 425 
L 1200 425 
Q 1225 1000 1225 1375 
Q 1225 1775 1200 2150 
L 5300 2150 
z
M 4225 4075 
Q 4050 3775 4200 3562 
Q 4350 3350 4612 3162 
Q 4875 2975 5262 2850 
Q 5650 2725 6125 2700 
Q 5925 2425 5825 2175 
Q 5200 2300 4712 2550 
Q 4225 2800 3900 3350 
Q 3675 2775 3250 2550 
Q 2825 2325 2325 2175 
Q 2125 2400 1925 2575 
Q 2975 2775 3300 3175 
Q 3625 3575 3650 4150 
L 4225 4075 
z
M 3125 4250 
Q 2825 3850 2550 3650 
Q 2375 3825 2175 3950 
Q 2475 4150 2737 4487 
Q 3000 4825 3150 5200 
Q 3375 5100 3700 5050 
Q 3575 4825 3400 4650 
L 5750 4650 
Q 5675 4500 5300 3675 
Q 5000 3750 4800 3775 
Q 4925 4050 5025 4250 
L 3125 4250 
z
M 3525 1375 
Q 3400 1100 3337 825 
Q 3275 550 3012 262 
Q 2750 -25 2250 -275 
Q 1750 -525 800 -675 
Q 725 -425 500 -200 
Q 1225 -175 1712 -12 
Q 2200 150 2450 350 
Q 2700 550 2812 837 
Q 2925 1125 2925 1450 
Q 3225 1400 3525 1375 
z
M 3825 700 
Q 4300 525 4750 350 
Q 5200 175 5825 -100 
Q 5675 -300 5550 -600 
Q 5075 -325 4612 -125 
Q 4150 75 3625 250 
Q 3750 450 3825 700 
z
M 2075 3325 
Q 1450 2750 875 2050 
Q 625 2325 475 2425 
Q 1275 3050 1725 3625 
Q 1850 3500 2075 3325 
z
M 1700 3975 
Q 1300 4275 625 4675 
Q 800 4850 925 5025 
Q 1150 4875 2000 4350 
Q 1850 4200 1700 3975 
z
" transform="scale(0.015625)"/>
      <path id="SimHei-4f59" d="M 3850 3050 
Q 4150 3050 4525 3075 
L 4525 2600 
Q 4225 2625 3850 2625 
L 3450 2625 
L 3450 1825 
L 4475 1825 
Q 5050 1825 5375 1850 
L 5375 1350 
Q 5025 1375 4500 1375 
L 3450 1375 
L 3450 -75 
Q 3450 -450 3187 -525 
Q 2925 -600 2550 -650 
Q 2525 -425 2350 -50 
Q 2825 -75 2887 -25 
Q 2950 25 2950 175 
L 2950 1375 
L 1800 1375 
Q 1225 1375 900 1350 
L 900 1850 
Q 1200 1825 1800 1825 
L 2950 1825 
L 2950 2625 
L 2550 2625 
Q 2325 2625 1825 2600 
L 1825 3075 
Q 2225 3050 2525 3050 
L 3850 3050 
z
M 3400 4850 
Q 4450 3575 6150 3300 
Q 5925 3150 5750 2700 
Q 4150 3250 3100 4550 
Q 2375 3350 800 2400 
Q 450 2725 325 2800 
Q 1475 3325 2112 4100 
Q 2750 4875 2900 5275 
Q 3150 5175 3550 5050 
L 3400 4850 
z
M 2325 700 
Q 2075 500 1625 112 
Q 1175 -275 925 -450 
Q 725 -225 525 -50 
Q 1600 675 1900 1075 
Q 2100 875 2325 700 
z
M 4400 1175 
Q 4750 850 5025 550 
L 5600 0 
Q 5375 -175 5125 -400 
Q 4875 25 4050 850 
Q 4200 950 4400 1175 
z
" transform="scale(0.015625)"/>
      <path id="SimHei-989d" d="M 1925 3700 
Q 1725 3550 1550 3350 
L 2950 3350 
Q 2875 3150 2700 2875 
Q 2525 2600 2300 2300 
Q 2500 2200 2712 2075 
Q 2925 1950 3275 1725 
Q 3125 1575 2950 1325 
Q 2700 1525 2475 1662 
Q 2250 1800 1950 1950 
Q 1575 1650 1150 1375 
L 2800 1375 
Q 2775 950 2775 500 
Q 2775 50 2800 -450 
L 2325 -450 
L 2325 -50 
L 1325 -50 
L 1325 -575 
L 875 -575 
Q 900 -75 900 275 
L 900 1175 
Q 675 1075 550 1000 
Q 400 1225 225 1400 
Q 625 1550 975 1762 
Q 1325 1975 1550 2200 
Q 1300 2350 1075 2475 
Q 1175 2625 1350 2800 
Q 1625 2650 1925 2500 
Q 2150 2750 2300 3000 
L 1300 3000 
Q 1200 2875 1025 2687 
Q 850 2500 650 2275 
Q 475 2425 250 2575 
Q 650 2875 937 3237 
Q 1225 3600 1375 3925 
Q 1650 3800 1925 3700 
z
M 4150 4400 
Q 3775 4400 3375 4375 
L 3375 4825 
Q 3750 4800 4200 4800 
L 5300 4800 
Q 5600 4800 6000 4825 
L 6000 4375 
Q 5625 4400 5300 4400 
L 4950 4400 
Q 4850 3975 4725 3525 
L 5750 3525 
Q 5725 3125 5725 2775 
L 5725 1625 
Q 5725 1300 5750 825 
L 5300 825 
L 5300 3175 
L 3925 3175 
L 3925 800 
L 3450 800 
Q 3475 1275 3475 1650 
L 3475 2800 
Q 3475 3175 3450 3525 
L 4300 3525 
Q 4400 4025 4450 4400 
L 4150 4400 
z
M 2050 5100 
Q 2100 4825 2200 4475 
L 3225 4475 
Q 3200 4275 3200 4075 
Q 3200 3875 3225 3675 
L 2775 3675 
L 2775 4100 
L 875 4100 
L 875 3500 
L 400 3500 
Q 425 3775 425 4000 
Q 425 4250 400 4475 
L 1650 4475 
Q 1550 4750 1475 5000 
Q 1800 5050 2050 5100 
z
M 4925 2725 
Q 4850 2425 4837 2025 
Q 4825 1625 4712 1175 
Q 4600 725 4262 250 
Q 3925 -225 3250 -675 
Q 3050 -425 2850 -250 
Q 3375 -25 3687 262 
Q 4000 550 4162 937 
Q 4325 1325 4350 1750 
Q 4375 2175 4375 2775 
Q 4575 2750 4925 2725 
z
M 2325 325 
L 2325 1025 
L 1325 1025 
L 1325 325 
L 2325 325 
z
M 5075 800 
Q 5300 575 5487 400 
Q 5675 225 6025 -100 
Q 5800 -275 5600 -500 
Q 5450 -275 5275 -87 
Q 5100 100 4675 400 
Q 4875 575 5075 800 
z
" transform="scale(0.015625)"/>
      <path id="SimHei-4e0e" d="M 5350 100 
Q 5275 -300 4925 -425 
Q 4575 -550 3900 -600 
Q 3875 -375 3650 -25 
Q 4375 -50 4575 0 
Q 4775 50 4837 225 
Q 4900 400 5100 2350 
L 1125 2350 
Q 1450 4350 1475 5200 
Q 1800 5150 2075 5125 
Q 1975 4825 1900 4275 
L 4900 4275 
Q 5400 4275 5800 4300 
L 5800 3825 
Q 5400 3850 4950 3850 
L 1850 3850 
L 1700 2750 
L 5675 2750 
Q 5625 2450 5575 2050 
L 5350 100 
z
M 3675 1350 
Q 4125 1350 4500 1375 
L 4500 875 
Q 4125 900 3850 900 
L 1450 900 
Q 1000 900 500 875 
L 500 1375 
Q 1000 1350 1450 1350 
L 3675 1350 
z
" transform="scale(0.015625)"/>
      <path id="SimHei-45" d="M 2900 125 
L 350 125 
L 350 4400 
L 2775 4400 
L 2775 3925 
L 925 3925 
L 925 2600 
L 2625 2600 
L 2625 2125 
L 925 2125 
L 925 600 
L 2900 600 
L 2900 125 
z
" transform="scale(0.015625)"/>
      <path id="SimHei-54" d="M 2850 3925 
L 1850 3925 
L 1850 125 
L 1275 125 
L 1275 3925 
L 275 3925 
L 275 4400 
L 2850 4400 
L 2850 3925 
z
" transform="scale(0.015625)"/>
      <path id="SimHei-46" d="M 2925 3925 
L 875 3925 
L 875 2525 
L 2425 2525 
L 2425 2050 
L 875 2050 
L 875 125 
L 300 125 
L 300 4400 
L 2925 4400 
L 2925 3925 
z
" transform="scale(0.015625)"/>
      <path id="SimHei-5bf9" d="M 525 4250 
Q 900 4225 1400 4225 
L 2825 4225 
Q 2575 2625 2200 1750 
Q 2825 875 3125 400 
Q 2950 275 2725 75 
Q 2200 975 1950 1300 
Q 1650 775 1350 425 
Q 1050 75 600 -350 
Q 425 -125 200 -25 
Q 625 275 975 675 
Q 1325 1075 1650 1700 
Q 1050 2425 550 2900 
Q 700 3025 900 3225 
Q 1625 2425 1875 2150 
Q 2200 3050 2300 3825 
L 1400 3825 
Q 900 3825 525 3800 
L 525 4250 
z
M 2925 3700 
Q 3525 3675 3750 3675 
L 4825 3675 
L 4825 4425 
Q 4825 4750 4775 5125 
L 5350 5125 
Q 5325 4825 5325 4375 
L 5325 3675 
Q 5575 3675 6150 3700 
L 6150 3250 
Q 5575 3275 5325 3275 
L 5325 125 
Q 5350 -350 5012 -475 
Q 4675 -600 4250 -650 
Q 4175 -350 4025 -100 
Q 4575 -100 4712 -37 
Q 4850 25 4825 325 
L 4825 3275 
L 3775 3275 
Q 3550 3275 2925 3225 
L 2925 3700 
z
M 3450 2725 
Q 3875 1975 4175 1325 
Q 3850 1200 3700 1075 
Q 3475 1750 3050 2475 
Q 3225 2550 3450 2725 
z
" transform="scale(0.015625)"/>
      <path id="SimHei-6bd4" d="M 3775 5100 
Q 3750 4575 3750 4100 
L 3750 3050 
Q 4925 3600 5475 4175 
Q 5675 3900 5900 3675 
Q 5600 3500 5037 3187 
Q 4475 2875 3750 2550 
L 3750 450 
Q 3750 100 4050 100 
L 5000 100 
Q 5175 100 5262 250 
Q 5350 400 5450 900 
Q 5650 775 6025 675 
Q 5850 0 5650 -175 
Q 5450 -350 5225 -350 
L 3900 -350 
Q 3250 -350 3250 275 
L 3250 4000 
Q 3250 4550 3225 5100 
L 3775 5100 
z
M 1275 4975 
Q 1250 4575 1250 4000 
L 1250 3150 
L 1850 3150 
Q 2325 3150 2875 3175 
L 2875 2650 
Q 2325 2675 1850 2675 
L 1250 2675 
L 1250 475 
Q 1650 650 1962 812 
Q 2275 975 2850 1275 
Q 2900 950 2950 750 
Q 2375 475 1762 175 
Q 1150 -125 925 -325 
Q 750 -100 575 200 
Q 700 300 750 600 
L 750 3950 
Q 750 4550 725 4975 
L 1275 4975 
z
" transform="scale(0.015625)"/>
     </defs>
     <use xlink:href="#SimHei-878d"/>
     <use xlink:href="#SimHei-8d44" transform="translate(100 0)"/>
     <use xlink:href="#SimHei-4f59" transform="translate(200 0)"/>
     <use xlink:href="#SimHei-989d" transform="translate(300 0)"/>
     <use xlink:href="#SimHei-4e0e" transform="translate(400 0)"/>
     <use xlink:href="#SimHei-45" transform="translate(500 0)"/>
     <use xlink:href="#SimHei-54" transform="translate(550 0)"/>
     <use xlink:href="#SimHei-46" transform="translate(600 0)"/>
     <use xlink:href="#SimHei-5bf9" transform="translate(650 0)"/>
     <use xlink:href="#SimHei-6bd4" transform="translate(750 0)"/>
    </g>
   </g>
   <g id="legend_1">
    <g id="patch_7">
     <path d="M 36.2 80.067187 
L 108.2 80.067187 
Q 110.2 80.067187 110.2 78.067187 
L 110.2 38.270312 
Q 110.2 36.270312 108.2 36.270312 
L 36.2 36.270312 
Q 34.2 36.270312 34.2 38.270312 
L 34.2 78.067187 
Q 34.2 80.067187 36.2 80.067187 
z
" style="fill: #161b22; opacity: 0.9; stroke: #30363d; stroke-linejoin: miter"/>
    </g>
    <g id="line2d_38">
     <path d="M 38.2 44.817187 
L 48.2 44.817187 
L 58.2 44.817187 
" style="fill: none; stroke: #008000; stroke-width: 2; stroke-linecap: square"/>
    </g>
    <g id="text_20">
     <!-- 融资余额 -->
     <g style="fill: #c9d1d9" transform="translate(66.2 48.317187) scale(0.1 -0.1)">
      <use xlink:href="#SimHei-878d"/>
      <use xlink:href="#SimHei-8d44" transform="translate(100 0)"/>
      <use xlink:href="#SimHei-4f59" transform="translate(200 0)"/>
      <use xlink:href="#SimHei-989d" transform="translate(300 0)"/>
     </g>
    </g>
    <g id="line2d_39">
     <path d="M 38.2 58.067187 
L 48.2 58.067187 
L 58.2 58.067187 
" style="fill: none; stroke: #ff0000; stroke-width: 2; stroke-linecap: square"/>
    </g>
    <g id="text_21">
     <!-- 300ETF -->
     <g style="fill: #c9d1d9" transform="translate(66.2 61.567187) scale(0.1 -0.1)">
      <use xlink:href="#SimHei-33"/>
      <use xlink:href="#SimHei-30" transform="translate(50 0)"/>
      <use xlink:href="#SimHei-30" transform="translate(100 0)"/>
      <use xlink:href="#SimHei-45" transform="translate(150 0)"/>
      <use xlink:href="#SimHei-54" transform="translate(200 0)"/>
      <use xlink:href="#SimHei-46" transform="translate(250 0)"/>
     </g>
    </g>
    <g id="line2d_40">
     <path d="M 38.2 71.317187 
L 48.2 71.317187 
L 58.2 71.317187 
" style="fill: none; stroke: #0000ff; stroke-width: 2; stroke-linecap: square"/>
    </g>
    <g id="text_22">
     <!-- 1000ETF -->
     <g style="fill: #c9d1d9" transform="translate(66.2 74.817187) scale(0.1 -0.1)">
      <use xlink:href="#SimHei-31"/>
      <use xlink:href="#SimHei-30" transform="translate(50 0)"/>
      <use xlink:href="#SimHei-30" transform="translate(100 0)"/>
      <use xlink:href="#SimHei-30" transform="translate(150 0)"/>
      <use xlink:href="#SimHei-45" transform="translate(200 0)"/>
      <use xlink:href="#SimHei-54" transform="translate(250 0)"/>
      <use xlink:href="#SimHei-46" transform="translate(300 0)"/>
     </g>
    </g>
   </g>
  </g>
 </g>
 <defs>
  <clipPath id="p39f4ad7325">
   <rect x="29.2" y="31.270312" width="1025.28" height="525.6"/>
  </clipPath>
 </defs>
</svg>
