<?xml version="1.0" encoding="utf-8" standalone="no"?>
<!DOCTYPE svg PUBLIC "-//W3C//DTD SVG 1.1//EN"
  "http://www.w3.org/Graphics/SVG/1.1/DTD/svg11.dtd">
<svg xmlns:xlink="http://www.w3.org/1999/xlink" width="1061.68pt" height="595.3138pt" viewBox="0 0 1061.68 595.3138" xmlns="http://www.w3.org/2000/svg" version="1.1">
 <metadata>
  <rdf:RDF xmlns:dc="http://purl.org/dc/elements/1.1/" xmlns:cc="http://creativecommons.org/ns#" xmlns:rdf="http://www.w3.org/1999/02/22-rdf-syntax-ns#">
   <cc:Work>
    <dc:type rdf:resource="http://purl.org/dc/dcmitype/StillImage"/>
    <dc:date>2026-07-24T10:24:53.439543</dc:date>
    <dc:format>image/svg+xml</dc:format>
    <dc:creator>
     <cc:Agent>
      <dc:title>Matplotlib v3.10.9, https://matplotlib.org/</dc:title>
     </cc:Agent>
    </dc:creator>
   </cc:Work>
  </rdf:RDF>
 </metadata>
 <defs>
  <style type="text/css">*{stroke-linejoin: round; stroke-linecap: butt}</style>
 </defs>
 <g id="figure_1">
  <g id="patch_1">
   <path d="M 0 595.3138 
L 1061.68 595.3138 
L 1061.68 0 
L 0 0 
z
" style="fill: #0d1117"/>
  </g>
  <g id="axes_1">
   <g id="patch_2">
    <path d="M 29.2 556.577344 
L 1054.48 556.577344 
L 1054.48 30.977344 
L 29.2 30.977344 
z
" style="fill: #161b22"/>
   </g>
   <g id="matplotlib.axis_1">
    <g id="xtick_1">
     <g id="line2d_1">
      <path d="M 112.118158 556.577344 
L 112.118158 30.977344 
" clip-path="url(#pf03df6689f)" style="fill: none; stroke-dasharray: 2.96,1.28; stroke-dashoffset: 0; stroke: #21262d; stroke-opacity: 0.4; stroke-width: 0.8"/>
     </g>
     <g id="line2d_2">
      <defs>
       <path id="m645def3b15" d="M 0 0 
L 0 3.5 
" style="stroke: #c9d1d9; stroke-width: 0.8"/>
      </defs>
      <g>
       <use xlink:href="#m645def3b15" x="112.118158" y="556.577344" style="fill: #c9d1d9; stroke: #c9d1d9; stroke-width: 0.8"/>
      </g>
     </g>
     <g id="text_1">
      <!-- 2025-10 -->
      <g style="fill: #c9d1d9" transform="translate(81.182269 587.031268) rotate(-30) scale(0.1 -0.1)">
       <defs>
        <path id="SimHei-32" d="M 300 250 
Q 325 625 650 925 
Q 975 1225 1475 1862 
Q 1975 2500 2125 2850 
Q 2275 3200 2237 3450 
Q 2200 3700 2000 3862 
Q 1800 4025 1537 4000 
Q 1275 3975 1037 3800 
Q 800 3625 675 3275 
L 200 3350 
Q 400 3925 712 4187 
Q 1025 4450 1450 4475 
Q 1700 4500 1900 4462 
Q 2100 4425 2312 4287 
Q 2525 4150 2662 3875 
Q 2800 3600 2762 3212 
Q 2725 2825 2375 2287 
Q 2025 1750 1025 600 
L 2825 600 
L 2825 150 
L 300 150 
L 300 250 
z
" transform="scale(0.015625)"/>
        <path id="SimHei-30" d="M 225 2537 
Q 250 3200 412 3587 
Q 575 3975 875 4225 
Q 1175 4475 1612 4475 
Q 2050 4475 2375 4112 
Q 2700 3750 2800 3200 
Q 2900 2650 2862 1937 
Q 2825 1225 2612 775 
Q 2400 325 1975 150 
Q 1550 -25 1125 187 
Q 700 400 525 750 
Q 350 1100 275 1487 
Q 200 1875 225 2537 
z
M 750 2687 
Q 675 2000 800 1462 
Q 925 925 1212 700 
Q 1500 475 1800 612 
Q 2100 750 2237 1162 
Q 2375 1575 2375 2062 
Q 2375 2550 2337 2950 
Q 2300 3350 2112 3675 
Q 1925 4000 1612 4012 
Q 1300 4025 1062 3700 
Q 825 3375 750 2687 
z
" transform="scale(0.015625)"/>
        <path id="SimHei-35" d="M 550 1325 
Q 725 650 1150 575 
Q 1575 500 1837 662 
Q 2100 825 2212 1087 
Q 2325 1350 2312 1675 
Q 2300 2000 2137 2225 
Q 1975 2450 1725 2525 
Q 1475 2600 1162 2525 
Q 850 2450 650 2175 
L 225 2225 
Q 275 2375 700 4375 
L 2675 4375 
L 2675 3925 
L 1075 3925 
Q 950 3250 825 2850 
Q 1200 3025 1525 3012 
Q 1850 3000 2150 2862 
Q 2450 2725 2587 2487 
Q 2725 2250 2787 2012 
Q 2850 1775 2837 1500 
Q 2825 1225 2725 937 
Q 2625 650 2425 462 
Q 2225 275 1937 162 
Q 1650 50 1275 75 
Q 900 100 562 350 
Q 225 600 100 1200 
L 550 1325 
z
" transform="scale(0.015625)"/>
        <path id="SimHei-2d" d="M 2975 2125 
L 125 2125 
L 125 2525 
L 2975 2525 
L 2975 2125 
z
" transform="scale(0.015625)"/>
        <path id="SimHei-31" d="M 1400 3600 
Q 1075 3275 575 2975 
L 575 3450 
Q 1200 3875 1600 4450 
L 1900 4450 
L 1900 150 
L 1400 150 
L 1400 3600 
z
" transform="scale(0.015625)"/>
       </defs>
       <use xlink:href="#SimHei-32"/>
       <use xlink:href="#SimHei-30" transform="translate(50 0)"/>
       <use xlink:href="#SimHei-32" transform="translate(100 0)"/>
       <use xlink:href="#SimHei-35" transform="translate(150 0)"/>
       <use xlink:href="#SimHei-2d" transform="translate(200 0)"/>
       <use xlink:href="#SimHei-31" transform="translate(250 0)"/>
       <use xlink:href="#SimHei-30" transform="translate(300 0)"/>
      </g>
     </g>
    </g>
    <g id="xtick_2">
     <g id="line2d_3">
      <path d="M 205.930673 556.577344 
L 205.930673 30.977344 
" clip-path="url(#pf03df6689f)" style="fill: none; stroke-dasharray: 2.96,1.28; stroke-dashoffset: 0; stroke: #21262d; stroke-opacity: 0.4; stroke-width: 0.8"/>
     </g>
     <g id="line2d_4">
      <g>
       <use xlink:href="#m645def3b15" x="205.930673" y="556.577344" style="fill: #c9d1d9; stroke: #c9d1d9; stroke-width: 0.8"/>
      </g>
     </g>
     <g id="text_2">
      <!-- 2025-11 -->
      <g style="fill: #c9d1d9" transform="translate(174.994784 587.031268) rotate(-30) scale(0.1 -0.1)">
       <use xlink:href="#SimHei-32"/>
       <use xlink:href="#SimHei-30" transform="translate(50 0)"/>
       <use xlink:href="#SimHei-32" transform="translate(100 0)"/>
       <use xlink:href="#SimHei-35" transform="translate(150 0)"/>
       <use xlink:href="#SimHei-2d" transform="translate(200 0)"/>
       <use xlink:href="#SimHei-31" transform="translate(250 0)"/>
       <use xlink:href="#SimHei-31" transform="translate(300 0)"/>
      </g>
     </g>
    </g>
    <g id="xtick_3">
     <g id="line2d_5">
      <path d="M 296.716978 556.577344 
L 296.716978 30.977344 
" clip-path="url(#pf03df6689f)" style="fill: none; stroke-dasharray: 2.96,1.28; stroke-dashoffset: 0; stroke: #21262d; stroke-opacity: 0.4; stroke-width: 0.8"/>
     </g>
     <g id="line2d_6">
      <g>
       <use xlink:href="#m645def3b15" x="296.716978" y="556.577344" style="fill: #c9d1d9; stroke: #c9d1d9; stroke-width: 0.8"/>
      </g>
     </g>
     <g id="text_3">
      <!-- 2025-12 -->
      <g style="fill: #c9d1d9" transform="translate(265.781088 587.031268) rotate(-30) scale(0.1 -0.1)">
       <use xlink:href="#SimHei-32"/>
       <use xlink:href="#SimHei-30" transform="translate(50 0)"/>
       <use xlink:href="#SimHei-32" transform="translate(100 0)"/>
       <use xlink:href="#SimHei-35" transform="translate(150 0)"/>
       <use xlink:href="#SimHei-2d" transform="translate(200 0)"/>
       <use xlink:href="#SimHei-31" transform="translate(250 0)"/>
       <use xlink:href="#SimHei-32" transform="translate(300 0)"/>
      </g>
     </g>
    </g>
    <g id="xtick_4">
     <g id="line2d_7">
      <path d="M 390.529492 556.577344 
L 390.529492 30.977344 
" clip-path="url(#pf03df6689f)" style="fill: none; stroke-dasharray: 2.96,1.28; stroke-dashoffset: 0; stroke: #21262d; stroke-opacity: 0.4; stroke-width: 0.8"/>
     </g>
     <g id="line2d_8">
      <g>
       <use xlink:href="#m645def3b15" x="390.529492" y="556.577344" style="fill: #c9d1d9; stroke: #c9d1d9; stroke-width: 0.8"/>
      </g>
     </g>
     <g id="text_4">
      <!-- 2026-01 -->
      <g style="fill: #c9d1d9" transform="translate(359.593603 587.031268) rotate(-30) scale(0.1 -0.1)">
       <defs>
        <path id="SimHei-36" d="M 250 1612 
Q 275 1975 387 2225 
Q 500 2475 725 2850 
L 1750 4450 
L 2325 4450 
L 1275 2800 
Q 1950 2975 2350 2750 
Q 2750 2525 2887 2237 
Q 3025 1950 3037 1612 
Q 3050 1275 2937 950 
Q 2825 625 2537 362 
Q 2250 100 1737 75 
Q 1225 50 862 262 
Q 500 475 362 862 
Q 225 1250 250 1612 
z
M 1025 787 
Q 1250 550 1625 525 
Q 2000 500 2250 775 
Q 2500 1050 2500 1575 
Q 2500 2100 2187 2300 
Q 1875 2500 1487 2450 
Q 1100 2400 925 2075 
Q 750 1750 775 1387 
Q 800 1025 1025 787 
z
" transform="scale(0.015625)"/>
       </defs>
       <use xlink:href="#SimHei-32"/>
       <use xlink:href="#SimHei-30" transform="translate(50 0)"/>
       <use xlink:href="#SimHei-32" transform="translate(100 0)"/>
       <use xlink:href="#SimHei-36" transform="translate(150 0)"/>
       <use xlink:href="#SimHei-2d" transform="translate(200 0)"/>
       <use xlink:href="#SimHei-30" transform="translate(250 0)"/>
       <use xlink:href="#SimHei-31" transform="translate(300 0)"/>
      </g>
     </g>
    </g>
    <g id="xtick_5">
     <g id="line2d_9">
      <path d="M 484.342007 556.577344 
L 484.342007 30.977344 
" clip-path="url(#pf03df6689f)" style="fill: none; stroke-dasharray: 2.96,1.28; stroke-dashoffset: 0; stroke: #21262d; stroke-opacity: 0.4; stroke-width: 0.8"/>
     </g>
     <g id="line2d_10">
      <g>
       <use xlink:href="#m645def3b15" x="484.342007" y="556.577344" style="fill: #c9d1d9; stroke: #c9d1d9; stroke-width: 0.8"/>
      </g>
     </g>
     <g id="text_5">
      <!-- 2026-02 -->
      <g style="fill: #c9d1d9" transform="translate(453.406118 587.031268) rotate(-30) scale(0.1 -0.1)">
       <use xlink:href="#SimHei-32"/>
       <use xlink:href="#SimHei-30" transform="translate(50 0)"/>
       <use xlink:href="#SimHei-32" transform="translate(100 0)"/>
       <use xlink:href="#SimHei-36" transform="translate(150 0)"/>
       <use xlink:href="#SimHei-2d" transform="translate(200 0)"/>
       <use xlink:href="#SimHei-30" transform="translate(250 0)"/>
       <use xlink:href="#SimHei-32" transform="translate(300 0)"/>
      </g>
     </g>
    </g>
    <g id="xtick_6">
     <g id="line2d_11">
      <path d="M 569.075891 556.577344 
L 569.075891 30.977344 
" clip-path="url(#pf03df6689f)" style="fill: none; stroke-dasharray: 2.96,1.28; stroke-dashoffset: 0; stroke: #21262d; stroke-opacity: 0.4; stroke-width: 0.8"/>
     </g>
     <g id="line2d_12">
      <g>
       <use xlink:href="#m645def3b15" x="569.075891" y="556.577344" style="fill: #c9d1d9; stroke: #c9d1d9; stroke-width: 0.8"/>
      </g>
     </g>
     <g id="text_6">
      <!-- 2026-03 -->
      <g style="fill: #c9d1d9" transform="translate(538.140002 587.031268) rotate(-30) scale(0.1 -0.1)">
       <defs>
        <path id="SimHei-33" d="M 250 1225 
L 700 1300 
Q 800 975 1025 762 
Q 1250 550 1587 562 
Q 1925 575 2125 837 
Q 2325 1100 2300 1437 
Q 2275 1775 2037 1962 
Q 1800 2150 1275 2225 
L 1275 2550 
Q 1800 2600 2037 2825 
Q 2275 3050 2250 3412 
Q 2225 3775 1925 3937 
Q 1625 4100 1287 3975 
Q 950 3850 750 3275 
L 300 3350 
Q 450 3800 712 4100 
Q 975 4400 1425 4450 
Q 1875 4500 2212 4337 
Q 2550 4175 2687 3837 
Q 2825 3500 2725 3100 
Q 2625 2700 2150 2400 
Q 2500 2250 2687 1950 
Q 2875 1650 2812 1162 
Q 2750 675 2375 375 
Q 2000 75 1525 87 
Q 1050 100 700 387 
Q 350 675 250 1225 
z
" transform="scale(0.015625)"/>
       </defs>
       <use xlink:href="#SimHei-32"/>
       <use xlink:href="#SimHei-30" transform="translate(50 0)"/>
       <use xlink:href="#SimHei-32" transform="translate(100 0)"/>
       <use xlink:href="#SimHei-36" transform="translate(150 0)"/>
       <use xlink:href="#SimHei-2d" transform="translate(200 0)"/>
       <use xlink:href="#SimHei-30" transform="translate(250 0)"/>
       <use xlink:href="#SimHei-33" transform="translate(300 0)"/>
      </g>
     </g>
    </g>
    <g id="xtick_7">
     <g id="line2d_13">
      <path d="M 662.888406 556.577344 
L 662.888406 30.977344 
" clip-path="url(#pf03df6689f)" style="fill: none; stroke-dasharray: 2.96,1.28; stroke-dashoffset: 0; stroke: #21262d; stroke-opacity: 0.4; stroke-width: 0.8"/>
     </g>
     <g id="line2d_14">
      <g>
       <use xlink:href="#m645def3b15" x="662.888406" y="556.577344" style="fill: #c9d1d9; stroke: #c9d1d9; stroke-width: 0.8"/>
      </g>
     </g>
     <g id="text_7">
      <!-- 2026-04 -->
      <g style="fill: #c9d1d9" transform="translate(631.952517 587.031268) rotate(-30) scale(0.1 -0.1)">
       <defs>
        <path id="SimHei-34" d="M 2000 1100 
L 75 1100 
L 75 1525 
L 2100 4450 
L 2475 4450 
L 2475 1525 
L 3075 1525 
L 3075 1100 
L 2475 1100 
L 2475 150 
L 2000 150 
L 2000 1100 
z
M 2000 1525 
L 2000 3500 
L 600 1525 
L 2000 1525 
z
" transform="scale(0.015625)"/>
       </defs>
       <use xlink:href="#SimHei-32"/>
       <use xlink:href="#SimHei-30" transform="translate(50 0)"/>
       <use xlink:href="#SimHei-32" transform="translate(100 0)"/>
       <use xlink:href="#SimHei-36" transform="translate(150 0)"/>
       <use xlink:href="#SimHei-2d" transform="translate(200 0)"/>
       <use xlink:href="#SimHei-30" transform="translate(250 0)"/>
       <use xlink:href="#SimHei-34" transform="translate(300 0)"/>
      </g>
     </g>
    </g>
    <g id="xtick_8">
     <g id="line2d_15">
      <path d="M 753.674711 556.577344 
L 753.674711 30.977344 
" clip-path="url(#pf03df6689f)" style="fill: none; stroke-dasharray: 2.96,1.28; stroke-dashoffset: 0; stroke: #21262d; stroke-opacity: 0.4; stroke-width: 0.8"/>
     </g>
     <g id="line2d_16">
      <g>
       <use xlink:href="#m645def3b15" x="753.674711" y="556.577344" style="fill: #c9d1d9; stroke: #c9d1d9; stroke-width: 0.8"/>
      </g>
     </g>
     <g id="text_8">
      <!-- 2026-05 -->
      <g style="fill: #c9d1d9" transform="translate(722.738822 587.031268) rotate(-30) scale(0.1 -0.1)">
       <use xlink:href="#SimHei-32"/>
       <use xlink:href="#SimHei-30" transform="translate(50 0)"/>
       <use xlink:href="#SimHei-32" transform="translate(100 0)"/>
       <use xlink:href="#SimHei-36" transform="translate(150 0)"/>
       <use xlink:href="#SimHei-2d" transform="translate(200 0)"/>
       <use xlink:href="#SimHei-30" transform="translate(250 0)"/>
       <use xlink:href="#SimHei-35" transform="translate(300 0)"/>
      </g>
     </g>
    </g>
    <g id="xtick_9">
     <g id="line2d_17">
      <path d="M 847.487226 556.577344 
L 847.487226 30.977344 
" clip-path="url(#pf03df6689f)" style="fill: none; stroke-dasharray: 2.96,1.28; stroke-dashoffset: 0; stroke: #21262d; stroke-opacity: 0.4; stroke-width: 0.8"/>
     </g>
     <g id="line2d_18">
      <g>
       <use xlink:href="#m645def3b15" x="847.487226" y="556.577344" style="fill: #c9d1d9; stroke: #c9d1d9; stroke-width: 0.8"/>
      </g>
     </g>
     <g id="text_9">
      <!-- 2026-06 -->
      <g style="fill: #c9d1d9" transform="translate(816.551336 587.031268) rotate(-30) scale(0.1 -0.1)">
       <use xlink:href="#SimHei-32"/>
       <use xlink:href="#SimHei-30" transform="translate(50 0)"/>
       <use xlink:href="#SimHei-32" transform="translate(100 0)"/>
       <use xlink:href="#SimHei-36" transform="translate(150 0)"/>
       <use xlink:href="#SimHei-2d" transform="translate(200 0)"/>
       <use xlink:href="#SimHei-30" transform="translate(250 0)"/>
       <use xlink:href="#SimHei-36" transform="translate(300 0)"/>
      </g>
     </g>
    </g>
    <g id="xtick_10">
     <g id="line2d_19">
      <path d="M 938.27353 556.577344 
L 938.27353 30.977344 
" clip-path="url(#pf03df6689f)" style="fill: none; stroke-dasharray: 2.96,1.28; stroke-dashoffset: 0; stroke: #21262d; stroke-opacity: 0.4; stroke-width: 0.8"/>
     </g>
     <g id="line2d_20">
      <g>
       <use xlink:href="#m645def3b15" x="938.27353" y="556.577344" style="fill: #c9d1d9; stroke: #c9d1d9; stroke-width: 0.8"/>
      </g>
     </g>
     <g id="text_10">
      <!-- 2026-07 -->
      <g style="fill: #c9d1d9" transform="translate(907.337641 587.031268) rotate(-30) scale(0.1 -0.1)">
       <defs>
        <path id="SimHei-37" d="M 850 150 
Q 1300 2050 2425 3925 
L 275 3925 
L 275 4375 
L 2950 4375 
L 2950 3950 
Q 1775 2050 1400 150 
L 850 150 
z
" transform="scale(0.015625)"/>
       </defs>
       <use xlink:href="#SimHei-32"/>
       <use xlink:href="#SimHei-30" transform="translate(50 0)"/>
       <use xlink:href="#SimHei-32" transform="translate(100 0)"/>
       <use xlink:href="#SimHei-36" transform="translate(150 0)"/>
       <use xlink:href="#SimHei-2d" transform="translate(200 0)"/>
       <use xlink:href="#SimHei-30" transform="translate(250 0)"/>
       <use xlink:href="#SimHei-37" transform="translate(300 0)"/>
      </g>
     </g>
    </g>
    <g id="xtick_11">
     <g id="line2d_21">
      <path d="M 1032.086045 556.577344 
L 1032.086045 30.977344 
" clip-path="url(#pf03df6689f)" style="fill: none; stroke-dasharray: 2.96,1.28; stroke-dashoffset: 0; stroke: #21262d; stroke-opacity: 0.4; stroke-width: 0.8"/>
     </g>
     <g id="line2d_22">
      <g>
       <use xlink:href="#m645def3b15" x="1032.086045" y="556.577344" style="fill: #c9d1d9; stroke: #c9d1d9; stroke-width: 0.8"/>
      </g>
     </g>
     <g id="text_11">
      <!-- 2026-08 -->
      <g style="fill: #c9d1d9" transform="translate(1001.150156 587.031268) rotate(-30) scale(0.1 -0.1)">
       <defs>
        <path id="SimHei-38" d="M 175 1375 
Q 175 1675 325 1962 
Q 475 2250 825 2425 
Q 525 2600 425 2812 
Q 325 3025 312 3300 
Q 300 3575 387 3775 
Q 475 3975 650 4150 
Q 825 4325 1037 4387 
Q 1250 4450 1500 4450 
Q 1750 4450 1950 4400 
Q 2150 4350 2375 4187 
Q 2600 4025 2700 3725 
Q 2800 3425 2687 3025 
Q 2575 2625 2100 2400 
Q 2525 2275 2700 2012 
Q 2875 1750 2875 1375 
Q 2875 1000 2762 775 
Q 2650 550 2512 400 
Q 2375 250 2137 162 
Q 1900 75 1537 75 
Q 1175 75 912 162 
Q 650 250 475 425 
Q 300 600 237 837 
Q 175 1075 175 1375 
z
M 687 1400 
Q 675 1100 787 875 
Q 900 650 1200 587 
Q 1500 525 1825 600 
Q 2150 675 2275 950 
Q 2400 1225 2362 1500 
Q 2325 1775 2050 1962 
Q 1775 2150 1450 2125 
Q 1125 2100 912 1900 
Q 700 1700 687 1400 
z
M 775 3350 
Q 775 3100 950 2875 
Q 1125 2650 1500 2650 
Q 1875 2650 2062 2875 
Q 2250 3100 2237 3412 
Q 2225 3725 2012 3875 
Q 1800 4025 1437 4000 
Q 1075 3975 925 3787 
Q 775 3600 775 3350 
z
" transform="scale(0.015625)"/>
       </defs>
       <use xlink:href="#SimHei-32"/>
       <use xlink:href="#SimHei-30" transform="translate(50 0)"/>
       <use xlink:href="#SimHei-32" transform="translate(100 0)"/>
       <use xlink:href="#SimHei-36" transform="translate(150 0)"/>
       <use xlink:href="#SimHei-2d" transform="translate(200 0)"/>
       <use xlink:href="#SimHei-30" transform="translate(250 0)"/>
       <use xlink:href="#SimHei-38" transform="translate(300 0)"/>
      </g>
     </g>
    </g>
   </g>
   <g id="matplotlib.axis_2">
    <g id="ytick_1">
     <g id="line2d_23">
      <path d="M 29.2 532.686435 
L 1054.48 532.686435 
" clip-path="url(#pf03df6689f)" style="fill: none; stroke-dasharray: 2.96,1.28; stroke-dashoffset: 0; stroke: #21262d; stroke-opacity: 0.4; stroke-width: 0.8"/>
     </g>
     <g id="line2d_24">
      <defs>
       <path id="ma2b69324af" d="M 0 0 
L -3.5 0 
" style="stroke: #c9d1d9; stroke-width: 0.8"/>
      </defs>
      <g>
       <use xlink:href="#ma2b69324af" x="29.2" y="532.686435" style="fill: #c9d1d9; stroke: #c9d1d9; stroke-width: 0.8"/>
      </g>
     </g>
     <g id="text_12">
      <!-- 0.0 -->
      <g style="fill: #c9d1d9" transform="translate(7.2 536.123935) scale(0.1 -0.1)">
       <defs>
        <path id="SimHei-2e" d="M 1075 125 
L 500 125 
L 500 675 
L 1075 675 
L 1075 125 
z
" transform="scale(0.015625)"/>
       </defs>
       <use xlink:href="#SimHei-30"/>
       <use xlink:href="#SimHei-2e" transform="translate(50 0)"/>
       <use xlink:href="#SimHei-30" transform="translate(100 0)"/>
      </g>
     </g>
    </g>
    <g id="ytick_2">
     <g id="line2d_25">
      <path d="M 29.2 437.122798 
L 1054.48 437.122798 
" clip-path="url(#pf03df6689f)" style="fill: none; stroke-dasharray: 2.96,1.28; stroke-dashoffset: 0; stroke: #21262d; stroke-opacity: 0.4; stroke-width: 0.8"/>
     </g>
     <g id="line2d_26">
      <g>
       <use xlink:href="#ma2b69324af" x="29.2" y="437.122798" style="fill: #c9d1d9; stroke: #c9d1d9; stroke-width: 0.8"/>
      </g>
     </g>
     <g id="text_13">
      <!-- 0.2 -->
      <g style="fill: #c9d1d9" transform="translate(7.2 440.560298) scale(0.1 -0.1)">
       <use xlink:href="#SimHei-30"/>
       <use xlink:href="#SimHei-2e" transform="translate(50 0)"/>
       <use xlink:href="#SimHei-32" transform="translate(100 0)"/>
      </g>
     </g>
    </g>
    <g id="ytick_3">
     <g id="line2d_27">
      <path d="M 29.2 341.559162 
L 1054.48 341.559162 
" clip-path="url(#pf03df6689f)" style="fill: none; stroke-dasharray: 2.96,1.28; stroke-dashoffset: 0; stroke: #21262d; stroke-opacity: 0.4; stroke-width: 0.8"/>
     </g>
     <g id="line2d_28">
      <g>
       <use xlink:href="#ma2b69324af" x="29.2" y="341.559162" style="fill: #c9d1d9; stroke: #c9d1d9; stroke-width: 0.8"/>
      </g>
     </g>
     <g id="text_14">
      <!-- 0.4 -->
      <g style="fill: #c9d1d9" transform="translate(7.2 344.996662) scale(0.1 -0.1)">
       <use xlink:href="#SimHei-30"/>
       <use xlink:href="#SimHei-2e" transform="translate(50 0)"/>
       <use xlink:href="#SimHei-34" transform="translate(100 0)"/>
      </g>
     </g>
    </g>
    <g id="ytick_4">
     <g id="line2d_29">
      <path d="M 29.2 245.995526 
L 1054.48 245.995526 
" clip-path="url(#pf03df6689f)" style="fill: none; stroke-dasharray: 2.96,1.28; stroke-dashoffset: 0; stroke: #21262d; stroke-opacity: 0.4; stroke-width: 0.8"/>
     </g>
     <g id="line2d_30">
      <g>
       <use xlink:href="#ma2b69324af" x="29.2" y="245.995526" style="fill: #c9d1d9; stroke: #c9d1d9; stroke-width: 0.8"/>
      </g>
     </g>
     <g id="text_15">
      <!-- 0.6 -->
      <g style="fill: #c9d1d9" transform="translate(7.2 249.433026) scale(0.1 -0.1)">
       <use xlink:href="#SimHei-30"/>
       <use xlink:href="#SimHei-2e" transform="translate(50 0)"/>
       <use xlink:href="#SimHei-36" transform="translate(100 0)"/>
      </g>
     </g>
    </g>
    <g id="ytick_5">
     <g id="line2d_31">
      <path d="M 29.2 150.431889 
L 1054.48 150.431889 
" clip-path="url(#pf03df6689f)" style="fill: none; stroke-dasharray: 2.96,1.28; stroke-dashoffset: 0; stroke: #21262d; stroke-opacity: 0.4; stroke-width: 0.8"/>
     </g>
     <g id="line2d_32">
      <g>
       <use xlink:href="#ma2b69324af" x="29.2" y="150.431889" style="fill: #c9d1d9; stroke: #c9d1d9; stroke-width: 0.8"/>
      </g>
     </g>
     <g id="text_16">
      <!-- 0.8 -->
      <g style="fill: #c9d1d9" transform="translate(7.2 153.869389) scale(0.1 -0.1)">
       <use xlink:href="#SimHei-30"/>
       <use xlink:href="#SimHei-2e" transform="translate(50 0)"/>
       <use xlink:href="#SimHei-38" transform="translate(100 0)"/>
      </g>
     </g>
    </g>
    <g id="ytick_6">
     <g id="line2d_33">
      <path d="M 29.2 54.868253 
L 1054.48 54.868253 
" clip-path="url(#pf03df6689f)" style="fill: none; stroke-dasharray: 2.96,1.28; stroke-dashoffset: 0; stroke: #21262d; stroke-opacity: 0.4; stroke-width: 0.8"/>
     </g>
     <g id="line2d_34">
      <g>
       <use xlink:href="#ma2b69324af" x="29.2" y="54.868253" style="fill: #c9d1d9; stroke: #c9d1d9; stroke-width: 0.8"/>
      </g>
     </g>
     <g id="text_17">
      <!-- 1.0 -->
      <g style="fill: #c9d1d9" transform="translate(7.2 58.305753) scale(0.1 -0.1)">
       <use xlink:href="#SimHei-31"/>
       <use xlink:href="#SimHei-2e" transform="translate(50 0)"/>
       <use xlink:href="#SimHei-30" transform="translate(100 0)"/>
      </g>
     </g>
    </g>
   </g>
   <g id="line2d_35">
    <path d="M 75.803636 532.686435 
L 84.882267 516.381169 
L 87.908477 519.069214 
L 90.934687 508.438568 
L 93.960897 498.384423 
L 96.987107 515.591984 
L 106.065738 508.671325 
L 109.091948 531.195854 
L 136.327839 493.650635 
L 139.35405 497.560327 
L 151.45889 491.557571 
L 154.4851 488.90033 
L 157.511311 486.74424 
L 160.537521 507.676308 
L 169.616151 510.754355 
L 172.642361 500.851953 
L 175.668571 494.009458 
L 178.694782 495.533709 
L 190.799622 473.442948 
L 193.825832 464.312922 
L 196.852043 456.818463 
L 199.878253 462.664535 
L 202.904463 468.233754 
L 211.983093 460.06282 
L 215.009303 461.113169 
L 218.035514 460.66874 
L 221.061724 451.087997 
L 224.087934 457.830794 
L 233.166564 452.876334 
L 236.192774 448.002045 
L 242.245195 454.997618 
L 245.271405 463.270746 
L 254.350035 457.425386 
L 257.376246 452.398454 
L 260.402456 457.435657 
L 263.428666 465.211762 
L 266.454876 483.847045 
L 275.533506 484.835431 
L 278.559717 482.75391 
L 281.585927 479.057046 
L 284.612137 478.304897 
L 287.638347 478.278299 
L 296.716978 470.227019 
L 299.743188 470.058283 
L 302.769398 472.70718 
L 305.795608 471.751853 
L 308.821818 473.757161 
L 317.900449 461.310645 
L 320.926659 455.085753 
L 323.952869 454.895404 
L 326.979079 457.414115 
L 330.005289 464.506491 
L 339.08392 459.736028 
L 342.11013 451.287303 
L 345.13634 453.219215 
L 348.16255 459.836196 
L 351.18876 456.509549 
L 360.267391 447.637104 
L 363.293601 435.801293 
L 366.319811 429.102955 
L 372.372231 435.977415 
L 381.450862 431.588695 
L 384.477072 425.004125 
L 387.503282 439.468249 
L 402.634333 426.908714 
L 405.660543 413.399061 
L 408.686753 394.626485 
L 411.712963 382.750128 
L 414.739174 377.678984 
L 423.817804 349.347733 
L 426.844014 344.241307 
L 429.870224 331.650503 
L 432.896434 317.660672 
L 435.922645 297.757868 
L 445.001275 299.437106 
L 448.027485 311.460893 
L 451.053695 296.086765 
L 454.079906 292.609546 
L 457.106116 292.192909 
L 466.184746 290.086377 
L 469.210956 292.0035 
L 472.237166 271.373027 
L 475.263377 275.43056 
L 478.289587 295.995016 
L 487.368217 297.779912 
L 490.394427 304.430323 
L 493.420638 318.082138 
L 496.446848 325.635246 
L 499.473058 337.248493 
L 508.551688 336.64019 
L 511.577898 338.953004 
L 514.604109 352.355876 
L 517.630319 345.494259 
L 520.656529 390.888078 
L 553.944841 366.164954 
L 556.971051 344.908479 
L 559.997261 331.000454 
L 572.102102 325.3144 
L 575.128312 340.286761 
L 578.154522 343.742174 
L 581.180732 339.469899 
L 584.206942 344.306481 
L 593.285573 341.1824 
L 596.311783 335.946314 
L 599.337993 337.06204 
L 602.364203 331.811618 
L 605.390413 338.303609 
L 614.469044 330.557327 
L 617.495254 336.488745 
L 620.521464 334.212104 
L 623.547674 335.798072 
L 626.573884 348.128046 
L 635.652515 355.636429 
L 638.678725 358.529774 
L 641.704935 358.739171 
L 644.731145 359.332793 
L 647.757355 367.983813 
L 656.835986 362.230344 
L 659.862196 366.580557 
L 662.888406 366.834881 
L 665.914616 374.979395 
L 668.940826 387.580411 
L 681.045667 386.66557 
L 684.071877 376.592328 
L 687.098087 372.099462 
L 699.202928 356.00313 
L 702.229138 344.276931 
L 708.281558 329.704746 
L 711.307769 328.761727 
L 720.386399 307.109893 
L 723.412609 302.115468 
L 726.438819 290.42816 
L 729.46503 288.846246 
L 732.49124 293.529047 
L 741.56987 279.312716 
L 744.59608 279.962412 
L 747.62229 272.320212 
L 750.648501 283.790914 
L 768.805762 249.343908 
L 771.831972 225.470644 
L 774.858182 214.041724 
L 783.936812 189.861996 
L 786.963022 177.354065 
L 789.989233 159.676789 
L 793.015443 153.785328 
L 796.041653 159.730072 
L 805.120283 144.551367 
L 808.146494 139.976279 
L 811.172704 132.319105 
L 814.198914 136.548481 
L 817.225124 134.606881 
L 826.303754 116.230772 
L 829.329965 110.406151 
L 832.356175 108.382533 
L 835.382385 102.976222 
L 838.408595 129.355587 
L 847.487226 135.540026 
L 850.513436 134.266629 
L 853.539646 126.310347 
L 856.565856 122.501121 
L 859.592066 139.720402 
L 868.670697 157.619663 
L 871.696907 159.877634 
L 874.723117 166.530337 
L 877.749327 165.937658 
L 880.775537 164.948234 
L 889.854168 145.328642 
L 892.880378 127.157115 
L 895.906588 105.019936 
L 898.932798 94.389877 
L 911.037639 78.579215 
L 914.063849 80.092736 
L 917.090059 71.391366 
L 920.116269 54.868253 
L 923.142479 67.138558 
L 932.22111 79.092765 
L 935.24732 61.278793 
L 938.27353 57.042095 
L 941.29974 64.242434 
L 944.32595 84.362656 
L 953.404581 96.019226 
L 956.430791 104.995803 
L 959.457001 116.85265 
L 962.483211 118.685361 
L 965.509421 130.841641 
L 974.588052 151.807105 
L 977.614262 160.194937 
L 980.640472 171.217303 
L 983.666682 192.498317 
L 986.692893 250.40337 
L 995.771523 296.262169 
L 998.797733 294.965728 
L 1001.823943 295.524825 
L 1004.850153 302.517797 
L 1004.850153 302.517797 
" clip-path="url(#pf03df6689f)" style="fill: none; stroke: #008000; stroke-width: 2; stroke-linecap: square"/>
   </g>
   <g id="line2d_36">
    <path d="M 75.803636 464.837713 
L 84.882267 464.837713 
L 87.908477 466.104902 
L 90.934687 463.340375 
L 93.960897 486.26348 
L 96.987107 488.913207 
L 106.065738 487.761367 
L 109.091948 472.325499 
L 136.327839 471.289007 
L 139.35405 481.656119 
L 148.43268 449.978039 
L 151.45889 449.978039 
L 154.4851 494.212112 
L 157.511311 480.158782 
L 160.537521 476.472563 
L 169.616151 480.38893 
L 172.642361 472.440848 
L 175.668571 475.090025 
L 178.694782 479.582587 
L 190.799622 474.283682 
L 193.825832 461.727689 
L 196.852043 448.59605 
L 199.878253 448.826199 
L 202.904463 461.266843 
L 211.983093 469.445623 
L 215.009303 532.686435 
L 218.035514 483.9598 
L 221.061724 479.928084 
L 224.087934 471.403807 
L 233.166564 471.403807 
L 236.192774 472.21015 
L 242.245195 472.21015 
L 245.271405 463.801221 
L 254.350035 449.056347 
L 257.376246 458.617665 
L 266.454876 458.617665 
L 275.533506 457.580625 
L 278.559717 452.512417 
L 281.585927 432.123141 
L 284.612137 422.101526 
L 287.638347 422.101526 
L 296.716978 421.295183 
L 299.743188 417.378816 
L 302.769398 415.420633 
L 305.795608 408.048196 
L 308.821818 417.033319 
L 317.900449 414.959787 
L 320.926659 416.572473 
L 323.952869 407.702699 
L 326.979079 408.509042 
L 330.005289 401.482102 
L 339.08392 396.98954 
L 342.11013 388.926109 
L 345.13634 382.820861 
L 348.16255 384.318748 
L 351.18876 381.438872 
L 360.267391 381.899718 
L 363.293601 381.899718 
L 366.319811 367.039495 
M 372.372231 367.039495 
L 381.450862 367.039495 
L 384.477072 341.236515 
L 387.503282 330.293208 
L 402.634333 326.837687 
L 405.660543 320.962588 
L 408.686753 315.663683 
L 411.712963 330.754054 
L 414.739174 315.779032 
L 423.817804 308.521943 
L 426.844014 303.799233 
L 429.870224 308.86744 
L 432.896434 303.683884 
L 435.922645 295.620453 
L 445.001275 298.039482 
L 448.027485 298.039482 
L 451.053695 288.593513 
L 454.079906 292.970726 
L 457.106116 303.223038 
L 466.184746 303.223038 
L 469.210956 282.027419 
L 472.237166 282.373466 
L 475.263377 282.373466 
L 478.289587 274.88568 
L 487.368217 278.34175 
L 490.394427 272.927496 
L 493.420638 263.020681 
L 496.446848 263.020681 
L 499.473058 263.13603 
L 508.551688 264.28787 
L 511.577898 244.935635 
L 514.604109 231.803996 
L 517.630319 233.992328 
L 520.656529 219.708849 
L 553.944841 228.808772 
L 556.971051 200.125916 
L 559.997261 184.114402 
L 563.023471 151.51463 
L 572.102102 171.097563 
L 575.128312 198.858727 
L 578.154522 219.248003 
L 581.180732 216.13743 
L 584.206942 216.13743 
L 593.285573 215.561785 
L 596.311783 232.264293 
L 599.337993 192.523331 
L 602.364203 179.851989 
L 605.390413 183.768356 
L 614.469044 215.100939 
L 617.495254 283.525306 
L 620.521464 203.812135 
L 623.547674 188.030769 
L 626.573884 219.362803 
L 635.652515 203.12114 
L 638.678725 196.555046 
L 641.704935 210.147531 
L 644.731145 220.745341 
L 647.757355 231.918796 
L 656.835986 232.955836 
L 659.862196 232.955836 
L 662.888406 212.912058 
L 665.914616 185.61174 
L 668.940826 202.429597 
L 681.045667 199.204224 
L 684.071877 169.715025 
L 687.098087 137.4613 
L 690.124298 140.571323 
L 699.202928 136.424259 
L 702.229138 139.304134 
L 705.255348 122.486277 
L 708.281558 125.135455 
L 711.307769 128.706874 
L 720.386399 123.983615 
L 723.412609 124.44446 
L 729.46503 132.277744 
L 732.49124 134.351276 
L 741.56987 145.754879 
L 744.59608 130.665057 
L 747.62229 147.482914 
L 750.648501 147.598263 
L 768.805762 139.073986 
L 771.831972 117.072023 
L 774.858182 106.013917 
L 783.936812 104.976876 
L 786.963022 98.410782 
L 789.989233 95.18541 
L 793.015443 93.803421 
L 796.041653 87.237327 
L 805.120283 114.998491 
L 808.146494 104.401231 
L 811.172704 121.103739 
L 814.198914 104.976876 
L 817.225124 107.280557 
L 826.303754 98.065285 
L 829.329965 98.065285 
L 832.356175 88.273819 
L 835.382385 79.980239 
L 838.408595 80.786582 
L 847.487226 65.466062 
L 850.513436 64.083525 
L 853.539646 60.858152 
L 856.565856 68.921583 
L 859.592066 73.874991 
L 868.670697 64.659719 
L 871.696907 64.659719 
L 874.723117 72.723151 
L 877.749327 72.723151 
L 880.775537 76.178672 
L 889.854168 65.235365 
L 892.880378 54.868253 
L 895.906588 55.098401 
L 898.932798 55.098401 
L 911.037639 68.230589 
L 914.063849 75.026831 
L 917.090059 92.881729 
L 923.142479 92.881729 
L 932.22111 102.097001 
L 935.24732 97.028794 
L 938.27353 97.028794 
L 941.29974 97.719788 
L 944.32595 91.269043 
L 953.404581 91.269043 
L 956.430791 99.563172 
L 959.457001 96.798096 
L 962.483211 107.280557 
L 965.509421 95.300759 
L 974.588052 77.445861 
L 977.614262 80.786582 
L 980.640472 69.843275 
L 983.666682 67.769743 
L 986.692893 72.723151 
L 998.797733 72.723151 
L 1001.823943 64.775068 
L 1004.850153 72.723151 
L 1004.850153 72.723151 
" clip-path="url(#pf03df6689f)" style="fill: none; stroke: #00bfbf; stroke-width: 2; stroke-linecap: square"/>
   </g>
   <g id="line2d_37">
    <path d="M 109.091948 442.010613 
L 136.327839 445.493753 
L 139.35405 496.541728 
L 148.43268 496.541728 
L 151.45889 502.708597 
L 154.4851 495.91362 
L 157.511311 527.775779 
L 160.537521 501.452383 
L 169.616151 527.261874 
L 172.642361 530.630812 
L 175.668571 532.686435 
L 178.694782 515.44204 
L 181.720992 515.156537 
L 190.799622 517.269261 
L 193.825832 514.756833 
L 196.852043 465.022173 
L 199.878253 441.610909 
L 202.904463 433.388416 
L 211.983093 421.397281 
L 215.009303 440.8115 
L 218.035514 399.699037 
L 221.061724 441.72511 
L 224.087934 444.123337 
L 233.166564 432.531907 
L 236.192774 432.531907 
L 239.218985 457.199384 
L 242.245195 443.209727 
L 245.271405 426.878943 
L 254.350035 430.818887 
L 257.376246 437.214159 
L 260.402456 434.815932 
L 263.428666 449.433697 
L 266.454876 474.044074 
L 275.533506 487.976631 
L 278.559717 510.302983 
L 281.585927 525.20625 
L 284.612137 525.20625 
L 296.716978 468.33401 
L 299.743188 472.673659 
L 302.769398 494.200601 
L 305.795608 477.013308 
L 308.821818 446.293162 
L 317.900449 430.247881 
L 320.926659 420.312369 
L 323.952869 450.118905 
L 326.979079 441.953513 
L 330.005289 412.946386 
L 339.08392 423.909709 
L 342.11013 439.326883 
L 345.13634 426.878943 
L 348.16255 450.63281 
L 351.18876 425.051722 
L 360.267391 425.451427 
L 363.293601 416.144022 
L 366.319811 433.502618 
L 369.346021 433.502618 
L 372.372231 440.354695 
L 381.450862 463.651757 
L 384.477072 452.117427 
L 387.503282 423.0532 
L 399.608123 423.0532 
L 402.634333 435.101436 
L 405.660543 443.381029 
L 408.686753 471.360344 
L 411.712963 442.010613 
L 414.739174 440.697299 
L 423.817804 423.738408 
L 426.844014 425.679829 
L 429.870224 441.382506 
L 432.896434 432.81741 
L 435.922645 385.994882 
L 445.001275 385.994882 
L 448.027485 346.138634 
L 451.053695 368.179482 
L 454.079906 374.631854 
L 457.106116 378.800201 
L 466.184746 387.022694 
L 469.210956 379.54251 
L 472.237166 359.728587 
L 475.263377 371.719722 
L 478.289587 356.759353 
L 487.368217 344.654017 
L 490.394427 348.765263 
L 493.420638 344.254312 
L 496.446848 388.564411 
L 499.473058 379.028604 
L 508.551688 379.713812 
L 511.577898 412.832185 
L 514.604109 395.701992 
L 517.630319 441.325406 
L 520.656529 471.87425 
L 523.682739 471.87425 
L 553.944841 477.298811 
L 556.971051 479.297333 
L 559.997261 503.85061 
L 563.023471 508.932567 
L 566.049681 508.932567 
L 572.102102 456.628378 
L 575.128312 453.544943 
L 578.154522 434.187825 
L 581.180732 411.975675 
L 584.206942 402.325666 
L 593.285573 433.388416 
L 596.311783 416.315324 
L 599.337993 383.196951 
L 602.364203 347.62325 
L 605.390413 347.109344 
L 614.469044 385.309675 
L 617.495254 402.554069 
L 620.521464 360.356694 
L 623.547674 370.463507 
L 626.573884 293.206337 
L 635.652515 322.72737 
L 638.678725 291.66462 
L 641.704935 323.698081 
L 644.731145 270.080577 
L 647.757355 257.404234 
L 656.835986 302.570843 
L 659.862196 337.288034 
L 662.888406 324.326188 
L 665.914616 333.747794 
L 668.940826 310.33653 
L 681.045667 320.157841 
L 684.071877 340.999576 
L 687.098087 344.197212 
L 690.124298 329.122642 
L 699.202928 323.698081 
L 702.229138 340.599871 
L 705.255348 322.327665 
L 708.281558 305.368774 
L 711.307769 328.837139 
L 720.386399 329.065541 
L 723.412609 299.544509 
L 726.438819 292.635331 
L 729.46503 278.874076 
L 732.49124 299.030603 
L 741.56987 281.672007 
L 744.59608 273.506615 
L 747.62229 227.255094 
L 750.648501 240.331142 
L 768.805762 273.506615 
L 771.831972 243.642979 
L 774.858182 261.743883 
L 777.884392 261.743883 
L 783.936812 237.419009 
L 786.963022 212.865732 
L 789.989233 208.411882 
L 793.015443 206.927266 
L 796.041653 142.403539 
L 805.120283 126.815063 
L 808.146494 78.850523 
L 811.172704 138.06389 
L 814.198914 141.832532 
L 817.225124 151.596742 
L 826.303754 151.596742 
L 829.329965 179.347655 
L 832.356175 179.975762 
L 835.382385 195.79264 
L 838.408595 189.911274 
L 847.487226 173.865993 
L 850.513436 181.117775 
L 853.539646 169.240841 
L 856.565856 177.977239 
L 859.592066 139.491406 
L 868.670697 137.664185 
L 871.696907 160.561543 
L 874.723117 154.851479 
L 877.749327 211.895021 
L 880.775537 192.023998 
L 889.854168 198.818974 
L 892.880378 214.692953 
L 895.906588 177.349132 
L 898.932798 196.135244 
L 911.037639 171.924571 
L 914.063849 181.174875 
L 917.090059 233.536165 
L 920.116269 233.364863 
L 923.142479 242.672268 
L 932.22111 234.449776 
L 935.24732 209.325493 
L 938.27353 193.223111 
L 941.29974 185.343222 
L 944.32595 185.343222 
L 953.404581 189.283167 
L 956.430791 150.854434 
L 959.457001 143.945256 
L 962.483211 154.851479 
L 965.509421 144.687565 
L 974.588052 112.939607 
L 977.614262 133.495838 
L 980.640472 150.854434 
L 983.666682 141.204425 
L 986.692893 150.740233 
L 995.771523 124.987843 
L 998.797733 107.686348 
L 1001.823943 76.109692 
L 1004.850153 54.868253 
L 1007.876364 54.868253 
L 1007.876364 54.868253 
" clip-path="url(#pf03df6689f)" style="fill: none; stroke: #ffffff; stroke-width: 2; stroke-linecap: square"/>
   </g>
   <g id="line2d_38">
    <path d="M 75.803636 463.489684 
L 84.882267 451.8549 
L 87.908477 460.223775 
L 90.934687 428.585133 
L 93.960897 426.748177 
L 96.987107 448.180789 
L 106.065738 422.461715 
L 109.091948 410.826831 
L 136.327839 384.291154 
L 139.35405 413.68444 
L 148.43268 421.032861 
L 151.45889 457.774367 
L 154.4851 436.545906 
L 157.511311 448.180789 
L 160.537521 493.495421 
L 169.616151 484.105894 
L 172.642361 459.611423 
L 175.668571 471.042256 
L 178.694782 465.939091 
L 190.799622 419.195705 
L 193.825832 426.748177 
L 196.852043 395.517737 
L 199.878253 415.317444 
L 202.904463 427.76883 
L 211.983093 427.156279 
L 215.009303 452.875453 
L 218.035514 449.405493 
L 221.061724 424.706872 
L 224.087934 426.952228 
L 233.166564 425.319323 
L 236.192774 436.341755 
L 239.218985 444.098378 
L 242.245195 421.849263 
L 245.271405 447.772588 
L 254.350035 448.180789 
L 257.376246 463.285633 
L 260.402456 470.429704 
L 263.428666 482.064588 
L 266.454876 532.686435 
L 275.533506 522.888706 
L 278.559717 505.742656 
L 281.585927 503.4972 
L 284.612137 506.559059 
L 287.638347 489.208759 
L 296.716978 475.532869 
L 299.743188 487.984155 
L 302.769398 495.740678 
L 305.795608 491.250064 
L 308.821818 472.675161 
L 317.900449 460.019724 
L 320.926659 471.042256 
L 323.952869 463.081483 
L 326.979079 475.73692 
L 330.005289 458.59087 
L 339.08392 468.592749 
L 342.11013 491.046014 
L 345.13634 463.898085 
L 348.16255 471.654508 
L 351.18876 458.386819 
L 360.267391 441.648871 
L 363.293601 440.424167 
L 366.319811 420.82871 
L 369.346021 407.764972 
L 372.372231 398.375445 
L 381.450862 404.907364 
L 384.477072 398.171295 
L 387.503282 396.74254 
L 402.634333 355.10202 
L 405.660543 320.60567 
L 408.686753 312.849147 
L 411.712963 307.746082 
L 414.739174 268.555268 
L 423.817804 227.73115 
L 426.844014 250.184515 
L 429.870224 238.14133 
L 432.896434 243.448446 
L 435.922645 239.746582 
L 445.001275 228.847439 
L 448.027485 233.782791 
L 451.053695 211.57281 
L 454.079906 203.963834 
L 457.106116 152.551641 
L 466.184746 184.427077 
L 469.210956 173.116239 
L 472.237166 158.309784 
L 475.263377 178.874582 
L 478.289587 209.927626 
L 487.368217 290.336384 
L 490.394427 225.145576 
L 493.420638 220.62152 
L 496.446848 255.787324 
L 499.473058 256.609916 
L 508.551688 219.181785 
L 511.577898 222.883448 
L 514.604109 215.891417 
L 517.630319 194.709476 
L 520.656529 223.70604 
L 553.944841 203.963834 
L 556.971051 176.612454 
L 559.997261 170.854311 
L 563.023471 148.849777 
L 572.102102 149.672569 
L 575.128312 223.294744 
L 578.154522 235.222327 
L 581.180732 224.117336 
L 584.206942 213.834937 
L 593.285573 227.202056 
L 596.311783 201.496059 
L 599.337993 204.169283 
L 602.364203 212.806697 
L 605.390413 236.456414 
L 614.469044 247.150109 
L 617.495254 284.372493 
L 620.521464 268.331851 
L 623.547674 311.723773 
L 626.573884 339.075154 
L 635.652515 400.769846 
L 638.678725 371.97903 
L 641.704935 336.195982 
L 644.731145 362.107827 
L 647.757355 340.925986 
L 656.835986 337.841266 
L 659.862196 365.603843 
L 662.888406 339.692098 
L 665.914616 367.865971 
L 668.940826 382.055781 
L 681.045667 376.708834 
L 684.071877 295.066287 
L 687.098087 307.816462 
L 690.124298 293.215456 
L 699.202928 294.654991 
L 702.229138 267.714907 
L 705.255348 277.58611 
L 708.281558 248.383797 
L 711.307769 240.775022 
L 720.386399 227.407903 
L 723.412609 232.343255 
L 726.438819 206.842906 
L 729.46503 223.294744 
L 732.49124 233.988439 
L 741.56987 224.73428 
L 744.59608 244.271038 
L 747.62229 213.629289 
L 750.648501 211.984106 
L 768.805762 165.096167 
L 771.831972 141.857746 
L 774.858182 142.269042 
L 783.936812 112.861382 
L 786.963022 123.143581 
L 789.989233 92.913328 
L 793.015443 141.652098 
L 796.041653 174.555774 
L 805.120283 170.648663 
L 808.146494 155.841809 
L 811.172704 146.58765 
L 814.198914 196.971604 
L 817.225124 165.096167 
L 826.303754 138.773027 
L 829.329965 145.765058 
L 832.356175 174.144678 
L 835.382385 166.946999 
L 838.408595 209.310682 
L 847.487226 224.322984 
L 850.513436 216.919657 
L 853.539646 206.842906 
L 856.565856 208.282442 
L 859.592066 230.698271 
L 868.670697 286.429072 
L 871.696907 244.887782 
L 874.723117 265.247331 
L 877.749327 273.061754 
L 880.775537 250.646125 
L 889.854168 188.540236 
L 892.880378 170.443015 
L 895.906588 143.50313 
L 898.932798 130.135812 
L 911.037639 93.324624 
L 914.063849 132.809235 
L 917.090059 97.84888 
L 920.116269 77.284082 
L 923.142479 123.349428 
L 932.22111 100.111007 
L 935.24732 54.868253 
L 938.27353 57.747325 
L 941.29974 125.817204 
L 944.32595 115.12331 
L 953.404581 133.837475 
L 956.430791 165.301815 
L 959.457001 187.1007 
L 962.483211 135.071363 
L 965.509421 156.870248 
L 974.588052 240.363726 
L 977.614262 215.480121 
L 980.640472 239.137425 
L 983.666682 279.962042 
L 986.692893 374.381917 
L 995.771523 390.921105 
L 998.797733 314.296569 
L 1001.823943 325.183134 
L 1004.850153 325.811159 
L 1004.850153 325.811159 
" clip-path="url(#pf03df6689f)" style="fill: none; stroke: #ff0000; stroke-width: 2; stroke-linecap: square"/>
   </g>
   <g id="patch_3">
    <path d="M 29.2 556.577344 
L 29.2 30.977344 
" style="fill: none; stroke: #30363d; stroke-width: 0.8; stroke-linejoin: miter; stroke-linecap: square"/>
   </g>
   <g id="patch_4">
    <path d="M 1054.48 556.577344 
L 1054.48 30.977344 
" style="fill: none; stroke: #30363d; stroke-width: 0.8; stroke-linejoin: miter; stroke-linecap: square"/>
   </g>
   <g id="patch_5">
    <path d="M 29.2 556.577344 
L 1054.48 556.577344 
" style="fill: none; stroke: #30363d; stroke-width: 0.8; stroke-linejoin: miter; stroke-linecap: square"/>
   </g>
   <g id="patch_6">
    <path d="M 29.2 30.977344 
L 1054.48 30.977344 
" style="fill: none; stroke: #30363d; stroke-width: 0.8; stroke-linejoin: miter; stroke-linecap: square"/>
   </g>
   <g id="text_18">
    <!-- 2026-07-24 -->
    <g style="fill: #8b949e; opacity: 0.6" transform="translate(999.2272 550.196344) scale(0.09 -0.09)">
     <use xlink:href="#SimHei-32"/>
     <use xlink:href="#SimHei-30" transform="translate(50 0)"/>
     <use xlink:href="#SimHei-32" transform="translate(100 0)"/>
     <use xlink:href="#SimHei-36" transform="translate(150 0)"/>
     <use xlink:href="#SimHei-2d" transform="translate(200 0)"/>
     <use xlink:href="#SimHei-30" transform="translate(250 0)"/>
     <use xlink:href="#SimHei-37" transform="translate(300 0)"/>
     <use xlink:href="#SimHei-2d" transform="translate(350 0)"/>
     <use xlink:href="#SimHei-32" transform="translate(400 0)"/>
     <use xlink:href="#SimHei-34" transform="translate(450 0)"/>
    </g>
   </g>
   <g id="text_19">
    <!-- 归一化指标对比 -->
    <g style="fill: #c9d1d9" transform="translate(489.34 18.977344) scale(0.15 -0.15)">
     <defs>
      <path id="SimHei-5f52" d="M 2600 800 
Q 3075 775 3600 775 
L 5300 775 
L 5300 2275 
L 4150 2275 
Q 3550 2275 3100 2250 
L 3100 2725 
Q 3550 2700 4150 2700 
L 5300 2700 
L 5300 4175 
L 3775 4175 
Q 3300 4175 2800 4150 
L 2800 4625 
Q 3250 4600 3725 4600 
L 5850 4600 
Q 5825 4075 5825 3775 
L 5825 825 
Q 5825 200 5850 -300 
L 5300 -300 
L 5300 350 
L 3600 350 
Q 3075 350 2600 325 
L 2600 800 
z
M 350 -150 
Q 1125 325 1475 975 
Q 1825 1625 1900 2362 
Q 1975 3100 1962 3837 
Q 1950 4575 1925 5125 
L 2475 5125 
Q 2450 4725 2450 3950 
Q 2450 3175 2400 2437 
Q 2350 1700 2012 950 
Q 1675 200 800 -550 
Q 625 -325 350 -150 
z
M 500 1225 
Q 525 1650 525 2050 
L 525 3700 
Q 525 4125 500 4475 
L 1050 4475 
Q 1025 4100 1025 3700 
L 1025 2050 
Q 1025 1650 1050 1225 
L 500 1225 
z
" transform="scale(0.015625)"/>
      <path id="SimHei-4e00" d="M 4875 2675 
Q 5525 2675 6050 2700 
L 6050 2050 
Q 5525 2075 4900 2075 
L 1600 2075 
Q 950 2075 350 2050 
L 350 2700 
Q 950 2675 1600 2675 
L 4875 2675 
z
" transform="scale(0.015625)"/>
      <path id="SimHei-5316" d="M 3925 5025 
Q 3900 4900 3900 4400 
L 3900 2625 
Q 4375 3025 4775 3450 
Q 5175 3875 5400 4300 
Q 5600 4100 5900 3925 
Q 5700 3700 5225 3212 
Q 4750 2725 4487 2512 
Q 4225 2300 3900 2025 
L 3900 450 
Q 3900 50 4225 50 
L 5200 50 
Q 5400 75 5462 262 
Q 5525 450 5575 850 
Q 5800 650 6150 600 
Q 6000 -100 5825 -250 
Q 5650 -400 5350 -400 
L 3950 -400 
Q 3425 -400 3400 200 
L 3400 1675 
Q 3225 1525 2962 1350 
Q 2700 1175 2375 975 
Q 2225 1225 2025 1400 
Q 2350 1550 2737 1787 
Q 3125 2025 3400 2250 
L 3400 4500 
Q 3400 4800 3375 5025 
L 3925 5025 
z
M 2400 4850 
Q 2175 4550 2075 4337 
Q 1975 4125 1825 3775 
L 1825 675 
Q 1825 -75 1850 -550 
L 1325 -550 
Q 1350 -125 1350 650 
L 1350 3050 
Q 1125 2725 962 2525 
Q 800 2325 675 2175 
Q 500 2375 275 2525 
Q 625 2850 875 3212 
Q 1125 3575 1312 3912 
Q 1500 4250 1625 4575 
Q 1750 4900 1825 5100 
Q 1975 4975 2400 4850 
z
" transform="scale(0.015625)"/>
      <path id="SimHei-6307" d="M 5625 2225 
Q 5600 1925 5600 1350 
L 5600 300 
Q 5600 -225 5625 -525 
L 5125 -525 
L 5125 -125 
L 3300 -125 
L 3300 -625 
L 2800 -625 
Q 2825 -300 2825 300 
L 2825 1350 
Q 2825 1925 2800 2225 
L 5625 2225 
z
M 500 25 
Q 1075 -25 1175 37 
Q 1275 100 1275 275 
L 1275 1675 
Q 1050 1600 925 1537 
Q 800 1475 475 1275 
Q 400 1525 225 1800 
Q 625 1900 825 1975 
Q 1025 2050 1275 2125 
L 1275 3300 
L 1100 3300 
Q 775 3300 450 3275 
L 450 3725 
Q 750 3700 1100 3700 
L 1275 3700 
L 1275 4450 
Q 1275 4800 1250 5125 
L 1775 5125 
Q 1750 4850 1750 4450 
L 1750 3700 
Q 2075 3700 2425 3725 
L 2425 3275 
Q 2050 3300 1750 3300 
L 1750 2325 
Q 1850 2350 2025 2425 
L 2375 2575 
Q 2350 2300 2375 2100 
Q 2225 2050 2062 1987 
Q 1900 1925 1750 1850 
L 1750 100 
Q 1725 -200 1575 -337 
Q 1425 -475 675 -525 
Q 625 -250 500 25 
z
M 3325 5025 
Q 3300 4675 3300 4125 
Q 4125 4275 4512 4412 
Q 4900 4550 5225 4725 
Q 5325 4475 5575 4250 
Q 5450 4225 5237 4175 
Q 5025 4125 4725 4050 
Q 4425 3975 4037 3887 
Q 3650 3800 3300 3725 
L 3300 3175 
Q 3275 2925 3700 2925 
L 4925 2925 
Q 5300 2925 5387 3087 
Q 5475 3250 5550 3600 
Q 5750 3400 6050 3300 
Q 5825 2725 5700 2637 
Q 5575 2550 5275 2525 
L 3350 2525 
Q 3050 2525 2937 2687 
Q 2825 2850 2825 2975 
L 2825 4125 
Q 2825 4775 2800 5025 
L 3325 5025 
z
M 5125 275 
L 5125 875 
L 3300 875 
L 3300 275 
L 5125 275 
z
M 5125 1250 
L 5125 1825 
L 3300 1825 
L 3300 1250 
L 5125 1250 
z
" transform="scale(0.015625)"/>
      <path id="SimHei-6807" d="M 1275 4400 
Q 1275 4800 1250 5175 
L 1750 5175 
Q 1725 4825 1725 4400 
L 1725 3800 
Q 2125 3800 2575 3825 
L 2575 3350 
Q 2125 3375 1725 3375 
L 1725 2525 
Q 1900 2650 2075 2800 
Q 2400 2275 2650 1775 
Q 2375 1650 2175 1500 
Q 2025 2000 1725 2425 
L 1725 475 
Q 1725 -50 1750 -575 
L 1250 -575 
Q 1275 -25 1275 475 
L 1275 2100 
Q 1025 1400 500 750 
Q 350 950 125 1125 
Q 550 1550 812 2187 
Q 1075 2825 1150 3375 
Q 675 3375 325 3325 
L 325 3825 
Q 800 3800 1275 3800 
L 1275 4400 
z
M 5175 3125 
Q 5675 3125 6050 3150 
L 6050 2675 
Q 5675 2700 5275 2700 
L 4500 2700 
L 4500 175 
Q 4500 -225 4275 -350 
Q 4050 -475 3475 -550 
Q 3425 -250 3275 25 
Q 3775 25 3900 62 
Q 4025 100 4025 350 
L 4025 2700 
L 3400 2700 
Q 2775 2700 2500 2650 
L 2500 3150 
Q 2825 3125 3400 3125 
L 5175 3125 
z
M 4900 4775 
Q 5425 4775 5750 4800 
L 5750 4300 
Q 5275 4350 4750 4350 
L 3525 4350 
Q 3125 4350 2750 4300 
L 2750 4800 
Q 3100 4775 3525 4775 
L 4900 4775 
z
M 5275 2025 
Q 5825 1175 6200 500 
Q 5925 375 5650 200 
Q 5375 925 4825 1725 
Q 5075 1850 5275 2025 
z
M 3600 1775 
Q 3500 1625 3225 975 
Q 2950 325 2800 50 
Q 2575 175 2300 275 
Q 2625 775 2787 1187 
Q 2950 1600 3050 2000 
Q 3325 1875 3600 1775 
z
" transform="scale(0.015625)"/>
      <path id="SimHei-5bf9" d="M 525 4250 
Q 900 4225 1400 4225 
L 2825 4225 
Q 2575 2625 2200 1750 
Q 2825 875 3125 400 
Q 2950 275 2725 75 
Q 2200 975 1950 1300 
Q 1650 775 1350 425 
Q 1050 75 600 -350 
Q 425 -125 200 -25 
Q 625 275 975 675 
Q 1325 1075 1650 1700 
Q 1050 2425 550 2900 
Q 700 3025 900 3225 
Q 1625 2425 1875 2150 
Q 2200 3050 2300 3825 
L 1400 3825 
Q 900 3825 525 3800 
L 525 4250 
z
M 2925 3700 
Q 3525 3675 3750 3675 
L 4825 3675 
L 4825 4425 
Q 4825 4750 4775 5125 
L 5350 5125 
Q 5325 4825 5325 4375 
L 5325 3675 
Q 5575 3675 6150 3700 
L 6150 3250 
Q 5575 3275 5325 3275 
L 5325 125 
Q 5350 -350 5012 -475 
Q 4675 -600 4250 -650 
Q 4175 -350 4025 -100 
Q 4575 -100 4712 -37 
Q 4850 25 4825 325 
L 4825 3275 
L 3775 3275 
Q 3550 3275 2925 3225 
L 2925 3700 
z
M 3450 2725 
Q 3875 1975 4175 1325 
Q 3850 1200 3700 1075 
Q 3475 1750 3050 2475 
Q 3225 2550 3450 2725 
z
" transform="scale(0.015625)"/>
      <path id="SimHei-6bd4" d="M 3775 5100 
Q 3750 4575 3750 4100 
L 3750 3050 
Q 4925 3600 5475 4175 
Q 5675 3900 5900 3675 
Q 5600 3500 5037 3187 
Q 4475 2875 3750 2550 
L 3750 450 
Q 3750 100 4050 100 
L 5000 100 
Q 5175 100 5262 250 
Q 5350 400 5450 900 
Q 5650 775 6025 675 
Q 5850 0 5650 -175 
Q 5450 -350 5225 -350 
L 3900 -350 
Q 3250 -350 3250 275 
L 3250 4000 
Q 3250 4550 3225 5100 
L 3775 5100 
z
M 1275 4975 
Q 1250 4575 1250 4000 
L 1250 3150 
L 1850 3150 
Q 2325 3150 2875 3175 
L 2875 2650 
Q 2325 2675 1850 2675 
L 1250 2675 
L 1250 475 
Q 1650 650 1962 812 
Q 2275 975 2850 1275 
Q 2900 950 2950 750 
Q 2375 475 1762 175 
Q 1150 -125 925 -325 
Q 750 -100 575 200 
Q 700 300 750 600 
L 750 3950 
Q 750 4550 725 4975 
L 1275 4975 
z
" transform="scale(0.015625)"/>
     </defs>
     <use xlink:href="#SimHei-5f52"/>
     <use xlink:href="#SimHei-4e00" transform="translate(100 0)"/>
     <use xlink:href="#SimHei-5316" transform="translate(200 0)"/>
     <use xlink:href="#SimHei-6307" transform="translate(300 0)"/>
     <use xlink:href="#SimHei-6807" transform="translate(400 0)"/>
     <use xlink:href="#SimHei-5bf9" transform="translate(500 0)"/>
     <use xlink:href="#SimHei-6bd4" transform="translate(600 0)"/>
    </g>
   </g>
   <g id="legend_1">
    <g id="patch_7">
     <path d="M 36.2 94.883594 
L 128.2 94.883594 
Q 130.2 94.883594 130.2 92.883594 
L 130.2 37.977344 
Q 130.2 35.977344 128.2 35.977344 
L 36.2 35.977344 
Q 34.2 35.977344 34.2 37.977344 
L 34.2 92.883594 
Q 34.2 94.883594 36.2 94.883594 
z
" style="fill: #161b22; opacity: 0.9; stroke: #30363d; stroke-linejoin: miter"/>
    </g>
    <g id="line2d_39">
     <path d="M 38.2 44.524219 
L 48.2 44.524219 
L 58.2 44.524219 
" style="fill: none; stroke: #008000; stroke-width: 2; stroke-linecap: square"/>
    </g>
    <g id="text_20">
     <!-- 融资余额 -->
     <g style="fill: #c9d1d9" transform="translate(66.2 48.024219) scale(0.1 -0.1)">
      <defs>
       <path id="SimHei-878d" d="M 5200 975 
Q 5400 1025 5650 1125 
Q 5775 775 5887 475 
Q 6000 175 6150 -350 
Q 5925 -425 5675 -500 
Q 5575 -175 5500 50 
Q 4825 -100 4362 -212 
Q 3900 -325 3400 -500 
Q 3325 -225 3200 0 
Q 3575 25 4350 175 
L 4350 1750 
L 3850 1750 
L 3850 1225 
L 3375 1225 
Q 3400 1975 3400 2675 
Q 3400 3400 3375 3925 
L 4350 3925 
Q 4350 4925 4325 5200 
L 4825 5200 
Q 4800 4875 4800 3925 
L 5775 3925 
Q 5750 3325 5750 2700 
Q 5750 2100 5775 1550 
L 5300 1550 
L 5300 1750 
L 4800 1750 
L 4800 250 
Q 5075 325 5400 400 
Q 5325 650 5200 975 
z
M 2025 -50 
Q 2425 -50 2475 -12 
Q 2525 25 2550 150 
L 2550 1975 
L 825 1975 
L 825 -500 
L 350 -500 
Q 375 100 375 475 
L 375 1400 
Q 375 1850 350 2350 
L 3000 2350 
Q 2975 1950 2975 1450 
L 2975 -25 
Q 2975 -325 2787 -387 
Q 2600 -450 2225 -525 
Q 2125 -225 2025 -50 
z
M 625 2725 
Q 650 3050 650 3350 
Q 650 3675 625 3975 
L 2850 3975 
Q 2825 3675 2825 3350 
Q 2825 3050 2850 2725 
L 625 2725 
z
M 3000 4450 
Q 2650 4475 2175 4475 
L 1200 4475 
Q 625 4475 250 4450 
L 250 4875 
Q 550 4850 1125 4850 
L 2175 4850 
Q 2700 4850 3000 4875 
L 3000 4450 
z
M 2325 1675 
Q 2175 1475 2000 1025 
L 2325 1025 
L 2325 675 
L 1850 675 
L 1850 -125 
L 1425 -125 
L 1425 675 
L 1025 675 
L 1025 1025 
L 1700 1025 
Q 1875 1500 1925 1825 
Q 2100 1700 2325 1675 
z
M 5300 2125 
L 5300 3550 
L 4800 3550 
L 4800 2125 
L 5300 2125 
z
M 4350 2125 
L 4350 3550 
L 3850 3550 
L 3850 2125 
L 4350 2125 
z
M 2350 3100 
L 2350 3600 
L 1100 3600 
L 1100 3100 
L 2350 3100 
z
M 1575 1275 
Q 1400 1225 1225 1150 
Q 1150 1425 1025 1675 
L 1325 1825 
Q 1425 1550 1575 1275 
z
" transform="scale(0.015625)"/>
       <path id="SimHei-8d44" d="M 5300 2150 
Q 5275 1825 5275 1450 
Q 5275 1075 5300 575 
L 4800 575 
L 4800 1725 
L 1700 1725 
L 1700 425 
L 1200 425 
Q 1225 1000 1225 1375 
Q 1225 1775 1200 2150 
L 5300 2150 
z
M 4225 4075 
Q 4050 3775 4200 3562 
Q 4350 3350 4612 3162 
Q 4875 2975 5262 2850 
Q 5650 2725 6125 2700 
Q 5925 2425 5825 2175 
Q 5200 2300 4712 2550 
Q 4225 2800 3900 3350 
Q 3675 2775 3250 2550 
Q 2825 2325 2325 2175 
Q 2125 2400 1925 2575 
Q 2975 2775 3300 3175 
Q 3625 3575 3650 4150 
L 4225 4075 
z
M 3125 4250 
Q 2825 3850 2550 3650 
Q 2375 3825 2175 3950 
Q 2475 4150 2737 4487 
Q 3000 4825 3150 5200 
Q 3375 5100 3700 5050 
Q 3575 4825 3400 4650 
L 5750 4650 
Q 5675 4500 5300 3675 
Q 5000 3750 4800 3775 
Q 4925 4050 5025 4250 
L 3125 4250 
z
M 3525 1375 
Q 3400 1100 3337 825 
Q 3275 550 3012 262 
Q 2750 -25 2250 -275 
Q 1750 -525 800 -675 
Q 725 -425 500 -200 
Q 1225 -175 1712 -12 
Q 2200 150 2450 350 
Q 2700 550 2812 837 
Q 2925 1125 2925 1450 
Q 3225 1400 3525 1375 
z
M 3825 700 
Q 4300 525 4750 350 
Q 5200 175 5825 -100 
Q 5675 -300 5550 -600 
Q 5075 -325 4612 -125 
Q 4150 75 3625 250 
Q 3750 450 3825 700 
z
M 2075 3325 
Q 1450 2750 875 2050 
Q 625 2325 475 2425 
Q 1275 3050 1725 3625 
Q 1850 3500 2075 3325 
z
M 1700 3975 
Q 1300 4275 625 4675 
Q 800 4850 925 5025 
Q 1150 4875 2000 4350 
Q 1850 4200 1700 3975 
z
" transform="scale(0.015625)"/>
       <path id="SimHei-4f59" d="M 3850 3050 
Q 4150 3050 4525 3075 
L 4525 2600 
Q 4225 2625 3850 2625 
L 3450 2625 
L 3450 1825 
L 4475 1825 
Q 5050 1825 5375 1850 
L 5375 1350 
Q 5025 1375 4500 1375 
L 3450 1375 
L 3450 -75 
Q 3450 -450 3187 -525 
Q 2925 -600 2550 -650 
Q 2525 -425 2350 -50 
Q 2825 -75 2887 -25 
Q 2950 25 2950 175 
L 2950 1375 
L 1800 1375 
Q 1225 1375 900 1350 
L 900 1850 
Q 1200 1825 1800 1825 
L 2950 1825 
L 2950 2625 
L 2550 2625 
Q 2325 2625 1825 2600 
L 1825 3075 
Q 2225 3050 2525 3050 
L 3850 3050 
z
M 3400 4850 
Q 4450 3575 6150 3300 
Q 5925 3150 5750 2700 
Q 4150 3250 3100 4550 
Q 2375 3350 800 2400 
Q 450 2725 325 2800 
Q 1475 3325 2112 4100 
Q 2750 4875 2900 5275 
Q 3150 5175 3550 5050 
L 3400 4850 
z
M 2325 700 
Q 2075 500 1625 112 
Q 1175 -275 925 -450 
Q 725 -225 525 -50 
Q 1600 675 1900 1075 
Q 2100 875 2325 700 
z
M 4400 1175 
Q 4750 850 5025 550 
L 5600 0 
Q 5375 -175 5125 -400 
Q 4875 25 4050 850 
Q 4200 950 4400 1175 
z
" transform="scale(0.015625)"/>
       <path id="SimHei-989d" d="M 1925 3700 
Q 1725 3550 1550 3350 
L 2950 3350 
Q 2875 3150 2700 2875 
Q 2525 2600 2300 2300 
Q 2500 2200 2712 2075 
Q 2925 1950 3275 1725 
Q 3125 1575 2950 1325 
Q 2700 1525 2475 1662 
Q 2250 1800 1950 1950 
Q 1575 1650 1150 1375 
L 2800 1375 
Q 2775 950 2775 500 
Q 2775 50 2800 -450 
L 2325 -450 
L 2325 -50 
L 1325 -50 
L 1325 -575 
L 875 -575 
Q 900 -75 900 275 
L 900 1175 
Q 675 1075 550 1000 
Q 400 1225 225 1400 
Q 625 1550 975 1762 
Q 1325 1975 1550 2200 
Q 1300 2350 1075 2475 
Q 1175 2625 1350 2800 
Q 1625 2650 1925 2500 
Q 2150 2750 2300 3000 
L 1300 3000 
Q 1200 2875 1025 2687 
Q 850 2500 650 2275 
Q 475 2425 250 2575 
Q 650 2875 937 3237 
Q 1225 3600 1375 3925 
Q 1650 3800 1925 3700 
z
M 4150 4400 
Q 3775 4400 3375 4375 
L 3375 4825 
Q 3750 4800 4200 4800 
L 5300 4800 
Q 5600 4800 6000 4825 
L 6000 4375 
Q 5625 4400 5300 4400 
L 4950 4400 
Q 4850 3975 4725 3525 
L 5750 3525 
Q 5725 3125 5725 2775 
L 5725 1625 
Q 5725 1300 5750 825 
L 5300 825 
L 5300 3175 
L 3925 3175 
L 3925 800 
L 3450 800 
Q 3475 1275 3475 1650 
L 3475 2800 
Q 3475 3175 3450 3525 
L 4300 3525 
Q 4400 4025 4450 4400 
L 4150 4400 
z
M 2050 5100 
Q 2100 4825 2200 4475 
L 3225 4475 
Q 3200 4275 3200 4075 
Q 3200 3875 3225 3675 
L 2775 3675 
L 2775 4100 
L 875 4100 
L 875 3500 
L 400 3500 
Q 425 3775 425 4000 
Q 425 4250 400 4475 
L 1650 4475 
Q 1550 4750 1475 5000 
Q 1800 5050 2050 5100 
z
M 4925 2725 
Q 4850 2425 4837 2025 
Q 4825 1625 4712 1175 
Q 4600 725 4262 250 
Q 3925 -225 3250 -675 
Q 3050 -425 2850 -250 
Q 3375 -25 3687 262 
Q 4000 550 4162 937 
Q 4325 1325 4350 1750 
Q 4375 2175 4375 2775 
Q 4575 2750 4925 2725 
z
M 2325 325 
L 2325 1025 
L 1325 1025 
L 1325 325 
L 2325 325 
z
M 5075 800 
Q 5300 575 5487 400 
Q 5675 225 6025 -100 
Q 5800 -275 5600 -500 
Q 5450 -275 5275 -87 
Q 5100 100 4675 400 
Q 4875 575 5075 800 
z
" transform="scale(0.015625)"/>
      </defs>
      <use xlink:href="#SimHei-878d"/>
      <use xlink:href="#SimHei-8d44" transform="translate(100 0)"/>
      <use xlink:href="#SimHei-4f59" transform="translate(200 0)"/>
      <use xlink:href="#SimHei-989d" transform="translate(300 0)"/>
     </g>
    </g>
    <g id="line2d_40">
     <path d="M 38.2 58.547656 
L 48.2 58.547656 
L 58.2 58.547656 
" style="fill: none; stroke: #00bfbf; stroke-width: 2; stroke-linecap: square"/>
    </g>
    <g id="text_21">
     <!-- 汇率 -->
     <g style="fill: #c9d1d9" transform="translate(66.2 62.047656) scale(0.1 -0.1)">
      <defs>
       <path id="SimHei-6c47" d="M 4700 4675 
Q 5200 4675 5775 4700 
L 5775 4225 
Q 5200 4250 4700 4250 
L 2950 4250 
L 2950 100 
L 4850 100 
Q 5375 100 5950 125 
L 5950 -375 
Q 5375 -350 4950 -350 
L 2450 -350 
Q 2475 400 2475 825 
L 2475 3625 
Q 2475 4200 2450 4675 
L 4700 4675 
z
M 2175 1550 
Q 1525 525 1300 175 
Q 1075 -175 825 -525 
Q 600 -275 375 -175 
Q 725 225 1062 675 
Q 1400 1125 1800 1900 
Q 1925 1750 2175 1550 
z
M 625 3425 
Q 1175 3150 1800 2750 
Q 1675 2625 1500 2300 
Q 975 2700 350 3000 
Q 475 3150 625 3425 
z
M 950 5050 
Q 1450 4725 2025 4275 
Q 1800 4050 1675 3875 
Q 1175 4350 650 4675 
Q 850 4900 950 5050 
z
" transform="scale(0.015625)"/>
       <path id="SimHei-7387" d="M 3325 5150 
Q 3425 4900 3550 4525 
L 4800 4525 
Q 5250 4525 5800 4550 
L 5800 4125 
Q 5250 4175 4775 4175 
L 2800 4175 
Q 2975 4050 3300 3900 
Q 3075 3750 2875 3537 
Q 2675 3325 2475 3125 
L 3275 3125 
Q 3575 3425 3775 3775 
Q 4000 3600 4275 3425 
Q 3950 3250 3600 2875 
Q 3250 2500 2625 2000 
L 3850 2100 
Q 3725 2250 3600 2425 
Q 3750 2475 4000 2650 
Q 4250 2350 4700 1700 
Q 4475 1625 4225 1450 
Q 4175 1600 4025 1775 
Q 3700 1750 3425 1750 
L 3425 1050 
L 5150 1050 
Q 5675 1050 6100 1075 
L 6100 650 
Q 5700 675 5125 675 
L 3425 675 
L 3425 175 
Q 3425 -300 3450 -625 
L 2900 -625 
Q 2925 -300 2925 175 
L 2925 675 
L 1325 675 
Q 825 675 325 650 
L 325 1075 
Q 825 1050 1350 1050 
L 2925 1050 
L 2925 1700 
Q 2700 1675 2475 1637 
Q 2250 1600 2025 1525 
Q 1950 1775 1850 2000 
Q 2075 2025 2325 2200 
Q 2575 2375 2975 2800 
Q 2300 2725 2025 2625 
Q 1975 2875 1850 3175 
Q 2075 3175 2325 3487 
Q 2575 3800 2750 4175 
L 1700 4175 
Q 1150 4175 650 4125 
L 650 4550 
Q 1150 4525 1550 4525 
L 2975 4525 
Q 2900 4825 2800 5025 
Q 3025 5075 3325 5150 
z
M 1625 2575 
Q 1725 2400 1825 2200 
Q 1575 2050 1325 1862 
Q 1075 1675 800 1425 
Q 625 1675 475 1875 
Q 800 2025 1100 2212 
Q 1400 2400 1625 2575 
z
M 4850 2650 
Q 5125 2475 5337 2337 
Q 5550 2200 5875 1950 
Q 5675 1800 5500 1600 
Q 5300 1775 5062 1975 
Q 4825 2175 4575 2325 
Q 4725 2475 4850 2650 
z
M 5725 3525 
Q 5550 3450 5300 3262 
Q 5050 3075 4800 2825 
Q 4625 3050 4475 3175 
Q 4700 3325 4875 3487 
Q 5050 3650 5300 3925 
Q 5525 3700 5725 3525 
z
M 1050 3850 
Q 1425 3600 1775 3275 
Q 1575 3100 1425 2925 
Q 1075 3300 675 3525 
Q 875 3700 1050 3850 
z
" transform="scale(0.015625)"/>
      </defs>
      <use xlink:href="#SimHei-6c47"/>
      <use xlink:href="#SimHei-7387" transform="translate(100 0)"/>
     </g>
    </g>
    <g id="line2d_41">
     <path d="M 38.2 72.883594 
L 48.2 72.883594 
L 58.2 72.883594 
" style="fill: none; stroke: #ffffff; stroke-width: 2; stroke-linecap: square"/>
    </g>
    <g id="text_22">
     <!-- 中美国债利差 -->
     <g style="fill: #c9d1d9" transform="translate(66.2 76.383594) scale(0.1 -0.1)">
      <defs>
       <path id="SimHei-4e2d" d="M 3475 5200 
Q 3450 4500 3450 3875 
L 5625 3875 
Q 5600 3375 5600 2500 
Q 5600 1650 5625 1225 
L 5075 1225 
L 5075 1600 
L 3450 1600 
L 3450 525 
Q 3450 225 3475 -600 
L 2875 -600 
Q 2925 -150 2925 450 
L 2925 1600 
L 1300 1600 
L 1300 1225 
L 750 1225 
Q 775 1600 775 2500 
Q 775 3425 750 3875 
L 2925 3875 
Q 2925 4550 2900 5200 
L 3475 5200 
z
M 5075 2000 
L 5075 3475 
L 3450 3475 
L 3450 2000 
L 5075 2000 
z
M 2925 2000 
L 2925 3475 
L 1300 3475 
L 1300 2000 
L 2925 2000 
z
" transform="scale(0.015625)"/>
       <path id="SimHei-7f8e" d="M 4650 5000 
Q 4525 4900 4150 4350 
L 4800 4350 
Q 5300 4350 5575 4375 
L 5575 3950 
Q 5300 3975 4800 3975 
L 3450 3975 
L 3450 3375 
L 4475 3375 
Q 4875 3375 5250 3400 
L 5250 3000 
Q 4875 3025 4475 3025 
L 3450 3025 
L 3450 2450 
L 5025 2450 
Q 5500 2450 5900 2475 
L 5900 2050 
Q 5525 2075 5025 2075 
L 1425 2075 
Q 900 2075 525 2050 
L 525 2475 
Q 900 2450 1425 2450 
L 3000 2450 
L 3000 3025 
L 2050 3025 
Q 1625 3025 1200 3000 
L 1200 3400 
Q 1625 3375 2050 3375 
L 3000 3375 
L 3000 3975 
L 1725 3975 
Q 1325 3975 850 3950 
L 850 4375 
Q 1325 4350 1725 4350 
L 2250 4350 
Q 2100 4625 1800 4975 
Q 2000 5100 2175 5225 
L 2700 4550 
Q 2475 4450 2325 4350 
L 3675 4350 
Q 3900 4700 4150 5275 
Q 4350 5125 4650 5000 
z
M 525 -225 
Q 950 -175 1425 -25 
Q 1900 125 2275 412 
Q 2650 700 2800 1050 
L 1875 1050 
Q 1325 1050 725 1025 
L 725 1450 
Q 1325 1425 1875 1425 
L 2900 1425 
Q 2925 1750 2925 1975 
Q 3250 1875 3500 1875 
Q 3425 1650 3375 1425 
L 4600 1425 
Q 5250 1425 5725 1450 
L 5725 1025 
Q 5250 1050 4625 1050 
L 3600 1050 
Q 3900 700 4187 500 
Q 4475 300 4700 200 
Q 4925 100 5225 12 
Q 5525 -75 6050 -150 
Q 5900 -375 5750 -675 
Q 5175 -550 4775 -362 
Q 4375 -175 3962 137 
Q 3550 450 3225 900 
Q 3000 525 2787 300 
Q 2575 75 2250 -125 
Q 1925 -325 1575 -462 
Q 1225 -600 825 -700 
Q 750 -475 525 -225 
z
" transform="scale(0.015625)"/>
       <path id="SimHei-56fd" d="M 5775 4975 
Q 5750 4350 5750 3575 
L 5750 900 
Q 5750 125 5775 -625 
L 5275 -625 
L 5275 -275 
L 1125 -275 
L 1125 -650 
L 625 -650 
Q 650 125 650 950 
L 650 3575 
Q 650 4325 625 4975 
L 5775 4975 
z
M 5275 100 
L 5275 4600 
L 1125 4600 
L 1125 100 
L 5275 100 
z
M 3975 3925 
Q 4350 3925 4775 3950 
L 4775 3500 
Q 4400 3525 3975 3525 
L 3350 3525 
L 3350 2700 
L 3800 2700 
Q 4250 2700 4650 2725 
L 4650 2275 
Q 4250 2300 3800 2300 
L 3350 2300 
L 3350 1175 
L 4050 1175 
Q 4500 1175 4900 1200 
L 4900 750 
Q 4525 775 4050 775 
L 2350 775 
Q 1925 775 1500 750 
L 1500 1200 
Q 1925 1175 2350 1175 
L 2900 1175 
L 2900 2300 
L 2550 2300 
Q 2125 2300 1750 2275 
L 1750 2725 
Q 2125 2700 2550 2700 
L 2900 2700 
L 2900 3525 
L 2525 3525 
Q 2075 3525 1650 3500 
L 1650 3950 
Q 2075 3925 2525 3925 
L 3975 3925 
z
M 4050 2125 
Q 4175 2000 4550 1600 
Q 4300 1450 4125 1325 
Q 4050 1425 3700 1850 
Q 3900 2000 4050 2125 
z
" transform="scale(0.015625)"/>
       <path id="SimHei-503a" d="M 3750 4600 
Q 3750 4900 3725 5200 
L 4275 5200 
Q 4250 4875 4250 4600 
L 5000 4600 
Q 5550 4600 5800 4625 
L 5800 4200 
Q 5525 4225 5000 4225 
L 4250 4225 
L 4250 3850 
L 4875 3850 
Q 5250 3850 5625 3875 
L 5625 3450 
Q 5325 3475 4875 3475 
L 4250 3475 
L 4250 3100 
L 5150 3100 
Q 5725 3100 6050 3125 
L 6050 2700 
Q 5675 2725 5150 2725 
L 2875 2725 
Q 2400 2725 2000 2700 
L 2000 3125 
Q 2375 3100 2850 3100 
L 3750 3100 
L 3750 3475 
L 3325 3475 
Q 2850 3475 2500 3450 
L 2500 3875 
Q 2850 3850 3300 3850 
L 3750 3850 
L 3750 4225 
L 3225 4225 
Q 2675 4225 2300 4200 
L 2300 4625 
Q 2650 4600 3125 4600 
L 3750 4600 
z
M 250 2600 
Q 500 2875 887 3550 
Q 1275 4225 1500 5075 
Q 1750 4950 2100 4850 
Q 1900 4625 1550 3775 
L 1550 800 
Q 1550 -25 1575 -500 
L 1050 -500 
Q 1075 0 1075 825 
L 1075 2950 
Q 775 2450 625 2225 
L 250 2600 
z
M 5650 2300 
Q 5625 2100 5625 1550 
Q 5625 1025 5650 775 
L 5150 775 
L 5150 1925 
L 2975 1925 
L 2975 700 
L 2475 700 
Q 2500 1075 2500 1550 
Q 2500 2050 2475 2300 
L 5650 2300 
z
M 1950 -150 
Q 3250 25 3562 562 
Q 3875 1100 3800 1650 
L 4350 1600 
Q 4275 600 3825 112 
Q 3375 -375 2250 -600 
Q 2125 -350 1950 -150 
z
M 4675 675 
Q 5075 475 5412 300 
Q 5750 125 6050 -75 
Q 5900 -250 5750 -525 
Q 4875 125 4400 300 
Q 4525 500 4675 675 
z
" transform="scale(0.015625)"/>
       <path id="SimHei-5229" d="M 2400 2650 
Q 2950 2150 3500 1525 
Q 3325 1375 3125 1150 
Q 2775 1675 2400 2075 
L 2400 225 
Q 2400 -375 2425 -675 
L 1875 -675 
Q 1900 -350 1900 225 
L 1900 1975 
Q 1625 1450 1375 1100 
Q 1125 750 725 275 
Q 575 525 300 700 
Q 850 1150 1287 1837 
Q 1725 2525 1850 2950 
L 1375 2950 
Q 775 2950 500 2925 
L 500 3400 
Q 800 3375 1375 3375 
L 1900 3375 
L 1900 4350 
Q 1400 4250 825 4150 
Q 750 4400 625 4625 
Q 1050 4650 1800 4800 
Q 2550 4950 3225 5175 
Q 3350 4875 3550 4650 
Q 3050 4575 2400 4450 
L 2400 3375 
L 2825 3375 
Q 3350 3375 3750 3400 
L 3750 2925 
Q 3350 2950 2850 2950 
L 2400 2950 
L 2400 2650 
z
M 5775 5125 
Q 5750 4875 5750 4275 
L 5750 -100 
Q 5750 -400 5512 -487 
Q 5275 -575 4675 -675 
Q 4600 -300 4500 -75 
Q 5025 -100 5137 -50 
Q 5250 0 5250 150 
L 5250 4300 
Q 5250 4650 5225 5125 
L 5775 5125 
z
M 4625 4100 
Q 4600 3800 4600 3300 
L 4600 1725 
Q 4600 1200 4625 825 
L 4075 825 
Q 4100 1275 4100 1725 
L 4100 3300 
Q 4100 3700 4075 4100 
L 4625 4100 
z
" transform="scale(0.015625)"/>
       <path id="SimHei-5dee" d="M 4725 4975 
Q 4500 4725 4250 4275 
L 4850 4275 
Q 5450 4275 5825 4300 
L 5825 3850 
Q 5425 3875 4850 3875 
L 3275 3875 
Q 3225 3600 3150 3275 
L 4525 3275 
Q 5075 3275 5525 3300 
L 5525 2850 
Q 5075 2875 4500 2875 
L 3050 2875 
Q 2975 2650 2850 2325 
L 5125 2325 
Q 5675 2325 6025 2350 
L 6025 1900 
Q 5700 1925 5150 1925 
L 2650 1925 
Q 2425 1550 2250 1300 
Q 2650 1275 3100 1275 
L 4525 1275 
Q 4975 1275 5350 1300 
L 5350 850 
Q 4975 875 4575 875 
L 3925 875 
L 3925 -50 
L 5000 -50 
Q 5200 -50 5900 -25 
L 5900 -500 
Q 5275 -475 5025 -475 
L 2100 -475 
Q 1700 -475 1400 -500 
L 1400 -25 
Q 1775 -50 2125 -50 
L 3425 -50 
L 3425 875 
L 3100 875 
Q 2625 875 2175 850 
L 2175 1200 
Q 1925 875 1487 475 
Q 1050 75 625 -250 
Q 425 -25 200 150 
Q 750 475 1262 925 
Q 1775 1375 2100 1925 
L 1325 1925 
Q 750 1925 375 1900 
L 375 2350 
Q 750 2325 1350 2325 
L 2325 2325 
Q 2450 2575 2550 2875 
L 1725 2875 
Q 1375 2875 1000 2850 
L 1000 3300 
Q 1500 3275 1700 3275 
L 2650 3275 
Q 2725 3575 2775 3875 
L 1500 3875 
Q 1100 3875 650 3850 
L 650 4300 
Q 1025 4275 1425 4275 
L 2275 4275 
Q 2075 4675 1850 4950 
Q 2025 5050 2250 5225 
Q 2450 4975 2725 4550 
Q 2525 4450 2325 4275 
L 3750 4275 
Q 4000 4700 4150 5250 
Q 4400 5100 4725 4975 
z
" transform="scale(0.015625)"/>
      </defs>
      <use xlink:href="#SimHei-4e2d"/>
      <use xlink:href="#SimHei-7f8e" transform="translate(100 0)"/>
      <use xlink:href="#SimHei-56fd" transform="translate(200 0)"/>
      <use xlink:href="#SimHei-503a" transform="translate(300 0)"/>
      <use xlink:href="#SimHei-5229" transform="translate(400 0)"/>
      <use xlink:href="#SimHei-5dee" transform="translate(500 0)"/>
     </g>
    </g>
    <g id="line2d_42">
     <path d="M 38.2 86.133594 
L 48.2 86.133594 
L 58.2 86.133594 
" style="fill: none; stroke: #ff0000; stroke-width: 2; stroke-linecap: square"/>
    </g>
    <g id="text_23">
     <!-- 500ETF -->
     <g style="fill: #c9d1d9" transform="translate(66.2 89.633594) scale(0.1 -0.1)">
      <defs>
       <path id="SimHei-45" d="M 2900 125 
L 350 125 
L 350 4400 
L 2775 4400 
L 2775 3925 
L 925 3925 
L 925 2600 
L 2625 2600 
L 2625 2125 
L 925 2125 
L 925 600 
L 2900 600 
L 2900 125 
z
" transform="scale(0.015625)"/>
       <path id="SimHei-54" d="M 2850 3925 
L 1850 3925 
L 1850 125 
L 1275 125 
L 1275 3925 
L 275 3925 
L 275 4400 
L 2850 4400 
L 2850 3925 
z
" transform="scale(0.015625)"/>
       <path id="SimHei-46" d="M 2925 3925 
L 875 3925 
L 875 2525 
L 2425 2525 
L 2425 2050 
L 875 2050 
L 875 125 
L 300 125 
L 300 4400 
L 2925 4400 
L 2925 3925 
z
" transform="scale(0.015625)"/>
      </defs>
      <use xlink:href="#SimHei-35"/>
      <use xlink:href="#SimHei-30" transform="translate(50 0)"/>
      <use xlink:href="#SimHei-30" transform="translate(100 0)"/>
      <use xlink:href="#SimHei-45" transform="translate(150 0)"/>
      <use xlink:href="#SimHei-54" transform="translate(200 0)"/>
      <use xlink:href="#SimHei-46" transform="translate(250 0)"/>
     </g>
    </g>
   </g>
  </g>
 </g>
 <defs>
  <clipPath id="pf03df6689f">
   <rect x="29.2" y="30.977344" width="1025.28" height="525.6"/>
  </clipPath>
 </defs>
</svg>
