<?xml version="1.0" encoding="utf-8" standalone="no"?>
<!DOCTYPE svg PUBLIC "-//W3C//DTD SVG 1.1//EN"
  "http://www.w3.org/Graphics/SVG/1.1/DTD/svg11.dtd">
<svg xmlns:xlink="http://www.w3.org/1999/xlink" width="1145.68pt" height="677.525pt" viewBox="0 0 1145.68 677.525" xmlns="http://www.w3.org/2000/svg" version="1.1">
 <metadata>
  <rdf:RDF xmlns:dc="http://purl.org/dc/elements/1.1/" xmlns:cc="http://creativecommons.org/ns#" xmlns:rdf="http://www.w3.org/1999/02/22-rdf-syntax-ns#">
   <cc:Work>
    <dc:type rdf:resource="http://purl.org/dc/dcmitype/StillImage"/>
    <dc:date>2026-07-13T11:19:04.680992</dc:date>
    <dc:format>image/svg+xml</dc:format>
    <dc:creator>
     <cc:Agent>
      <dc:title>Matplotlib v3.10.9, https://matplotlib.org/</dc:title>
     </cc:Agent>
    </dc:creator>
   </cc:Work>
  </rdf:RDF>
 </metadata>
 <defs>
  <style type="text/css">*{stroke-linejoin: round; stroke-linecap: butt}</style>
 </defs>
 <g id="figure_1">
  <g id="patch_1">
   <path d="M 0 677.525 
L 1145.68 677.525 
L 1145.68 0 
L 0 0 
z
" style="fill: #0d1117"/>
  </g>
  <g id="axes_1">
   <g id="patch_2">
    <path d="M 80.1976 623.323 
L 389.184024 623.323 
L 389.184024 47.42675 
L 80.1976 47.42675 
z
" style="fill: #161b22"/>
   </g>
   <g id="patch_3">
    <path d="M 312.206546 597.145898 
L 375.139187 597.145898 
L 375.139187 549.551166 
L 312.206546 549.551166 
z
" clip-path="url(#p3ae99e5888)" style="fill: #3fb950"/>
   </g>
   <g id="patch_4">
    <path d="M 312.206546 517.821345 
L 361.004075 517.821345 
L 361.004075 470.226614 
L 312.206546 470.226614 
z
" clip-path="url(#p3ae99e5888)" style="fill: #3fb950"/>
   </g>
   <g id="patch_5">
    <path d="M 312.206546 438.496793 
L 353.745324 438.496793 
L 353.745324 390.902062 
L 312.206546 390.902062 
z
" clip-path="url(#p3ae99e5888)" style="fill: #3fb950"/>
   </g>
   <g id="patch_6">
    <path d="M 312.206546 359.172241 
L 327.565543 359.172241 
L 327.565543 311.577509 
L 312.206546 311.577509 
z
" clip-path="url(#p3ae99e5888)" style="fill: #3fb950"/>
   </g>
   <g id="patch_7">
    <path d="M 312.206546 279.847688 
L 323.110032 279.847688 
L 323.110032 232.252957 
L 312.206546 232.252957 
z
" clip-path="url(#p3ae99e5888)" style="fill: #3fb950"/>
   </g>
   <g id="patch_8">
    <path d="M 312.206546 200.523136 
L 322.3788 200.523136 
L 322.3788 152.928405 
L 312.206546 152.928405 
z
" clip-path="url(#p3ae99e5888)" style="fill: #3fb950"/>
   </g>
   <g id="patch_9">
    <path d="M 312.206546 121.198584 
L 305.511768 121.198584 
L 305.511768 73.603852 
L 312.206546 73.603852 
z
" clip-path="url(#p3ae99e5888)" style="fill: #f85149"/>
   </g>
   <g id="matplotlib.axis_1">
    <g id="xtick_1">
     <g id="line2d_1">
      <path d="M 110.601364 623.323 
L 110.601364 47.42675 
" clip-path="url(#p3ae99e5888)" style="fill: none; stroke-dasharray: 2.96,1.28; stroke-dashoffset: 0; stroke: #21262d; stroke-opacity: 0.3; stroke-width: 0.8"/>
     </g>
     <g id="line2d_2">
      <defs>
       <path id="mcd18d9ab43" d="M 0 0 
L 0 3.5 
" style="stroke: #c9d1d9; stroke-width: 0.8"/>
      </defs>
      <g>
       <use xlink:href="#mcd18d9ab43" x="110.601364" y="623.323" style="fill: #c9d1d9; stroke: #c9d1d9; stroke-width: 0.8"/>
      </g>
     </g>
     <g id="text_1">
      <!-- −20 -->
      <g style="fill: #c9d1d9" transform="translate(100.601364 637.198) scale(0.1 -0.1)">
       <defs>
        <path id="SimHei-2212" d="M 5600 -325 
L 700 -325 
L 700 4825 
L 5600 4825 
L 5600 -325 
z
M 5400 4650 
L 875 4650 
L 875 -150 
L 5400 -150 
L 5400 4650 
z
" transform="scale(0.015625)"/>
        <path id="SimHei-32" d="M 300 250 
Q 325 625 650 925 
Q 975 1225 1475 1862 
Q 1975 2500 2125 2850 
Q 2275 3200 2237 3450 
Q 2200 3700 2000 3862 
Q 1800 4025 1537 4000 
Q 1275 3975 1037 3800 
Q 800 3625 675 3275 
L 200 3350 
Q 400 3925 712 4187 
Q 1025 4450 1450 4475 
Q 1700 4500 1900 4462 
Q 2100 4425 2312 4287 
Q 2525 4150 2662 3875 
Q 2800 3600 2762 3212 
Q 2725 2825 2375 2287 
Q 2025 1750 1025 600 
L 2825 600 
L 2825 150 
L 300 150 
L 300 250 
z
" transform="scale(0.015625)"/>
        <path id="SimHei-30" d="M 225 2537 
Q 250 3200 412 3587 
Q 575 3975 875 4225 
Q 1175 4475 1612 4475 
Q 2050 4475 2375 4112 
Q 2700 3750 2800 3200 
Q 2900 2650 2862 1937 
Q 2825 1225 2612 775 
Q 2400 325 1975 150 
Q 1550 -25 1125 187 
Q 700 400 525 750 
Q 350 1100 275 1487 
Q 200 1875 225 2537 
z
M 750 2687 
Q 675 2000 800 1462 
Q 925 925 1212 700 
Q 1500 475 1800 612 
Q 2100 750 2237 1162 
Q 2375 1575 2375 2062 
Q 2375 2550 2337 2950 
Q 2300 3350 2112 3675 
Q 1925 4000 1612 4012 
Q 1300 4025 1062 3700 
Q 825 3375 750 2687 
z
" transform="scale(0.015625)"/>
       </defs>
       <use xlink:href="#SimHei-2212"/>
       <use xlink:href="#SimHei-32" transform="translate(100 0)"/>
       <use xlink:href="#SimHei-30" transform="translate(150 0)"/>
      </g>
     </g>
    </g>
    <g id="xtick_2">
     <g id="line2d_3">
      <path d="M 161.00266 623.323 
L 161.00266 47.42675 
" clip-path="url(#p3ae99e5888)" style="fill: none; stroke-dasharray: 2.96,1.28; stroke-dashoffset: 0; stroke: #21262d; stroke-opacity: 0.3; stroke-width: 0.8"/>
     </g>
     <g id="line2d_4">
      <g>
       <use xlink:href="#mcd18d9ab43" x="161.00266" y="623.323" style="fill: #c9d1d9; stroke: #c9d1d9; stroke-width: 0.8"/>
      </g>
     </g>
     <g id="text_2">
      <!-- −15 -->
      <g style="fill: #c9d1d9" transform="translate(151.00266 637.198) scale(0.1 -0.1)">
       <defs>
        <path id="SimHei-31" d="M 1400 3600 
Q 1075 3275 575 2975 
L 575 3450 
Q 1200 3875 1600 4450 
L 1900 4450 
L 1900 150 
L 1400 150 
L 1400 3600 
z
" transform="scale(0.015625)"/>
        <path id="SimHei-35" d="M 550 1325 
Q 725 650 1150 575 
Q 1575 500 1837 662 
Q 2100 825 2212 1087 
Q 2325 1350 2312 1675 
Q 2300 2000 2137 2225 
Q 1975 2450 1725 2525 
Q 1475 2600 1162 2525 
Q 850 2450 650 2175 
L 225 2225 
Q 275 2375 700 4375 
L 2675 4375 
L 2675 3925 
L 1075 3925 
Q 950 3250 825 2850 
Q 1200 3025 1525 3012 
Q 1850 3000 2150 2862 
Q 2450 2725 2587 2487 
Q 2725 2250 2787 2012 
Q 2850 1775 2837 1500 
Q 2825 1225 2725 937 
Q 2625 650 2425 462 
Q 2225 275 1937 162 
Q 1650 50 1275 75 
Q 900 100 562 350 
Q 225 600 100 1200 
L 550 1325 
z
" transform="scale(0.015625)"/>
       </defs>
       <use xlink:href="#SimHei-2212"/>
       <use xlink:href="#SimHei-31" transform="translate(100 0)"/>
       <use xlink:href="#SimHei-35" transform="translate(150 0)"/>
      </g>
     </g>
    </g>
    <g id="xtick_3">
     <g id="line2d_5">
      <path d="M 211.403955 623.323 
L 211.403955 47.42675 
" clip-path="url(#p3ae99e5888)" style="fill: none; stroke-dasharray: 2.96,1.28; stroke-dashoffset: 0; stroke: #21262d; stroke-opacity: 0.3; stroke-width: 0.8"/>
     </g>
     <g id="line2d_6">
      <g>
       <use xlink:href="#mcd18d9ab43" x="211.403955" y="623.323" style="fill: #c9d1d9; stroke: #c9d1d9; stroke-width: 0.8"/>
      </g>
     </g>
     <g id="text_3">
      <!-- −10 -->
      <g style="fill: #c9d1d9" transform="translate(201.403955 637.198) scale(0.1 -0.1)">
       <use xlink:href="#SimHei-2212"/>
       <use xlink:href="#SimHei-31" transform="translate(100 0)"/>
       <use xlink:href="#SimHei-30" transform="translate(150 0)"/>
      </g>
     </g>
    </g>
    <g id="xtick_4">
     <g id="line2d_7">
      <path d="M 261.805251 623.323 
L 261.805251 47.42675 
" clip-path="url(#p3ae99e5888)" style="fill: none; stroke-dasharray: 2.96,1.28; stroke-dashoffset: 0; stroke: #21262d; stroke-opacity: 0.3; stroke-width: 0.8"/>
     </g>
     <g id="line2d_8">
      <g>
       <use xlink:href="#mcd18d9ab43" x="261.805251" y="623.323" style="fill: #c9d1d9; stroke: #c9d1d9; stroke-width: 0.8"/>
      </g>
     </g>
     <g id="text_4">
      <!-- −5 -->
      <g style="fill: #c9d1d9" transform="translate(254.305251 637.198) scale(0.1 -0.1)">
       <use xlink:href="#SimHei-2212"/>
       <use xlink:href="#SimHei-35" transform="translate(100 0)"/>
      </g>
     </g>
    </g>
    <g id="xtick_5">
     <g id="line2d_9">
      <path d="M 312.206546 623.323 
L 312.206546 47.42675 
" clip-path="url(#p3ae99e5888)" style="fill: none; stroke-dasharray: 2.96,1.28; stroke-dashoffset: 0; stroke: #21262d; stroke-opacity: 0.3; stroke-width: 0.8"/>
     </g>
     <g id="line2d_10">
      <g>
       <use xlink:href="#mcd18d9ab43" x="312.206546" y="623.323" style="fill: #c9d1d9; stroke: #c9d1d9; stroke-width: 0.8"/>
      </g>
     </g>
     <g id="text_5">
      <!-- 0 -->
      <g style="fill: #c9d1d9" transform="translate(309.706546 637.198) scale(0.1 -0.1)">
       <use xlink:href="#SimHei-30"/>
      </g>
     </g>
    </g>
    <g id="xtick_6">
     <g id="line2d_11">
      <path d="M 362.607842 623.323 
L 362.607842 47.42675 
" clip-path="url(#p3ae99e5888)" style="fill: none; stroke-dasharray: 2.96,1.28; stroke-dashoffset: 0; stroke: #21262d; stroke-opacity: 0.3; stroke-width: 0.8"/>
     </g>
     <g id="line2d_12">
      <g>
       <use xlink:href="#mcd18d9ab43" x="362.607842" y="623.323" style="fill: #c9d1d9; stroke: #c9d1d9; stroke-width: 0.8"/>
      </g>
     </g>
     <g id="text_6">
      <!-- 5 -->
      <g style="fill: #c9d1d9" transform="translate(360.107842 637.198) scale(0.1 -0.1)">
       <use xlink:href="#SimHei-35"/>
      </g>
     </g>
    </g>
   </g>
   <g id="matplotlib.axis_2">
    <g id="ytick_1">
     <g id="line2d_13">
      <path d="M 80.1976 573.348532 
L 389.184024 573.348532 
" clip-path="url(#p3ae99e5888)" style="fill: none; stroke-dasharray: 2.96,1.28; stroke-dashoffset: 0; stroke: #21262d; stroke-opacity: 0.4; stroke-width: 0.8"/>
     </g>
     <g id="line2d_14">
      <defs>
       <path id="m3a63847218" d="M 0 0 
L -3.5 0 
" style="stroke: #c9d1d9; stroke-width: 0.8"/>
      </defs>
      <g>
       <use xlink:href="#m3a63847218" x="80.1976" y="573.348532" style="fill: #c9d1d9; stroke: #c9d1d9; stroke-width: 0.8"/>
      </g>
     </g>
     <g id="text_7">
      <!-- Financial -->
      <g style="fill: #c9d1d9" transform="translate(32.6976 576.442282) scale(0.09 -0.09)">
       <defs>
        <path id="SimHei-46" d="M 2925 3925 
L 875 3925 
L 875 2525 
L 2425 2525 
L 2425 2050 
L 875 2050 
L 875 125 
L 300 125 
L 300 4400 
L 2925 4400 
L 2925 3925 
z
" transform="scale(0.015625)"/>
        <path id="SimHei-69" d="M 1800 3725 
L 1300 3725 
L 1300 4375 
L 1800 4375 
L 1800 3725 
z
M 1800 125 
L 1300 125 
L 1300 2925 
L 1800 2925 
L 1800 125 
z
" transform="scale(0.015625)"/>
        <path id="SimHei-6e" d="M 2800 125 
L 2300 125 
L 2300 1925 
Q 2300 2225 2150 2400 
Q 2000 2575 1750 2575 
Q 1425 2575 1137 2237 
Q 850 1900 850 1400 
L 850 125 
L 350 125 
L 350 2925 
L 850 2925 
L 850 2400 
Q 1050 2675 1287 2825 
Q 1525 2975 1900 2975 
Q 2350 2975 2575 2725 
Q 2800 2475 2800 2100 
L 2800 125 
z
" transform="scale(0.015625)"/>
        <path id="SimHei-61" d="M 2875 125 
L 2275 125 
Q 2225 175 2200 262 
Q 2175 350 2175 475 
Q 2000 275 1750 175 
Q 1500 75 1225 75 
Q 825 75 550 275 
Q 275 475 275 850 
Q 275 1225 525 1450 
Q 775 1675 1300 1750 
Q 1650 1800 1912 1875 
Q 2175 1950 2175 2075 
Q 2175 2225 2062 2375 
Q 1950 2525 1575 2525 
Q 1275 2525 1137 2412 
Q 1000 2300 950 2100 
L 400 2100 
Q 450 2500 762 2737 
Q 1075 2975 1575 2975 
Q 2125 2975 2400 2725 
Q 2675 2475 2675 2025 
L 2675 650 
Q 2675 500 2725 375 
Q 2775 250 2875 125 
z
M 2175 1050 
L 2175 1550 
Q 2025 1500 1887 1462 
Q 1750 1425 1425 1375 
Q 1050 1325 937 1200 
Q 825 1075 825 900 
Q 825 750 937 637 
Q 1050 525 1275 525 
Q 1500 525 1762 650 
Q 2025 775 2175 1050 
z
" transform="scale(0.015625)"/>
        <path id="SimHei-63" d="M 2850 1250 
Q 2850 725 2487 400 
Q 2125 75 1575 75 
Q 1025 75 625 462 
Q 225 850 225 1525 
Q 225 2200 625 2587 
Q 1025 2975 1575 2975 
Q 2125 2975 2450 2687 
Q 2775 2400 2775 2000 
L 2225 2000 
Q 2200 2300 2012 2412 
Q 1825 2525 1575 2525 
Q 1275 2525 1025 2287 
Q 775 2050 775 1525 
Q 775 1000 1025 762 
Q 1275 525 1575 525 
Q 1900 525 2100 700 
Q 2300 875 2300 1250 
L 2850 1250 
z
" transform="scale(0.015625)"/>
        <path id="SimHei-6c" d="M 1825 125 
L 1325 125 
L 1325 4400 
L 1825 4400 
L 1825 125 
z
" transform="scale(0.015625)"/>
       </defs>
       <use xlink:href="#SimHei-46"/>
       <use xlink:href="#SimHei-69" transform="translate(50 0)"/>
       <use xlink:href="#SimHei-6e" transform="translate(100 0)"/>
       <use xlink:href="#SimHei-61" transform="translate(150 0)"/>
       <use xlink:href="#SimHei-6e" transform="translate(200 0)"/>
       <use xlink:href="#SimHei-63" transform="translate(250 0)"/>
       <use xlink:href="#SimHei-69" transform="translate(300 0)"/>
       <use xlink:href="#SimHei-61" transform="translate(350 0)"/>
       <use xlink:href="#SimHei-6c" transform="translate(400 0)"/>
      </g>
     </g>
    </g>
    <g id="ytick_2">
     <g id="line2d_15">
      <path d="M 80.1976 494.02398 
L 389.184024 494.02398 
" clip-path="url(#p3ae99e5888)" style="fill: none; stroke-dasharray: 2.96,1.28; stroke-dashoffset: 0; stroke: #21262d; stroke-opacity: 0.4; stroke-width: 0.8"/>
     </g>
     <g id="line2d_16">
      <g>
       <use xlink:href="#m3a63847218" x="80.1976" y="494.02398" style="fill: #c9d1d9; stroke: #c9d1d9; stroke-width: 0.8"/>
      </g>
     </g>
     <g id="text_8">
      <!-- Healthcare -->
      <g style="fill: #c9d1d9" transform="translate(28.1976 497.11773) scale(0.09 -0.09)">
       <defs>
        <path id="SimHei-48" d="M 2850 125 
L 2275 125 
L 2275 2125 
L 850 2125 
L 850 125 
L 275 125 
L 275 4400 
L 850 4400 
L 850 2600 
L 2275 2600 
L 2275 4400 
L 2850 4400 
L 2850 125 
z
" transform="scale(0.015625)"/>
        <path id="SimHei-65" d="M 2850 1075 
Q 2800 625 2450 350 
Q 2100 75 1625 75 
Q 1025 75 637 462 
Q 250 850 250 1525 
Q 250 2200 637 2587 
Q 1025 2975 1625 2975 
Q 2150 2975 2487 2637 
Q 2825 2300 2825 1525 
L 800 1525 
Q 800 975 1037 750 
Q 1275 525 1625 525 
Q 1900 525 2075 662 
Q 2250 800 2300 1075 
L 2850 1075 
z
M 2250 1925 
Q 2200 2275 2025 2412 
Q 1850 2550 1575 2550 
Q 1325 2550 1125 2412 
Q 925 2275 825 1925 
L 2250 1925 
z
" transform="scale(0.015625)"/>
        <path id="SimHei-74" d="M 2750 200 
Q 2625 150 2462 112 
Q 2300 75 2025 75 
Q 1575 75 1300 325 
Q 1025 575 1025 1025 
L 1025 2525 
L 175 2525 
L 175 2925 
L 1025 2925 
L 1025 3900 
L 1525 3900 
L 1525 2925 
L 2550 2925 
L 2550 2525 
L 1525 2525 
L 1525 1000 
Q 1525 800 1625 662 
Q 1725 525 2000 525 
Q 2275 525 2450 575 
Q 2625 625 2750 700 
L 2750 200 
z
" transform="scale(0.015625)"/>
        <path id="SimHei-68" d="M 2800 125 
L 2300 125 
L 2300 1925 
Q 2300 2225 2150 2400 
Q 2000 2575 1750 2575 
Q 1425 2575 1137 2237 
Q 850 1900 850 1400 
L 850 125 
L 350 125 
L 350 4400 
L 850 4400 
L 850 2400 
Q 1050 2675 1287 2825 
Q 1525 2975 1900 2975 
Q 2350 2975 2575 2725 
Q 2800 2475 2800 2100 
L 2800 125 
z
" transform="scale(0.015625)"/>
        <path id="SimHei-72" d="M 2500 2425 
Q 2025 2500 1700 2287 
Q 1375 2075 1150 1550 
L 1150 125 
L 650 125 
L 650 2925 
L 1150 2925 
L 1150 2200 
Q 1375 2600 1712 2787 
Q 2050 2975 2500 2975 
L 2500 2425 
z
" transform="scale(0.015625)"/>
       </defs>
       <use xlink:href="#SimHei-48"/>
       <use xlink:href="#SimHei-65" transform="translate(50 0)"/>
       <use xlink:href="#SimHei-61" transform="translate(100 0)"/>
       <use xlink:href="#SimHei-6c" transform="translate(150 0)"/>
       <use xlink:href="#SimHei-74" transform="translate(200 0)"/>
       <use xlink:href="#SimHei-68" transform="translate(250 0)"/>
       <use xlink:href="#SimHei-63" transform="translate(300 0)"/>
       <use xlink:href="#SimHei-61" transform="translate(350 0)"/>
       <use xlink:href="#SimHei-72" transform="translate(400 0)"/>
       <use xlink:href="#SimHei-65" transform="translate(450 0)"/>
      </g>
     </g>
    </g>
    <g id="ytick_3">
     <g id="line2d_17">
      <path d="M 80.1976 414.699427 
L 389.184024 414.699427 
" clip-path="url(#p3ae99e5888)" style="fill: none; stroke-dasharray: 2.96,1.28; stroke-dashoffset: 0; stroke: #21262d; stroke-opacity: 0.4; stroke-width: 0.8"/>
     </g>
     <g id="line2d_18">
      <g>
       <use xlink:href="#m3a63847218" x="80.1976" y="414.699427" style="fill: #c9d1d9; stroke: #c9d1d9; stroke-width: 0.8"/>
      </g>
     </g>
     <g id="text_9">
      <!-- Industrials -->
      <g style="fill: #c9d1d9" transform="translate(23.6976 417.793177) scale(0.09 -0.09)">
       <defs>
        <path id="SimHei-49" d="M 1850 125 
L 1275 125 
L 1275 4400 
L 1850 4400 
L 1850 125 
z
" transform="scale(0.015625)"/>
        <path id="SimHei-64" d="M 2750 125 
L 2250 125 
L 2250 500 
Q 2100 275 1900 175 
Q 1700 75 1425 75 
Q 925 75 575 437 
Q 225 800 225 1525 
Q 225 2250 575 2625 
Q 925 3000 1425 3000 
Q 1700 3000 1900 2887 
Q 2100 2775 2250 2550 
L 2250 4400 
L 2750 4400 
L 2750 125 
z
M 2250 1525 
Q 2250 2000 2037 2275 
Q 1825 2550 1525 2550 
Q 1150 2550 962 2275 
Q 775 2000 775 1525 
Q 775 1050 962 787 
Q 1150 525 1525 525 
Q 1825 525 2037 787 
Q 2250 1050 2250 1525 
z
" transform="scale(0.015625)"/>
        <path id="SimHei-75" d="M 2800 125 
L 2300 125 
L 2300 650 
Q 2100 375 1862 225 
Q 1625 75 1250 75 
Q 800 75 575 325 
Q 350 575 350 950 
L 350 2925 
L 850 2925 
L 850 1125 
Q 850 825 1000 650 
Q 1150 475 1400 475 
Q 1725 475 2012 812 
Q 2300 1150 2300 1650 
L 2300 2925 
L 2800 2925 
L 2800 125 
z
" transform="scale(0.015625)"/>
        <path id="SimHei-73" d="M 2750 900 
Q 2750 500 2437 287 
Q 2125 75 1650 75 
Q 1050 75 725 312 
Q 400 550 400 1000 
L 900 1000 
Q 900 700 1112 600 
Q 1325 500 1625 500 
Q 1925 500 2075 612 
Q 2225 725 2225 900 
Q 2225 1025 2100 1150 
Q 1975 1275 1475 1350 
Q 900 1425 687 1637 
Q 475 1850 475 2200 
Q 475 2500 762 2737 
Q 1050 2975 1600 2975 
Q 2100 2975 2387 2750 
Q 2675 2525 2675 2150 
L 2175 2150 
Q 2175 2375 2012 2462 
Q 1850 2550 1600 2550 
Q 1275 2550 1137 2437 
Q 1000 2325 1000 2175 
Q 1000 2000 1125 1900 
Q 1250 1800 1650 1750 
Q 2300 1650 2525 1437 
Q 2750 1225 2750 900 
z
" transform="scale(0.015625)"/>
       </defs>
       <use xlink:href="#SimHei-49"/>
       <use xlink:href="#SimHei-6e" transform="translate(50 0)"/>
       <use xlink:href="#SimHei-64" transform="translate(100 0)"/>
       <use xlink:href="#SimHei-75" transform="translate(150 0)"/>
       <use xlink:href="#SimHei-73" transform="translate(200 0)"/>
       <use xlink:href="#SimHei-74" transform="translate(250 0)"/>
       <use xlink:href="#SimHei-72" transform="translate(300 0)"/>
       <use xlink:href="#SimHei-69" transform="translate(350 0)"/>
       <use xlink:href="#SimHei-61" transform="translate(400 0)"/>
       <use xlink:href="#SimHei-6c" transform="translate(450 0)"/>
       <use xlink:href="#SimHei-73" transform="translate(500 0)"/>
      </g>
     </g>
    </g>
    <g id="ytick_4">
     <g id="line2d_19">
      <path d="M 80.1976 335.374875 
L 389.184024 335.374875 
" clip-path="url(#p3ae99e5888)" style="fill: none; stroke-dasharray: 2.96,1.28; stroke-dashoffset: 0; stroke: #21262d; stroke-opacity: 0.4; stroke-width: 0.8"/>
     </g>
     <g id="line2d_20">
      <g>
       <use xlink:href="#m3a63847218" x="80.1976" y="335.374875" style="fill: #c9d1d9; stroke: #c9d1d9; stroke-width: 0.8"/>
      </g>
     </g>
     <g id="text_10">
      <!-- Tech -->
      <g style="fill: #c9d1d9" transform="translate(55.1976 338.468625) scale(0.09 -0.09)">
       <defs>
        <path id="SimHei-54" d="M 2850 3925 
L 1850 3925 
L 1850 125 
L 1275 125 
L 1275 3925 
L 275 3925 
L 275 4400 
L 2850 4400 
L 2850 3925 
z
" transform="scale(0.015625)"/>
       </defs>
       <use xlink:href="#SimHei-54"/>
       <use xlink:href="#SimHei-65" transform="translate(50 0)"/>
       <use xlink:href="#SimHei-63" transform="translate(100 0)"/>
       <use xlink:href="#SimHei-68" transform="translate(150 0)"/>
      </g>
     </g>
    </g>
    <g id="ytick_5">
     <g id="line2d_21">
      <path d="M 80.1976 256.050323 
L 389.184024 256.050323 
" clip-path="url(#p3ae99e5888)" style="fill: none; stroke-dasharray: 2.96,1.28; stroke-dashoffset: 0; stroke: #21262d; stroke-opacity: 0.4; stroke-width: 0.8"/>
     </g>
     <g id="line2d_22">
      <g>
       <use xlink:href="#m3a63847218" x="80.1976" y="256.050323" style="fill: #c9d1d9; stroke: #c9d1d9; stroke-width: 0.8"/>
      </g>
     </g>
     <g id="text_11">
      <!-- Infrastructure -->
      <g style="fill: #c9d1d9" transform="translate(10.1976 259.144073) scale(0.09 -0.09)">
       <defs>
        <path id="SimHei-66" d="M 2850 3825 
Q 2725 3900 2550 3950 
Q 2375 4000 2100 4000 
Q 1825 4000 1725 3862 
Q 1625 3725 1625 3525 
L 1625 2925 
L 2650 2925 
L 2650 2525 
L 1625 2525 
L 1625 125 
L 1125 125 
L 1125 2525 
L 275 2525 
L 275 2925 
L 1125 2925 
L 1125 3500 
Q 1125 3950 1400 4200 
Q 1675 4450 2125 4450 
Q 2400 4450 2562 4412 
Q 2725 4375 2850 4325 
L 2850 3825 
z
" transform="scale(0.015625)"/>
       </defs>
       <use xlink:href="#SimHei-49"/>
       <use xlink:href="#SimHei-6e" transform="translate(50 0)"/>
       <use xlink:href="#SimHei-66" transform="translate(100 0)"/>
       <use xlink:href="#SimHei-72" transform="translate(150 0)"/>
       <use xlink:href="#SimHei-61" transform="translate(200 0)"/>
       <use xlink:href="#SimHei-73" transform="translate(250 0)"/>
       <use xlink:href="#SimHei-74" transform="translate(300 0)"/>
       <use xlink:href="#SimHei-72" transform="translate(350 0)"/>
       <use xlink:href="#SimHei-75" transform="translate(400 0)"/>
       <use xlink:href="#SimHei-63" transform="translate(450 0)"/>
       <use xlink:href="#SimHei-74" transform="translate(500 0)"/>
       <use xlink:href="#SimHei-75" transform="translate(550 0)"/>
       <use xlink:href="#SimHei-72" transform="translate(600 0)"/>
       <use xlink:href="#SimHei-65" transform="translate(650 0)"/>
      </g>
     </g>
    </g>
    <g id="ytick_6">
     <g id="line2d_23">
      <path d="M 80.1976 176.72577 
L 389.184024 176.72577 
" clip-path="url(#p3ae99e5888)" style="fill: none; stroke-dasharray: 2.96,1.28; stroke-dashoffset: 0; stroke: #21262d; stroke-opacity: 0.4; stroke-width: 0.8"/>
     </g>
     <g id="line2d_24">
      <g>
       <use xlink:href="#m3a63847218" x="80.1976" y="176.72577" style="fill: #c9d1d9; stroke: #c9d1d9; stroke-width: 0.8"/>
      </g>
     </g>
     <g id="text_12">
      <!-- Consumer_Discretionary -->
      <g style="fill: #c9d1d9" transform="translate(-25.8024 179.854677) scale(0.09 -0.09)">
       <defs>
        <path id="SimHei-43" d="M 2975 1825 
Q 2950 875 2575 475 
Q 2200 75 1675 75 
Q 1075 75 650 562 
Q 225 1050 225 2125 
Q 225 3300 637 3875 
Q 1050 4450 1700 4450 
Q 2250 4450 2612 4037 
Q 2975 3625 2950 2875 
L 2400 2875 
Q 2400 3425 2225 3700 
Q 2050 3975 1700 3975 
Q 1300 3975 1062 3562 
Q 825 3150 825 2175 
Q 825 1275 1062 912 
Q 1300 550 1675 550 
Q 1950 550 2175 812 
Q 2400 1075 2400 1825 
L 2975 1825 
z
" transform="scale(0.015625)"/>
        <path id="SimHei-6f" d="M 2925 1525 
Q 2925 875 2525 475 
Q 2125 75 1575 75 
Q 1025 75 625 475 
Q 225 875 225 1525 
Q 225 2175 625 2575 
Q 1025 2975 1575 2975 
Q 2125 2975 2525 2575 
Q 2925 2175 2925 1525 
z
M 2375 1525 
Q 2375 2025 2125 2275 
Q 1875 2525 1575 2525 
Q 1275 2525 1025 2275 
Q 775 2025 775 1525 
Q 775 1025 1025 775 
Q 1275 525 1575 525 
Q 1875 525 2125 775 
Q 2375 1025 2375 1525 
z
" transform="scale(0.015625)"/>
        <path id="SimHei-6d" d="M 3050 125 
L 2550 125 
L 2550 2150 
Q 2550 2300 2500 2400 
Q 2450 2500 2300 2500 
Q 2125 2500 1975 2312 
Q 1825 2125 1825 1825 
L 1825 125 
L 1325 125 
L 1325 2150 
Q 1325 2300 1275 2400 
Q 1225 2500 1075 2500 
Q 900 2500 750 2312 
Q 600 2125 600 1825 
L 600 125 
L 100 125 
L 100 2925 
L 600 2925 
L 600 2550 
Q 725 2750 900 2862 
Q 1075 2975 1275 2975 
Q 1475 2975 1612 2862 
Q 1750 2750 1800 2550 
Q 1925 2750 2087 2862 
Q 2250 2975 2450 2975 
Q 2750 2975 2900 2812 
Q 3050 2650 3050 2350 
L 3050 125 
z
" transform="scale(0.015625)"/>
        <path id="SimHei-5f" d="M 3150 -850 
L 0 -850 
L 0 -550 
L 3150 -550 
L 3150 -850 
z
" transform="scale(0.015625)"/>
        <path id="SimHei-44" d="M 2925 2250 
Q 2925 1100 2437 612 
Q 1950 125 1125 125 
L 275 125 
L 275 4400 
L 1125 4400 
Q 2050 4400 2487 3900 
Q 2925 3400 2925 2250 
z
M 2325 2250 
Q 2325 3175 2025 3550 
Q 1725 3925 1125 3925 
L 850 3925 
L 850 600 
L 1125 600 
Q 1725 600 2025 962 
Q 2325 1325 2325 2250 
z
" transform="scale(0.015625)"/>
        <path id="SimHei-79" d="M 2900 2925 
L 1750 -100 
Q 1650 -450 1450 -625 
Q 1250 -800 950 -800 
Q 825 -800 712 -787 
Q 600 -775 500 -725 
L 500 -225 
Q 600 -275 700 -300 
Q 800 -325 875 -325 
Q 1075 -325 1150 -262 
Q 1225 -200 1300 25 
L 200 2925 
L 750 2925 
L 1550 725 
L 1575 725 
L 2350 2925 
L 2900 2925 
z
" transform="scale(0.015625)"/>
       </defs>
       <use xlink:href="#SimHei-43"/>
       <use xlink:href="#SimHei-6f" transform="translate(50 0)"/>
       <use xlink:href="#SimHei-6e" transform="translate(100 0)"/>
       <use xlink:href="#SimHei-73" transform="translate(150 0)"/>
       <use xlink:href="#SimHei-75" transform="translate(200 0)"/>
       <use xlink:href="#SimHei-6d" transform="translate(250 0)"/>
       <use xlink:href="#SimHei-65" transform="translate(300 0)"/>
       <use xlink:href="#SimHei-72" transform="translate(350 0)"/>
       <use xlink:href="#SimHei-5f" transform="translate(400 0)"/>
       <use xlink:href="#SimHei-44" transform="translate(450 0)"/>
       <use xlink:href="#SimHei-69" transform="translate(500 0)"/>
       <use xlink:href="#SimHei-73" transform="translate(550 0)"/>
       <use xlink:href="#SimHei-63" transform="translate(600 0)"/>
       <use xlink:href="#SimHei-72" transform="translate(650 0)"/>
       <use xlink:href="#SimHei-65" transform="translate(700 0)"/>
       <use xlink:href="#SimHei-74" transform="translate(750 0)"/>
       <use xlink:href="#SimHei-69" transform="translate(800 0)"/>
       <use xlink:href="#SimHei-6f" transform="translate(850 0)"/>
       <use xlink:href="#SimHei-6e" transform="translate(900 0)"/>
       <use xlink:href="#SimHei-61" transform="translate(950 0)"/>
       <use xlink:href="#SimHei-72" transform="translate(1000 0)"/>
       <use xlink:href="#SimHei-79" transform="translate(1050 0)"/>
      </g>
     </g>
    </g>
    <g id="ytick_7">
     <g id="line2d_25">
      <path d="M 80.1976 97.401218 
L 389.184024 97.401218 
" clip-path="url(#p3ae99e5888)" style="fill: none; stroke-dasharray: 2.96,1.28; stroke-dashoffset: 0; stroke: #21262d; stroke-opacity: 0.4; stroke-width: 0.8"/>
     </g>
     <g id="line2d_26">
      <g>
       <use xlink:href="#m3a63847218" x="80.1976" y="97.401218" style="fill: #c9d1d9; stroke: #c9d1d9; stroke-width: 0.8"/>
      </g>
     </g>
     <g id="text_13">
      <!-- Consumer_Staples -->
      <g style="fill: #c9d1d9" transform="translate(1.1976 100.530124) scale(0.09 -0.09)">
       <defs>
        <path id="SimHei-53" d="M 2900 1325 
Q 2900 750 2537 412 
Q 2175 75 1550 75 
Q 925 75 575 425 
Q 225 775 225 1300 
L 225 1475 
L 800 1475 
L 800 1325 
Q 800 950 1025 750 
Q 1250 550 1550 550 
Q 1950 550 2137 762 
Q 2325 975 2325 1275 
Q 2325 1525 2100 1737 
Q 1875 1950 1450 2125 
Q 850 2350 587 2625 
Q 325 2900 325 3275 
Q 325 3800 687 4125 
Q 1050 4450 1550 4450 
Q 2200 4450 2487 4062 
Q 2775 3675 2775 3225 
L 2200 3225 
Q 2225 3500 2050 3725 
Q 1875 3950 1550 3950 
Q 1250 3950 1075 3787 
Q 900 3625 900 3350 
Q 900 3125 1037 2962 
Q 1175 2800 1750 2575 
Q 2300 2350 2600 2037 
Q 2900 1725 2900 1325 
z
" transform="scale(0.015625)"/>
        <path id="SimHei-70" d="M 2825 1525 
Q 2825 800 2475 425 
Q 2125 50 1625 50 
Q 1350 50 1150 162 
Q 950 275 800 500 
L 800 -800 
L 300 -800 
L 300 2925 
L 800 2925 
L 800 2550 
Q 950 2775 1150 2875 
Q 1350 2975 1625 2975 
Q 2125 2975 2475 2612 
Q 2825 2250 2825 1525 
z
M 2275 1525 
Q 2275 2000 2087 2262 
Q 1900 2525 1525 2525 
Q 1225 2525 1012 2262 
Q 800 2000 800 1525 
Q 800 1050 1012 775 
Q 1225 500 1525 500 
Q 1900 500 2087 775 
Q 2275 1050 2275 1525 
z
" transform="scale(0.015625)"/>
       </defs>
       <use xlink:href="#SimHei-43"/>
       <use xlink:href="#SimHei-6f" transform="translate(50 0)"/>
       <use xlink:href="#SimHei-6e" transform="translate(100 0)"/>
       <use xlink:href="#SimHei-73" transform="translate(150 0)"/>
       <use xlink:href="#SimHei-75" transform="translate(200 0)"/>
       <use xlink:href="#SimHei-6d" transform="translate(250 0)"/>
       <use xlink:href="#SimHei-65" transform="translate(300 0)"/>
       <use xlink:href="#SimHei-72" transform="translate(350 0)"/>
       <use xlink:href="#SimHei-5f" transform="translate(400 0)"/>
       <use xlink:href="#SimHei-53" transform="translate(450 0)"/>
       <use xlink:href="#SimHei-74" transform="translate(500 0)"/>
       <use xlink:href="#SimHei-61" transform="translate(550 0)"/>
       <use xlink:href="#SimHei-70" transform="translate(600 0)"/>
       <use xlink:href="#SimHei-6c" transform="translate(650 0)"/>
       <use xlink:href="#SimHei-65" transform="translate(700 0)"/>
       <use xlink:href="#SimHei-73" transform="translate(750 0)"/>
      </g>
     </g>
    </g>
   </g>
   <g id="line2d_27">
    <path d="M 312.206546 623.323 
L 312.206546 47.42675 
" clip-path="url(#p3ae99e5888)" style="fill: none; stroke: #30363d; stroke-width: 0.6; stroke-linecap: square"/>
   </g>
   <g id="patch_10">
    <path d="M 80.1976 623.323 
L 80.1976 47.42675 
" style="fill: none; stroke: #30363d; stroke-width: 0.8; stroke-linejoin: miter; stroke-linecap: square"/>
   </g>
   <g id="patch_11">
    <path d="M 389.184024 623.323 
L 389.184024 47.42675 
" style="fill: none; stroke: #30363d; stroke-width: 0.8; stroke-linejoin: miter; stroke-linecap: square"/>
   </g>
   <g id="patch_12">
    <path d="M 80.1976 623.323 
L 389.184024 623.323 
" style="fill: none; stroke: #30363d; stroke-width: 0.8; stroke-linejoin: miter; stroke-linecap: square"/>
   </g>
   <g id="patch_13">
    <path d="M 80.1976 47.42675 
L 389.184024 47.42675 
" style="fill: none; stroke: #30363d; stroke-width: 0.8; stroke-linejoin: miter; stroke-linecap: square"/>
   </g>
   <g id="text_14">
    <!-- +6.2% -->
    <g style="fill: #c9d1d9" transform="translate(378.163265 575.598532) scale(0.08 -0.08)">
     <defs>
      <path id="SimHei-2b" d="M 3000 2125 
L 1775 2125 
L 1775 900 
L 1350 900 
L 1350 2125 
L 125 2125 
L 125 2525 
L 1350 2525 
L 1350 3750 
L 1775 3750 
L 1775 2525 
L 3000 2525 
L 3000 2125 
z
" transform="scale(0.015625)"/>
      <path id="SimHei-36" d="M 250 1612 
Q 275 1975 387 2225 
Q 500 2475 725 2850 
L 1750 4450 
L 2325 4450 
L 1275 2800 
Q 1950 2975 2350 2750 
Q 2750 2525 2887 2237 
Q 3025 1950 3037 1612 
Q 3050 1275 2937 950 
Q 2825 625 2537 362 
Q 2250 100 1737 75 
Q 1225 50 862 262 
Q 500 475 362 862 
Q 225 1250 250 1612 
z
M 1025 787 
Q 1250 550 1625 525 
Q 2000 500 2250 775 
Q 2500 1050 2500 1575 
Q 2500 2100 2187 2300 
Q 1875 2500 1487 2450 
Q 1100 2400 925 2075 
Q 750 1750 775 1387 
Q 800 1025 1025 787 
z
" transform="scale(0.015625)"/>
      <path id="SimHei-2e" d="M 1075 125 
L 500 125 
L 500 675 
L 1075 675 
L 1075 125 
z
" transform="scale(0.015625)"/>
      <path id="SimHei-25" d="M 1400 3325 
Q 1400 2600 1187 2400 
Q 975 2200 775 2200 
Q 575 2200 362 2400 
Q 150 2600 150 3325 
Q 150 4050 362 4250 
Q 575 4450 775 4450 
Q 975 4450 1187 4250 
Q 1400 4050 1400 3325 
z
M 2625 4375 
L 700 75 
L 500 150 
L 2425 4450 
L 2625 4375 
z
M 2975 1200 
Q 2975 475 2762 275 
Q 2550 75 2350 75 
Q 2150 75 1937 275 
Q 1725 475 1725 1200 
Q 1725 1925 1937 2125 
Q 2150 2325 2350 2325 
Q 2550 2325 2762 2125 
Q 2975 1925 2975 1200 
z
M 1000 3325 
Q 1000 3775 950 3925 
Q 900 4075 775 4075 
Q 650 4075 600 3925 
Q 550 3775 550 3325 
Q 550 2875 600 2725 
Q 650 2575 775 2575 
Q 900 2575 950 2725 
Q 1000 2875 1000 3325 
z
M 2575 1200 
Q 2575 1650 2525 1800 
Q 2475 1950 2350 1950 
Q 2225 1950 2175 1800 
Q 2125 1650 2125 1200 
Q 2125 750 2175 600 
Q 2225 450 2350 450 
Q 2475 450 2525 600 
Q 2575 750 2575 1200 
z
" transform="scale(0.015625)"/>
     </defs>
     <use xlink:href="#SimHei-2b"/>
     <use xlink:href="#SimHei-36" transform="translate(50 0)"/>
     <use xlink:href="#SimHei-2e" transform="translate(100 0)"/>
     <use xlink:href="#SimHei-32" transform="translate(150 0)"/>
     <use xlink:href="#SimHei-25" transform="translate(200 0)"/>
    </g>
   </g>
   <g id="text_15">
    <!-- +4.8% -->
    <g style="fill: #c9d1d9" transform="translate(364.028153 496.27398) scale(0.08 -0.08)">
     <defs>
      <path id="SimHei-34" d="M 2000 1100 
L 75 1100 
L 75 1525 
L 2100 4450 
L 2475 4450 
L 2475 1525 
L 3075 1525 
L 3075 1100 
L 2475 1100 
L 2475 150 
L 2000 150 
L 2000 1100 
z
M 2000 1525 
L 2000 3500 
L 600 1525 
L 2000 1525 
z
" transform="scale(0.015625)"/>
      <path id="SimHei-38" d="M 175 1375 
Q 175 1675 325 1962 
Q 475 2250 825 2425 
Q 525 2600 425 2812 
Q 325 3025 312 3300 
Q 300 3575 387 3775 
Q 475 3975 650 4150 
Q 825 4325 1037 4387 
Q 1250 4450 1500 4450 
Q 1750 4450 1950 4400 
Q 2150 4350 2375 4187 
Q 2600 4025 2700 3725 
Q 2800 3425 2687 3025 
Q 2575 2625 2100 2400 
Q 2525 2275 2700 2012 
Q 2875 1750 2875 1375 
Q 2875 1000 2762 775 
Q 2650 550 2512 400 
Q 2375 250 2137 162 
Q 1900 75 1537 75 
Q 1175 75 912 162 
Q 650 250 475 425 
Q 300 600 237 837 
Q 175 1075 175 1375 
z
M 687 1400 
Q 675 1100 787 875 
Q 900 650 1200 587 
Q 1500 525 1825 600 
Q 2150 675 2275 950 
Q 2400 1225 2362 1500 
Q 2325 1775 2050 1962 
Q 1775 2150 1450 2125 
Q 1125 2100 912 1900 
Q 700 1700 687 1400 
z
M 775 3350 
Q 775 3100 950 2875 
Q 1125 2650 1500 2650 
Q 1875 2650 2062 2875 
Q 2250 3100 2237 3412 
Q 2225 3725 2012 3875 
Q 1800 4025 1437 4000 
Q 1075 3975 925 3787 
Q 775 3600 775 3350 
z
" transform="scale(0.015625)"/>
     </defs>
     <use xlink:href="#SimHei-2b"/>
     <use xlink:href="#SimHei-34" transform="translate(50 0)"/>
     <use xlink:href="#SimHei-2e" transform="translate(100 0)"/>
     <use xlink:href="#SimHei-38" transform="translate(150 0)"/>
     <use xlink:href="#SimHei-25" transform="translate(200 0)"/>
    </g>
   </g>
   <g id="text_16">
    <!-- +4.1% -->
    <g style="fill: #c9d1d9" transform="translate(356.769402 416.949427) scale(0.08 -0.08)">
     <use xlink:href="#SimHei-2b"/>
     <use xlink:href="#SimHei-34" transform="translate(50 0)"/>
     <use xlink:href="#SimHei-2e" transform="translate(100 0)"/>
     <use xlink:href="#SimHei-31" transform="translate(150 0)"/>
     <use xlink:href="#SimHei-25" transform="translate(200 0)"/>
    </g>
   </g>
   <g id="text_17">
    <!-- +1.5% -->
    <g style="fill: #c9d1d9" transform="translate(330.589621 337.624875) scale(0.08 -0.08)">
     <use xlink:href="#SimHei-2b"/>
     <use xlink:href="#SimHei-31" transform="translate(50 0)"/>
     <use xlink:href="#SimHei-2e" transform="translate(100 0)"/>
     <use xlink:href="#SimHei-35" transform="translate(150 0)"/>
     <use xlink:href="#SimHei-25" transform="translate(200 0)"/>
    </g>
   </g>
   <g id="text_18">
    <!-- +1.1% -->
    <g style="fill: #c9d1d9" transform="translate(326.13411 258.300323) scale(0.08 -0.08)">
     <use xlink:href="#SimHei-2b"/>
     <use xlink:href="#SimHei-31" transform="translate(50 0)"/>
     <use xlink:href="#SimHei-2e" transform="translate(100 0)"/>
     <use xlink:href="#SimHei-31" transform="translate(150 0)"/>
     <use xlink:href="#SimHei-25" transform="translate(200 0)"/>
    </g>
   </g>
   <g id="text_19">
    <!-- +1.0% -->
    <g style="fill: #c9d1d9" transform="translate(325.402878 178.97577) scale(0.08 -0.08)">
     <use xlink:href="#SimHei-2b"/>
     <use xlink:href="#SimHei-31" transform="translate(50 0)"/>
     <use xlink:href="#SimHei-2e" transform="translate(100 0)"/>
     <use xlink:href="#SimHei-30" transform="translate(150 0)"/>
     <use xlink:href="#SimHei-25" transform="translate(200 0)"/>
    </g>
   </g>
   <g id="text_20">
    <!-- -0.7% -->
    <g style="fill: #c9d1d9" transform="translate(282.487691 99.651218) scale(0.08 -0.08)">
     <defs>
      <path id="SimHei-2d" d="M 2975 2125 
L 125 2125 
L 125 2525 
L 2975 2525 
L 2975 2125 
z
" transform="scale(0.015625)"/>
      <path id="SimHei-37" d="M 850 150 
Q 1300 2050 2425 3925 
L 275 3925 
L 275 4375 
L 2950 4375 
L 2950 3950 
Q 1775 2050 1400 150 
L 850 150 
z
" transform="scale(0.015625)"/>
     </defs>
     <use xlink:href="#SimHei-2d"/>
     <use xlink:href="#SimHei-30" transform="translate(50 0)"/>
     <use xlink:href="#SimHei-2e" transform="translate(100 0)"/>
     <use xlink:href="#SimHei-37" transform="translate(150 0)"/>
     <use xlink:href="#SimHei-25" transform="translate(200 0)"/>
    </g>
   </g>
   <g id="text_21">
    <!-- 美国 -->
    <g style="fill: #c9d1d9" transform="translate(221.690812 41.42675) scale(0.13 -0.13)">
     <defs>
      <path id="SimHei-7f8e" d="M 4650 5000 
Q 4525 4900 4150 4350 
L 4800 4350 
Q 5300 4350 5575 4375 
L 5575 3950 
Q 5300 3975 4800 3975 
L 3450 3975 
L 3450 3375 
L 4475 3375 
Q 4875 3375 5250 3400 
L 5250 3000 
Q 4875 3025 4475 3025 
L 3450 3025 
L 3450 2450 
L 5025 2450 
Q 5500 2450 5900 2475 
L 5900 2050 
Q 5525 2075 5025 2075 
L 1425 2075 
Q 900 2075 525 2050 
L 525 2475 
Q 900 2450 1425 2450 
L 3000 2450 
L 3000 3025 
L 2050 3025 
Q 1625 3025 1200 3000 
L 1200 3400 
Q 1625 3375 2050 3375 
L 3000 3375 
L 3000 3975 
L 1725 3975 
Q 1325 3975 850 3950 
L 850 4375 
Q 1325 4350 1725 4350 
L 2250 4350 
Q 2100 4625 1800 4975 
Q 2000 5100 2175 5225 
L 2700 4550 
Q 2475 4450 2325 4350 
L 3675 4350 
Q 3900 4700 4150 5275 
Q 4350 5125 4650 5000 
z
M 525 -225 
Q 950 -175 1425 -25 
Q 1900 125 2275 412 
Q 2650 700 2800 1050 
L 1875 1050 
Q 1325 1050 725 1025 
L 725 1450 
Q 1325 1425 1875 1425 
L 2900 1425 
Q 2925 1750 2925 1975 
Q 3250 1875 3500 1875 
Q 3425 1650 3375 1425 
L 4600 1425 
Q 5250 1425 5725 1450 
L 5725 1025 
Q 5250 1050 4625 1050 
L 3600 1050 
Q 3900 700 4187 500 
Q 4475 300 4700 200 
Q 4925 100 5225 12 
Q 5525 -75 6050 -150 
Q 5900 -375 5750 -675 
Q 5175 -550 4775 -362 
Q 4375 -175 3962 137 
Q 3550 450 3225 900 
Q 3000 525 2787 300 
Q 2575 75 2250 -125 
Q 1925 -325 1575 -462 
Q 1225 -600 825 -700 
Q 750 -475 525 -225 
z
" transform="scale(0.015625)"/>
      <path id="SimHei-56fd" d="M 5775 4975 
Q 5750 4350 5750 3575 
L 5750 900 
Q 5750 125 5775 -625 
L 5275 -625 
L 5275 -275 
L 1125 -275 
L 1125 -650 
L 625 -650 
Q 650 125 650 950 
L 650 3575 
Q 650 4325 625 4975 
L 5775 4975 
z
M 5275 100 
L 5275 4600 
L 1125 4600 
L 1125 100 
L 5275 100 
z
M 3975 3925 
Q 4350 3925 4775 3950 
L 4775 3500 
Q 4400 3525 3975 3525 
L 3350 3525 
L 3350 2700 
L 3800 2700 
Q 4250 2700 4650 2725 
L 4650 2275 
Q 4250 2300 3800 2300 
L 3350 2300 
L 3350 1175 
L 4050 1175 
Q 4500 1175 4900 1200 
L 4900 750 
Q 4525 775 4050 775 
L 2350 775 
Q 1925 775 1500 750 
L 1500 1200 
Q 1925 1175 2350 1175 
L 2900 1175 
L 2900 2300 
L 2550 2300 
Q 2125 2300 1750 2275 
L 1750 2725 
Q 2125 2700 2550 2700 
L 2900 2700 
L 2900 3525 
L 2525 3525 
Q 2075 3525 1650 3500 
L 1650 3950 
Q 2075 3925 2525 3925 
L 3975 3925 
z
M 4050 2125 
Q 4175 2000 4550 1600 
Q 4300 1450 4125 1325 
Q 4050 1425 3700 1850 
Q 3900 2000 4050 2125 
z
" transform="scale(0.015625)"/>
     </defs>
     <use xlink:href="#SimHei-7f8e"/>
     <use xlink:href="#SimHei-56fd" transform="translate(100 0)"/>
    </g>
   </g>
  </g>
  <g id="axes_2">
   <g id="patch_14">
    <path d="M 435.531988 623.323 
L 744.518412 623.323 
L 744.518412 47.42675 
L 435.531988 47.42675 
z
" style="fill: #161b22"/>
   </g>
   <g id="patch_15">
    <path d="M 667.540934 597.145898 
L 712.203558 597.145898 
L 712.203558 509.88889 
L 667.540934 509.88889 
z
" clip-path="url(#pba3f4e544b)" style="fill: #3fb950"/>
   </g>
   <g id="patch_16">
    <path d="M 667.540934 451.717552 
L 697.224446 451.717552 
L 697.224446 364.460544 
L 667.540934 364.460544 
z
" clip-path="url(#pba3f4e544b)" style="fill: #3fb950"/>
   </g>
   <g id="patch_17">
    <path d="M 667.540934 306.289206 
L 662.196983 306.289206 
L 662.196983 219.032198 
L 667.540934 219.032198 
z
" clip-path="url(#pba3f4e544b)" style="fill: #f85149"/>
   </g>
   <g id="patch_18">
    <path d="M 667.540934 160.86086 
L 560.004431 160.86086 
L 560.004431 73.603852 
L 667.540934 73.603852 
z
" clip-path="url(#pba3f4e544b)" style="fill: #f85149"/>
   </g>
   <g id="matplotlib.axis_3">
    <g id="xtick_7">
     <g id="line2d_28">
      <path d="M 465.935752 623.323 
L 465.935752 47.42675 
" clip-path="url(#pba3f4e544b)" style="fill: none; stroke-dasharray: 2.96,1.28; stroke-dashoffset: 0; stroke: #21262d; stroke-opacity: 0.3; stroke-width: 0.8"/>
     </g>
     <g id="line2d_29">
      <g>
       <use xlink:href="#mcd18d9ab43" x="465.935752" y="623.323" style="fill: #c9d1d9; stroke: #c9d1d9; stroke-width: 0.8"/>
      </g>
     </g>
     <g id="text_22">
      <!-- −20 -->
      <g style="fill: #c9d1d9" transform="translate(455.935752 637.198) scale(0.1 -0.1)">
       <use xlink:href="#SimHei-2212"/>
       <use xlink:href="#SimHei-32" transform="translate(100 0)"/>
       <use xlink:href="#SimHei-30" transform="translate(150 0)"/>
      </g>
     </g>
    </g>
    <g id="xtick_8">
     <g id="line2d_30">
      <path d="M 516.337048 623.323 
L 516.337048 47.42675 
" clip-path="url(#pba3f4e544b)" style="fill: none; stroke-dasharray: 2.96,1.28; stroke-dashoffset: 0; stroke: #21262d; stroke-opacity: 0.3; stroke-width: 0.8"/>
     </g>
     <g id="line2d_31">
      <g>
       <use xlink:href="#mcd18d9ab43" x="516.337048" y="623.323" style="fill: #c9d1d9; stroke: #c9d1d9; stroke-width: 0.8"/>
      </g>
     </g>
     <g id="text_23">
      <!-- −15 -->
      <g style="fill: #c9d1d9" transform="translate(506.337048 637.198) scale(0.1 -0.1)">
       <use xlink:href="#SimHei-2212"/>
       <use xlink:href="#SimHei-31" transform="translate(100 0)"/>
       <use xlink:href="#SimHei-35" transform="translate(150 0)"/>
      </g>
     </g>
    </g>
    <g id="xtick_9">
     <g id="line2d_32">
      <path d="M 566.738343 623.323 
L 566.738343 47.42675 
" clip-path="url(#pba3f4e544b)" style="fill: none; stroke-dasharray: 2.96,1.28; stroke-dashoffset: 0; stroke: #21262d; stroke-opacity: 0.3; stroke-width: 0.8"/>
     </g>
     <g id="line2d_33">
      <g>
       <use xlink:href="#mcd18d9ab43" x="566.738343" y="623.323" style="fill: #c9d1d9; stroke: #c9d1d9; stroke-width: 0.8"/>
      </g>
     </g>
     <g id="text_24">
      <!-- −10 -->
      <g style="fill: #c9d1d9" transform="translate(556.738343 637.198) scale(0.1 -0.1)">
       <use xlink:href="#SimHei-2212"/>
       <use xlink:href="#SimHei-31" transform="translate(100 0)"/>
       <use xlink:href="#SimHei-30" transform="translate(150 0)"/>
      </g>
     </g>
    </g>
    <g id="xtick_10">
     <g id="line2d_34">
      <path d="M 617.139639 623.323 
L 617.139639 47.42675 
" clip-path="url(#pba3f4e544b)" style="fill: none; stroke-dasharray: 2.96,1.28; stroke-dashoffset: 0; stroke: #21262d; stroke-opacity: 0.3; stroke-width: 0.8"/>
     </g>
     <g id="line2d_35">
      <g>
       <use xlink:href="#mcd18d9ab43" x="617.139639" y="623.323" style="fill: #c9d1d9; stroke: #c9d1d9; stroke-width: 0.8"/>
      </g>
     </g>
     <g id="text_25">
      <!-- −5 -->
      <g style="fill: #c9d1d9" transform="translate(609.639639 637.198) scale(0.1 -0.1)">
       <use xlink:href="#SimHei-2212"/>
       <use xlink:href="#SimHei-35" transform="translate(100 0)"/>
      </g>
     </g>
    </g>
    <g id="xtick_11">
     <g id="line2d_36">
      <path d="M 667.540934 623.323 
L 667.540934 47.42675 
" clip-path="url(#pba3f4e544b)" style="fill: none; stroke-dasharray: 2.96,1.28; stroke-dashoffset: 0; stroke: #21262d; stroke-opacity: 0.3; stroke-width: 0.8"/>
     </g>
     <g id="line2d_37">
      <g>
       <use xlink:href="#mcd18d9ab43" x="667.540934" y="623.323" style="fill: #c9d1d9; stroke: #c9d1d9; stroke-width: 0.8"/>
      </g>
     </g>
     <g id="text_26">
      <!-- 0 -->
      <g style="fill: #c9d1d9" transform="translate(665.040934 637.198) scale(0.1 -0.1)">
       <use xlink:href="#SimHei-30"/>
      </g>
     </g>
    </g>
    <g id="xtick_12">
     <g id="line2d_38">
      <path d="M 717.94223 623.323 
L 717.94223 47.42675 
" clip-path="url(#pba3f4e544b)" style="fill: none; stroke-dasharray: 2.96,1.28; stroke-dashoffset: 0; stroke: #21262d; stroke-opacity: 0.3; stroke-width: 0.8"/>
     </g>
     <g id="line2d_39">
      <g>
       <use xlink:href="#mcd18d9ab43" x="717.94223" y="623.323" style="fill: #c9d1d9; stroke: #c9d1d9; stroke-width: 0.8"/>
      </g>
     </g>
     <g id="text_27">
      <!-- 5 -->
      <g style="fill: #c9d1d9" transform="translate(715.44223 637.198) scale(0.1 -0.1)">
       <use xlink:href="#SimHei-35"/>
      </g>
     </g>
    </g>
   </g>
   <g id="matplotlib.axis_4">
    <g id="ytick_8">
     <g id="line2d_40">
      <path d="M 435.531988 553.517394 
L 744.518412 553.517394 
" clip-path="url(#pba3f4e544b)" style="fill: none; stroke-dasharray: 2.96,1.28; stroke-dashoffset: 0; stroke: #21262d; stroke-opacity: 0.4; stroke-width: 0.8"/>
     </g>
     <g id="line2d_41">
      <g>
       <use xlink:href="#m3a63847218" x="435.531988" y="553.517394" style="fill: #c9d1d9; stroke: #c9d1d9; stroke-width: 0.8"/>
      </g>
     </g>
     <g id="text_28">
      <!-- Tech -->
      <g style="fill: #c9d1d9" transform="translate(410.531988 556.611144) scale(0.09 -0.09)">
       <use xlink:href="#SimHei-54"/>
       <use xlink:href="#SimHei-65" transform="translate(50 0)"/>
       <use xlink:href="#SimHei-63" transform="translate(100 0)"/>
       <use xlink:href="#SimHei-68" transform="translate(150 0)"/>
      </g>
     </g>
    </g>
    <g id="ytick_9">
     <g id="line2d_42">
      <path d="M 435.531988 408.089048 
L 744.518412 408.089048 
" clip-path="url(#pba3f4e544b)" style="fill: none; stroke-dasharray: 2.96,1.28; stroke-dashoffset: 0; stroke: #21262d; stroke-opacity: 0.4; stroke-width: 0.8"/>
     </g>
     <g id="line2d_43">
      <g>
       <use xlink:href="#m3a63847218" x="435.531988" y="408.089048" style="fill: #c9d1d9; stroke: #c9d1d9; stroke-width: 0.8"/>
      </g>
     </g>
     <g id="text_29">
      <!-- Industrials -->
      <g style="fill: #c9d1d9" transform="translate(379.031988 411.182798) scale(0.09 -0.09)">
       <use xlink:href="#SimHei-49"/>
       <use xlink:href="#SimHei-6e" transform="translate(50 0)"/>
       <use xlink:href="#SimHei-64" transform="translate(100 0)"/>
       <use xlink:href="#SimHei-75" transform="translate(150 0)"/>
       <use xlink:href="#SimHei-73" transform="translate(200 0)"/>
       <use xlink:href="#SimHei-74" transform="translate(250 0)"/>
       <use xlink:href="#SimHei-72" transform="translate(300 0)"/>
       <use xlink:href="#SimHei-69" transform="translate(350 0)"/>
       <use xlink:href="#SimHei-61" transform="translate(400 0)"/>
       <use xlink:href="#SimHei-6c" transform="translate(450 0)"/>
       <use xlink:href="#SimHei-73" transform="translate(500 0)"/>
      </g>
     </g>
    </g>
    <g id="ytick_10">
     <g id="line2d_44">
      <path d="M 435.531988 262.660702 
L 744.518412 262.660702 
" clip-path="url(#pba3f4e544b)" style="fill: none; stroke-dasharray: 2.96,1.28; stroke-dashoffset: 0; stroke: #21262d; stroke-opacity: 0.4; stroke-width: 0.8"/>
     </g>
     <g id="line2d_45">
      <g>
       <use xlink:href="#m3a63847218" x="435.531988" y="262.660702" style="fill: #c9d1d9; stroke: #c9d1d9; stroke-width: 0.8"/>
      </g>
     </g>
     <g id="text_30">
      <!-- Financial -->
      <g style="fill: #c9d1d9" transform="translate(388.031988 265.754452) scale(0.09 -0.09)">
       <use xlink:href="#SimHei-46"/>
       <use xlink:href="#SimHei-69" transform="translate(50 0)"/>
       <use xlink:href="#SimHei-6e" transform="translate(100 0)"/>
       <use xlink:href="#SimHei-61" transform="translate(150 0)"/>
       <use xlink:href="#SimHei-6e" transform="translate(200 0)"/>
       <use xlink:href="#SimHei-63" transform="translate(250 0)"/>
       <use xlink:href="#SimHei-69" transform="translate(300 0)"/>
       <use xlink:href="#SimHei-61" transform="translate(350 0)"/>
       <use xlink:href="#SimHei-6c" transform="translate(400 0)"/>
      </g>
     </g>
    </g>
    <g id="ytick_11">
     <g id="line2d_46">
      <path d="M 435.531988 117.232356 
L 744.518412 117.232356 
" clip-path="url(#pba3f4e544b)" style="fill: none; stroke-dasharray: 2.96,1.28; stroke-dashoffset: 0; stroke: #21262d; stroke-opacity: 0.4; stroke-width: 0.8"/>
     </g>
     <g id="line2d_47">
      <g>
       <use xlink:href="#m3a63847218" x="435.531988" y="117.232356" style="fill: #c9d1d9; stroke: #c9d1d9; stroke-width: 0.8"/>
      </g>
     </g>
     <g id="text_31">
      <!-- Healthcare -->
      <g style="fill: #c9d1d9" transform="translate(383.531988 120.326106) scale(0.09 -0.09)">
       <use xlink:href="#SimHei-48"/>
       <use xlink:href="#SimHei-65" transform="translate(50 0)"/>
       <use xlink:href="#SimHei-61" transform="translate(100 0)"/>
       <use xlink:href="#SimHei-6c" transform="translate(150 0)"/>
       <use xlink:href="#SimHei-74" transform="translate(200 0)"/>
       <use xlink:href="#SimHei-68" transform="translate(250 0)"/>
       <use xlink:href="#SimHei-63" transform="translate(300 0)"/>
       <use xlink:href="#SimHei-61" transform="translate(350 0)"/>
       <use xlink:href="#SimHei-72" transform="translate(400 0)"/>
       <use xlink:href="#SimHei-65" transform="translate(450 0)"/>
      </g>
     </g>
    </g>
   </g>
   <g id="line2d_48">
    <path d="M 667.540934 623.323 
L 667.540934 47.42675 
" clip-path="url(#pba3f4e544b)" style="fill: none; stroke: #30363d; stroke-width: 0.6; stroke-linecap: square"/>
   </g>
   <g id="patch_19">
    <path d="M 435.531988 623.323 
L 435.531988 47.42675 
" style="fill: none; stroke: #30363d; stroke-width: 0.8; stroke-linejoin: miter; stroke-linecap: square"/>
   </g>
   <g id="patch_20">
    <path d="M 744.518412 623.323 
L 744.518412 47.42675 
" style="fill: none; stroke: #30363d; stroke-width: 0.8; stroke-linejoin: miter; stroke-linecap: square"/>
   </g>
   <g id="patch_21">
    <path d="M 435.531988 623.323 
L 744.518412 623.323 
" style="fill: none; stroke: #30363d; stroke-width: 0.8; stroke-linejoin: miter; stroke-linecap: square"/>
   </g>
   <g id="patch_22">
    <path d="M 435.531988 47.42675 
L 744.518412 47.42675 
" style="fill: none; stroke: #30363d; stroke-width: 0.8; stroke-linejoin: miter; stroke-linecap: square"/>
   </g>
   <g id="text_32">
    <!-- +4.4% -->
    <g style="fill: #c9d1d9" transform="translate(715.227635 555.767394) scale(0.08 -0.08)">
     <use xlink:href="#SimHei-2b"/>
     <use xlink:href="#SimHei-34" transform="translate(50 0)"/>
     <use xlink:href="#SimHei-2e" transform="translate(100 0)"/>
     <use xlink:href="#SimHei-34" transform="translate(150 0)"/>
     <use xlink:href="#SimHei-25" transform="translate(200 0)"/>
    </g>
   </g>
   <g id="text_33">
    <!-- +2.9% -->
    <g style="fill: #c9d1d9" transform="translate(700.248524 410.339048) scale(0.08 -0.08)">
     <defs>
      <path id="SimHei-39" d="M 800 75 
Q 1350 1000 1700 1750 
Q 1075 1650 662 1912 
Q 250 2175 162 2625 
Q 75 3075 175 3437 
Q 275 3800 487 4037 
Q 700 4275 1000 4375 
Q 1300 4475 1537 4475 
Q 1775 4475 2025 4375 
Q 2275 4275 2475 4075 
Q 2675 3875 2750 3662 
Q 2825 3450 2825 3112 
Q 2825 2775 2575 2250 
Q 2325 1725 1350 75 
L 800 75 
z
M 662 2875 
Q 700 2550 937 2337 
Q 1175 2125 1450 2150 
Q 1725 2175 1887 2300 
Q 2050 2425 2200 2725 
Q 2300 3100 2250 3362 
Q 2200 3625 1987 3800 
Q 1775 3975 1525 3975 
Q 1375 4000 1137 3900 
Q 900 3800 762 3500 
Q 625 3200 662 2875 
z
" transform="scale(0.015625)"/>
     </defs>
     <use xlink:href="#SimHei-2b"/>
     <use xlink:href="#SimHei-32" transform="translate(50 0)"/>
     <use xlink:href="#SimHei-2e" transform="translate(100 0)"/>
     <use xlink:href="#SimHei-39" transform="translate(150 0)"/>
     <use xlink:href="#SimHei-25" transform="translate(200 0)"/>
    </g>
   </g>
   <g id="text_34">
    <!-- -0.5% -->
    <g style="fill: #c9d1d9" transform="translate(639.172905 264.910702) scale(0.08 -0.08)">
     <use xlink:href="#SimHei-2d"/>
     <use xlink:href="#SimHei-30" transform="translate(50 0)"/>
     <use xlink:href="#SimHei-2e" transform="translate(100 0)"/>
     <use xlink:href="#SimHei-35" transform="translate(150 0)"/>
     <use xlink:href="#SimHei-25" transform="translate(200 0)"/>
    </g>
   </g>
   <g id="text_35">
    <!-- -10.7% -->
    <g style="fill: #c9d1d9" transform="translate(532.980353 119.482356) scale(0.08 -0.08)">
     <use xlink:href="#SimHei-2d"/>
     <use xlink:href="#SimHei-31" transform="translate(50 0)"/>
     <use xlink:href="#SimHei-30" transform="translate(100 0)"/>
     <use xlink:href="#SimHei-2e" transform="translate(150 0)"/>
     <use xlink:href="#SimHei-37" transform="translate(200 0)"/>
     <use xlink:href="#SimHei-25" transform="translate(250 0)"/>
    </g>
   </g>
   <g id="text_36">
    <!-- 欧洲 -->
    <g style="fill: #c9d1d9" transform="translate(577.0252 41.42675) scale(0.13 -0.13)">
     <defs>
      <path id="SimHei-6b27" d="M 1050 425 
L 2150 425 
Q 2550 425 3025 450 
L 3025 25 
Q 2575 50 2150 50 
L 600 50 
Q 625 500 625 925 
L 625 3650 
Q 625 4175 600 4675 
L 2175 4675 
Q 2600 4675 3000 4700 
L 3000 4275 
Q 2600 4300 2150 4300 
L 1050 4300 
L 1050 3500 
Q 1200 3625 1350 3800 
Q 1700 3400 2125 2750 
Q 2450 3475 2550 3925 
Q 2775 3750 3025 3675 
Q 2875 3450 2712 3062 
Q 2550 2675 2400 2350 
Q 2875 1600 3125 1125 
Q 2875 1000 2725 850 
Q 2550 1275 2175 1850 
Q 1925 1350 1425 650 
Q 1275 825 1050 900 
L 1050 425 
z
M 4725 3025 
Q 4625 2750 4625 2500 
Q 4625 2275 4650 2000 
Q 4725 1525 5075 900 
Q 5425 275 6175 -250 
Q 5900 -325 5800 -625 
Q 5400 -300 5012 212 
Q 4625 725 4425 1350 
Q 4200 600 3837 100 
Q 3475 -400 3150 -675 
Q 2900 -475 2675 -425 
Q 3125 -100 3400 250 
Q 3675 600 3850 1000 
Q 4000 1400 4075 2037 
Q 4150 2675 4125 3100 
Q 4450 3050 4725 3025 
z
M 5125 2925 
Q 5275 3400 5350 3775 
L 3900 3775 
Q 3725 3150 3450 2525 
Q 3250 2700 3000 2725 
Q 3350 3325 3512 4012 
Q 3675 4700 3700 5250 
Q 4025 5150 4300 5125 
Q 4175 4950 4125 4725 
Q 4075 4500 4000 4150 
L 5950 4150 
Q 5700 3275 5600 2825 
Q 5325 2925 5125 2925 
z
M 1050 925 
Q 1300 1200 1525 1562 
Q 1750 1925 1900 2250 
Q 1400 3125 1050 3475 
L 1050 925 
z
" transform="scale(0.015625)"/>
      <path id="SimHei-6d32" d="M 3050 4775 
Q 3025 4275 3025 3575 
Q 3025 2875 3000 2087 
Q 2975 1300 2812 762 
Q 2650 225 2225 -475 
Q 2050 -325 1725 -225 
Q 2100 175 2275 637 
Q 2450 1100 2525 1462 
Q 2600 1825 2612 2775 
Q 2625 3725 2612 4137 
Q 2600 4550 2575 4775 
L 3050 4775 
z
M 5750 4850 
Q 5725 4425 5725 4075 
L 5725 700 
Q 5725 175 5750 -425 
L 5275 -425 
Q 5300 175 5300 700 
L 5300 4075 
Q 5300 4500 5275 4850 
L 5750 4850 
z
M 4400 4575 
Q 4375 4175 4375 3850 
L 4375 1050 
Q 4375 525 4400 -125 
L 3900 -125 
Q 3950 400 3950 1025 
L 3950 3850 
Q 3950 4150 3900 4575 
L 4400 4575 
z
M 350 -175 
Q 575 75 850 612 
Q 1125 1150 1325 1675 
Q 1525 1550 1750 1450 
Q 1625 1250 1362 662 
Q 1100 75 825 -425 
Q 600 -250 350 -175 
z
M 4725 1650 
Q 4675 2300 4425 3425 
Q 4650 3450 4825 3500 
Q 4950 2950 5150 1725 
Q 4900 1700 4725 1650 
z
M 1700 1775 
Q 1800 2125 1850 2512 
Q 1900 2900 1925 3350 
Q 2200 3325 2400 3300 
Q 2325 2975 2275 2575 
Q 2225 2175 2125 1675 
Q 1925 1725 1700 1775 
z
M 3550 3400 
Q 3725 2375 3800 1750 
Q 3600 1725 3400 1675 
Q 3350 2300 3150 3300 
L 3550 3400 
z
M 625 3375 
Q 1100 3125 1650 2750 
Q 1450 2575 1350 2375 
Q 925 2700 375 3000 
Q 525 3200 625 3375 
z
M 975 4900 
Q 1550 4550 1925 4200 
Q 1750 4000 1650 3825 
Q 1150 4300 725 4550 
L 975 4900 
z
" transform="scale(0.015625)"/>
     </defs>
     <use xlink:href="#SimHei-6b27"/>
     <use xlink:href="#SimHei-6d32" transform="translate(100 0)"/>
    </g>
   </g>
  </g>
  <g id="axes_3">
   <g id="patch_23">
    <path d="M 790.866376 623.323 
L 1099.8528 623.323 
L 1099.8528 47.42675 
L 790.866376 47.42675 
z
" style="fill: #161b22"/>
   </g>
   <g id="patch_24">
    <path d="M 1022.875322 597.145898 
L 1060.135021 597.145898 
L 1060.135021 476.328503 
L 1022.875322 476.328503 
z
" clip-path="url(#p00af54c572)" style="fill: #3fb950"/>
   </g>
   <g id="patch_25">
    <path d="M 1022.875322 395.783573 
L 919.904933 395.783573 
L 919.904933 274.966177 
L 1022.875322 274.966177 
z
" clip-path="url(#p00af54c572)" style="fill: #f85149"/>
   </g>
   <g id="patch_26">
    <path d="M 1022.875322 194.421247 
L 804.911213 194.421247 
L 804.911213 73.603852 
L 1022.875322 73.603852 
z
" clip-path="url(#p00af54c572)" style="fill: #f85149"/>
   </g>
   <g id="matplotlib.axis_5">
    <g id="xtick_13">
     <g id="line2d_49">
      <path d="M 821.27014 623.323 
L 821.27014 47.42675 
" clip-path="url(#p00af54c572)" style="fill: none; stroke-dasharray: 2.96,1.28; stroke-dashoffset: 0; stroke: #21262d; stroke-opacity: 0.3; stroke-width: 0.8"/>
     </g>
     <g id="line2d_50">
      <g>
       <use xlink:href="#mcd18d9ab43" x="821.27014" y="623.323" style="fill: #c9d1d9; stroke: #c9d1d9; stroke-width: 0.8"/>
      </g>
     </g>
     <g id="text_37">
      <!-- −20 -->
      <g style="fill: #c9d1d9" transform="translate(811.27014 637.198) scale(0.1 -0.1)">
       <use xlink:href="#SimHei-2212"/>
       <use xlink:href="#SimHei-32" transform="translate(100 0)"/>
       <use xlink:href="#SimHei-30" transform="translate(150 0)"/>
      </g>
     </g>
    </g>
    <g id="xtick_14">
     <g id="line2d_51">
      <path d="M 871.671435 623.323 
L 871.671435 47.42675 
" clip-path="url(#p00af54c572)" style="fill: none; stroke-dasharray: 2.96,1.28; stroke-dashoffset: 0; stroke: #21262d; stroke-opacity: 0.3; stroke-width: 0.8"/>
     </g>
     <g id="line2d_52">
      <g>
       <use xlink:href="#mcd18d9ab43" x="871.671435" y="623.323" style="fill: #c9d1d9; stroke: #c9d1d9; stroke-width: 0.8"/>
      </g>
     </g>
     <g id="text_38">
      <!-- −15 -->
      <g style="fill: #c9d1d9" transform="translate(861.671435 637.198) scale(0.1 -0.1)">
       <use xlink:href="#SimHei-2212"/>
       <use xlink:href="#SimHei-31" transform="translate(100 0)"/>
       <use xlink:href="#SimHei-35" transform="translate(150 0)"/>
      </g>
     </g>
    </g>
    <g id="xtick_15">
     <g id="line2d_53">
      <path d="M 922.072731 623.323 
L 922.072731 47.42675 
" clip-path="url(#p00af54c572)" style="fill: none; stroke-dasharray: 2.96,1.28; stroke-dashoffset: 0; stroke: #21262d; stroke-opacity: 0.3; stroke-width: 0.8"/>
     </g>
     <g id="line2d_54">
      <g>
       <use xlink:href="#mcd18d9ab43" x="922.072731" y="623.323" style="fill: #c9d1d9; stroke: #c9d1d9; stroke-width: 0.8"/>
      </g>
     </g>
     <g id="text_39">
      <!-- −10 -->
      <g style="fill: #c9d1d9" transform="translate(912.072731 637.198) scale(0.1 -0.1)">
       <use xlink:href="#SimHei-2212"/>
       <use xlink:href="#SimHei-31" transform="translate(100 0)"/>
       <use xlink:href="#SimHei-30" transform="translate(150 0)"/>
      </g>
     </g>
    </g>
    <g id="xtick_16">
     <g id="line2d_55">
      <path d="M 972.474026 623.323 
L 972.474026 47.42675 
" clip-path="url(#p00af54c572)" style="fill: none; stroke-dasharray: 2.96,1.28; stroke-dashoffset: 0; stroke: #21262d; stroke-opacity: 0.3; stroke-width: 0.8"/>
     </g>
     <g id="line2d_56">
      <g>
       <use xlink:href="#mcd18d9ab43" x="972.474026" y="623.323" style="fill: #c9d1d9; stroke: #c9d1d9; stroke-width: 0.8"/>
      </g>
     </g>
     <g id="text_40">
      <!-- −5 -->
      <g style="fill: #c9d1d9" transform="translate(964.974026 637.198) scale(0.1 -0.1)">
       <use xlink:href="#SimHei-2212"/>
       <use xlink:href="#SimHei-35" transform="translate(100 0)"/>
      </g>
     </g>
    </g>
    <g id="xtick_17">
     <g id="line2d_57">
      <path d="M 1022.875322 623.323 
L 1022.875322 47.42675 
" clip-path="url(#p00af54c572)" style="fill: none; stroke-dasharray: 2.96,1.28; stroke-dashoffset: 0; stroke: #21262d; stroke-opacity: 0.3; stroke-width: 0.8"/>
     </g>
     <g id="line2d_58">
      <g>
       <use xlink:href="#mcd18d9ab43" x="1022.875322" y="623.323" style="fill: #c9d1d9; stroke: #c9d1d9; stroke-width: 0.8"/>
      </g>
     </g>
     <g id="text_41">
      <!-- 0 -->
      <g style="fill: #c9d1d9" transform="translate(1020.375322 637.198) scale(0.1 -0.1)">
       <use xlink:href="#SimHei-30"/>
      </g>
     </g>
    </g>
    <g id="xtick_18">
     <g id="line2d_59">
      <path d="M 1073.276618 623.323 
L 1073.276618 47.42675 
" clip-path="url(#p00af54c572)" style="fill: none; stroke-dasharray: 2.96,1.28; stroke-dashoffset: 0; stroke: #21262d; stroke-opacity: 0.3; stroke-width: 0.8"/>
     </g>
     <g id="line2d_60">
      <g>
       <use xlink:href="#mcd18d9ab43" x="1073.276618" y="623.323" style="fill: #c9d1d9; stroke: #c9d1d9; stroke-width: 0.8"/>
      </g>
     </g>
     <g id="text_42">
      <!-- 5 -->
      <g style="fill: #c9d1d9" transform="translate(1070.776618 637.198) scale(0.1 -0.1)">
       <use xlink:href="#SimHei-35"/>
      </g>
     </g>
    </g>
   </g>
   <g id="matplotlib.axis_6">
    <g id="ytick_12">
     <g id="line2d_61">
      <path d="M 790.866376 536.7372 
L 1099.8528 536.7372 
" clip-path="url(#p00af54c572)" style="fill: none; stroke-dasharray: 2.96,1.28; stroke-dashoffset: 0; stroke: #21262d; stroke-opacity: 0.4; stroke-width: 0.8"/>
     </g>
     <g id="line2d_62">
      <g>
       <use xlink:href="#m3a63847218" x="790.866376" y="536.7372" style="fill: #c9d1d9; stroke: #c9d1d9; stroke-width: 0.8"/>
      </g>
     </g>
     <g id="text_43">
      <!-- Industrials -->
      <g style="fill: #c9d1d9" transform="translate(734.366376 539.83095) scale(0.09 -0.09)">
       <use xlink:href="#SimHei-49"/>
       <use xlink:href="#SimHei-6e" transform="translate(50 0)"/>
       <use xlink:href="#SimHei-64" transform="translate(100 0)"/>
       <use xlink:href="#SimHei-75" transform="translate(150 0)"/>
       <use xlink:href="#SimHei-73" transform="translate(200 0)"/>
       <use xlink:href="#SimHei-74" transform="translate(250 0)"/>
       <use xlink:href="#SimHei-72" transform="translate(300 0)"/>
       <use xlink:href="#SimHei-69" transform="translate(350 0)"/>
       <use xlink:href="#SimHei-61" transform="translate(400 0)"/>
       <use xlink:href="#SimHei-6c" transform="translate(450 0)"/>
       <use xlink:href="#SimHei-73" transform="translate(500 0)"/>
      </g>
     </g>
    </g>
    <g id="ytick_13">
     <g id="line2d_63">
      <path d="M 790.866376 335.374875 
L 1099.8528 335.374875 
" clip-path="url(#p00af54c572)" style="fill: none; stroke-dasharray: 2.96,1.28; stroke-dashoffset: 0; stroke: #21262d; stroke-opacity: 0.4; stroke-width: 0.8"/>
     </g>
     <g id="line2d_64">
      <g>
       <use xlink:href="#m3a63847218" x="790.866376" y="335.374875" style="fill: #c9d1d9; stroke: #c9d1d9; stroke-width: 0.8"/>
      </g>
     </g>
     <g id="text_44">
      <!-- Consumer -->
      <g style="fill: #c9d1d9" transform="translate(747.866376 338.468625) scale(0.09 -0.09)">
       <use xlink:href="#SimHei-43"/>
       <use xlink:href="#SimHei-6f" transform="translate(50 0)"/>
       <use xlink:href="#SimHei-6e" transform="translate(100 0)"/>
       <use xlink:href="#SimHei-73" transform="translate(150 0)"/>
       <use xlink:href="#SimHei-75" transform="translate(200 0)"/>
       <use xlink:href="#SimHei-6d" transform="translate(250 0)"/>
       <use xlink:href="#SimHei-65" transform="translate(300 0)"/>
       <use xlink:href="#SimHei-72" transform="translate(350 0)"/>
      </g>
     </g>
    </g>
    <g id="ytick_14">
     <g id="line2d_65">
      <path d="M 790.866376 134.01255 
L 1099.8528 134.01255 
" clip-path="url(#p00af54c572)" style="fill: none; stroke-dasharray: 2.96,1.28; stroke-dashoffset: 0; stroke: #21262d; stroke-opacity: 0.4; stroke-width: 0.8"/>
     </g>
     <g id="line2d_66">
      <g>
       <use xlink:href="#m3a63847218" x="790.866376" y="134.01255" style="fill: #c9d1d9; stroke: #c9d1d9; stroke-width: 0.8"/>
      </g>
     </g>
     <g id="text_45">
      <!-- Financial -->
      <g style="fill: #c9d1d9" transform="translate(743.366376 137.1063) scale(0.09 -0.09)">
       <use xlink:href="#SimHei-46"/>
       <use xlink:href="#SimHei-69" transform="translate(50 0)"/>
       <use xlink:href="#SimHei-6e" transform="translate(100 0)"/>
       <use xlink:href="#SimHei-61" transform="translate(150 0)"/>
       <use xlink:href="#SimHei-6e" transform="translate(200 0)"/>
       <use xlink:href="#SimHei-63" transform="translate(250 0)"/>
       <use xlink:href="#SimHei-69" transform="translate(300 0)"/>
       <use xlink:href="#SimHei-61" transform="translate(350 0)"/>
       <use xlink:href="#SimHei-6c" transform="translate(400 0)"/>
      </g>
     </g>
    </g>
   </g>
   <g id="line2d_67">
    <path d="M 1022.875322 623.323 
L 1022.875322 47.42675 
" clip-path="url(#p00af54c572)" style="fill: none; stroke: #30363d; stroke-width: 0.6; stroke-linecap: square"/>
   </g>
   <g id="patch_27">
    <path d="M 790.866376 623.323 
L 790.866376 47.42675 
" style="fill: none; stroke: #30363d; stroke-width: 0.8; stroke-linejoin: miter; stroke-linecap: square"/>
   </g>
   <g id="patch_28">
    <path d="M 1099.8528 623.323 
L 1099.8528 47.42675 
" style="fill: none; stroke: #30363d; stroke-width: 0.8; stroke-linejoin: miter; stroke-linecap: square"/>
   </g>
   <g id="patch_29">
    <path d="M 790.866376 623.323 
L 1099.8528 623.323 
" style="fill: none; stroke: #30363d; stroke-width: 0.8; stroke-linejoin: miter; stroke-linecap: square"/>
   </g>
   <g id="patch_30">
    <path d="M 790.866376 47.42675 
L 1099.8528 47.42675 
" style="fill: none; stroke: #30363d; stroke-width: 0.8; stroke-linejoin: miter; stroke-linecap: square"/>
   </g>
   <g id="text_46">
    <!-- +3.7% -->
    <g style="fill: #c9d1d9" transform="translate(1063.159099 538.9872) scale(0.08 -0.08)">
     <defs>
      <path id="SimHei-33" d="M 250 1225 
L 700 1300 
Q 800 975 1025 762 
Q 1250 550 1587 562 
Q 1925 575 2125 837 
Q 2325 1100 2300 1437 
Q 2275 1775 2037 1962 
Q 1800 2150 1275 2225 
L 1275 2550 
Q 1800 2600 2037 2825 
Q 2275 3050 2250 3412 
Q 2225 3775 1925 3937 
Q 1625 4100 1287 3975 
Q 950 3850 750 3275 
L 300 3350 
Q 450 3800 712 4100 
Q 975 4400 1425 4450 
Q 1875 4500 2212 4337 
Q 2550 4175 2687 3837 
Q 2825 3500 2725 3100 
Q 2625 2700 2150 2400 
Q 2500 2250 2687 1950 
Q 2875 1650 2812 1162 
Q 2750 675 2375 375 
Q 2000 75 1525 87 
Q 1050 100 700 387 
Q 350 675 250 1225 
z
" transform="scale(0.015625)"/>
     </defs>
     <use xlink:href="#SimHei-2b"/>
     <use xlink:href="#SimHei-33" transform="translate(50 0)"/>
     <use xlink:href="#SimHei-2e" transform="translate(100 0)"/>
     <use xlink:href="#SimHei-37" transform="translate(150 0)"/>
     <use xlink:href="#SimHei-25" transform="translate(200 0)"/>
    </g>
   </g>
   <g id="text_47">
    <!-- -10.2% -->
    <g style="fill: #c9d1d9" transform="translate(892.880856 337.624875) scale(0.08 -0.08)">
     <use xlink:href="#SimHei-2d"/>
     <use xlink:href="#SimHei-31" transform="translate(50 0)"/>
     <use xlink:href="#SimHei-30" transform="translate(100 0)"/>
     <use xlink:href="#SimHei-2e" transform="translate(150 0)"/>
     <use xlink:href="#SimHei-32" transform="translate(200 0)"/>
     <use xlink:href="#SimHei-25" transform="translate(250 0)"/>
    </g>
   </g>
   <g id="text_48">
    <!-- -21.6% -->
    <g style="fill: #c9d1d9" transform="translate(777.887135 136.26255) scale(0.08 -0.08)">
     <use xlink:href="#SimHei-2d"/>
     <use xlink:href="#SimHei-32" transform="translate(50 0)"/>
     <use xlink:href="#SimHei-31" transform="translate(100 0)"/>
     <use xlink:href="#SimHei-2e" transform="translate(150 0)"/>
     <use xlink:href="#SimHei-36" transform="translate(200 0)"/>
     <use xlink:href="#SimHei-25" transform="translate(250 0)"/>
    </g>
   </g>
   <g id="text_49">
    <!-- 日本 -->
    <g style="fill: #c9d1d9" transform="translate(932.359588 41.42675) scale(0.13 -0.13)">
     <defs>
      <path id="SimHei-65e5" d="M 5375 5000 
Q 5350 3775 5350 2275 
Q 5350 775 5375 -450 
L 4800 -450 
L 4800 175 
L 1800 175 
L 1800 -575 
L 1250 -575 
Q 1275 575 1275 2125 
Q 1275 3675 1250 5000 
L 5375 5000 
z
M 4800 600 
L 4800 2375 
L 1800 2375 
L 1800 600 
L 4800 600 
z
M 4800 2800 
L 4800 4550 
L 1800 4550 
L 1800 2800 
L 4800 2800 
z
" transform="scale(0.015625)"/>
      <path id="SimHei-672c" d="M 2950 3925 
L 2950 4425 
Q 2950 4825 2925 5175 
L 3475 5175 
Q 3450 4900 3450 4450 
L 3450 3925 
L 4850 3925 
Q 5275 3925 5850 3950 
L 5850 3475 
Q 5300 3500 4875 3500 
L 3850 3500 
Q 4200 2350 4862 1687 
Q 5525 1025 6075 800 
Q 5850 625 5650 325 
Q 4800 900 4262 1637 
Q 3725 2375 3450 3350 
L 3450 1000 
L 3775 1000 
Q 4175 1000 4600 1025 
L 4600 550 
Q 4175 575 3750 575 
L 3450 575 
Q 3450 0 3475 -600 
L 2925 -600 
Q 2950 0 2950 575 
L 2625 575 
Q 2225 575 1825 550 
L 1825 1025 
Q 2225 1000 2625 1000 
L 2950 1000 
L 2950 3300 
Q 2550 2275 2062 1575 
Q 1575 875 750 175 
Q 550 450 275 575 
Q 1100 1075 1650 1825 
Q 2200 2575 2525 3500 
L 1425 3500 
Q 1025 3500 575 3475 
L 575 3950 
Q 1025 3925 1400 3925 
L 2950 3925 
z
" transform="scale(0.015625)"/>
     </defs>
     <use xlink:href="#SimHei-65e5"/>
     <use xlink:href="#SimHei-672c" transform="translate(100 0)"/>
    </g>
   </g>
  </g>
  <g id="text_50">
   <!-- 全球板块轮动对比（近1月） -->
   <g style="fill: #c9d1d9" transform="translate(472.84 26.488) scale(0.16 -0.16)">
    <defs>
     <path id="SimHei-5168" d="M 3475 4825 
Q 4350 3425 6125 3025 
Q 5900 2750 5825 2450 
Q 5325 2650 4975 2875 
L 4975 2475 
Q 4700 2500 4100 2500 
L 3500 2500 
L 3500 1500 
L 4450 1500 
Q 4975 1500 5300 1525 
L 5300 1075 
Q 4975 1100 4450 1100 
L 3500 1100 
L 3500 -25 
L 4475 -25 
Q 5225 -25 5700 25 
L 5700 -500 
Q 5250 -425 4525 -425 
L 1775 -425 
Q 1025 -425 650 -450 
L 650 0 
Q 1025 -25 1775 -25 
L 3000 -25 
L 3000 1100 
L 2300 1100 
Q 1450 1100 1175 1075 
L 1175 1525 
Q 1450 1500 2275 1500 
L 3000 1500 
L 3000 2500 
L 2500 2500 
Q 1725 2500 1500 2475 
L 1500 2875 
Q 1275 2700 650 2350 
Q 500 2650 300 2875 
Q 900 3025 1700 3625 
Q 2500 4225 2975 5200 
Q 3275 5075 3600 4950 
L 3475 4825 
z
M 1650 2950 
Q 1950 2925 2525 2925 
L 4025 2925 
Q 4525 2925 4800 2950 
Q 3725 3500 3200 4550 
Q 2525 3525 1650 2950 
z
" transform="scale(0.015625)"/>
     <path id="SimHei-7403" d="M 6000 2750 
Q 5850 2625 5562 2337 
Q 5275 2050 4900 1725 
Q 5650 700 6200 375 
Q 5950 275 5725 0 
Q 4950 725 4350 1950 
L 4350 -25 
Q 4350 -350 4175 -462 
Q 4000 -575 3600 -650 
Q 3525 -400 3350 -125 
Q 3900 -125 3900 0 
L 3900 1575 
Q 3700 1300 3412 925 
Q 3125 550 2775 125 
Q 2600 350 2325 450 
Q 2750 800 3162 1287 
Q 3575 1775 3900 2350 
L 3900 3675 
Q 2925 3675 2600 3650 
L 2600 4075 
Q 2925 4050 3900 4050 
Q 3900 4875 3875 5200 
L 4400 5200 
Q 4325 4875 4350 4050 
L 5150 4050 
Q 5525 4050 5850 4075 
L 5850 3650 
Q 5525 3675 5150 3675 
L 4350 3675 
L 4350 2825 
Q 4475 2400 4700 2100 
Q 5125 2475 5550 3125 
Q 5725 2950 6000 2750 
z
M 1775 4350 
Q 2050 4350 2350 4375 
L 2350 3925 
Q 2025 3950 1575 3950 
L 1575 2675 
Q 1900 2675 2225 2700 
L 2225 2250 
Q 1900 2275 1575 2275 
L 1575 775 
Q 2025 925 2325 1075 
Q 2375 850 2425 675 
Q 1975 550 1412 325 
Q 850 100 525 -100 
Q 425 125 300 400 
Q 625 450 1125 650 
L 1125 2275 
Q 700 2275 375 2250 
L 375 2700 
Q 725 2675 1125 2675 
L 1125 3950 
Q 625 3950 300 3925 
L 300 4375 
Q 625 4350 850 4350 
L 1775 4350 
z
M 3125 2075 
Q 2900 2550 2650 2875 
Q 2850 3025 3000 3125 
Q 3300 2775 3550 2375 
Q 3375 2250 3125 2075 
z
M 4975 5225 
Q 5225 4925 5475 4550 
L 5100 4300 
Q 4850 4700 4600 4975 
Q 4800 5100 4975 5225 
z
" transform="scale(0.015625)"/>
     <path id="SimHei-677f" d="M 3350 3025 
Q 3325 2125 3250 1550 
Q 3175 1000 3012 537 
Q 2850 75 2400 -550 
Q 2225 -350 1925 -250 
Q 2450 325 2625 850 
Q 2800 1375 2850 1925 
Q 2900 2525 2900 3350 
Q 2900 4175 2850 4600 
Q 3600 4625 4362 4737 
Q 5125 4850 5550 5050 
Q 5700 4700 5875 4525 
Q 5150 4425 4512 4350 
Q 3875 4275 3350 4250 
L 3350 3425 
L 5700 3425 
Q 5575 2725 5387 2037 
Q 5200 1350 4825 750 
Q 5400 125 6125 -200 
Q 5950 -300 5750 -625 
Q 5125 -200 4550 375 
Q 4425 225 4112 -62 
Q 3800 -350 3275 -700 
Q 3150 -500 2850 -325 
Q 3375 -75 3712 187 
Q 4050 450 4275 750 
Q 4025 1200 3850 1625 
Q 3675 2050 3475 3025 
L 3350 3025 
z
M 2150 2675 
Q 2250 2475 2600 1850 
Q 2400 1725 2175 1550 
Q 2100 1775 1750 2400 
L 1750 425 
Q 1750 -75 1775 -625 
L 1275 -625 
Q 1275 -50 1300 425 
L 1300 2200 
Q 1025 1525 550 825 
Q 425 1050 225 1250 
Q 475 1500 800 2137 
Q 1125 2775 1225 3375 
Q 775 3375 425 3350 
L 425 3800 
Q 800 3775 1300 3775 
L 1300 4425 
Q 1300 4775 1275 5100 
L 1775 5100 
Q 1750 4775 1750 4400 
L 1750 3775 
Q 2150 3775 2550 3800 
L 2550 3350 
Q 2125 3375 1750 3375 
L 1750 2450 
Q 1900 2525 2150 2675 
z
M 3900 3025 
Q 4000 2500 4200 1937 
Q 4400 1375 4550 1125 
Q 4950 1850 5125 3025 
L 3900 3025 
z
" transform="scale(0.015625)"/>
     <path id="SimHei-5757" d="M 3550 4050 
Q 3550 4800 3525 5175 
Q 3700 5125 4075 5075 
Q 4050 4900 4037 4650 
Q 4025 4400 4025 4050 
L 5425 4050 
Q 5400 3675 5400 3225 
L 5400 2200 
Q 5825 2200 6100 2225 
L 6100 1800 
Q 5725 1825 5425 1825 
L 4250 1825 
Q 4425 1425 4662 1062 
Q 4900 700 5275 350 
Q 5650 0 6175 -225 
Q 5975 -375 5775 -650 
Q 5550 -525 5187 -225 
Q 4825 75 4500 512 
Q 4175 950 3925 1500 
Q 3700 850 3400 462 
Q 3100 75 2837 -162 
Q 2575 -400 2175 -675 
Q 1975 -450 1800 -300 
Q 2100 -125 2425 125 
Q 2750 375 2987 662 
Q 3225 950 3350 1262 
Q 3475 1575 3500 1825 
L 2900 1825 
Q 2500 1825 2100 1800 
L 2100 2225 
Q 2500 2200 2900 2200 
L 3550 2200 
L 3550 3675 
L 3275 3675 
Q 2900 3675 2500 3625 
L 2500 4075 
Q 2875 4050 3275 4050 
L 3550 4050 
z
M 1125 3500 
L 1125 4250 
Q 1125 4650 1100 5050 
L 1600 5050 
Q 1575 4675 1575 4250 
L 1575 3500 
L 1775 3500 
Q 1950 3500 2350 3525 
L 2350 3100 
Q 1950 3125 1775 3125 
L 1575 3125 
L 1575 1225 
L 2475 1525 
L 2475 1100 
Q 2025 950 1437 725 
Q 850 500 450 325 
Q 300 700 200 875 
Q 475 925 712 987 
Q 950 1050 1125 1100 
L 1125 3125 
L 1025 3125 
Q 650 3125 325 3100 
L 325 3525 
Q 650 3500 1000 3500 
L 1125 3500 
z
M 4925 2200 
L 4925 3675 
L 4025 3675 
L 4025 2200 
L 4925 2200 
z
" transform="scale(0.015625)"/>
     <path id="SimHei-8f6e" d="M 2200 3350 
Q 2175 3050 2175 2750 
L 2175 2425 
Q 2575 2425 2850 2450 
L 2850 2025 
Q 2550 2050 2175 2050 
L 2175 1150 
L 2975 1250 
Q 2925 1075 2925 850 
Q 2625 825 2175 750 
Q 2175 150 2200 -650 
L 1700 -650 
Q 1725 125 1725 700 
Q 700 550 400 475 
Q 300 775 250 975 
Q 600 1000 1725 1100 
L 1725 2050 
Q 1425 2050 1100 2025 
Q 775 2000 475 1925 
L 300 2425 
Q 450 2550 650 2900 
Q 850 3250 1075 3850 
Q 750 3850 275 3825 
L 275 4275 
Q 750 4250 1200 4250 
Q 1375 4875 1425 5200 
Q 1675 5075 1950 5025 
Q 1825 4750 1650 4250 
L 2075 4250 
Q 2600 4250 2975 4275 
L 2975 3825 
Q 2550 3850 2100 3850 
L 1550 3850 
Q 1175 2900 900 2425 
L 1725 2425 
Q 1700 3050 1700 3350 
L 2200 3350 
z
M 3750 1625 
Q 4750 2075 5200 2550 
Q 5475 2225 5625 2125 
Q 5175 1875 4750 1650 
Q 4325 1425 3750 1175 
L 3750 225 
Q 3750 -75 4050 -100 
L 4925 -100 
Q 5250 -125 5325 137 
Q 5400 400 5400 600 
Q 5800 350 5975 300 
Q 5750 -225 5612 -362 
Q 5475 -500 5175 -500 
L 3850 -500 
Q 3300 -500 3300 0 
L 3300 1900 
Q 3300 2475 3275 2900 
L 3775 2900 
Q 3750 2450 3750 2100 
L 3750 1625 
z
M 4375 4800 
Q 4875 3975 5337 3650 
Q 5800 3325 6200 3125 
Q 5975 2875 5825 2650 
Q 5200 3075 4825 3487 
Q 4450 3900 4200 4350 
Q 3875 3825 3587 3412 
Q 3300 3000 2925 2625 
Q 2725 2800 2450 3000 
Q 2775 3200 3037 3487 
Q 3300 3775 3512 4150 
Q 3725 4525 3950 5275 
Q 4300 5100 4550 5000 
L 4375 4800 
z
" transform="scale(0.015625)"/>
     <path id="SimHei-52a8" d="M 4125 5150 
Q 4425 5075 4700 5075 
Q 4650 4825 4637 4512 
Q 4625 4200 4625 3750 
L 6025 3750 
Q 6000 3425 5975 3025 
L 5850 175 
Q 5775 -325 5437 -437 
Q 5100 -550 4675 -600 
Q 4600 -300 4425 -50 
Q 4975 -75 5175 12 
Q 5375 100 5375 350 
L 5525 3325 
L 4625 3325 
Q 4575 2225 4462 1650 
Q 4350 1075 4112 587 
Q 3875 100 3150 -675 
Q 2900 -425 2700 -350 
Q 3175 25 3475 437 
Q 3775 850 3900 1287 
Q 4025 1725 4075 2200 
Q 4125 2675 4150 3325 
L 3725 3325 
Q 3450 3325 3075 3300 
L 3075 3775 
Q 3450 3750 3775 3750 
L 4150 3750 
L 4150 4450 
Q 4150 4800 4125 5150 
z
M 275 3025 
Q 650 3000 1175 3000 
L 2125 3000 
Q 2575 3000 3150 3025 
L 3150 2575 
Q 2575 2600 2150 2600 
L 1875 2600 
Q 1725 2200 1537 1750 
Q 1350 1300 1100 850 
Q 2075 950 2575 1050 
Q 2450 1350 2175 1800 
Q 2450 1950 2575 2050 
Q 2825 1600 3000 1287 
Q 3175 975 3375 525 
Q 3175 400 2925 275 
Q 2825 500 2750 650 
Q 1950 525 1462 450 
Q 975 375 625 250 
Q 525 500 375 725 
Q 700 925 962 1525 
Q 1225 2125 1350 2600 
L 1175 2600 
Q 650 2600 275 2575 
L 275 3025 
z
M 2000 4425 
Q 2425 4425 2950 4450 
L 2950 3975 
Q 2425 4000 2000 4000 
L 1400 4000 
Q 1000 4000 625 3975 
L 625 4450 
Q 975 4425 1375 4425 
L 2000 4425 
z
" transform="scale(0.015625)"/>
     <path id="SimHei-5bf9" d="M 525 4250 
Q 900 4225 1400 4225 
L 2825 4225 
Q 2575 2625 2200 1750 
Q 2825 875 3125 400 
Q 2950 275 2725 75 
Q 2200 975 1950 1300 
Q 1650 775 1350 425 
Q 1050 75 600 -350 
Q 425 -125 200 -25 
Q 625 275 975 675 
Q 1325 1075 1650 1700 
Q 1050 2425 550 2900 
Q 700 3025 900 3225 
Q 1625 2425 1875 2150 
Q 2200 3050 2300 3825 
L 1400 3825 
Q 900 3825 525 3800 
L 525 4250 
z
M 2925 3700 
Q 3525 3675 3750 3675 
L 4825 3675 
L 4825 4425 
Q 4825 4750 4775 5125 
L 5350 5125 
Q 5325 4825 5325 4375 
L 5325 3675 
Q 5575 3675 6150 3700 
L 6150 3250 
Q 5575 3275 5325 3275 
L 5325 125 
Q 5350 -350 5012 -475 
Q 4675 -600 4250 -650 
Q 4175 -350 4025 -100 
Q 4575 -100 4712 -37 
Q 4850 25 4825 325 
L 4825 3275 
L 3775 3275 
Q 3550 3275 2925 3225 
L 2925 3700 
z
M 3450 2725 
Q 3875 1975 4175 1325 
Q 3850 1200 3700 1075 
Q 3475 1750 3050 2475 
Q 3225 2550 3450 2725 
z
" transform="scale(0.015625)"/>
     <path id="SimHei-6bd4" d="M 3775 5100 
Q 3750 4575 3750 4100 
L 3750 3050 
Q 4925 3600 5475 4175 
Q 5675 3900 5900 3675 
Q 5600 3500 5037 3187 
Q 4475 2875 3750 2550 
L 3750 450 
Q 3750 100 4050 100 
L 5000 100 
Q 5175 100 5262 250 
Q 5350 400 5450 900 
Q 5650 775 6025 675 
Q 5850 0 5650 -175 
Q 5450 -350 5225 -350 
L 3900 -350 
Q 3250 -350 3250 275 
L 3250 4000 
Q 3250 4550 3225 5100 
L 3775 5100 
z
M 1275 4975 
Q 1250 4575 1250 4000 
L 1250 3150 
L 1850 3150 
Q 2325 3150 2875 3175 
L 2875 2650 
Q 2325 2675 1850 2675 
L 1250 2675 
L 1250 475 
Q 1650 650 1962 812 
Q 2275 975 2850 1275 
Q 2900 950 2950 750 
Q 2375 475 1762 175 
Q 1150 -125 925 -325 
Q 750 -100 575 200 
Q 700 300 750 600 
L 750 3950 
Q 750 4550 725 4975 
L 1275 4975 
z
" transform="scale(0.015625)"/>
     <path id="SimHei-ff08" d="M 5425 5100 
L 5700 4775 
Q 4275 3725 4325 2350 
Q 4350 1025 5675 50 
L 5400 -275 
Q 3875 825 3925 2500 
Q 3925 3875 5425 5100 
z
" transform="scale(0.015625)"/>
     <path id="SimHei-8fd1" d="M 5700 4500 
Q 5450 4500 4800 4425 
Q 4150 4350 3275 4275 
L 3250 3275 
L 5150 3275 
Q 5550 3275 6025 3300 
L 6025 2825 
Q 5525 2850 4875 2850 
Q 4875 800 4900 350 
L 4350 350 
Q 4375 1150 4375 2850 
L 3250 2850 
Q 3200 2075 3087 1587 
Q 2975 1100 2475 425 
Q 2200 675 1975 750 
Q 2375 1125 2525 1525 
Q 2675 1925 2725 2312 
Q 2775 2700 2800 3325 
Q 2825 3950 2775 4700 
Q 3050 4700 3850 4775 
Q 4650 4850 5400 5075 
Q 5600 4675 5700 4500 
z
M 1675 2975 
Q 1650 2500 1650 1975 
L 1650 600 
Q 2125 225 3012 100 
Q 3900 -25 4750 0 
Q 5600 25 6150 125 
Q 6025 -175 5975 -500 
Q 4975 -500 4262 -475 
Q 3550 -450 3075 -375 
Q 2600 -300 2325 -200 
Q 2050 -100 1750 50 
Q 1450 200 1212 0 
Q 975 -200 700 -550 
Q 550 -375 250 -175 
Q 875 325 1175 550 
L 1175 2550 
Q 850 2550 350 2525 
L 350 3000 
Q 875 2975 1200 2975 
L 1675 2975 
z
M 1150 4950 
Q 1775 4300 2050 3900 
Q 1800 3750 1600 3575 
Q 1450 3900 750 4625 
Q 1000 4775 1150 4950 
z
" transform="scale(0.015625)"/>
     <path id="SimHei-6708" d="M 5250 4825 
Q 5200 4225 5200 3750 
L 5200 200 
Q 5200 -275 4950 -375 
Q 4700 -475 3975 -525 
Q 3925 -225 3750 50 
Q 4300 25 4512 50 
Q 4725 75 4725 400 
L 4725 1600 
L 1850 1600 
Q 1725 775 1450 225 
Q 1175 -325 900 -575 
Q 700 -400 400 -325 
Q 800 25 1037 512 
Q 1275 1000 1337 1475 
Q 1400 1950 1400 2525 
L 1400 3625 
Q 1400 4175 1375 4825 
L 5250 4825 
z
M 4725 3400 
L 4725 4450 
L 1875 4450 
L 1875 3400 
L 4725 3400 
z
M 4725 2000 
L 4725 3025 
L 1875 3025 
L 1875 2000 
L 4725 2000 
z
" transform="scale(0.015625)"/>
     <path id="SimHei-ff09" d="M 1000 5100 
Q 2500 3875 2500 2500 
Q 2550 825 1025 -275 
L 750 50 
Q 2075 1025 2100 2350 
Q 2150 3725 725 4775 
L 1000 5100 
z
" transform="scale(0.015625)"/>
    </defs>
    <use xlink:href="#SimHei-5168"/>
    <use xlink:href="#SimHei-7403" transform="translate(100 0)"/>
    <use xlink:href="#SimHei-677f" transform="translate(200 0)"/>
    <use xlink:href="#SimHei-5757" transform="translate(300 0)"/>
    <use xlink:href="#SimHei-8f6e" transform="translate(400 0)"/>
    <use xlink:href="#SimHei-52a8" transform="translate(500 0)"/>
    <use xlink:href="#SimHei-5bf9" transform="translate(600 0)"/>
    <use xlink:href="#SimHei-6bd4" transform="translate(700 0)"/>
    <use xlink:href="#SimHei-ff08" transform="translate(800 0)"/>
    <use xlink:href="#SimHei-8fd1" transform="translate(900 0)"/>
    <use xlink:href="#SimHei-31" transform="translate(1000 0)"/>
    <use xlink:href="#SimHei-6708" transform="translate(1050 0)"/>
    <use xlink:href="#SimHei-ff09" transform="translate(1150 0)"/>
   </g>
  </g>
 </g>
 <defs>
  <clipPath id="p3ae99e5888">
   <rect x="80.1976" y="47.42675" width="308.986424" height="575.89625"/>
  </clipPath>
  <clipPath id="pba3f4e544b">
   <rect x="435.531988" y="47.42675" width="308.986424" height="575.89625"/>
  </clipPath>
  <clipPath id="p00af54c572">
   <rect x="790.866376" y="47.42675" width="308.986424" height="575.89625"/>
  </clipPath>
 </defs>
</svg>
