<?xml version="1.0" encoding="utf-8" standalone="no"?>
<!DOCTYPE svg PUBLIC "-//W3C//DTD SVG 1.1//EN"
  "http://www.w3.org/Graphics/SVG/1.1/DTD/svg11.dtd">
<svg xmlns:xlink="http://www.w3.org/1999/xlink" width="811.977545pt" height="376.964378pt" viewBox="0 0 811.977545 376.964378" xmlns="http://www.w3.org/2000/svg" version="1.1">
 <metadata>
  <rdf:RDF xmlns:dc="http://purl.org/dc/elements/1.1/" xmlns:cc="http://creativecommons.org/ns#" xmlns:rdf="http://www.w3.org/1999/02/22-rdf-syntax-ns#">
   <cc:Work>
    <dc:type rdf:resource="http://purl.org/dc/dcmitype/StillImage"/>
    <dc:date>2026-07-20T16:23:05.785629</dc:date>
    <dc:format>image/svg+xml</dc:format>
    <dc:creator>
     <cc:Agent>
      <dc:title>Matplotlib v3.10.7, https://matplotlib.org/</dc:title>
     </cc:Agent>
    </dc:creator>
   </cc:Work>
  </rdf:RDF>
 </metadata>
 <defs>
  <style type="text/css">*{stroke-linejoin: round; stroke-linecap: butt}</style>
 </defs>
 <g id="figure_1">
  <g id="patch_1">
   <path d="M 0 376.964378 
L 811.977545 376.964378 
L 811.977545 0 
L 0 0 
z
" style="fill: #1a1a1a"/>
  </g>
  <g id="axes_1">
   <g id="patch_2">
    <path d="M 238.952114 72.922951 
C 238.952114 72.922951 238.952114 72.922951 238.952114 72.922951 
L 238.952114 184.571004 
z
" style="fill: #2ecc71; stroke: #ffffff; stroke-width: 2; stroke-linejoin: miter"/>
   </g>
   <g id="patch_3">
    <path d="M 238.952114 72.922951 
C 222.320745 72.922951 205.897617 76.639125 190.886388 83.799114 
C 175.875159 90.959103 162.65174 101.383606 152.18528 114.308607 
C 141.718821 127.233608 134.271421 142.33544 130.388905 158.507283 
C 126.506389 174.679126 126.285982 191.516005 129.743838 207.783939 
C 133.201694 224.051872 140.251221 239.343479 150.375756 252.538032 
C 160.500292 265.732584 173.446298 276.499664 188.264956 284.050147 
C 203.083614 291.600631 219.403836 295.74544 236.029506 296.180799 
C 252.655176 296.616158 269.169954 293.331164 284.363466 286.566578 
L 238.952114 184.571004 
z
" style="fill: #f1c40f; stroke: #ffffff; stroke-width: 2; stroke-linejoin: miter"/>
   </g>
   <g id="patch_4">
    <path d="M 284.363466 286.566578 
C 295.066331 281.801355 304.952746 275.381042 313.659242 267.541679 
C 322.365737 259.702316 329.784291 250.541165 335.642163 240.395033 
L 238.952114 184.571004 
z
" style="fill: #e74c3c; stroke: #ffffff; stroke-width: 2; stroke-linejoin: miter"/>
   </g>
   <g id="patch_5">
    <path d="M 335.642163 240.395033 
C 345.440598 223.423647 350.600167 204.167873 350.600167 184.571004 
C 350.600167 164.974136 345.440598 145.718362 335.642163 128.746976 
C 325.843729 111.77559 311.747523 97.679386 294.776137 87.880952 
C 277.804751 78.082518 258.548977 72.92295 238.952108 72.922951 
L 238.952114 184.571004 
z
" style="fill: #bdc3c7; stroke: #ffffff; stroke-width: 2; stroke-linejoin: miter"/>
   </g>
   <g id="matplotlib.axis_1"/>
   <g id="matplotlib.axis_2"/>
   <g id="text_1">
    <!-- 0% -->
    <g style="fill: #ffffff" transform="translate(233.452114 120.675922) scale(0.11 -0.11)">
     <defs>
      <path id="SimHei-30" d="M 225 2537 
Q 250 3200 412 3587 
Q 575 3975 875 4225 
Q 1175 4475 1612 4475 
Q 2050 4475 2375 4112 
Q 2700 3750 2800 3200 
Q 2900 2650 2862 1937 
Q 2825 1225 2612 775 
Q 2400 325 1975 150 
Q 1550 -25 1125 187 
Q 700 400 525 750 
Q 350 1100 275 1487 
Q 200 1875 225 2537 
z
M 750 2687 
Q 675 2000 800 1462 
Q 925 925 1212 700 
Q 1500 475 1800 612 
Q 2100 750 2237 1162 
Q 2375 1575 2375 2062 
Q 2375 2550 2337 2950 
Q 2300 3350 2112 3675 
Q 1925 4000 1612 4012 
Q 1300 4025 1062 3700 
Q 825 3375 750 2687 
z
" transform="scale(0.015625)"/>
      <path id="SimHei-25" d="M 1400 3325 
Q 1400 2600 1187 2400 
Q 975 2200 775 2200 
Q 575 2200 362 2400 
Q 150 2600 150 3325 
Q 150 4050 362 4250 
Q 575 4450 775 4450 
Q 975 4450 1187 4250 
Q 1400 4050 1400 3325 
z
M 2625 4375 
L 700 75 
L 500 150 
L 2425 4450 
L 2625 4375 
z
M 2975 1200 
Q 2975 475 2762 275 
Q 2550 75 2350 75 
Q 2150 75 1937 275 
Q 1725 475 1725 1200 
Q 1725 1925 1937 2125 
Q 2150 2325 2350 2325 
Q 2550 2325 2762 2125 
Q 2975 1925 2975 1200 
z
M 1000 3325 
Q 1000 3775 950 3925 
Q 900 4075 775 4075 
Q 650 4075 600 3925 
Q 550 3775 550 3325 
Q 550 2875 600 2725 
Q 650 2575 775 2575 
Q 900 2575 950 2725 
Q 1000 2875 1000 3325 
z
M 2575 1200 
Q 2575 1650 2525 1800 
Q 2475 1950 2350 1950 
Q 2225 1950 2175 1800 
Q 2125 1650 2125 1200 
Q 2125 750 2175 600 
Q 2225 450 2350 450 
Q 2475 450 2525 600 
Q 2575 750 2575 1200 
z
" transform="scale(0.015625)"/>
     </defs>
     <use xlink:href="#SimHei-30"/>
     <use xlink:href="#SimHei-25" transform="translate(50 0)"/>
    </g>
   </g>
   <g id="text_2">
    <!-- 57% -->
    <g style="fill: #ffffff" transform="translate(165.177148 201.592515) scale(0.11 -0.11)">
     <defs>
      <path id="SimHei-35" d="M 550 1325 
Q 725 650 1150 575 
Q 1575 500 1837 662 
Q 2100 825 2212 1087 
Q 2325 1350 2312 1675 
Q 2300 2000 2137 2225 
Q 1975 2450 1725 2525 
Q 1475 2600 1162 2525 
Q 850 2450 650 2175 
L 225 2225 
Q 275 2375 700 4375 
L 2675 4375 
L 2675 3925 
L 1075 3925 
Q 950 3250 825 2850 
Q 1200 3025 1525 3012 
Q 1850 3000 2150 2862 
Q 2450 2725 2587 2487 
Q 2725 2250 2787 2012 
Q 2850 1775 2837 1500 
Q 2825 1225 2725 937 
Q 2625 650 2425 462 
Q 2225 275 1937 162 
Q 1650 50 1275 75 
Q 900 100 562 350 
Q 225 600 100 1200 
L 550 1325 
z
" transform="scale(0.015625)"/>
      <path id="SimHei-37" d="M 850 150 
Q 1300 2050 2425 3925 
L 275 3925 
L 275 4375 
L 2950 4375 
L 2950 3950 
Q 1775 2050 1400 150 
L 850 150 
z
" transform="scale(0.015625)"/>
     </defs>
     <use xlink:href="#SimHei-35"/>
     <use xlink:href="#SimHei-37" transform="translate(50 0)"/>
     <use xlink:href="#SimHei-25" transform="translate(100 0)"/>
    </g>
   </g>
   <g id="text_3">
    <!-- 10% -->
    <g style="fill: #ffffff" transform="translate(275.52639 237.447159) scale(0.11 -0.11)">
     <defs>
      <path id="SimHei-31" d="M 1400 3600 
Q 1075 3275 575 2975 
L 575 3450 
Q 1200 3875 1600 4450 
L 1900 4450 
L 1900 150 
L 1400 150 
L 1400 3600 
z
" transform="scale(0.015625)"/>
     </defs>
     <use xlink:href="#SimHei-31"/>
     <use xlink:href="#SimHei-30" transform="translate(50 0)"/>
     <use xlink:href="#SimHei-25" transform="translate(100 0)"/>
    </g>
   </g>
   <g id="text_4">
    <!-- 33% -->
    <g style="fill: #ffffff" transform="translate(288.716143 154.170337) scale(0.11 -0.11)">
     <defs>
      <path id="SimHei-33" d="M 250 1225 
L 700 1300 
Q 800 975 1025 762 
Q 1250 550 1587 562 
Q 1925 575 2125 837 
Q 2325 1100 2300 1437 
Q 2275 1775 2037 1962 
Q 1800 2150 1275 2225 
L 1275 2550 
Q 1800 2600 2037 2825 
Q 2275 3050 2250 3412 
Q 2225 3775 1925 3937 
Q 1625 4100 1287 3975 
Q 950 3850 750 3275 
L 300 3350 
Q 450 3800 712 4100 
Q 975 4400 1425 4450 
Q 1875 4500 2212 4337 
Q 2550 4175 2687 3837 
Q 2825 3500 2725 3100 
Q 2625 2700 2150 2400 
Q 2500 2250 2687 1950 
Q 2875 1650 2812 1162 
Q 2750 675 2375 375 
Q 2000 75 1525 87 
Q 1050 100 700 387 
Q 350 675 250 1225 
z
" transform="scale(0.015625)"/>
     </defs>
     <use xlink:href="#SimHei-33"/>
     <use xlink:href="#SimHei-33" transform="translate(50 0)"/>
     <use xlink:href="#SimHei-25" transform="translate(100 0)"/>
    </g>
   </g>
   <g id="text_5">
    <!-- TOP30 活跃股资金意图分类 -->
    <g style="fill: #ffffff" transform="translate(160.952114 17.660937) scale(0.13 -0.13)">
     <defs>
      <path id="SimHei-54" d="M 2850 3925 
L 1850 3925 
L 1850 125 
L 1275 125 
L 1275 3925 
L 275 3925 
L 275 4400 
L 2850 4400 
L 2850 3925 
z
" transform="scale(0.015625)"/>
      <path id="SimHei-4f" d="M 2950 2275 
Q 2950 1100 2587 587 
Q 2225 75 1575 75 
Q 925 75 550 587 
Q 175 1100 175 2275 
Q 175 3450 550 3950 
Q 925 4450 1575 4450 
Q 2225 4450 2587 3950 
Q 2950 3450 2950 2275 
z
M 2350 2275 
Q 2350 3325 2125 3650 
Q 1900 3975 1575 3975 
Q 1250 3975 1012 3650 
Q 775 3325 775 2275 
Q 775 1225 1012 887 
Q 1250 550 1575 550 
Q 1900 550 2125 887 
Q 2350 1225 2350 2275 
z
" transform="scale(0.015625)"/>
      <path id="SimHei-50" d="M 2950 3100 
Q 2950 2500 2600 2150 
Q 2250 1800 1625 1800 
L 900 1800 
L 900 125 
L 325 125 
L 325 4400 
L 1625 4400 
Q 2250 4400 2600 4050 
Q 2950 3700 2950 3100 
z
M 2375 3100 
Q 2375 3575 2150 3750 
Q 1925 3925 1475 3925 
L 900 3925 
L 900 2275 
L 1475 2275 
Q 1925 2275 2150 2450 
Q 2375 2625 2375 3100 
z
" transform="scale(0.015625)"/>
      <path id="SimHei-20" transform="scale(0.015625)"/>
      <path id="SimHei-6d3b" d="M 5375 5000 
Q 5500 4775 5725 4525 
Q 5325 4475 4987 4425 
Q 4650 4375 4250 4325 
L 4250 3275 
L 5325 3275 
Q 5725 3275 6075 3300 
L 6075 2850 
Q 5775 2875 5325 2875 
L 4250 2875 
L 4250 1825 
L 5650 1825 
Q 5625 1350 5625 550 
Q 5625 -250 5650 -550 
L 5150 -550 
L 5150 -75 
L 2975 -75 
L 2975 -575 
L 2500 -575 
Q 2525 -250 2525 625 
Q 2525 1525 2500 1825 
L 3775 1825 
L 3775 2875 
L 2975 2875 
Q 2425 2875 2025 2850 
L 2025 3300 
Q 2450 3275 3000 3275 
L 3775 3275 
L 3775 4225 
Q 3100 4150 2475 4050 
Q 2450 4325 2275 4525 
Q 2825 4500 3962 4675 
Q 5100 4850 5375 5000 
z
M 5150 325 
L 5150 1425 
L 2975 1425 
L 2975 325 
L 5150 325 
z
M 2075 1725 
Q 1700 1000 1400 375 
Q 1100 -250 950 -525 
Q 700 -325 400 -200 
Q 600 25 900 500 
Q 1200 975 1650 2050 
Q 1875 1825 2075 1725 
z
M 725 3475 
Q 1250 3125 1900 2675 
Q 1725 2475 1550 2250 
Q 950 2725 400 3075 
Q 575 3275 725 3475 
z
M 1100 5025 
Q 1625 4675 2150 4225 
Q 1900 4025 1775 3825 
Q 1400 4225 750 4650 
Q 925 4825 1100 5025 
z
" transform="scale(0.015625)"/>
      <path id="SimHei-8dc3" d="M 625 1950 
Q 625 2225 600 2525 
L 1100 2525 
Q 1075 2225 1075 1950 
L 1075 525 
L 1525 600 
L 1525 3050 
L 725 3050 
Q 750 3525 750 4025 
Q 750 4550 725 5025 
L 2675 5025 
Q 2650 4550 2650 4025 
Q 2650 3525 2675 3050 
L 1975 3050 
L 1975 2225 
Q 2300 2225 2675 2250 
L 2675 1825 
Q 2300 1850 1975 1850 
L 1975 700 
L 2775 900 
L 2775 475 
Q 1325 125 1025 37 
Q 725 -50 425 -175 
Q 325 125 225 375 
Q 425 400 625 450 
L 625 1950 
z
M 2175 -300 
Q 2600 -75 2912 225 
Q 3225 525 3437 887 
Q 3650 1250 3775 1662 
Q 3900 2075 3950 2500 
Q 3050 2500 2725 2475 
L 2725 2900 
Q 3225 2875 4000 2875 
L 4000 4350 
Q 3625 4300 3025 4175 
Q 3000 4425 2850 4625 
Q 3425 4650 4212 4800 
Q 5000 4950 5250 5125 
Q 5375 4925 5625 4675 
Q 5350 4600 4450 4450 
L 4450 2875 
Q 5525 2875 5900 2900 
L 5900 2475 
Q 5500 2500 4525 2500 
Q 4550 2075 4862 1387 
Q 5175 700 5525 350 
Q 5875 0 6175 -175 
Q 5900 -275 5725 -550 
Q 5225 -125 4950 275 
Q 4675 675 4525 1000 
Q 4375 1325 4275 1725 
Q 4100 1050 3787 550 
Q 3475 50 2650 -625 
Q 2425 -450 2175 -300 
z
M 2225 3450 
L 2225 4625 
L 1175 4625 
L 1175 3450 
L 2225 3450 
z
" transform="scale(0.015625)"/>
      <path id="SimHei-80a1" d="M 1575 50 
Q 1925 25 2100 50 
Q 2275 75 2275 450 
L 2275 1625 
L 1325 1625 
Q 1250 900 1125 437 
Q 1000 -25 750 -525 
Q 550 -325 225 -250 
Q 550 150 687 762 
Q 825 1375 837 2150 
Q 850 2925 850 3725 
Q 850 4525 825 4900 
L 2750 4900 
Q 2725 4400 2725 3900 
L 2725 225 
Q 2725 -250 2512 -350 
Q 2300 -450 1750 -550 
Q 1700 -225 1575 50 
z
M 5225 -275 
Q 4950 -150 4450 275 
Q 4200 25 3875 -212 
Q 3550 -450 3100 -700 
Q 2925 -375 2725 -225 
Q 3250 -50 3550 137 
Q 3850 325 4100 600 
Q 3825 950 3625 1375 
Q 3425 1750 3325 2150 
Q 3225 2150 3125 2150 
L 3125 2600 
Q 3550 2575 3950 2575 
L 5725 2575 
Q 5650 2200 5375 1600 
Q 5100 1000 4775 600 
Q 5025 425 5387 237 
Q 5750 50 6200 -50 
Q 5950 -250 5850 -600 
L 5225 -275 
z
M 5325 3750 
Q 5300 3425 5600 3425 
L 6150 3450 
Q 6050 3225 6025 3000 
L 5400 3000 
Q 4825 3000 4825 3450 
L 4825 4500 
L 4000 4500 
Q 4000 3900 3862 3512 
Q 3725 3125 3275 2750 
Q 3150 2950 2900 3125 
Q 3425 3450 3475 3950 
Q 3525 4450 3500 4900 
L 5350 4900 
Q 5325 4675 5325 4375 
L 5325 3750 
z
M 2275 2050 
L 2275 3075 
L 1350 3075 
L 1350 2050 
L 2275 2050 
z
M 2275 3475 
L 2275 4500 
L 1350 4500 
L 1350 3475 
L 2275 3475 
z
M 3800 2175 
Q 3900 1750 4050 1475 
Q 4225 1175 4450 925 
Q 4925 1550 5050 2175 
L 3950 2175 
L 3800 2175 
z
" transform="scale(0.015625)"/>
      <path id="SimHei-8d44" d="M 5300 2150 
Q 5275 1825 5275 1450 
Q 5275 1075 5300 575 
L 4800 575 
L 4800 1725 
L 1700 1725 
L 1700 425 
L 1200 425 
Q 1225 1000 1225 1375 
Q 1225 1775 1200 2150 
L 5300 2150 
z
M 4225 4075 
Q 4050 3775 4200 3562 
Q 4350 3350 4612 3162 
Q 4875 2975 5262 2850 
Q 5650 2725 6125 2700 
Q 5925 2425 5825 2175 
Q 5200 2300 4712 2550 
Q 4225 2800 3900 3350 
Q 3675 2775 3250 2550 
Q 2825 2325 2325 2175 
Q 2125 2400 1925 2575 
Q 2975 2775 3300 3175 
Q 3625 3575 3650 4150 
L 4225 4075 
z
M 3125 4250 
Q 2825 3850 2550 3650 
Q 2375 3825 2175 3950 
Q 2475 4150 2737 4487 
Q 3000 4825 3150 5200 
Q 3375 5100 3700 5050 
Q 3575 4825 3400 4650 
L 5750 4650 
Q 5675 4500 5300 3675 
Q 5000 3750 4800 3775 
Q 4925 4050 5025 4250 
L 3125 4250 
z
M 3525 1375 
Q 3400 1100 3337 825 
Q 3275 550 3012 262 
Q 2750 -25 2250 -275 
Q 1750 -525 800 -675 
Q 725 -425 500 -200 
Q 1225 -175 1712 -12 
Q 2200 150 2450 350 
Q 2700 550 2812 837 
Q 2925 1125 2925 1450 
Q 3225 1400 3525 1375 
z
M 3825 700 
Q 4300 525 4750 350 
Q 5200 175 5825 -100 
Q 5675 -300 5550 -600 
Q 5075 -325 4612 -125 
Q 4150 75 3625 250 
Q 3750 450 3825 700 
z
M 2075 3325 
Q 1450 2750 875 2050 
Q 625 2325 475 2425 
Q 1275 3050 1725 3625 
Q 1850 3500 2075 3325 
z
M 1700 3975 
Q 1300 4275 625 4675 
Q 800 4850 925 5025 
Q 1150 4875 2000 4350 
Q 1850 4200 1700 3975 
z
" transform="scale(0.015625)"/>
      <path id="SimHei-91d1" d="M 1800 1250 
Q 2200 700 2500 225 
Q 2325 125 2150 -50 
L 2925 -50 
L 2925 1400 
L 2075 1400 
Q 1725 1400 1100 1375 
L 1100 1850 
Q 1725 1825 2050 1825 
L 2925 1825 
L 2925 2600 
Q 2100 2600 1625 2575 
L 1625 2975 
Q 1225 2675 650 2350 
Q 500 2575 275 2775 
Q 750 2950 1250 3300 
Q 1750 3650 2225 4162 
Q 2700 4675 3000 5250 
Q 3050 5200 3525 4975 
L 3375 4825 
Q 3650 4525 4050 4150 
Q 4450 3775 5000 3487 
Q 5550 3200 6150 3025 
Q 5950 2825 5825 2550 
Q 5325 2725 4800 3000 
L 4800 2575 
Q 4300 2600 4000 2600 
L 3400 2600 
L 3400 1825 
L 4275 1825 
Q 4700 1825 5325 1850 
L 5325 1375 
Q 4725 1400 4275 1400 
L 3400 1400 
L 3400 -50 
L 3875 -50 
Q 4450 950 4500 1300 
Q 4725 1150 5050 1000 
Q 4875 775 4375 -50 
Q 5150 -50 5875 -25 
L 5875 -500 
Q 5150 -475 4700 -475 
L 1725 -475 
Q 1200 -475 700 -500 
L 700 -25 
Q 1225 -50 1725 -50 
L 2025 -50 
Q 1850 350 1400 950 
Q 1625 1100 1800 1250 
z
M 1700 3050 
Q 2075 3025 2400 3025 
L 3900 3025 
Q 4275 3050 4700 3050 
Q 4275 3350 3837 3762 
Q 3400 4175 3125 4525 
Q 2850 4150 2462 3762 
Q 2075 3375 1700 3050 
z
" transform="scale(0.015625)"/>
      <path id="SimHei-610f" d="M 5175 2900 
Q 5150 2425 5150 1975 
Q 5150 1550 5175 1050 
L 1200 1050 
Q 1225 1550 1225 2000 
Q 1225 2450 1200 2900 
L 5175 2900 
z
M 1575 4250 
Q 1125 4250 625 4225 
L 625 4650 
Q 1150 4625 1575 4625 
L 3075 4625 
Q 3050 4825 2900 5150 
Q 3175 5175 3475 5250 
Q 3575 4800 3625 4625 
L 4775 4625 
Q 5275 4625 5650 4650 
L 5650 4225 
Q 5225 4250 4775 4250 
L 2275 4250 
Q 2450 4000 2575 3775 
L 2225 3625 
L 3800 3625 
Q 3900 3750 4025 4200 
Q 4325 4125 4575 4050 
Q 4400 3825 4300 3625 
L 5050 3625 
Q 5600 3625 6075 3650 
L 6075 3225 
Q 5600 3250 5050 3250 
L 1300 3250 
Q 775 3250 325 3225 
L 325 3650 
Q 800 3625 1300 3625 
L 2125 3625 
Q 2050 3825 1875 4050 
Q 2025 4125 2225 4250 
L 1575 4250 
z
M 2325 725 
Q 2300 450 2300 275 
Q 2300 125 2312 0 
Q 2325 -125 2550 -125 
L 4025 -125 
Q 4175 -75 4275 450 
Q 4475 275 4825 175 
Q 4650 -300 4525 -400 
Q 4400 -500 4100 -500 
L 2275 -500 
Q 1850 -475 1825 -287 
Q 1800 -100 1800 150 
Q 1800 400 1750 725 
L 2325 725 
z
M 4650 2150 
L 4650 2550 
L 1725 2550 
L 1725 2150 
L 4650 2150 
z
M 4650 1425 
L 4650 1775 
L 1725 1775 
L 1725 1425 
L 4650 1425 
z
M 5400 850 
Q 5875 225 6125 -75 
Q 5900 -250 5725 -375 
Q 5550 -100 5000 575 
Q 5150 700 5400 850 
z
M 1275 575 
Q 1050 100 800 -550 
Q 500 -425 300 -375 
Q 600 25 800 725 
Q 1025 625 1275 575 
z
M 3325 975 
Q 3600 600 3775 350 
Q 3550 200 3325 75 
Q 3250 300 2900 700 
Q 3050 825 3325 975 
z
" transform="scale(0.015625)"/>
      <path id="SimHei-56fe" d="M 5800 4975 
Q 5775 4350 5775 3600 
L 5775 925 
Q 5775 150 5800 -600 
L 5300 -600 
L 5300 -275 
L 1125 -275 
L 1125 -650 
L 625 -650 
Q 650 125 650 950 
L 650 3600 
Q 650 4325 625 4975 
L 5800 4975 
z
M 5300 150 
L 5300 4575 
L 1125 4575 
L 1125 150 
L 5300 150 
z
M 3225 4250 
Q 3075 4100 2950 3925 
L 4625 3925 
Q 4525 3700 4300 3375 
Q 4075 3050 3600 2600 
Q 4350 2225 5075 2150 
Q 4900 1925 4775 1675 
Q 3850 1950 3225 2350 
Q 2500 1875 1675 1650 
Q 1600 1875 1400 2075 
Q 2200 2200 2875 2600 
Q 2525 2925 2375 3150 
Q 2150 2900 1900 2650 
Q 1725 2850 1525 2950 
Q 1950 3300 2250 3737 
Q 2550 4175 2675 4475 
Q 2925 4350 3225 4250 
z
M 2450 1275 
Q 3550 950 4100 725 
Q 3975 525 3850 300 
Q 2825 725 2275 850 
Q 2375 1050 2450 1275 
z
M 2925 2050 
Q 3775 1700 4075 1600 
Q 3950 1400 3850 1150 
Q 3000 1550 2700 1650 
Q 2825 1825 2925 2050 
z
M 2625 3450 
Q 3000 3025 3275 2850 
Q 3600 3100 3875 3525 
L 2675 3525 
L 2625 3450 
z
" transform="scale(0.015625)"/>
      <path id="SimHei-5206" d="M 1000 -650 
Q 825 -375 575 -225 
Q 975 -75 1300 137 
Q 1625 350 1875 662 
Q 2125 975 2250 1350 
Q 2375 1725 2425 2275 
Q 1850 2275 1500 2250 
L 1500 2775 
Q 1900 2750 2525 2750 
L 5025 2750 
Q 4975 2375 4950 2100 
L 4750 250 
Q 4700 -200 4350 -350 
Q 4000 -500 3575 -525 
Q 3550 -275 3325 50 
Q 3850 25 4037 87 
Q 4225 150 4275 525 
L 4450 2275 
L 2950 2275 
Q 2875 1625 2737 1187 
Q 2600 750 2350 425 
Q 2100 100 1750 -175 
Q 1400 -450 1000 -650 
z
M 3950 5175 
Q 4125 4650 4662 3975 
Q 5200 3300 6175 2800 
Q 5975 2625 5775 2275 
Q 5325 2600 4987 2887 
Q 4650 3175 4425 3425 
Q 4200 3675 3925 4137 
Q 3650 4600 3475 5000 
Q 3750 5075 3950 5175 
z
M 2700 4825 
Q 2475 4425 2325 4125 
Q 2175 3825 2025 3587 
Q 1875 3350 1575 2950 
Q 1275 2550 850 2125 
Q 625 2350 400 2475 
Q 900 2925 1187 3300 
Q 1475 3675 1737 4112 
Q 2000 4550 2200 5075 
Q 2400 4925 2700 4825 
z
" transform="scale(0.015625)"/>
      <path id="SimHei-7c7b" d="M 2125 3875 
Q 1750 4375 1325 4725 
Q 1525 4875 1675 5050 
L 2525 4225 
Q 2400 4125 2200 3875 
L 3025 3875 
L 3025 4550 
Q 3025 4900 3000 5125 
L 3525 5125 
Q 3500 4850 3500 4550 
L 3500 3875 
L 4325 3875 
Q 4125 4050 4000 4150 
Q 4450 4575 4800 5175 
Q 5000 5000 5275 4825 
Q 5100 4675 4912 4475 
Q 4725 4275 4400 3875 
L 5025 3875 
Q 5425 3875 5900 3900 
L 5900 3450 
Q 5425 3475 5025 3475 
L 3500 3475 
L 3500 3050 
Q 3500 2650 3525 2175 
L 3175 2175 
Q 3475 2075 3675 2000 
Q 3575 1875 3525 1575 
L 5025 1575 
Q 5525 1575 6025 1600 
L 6025 1150 
Q 5550 1175 5050 1175 
L 3675 1175 
Q 4050 600 4712 275 
Q 5375 -50 6050 -175 
Q 5850 -350 5725 -675 
Q 4975 -450 4350 -37 
Q 3725 375 3300 950 
Q 3050 350 2425 -50 
Q 1800 -450 775 -700 
Q 650 -425 475 -225 
Q 1375 -100 2012 225 
Q 2650 550 2900 1175 
L 1625 1175 
Q 1025 1175 525 1150 
L 525 1600 
Q 950 1575 1600 1575 
L 3025 1575 
Q 3075 1825 3100 2175 
L 3000 2175 
Q 3025 2675 3025 3050 
L 3025 3325 
Q 2725 2900 2237 2550 
Q 1750 2200 925 1825 
Q 850 2025 625 2275 
Q 1175 2400 1725 2737 
Q 2275 3075 2600 3475 
L 1550 3475 
Q 1050 3475 600 3425 
L 600 3900 
Q 1075 3875 1550 3875 
L 2125 3875 
z
M 4100 3450 
Q 4850 3000 5800 2350 
Q 5575 2125 5425 1925 
Q 4700 2550 3825 3075 
Q 3975 3250 4100 3450 
z
" transform="scale(0.015625)"/>
     </defs>
     <use xlink:href="#SimHei-54"/>
     <use xlink:href="#SimHei-4f" transform="translate(50 0)"/>
     <use xlink:href="#SimHei-50" transform="translate(100 0)"/>
     <use xlink:href="#SimHei-33" transform="translate(150 0)"/>
     <use xlink:href="#SimHei-30" transform="translate(200 0)"/>
     <use xlink:href="#SimHei-20" transform="translate(250 0)"/>
     <use xlink:href="#SimHei-6d3b" transform="translate(300 0)"/>
     <use xlink:href="#SimHei-8dc3" transform="translate(400 0)"/>
     <use xlink:href="#SimHei-80a1" transform="translate(500 0)"/>
     <use xlink:href="#SimHei-8d44" transform="translate(600 0)"/>
     <use xlink:href="#SimHei-91d1" transform="translate(700 0)"/>
     <use xlink:href="#SimHei-610f" transform="translate(800 0)"/>
     <use xlink:href="#SimHei-56fe" transform="translate(900 0)"/>
     <use xlink:href="#SimHei-5206" transform="translate(1000 0)"/>
     <use xlink:href="#SimHei-7c7b" transform="translate(1100 0)"/>
    </g>
    <!-- 2026-07-20 -->
    <g style="fill: #ffffff" transform="translate(206.452114 30.010938) scale(0.13 -0.13)">
     <defs>
      <path id="SimHei-32" d="M 300 250 
Q 325 625 650 925 
Q 975 1225 1475 1862 
Q 1975 2500 2125 2850 
Q 2275 3200 2237 3450 
Q 2200 3700 2000 3862 
Q 1800 4025 1537 4000 
Q 1275 3975 1037 3800 
Q 800 3625 675 3275 
L 200 3350 
Q 400 3925 712 4187 
Q 1025 4450 1450 4475 
Q 1700 4500 1900 4462 
Q 2100 4425 2312 4287 
Q 2525 4150 2662 3875 
Q 2800 3600 2762 3212 
Q 2725 2825 2375 2287 
Q 2025 1750 1025 600 
L 2825 600 
L 2825 150 
L 300 150 
L 300 250 
z
" transform="scale(0.015625)"/>
      <path id="SimHei-36" d="M 250 1612 
Q 275 1975 387 2225 
Q 500 2475 725 2850 
L 1750 4450 
L 2325 4450 
L 1275 2800 
Q 1950 2975 2350 2750 
Q 2750 2525 2887 2237 
Q 3025 1950 3037 1612 
Q 3050 1275 2937 950 
Q 2825 625 2537 362 
Q 2250 100 1737 75 
Q 1225 50 862 262 
Q 500 475 362 862 
Q 225 1250 250 1612 
z
M 1025 787 
Q 1250 550 1625 525 
Q 2000 500 2250 775 
Q 2500 1050 2500 1575 
Q 2500 2100 2187 2300 
Q 1875 2500 1487 2450 
Q 1100 2400 925 2075 
Q 750 1750 775 1387 
Q 800 1025 1025 787 
z
" transform="scale(0.015625)"/>
      <path id="SimHei-2d" d="M 2975 2125 
L 125 2125 
L 125 2525 
L 2975 2525 
L 2975 2125 
z
" transform="scale(0.015625)"/>
     </defs>
     <use xlink:href="#SimHei-32"/>
     <use xlink:href="#SimHei-30" transform="translate(50 0)"/>
     <use xlink:href="#SimHei-32" transform="translate(100 0)"/>
     <use xlink:href="#SimHei-36" transform="translate(150 0)"/>
     <use xlink:href="#SimHei-2d" transform="translate(200 0)"/>
     <use xlink:href="#SimHei-30" transform="translate(250 0)"/>
     <use xlink:href="#SimHei-37" transform="translate(300 0)"/>
     <use xlink:href="#SimHei-2d" transform="translate(350 0)"/>
     <use xlink:href="#SimHei-32" transform="translate(400 0)"/>
     <use xlink:href="#SimHei-30" transform="translate(450 0)"/>
    </g>
   </g>
   <g id="legend_1">
    <g id="patch_6">
     <path d="M 9.4 225.744442 
L 121.6 225.744442 
Q 123.8 225.744442 123.8 223.544442 
L 123.8 145.597567 
Q 123.8 143.397567 121.6 143.397567 
L 9.4 143.397567 
Q 7.2 143.397567 7.2 145.597567 
L 7.2 223.544442 
Q 7.2 225.744442 9.4 225.744442 
z
" style="fill: #2d2d2d; opacity: 0.85; stroke: #cccccc; stroke-linejoin: miter"/>
    </g>
    <g id="text_6">
     <!-- 资金类型 -->
     <g style="fill: #ffffff" transform="translate(41.5 157.453817) scale(0.12 -0.12)">
      <defs>
       <path id="SimHei-578b" d="M 2625 1775 
Q 2650 2325 2650 2700 
L 2650 3000 
L 1825 3000 
Q 1725 2375 1425 2000 
Q 1125 1625 775 1425 
Q 650 1650 375 1900 
Q 850 2075 1062 2362 
Q 1275 2650 1350 3000 
Q 900 3000 375 2975 
L 375 3450 
Q 925 3425 1400 3425 
Q 1425 3950 1425 4475 
Q 1075 4475 700 4450 
L 700 4900 
Q 1050 4875 1525 4875 
L 3000 4875 
Q 3275 4875 3650 4900 
L 3650 4450 
Q 3325 4475 3125 4475 
L 3125 3425 
Q 3450 3425 3825 3450 
L 3825 2975 
Q 3450 3000 3125 3000 
L 3125 2675 
Q 3125 2225 3150 1775 
L 2625 1775 
z
M 3000 1175 
Q 3000 1375 2975 1725 
L 3500 1725 
Q 3475 1375 3475 1175 
L 4550 1175 
Q 5050 1175 5450 1200 
L 5450 725 
Q 4975 750 4550 750 
L 3475 750 
L 3475 -50 
L 5275 -50 
Q 5700 -50 6100 -25 
L 6100 -500 
Q 5725 -475 5300 -475 
L 1250 -475 
Q 775 -475 400 -500 
L 400 -25 
Q 775 -50 1250 -50 
L 3000 -50 
L 3000 750 
L 2025 750 
Q 1500 750 975 725 
L 1050 1200 
Q 1500 1175 2025 1175 
L 3000 1175 
z
M 5775 5200 
Q 5750 4775 5750 4325 
L 5750 2400 
Q 5775 1950 5612 1775 
Q 5450 1600 4900 1525 
Q 4825 1775 4675 2100 
Q 5175 2075 5237 2150 
Q 5300 2225 5300 2525 
L 5300 4325 
Q 5300 4775 5275 5200 
L 5775 5200 
z
M 4600 4750 
Q 4575 4450 4575 3975 
L 4575 3200 
Q 4575 2825 4600 2425 
L 4100 2425 
Q 4125 2825 4125 3200 
L 4125 3975 
Q 4125 4450 4100 4750 
L 4600 4750 
z
M 2650 3425 
L 2650 4475 
L 1875 4475 
Q 1850 3750 1850 3425 
L 2650 3425 
z
" transform="scale(0.015625)"/>
      </defs>
      <use xlink:href="#SimHei-8d44"/>
      <use xlink:href="#SimHei-91d1" transform="translate(100 0)"/>
      <use xlink:href="#SimHei-7c7b" transform="translate(200 0)"/>
      <use xlink:href="#SimHei-578b" transform="translate(300 0)"/>
     </g>
    </g>
    <g id="patch_7">
     <path d="M 11.6 173.047567 
L 33.6 173.047567 
L 33.6 165.347567 
L 11.6 165.347567 
z
" style="fill: #2ecc71; stroke: #ffffff; stroke-width: 2; stroke-linejoin: miter"/>
    </g>
    <g id="text_7">
     <!-- 真·买入  0只 -->
     <g style="fill: #cccccc" transform="translate(42.4 173.047567) scale(0.11 -0.11)">
      <defs>
       <path id="SimHei-771f" d="M 3550 5100 
Q 3450 4925 3400 4625 
L 4850 4625 
Q 5175 4625 5725 4650 
L 5725 4250 
Q 5200 4275 4850 4275 
L 3350 4275 
L 3300 3850 
L 5050 3850 
Q 5025 3550 5025 3150 
L 5025 1075 
L 5400 1075 
Q 5800 1075 6075 1100 
L 6075 625 
Q 5575 650 4900 650 
L 1450 650 
Q 775 650 350 625 
L 350 1100 
Q 725 1075 1100 1075 
L 1425 1075 
L 1425 3075 
Q 1425 3450 1400 3850 
L 2825 3850 
L 2850 4275 
L 1400 4275 
Q 1050 4275 625 4250 
L 625 4650 
Q 1175 4625 1375 4625 
L 2925 4625 
Q 2950 4875 2950 5125 
Q 3300 5100 3550 5100 
z
M 4075 525 
Q 4500 425 4925 250 
Q 5350 75 5825 -150 
Q 5550 -425 5450 -575 
Q 5025 -300 4550 -100 
Q 4075 100 3800 175 
Q 3925 350 4075 525 
z
M 4525 3150 
L 4525 3475 
L 1925 3475 
L 1925 3150 
L 4525 3150 
z
M 4525 1075 
L 4525 1400 
L 1925 1400 
L 1925 1075 
L 4525 1075 
z
M 2775 200 
Q 2375 -25 1875 -225 
Q 1375 -425 950 -575 
Q 775 -400 600 -250 
Q 1225 -50 1625 137 
Q 2025 325 2350 525 
Q 2550 350 2775 200 
z
M 4525 1775 
L 4525 2075 
L 1925 2075 
L 1925 1775 
L 4525 1775 
z
M 4525 2475 
L 4525 2775 
L 1925 2775 
L 1925 2475 
L 4525 2475 
z
" transform="scale(0.015625)"/>
       <path id="SimHei-b7" d="M 2700 2800 
L 3675 2800 
L 3675 1825 
L 2700 1825 
L 2700 2800 
z
" transform="scale(0.015625)"/>
       <path id="SimHei-4e70" d="M 3525 4125 
Q 3600 4100 4150 4025 
Q 4050 3675 4025 3462 
Q 4000 3250 3925 2687 
Q 3850 2125 3775 1750 
L 4925 1750 
Q 5425 1750 6000 1775 
L 6000 1325 
Q 5400 1350 5075 1350 
L 3700 1350 
Q 3175 75 950 -650 
Q 750 -325 550 -225 
Q 2475 175 3125 1350 
L 1275 1350 
Q 850 1350 475 1325 
L 475 1775 
Q 850 1750 1250 1750 
L 3300 1750 
Q 3450 2350 3487 2912 
Q 3525 3475 3525 4125 
z
M 5900 4750 
Q 5800 4475 5675 4125 
Q 5550 3775 5375 3325 
Q 4975 3425 4850 3450 
Q 5075 4050 5200 4375 
L 1775 4375 
Q 1075 4375 800 4350 
L 800 4775 
Q 1075 4750 1675 4750 
L 5900 4750 
z
M 3900 950 
Q 4350 725 4875 437 
Q 5400 150 5875 -175 
Q 5750 -300 5550 -625 
Q 4875 -100 3675 575 
Q 3825 775 3900 950 
z
M 1325 3100 
Q 2175 2575 2550 2300 
Q 2400 2200 2200 1925 
Q 1975 2125 1050 2725 
Q 1300 2950 1325 3100 
z
M 1875 4075 
Q 2700 3550 3025 3300 
Q 2975 3250 2700 2925 
Q 2250 3325 1625 3725 
Q 1825 3950 1875 4075 
z
" transform="scale(0.015625)"/>
       <path id="SimHei-5165" d="M 5650 -375 
Q 5050 25 4500 650 
Q 3950 1275 3275 3050 
Q 2575 975 675 -475 
Q 575 -225 225 50 
Q 1850 825 2975 3525 
Q 2900 3725 2525 4125 
Q 2150 4525 1750 4675 
Q 2025 4900 2175 5125 
Q 2800 4650 3175 4225 
Q 3550 3800 4125 2375 
Q 4700 950 6125 250 
Q 5775 0 5650 -375 
z
" transform="scale(0.015625)"/>
       <path id="SimHei-53ea" d="M 5150 4800 
Q 5125 4375 5125 3400 
Q 5125 2450 5150 1875 
L 1225 1875 
Q 1250 2325 1250 3300 
Q 1250 4275 1225 4800 
L 5150 4800 
z
M 4600 2325 
L 4600 4375 
L 1775 4375 
L 1775 2325 
L 4600 2325 
z
M 4175 1575 
Q 5400 300 5925 -200 
Q 5850 -250 5425 -600 
Q 4975 0 3750 1225 
Q 3975 1375 4175 1575 
z
M 2575 1200 
Q 2250 850 1775 337 
Q 1300 -175 800 -675 
Q 625 -500 375 -275 
Q 825 50 1300 562 
Q 1775 1075 2125 1600 
Q 2425 1375 2575 1200 
z
" transform="scale(0.015625)"/>
      </defs>
      <use xlink:href="#SimHei-771f"/>
      <use xlink:href="#SimHei-b7" transform="translate(100 0)"/>
      <use xlink:href="#SimHei-4e70" transform="translate(200 0)"/>
      <use xlink:href="#SimHei-5165" transform="translate(300 0)"/>
      <use xlink:href="#SimHei-20" transform="translate(400 0)"/>
      <use xlink:href="#SimHei-20" transform="translate(450 0)"/>
      <use xlink:href="#SimHei-30" transform="translate(500 0)"/>
      <use xlink:href="#SimHei-53ea" transform="translate(550 0)"/>
     </g>
    </g>
    <g id="patch_8">
     <path d="M 11.6 188.688192 
L 33.6 188.688192 
L 33.6 180.988192 
L 11.6 180.988192 
z
" style="fill: #f1c40f; stroke: #ffffff; stroke-width: 2; stroke-linejoin: miter"/>
    </g>
    <g id="text_8">
     <!-- 装模做样  17只 -->
     <g style="fill: #cccccc" transform="translate(42.4 188.688192) scale(0.11 -0.11)">
      <defs>
       <path id="SimHei-88c5" d="M 1900 -175 
Q 2050 -50 2075 175 
L 2075 600 
Q 1450 225 825 -50 
Q 700 150 450 350 
Q 825 425 1300 637 
Q 1775 850 2125 1087 
Q 2475 1325 2675 1550 
L 1450 1550 
Q 1050 1550 625 1525 
L 625 1975 
Q 1050 1925 1450 1925 
L 3150 1925 
Q 3000 2275 2775 2525 
Q 2975 2625 3150 2750 
Q 3400 2425 3575 2125 
Q 3350 2025 3250 1925 
L 5100 1925 
Q 5475 1925 5950 1950 
L 5950 1525 
Q 5500 1550 5100 1550 
L 3450 1550 
Q 3900 875 4250 625 
Q 4500 800 4712 987 
Q 4925 1175 5075 1375 
Q 5250 1125 5475 950 
Q 5225 875 4500 350 
Q 4700 225 5037 112 
Q 5375 0 5975 -50 
Q 5750 -300 5700 -525 
Q 5125 -400 4712 -225 
Q 4300 -50 3937 300 
Q 3575 650 3100 1400 
Q 2875 1175 2500 875 
L 2500 75 
Q 2900 225 3275 450 
Q 3300 250 3400 50 
Q 2950 -175 2712 -287 
Q 2475 -400 2175 -575 
Q 2025 -350 1900 -175 
z
M 4075 4400 
Q 4075 4825 4050 5150 
L 4550 5150 
Q 4525 5000 4525 4400 
L 5175 4400 
Q 5400 4400 5775 4425 
L 5775 4000 
Q 5400 4025 5175 4025 
L 4525 4025 
L 4525 3250 
L 5000 3250 
Q 5175 3250 5550 3275 
L 5550 2850 
Q 5175 2875 5000 2875 
L 3850 2875 
Q 3550 2875 3225 2850 
L 3225 3275 
Q 3475 3250 3800 3250 
L 4075 3250 
L 4075 4025 
L 3725 4025 
Q 3400 4025 2975 4000 
L 2975 4425 
Q 3400 4400 3725 4400 
L 4075 4400 
z
M 525 2950 
Q 1000 3125 1450 3312 
Q 1900 3500 2200 3650 
L 2200 4375 
Q 2200 4750 2175 5075 
L 2650 5075 
Q 2625 4800 2625 4375 
L 2625 3200 
Q 2625 2875 2650 2475 
L 2175 2475 
Q 2200 2900 2200 3225 
Q 1875 3100 1487 2900 
Q 1100 2700 800 2550 
Q 700 2775 525 2950 
z
M 1475 3725 
Q 1150 4100 750 4375 
Q 950 4550 1025 4700 
Q 1400 4450 1800 4075 
Q 1625 3900 1475 3725 
z
" transform="scale(0.015625)"/>
       <path id="SimHei-6a21" d="M 5700 3675 
Q 5675 3400 5675 2725 
Q 5675 2050 5700 1725 
L 4375 1725 
Q 4350 1450 4325 1200 
L 5225 1200 
Q 5750 1200 6025 1225 
L 6025 825 
Q 5725 850 5225 850 
L 4700 850 
Q 5075 375 5437 137 
Q 5800 -100 6200 -200 
Q 5975 -375 5850 -625 
Q 5275 -400 4862 25 
Q 4450 450 4300 775 
L 4225 775 
Q 4000 275 3537 -62 
Q 3075 -400 2475 -625 
Q 2350 -375 2125 -200 
Q 2775 -75 3200 200 
Q 3625 475 3775 850 
L 3325 850 
Q 2800 850 2400 825 
L 2400 1225 
Q 2800 1200 3350 1200 
L 3875 1200 
Q 3925 1475 3925 1725 
L 2750 1725 
Q 2775 2075 2775 2700 
Q 2775 3350 2750 3675 
L 5700 3675 
z
M 2175 1650 
Q 2025 1975 1675 2525 
L 1675 300 
Q 1675 -300 1700 -550 
L 1175 -550 
Q 1200 -275 1200 250 
L 1200 2225 
Q 1125 2000 962 1712 
Q 800 1425 600 1050 
Q 450 1275 200 1425 
Q 600 1825 850 2425 
Q 1100 3025 1175 3425 
L 950 3425 
Q 700 3425 400 3400 
L 400 3825 
Q 675 3800 825 3800 
L 1200 3800 
L 1200 4350 
Q 1200 4775 1175 5150 
L 1700 5150 
Q 1675 4825 1675 4425 
L 1675 3800 
Q 2075 3800 2375 3825 
L 2375 3400 
Q 2050 3425 1675 3425 
L 1675 2575 
Q 1850 2675 2000 2775 
Q 2150 2525 2287 2325 
Q 2425 2125 2550 1925 
Q 2325 1775 2175 1650 
z
M 3375 4300 
L 3175 4300 
Q 2700 4300 2425 4275 
L 2425 4675 
Q 2700 4650 3150 4650 
L 3375 4650 
Q 3375 5000 3350 5225 
L 3825 5225 
Q 3800 5000 3800 4650 
L 4550 4650 
Q 4550 4975 4525 5200 
L 5025 5200 
Q 5000 4925 5000 4650 
L 5375 4650 
Q 5650 4650 5950 4675 
L 5950 4275 
Q 5650 4300 5375 4300 
L 5000 4300 
L 5000 3850 
L 4550 3850 
L 4550 4300 
L 3800 4300 
L 3800 3875 
L 3375 3875 
L 3375 4300 
z
M 5275 2075 
L 5275 2525 
L 3200 2525 
L 3200 2075 
L 5275 2075 
z
M 5275 2875 
L 5275 3325 
L 3200 3325 
L 3200 2875 
L 5275 2875 
z
" transform="scale(0.015625)"/>
       <path id="SimHei-505a" d="M 3600 2600 
Q 3825 2875 4087 3587 
Q 4350 4300 4475 5100 
Q 4725 5000 5075 4900 
Q 4900 4725 4625 3800 
L 5225 3800 
Q 5700 3800 6000 3825 
L 6000 3425 
Q 5750 3450 5575 3450 
Q 5600 1900 5125 750 
Q 5550 150 6075 -75 
Q 5800 -300 5700 -500 
Q 5300 -225 4825 375 
Q 4400 -150 3700 -600 
Q 3550 -400 3325 -225 
Q 3975 25 4550 750 
Q 4250 1325 4075 2500 
L 3975 2275 
Q 3825 2450 3600 2600 
z
M 2750 4300 
Q 2750 4725 2725 4950 
L 3225 4950 
Q 3200 4725 3200 4300 
L 3200 3625 
Q 3475 3625 3825 3650 
L 3825 3200 
Q 3400 3225 3200 3225 
L 3200 2325 
L 3825 2325 
Q 3800 1975 3800 1325 
Q 3800 675 3825 350 
L 3350 350 
L 3350 600 
L 2575 600 
L 2575 75 
L 2100 75 
Q 2125 425 2125 1200 
Q 2125 1975 2100 2325 
L 2750 2325 
L 2750 3225 
Q 2300 3225 2000 3200 
L 2000 3650 
Q 2275 3625 2750 3625 
L 2750 4300 
z
M 300 2525 
Q 575 2800 1000 3587 
Q 1425 4375 1650 5175 
Q 1900 5025 2150 4950 
Q 1950 4625 1625 3725 
L 1625 700 
Q 1625 -125 1650 -500 
L 1150 -500 
Q 1175 -75 1175 725 
L 1175 2900 
Q 925 2500 675 2125 
Q 500 2400 300 2525 
z
M 4425 2925 
Q 4625 1625 4825 1225 
Q 5100 1950 5125 3425 
L 4500 3425 
Q 4425 3225 4275 2850 
L 4425 2925 
z
M 3350 975 
L 3350 1950 
L 2575 1950 
L 2575 975 
L 3350 975 
z
" transform="scale(0.015625)"/>
       <path id="SimHei-6837" d="M 4350 4025 
Q 4600 4575 4850 5225 
Q 5250 5075 5375 5000 
Q 5150 4725 4850 4025 
L 4950 4025 
Q 5650 4050 5950 4050 
L 5950 3600 
Q 5675 3625 5175 3625 
L 4550 3625 
L 4550 2650 
L 4950 2650 
Q 5525 2675 5800 2675 
L 5800 2225 
Q 5475 2250 5025 2250 
L 4550 2250 
L 4550 1225 
L 5325 1225 
Q 5800 1250 6100 1250 
L 6100 800 
Q 5825 825 5325 825 
L 4550 825 
L 4550 275 
Q 4550 -250 4575 -600 
L 4075 -600 
L 4075 825 
L 3475 825 
Q 3000 825 2550 800 
L 2550 1275 
Q 3000 1250 3500 1225 
L 4075 1225 
L 4075 2250 
L 3650 2250 
Q 3225 2250 2900 2225 
L 2900 2700 
Q 3200 2675 3675 2650 
L 4075 2650 
L 4075 3625 
L 3475 3625 
Q 3050 3625 2750 3600 
L 2750 4075 
Q 3050 4050 3475 4025 
L 4350 4025 
z
M 1325 4350 
Q 1325 4775 1300 5125 
L 1825 5125 
Q 1800 4725 1800 4350 
L 1800 3750 
Q 2125 3750 2475 3775 
L 2475 3325 
Q 2125 3350 1800 3350 
L 1800 2425 
Q 2000 2600 2100 2675 
Q 2375 2325 2725 1775 
Q 2575 1700 2300 1475 
Q 2025 1975 1800 2350 
L 1800 475 
Q 1800 -50 1825 -575 
L 1300 -575 
Q 1325 -25 1325 475 
L 1325 2250 
Q 925 1300 525 725 
Q 425 950 225 1175 
Q 950 2150 1225 3350 
Q 825 3350 350 3325 
L 350 3775 
Q 825 3750 1325 3750 
L 1325 4350 
z
M 3575 5200 
Q 3800 4775 3950 4350 
Q 3650 4250 3525 4175 
Q 3350 4600 3150 5000 
Q 3425 5125 3575 5200 
z
" transform="scale(0.015625)"/>
      </defs>
      <use xlink:href="#SimHei-88c5"/>
      <use xlink:href="#SimHei-6a21" transform="translate(100 0)"/>
      <use xlink:href="#SimHei-505a" transform="translate(200 0)"/>
      <use xlink:href="#SimHei-6837" transform="translate(300 0)"/>
      <use xlink:href="#SimHei-20" transform="translate(400 0)"/>
      <use xlink:href="#SimHei-20" transform="translate(450 0)"/>
      <use xlink:href="#SimHei-31" transform="translate(500 0)"/>
      <use xlink:href="#SimHei-37" transform="translate(550 0)"/>
      <use xlink:href="#SimHei-53ea" transform="translate(600 0)"/>
     </g>
    </g>
    <g id="patch_9">
     <path d="M 11.6 204.328817 
L 33.6 204.328817 
L 33.6 196.628817 
L 11.6 196.628817 
z
" style="fill: #e74c3c; stroke: #ffffff; stroke-width: 2; stroke-linejoin: miter"/>
    </g>
    <g id="text_9">
     <!-- 浑水摸鱼  3只 -->
     <g style="fill: #cccccc" transform="translate(42.4 204.328817) scale(0.11 -0.11)">
      <defs>
       <path id="SimHei-6d51" d="M 2275 3500 
Q 2600 3475 2925 3475 
L 3225 3475 
Q 3400 3850 3475 4225 
Q 3700 4100 4000 4000 
Q 3900 3900 3700 3475 
L 5150 3475 
Q 5550 3475 5725 3500 
L 5725 3050 
Q 5650 3075 5175 3075 
L 3550 3075 
Q 3225 2450 3000 2050 
L 3900 2050 
Q 3900 2450 3875 2800 
L 4400 2800 
Q 4325 2475 4350 2050 
L 4975 2050 
Q 5425 2050 5675 2075 
L 5675 1625 
Q 5450 1650 4975 1650 
L 4350 1650 
L 4350 950 
L 5250 950 
Q 5650 950 6075 975 
L 6075 500 
Q 5675 525 5250 525 
L 4350 525 
L 4350 50 
Q 4350 -275 4375 -625 
L 3875 -625 
Q 3900 -275 3900 50 
L 3900 525 
L 2650 525 
Q 2325 525 2050 500 
L 2050 975 
Q 2300 950 2675 950 
L 3900 950 
L 3900 1650 
Q 3225 1650 2950 1625 
Q 2675 1600 2450 1550 
Q 2375 1750 2250 2000 
Q 2500 2050 2675 2325 
Q 2850 2600 3075 3075 
Q 2500 3075 2275 3050 
L 2275 3500 
z
M 5925 4850 
Q 5900 4525 5900 4325 
Q 5900 4150 5925 3850 
L 5450 3850 
L 5450 4450 
L 2650 4450 
L 2650 3800 
L 2175 3800 
Q 2200 4100 2200 4325 
Q 2200 4575 2175 4850 
L 5925 4850 
z
M 2025 1600 
Q 1825 1225 1475 575 
Q 1125 -75 900 -500 
Q 725 -350 425 -200 
Q 650 75 975 637 
Q 1300 1200 1600 1925 
Q 1850 1675 2025 1600 
z
M 575 3525 
Q 1225 3100 1750 2750 
Q 1550 2550 1450 2325 
Q 850 2800 300 3125 
Q 475 3300 575 3525 
z
M 850 5000 
Q 1475 4600 1900 4300 
Q 1725 4125 1600 3900 
Q 1025 4375 575 4625 
Q 750 4825 850 5000 
z
" transform="scale(0.015625)"/>
       <path id="SimHei-6c34" d="M 3450 5175 
Q 3450 4800 3437 4500 
Q 3425 4200 3487 3762 
Q 3550 3325 3950 2725 
Q 4975 3575 5175 4050 
Q 5450 3800 5675 3575 
Q 5350 3350 5037 3075 
Q 4725 2800 4175 2325 
Q 4375 1900 4900 1375 
Q 5425 850 6175 625 
Q 5750 425 5675 125 
Q 4725 700 4212 1400 
Q 3700 2100 3425 2800 
L 3425 25 
Q 3450 -325 3162 -475 
Q 2875 -625 2400 -675 
Q 2375 -400 2175 -75 
Q 2575 -150 2750 -100 
Q 2925 -50 2925 225 
L 2925 4175 
Q 2925 4800 2875 5175 
L 3450 5175 
z
M 2550 3575 
Q 2425 2900 2237 2362 
Q 2050 1825 1737 1300 
Q 1425 775 750 100 
Q 575 325 225 450 
Q 925 950 1337 1600 
Q 1750 2250 1950 3125 
L 1275 3125 
Q 900 3125 425 3075 
L 425 3600 
Q 875 3575 1250 3575 
L 2550 3575 
z
" transform="scale(0.015625)"/>
       <path id="SimHei-6478" d="M 3350 4500 
Q 3350 4775 3325 5150 
L 3800 5150 
Q 3775 4875 3775 4500 
L 4550 4500 
Q 4550 4775 4525 5150 
L 5000 5150 
Q 4975 4875 4975 4500 
L 5350 4500 
Q 5750 4500 6000 4525 
L 6000 4075 
Q 5700 4100 5350 4100 
L 4975 4100 
L 4975 3600 
L 5725 3600 
Q 5700 3325 5700 2900 
L 5700 2375 
Q 5700 2000 5725 1700 
L 4325 1700 
Q 4325 1550 4275 1275 
L 5250 1275 
Q 5675 1275 6100 1325 
L 6100 875 
Q 5725 900 5250 900 
L 4525 900 
Q 4825 400 5262 212 
Q 5700 25 6200 0 
Q 6075 -150 5975 -525 
Q 5100 -350 4687 62 
Q 4275 475 4175 725 
Q 3925 275 3500 -75 
Q 3075 -425 2250 -625 
Q 2125 -325 2000 -175 
Q 2525 -100 2975 125 
Q 3425 350 3700 900 
L 3125 900 
Q 2850 900 2225 875 
L 2225 1300 
Q 2775 1275 3200 1275 
L 3800 1275 
Q 3850 1550 3850 1700 
L 2625 1700 
Q 2650 2000 2650 2400 
L 2650 2875 
Q 2650 3275 2625 3600 
L 3350 3600 
L 3350 4100 
L 3125 4100 
Q 2750 4100 2350 4075 
L 2350 4525 
Q 2675 4500 3125 4500 
L 3350 4500 
z
M 1175 4475 
Q 1175 4825 1150 5125 
L 1650 5125 
Q 1625 4850 1625 4475 
L 1625 3775 
Q 1875 3775 2275 3800 
L 2275 3350 
Q 1875 3375 1625 3375 
L 1625 2425 
L 2175 2700 
Q 2175 2600 2200 2225 
Q 2050 2175 1625 1975 
L 1625 125 
Q 1650 -525 625 -600 
Q 625 -275 425 25 
Q 825 0 1012 37 
Q 1200 75 1175 300 
L 1175 1725 
Q 725 1500 450 1300 
Q 425 1475 225 1850 
Q 525 1925 1175 2200 
L 1175 3375 
Q 650 3375 300 3350 
L 300 3800 
Q 625 3775 1175 3775 
L 1175 4475 
z
M 5225 2800 
L 5225 3250 
L 3100 3250 
L 3100 2800 
L 5225 2800 
z
M 5225 2050 
L 5225 2450 
L 3100 2450 
L 3100 2050 
L 5225 2050 
z
M 4550 3600 
L 4550 4100 
L 3775 4100 
L 3775 3600 
L 4550 3600 
z
" transform="scale(0.015625)"/>
       <path id="SimHei-9c7c" d="M 2800 4925 
Q 2575 4800 2300 4400 
L 4500 4400 
Q 4325 4075 3800 3200 
L 5250 3200 
Q 5225 2875 5225 2400 
L 5225 1450 
Q 5225 1225 5250 550 
L 1200 550 
Q 1225 1225 1225 1625 
L 1225 3100 
Q 1150 3000 775 2675 
Q 625 2875 350 3000 
Q 700 3225 1075 3612 
Q 1450 4000 1750 4425 
Q 2050 4850 2250 5225 
Q 2500 5075 2800 4925 
z
M 5175 -25 
Q 5575 -25 6050 0 
L 6050 -425 
Q 5575 -400 5200 -400 
L 1450 -400 
Q 1025 -400 425 -425 
L 425 0 
Q 1025 -25 1450 -25 
L 5175 -25 
z
M 2025 4000 
Q 1575 3500 1300 3200 
L 3250 3200 
L 3700 4000 
L 2025 4000 
z
M 4725 2075 
L 4725 2825 
L 3450 2825 
L 3450 2075 
L 4725 2075 
z
M 4725 925 
L 4725 1675 
L 3450 1675 
L 3450 925 
L 4725 925 
z
M 2950 925 
L 2950 1675 
L 1725 1675 
L 1725 925 
L 2950 925 
z
M 2950 2075 
L 2950 2825 
L 1725 2825 
L 1725 2075 
L 2950 2075 
z
" transform="scale(0.015625)"/>
      </defs>
      <use xlink:href="#SimHei-6d51"/>
      <use xlink:href="#SimHei-6c34" transform="translate(100 0)"/>
      <use xlink:href="#SimHei-6478" transform="translate(200 0)"/>
      <use xlink:href="#SimHei-9c7c" transform="translate(300 0)"/>
      <use xlink:href="#SimHei-20" transform="translate(400 0)"/>
      <use xlink:href="#SimHei-20" transform="translate(450 0)"/>
      <use xlink:href="#SimHei-33" transform="translate(500 0)"/>
      <use xlink:href="#SimHei-53ea" transform="translate(550 0)"/>
     </g>
    </g>
    <g id="patch_10">
     <path d="M 11.6 219.969442 
L 33.6 219.969442 
L 33.6 212.269442 
L 11.6 212.269442 
z
" style="fill: #bdc3c7; stroke: #ffffff; stroke-width: 2; stroke-linejoin: miter"/>
    </g>
    <g id="text_10">
     <!-- 躺平  10只 -->
     <g style="fill: #cccccc" transform="translate(42.4 219.969442) scale(0.11 -0.11)">
      <defs>
       <path id="SimHei-8eba" d="M 1825 5150 
Q 1700 4975 1550 4550 
L 2500 4550 
Q 2475 4125 2475 3775 
L 2475 -25 
Q 2500 -375 2250 -500 
Q 2000 -625 1600 -675 
Q 1550 -375 1400 -100 
Q 1825 -125 1950 -75 
Q 2075 -25 2050 200 
L 2050 1425 
L 1925 1425 
Q 1700 775 1350 325 
Q 1000 -125 600 -450 
Q 400 -175 200 -50 
Q 700 250 962 575 
Q 1225 900 1450 1425 
Q 650 1425 275 1400 
L 275 1800 
Q 500 1775 625 1775 
L 625 3800 
Q 625 4125 600 4550 
L 1175 4550 
Q 1225 4950 1225 5225 
Q 1475 5175 1825 5150 
z
M 4700 5225 
Q 4675 4925 4675 4450 
L 4675 3200 
L 6050 3200 
Q 6025 2650 6025 2200 
L 6025 50 
Q 6025 -175 5875 -337 
Q 5725 -500 5175 -575 
Q 5125 -250 4975 -25 
Q 5425 -50 5512 12 
Q 5600 75 5600 250 
L 5600 2825 
L 3375 2825 
L 3375 -550 
L 2950 -550 
Q 2975 25 2975 1325 
Q 2975 2650 2950 3200 
L 4250 3200 
L 4250 4450 
Q 4250 4850 4225 5225 
L 4700 5225 
z
M 5225 2250 
Q 5200 1850 5200 1400 
Q 5200 975 5225 550 
L 3750 550 
Q 3775 950 3775 1375 
Q 3775 1800 3750 2250 
L 5225 2250 
z
M 6050 4675 
Q 5925 4475 5350 3400 
Q 5175 3525 4950 3625 
L 5600 4925 
Q 5850 4775 6050 4675 
z
M 3250 4975 
Q 3600 4375 3850 3700 
Q 3575 3650 3400 3500 
Q 3200 4150 2825 4775 
Q 3025 4850 3250 4975 
z
M 2075 2675 
L 2075 3300 
L 1050 3300 
L 1050 2675 
L 2075 2675 
z
M 4775 875 
L 4775 1900 
L 4200 1900 
L 4200 875 
L 4775 875 
z
M 2075 1775 
L 2075 2325 
L 1050 2325 
L 1050 1775 
L 2075 1775 
z
M 2075 3650 
L 2075 4175 
L 1050 4175 
L 1050 3650 
L 2075 3650 
z
" transform="scale(0.015625)"/>
       <path id="SimHei-5e73" d="M 4525 4825 
Q 4900 4825 5450 4850 
L 5450 4375 
Q 4925 4400 4525 4400 
L 3475 4400 
L 3475 2025 
L 5000 2025 
Q 5550 2025 6025 2050 
L 6025 1575 
Q 5550 1600 5000 1600 
L 3475 1600 
L 3475 450 
Q 3475 -100 3500 -600 
L 2925 -600 
Q 2950 -100 2950 450 
L 2950 1600 
L 1125 1600 
Q 775 1600 375 1575 
L 375 2050 
Q 775 2025 1175 2025 
L 2950 2025 
L 2950 4400 
L 1775 4400 
Q 1400 4400 875 4375 
L 875 4850 
Q 1400 4825 1750 4825 
L 4525 4825 
z
M 3925 2600 
Q 4500 3300 4900 4125 
Q 5150 3950 5400 3825 
Q 4775 2850 4350 2300 
Q 4150 2475 3925 2600 
z
M 1975 2350 
Q 1600 3100 1050 3725 
Q 1250 3875 1450 4050 
Q 2075 3300 2450 2725 
Q 2150 2500 1975 2350 
z
" transform="scale(0.015625)"/>
      </defs>
      <use xlink:href="#SimHei-8eba"/>
      <use xlink:href="#SimHei-5e73" transform="translate(100 0)"/>
      <use xlink:href="#SimHei-20" transform="translate(200 0)"/>
      <use xlink:href="#SimHei-20" transform="translate(250 0)"/>
      <use xlink:href="#SimHei-31" transform="translate(300 0)"/>
      <use xlink:href="#SimHei-30" transform="translate(350 0)"/>
      <use xlink:href="#SimHei-53ea" transform="translate(400 0)"/>
     </g>
    </g>
   </g>
  </g>
  <g id="axes_2">
   <g id="patch_11">
    <path d="M 459.619682 324.131071 
L 804.777545 324.131071 
L 804.777545 45.010938 
L 459.619682 45.010938 
z
"/>
   </g>
   <g id="patch_12">
    <path d="M 475.308676 45.010938 
L 523.922459 45.010938 
L 523.922459 45.010938 
L 475.308676 45.010938 
z
" clip-path="url(#pe184d6098a)" style="fill: #2ecc71; stroke: #ffffff; stroke-width: 1.5; stroke-linejoin: miter"/>
   </g>
   <g id="patch_13">
    <path d="M 563.697373 45.010938 
L 612.311157 45.010938 
L 612.311157 83.097053 
L 563.697373 83.097053 
z
" clip-path="url(#pe184d6098a)" style="fill: #f1c40f; stroke: #ffffff; stroke-width: 1.5; stroke-linejoin: miter"/>
   </g>
   <g id="patch_14">
    <path d="M 652.086071 45.010938 
L 700.699854 45.010938 
L 700.699854 310.839636 
L 652.086071 310.839636 
z
" clip-path="url(#pe184d6098a)" style="fill: #e74c3c; stroke: #ffffff; stroke-width: 1.5; stroke-linejoin: miter"/>
   </g>
   <g id="patch_15">
    <path d="M 740.474768 45.010938 
L 789.088552 45.010938 
L 789.088552 220.156399 
L 740.474768 220.156399 
z
" clip-path="url(#pe184d6098a)" style="fill: #bdc3c7; stroke: #ffffff; stroke-width: 1.5; stroke-linejoin: miter"/>
   </g>
   <g id="matplotlib.axis_3">
    <g id="xtick_1">
     <g id="line2d_1">
      <path d="M 499.615567 324.131071 
L 499.615567 45.010938 
" clip-path="url(#pe184d6098a)" style="fill: none; stroke-dasharray: 2.96,1.28; stroke-dashoffset: 0; stroke: #ffffff; stroke-opacity: 0.25; stroke-width: 0.8"/>
     </g>
     <g id="line2d_2">
      <defs>
       <path id="m4e1b944753" d="M 0 0 
L 0 -3.5 
" style="stroke: #ffffff; stroke-width: 0.8"/>
      </defs>
      <g>
       <use xlink:href="#m4e1b944753" x="499.615567" y="324.131071" style="fill: #ffffff; stroke: #ffffff; stroke-width: 0.8"/>
      </g>
     </g>
     <g id="text_11">
      <!-- 真·买入 -->
      <g style="fill: #ffffff" transform="translate(477.615567 336.181852) scale(0.11 -0.11)">
       <use xlink:href="#SimHei-771f"/>
       <use xlink:href="#SimHei-b7" transform="translate(100 0)"/>
       <use xlink:href="#SimHei-4e70" transform="translate(200 0)"/>
       <use xlink:href="#SimHei-5165" transform="translate(300 0)"/>
      </g>
     </g>
    </g>
    <g id="xtick_2">
     <g id="line2d_3">
      <path d="M 588.004265 324.131071 
L 588.004265 45.010938 
" clip-path="url(#pe184d6098a)" style="fill: none; stroke-dasharray: 2.96,1.28; stroke-dashoffset: 0; stroke: #ffffff; stroke-opacity: 0.25; stroke-width: 0.8"/>
     </g>
     <g id="line2d_4">
      <g>
       <use xlink:href="#m4e1b944753" x="588.004265" y="324.131071" style="fill: #ffffff; stroke: #ffffff; stroke-width: 0.8"/>
      </g>
     </g>
     <g id="text_12">
      <!-- 装模做样 -->
      <g style="fill: #ffffff" transform="translate(566.004265 336.310759) scale(0.11 -0.11)">
       <use xlink:href="#SimHei-88c5"/>
       <use xlink:href="#SimHei-6a21" transform="translate(100 0)"/>
       <use xlink:href="#SimHei-505a" transform="translate(200 0)"/>
       <use xlink:href="#SimHei-6837" transform="translate(300 0)"/>
      </g>
     </g>
    </g>
    <g id="xtick_3">
     <g id="line2d_5">
      <path d="M 676.392962 324.131071 
L 676.392962 45.010938 
" clip-path="url(#pe184d6098a)" style="fill: none; stroke-dasharray: 2.96,1.28; stroke-dashoffset: 0; stroke: #ffffff; stroke-opacity: 0.25; stroke-width: 0.8"/>
     </g>
     <g id="line2d_6">
      <g>
       <use xlink:href="#m4e1b944753" x="676.392962" y="324.131071" style="fill: #ffffff; stroke: #ffffff; stroke-width: 0.8"/>
      </g>
     </g>
     <g id="text_13">
      <!-- 浑水摸鱼 -->
      <g style="fill: #ffffff" transform="translate(654.392962 336.396696) scale(0.11 -0.11)">
       <use xlink:href="#SimHei-6d51"/>
       <use xlink:href="#SimHei-6c34" transform="translate(100 0)"/>
       <use xlink:href="#SimHei-6478" transform="translate(200 0)"/>
       <use xlink:href="#SimHei-9c7c" transform="translate(300 0)"/>
      </g>
     </g>
    </g>
    <g id="xtick_4">
     <g id="line2d_7">
      <path d="M 764.78166 324.131071 
L 764.78166 45.010938 
" clip-path="url(#pe184d6098a)" style="fill: none; stroke-dasharray: 2.96,1.28; stroke-dashoffset: 0; stroke: #ffffff; stroke-opacity: 0.25; stroke-width: 0.8"/>
     </g>
     <g id="line2d_8">
      <g>
       <use xlink:href="#m4e1b944753" x="764.78166" y="324.131071" style="fill: #ffffff; stroke: #ffffff; stroke-width: 0.8"/>
      </g>
     </g>
     <g id="text_14">
      <!-- 躺平 -->
      <g style="fill: #ffffff" transform="translate(753.78166 336.396696) scale(0.11 -0.11)">
       <use xlink:href="#SimHei-8eba"/>
       <use xlink:href="#SimHei-5e73" transform="translate(100 0)"/>
      </g>
     </g>
    </g>
   </g>
   <g id="matplotlib.axis_4">
    <g id="ytick_1">
     <g id="line2d_9">
      <path d="M 459.619682 296.244181 
L 804.777545 296.244181 
" clip-path="url(#pe184d6098a)" style="fill: none; stroke-dasharray: 2.96,1.28; stroke-dashoffset: 0; stroke: #ffffff; stroke-opacity: 0.25; stroke-width: 0.8"/>
     </g>
     <g id="line2d_10">
      <defs>
       <path id="mb0f6033ebd" d="M 0 0 
L 3.5 0 
" style="stroke: #ffffff; stroke-width: 0.8"/>
      </defs>
      <g>
       <use xlink:href="#mb0f6033ebd" x="459.619682" y="296.244181" style="fill: #ffffff; stroke: #ffffff; stroke-width: 0.8"/>
      </g>
     </g>
     <g id="text_15">
      <!-- -3.5 -->
      <g style="fill: #ffffff" transform="translate(432.119682 300.369181) scale(0.12 -0.12)">
       <defs>
        <path id="SimHei-2e" d="M 1075 125 
L 500 125 
L 500 675 
L 1075 675 
L 1075 125 
z
" transform="scale(0.015625)"/>
       </defs>
       <use xlink:href="#SimHei-2d"/>
       <use xlink:href="#SimHei-33" transform="translate(50 0)"/>
       <use xlink:href="#SimHei-2e" transform="translate(100 0)"/>
       <use xlink:href="#SimHei-35" transform="translate(150 0)"/>
      </g>
     </g>
    </g>
    <g id="ytick_2">
     <g id="line2d_11">
      <path d="M 459.619682 260.353718 
L 804.777545 260.353718 
" clip-path="url(#pe184d6098a)" style="fill: none; stroke-dasharray: 2.96,1.28; stroke-dashoffset: 0; stroke: #ffffff; stroke-opacity: 0.25; stroke-width: 0.8"/>
     </g>
     <g id="line2d_12">
      <g>
       <use xlink:href="#mb0f6033ebd" x="459.619682" y="260.353718" style="fill: #ffffff; stroke: #ffffff; stroke-width: 0.8"/>
      </g>
     </g>
     <g id="text_16">
      <!-- -3.0 -->
      <g style="fill: #ffffff" transform="translate(432.119682 264.478718) scale(0.12 -0.12)">
       <use xlink:href="#SimHei-2d"/>
       <use xlink:href="#SimHei-33" transform="translate(50 0)"/>
       <use xlink:href="#SimHei-2e" transform="translate(100 0)"/>
       <use xlink:href="#SimHei-30" transform="translate(150 0)"/>
      </g>
     </g>
    </g>
    <g id="ytick_3">
     <g id="line2d_13">
      <path d="M 459.619682 224.463254 
L 804.777545 224.463254 
" clip-path="url(#pe184d6098a)" style="fill: none; stroke-dasharray: 2.96,1.28; stroke-dashoffset: 0; stroke: #ffffff; stroke-opacity: 0.25; stroke-width: 0.8"/>
     </g>
     <g id="line2d_14">
      <g>
       <use xlink:href="#mb0f6033ebd" x="459.619682" y="224.463254" style="fill: #ffffff; stroke: #ffffff; stroke-width: 0.8"/>
      </g>
     </g>
     <g id="text_17">
      <!-- -2.5 -->
      <g style="fill: #ffffff" transform="translate(432.119682 228.588254) scale(0.12 -0.12)">
       <use xlink:href="#SimHei-2d"/>
       <use xlink:href="#SimHei-32" transform="translate(50 0)"/>
       <use xlink:href="#SimHei-2e" transform="translate(100 0)"/>
       <use xlink:href="#SimHei-35" transform="translate(150 0)"/>
      </g>
     </g>
    </g>
    <g id="ytick_4">
     <g id="line2d_15">
      <path d="M 459.619682 188.572791 
L 804.777545 188.572791 
" clip-path="url(#pe184d6098a)" style="fill: none; stroke-dasharray: 2.96,1.28; stroke-dashoffset: 0; stroke: #ffffff; stroke-opacity: 0.25; stroke-width: 0.8"/>
     </g>
     <g id="line2d_16">
      <g>
       <use xlink:href="#mb0f6033ebd" x="459.619682" y="188.572791" style="fill: #ffffff; stroke: #ffffff; stroke-width: 0.8"/>
      </g>
     </g>
     <g id="text_18">
      <!-- -2.0 -->
      <g style="fill: #ffffff" transform="translate(432.119682 192.697791) scale(0.12 -0.12)">
       <use xlink:href="#SimHei-2d"/>
       <use xlink:href="#SimHei-32" transform="translate(50 0)"/>
       <use xlink:href="#SimHei-2e" transform="translate(100 0)"/>
       <use xlink:href="#SimHei-30" transform="translate(150 0)"/>
      </g>
     </g>
    </g>
    <g id="ytick_5">
     <g id="line2d_17">
      <path d="M 459.619682 152.682328 
L 804.777545 152.682328 
" clip-path="url(#pe184d6098a)" style="fill: none; stroke-dasharray: 2.96,1.28; stroke-dashoffset: 0; stroke: #ffffff; stroke-opacity: 0.25; stroke-width: 0.8"/>
     </g>
     <g id="line2d_18">
      <g>
       <use xlink:href="#mb0f6033ebd" x="459.619682" y="152.682328" style="fill: #ffffff; stroke: #ffffff; stroke-width: 0.8"/>
      </g>
     </g>
     <g id="text_19">
      <!-- -1.5 -->
      <g style="fill: #ffffff" transform="translate(432.119682 156.807328) scale(0.12 -0.12)">
       <use xlink:href="#SimHei-2d"/>
       <use xlink:href="#SimHei-31" transform="translate(50 0)"/>
       <use xlink:href="#SimHei-2e" transform="translate(100 0)"/>
       <use xlink:href="#SimHei-35" transform="translate(150 0)"/>
      </g>
     </g>
    </g>
    <g id="ytick_6">
     <g id="line2d_19">
      <path d="M 459.619682 116.791864 
L 804.777545 116.791864 
" clip-path="url(#pe184d6098a)" style="fill: none; stroke-dasharray: 2.96,1.28; stroke-dashoffset: 0; stroke: #ffffff; stroke-opacity: 0.25; stroke-width: 0.8"/>
     </g>
     <g id="line2d_20">
      <g>
       <use xlink:href="#mb0f6033ebd" x="459.619682" y="116.791864" style="fill: #ffffff; stroke: #ffffff; stroke-width: 0.8"/>
      </g>
     </g>
     <g id="text_20">
      <!-- -1.0 -->
      <g style="fill: #ffffff" transform="translate(432.119682 120.916864) scale(0.12 -0.12)">
       <use xlink:href="#SimHei-2d"/>
       <use xlink:href="#SimHei-31" transform="translate(50 0)"/>
       <use xlink:href="#SimHei-2e" transform="translate(100 0)"/>
       <use xlink:href="#SimHei-30" transform="translate(150 0)"/>
      </g>
     </g>
    </g>
    <g id="ytick_7">
     <g id="line2d_21">
      <path d="M 459.619682 80.901401 
L 804.777545 80.901401 
" clip-path="url(#pe184d6098a)" style="fill: none; stroke-dasharray: 2.96,1.28; stroke-dashoffset: 0; stroke: #ffffff; stroke-opacity: 0.25; stroke-width: 0.8"/>
     </g>
     <g id="line2d_22">
      <g>
       <use xlink:href="#mb0f6033ebd" x="459.619682" y="80.901401" style="fill: #ffffff; stroke: #ffffff; stroke-width: 0.8"/>
      </g>
     </g>
     <g id="text_21">
      <!-- -0.5 -->
      <g style="fill: #ffffff" transform="translate(432.119682 85.026401) scale(0.12 -0.12)">
       <use xlink:href="#SimHei-2d"/>
       <use xlink:href="#SimHei-30" transform="translate(50 0)"/>
       <use xlink:href="#SimHei-2e" transform="translate(100 0)"/>
       <use xlink:href="#SimHei-35" transform="translate(150 0)"/>
      </g>
     </g>
    </g>
    <g id="ytick_8">
     <g id="line2d_23">
      <path d="M 459.619682 45.010938 
L 804.777545 45.010938 
" clip-path="url(#pe184d6098a)" style="fill: none; stroke-dasharray: 2.96,1.28; stroke-dashoffset: 0; stroke: #ffffff; stroke-opacity: 0.25; stroke-width: 0.8"/>
     </g>
     <g id="line2d_24">
      <g>
       <use xlink:href="#mb0f6033ebd" x="459.619682" y="45.010938" style="fill: #ffffff; stroke: #ffffff; stroke-width: 0.8"/>
      </g>
     </g>
     <g id="text_22">
      <!-- 0.0 -->
      <g style="fill: #ffffff" transform="translate(438.119682 49.135938) scale(0.12 -0.12)">
       <use xlink:href="#SimHei-30"/>
       <use xlink:href="#SimHei-2e" transform="translate(50 0)"/>
       <use xlink:href="#SimHei-30" transform="translate(100 0)"/>
      </g>
     </g>
    </g>
    <g id="text_23">
     <!-- 涨跌幅 (%) -->
     <g style="fill: #ffffff" transform="translate(426.494682 217.071004) rotate(-90) scale(0.13 -0.13)">
      <defs>
       <path id="SimHei-6da8" d="M 3750 4350 
Q 3750 4700 3725 5075 
L 4225 5075 
Q 4200 4700 4200 4350 
L 4200 2600 
L 5975 2600 
L 5975 2175 
Q 5500 2200 5025 2200 
Q 5175 1325 5512 700 
Q 5850 75 6175 -125 
Q 5875 -300 5750 -475 
Q 5375 -125 5137 337 
Q 4900 800 4775 1300 
Q 4650 1800 4575 2200 
L 4200 2200 
L 4200 275 
Q 4475 500 4725 775 
Q 4800 550 4925 300 
Q 4800 200 4500 -62 
Q 4200 -325 3875 -600 
Q 3775 -425 3575 -175 
Q 3775 -25 3750 350 
L 3750 2200 
Q 3575 2200 3225 2175 
L 3225 2625 
Q 3575 2600 3750 2600 
L 3750 4350 
z
M 1900 0 
Q 2225 0 2437 25 
Q 2650 50 2650 275 
L 2650 1675 
L 1775 1675 
Q 1875 2675 1850 3475 
L 2750 3475 
L 2750 4475 
L 2575 4475 
Q 2125 4475 1775 4450 
L 1775 4900 
Q 2175 4875 2550 4875 
L 3225 4875 
Q 3200 4425 3200 3975 
Q 3200 3525 3225 3075 
L 2325 3075 
L 2275 2075 
L 3125 2075 
Q 3100 1700 3100 1325 
L 3100 100 
Q 3100 -250 2912 -375 
Q 2725 -500 2125 -550 
Q 2100 -250 1900 0 
z
M 1475 1550 
Q 1300 1075 1125 525 
L 775 -575 
Q 550 -400 275 -275 
Q 500 75 712 662 
Q 925 1250 1075 1825 
Q 1250 1650 1475 1550 
z
M 5675 4650 
Q 5525 4375 5337 3950 
Q 5150 3525 4825 2875 
Q 4575 3025 4425 3075 
Q 4625 3425 4875 4000 
Q 5125 4575 5200 4875 
Q 5425 4750 5675 4650 
z
M 500 3550 
Q 1100 3200 1425 2975 
Q 1225 2675 1150 2500 
Q 750 2800 225 3125 
Q 375 3350 500 3550 
z
M 1300 4100 
Q 900 4475 425 4775 
Q 575 4950 725 5150 
Q 1200 4800 1600 4500 
Q 1425 4325 1300 4100 
z
" transform="scale(0.015625)"/>
       <path id="SimHei-8dcc" d="M 1050 2475 
Q 1025 2000 1025 1625 
L 1025 500 
Q 1250 525 1500 575 
L 1500 2975 
L 725 2975 
Q 750 3425 750 3925 
Q 750 4425 725 4900 
L 2650 4900 
Q 2625 4425 2625 3925 
Q 2625 3425 2650 2975 
L 1925 2975 
L 1925 2200 
Q 2325 2200 2650 2225 
L 2650 1750 
Q 2250 1775 1925 1775 
L 1925 650 
Q 2275 725 2825 850 
Q 2775 625 2775 425 
Q 1350 75 1025 -12 
Q 700 -100 450 -200 
Q 400 100 250 375 
Q 400 375 600 425 
L 600 1700 
Q 600 2050 575 2475 
L 1050 2475 
z
M 3325 2725 
Q 3050 2825 2875 2875 
Q 3050 3350 3125 3862 
Q 3200 4375 3200 4750 
Q 3425 4675 3750 4625 
Q 3650 4350 3600 4025 
L 4200 4025 
L 4200 4525 
Q 4200 4825 4150 5250 
Q 4450 5200 4725 5175 
Q 4675 5000 4650 4725 
Q 4625 4450 4625 4025 
Q 5400 4025 5775 4050 
L 5775 3575 
Q 5400 3600 4625 3600 
L 4625 2375 
Q 5650 2375 6050 2400 
L 6050 1950 
Q 5625 1975 4750 1975 
Q 4900 1250 5300 687 
Q 5700 125 6200 -100 
Q 5975 -275 5775 -575 
Q 5275 -100 4962 412 
Q 4650 925 4475 1575 
Q 4325 925 4087 525 
Q 3850 125 3537 -150 
Q 3225 -425 2850 -650 
Q 2675 -425 2475 -275 
Q 2900 -75 3200 187 
Q 3500 450 3737 850 
Q 3975 1250 4100 1975 
Q 3375 1975 2850 1950 
L 2850 2400 
Q 3450 2375 4175 2375 
Q 4200 3175 4200 3600 
L 3550 3600 
Q 3450 3275 3325 2725 
z
M 2225 3350 
L 2225 4525 
L 1175 4525 
L 1175 3350 
L 2225 3350 
z
" transform="scale(0.015625)"/>
       <path id="SimHei-5e45" d="M 5950 2250 
Q 5925 1875 5925 900 
Q 5925 -50 5950 -425 
L 5450 -425 
L 5450 -175 
L 3350 -175 
L 3350 -475 
L 2875 -475 
Q 2900 200 2900 1025 
Q 2900 1875 2875 2250 
L 5950 2250 
z
M 2575 1125 
Q 2575 800 2437 700 
Q 2300 600 1950 525 
Q 1900 800 1750 1000 
Q 1975 1000 2075 1037 
Q 2175 1075 2175 1300 
L 2175 3725 
L 1700 3725 
L 1700 475 
Q 1700 0 1725 -550 
L 1225 -550 
Q 1250 -25 1250 475 
L 1250 3725 
L 850 3725 
L 850 500 
L 400 500 
Q 425 1000 425 2300 
Q 425 3600 400 4100 
L 1250 4100 
L 1250 4500 
Q 1250 4825 1225 5175 
L 1725 5175 
Q 1700 4825 1700 4500 
L 1700 4100 
L 2600 4100 
Q 2575 3900 2575 3225 
L 2575 1125 
z
M 5575 3925 
Q 5550 3625 5550 3300 
Q 5550 2975 5575 2600 
L 3200 2600 
Q 3225 2975 3225 3300 
Q 3225 3625 3200 3925 
L 5575 3925 
z
M 5250 4800 
Q 5650 4800 6025 4825 
L 6025 4375 
Q 5650 4400 5250 4400 
L 3550 4400 
Q 3075 4400 2800 4375 
L 2800 4825 
Q 3075 4800 3550 4800 
L 5250 4800 
z
M 5150 2975 
L 5150 3575 
L 3625 3575 
L 3625 2975 
L 5150 2975 
z
M 5450 1225 
L 5450 1875 
L 4625 1875 
L 4625 1225 
L 5450 1225 
z
M 4175 200 
L 4175 850 
L 3350 850 
L 3350 200 
L 4175 200 
z
M 5450 200 
L 5450 850 
L 4625 850 
L 4625 200 
L 5450 200 
z
M 4175 1225 
L 4175 1875 
L 3350 1875 
L 3350 1225 
L 4175 1225 
z
" transform="scale(0.015625)"/>
       <path id="SimHei-28" d="M 2975 -200 
L 2700 -475 
Q 2075 125 1762 775 
Q 1450 1425 1450 2250 
Q 1450 3075 1762 3725 
Q 2075 4375 2700 5000 
L 2975 4725 
Q 2400 4175 2112 3587 
Q 1825 3000 1825 2250 
Q 1825 1500 2112 912 
Q 2400 325 2975 -200 
z
" transform="scale(0.015625)"/>
       <path id="SimHei-29" d="M 1675 2250 
Q 1675 1425 1362 775 
Q 1050 125 425 -475 
L 150 -200 
Q 725 325 1012 912 
Q 1300 1500 1300 2250 
Q 1300 3000 1012 3587 
Q 725 4175 150 4725 
L 425 5000 
Q 1050 4375 1362 3725 
Q 1675 3075 1675 2250 
z
" transform="scale(0.015625)"/>
      </defs>
      <use xlink:href="#SimHei-6da8"/>
      <use xlink:href="#SimHei-8dcc" transform="translate(100 0)"/>
      <use xlink:href="#SimHei-5e45" transform="translate(200 0)"/>
      <use xlink:href="#SimHei-20" transform="translate(300 0)"/>
      <use xlink:href="#SimHei-28" transform="translate(350 0)"/>
      <use xlink:href="#SimHei-25" transform="translate(400 0)"/>
      <use xlink:href="#SimHei-29" transform="translate(450 0)"/>
     </g>
    </g>
   </g>
   <g id="line2d_25">
    <path d="M 459.619682 45.010938 
L 804.777545 45.010938 
" clip-path="url(#pe184d6098a)" style="fill: none; stroke: #808080; stroke-width: 0.8; stroke-linecap: square"/>
   </g>
   <g id="patch_16">
    <path d="M 459.619682 324.131071 
L 459.619682 45.010938 
" style="fill: none; stroke: #ffffff; stroke-width: 0.8; stroke-linejoin: miter; stroke-linecap: square"/>
   </g>
   <g id="patch_17">
    <path d="M 459.619682 324.131071 
L 804.777545 324.131071 
" style="fill: none; stroke: #ffffff; stroke-width: 0.8; stroke-linejoin: miter; stroke-linecap: square"/>
   </g>
   <g id="text_24">
    <!-- +0.0% -->
    <g style="fill: #ffffff" transform="translate(484.615567 23.476659) scale(0.12 -0.12)">
     <defs>
      <path id="SimHei-2b" d="M 3000 2125 
L 1775 2125 
L 1775 900 
L 1350 900 
L 1350 2125 
L 125 2125 
L 125 2525 
L 1350 2525 
L 1350 3750 
L 1775 3750 
L 1775 2525 
L 3000 2525 
L 3000 2125 
z
" transform="scale(0.015625)"/>
     </defs>
     <use xlink:href="#SimHei-2b"/>
     <use xlink:href="#SimHei-30" transform="translate(50 0)"/>
     <use xlink:href="#SimHei-2e" transform="translate(100 0)"/>
     <use xlink:href="#SimHei-30" transform="translate(150 0)"/>
     <use xlink:href="#SimHei-25" transform="translate(200 0)"/>
    </g>
   </g>
   <g id="text_25">
    <!-- -0.5% -->
    <g style="fill: #ffffff" transform="translate(573.004265 140.521794) scale(0.12 -0.12)">
     <use xlink:href="#SimHei-2d"/>
     <use xlink:href="#SimHei-30" transform="translate(50 0)"/>
     <use xlink:href="#SimHei-2e" transform="translate(100 0)"/>
     <use xlink:href="#SimHei-35" transform="translate(150 0)"/>
     <use xlink:href="#SimHei-25" transform="translate(200 0)"/>
    </g>
   </g>
   <g id="text_26">
    <!-- -3.7% -->
    <g style="fill: #ffffff" transform="translate(661.392962 368.264378) scale(0.12 -0.12)">
     <use xlink:href="#SimHei-2d"/>
     <use xlink:href="#SimHei-33" transform="translate(50 0)"/>
     <use xlink:href="#SimHei-2e" transform="translate(100 0)"/>
     <use xlink:href="#SimHei-37" transform="translate(150 0)"/>
     <use xlink:href="#SimHei-25" transform="translate(200 0)"/>
    </g>
   </g>
   <g id="text_27">
    <!-- -2.4% -->
    <g style="fill: #ffffff" transform="translate(749.78166 277.58114) scale(0.12 -0.12)">
     <defs>
      <path id="SimHei-34" d="M 2000 1100 
L 75 1100 
L 75 1525 
L 2100 4450 
L 2475 4450 
L 2475 1525 
L 3075 1525 
L 3075 1100 
L 2475 1100 
L 2475 150 
L 2000 150 
L 2000 1100 
z
M 2000 1525 
L 2000 3500 
L 600 1525 
L 2000 1525 
z
" transform="scale(0.015625)"/>
     </defs>
     <use xlink:href="#SimHei-2d"/>
     <use xlink:href="#SimHei-32" transform="translate(50 0)"/>
     <use xlink:href="#SimHei-2e" transform="translate(100 0)"/>
     <use xlink:href="#SimHei-34" transform="translate(150 0)"/>
     <use xlink:href="#SimHei-25" transform="translate(200 0)"/>
    </g>
   </g>
   <g id="text_28">
    <!-- 各类资金平均涨跌幅 -->
    <g style="fill: #ffffff" transform="translate(573.698614 35.010938) scale(0.13 -0.13)">
     <defs>
      <path id="SimHei-5404" d="M 5100 4425 
Q 4850 4000 4525 3600 
Q 4200 3200 3675 2750 
Q 4050 2500 4750 2325 
Q 5450 2150 6050 2125 
Q 5825 1825 5775 1600 
Q 5050 1750 4412 1962 
Q 3775 2175 3300 2475 
Q 2750 2150 2000 1875 
Q 1250 1600 550 1425 
Q 475 1625 275 1850 
Q 900 1950 1662 2200 
Q 2425 2450 2950 2750 
Q 2525 3150 2100 3900 
Q 1900 3575 1675 3300 
Q 1450 3025 1250 2800 
Q 1050 3000 850 3100 
Q 1200 3400 1587 3950 
Q 1975 4500 2175 5225 
Q 2450 5075 2725 5000 
Q 2600 4850 2375 4425 
L 5100 4425 
z
M 4975 1675 
Q 4950 1125 4950 400 
Q 4950 -325 4975 -575 
L 4475 -575 
L 4475 -225 
L 2050 -225 
L 2050 -625 
L 1550 -625 
Q 1575 -275 1575 400 
Q 1575 1075 1550 1675 
L 4975 1675 
z
M 4475 200 
L 4475 1250 
L 2050 1250 
L 2050 200 
L 4475 200 
z
M 3325 3000 
Q 3875 3450 4300 4025 
L 2500 4025 
Q 2975 3275 3325 3000 
z
" transform="scale(0.015625)"/>
      <path id="SimHei-5747" d="M 5775 275 
Q 5775 -325 5362 -450 
Q 4950 -575 4425 -600 
Q 4375 -275 4250 25 
Q 4950 -25 5125 62 
Q 5300 150 5300 500 
L 5375 3700 
L 3550 3700 
Q 3425 3375 3262 3037 
Q 3100 2700 2925 2400 
Q 2675 2550 2475 2625 
Q 3150 3625 3500 5200 
Q 3800 5100 4075 5025 
Q 3975 4875 3875 4650 
Q 3775 4425 3675 4125 
L 5900 4125 
L 5775 275 
z
M 1250 3625 
L 1250 4375 
Q 1250 4775 1225 5100 
L 1775 5100 
Q 1750 4725 1750 4375 
L 1750 3625 
L 1900 3625 
Q 2200 3625 2525 3650 
L 2525 3150 
Q 2200 3175 1900 3175 
L 1750 3175 
L 1750 1100 
L 2500 1375 
Q 2475 1125 2525 900 
Q 1225 475 962 362 
Q 700 250 475 150 
Q 375 475 250 750 
Q 575 800 800 850 
Q 1025 900 1250 975 
L 1250 3175 
L 1125 3175 
Q 850 3175 400 3150 
L 400 3650 
Q 850 3625 1100 3625 
L 1250 3625 
z
M 4950 1625 
Q 4675 1425 4137 1050 
Q 3600 675 3175 300 
Q 3000 575 2850 775 
Q 3350 1050 3762 1325 
Q 4175 1600 4775 2075 
Q 4825 1850 4950 1625 
z
M 3775 3150 
Q 4125 2800 4475 2300 
Q 4250 2125 4100 1975 
Q 3900 2325 3450 2825 
Q 3600 3000 3775 3150 
z
" transform="scale(0.015625)"/>
     </defs>
     <use xlink:href="#SimHei-5404"/>
     <use xlink:href="#SimHei-7c7b" transform="translate(100 0)"/>
     <use xlink:href="#SimHei-8d44" transform="translate(200 0)"/>
     <use xlink:href="#SimHei-91d1" transform="translate(300 0)"/>
     <use xlink:href="#SimHei-5e73" transform="translate(400 0)"/>
     <use xlink:href="#SimHei-5747" transform="translate(500 0)"/>
     <use xlink:href="#SimHei-6da8" transform="translate(600 0)"/>
     <use xlink:href="#SimHei-8dcc" transform="translate(700 0)"/>
     <use xlink:href="#SimHei-5e45" transform="translate(800 0)"/>
    </g>
   </g>
  </g>
 </g>
 <defs>
  <clipPath id="pe184d6098a">
   <rect x="459.619682" y="45.010938" width="345.157864" height="279.120134"/>
  </clipPath>
 </defs>
</svg>
