<?xml version="1.0" encoding="utf-8" standalone="no"?>
<!DOCTYPE svg PUBLIC "-//W3C//DTD SVG 1.1//EN"
  "http://www.w3.org/Graphics/SVG/1.1/DTD/svg11.dtd">
<svg xmlns:xlink="http://www.w3.org/1999/xlink" width="554.606314pt" height="356.414601pt" viewBox="0 0 554.606314 356.414601" xmlns="http://www.w3.org/2000/svg" version="1.1">
 <metadata>
  <rdf:RDF xmlns:dc="http://purl.org/dc/elements/1.1/" xmlns:cc="http://creativecommons.org/ns#" xmlns:rdf="http://www.w3.org/1999/02/22-rdf-syntax-ns#">
   <cc:Work>
    <dc:type rdf:resource="http://purl.org/dc/dcmitype/StillImage"/>
    <dc:date>2026-07-21T10:29:26.970480</dc:date>
    <dc:format>image/svg+xml</dc:format>
    <dc:creator>
     <cc:Agent>
      <dc:title>Matplotlib v3.10.9, https://matplotlib.org/</dc:title>
     </cc:Agent>
    </dc:creator>
   </cc:Work>
  </rdf:RDF>
 </metadata>
 <defs>
  <style type="text/css">*{stroke-linejoin: round; stroke-linecap: butt}</style>
 </defs>
 <g id="figure_1">
  <g id="patch_1">
   <path d="M 0 356.414601 
L 215.914273 356.414601 
L 215.914273 214.409345 
L 0 214.409345 
z
" style="fill: #0d1117"/>
  </g>
  <g id="axes_1">
   <g id="patch_2">
    <path d="M 26.171094 333.469202 
L 199.474475 333.469202 
L 199.474475 222.712652 
L 26.171094 222.712652 
z
" style="fill: #0d1117"/>
   </g>
   <g id="matplotlib.axis_1">
    <g id="xtick_1">
     <g id="line2d_1">
      <path d="M 29.902506 333.469202 
L 29.902506 222.712652 
" clip-path="url(#p468be1d5d6)" style="fill: none; stroke-dasharray: 1.48,0.64; stroke-dashoffset: 0; stroke: #21262d; stroke-width: 0.4"/>
     </g>
     <g id="line2d_2">
      <defs>
       <path id="m2788d4e7bf" d="M 0 0 
L 0 3.5 
" style="stroke: #000000; stroke-width: 0.8"/>
      </defs>
      <g>
       <use xlink:href="#m2788d4e7bf" x="29.902506" y="333.469202" style="stroke: #000000; stroke-width: 0.8"/>
      </g>
     </g>
     <g id="text_1">
      <!-- Jun 22 -->
      <g transform="translate(22.146429 363.936308) rotate(-45) scale(0.09 -0.09)">
       <defs>
        <path id="SimHei-4a" d="M 2800 1550 
Q 2800 775 2462 425 
Q 2125 75 1550 75 
Q 1025 75 675 412 
Q 325 750 325 1500 
L 325 1775 
L 900 1775 
L 900 1425 
Q 900 975 1087 787 
Q 1275 600 1525 600 
Q 1875 600 2050 800 
Q 2225 1000 2225 1525 
L 2225 4400 
L 2800 4400 
L 2800 1550 
z
" transform="scale(0.015625)"/>
        <path id="SimHei-75" d="M 2800 125 
L 2300 125 
L 2300 650 
Q 2100 375 1862 225 
Q 1625 75 1250 75 
Q 800 75 575 325 
Q 350 575 350 950 
L 350 2925 
L 850 2925 
L 850 1125 
Q 850 825 1000 650 
Q 1150 475 1400 475 
Q 1725 475 2012 812 
Q 2300 1150 2300 1650 
L 2300 2925 
L 2800 2925 
L 2800 125 
z
" transform="scale(0.015625)"/>
        <path id="SimHei-6e" d="M 2800 125 
L 2300 125 
L 2300 1925 
Q 2300 2225 2150 2400 
Q 2000 2575 1750 2575 
Q 1425 2575 1137 2237 
Q 850 1900 850 1400 
L 850 125 
L 350 125 
L 350 2925 
L 850 2925 
L 850 2400 
Q 1050 2675 1287 2825 
Q 1525 2975 1900 2975 
Q 2350 2975 2575 2725 
Q 2800 2475 2800 2100 
L 2800 125 
z
" transform="scale(0.015625)"/>
        <path id="SimHei-20" transform="scale(0.015625)"/>
        <path id="SimHei-32" d="M 300 250 
Q 325 625 650 925 
Q 975 1225 1475 1862 
Q 1975 2500 2125 2850 
Q 2275 3200 2237 3450 
Q 2200 3700 2000 3862 
Q 1800 4025 1537 4000 
Q 1275 3975 1037 3800 
Q 800 3625 675 3275 
L 200 3350 
Q 400 3925 712 4187 
Q 1025 4450 1450 4475 
Q 1700 4500 1900 4462 
Q 2100 4425 2312 4287 
Q 2525 4150 2662 3875 
Q 2800 3600 2762 3212 
Q 2725 2825 2375 2287 
Q 2025 1750 1025 600 
L 2825 600 
L 2825 150 
L 300 150 
L 300 250 
z
" transform="scale(0.015625)"/>
       </defs>
       <use xlink:href="#SimHei-4a"/>
       <use xlink:href="#SimHei-75" transform="translate(50 0)"/>
       <use xlink:href="#SimHei-6e" transform="translate(100 0)"/>
       <use xlink:href="#SimHei-20" transform="translate(150 0)"/>
       <use xlink:href="#SimHei-32" transform="translate(200 0)"/>
       <use xlink:href="#SimHei-32" transform="translate(250 0)"/>
      </g>
     </g>
    </g>
    <g id="xtick_2">
     <g id="line2d_3">
      <path d="M 73.544758 333.469202 
L 73.544758 222.712652 
" clip-path="url(#p468be1d5d6)" style="fill: none; stroke-dasharray: 1.48,0.64; stroke-dashoffset: 0; stroke: #21262d; stroke-width: 0.4"/>
     </g>
     <g id="line2d_4">
      <g>
       <use xlink:href="#m2788d4e7bf" x="73.544758" y="333.469202" style="stroke: #000000; stroke-width: 0.8"/>
      </g>
     </g>
     <g id="text_2">
      <!-- Jun 29 -->
      <g transform="translate(65.78868 363.936308) rotate(-45) scale(0.09 -0.09)">
       <defs>
        <path id="SimHei-39" d="M 800 75 
Q 1350 1000 1700 1750 
Q 1075 1650 662 1912 
Q 250 2175 162 2625 
Q 75 3075 175 3437 
Q 275 3800 487 4037 
Q 700 4275 1000 4375 
Q 1300 4475 1537 4475 
Q 1775 4475 2025 4375 
Q 2275 4275 2475 4075 
Q 2675 3875 2750 3662 
Q 2825 3450 2825 3112 
Q 2825 2775 2575 2250 
Q 2325 1725 1350 75 
L 800 75 
z
M 662 2875 
Q 700 2550 937 2337 
Q 1175 2125 1450 2150 
Q 1725 2175 1887 2300 
Q 2050 2425 2200 2725 
Q 2300 3100 2250 3362 
Q 2200 3625 1987 3800 
Q 1775 3975 1525 3975 
Q 1375 4000 1137 3900 
Q 900 3800 762 3500 
Q 625 3200 662 2875 
z
" transform="scale(0.015625)"/>
       </defs>
       <use xlink:href="#SimHei-4a"/>
       <use xlink:href="#SimHei-75" transform="translate(50 0)"/>
       <use xlink:href="#SimHei-6e" transform="translate(100 0)"/>
       <use xlink:href="#SimHei-20" transform="translate(150 0)"/>
       <use xlink:href="#SimHei-32" transform="translate(200 0)"/>
       <use xlink:href="#SimHei-39" transform="translate(250 0)"/>
      </g>
     </g>
    </g>
    <g id="xtick_3">
     <g id="line2d_5">
      <path d="M 117.187009 333.469202 
L 117.187009 222.712652 
" clip-path="url(#p468be1d5d6)" style="fill: none; stroke-dasharray: 1.48,0.64; stroke-dashoffset: 0; stroke: #21262d; stroke-width: 0.4"/>
     </g>
     <g id="line2d_6">
      <g>
       <use xlink:href="#m2788d4e7bf" x="117.187009" y="333.469202" style="stroke: #000000; stroke-width: 0.8"/>
      </g>
     </g>
     <g id="text_3">
      <!-- Jul 07 -->
      <g transform="translate(109.430932 363.936308) rotate(-45) scale(0.09 -0.09)">
       <defs>
        <path id="SimHei-6c" d="M 1825 125 
L 1325 125 
L 1325 4400 
L 1825 4400 
L 1825 125 
z
" transform="scale(0.015625)"/>
        <path id="SimHei-30" d="M 225 2537 
Q 250 3200 412 3587 
Q 575 3975 875 4225 
Q 1175 4475 1612 4475 
Q 2050 4475 2375 4112 
Q 2700 3750 2800 3200 
Q 2900 2650 2862 1937 
Q 2825 1225 2612 775 
Q 2400 325 1975 150 
Q 1550 -25 1125 187 
Q 700 400 525 750 
Q 350 1100 275 1487 
Q 200 1875 225 2537 
z
M 750 2687 
Q 675 2000 800 1462 
Q 925 925 1212 700 
Q 1500 475 1800 612 
Q 2100 750 2237 1162 
Q 2375 1575 2375 2062 
Q 2375 2550 2337 2950 
Q 2300 3350 2112 3675 
Q 1925 4000 1612 4012 
Q 1300 4025 1062 3700 
Q 825 3375 750 2687 
z
" transform="scale(0.015625)"/>
        <path id="SimHei-37" d="M 850 150 
Q 1300 2050 2425 3925 
L 275 3925 
L 275 4375 
L 2950 4375 
L 2950 3950 
Q 1775 2050 1400 150 
L 850 150 
z
" transform="scale(0.015625)"/>
       </defs>
       <use xlink:href="#SimHei-4a"/>
       <use xlink:href="#SimHei-75" transform="translate(50 0)"/>
       <use xlink:href="#SimHei-6c" transform="translate(100 0)"/>
       <use xlink:href="#SimHei-20" transform="translate(150 0)"/>
       <use xlink:href="#SimHei-30" transform="translate(200 0)"/>
       <use xlink:href="#SimHei-37" transform="translate(250 0)"/>
      </g>
     </g>
    </g>
    <g id="xtick_4">
     <g id="line2d_7">
      <path d="M 160.829261 333.469202 
L 160.829261 222.712652 
" clip-path="url(#p468be1d5d6)" style="fill: none; stroke-dasharray: 1.48,0.64; stroke-dashoffset: 0; stroke: #21262d; stroke-width: 0.4"/>
     </g>
     <g id="line2d_8">
      <g>
       <use xlink:href="#m2788d4e7bf" x="160.829261" y="333.469202" style="stroke: #000000; stroke-width: 0.8"/>
      </g>
     </g>
     <g id="text_4">
      <!-- Jul 14 -->
      <g transform="translate(153.073183 363.936308) rotate(-45) scale(0.09 -0.09)">
       <defs>
        <path id="SimHei-31" d="M 1400 3600 
Q 1075 3275 575 2975 
L 575 3450 
Q 1200 3875 1600 4450 
L 1900 4450 
L 1900 150 
L 1400 150 
L 1400 3600 
z
" transform="scale(0.015625)"/>
        <path id="SimHei-34" d="M 2000 1100 
L 75 1100 
L 75 1525 
L 2100 4450 
L 2475 4450 
L 2475 1525 
L 3075 1525 
L 3075 1100 
L 2475 1100 
L 2475 150 
L 2000 150 
L 2000 1100 
z
M 2000 1525 
L 2000 3500 
L 600 1525 
L 2000 1525 
z
" transform="scale(0.015625)"/>
       </defs>
       <use xlink:href="#SimHei-4a"/>
       <use xlink:href="#SimHei-75" transform="translate(50 0)"/>
       <use xlink:href="#SimHei-6c" transform="translate(100 0)"/>
       <use xlink:href="#SimHei-20" transform="translate(150 0)"/>
       <use xlink:href="#SimHei-31" transform="translate(200 0)"/>
       <use xlink:href="#SimHei-34" transform="translate(250 0)"/>
      </g>
     </g>
    </g>
   </g>
   <g id="matplotlib.axis_2">
    <g id="ytick_1">
     <g id="line2d_9">
      <path d="M 26.171094 316.627875 
L 199.474475 316.627875 
" clip-path="url(#p468be1d5d6)" style="fill: none; stroke-dasharray: 1.48,0.64; stroke-dashoffset: 0; stroke: #21262d; stroke-width: 0.4"/>
     </g>
     <g id="line2d_10">
      <defs>
       <path id="m34ff996afd" d="M 0 0 
L 3.5 0 
" style="stroke: #000000; stroke-width: 0.8"/>
      </defs>
      <g>
       <use xlink:href="#m34ff996afd" x="199.474475" y="316.627875" style="stroke: #000000; stroke-width: 0.8"/>
      </g>
     </g>
     <g id="text_5">
      <!-- 4.40 -->
      <g transform="translate(206.474475 319.721625) scale(0.09 -0.09)">
       <defs>
        <path id="SimHei-2e" d="M 1075 125 
L 500 125 
L 500 675 
L 1075 675 
L 1075 125 
z
" transform="scale(0.015625)"/>
       </defs>
       <use xlink:href="#SimHei-34"/>
       <use xlink:href="#SimHei-2e" transform="translate(50 0)"/>
       <use xlink:href="#SimHei-34" transform="translate(100 0)"/>
       <use xlink:href="#SimHei-30" transform="translate(150 0)"/>
      </g>
     </g>
    </g>
    <g id="ytick_2">
     <g id="line2d_11">
      <path d="M 26.171094 295.336737 
L 199.474475 295.336737 
" clip-path="url(#p468be1d5d6)" style="fill: none; stroke-dasharray: 1.48,0.64; stroke-dashoffset: 0; stroke: #21262d; stroke-width: 0.4"/>
     </g>
     <g id="line2d_12">
      <g>
       <use xlink:href="#m34ff996afd" x="199.474475" y="295.336737" style="stroke: #000000; stroke-width: 0.8"/>
      </g>
     </g>
     <g id="text_6">
      <!-- 4.45 -->
      <g transform="translate(206.474475 298.430487) scale(0.09 -0.09)">
       <defs>
        <path id="SimHei-35" d="M 550 1325 
Q 725 650 1150 575 
Q 1575 500 1837 662 
Q 2100 825 2212 1087 
Q 2325 1350 2312 1675 
Q 2300 2000 2137 2225 
Q 1975 2450 1725 2525 
Q 1475 2600 1162 2525 
Q 850 2450 650 2175 
L 225 2225 
Q 275 2375 700 4375 
L 2675 4375 
L 2675 3925 
L 1075 3925 
Q 950 3250 825 2850 
Q 1200 3025 1525 3012 
Q 1850 3000 2150 2862 
Q 2450 2725 2587 2487 
Q 2725 2250 2787 2012 
Q 2850 1775 2837 1500 
Q 2825 1225 2725 937 
Q 2625 650 2425 462 
Q 2225 275 1937 162 
Q 1650 50 1275 75 
Q 900 100 562 350 
Q 225 600 100 1200 
L 550 1325 
z
" transform="scale(0.015625)"/>
       </defs>
       <use xlink:href="#SimHei-34"/>
       <use xlink:href="#SimHei-2e" transform="translate(50 0)"/>
       <use xlink:href="#SimHei-34" transform="translate(100 0)"/>
       <use xlink:href="#SimHei-35" transform="translate(150 0)"/>
      </g>
     </g>
    </g>
    <g id="ytick_3">
     <g id="line2d_13">
      <path d="M 26.171094 274.045599 
L 199.474475 274.045599 
" clip-path="url(#p468be1d5d6)" style="fill: none; stroke-dasharray: 1.48,0.64; stroke-dashoffset: 0; stroke: #21262d; stroke-width: 0.4"/>
     </g>
     <g id="line2d_14">
      <g>
       <use xlink:href="#m34ff996afd" x="199.474475" y="274.045599" style="stroke: #000000; stroke-width: 0.8"/>
      </g>
     </g>
     <g id="text_7">
      <!-- 4.50 -->
      <g transform="translate(206.474475 277.139349) scale(0.09 -0.09)">
       <use xlink:href="#SimHei-34"/>
       <use xlink:href="#SimHei-2e" transform="translate(50 0)"/>
       <use xlink:href="#SimHei-35" transform="translate(100 0)"/>
       <use xlink:href="#SimHei-30" transform="translate(150 0)"/>
      </g>
     </g>
    </g>
    <g id="ytick_4">
     <g id="line2d_15">
      <path d="M 26.171094 252.754461 
L 199.474475 252.754461 
" clip-path="url(#p468be1d5d6)" style="fill: none; stroke-dasharray: 1.48,0.64; stroke-dashoffset: 0; stroke: #21262d; stroke-width: 0.4"/>
     </g>
     <g id="line2d_16">
      <g>
       <use xlink:href="#m34ff996afd" x="199.474475" y="252.754461" style="stroke: #000000; stroke-width: 0.8"/>
      </g>
     </g>
     <g id="text_8">
      <!-- 4.55 -->
      <g transform="translate(206.474475 255.848211) scale(0.09 -0.09)">
       <use xlink:href="#SimHei-34"/>
       <use xlink:href="#SimHei-2e" transform="translate(50 0)"/>
       <use xlink:href="#SimHei-35" transform="translate(100 0)"/>
       <use xlink:href="#SimHei-35" transform="translate(150 0)"/>
      </g>
     </g>
    </g>
    <g id="ytick_5">
     <g id="line2d_17">
      <path d="M 26.171094 231.463323 
L 199.474475 231.463323 
" clip-path="url(#p468be1d5d6)" style="fill: none; stroke-dasharray: 1.48,0.64; stroke-dashoffset: 0; stroke: #21262d; stroke-width: 0.4"/>
     </g>
     <g id="line2d_18">
      <g>
       <use xlink:href="#m34ff996afd" x="199.474475" y="231.463323" style="stroke: #000000; stroke-width: 0.8"/>
      </g>
     </g>
     <g id="text_9">
      <!-- 4.60 -->
      <g transform="translate(206.474475 234.557073) scale(0.09 -0.09)">
       <defs>
        <path id="SimHei-36" d="M 250 1612 
Q 275 1975 387 2225 
Q 500 2475 725 2850 
L 1750 4450 
L 2325 4450 
L 1275 2800 
Q 1950 2975 2350 2750 
Q 2750 2525 2887 2237 
Q 3025 1950 3037 1612 
Q 3050 1275 2937 950 
Q 2825 625 2537 362 
Q 2250 100 1737 75 
Q 1225 50 862 262 
Q 500 475 362 862 
Q 225 1250 250 1612 
z
M 1025 787 
Q 1250 550 1625 525 
Q 2000 500 2250 775 
Q 2500 1050 2500 1575 
Q 2500 2100 2187 2300 
Q 1875 2500 1487 2450 
Q 1100 2400 925 2075 
Q 750 1750 775 1387 
Q 800 1025 1025 787 
z
" transform="scale(0.015625)"/>
       </defs>
       <use xlink:href="#SimHei-34"/>
       <use xlink:href="#SimHei-2e" transform="translate(50 0)"/>
       <use xlink:href="#SimHei-36" transform="translate(100 0)"/>
       <use xlink:href="#SimHei-30" transform="translate(150 0)"/>
      </g>
     </g>
    </g>
    <g id="text_10">
     <!-- 价格 -->
     <g transform="translate(236.99635 288.890927) rotate(-90) scale(0.108 -0.108)">
      <defs>
       <path id="SimHei-4ef7" d="M 2200 4975 
Q 2050 4725 1650 3775 
L 1650 450 
Q 1650 -225 1675 -650 
L 1175 -650 
Q 1175 -225 1200 450 
L 1200 2975 
Q 900 2425 650 2100 
Q 525 2275 225 2450 
Q 750 3025 1125 3800 
Q 1500 4575 1625 5175 
Q 1950 5025 2200 4975 
z
M 4175 4700 
Q 4850 3525 6150 2950 
Q 5925 2750 5775 2500 
Q 4725 3100 3950 4300 
Q 3300 3125 2250 2350 
Q 2125 2525 1900 2725 
Q 2825 3325 3250 4050 
Q 3675 4775 3750 5150 
Q 4150 4950 4325 4900 
L 4175 4700 
z
M 3475 2650 
Q 3400 2075 3325 1087 
Q 3250 100 2325 -675 
Q 2175 -450 1925 -300 
Q 2850 350 2912 1262 
Q 2975 2175 2950 2700 
Q 3275 2650 3475 2650 
z
M 5075 2700 
Q 5050 2150 5050 1725 
L 5050 150 
Q 5050 -225 5075 -650 
L 4550 -650 
Q 4575 -225 4575 175 
L 4575 1875 
Q 4575 2150 4550 2700 
L 5075 2700 
z
" transform="scale(0.015625)"/>
       <path id="SimHei-683c" d="M 4075 4875 
Q 3975 4750 3750 4350 
L 5625 4350 
Q 5450 3850 5212 3437 
Q 4975 3025 4650 2650 
Q 4950 2450 5412 2287 
Q 5875 2125 6150 2100 
Q 5975 1900 5875 1600 
Q 5550 1725 5125 1912 
Q 4700 2100 4300 2400 
Q 3925 2125 3537 1937 
Q 3150 1750 2575 1550 
Q 2475 1775 2300 1925 
Q 2825 2050 3262 2250 
Q 3700 2450 3975 2675 
Q 3625 3050 3325 3575 
Q 3175 3350 2875 2950 
Q 2700 3100 2475 3200 
Q 2825 3550 3112 4075 
Q 3400 4600 3550 5100 
Q 3775 4950 4075 4875 
z
M 5575 1650 
Q 5550 1350 5550 575 
Q 5550 -200 5575 -575 
L 5050 -575 
L 5050 -175 
L 3500 -175 
L 3500 -600 
L 2975 -600 
Q 3000 -200 3000 550 
Q 3000 1325 2975 1650 
L 5575 1650 
z
M 1850 5100 
Q 1825 4775 1825 4475 
L 1825 3825 
Q 2300 3825 2525 3850 
L 2525 3400 
Q 2300 3425 1825 3425 
L 1825 2725 
Q 1950 2800 2125 2950 
Q 2350 2600 2550 2200 
Q 2350 2075 2175 1950 
Q 1975 2375 1825 2625 
L 1825 275 
Q 1825 -275 1850 -625 
L 1350 -625 
Q 1375 -275 1375 275 
L 1375 2425 
Q 1150 1850 625 850 
Q 475 1025 250 1150 
Q 650 1775 900 2375 
Q 1150 2975 1250 3425 
Q 900 3425 475 3400 
L 475 3850 
Q 925 3825 1375 3825 
L 1375 4475 
Q 1375 4750 1350 5100 
L 1850 5100 
z
M 5050 200 
L 5050 1275 
L 3500 1275 
L 3500 200 
L 5050 200 
z
M 4300 2925 
Q 4675 3300 4975 3975 
L 3550 3975 
Q 3850 3350 4300 2925 
z
" transform="scale(0.015625)"/>
      </defs>
      <use xlink:href="#SimHei-4ef7"/>
      <use xlink:href="#SimHei-683c" transform="translate(100 0)"/>
     </g>
    </g>
   </g>
   <g id="PolyCollection_1">
    <path d="M 27.06576 276.174762 
L 27.06576 270.213269 
L 32.739252 270.213269 
L 32.739252 276.174762 
z
" clip-path="url(#p468be1d5d6)" style="fill: #3fb950; fill-opacity: 0.9; stroke: #3fb950"/>
    <path d="M 35.79421 279.5813 
L 35.79421 277.026345 
L 41.467703 277.026345 
L 41.467703 279.5813 
z
" clip-path="url(#p468be1d5d6)" style="fill: #3fb950; fill-opacity: 0.9; stroke: #3fb950"/>
    <path d="M 44.52266 294.05924 
L 44.52266 315.776251 
L 50.196153 315.776251 
L 50.196153 294.05924 
z
" clip-path="url(#p468be1d5d6)" style="fill: #f85149; fill-opacity: 0.9; stroke: #f85149"/>
    <path d="M 53.251111 311.517926 
L 53.251111 320.034373 
L 58.924603 320.034373 
L 58.924603 311.517926 
z
" clip-path="url(#p468be1d5d6)" style="fill: #f85149; fill-opacity: 0.9; stroke: #f85149"/>
    <path d="M 61.979561 321.737744 
L 61.979561 328.55082 
L 67.653054 328.55082 
L 67.653054 321.737744 
z
" clip-path="url(#p468be1d5d6)" style="fill: #f85149; fill-opacity: 0.9; stroke: #f85149"/>
    <path d="M 70.708011 325.996069 
L 70.708011 327.699236 
L 76.381504 327.699236 
L 76.381504 325.996069 
z
" clip-path="url(#p468be1d5d6)" style="fill: #f85149; fill-opacity: 0.9; stroke: #f85149"/>
    <path d="M 79.436462 320.034373 
L 79.436462 308.962971 
L 85.109954 308.962971 
L 85.109954 320.034373 
z
" clip-path="url(#p468be1d5d6)" style="fill: #3fb950; fill-opacity: 0.9; stroke: #3fb950"/>
    <path d="M 88.164912 281.28467 
L 88.164912 284.691209 
L 93.838405 284.691209 
L 93.838405 281.28467 
z
" clip-path="url(#p468be1d5d6)" style="fill: #f85149; fill-opacity: 0.9; stroke: #f85149"/>
    <path d="M 96.893362 272.768223 
L 96.893362 280.432884 
L 102.566855 280.432884 
L 102.566855 272.768223 
z
" clip-path="url(#p468be1d5d6)" style="fill: #f85149; fill-opacity: 0.9; stroke: #f85149"/>
    <path d="M 105.621813 292.356072 
L 105.621813 282.987838 
L 111.295305 282.987838 
L 111.295305 292.356072 
z
" clip-path="url(#p468be1d5d6)" style="fill: #3fb950; fill-opacity: 0.9; stroke: #3fb950"/>
    <path d="M 114.350263 275.322975 
L 114.350263 261.696822 
L 120.023756 261.696822 
L 120.023756 275.322975 
z
" clip-path="url(#p468be1d5d6)" style="fill: #3fb950; fill-opacity: 0.9; stroke: #3fb950"/>
    <path d="M 123.078713 248.070466 
L 123.078713 244.663927 
L 128.752206 244.663927 
L 128.752206 248.070466 
z
" clip-path="url(#p468be1d5d6)" style="fill: #3fb950; fill-opacity: 0.9; stroke: #3fb950"/>
    <path d="M 131.807164 241.257186 
L 131.807164 257.438497 
L 137.480656 257.438497 
L 137.480656 241.257186 
z
" clip-path="url(#p468be1d5d6)" style="fill: #f85149; fill-opacity: 0.9; stroke: #f85149"/>
    <path d="M 140.535614 256.586913 
L 140.535614 244.663927 
L 146.209107 244.663927 
L 146.209107 256.586913 
z
" clip-path="url(#p468be1d5d6)" style="fill: #3fb950; fill-opacity: 0.9; stroke: #3fb950"/>
    <path d="M 149.264064 237.850648 
L 149.264064 227.63083 
L 154.937557 227.63083 
L 154.937557 237.850648 
z
" clip-path="url(#p468be1d5d6)" style="fill: #3fb950; fill-opacity: 0.9; stroke: #3fb950"/>
    <path d="M 157.992514 225.501871 
L 157.992514 237.850648 
L 163.666007 237.850648 
L 163.666007 225.501871 
z
" clip-path="url(#p468be1d5d6)" style="fill: #f85149; fill-opacity: 0.9; stroke: #f85149"/>
    <path d="M 166.720965 228.056825 
L 166.720965 254.883542 
L 172.394458 254.883542 
L 172.394458 228.056825 
z
" clip-path="url(#p468be1d5d6)" style="fill: #f85149; fill-opacity: 0.9; stroke: #f85149"/>
    <path d="M 175.449415 239.128227 
L 175.449415 244.663927 
L 181.122908 244.663927 
L 181.122908 239.128227 
z
" clip-path="url(#p468be1d5d6)" style="fill: #f85149; fill-opacity: 0.9; stroke: #f85149"/>
    <path d="M 184.177865 265.10336 
L 184.177865 256.586913 
L 189.851358 256.586913 
L 189.851358 265.10336 
z
" clip-path="url(#p468be1d5d6)" style="fill: #3fb950; fill-opacity: 0.9; stroke: #3fb950"/>
    <path d="M 192.906316 245.941303 
L 192.906316 232.314947 
L 198.579808 232.314947 
L 198.579808 245.941303 
z
" clip-path="url(#p468be1d5d6)" style="fill: #3fb950; fill-opacity: 0.9; stroke: #3fb950"/>
   </g>
   <g id="LineCollection_1">
    <path d="M 29.902506 282.136254 
L 29.902506 276.174762 
" clip-path="url(#p468be1d5d6)" style="fill: none; stroke: #3fb950"/>
    <path d="M 38.630956 283.839422 
L 38.630956 279.5813 
" clip-path="url(#p468be1d5d6)" style="fill: none; stroke: #3fb950"/>
    <path d="M 47.359407 317.479621 
L 47.359407 315.776251 
" clip-path="url(#p468be1d5d6)" style="fill: none; stroke: #f85149"/>
    <path d="M 56.087857 332.383353 
L 56.087857 320.034373 
" clip-path="url(#p468be1d5d6)" style="fill: none; stroke: #f85149"/>
    <path d="M 64.816307 330.679983 
L 64.816307 328.55082 
" clip-path="url(#p468be1d5d6)" style="fill: none; stroke: #f85149"/>
    <path d="M 73.544758 330.679983 
L 73.544758 327.699236 
" clip-path="url(#p468be1d5d6)" style="fill: none; stroke: #f85149"/>
    <path d="M 82.273208 321.737744 
L 82.273208 320.034373 
" clip-path="url(#p468be1d5d6)" style="fill: none; stroke: #3fb950"/>
    <path d="M 91.001658 292.356072 
L 91.001658 284.691209 
" clip-path="url(#p468be1d5d6)" style="fill: none; stroke: #f85149"/>
    <path d="M 99.730109 294.05924 
L 99.730109 280.432884 
" clip-path="url(#p468be1d5d6)" style="fill: none; stroke: #f85149"/>
    <path d="M 108.458559 292.356072 
L 108.458559 292.356072 
" clip-path="url(#p468be1d5d6)" style="fill: none; stroke: #3fb950"/>
    <path d="M 117.187009 280.432884 
L 117.187009 275.322975 
" clip-path="url(#p468be1d5d6)" style="fill: none; stroke: #3fb950"/>
    <path d="M 125.91546 249.773633 
L 125.91546 248.070466 
" clip-path="url(#p468be1d5d6)" style="fill: none; stroke: #3fb950"/>
    <path d="M 134.64391 261.696822 
L 134.64391 257.438497 
" clip-path="url(#p468be1d5d6)" style="fill: none; stroke: #f85149"/>
    <path d="M 143.37236 257.438497 
L 143.37236 256.586913 
" clip-path="url(#p468be1d5d6)" style="fill: none; stroke: #3fb950"/>
    <path d="M 152.100811 242.960557 
L 152.100811 237.850648 
" clip-path="url(#p468be1d5d6)" style="fill: none; stroke: #3fb950"/>
    <path d="M 160.829261 263.399989 
L 160.829261 237.850648 
" clip-path="url(#p468be1d5d6)" style="fill: none; stroke: #f85149"/>
    <path d="M 169.557711 257.438497 
L 169.557711 254.883542 
" clip-path="url(#p468be1d5d6)" style="fill: none; stroke: #f85149"/>
    <path d="M 178.286161 248.070466 
L 178.286161 244.663927 
" clip-path="url(#p468be1d5d6)" style="fill: none; stroke: #f85149"/>
    <path d="M 187.014612 269.361482 
L 187.014612 265.10336 
" clip-path="url(#p468be1d5d6)" style="fill: none; stroke: #3fb950"/>
    <path d="M 195.743062 248.496258 
L 195.743062 245.941303 
" clip-path="url(#p468be1d5d6)" style="fill: none; stroke: #3fb950"/>
    <path d="M 29.902506 267.658314 
L 29.902506 270.213269 
" clip-path="url(#p468be1d5d6)" style="fill: none; stroke: #3fb950"/>
    <path d="M 38.630956 275.322975 
L 38.630956 277.026345 
" clip-path="url(#p468be1d5d6)" style="fill: none; stroke: #3fb950"/>
    <path d="M 47.359407 293.207656 
L 47.359407 294.05924 
" clip-path="url(#p468be1d5d6)" style="fill: none; stroke: #f85149"/>
    <path d="M 56.087857 310.666342 
L 56.087857 311.517926 
" clip-path="url(#p468be1d5d6)" style="fill: none; stroke: #f85149"/>
    <path d="M 64.816307 312.369713 
L 64.816307 321.737744 
" clip-path="url(#p468be1d5d6)" style="fill: none; stroke: #f85149"/>
    <path d="M 73.544758 320.88616 
L 73.544758 325.996069 
" clip-path="url(#p468be1d5d6)" style="fill: none; stroke: #f85149"/>
    <path d="M 82.273208 307.259804 
L 82.273208 308.962971 
" clip-path="url(#p468be1d5d6)" style="fill: none; stroke: #3fb950"/>
    <path d="M 91.001658 273.619807 
L 91.001658 281.28467 
" clip-path="url(#p468be1d5d6)" style="fill: none; stroke: #f85149"/>
    <path d="M 99.730109 271.916436 
L 99.730109 272.768223 
" clip-path="url(#p468be1d5d6)" style="fill: none; stroke: #f85149"/>
    <path d="M 108.458559 277.877929 
L 108.458559 282.987838 
" clip-path="url(#p468be1d5d6)" style="fill: none; stroke: #3fb950"/>
    <path d="M 117.187009 259.993451 
L 117.187009 261.696822 
" clip-path="url(#p468be1d5d6)" style="fill: none; stroke: #3fb950"/>
    <path d="M 125.91546 232.740739 
L 125.91546 244.663927 
" clip-path="url(#p468be1d5d6)" style="fill: none; stroke: #3fb950"/>
    <path d="M 134.64391 239.554019 
L 134.64391 241.257186 
" clip-path="url(#p468be1d5d6)" style="fill: none; stroke: #f85149"/>
    <path d="M 143.37236 243.812141 
L 143.37236 244.663927 
" clip-path="url(#p468be1d5d6)" style="fill: none; stroke: #3fb950"/>
    <path d="M 152.100811 223.7985 
L 152.100811 227.63083 
" clip-path="url(#p468be1d5d6)" style="fill: none; stroke: #3fb950"/>
    <path d="M 160.829261 225.501871 
L 160.829261 225.501871 
" clip-path="url(#p468be1d5d6)" style="fill: none; stroke: #f85149"/>
    <path d="M 169.557711 227.205038 
L 169.557711 228.056825 
" clip-path="url(#p468be1d5d6)" style="fill: none; stroke: #f85149"/>
    <path d="M 178.286161 233.166531 
L 178.286161 239.128227 
" clip-path="url(#p468be1d5d6)" style="fill: none; stroke: #f85149"/>
    <path d="M 187.014612 252.75438 
L 187.014612 256.586913 
" clip-path="url(#p468be1d5d6)" style="fill: none; stroke: #3fb950"/>
    <path d="M 195.743062 228.056825 
L 195.743062 232.314947 
" clip-path="url(#p468be1d5d6)" style="fill: none; stroke: #3fb950"/>
   </g>
   <g id="patch_3">
    <path d="M 26.171094 333.469202 
L 26.171094 222.712652 
" style="fill: none; stroke: #30363d; stroke-width: 1.5; stroke-linejoin: miter; stroke-linecap: square"/>
   </g>
   <g id="patch_4">
    <path d="M 199.474475 333.469202 
L 199.474475 222.712652 
" style="fill: none; stroke: #30363d; stroke-width: 1.5; stroke-linejoin: miter; stroke-linecap: square"/>
   </g>
   <g id="patch_5">
    <path d="M 26.171094 333.469202 
L 199.474475 333.469202 
" style="fill: none; stroke: #30363d; stroke-width: 1.5; stroke-linejoin: miter; stroke-linecap: square"/>
   </g>
   <g id="patch_6">
    <path d="M 26.171094 222.712652 
L 199.474475 222.712652 
" style="fill: none; stroke: #30363d; stroke-width: 1.5; stroke-linejoin: miter; stroke-linecap: square"/>
   </g>
  </g>
  <g id="text_11">
   <!-- ^TNX -->
   <g transform="translate(91.477137 231.511363) scale(0.1296 -0.1296)">
    <defs>
     <path id="SimHei-5e" d="M 2750 4125 
L 2300 4125 
L 1550 4750 
L 800 4125 
L 350 4125 
L 1250 5150 
L 1850 5150 
L 2750 4125 
z
" transform="scale(0.015625)"/>
     <path id="SimHei-54" d="M 2850 3925 
L 1850 3925 
L 1850 125 
L 1275 125 
L 1275 3925 
L 275 3925 
L 275 4400 
L 2850 4400 
L 2850 3925 
z
" transform="scale(0.015625)"/>
     <path id="SimHei-4e" d="M 2850 125 
L 2225 125 
L 850 3225 
L 825 3225 
L 825 125 
L 250 125 
L 250 4400 
L 875 4400 
L 2250 1300 
L 2275 1300 
L 2275 4400 
L 2850 4400 
L 2850 125 
z
" transform="scale(0.015625)"/>
     <path id="SimHei-58" d="M 3000 125 
L 2400 125 
L 1550 1875 
L 700 125 
L 100 125 
L 1275 2375 
L 225 4400 
L 825 4400 
L 1550 2850 
L 2275 4400 
L 2875 4400 
L 1825 2375 
L 3000 125 
z
" transform="scale(0.015625)"/>
    </defs>
    <use xlink:href="#SimHei-5e"/>
    <use xlink:href="#SimHei-54" transform="translate(50 0)"/>
    <use xlink:href="#SimHei-4e" transform="translate(100 0)"/>
    <use xlink:href="#SimHei-58" transform="translate(150 0)"/>
   </g>
  </g>
 </g>
 <defs>
  <clipPath id="p468be1d5d6">
   <rect x="26.171094" y="222.712652" width="173.303381" height="110.75655"/>
  </clipPath>
 </defs>
</svg>
