<?xml version="1.0" encoding="utf-8" standalone="no"?>
<!DOCTYPE svg PUBLIC "-//W3C//DTD SVG 1.1//EN"
  "http://www.w3.org/Graphics/SVG/1.1/DTD/svg11.dtd">
<svg xmlns:xlink="http://www.w3.org/1999/xlink" width="559.106314pt" height="356.414601pt" viewBox="0 0 559.106314 356.414601" xmlns="http://www.w3.org/2000/svg" version="1.1">
 <metadata>
  <rdf:RDF xmlns:dc="http://purl.org/dc/elements/1.1/" xmlns:cc="http://creativecommons.org/ns#" xmlns:rdf="http://www.w3.org/1999/02/22-rdf-syntax-ns#">
   <cc:Work>
    <dc:type rdf:resource="http://purl.org/dc/dcmitype/StillImage"/>
    <dc:date>2026-07-08T10:24:54.010953</dc:date>
    <dc:format>image/svg+xml</dc:format>
    <dc:creator>
     <cc:Agent>
      <dc:title>Matplotlib v3.10.9, https://matplotlib.org/</dc:title>
     </cc:Agent>
    </dc:creator>
   </cc:Work>
  </rdf:RDF>
 </metadata>
 <defs>
  <style type="text/css">*{stroke-linejoin: round; stroke-linecap: butt}</style>
 </defs>
 <g id="figure_1">
  <g id="patch_1">
   <path d="M 0 356.414601 
L 215.914273 356.414601 
L 215.914273 214.409345 
L 0 214.409345 
z
" style="fill: #0d1117"/>
  </g>
  <g id="axes_1">
   <g id="patch_2">
    <path d="M 26.346054 333.469202 
L 201.055595 333.469202 
L 201.055595 222.712652 
L 26.346054 222.712652 
z
" style="fill: #0d1117"/>
   </g>
   <g id="matplotlib.axis_1">
    <g id="xtick_1">
     <g id="line2d_1">
      <path d="M 30.107742 333.469202 
L 30.107742 222.712652 
" clip-path="url(#paab09c9e39)" style="fill: none; stroke-dasharray: 1.48,0.64; stroke-dashoffset: 0; stroke: #21262d; stroke-width: 0.4"/>
     </g>
     <g id="line2d_2">
      <defs>
       <path id="m1639097927" d="M 0 0 
L 0 3.5 
" style="stroke: #000000; stroke-width: 0.8"/>
      </defs>
      <g>
       <use xlink:href="#m1639097927" x="30.107742" y="333.469202" style="stroke: #000000; stroke-width: 0.8"/>
      </g>
     </g>
     <g id="text_1">
      <!-- Jun 05 -->
      <g transform="translate(22.351665 363.936308) rotate(-45) scale(0.09 -0.09)">
       <defs>
        <path id="SimHei-4a" d="M 2800 1550 
Q 2800 775 2462 425 
Q 2125 75 1550 75 
Q 1025 75 675 412 
Q 325 750 325 1500 
L 325 1775 
L 900 1775 
L 900 1425 
Q 900 975 1087 787 
Q 1275 600 1525 600 
Q 1875 600 2050 800 
Q 2225 1000 2225 1525 
L 2225 4400 
L 2800 4400 
L 2800 1550 
z
" transform="scale(0.015625)"/>
        <path id="SimHei-75" d="M 2800 125 
L 2300 125 
L 2300 650 
Q 2100 375 1862 225 
Q 1625 75 1250 75 
Q 800 75 575 325 
Q 350 575 350 950 
L 350 2925 
L 850 2925 
L 850 1125 
Q 850 825 1000 650 
Q 1150 475 1400 475 
Q 1725 475 2012 812 
Q 2300 1150 2300 1650 
L 2300 2925 
L 2800 2925 
L 2800 125 
z
" transform="scale(0.015625)"/>
        <path id="SimHei-6e" d="M 2800 125 
L 2300 125 
L 2300 1925 
Q 2300 2225 2150 2400 
Q 2000 2575 1750 2575 
Q 1425 2575 1137 2237 
Q 850 1900 850 1400 
L 850 125 
L 350 125 
L 350 2925 
L 850 2925 
L 850 2400 
Q 1050 2675 1287 2825 
Q 1525 2975 1900 2975 
Q 2350 2975 2575 2725 
Q 2800 2475 2800 2100 
L 2800 125 
z
" transform="scale(0.015625)"/>
        <path id="SimHei-20" transform="scale(0.015625)"/>
        <path id="SimHei-30" d="M 225 2537 
Q 250 3200 412 3587 
Q 575 3975 875 4225 
Q 1175 4475 1612 4475 
Q 2050 4475 2375 4112 
Q 2700 3750 2800 3200 
Q 2900 2650 2862 1937 
Q 2825 1225 2612 775 
Q 2400 325 1975 150 
Q 1550 -25 1125 187 
Q 700 400 525 750 
Q 350 1100 275 1487 
Q 200 1875 225 2537 
z
M 750 2687 
Q 675 2000 800 1462 
Q 925 925 1212 700 
Q 1500 475 1800 612 
Q 2100 750 2237 1162 
Q 2375 1575 2375 2062 
Q 2375 2550 2337 2950 
Q 2300 3350 2112 3675 
Q 1925 4000 1612 4012 
Q 1300 4025 1062 3700 
Q 825 3375 750 2687 
z
" transform="scale(0.015625)"/>
        <path id="SimHei-35" d="M 550 1325 
Q 725 650 1150 575 
Q 1575 500 1837 662 
Q 2100 825 2212 1087 
Q 2325 1350 2312 1675 
Q 2300 2000 2137 2225 
Q 1975 2450 1725 2525 
Q 1475 2600 1162 2525 
Q 850 2450 650 2175 
L 225 2225 
Q 275 2375 700 4375 
L 2675 4375 
L 2675 3925 
L 1075 3925 
Q 950 3250 825 2850 
Q 1200 3025 1525 3012 
Q 1850 3000 2150 2862 
Q 2450 2725 2587 2487 
Q 2725 2250 2787 2012 
Q 2850 1775 2837 1500 
Q 2825 1225 2725 937 
Q 2625 650 2425 462 
Q 2225 275 1937 162 
Q 1650 50 1275 75 
Q 900 100 562 350 
Q 225 600 100 1200 
L 550 1325 
z
" transform="scale(0.015625)"/>
       </defs>
       <use xlink:href="#SimHei-4a"/>
       <use xlink:href="#SimHei-75" transform="translate(50 0)"/>
       <use xlink:href="#SimHei-6e" transform="translate(100 0)"/>
       <use xlink:href="#SimHei-20" transform="translate(150 0)"/>
       <use xlink:href="#SimHei-30" transform="translate(200 0)"/>
       <use xlink:href="#SimHei-35" transform="translate(250 0)"/>
      </g>
     </g>
    </g>
    <g id="xtick_2">
     <g id="line2d_3">
      <path d="M 74.104101 333.469202 
L 74.104101 222.712652 
" clip-path="url(#paab09c9e39)" style="fill: none; stroke-dasharray: 1.48,0.64; stroke-dashoffset: 0; stroke: #21262d; stroke-width: 0.4"/>
     </g>
     <g id="line2d_4">
      <g>
       <use xlink:href="#m1639097927" x="74.104101" y="333.469202" style="stroke: #000000; stroke-width: 0.8"/>
      </g>
     </g>
     <g id="text_2">
      <!-- Jun 12 -->
      <g transform="translate(66.348024 363.936308) rotate(-45) scale(0.09 -0.09)">
       <defs>
        <path id="SimHei-31" d="M 1400 3600 
Q 1075 3275 575 2975 
L 575 3450 
Q 1200 3875 1600 4450 
L 1900 4450 
L 1900 150 
L 1400 150 
L 1400 3600 
z
" transform="scale(0.015625)"/>
        <path id="SimHei-32" d="M 300 250 
Q 325 625 650 925 
Q 975 1225 1475 1862 
Q 1975 2500 2125 2850 
Q 2275 3200 2237 3450 
Q 2200 3700 2000 3862 
Q 1800 4025 1537 4000 
Q 1275 3975 1037 3800 
Q 800 3625 675 3275 
L 200 3350 
Q 400 3925 712 4187 
Q 1025 4450 1450 4475 
Q 1700 4500 1900 4462 
Q 2100 4425 2312 4287 
Q 2525 4150 2662 3875 
Q 2800 3600 2762 3212 
Q 2725 2825 2375 2287 
Q 2025 1750 1025 600 
L 2825 600 
L 2825 150 
L 300 150 
L 300 250 
z
" transform="scale(0.015625)"/>
       </defs>
       <use xlink:href="#SimHei-4a"/>
       <use xlink:href="#SimHei-75" transform="translate(50 0)"/>
       <use xlink:href="#SimHei-6e" transform="translate(100 0)"/>
       <use xlink:href="#SimHei-20" transform="translate(150 0)"/>
       <use xlink:href="#SimHei-31" transform="translate(200 0)"/>
       <use xlink:href="#SimHei-32" transform="translate(250 0)"/>
      </g>
     </g>
    </g>
    <g id="xtick_3">
     <g id="line2d_5">
      <path d="M 118.10046 333.469202 
L 118.10046 222.712652 
" clip-path="url(#paab09c9e39)" style="fill: none; stroke-dasharray: 1.48,0.64; stroke-dashoffset: 0; stroke: #21262d; stroke-width: 0.4"/>
     </g>
     <g id="line2d_6">
      <g>
       <use xlink:href="#m1639097927" x="118.10046" y="333.469202" style="stroke: #000000; stroke-width: 0.8"/>
      </g>
     </g>
     <g id="text_3">
      <!-- Jun 22 -->
      <g transform="translate(110.344382 363.936308) rotate(-45) scale(0.09 -0.09)">
       <use xlink:href="#SimHei-4a"/>
       <use xlink:href="#SimHei-75" transform="translate(50 0)"/>
       <use xlink:href="#SimHei-6e" transform="translate(100 0)"/>
       <use xlink:href="#SimHei-20" transform="translate(150 0)"/>
       <use xlink:href="#SimHei-32" transform="translate(200 0)"/>
       <use xlink:href="#SimHei-32" transform="translate(250 0)"/>
      </g>
     </g>
    </g>
    <g id="xtick_4">
     <g id="line2d_7">
      <path d="M 162.096819 333.469202 
L 162.096819 222.712652 
" clip-path="url(#paab09c9e39)" style="fill: none; stroke-dasharray: 1.48,0.64; stroke-dashoffset: 0; stroke: #21262d; stroke-width: 0.4"/>
     </g>
     <g id="line2d_8">
      <g>
       <use xlink:href="#m1639097927" x="162.096819" y="333.469202" style="stroke: #000000; stroke-width: 0.8"/>
      </g>
     </g>
     <g id="text_4">
      <!-- Jun 29 -->
      <g transform="translate(154.340741 363.936308) rotate(-45) scale(0.09 -0.09)">
       <defs>
        <path id="SimHei-39" d="M 800 75 
Q 1350 1000 1700 1750 
Q 1075 1650 662 1912 
Q 250 2175 162 2625 
Q 75 3075 175 3437 
Q 275 3800 487 4037 
Q 700 4275 1000 4375 
Q 1300 4475 1537 4475 
Q 1775 4475 2025 4375 
Q 2275 4275 2475 4075 
Q 2675 3875 2750 3662 
Q 2825 3450 2825 3112 
Q 2825 2775 2575 2250 
Q 2325 1725 1350 75 
L 800 75 
z
M 662 2875 
Q 700 2550 937 2337 
Q 1175 2125 1450 2150 
Q 1725 2175 1887 2300 
Q 2050 2425 2200 2725 
Q 2300 3100 2250 3362 
Q 2200 3625 1987 3800 
Q 1775 3975 1525 3975 
Q 1375 4000 1137 3900 
Q 900 3800 762 3500 
Q 625 3200 662 2875 
z
" transform="scale(0.015625)"/>
       </defs>
       <use xlink:href="#SimHei-4a"/>
       <use xlink:href="#SimHei-75" transform="translate(50 0)"/>
       <use xlink:href="#SimHei-6e" transform="translate(100 0)"/>
       <use xlink:href="#SimHei-20" transform="translate(150 0)"/>
       <use xlink:href="#SimHei-32" transform="translate(200 0)"/>
       <use xlink:href="#SimHei-39" transform="translate(250 0)"/>
      </g>
     </g>
    </g>
   </g>
   <g id="matplotlib.axis_2">
    <g id="ytick_1">
     <g id="line2d_9">
      <path d="M 26.346054 311.9892 
L 201.055595 311.9892 
" clip-path="url(#paab09c9e39)" style="fill: none; stroke-dasharray: 1.48,0.64; stroke-dashoffset: 0; stroke: #21262d; stroke-width: 0.4"/>
     </g>
     <g id="line2d_10">
      <defs>
       <path id="me097a9ba9c" d="M 0 0 
L 3.5 0 
" style="stroke: #000000; stroke-width: 0.8"/>
      </defs>
      <g>
       <use xlink:href="#me097a9ba9c" x="201.055595" y="311.9892" style="stroke: #000000; stroke-width: 0.8"/>
      </g>
     </g>
     <g id="text_5">
      <!-- 4.40 -->
      <g transform="translate(208.055595 315.08295) scale(0.09 -0.09)">
       <defs>
        <path id="SimHei-34" d="M 2000 1100 
L 75 1100 
L 75 1525 
L 2100 4450 
L 2475 4450 
L 2475 1525 
L 3075 1525 
L 3075 1100 
L 2475 1100 
L 2475 150 
L 2000 150 
L 2000 1100 
z
M 2000 1525 
L 2000 3500 
L 600 1525 
L 2000 1525 
z
" transform="scale(0.015625)"/>
        <path id="SimHei-2e" d="M 1075 125 
L 500 125 
L 500 675 
L 1075 675 
L 1075 125 
z
" transform="scale(0.015625)"/>
       </defs>
       <use xlink:href="#SimHei-34"/>
       <use xlink:href="#SimHei-2e" transform="translate(50 0)"/>
       <use xlink:href="#SimHei-34" transform="translate(100 0)"/>
       <use xlink:href="#SimHei-30" transform="translate(150 0)"/>
      </g>
     </g>
    </g>
    <g id="ytick_2">
     <g id="line2d_11">
      <path d="M 26.346054 284.429597 
L 201.055595 284.429597 
" clip-path="url(#paab09c9e39)" style="fill: none; stroke-dasharray: 1.48,0.64; stroke-dashoffset: 0; stroke: #21262d; stroke-width: 0.4"/>
     </g>
     <g id="line2d_12">
      <g>
       <use xlink:href="#me097a9ba9c" x="201.055595" y="284.429597" style="stroke: #000000; stroke-width: 0.8"/>
      </g>
     </g>
     <g id="text_6">
      <!-- 4.45 -->
      <g transform="translate(208.055595 287.523347) scale(0.09 -0.09)">
       <use xlink:href="#SimHei-34"/>
       <use xlink:href="#SimHei-2e" transform="translate(50 0)"/>
       <use xlink:href="#SimHei-34" transform="translate(100 0)"/>
       <use xlink:href="#SimHei-35" transform="translate(150 0)"/>
      </g>
     </g>
    </g>
    <g id="ytick_3">
     <g id="line2d_13">
      <path d="M 26.346054 256.869993 
L 201.055595 256.869993 
" clip-path="url(#paab09c9e39)" style="fill: none; stroke-dasharray: 1.48,0.64; stroke-dashoffset: 0; stroke: #21262d; stroke-width: 0.4"/>
     </g>
     <g id="line2d_14">
      <g>
       <use xlink:href="#me097a9ba9c" x="201.055595" y="256.869993" style="stroke: #000000; stroke-width: 0.8"/>
      </g>
     </g>
     <g id="text_7">
      <!-- 4.50 -->
      <g transform="translate(208.055595 259.963743) scale(0.09 -0.09)">
       <use xlink:href="#SimHei-34"/>
       <use xlink:href="#SimHei-2e" transform="translate(50 0)"/>
       <use xlink:href="#SimHei-35" transform="translate(100 0)"/>
       <use xlink:href="#SimHei-30" transform="translate(150 0)"/>
      </g>
     </g>
    </g>
    <g id="ytick_4">
     <g id="line2d_15">
      <path d="M 26.346054 229.310389 
L 201.055595 229.310389 
" clip-path="url(#paab09c9e39)" style="fill: none; stroke-dasharray: 1.48,0.64; stroke-dashoffset: 0; stroke: #21262d; stroke-width: 0.4"/>
     </g>
     <g id="line2d_16">
      <g>
       <use xlink:href="#me097a9ba9c" x="201.055595" y="229.310389" style="stroke: #000000; stroke-width: 0.8"/>
      </g>
     </g>
     <g id="text_8">
      <!-- 4.55 -->
      <g transform="translate(208.055595 232.404139) scale(0.09 -0.09)">
       <use xlink:href="#SimHei-34"/>
       <use xlink:href="#SimHei-2e" transform="translate(50 0)"/>
       <use xlink:href="#SimHei-35" transform="translate(100 0)"/>
       <use xlink:href="#SimHei-35" transform="translate(150 0)"/>
      </g>
     </g>
    </g>
    <g id="text_9">
     <!-- 价格 -->
     <g transform="translate(238.57747 288.890927) rotate(-90) scale(0.108 -0.108)">
      <defs>
       <path id="SimHei-4ef7" d="M 2200 4975 
Q 2050 4725 1650 3775 
L 1650 450 
Q 1650 -225 1675 -650 
L 1175 -650 
Q 1175 -225 1200 450 
L 1200 2975 
Q 900 2425 650 2100 
Q 525 2275 225 2450 
Q 750 3025 1125 3800 
Q 1500 4575 1625 5175 
Q 1950 5025 2200 4975 
z
M 4175 4700 
Q 4850 3525 6150 2950 
Q 5925 2750 5775 2500 
Q 4725 3100 3950 4300 
Q 3300 3125 2250 2350 
Q 2125 2525 1900 2725 
Q 2825 3325 3250 4050 
Q 3675 4775 3750 5150 
Q 4150 4950 4325 4900 
L 4175 4700 
z
M 3475 2650 
Q 3400 2075 3325 1087 
Q 3250 100 2325 -675 
Q 2175 -450 1925 -300 
Q 2850 350 2912 1262 
Q 2975 2175 2950 2700 
Q 3275 2650 3475 2650 
z
M 5075 2700 
Q 5050 2150 5050 1725 
L 5050 150 
Q 5050 -225 5075 -650 
L 4550 -650 
Q 4575 -225 4575 175 
L 4575 1875 
Q 4575 2150 4550 2700 
L 5075 2700 
z
" transform="scale(0.015625)"/>
       <path id="SimHei-683c" d="M 4075 4875 
Q 3975 4750 3750 4350 
L 5625 4350 
Q 5450 3850 5212 3437 
Q 4975 3025 4650 2650 
Q 4950 2450 5412 2287 
Q 5875 2125 6150 2100 
Q 5975 1900 5875 1600 
Q 5550 1725 5125 1912 
Q 4700 2100 4300 2400 
Q 3925 2125 3537 1937 
Q 3150 1750 2575 1550 
Q 2475 1775 2300 1925 
Q 2825 2050 3262 2250 
Q 3700 2450 3975 2675 
Q 3625 3050 3325 3575 
Q 3175 3350 2875 2950 
Q 2700 3100 2475 3200 
Q 2825 3550 3112 4075 
Q 3400 4600 3550 5100 
Q 3775 4950 4075 4875 
z
M 5575 1650 
Q 5550 1350 5550 575 
Q 5550 -200 5575 -575 
L 5050 -575 
L 5050 -175 
L 3500 -175 
L 3500 -600 
L 2975 -600 
Q 3000 -200 3000 550 
Q 3000 1325 2975 1650 
L 5575 1650 
z
M 1850 5100 
Q 1825 4775 1825 4475 
L 1825 3825 
Q 2300 3825 2525 3850 
L 2525 3400 
Q 2300 3425 1825 3425 
L 1825 2725 
Q 1950 2800 2125 2950 
Q 2350 2600 2550 2200 
Q 2350 2075 2175 1950 
Q 1975 2375 1825 2625 
L 1825 275 
Q 1825 -275 1850 -625 
L 1350 -625 
Q 1375 -275 1375 275 
L 1375 2425 
Q 1150 1850 625 850 
Q 475 1025 250 1150 
Q 650 1775 900 2375 
Q 1150 2975 1250 3425 
Q 900 3425 475 3400 
L 475 3850 
Q 925 3825 1375 3825 
L 1375 4475 
Q 1375 4750 1350 5100 
L 1850 5100 
z
M 5050 200 
L 5050 1275 
L 3500 1275 
L 3500 200 
L 5050 200 
z
M 4300 2925 
Q 4675 3300 4975 3975 
L 3550 3975 
Q 3850 3350 4300 2925 
z
" transform="scale(0.015625)"/>
      </defs>
      <use xlink:href="#SimHei-4ef7"/>
      <use xlink:href="#SimHei-683c" transform="translate(100 0)"/>
     </g>
    </g>
   </g>
   <g id="PolyCollection_1">
    <path d="M 27.247979 275.059327 
L 27.247979 237.027202 
L 32.967506 237.027202 
L 32.967506 275.059327 
z
" clip-path="url(#paab09c9e39)" style="fill: #3fb950; fill-opacity: 0.9; stroke: #3fb950"/>
    <path d="M 36.047251 234.822331 
L 36.047251 228.20798 
L 41.766777 228.20798 
L 41.766777 234.822331 
z
" clip-path="url(#paab09c9e39)" style="fill: #3fb950; fill-opacity: 0.9; stroke: #3fb950"/>
    <path d="M 44.846522 231.515155 
L 44.846522 241.436682 
L 50.566049 241.436682 
L 50.566049 231.515155 
z
" clip-path="url(#paab09c9e39)" style="fill: #f85149; fill-opacity: 0.9; stroke: #f85149"/>
    <path d="M 53.645794 238.129507 
L 53.645794 233.720027 
L 59.365321 233.720027 
L 59.365321 238.129507 
z
" clip-path="url(#paab09c9e39)" style="fill: #3fb950; fill-opacity: 0.9; stroke: #3fb950"/>
    <path d="M 62.445066 245.29501 
L 62.445066 277.264198 
L 68.164593 277.264198 
L 68.164593 245.29501 
z
" clip-path="url(#paab09c9e39)" style="fill: #f85149; fill-opacity: 0.9; stroke: #f85149"/>
    <path d="M 71.244338 271.752152 
L 71.244338 264.035496 
L 76.963864 264.035496 
L 76.963864 271.752152 
z
" clip-path="url(#paab09c9e39)" style="fill: #3fb950; fill-opacity: 0.9; stroke: #3fb950"/>
    <path d="M 80.04361 281.673678 
L 80.04361 273.957023 
L 85.763136 273.957023 
L 85.763136 281.673678 
z
" clip-path="url(#paab09c9e39)" style="fill: #3fb950; fill-opacity: 0.9; stroke: #3fb950"/>
    <path d="M 88.842881 288.288029 
L 88.842881 296.555837 
L 94.562408 296.555837 
L 94.562408 288.288029 
z
" clip-path="url(#paab09c9e39)" style="fill: #f85149; fill-opacity: 0.9; stroke: #f85149"/>
    <path d="M 97.642153 288.288029 
L 97.642153 277.264198 
L 103.36168 277.264198 
L 103.36168 288.288029 
z
" clip-path="url(#paab09c9e39)" style="fill: #3fb950; fill-opacity: 0.9; stroke: #3fb950"/>
    <path d="M 106.441425 282.775982 
L 106.441425 283.878287 
L 112.160952 283.878287 
L 112.160952 282.775982 
z
" clip-path="url(#paab09c9e39)" style="fill: #f85149; fill-opacity: 0.9; stroke: #f85149"/>
    <path d="M 115.240697 259.626016 
L 115.240697 251.909361 
L 120.960223 251.909361 
L 120.960223 259.626016 
z
" clip-path="url(#paab09c9e39)" style="fill: #3fb950; fill-opacity: 0.9; stroke: #3fb950"/>
    <path d="M 124.039968 264.035496 
L 124.039968 260.728321 
L 129.759495 260.728321 
L 129.759495 264.035496 
z
" clip-path="url(#paab09c9e39)" style="fill: #3fb950; fill-opacity: 0.9; stroke: #3fb950"/>
    <path d="M 132.83924 282.775982 
L 132.83924 310.886843 
L 138.558767 310.886843 
L 138.558767 282.775982 
z
" clip-path="url(#paab09c9e39)" style="fill: #f85149; fill-opacity: 0.9; stroke: #f85149"/>
    <path d="M 141.638512 305.374797 
L 141.638512 316.398627 
L 147.358039 316.398627 
L 147.358039 305.374797 
z
" clip-path="url(#paab09c9e39)" style="fill: #f85149; fill-opacity: 0.9; stroke: #f85149"/>
    <path d="M 150.437784 318.603499 
L 150.437784 327.422458 
L 156.15731 327.422458 
L 156.15731 318.603499 
z
" clip-path="url(#paab09c9e39)" style="fill: #f85149; fill-opacity: 0.9; stroke: #f85149"/>
    <path d="M 159.237056 324.115546 
L 159.237056 326.320154 
L 164.956582 326.320154 
L 164.956582 324.115546 
z
" clip-path="url(#paab09c9e39)" style="fill: #f85149; fill-opacity: 0.9; stroke: #f85149"/>
    <path d="M 168.036327 316.398627 
L 168.036327 302.067621 
L 173.755854 302.067621 
L 173.755854 316.398627 
z
" clip-path="url(#paab09c9e39)" style="fill: #3fb950; fill-opacity: 0.9; stroke: #3fb950"/>
    <path d="M 176.835599 266.240367 
L 176.835599 270.649847 
L 182.555126 270.649847 
L 182.555126 266.240367 
z
" clip-path="url(#paab09c9e39)" style="fill: #f85149; fill-opacity: 0.9; stroke: #f85149"/>
    <path d="M 185.634871 255.216537 
L 185.634871 265.1378 
L 191.354398 265.1378 
L 191.354398 255.216537 
z
" clip-path="url(#paab09c9e39)" style="fill: #f85149; fill-opacity: 0.9; stroke: #f85149"/>
    <path d="M 194.434143 258.523449 
L 194.434143 240.88553 
L 200.153669 240.88553 
L 200.153669 258.523449 
z
" clip-path="url(#paab09c9e39)" style="fill: #3fb950; fill-opacity: 0.9; stroke: #3fb950"/>
   </g>
   <g id="LineCollection_1">
    <path d="M 30.107742 276.161631 
L 30.107742 275.059327 
" clip-path="url(#paab09c9e39)" style="fill: none; stroke: #3fb950"/>
    <path d="M 38.907014 248.051033 
L 38.907014 234.822331 
" clip-path="url(#paab09c9e39)" style="fill: none; stroke: #3fb950"/>
    <path d="M 47.706286 245.846162 
L 47.706286 241.436682 
" clip-path="url(#paab09c9e39)" style="fill: none; stroke: #f85149"/>
    <path d="M 56.505558 249.70449 
L 56.505558 238.129507 
" clip-path="url(#paab09c9e39)" style="fill: none; stroke: #3fb950"/>
    <path d="M 65.304829 280.571374 
L 65.304829 277.264198 
" clip-path="url(#paab09c9e39)" style="fill: none; stroke: #f85149"/>
    <path d="M 74.104101 273.957023 
L 74.104101 271.752152 
" clip-path="url(#paab09c9e39)" style="fill: none; stroke: #3fb950"/>
    <path d="M 82.903373 289.390334 
L 82.903373 281.673678 
" clip-path="url(#paab09c9e39)" style="fill: none; stroke: #3fb950"/>
    <path d="M 91.702645 300.965317 
L 91.702645 296.555837 
" clip-path="url(#paab09c9e39)" style="fill: none; stroke: #f85149"/>
    <path d="M 100.501916 297.658141 
L 100.501916 288.288029 
" clip-path="url(#paab09c9e39)" style="fill: none; stroke: #3fb950"/>
    <path d="M 109.301188 300.965317 
L 109.301188 283.878287 
" clip-path="url(#paab09c9e39)" style="fill: none; stroke: #f85149"/>
    <path d="M 118.10046 267.342672 
L 118.10046 259.626016 
" clip-path="url(#paab09c9e39)" style="fill: none; stroke: #3fb950"/>
    <path d="M 126.899732 269.54728 
L 126.899732 264.035496 
" clip-path="url(#paab09c9e39)" style="fill: none; stroke: #3fb950"/>
    <path d="M 135.699004 313.091715 
L 135.699004 310.886843 
" clip-path="url(#paab09c9e39)" style="fill: none; stroke: #f85149"/>
    <path d="M 144.498275 332.383353 
L 144.498275 316.398627 
" clip-path="url(#paab09c9e39)" style="fill: none; stroke: #f85149"/>
    <path d="M 153.297547 330.178482 
L 153.297547 327.422458 
" clip-path="url(#paab09c9e39)" style="fill: none; stroke: #f85149"/>
    <path d="M 162.096819 330.178482 
L 162.096819 326.320154 
" clip-path="url(#paab09c9e39)" style="fill: none; stroke: #f85149"/>
    <path d="M 170.896091 318.603499 
L 170.896091 316.398627 
" clip-path="url(#paab09c9e39)" style="fill: none; stroke: #3fb950"/>
    <path d="M 179.695362 280.571374 
L 179.695362 270.649847 
" clip-path="url(#paab09c9e39)" style="fill: none; stroke: #f85149"/>
    <path d="M 188.494634 282.775982 
L 188.494634 265.1378 
" clip-path="url(#paab09c9e39)" style="fill: none; stroke: #f85149"/>
    <path d="M 197.293906 265.1378 
L 197.293906 258.523449 
" clip-path="url(#paab09c9e39)" style="fill: none; stroke: #3fb950"/>
    <path d="M 30.107742 227.105676 
L 30.107742 237.027202 
" clip-path="url(#paab09c9e39)" style="fill: none; stroke: #3fb950"/>
    <path d="M 38.907014 224.900804 
L 38.907014 228.20798 
" clip-path="url(#paab09c9e39)" style="fill: none; stroke: #3fb950"/>
    <path d="M 47.706286 226.003109 
L 47.706286 231.515155 
" clip-path="url(#paab09c9e39)" style="fill: none; stroke: #f85149"/>
    <path d="M 56.505558 223.7985 
L 56.505558 233.720027 
" clip-path="url(#paab09c9e39)" style="fill: none; stroke: #3fb950"/>
    <path d="M 65.304829 229.310284 
L 65.304829 245.29501 
" clip-path="url(#paab09c9e39)" style="fill: none; stroke: #f85149"/>
    <path d="M 74.104101 253.011665 
L 74.104101 264.035496 
" clip-path="url(#paab09c9e39)" style="fill: none; stroke: #3fb950"/>
    <path d="M 82.903373 271.752152 
L 82.903373 273.957023 
" clip-path="url(#paab09c9e39)" style="fill: none; stroke: #3fb950"/>
    <path d="M 91.702645 279.468807 
L 91.702645 288.288029 
" clip-path="url(#paab09c9e39)" style="fill: none; stroke: #f85149"/>
    <path d="M 100.501916 268.444976 
L 100.501916 277.264198 
" clip-path="url(#paab09c9e39)" style="fill: none; stroke: #3fb950"/>
    <path d="M 109.301188 282.775982 
L 109.301188 282.775982 
" clip-path="url(#paab09c9e39)" style="fill: none; stroke: #f85149"/>
    <path d="M 118.10046 248.602185 
L 118.10046 251.909361 
" clip-path="url(#paab09c9e39)" style="fill: none; stroke: #3fb950"/>
    <path d="M 126.899732 258.523449 
L 126.899732 260.728321 
" clip-path="url(#paab09c9e39)" style="fill: none; stroke: #3fb950"/>
    <path d="M 135.699004 281.673678 
L 135.699004 282.775982 
" clip-path="url(#paab09c9e39)" style="fill: none; stroke: #f85149"/>
    <path d="M 144.498275 304.272492 
L 144.498275 305.374797 
" clip-path="url(#paab09c9e39)" style="fill: none; stroke: #f85149"/>
    <path d="M 153.297547 306.477364 
L 153.297547 318.603499 
" clip-path="url(#paab09c9e39)" style="fill: none; stroke: #f85149"/>
    <path d="M 162.096819 317.501195 
L 162.096819 324.115546 
" clip-path="url(#paab09c9e39)" style="fill: none; stroke: #f85149"/>
    <path d="M 170.896091 299.863012 
L 170.896091 302.067621 
" clip-path="url(#paab09c9e39)" style="fill: none; stroke: #3fb950"/>
    <path d="M 179.695362 256.318841 
L 179.695362 266.240367 
" clip-path="url(#paab09c9e39)" style="fill: none; stroke: #f85149"/>
    <path d="M 188.494634 254.113969 
L 188.494634 255.216537 
" clip-path="url(#paab09c9e39)" style="fill: none; stroke: #f85149"/>
    <path d="M 197.293906 238.680659 
L 197.293906 240.88553 
" clip-path="url(#paab09c9e39)" style="fill: none; stroke: #3fb950"/>
   </g>
   <g id="patch_3">
    <path d="M 26.346054 333.469202 
L 26.346054 222.712652 
" style="fill: none; stroke: #30363d; stroke-width: 1.5; stroke-linejoin: miter; stroke-linecap: square"/>
   </g>
   <g id="patch_4">
    <path d="M 201.055595 333.469202 
L 201.055595 222.712652 
" style="fill: none; stroke: #30363d; stroke-width: 1.5; stroke-linejoin: miter; stroke-linecap: square"/>
   </g>
   <g id="patch_5">
    <path d="M 26.346054 333.469202 
L 201.055595 333.469202 
" style="fill: none; stroke: #30363d; stroke-width: 1.5; stroke-linejoin: miter; stroke-linecap: square"/>
   </g>
   <g id="patch_6">
    <path d="M 26.346054 222.712652 
L 201.055595 222.712652 
" style="fill: none; stroke: #30363d; stroke-width: 1.5; stroke-linejoin: miter; stroke-linecap: square"/>
   </g>
  </g>
  <g id="text_10">
   <!-- ^TNX -->
   <g transform="translate(92.287137 231.511363) scale(0.1296 -0.1296)">
    <defs>
     <path id="SimHei-5e" d="M 2750 4125 
L 2300 4125 
L 1550 4750 
L 800 4125 
L 350 4125 
L 1250 5150 
L 1850 5150 
L 2750 4125 
z
" transform="scale(0.015625)"/>
     <path id="SimHei-54" d="M 2850 3925 
L 1850 3925 
L 1850 125 
L 1275 125 
L 1275 3925 
L 275 3925 
L 275 4400 
L 2850 4400 
L 2850 3925 
z
" transform="scale(0.015625)"/>
     <path id="SimHei-4e" d="M 2850 125 
L 2225 125 
L 850 3225 
L 825 3225 
L 825 125 
L 250 125 
L 250 4400 
L 875 4400 
L 2250 1300 
L 2275 1300 
L 2275 4400 
L 2850 4400 
L 2850 125 
z
" transform="scale(0.015625)"/>
     <path id="SimHei-58" d="M 3000 125 
L 2400 125 
L 1550 1875 
L 700 125 
L 100 125 
L 1275 2375 
L 225 4400 
L 825 4400 
L 1550 2850 
L 2275 4400 
L 2875 4400 
L 1825 2375 
L 3000 125 
z
" transform="scale(0.015625)"/>
    </defs>
    <use xlink:href="#SimHei-5e"/>
    <use xlink:href="#SimHei-54" transform="translate(50 0)"/>
    <use xlink:href="#SimHei-4e" transform="translate(100 0)"/>
    <use xlink:href="#SimHei-58" transform="translate(150 0)"/>
   </g>
  </g>
 </g>
 <defs>
  <clipPath id="paab09c9e39">
   <rect x="26.346054" y="222.712652" width="174.709541" height="110.75655"/>
  </clipPath>
 </defs>
</svg>
