<?xml version="1.0" encoding="utf-8" standalone="no"?>
<!DOCTYPE svg PUBLIC "-//W3C//DTD SVG 1.1//EN"
  "http://www.w3.org/Graphics/SVG/1.1/DTD/svg11.dtd">
<svg xmlns:xlink="http://www.w3.org/1999/xlink" width="550.106314pt" height="356.414601pt" viewBox="0 0 550.106314 356.414601" xmlns="http://www.w3.org/2000/svg" version="1.1">
 <metadata>
  <rdf:RDF xmlns:dc="http://purl.org/dc/elements/1.1/" xmlns:cc="http://creativecommons.org/ns#" xmlns:rdf="http://www.w3.org/1999/02/22-rdf-syntax-ns#">
   <cc:Work>
    <dc:type rdf:resource="http://purl.org/dc/dcmitype/StillImage"/>
    <dc:date>2026-07-22T22:32:56.335410</dc:date>
    <dc:format>image/svg+xml</dc:format>
    <dc:creator>
     <cc:Agent>
      <dc:title>Matplotlib v3.10.9, https://matplotlib.org/</dc:title>
     </cc:Agent>
    </dc:creator>
   </cc:Work>
  </rdf:RDF>
 </metadata>
 <defs>
  <style type="text/css">*{stroke-linejoin: round; stroke-linecap: butt}</style>
 </defs>
 <g id="figure_1">
  <g id="patch_1">
   <path d="M 0 356.414601 
L 550.106314 356.414601 
L 550.106314 0 
L 0 0 
z
" style="fill: #0d1117"/>
  </g>
  <g id="axes_1">
   <g id="patch_2">
    <path d="M 8.566439 317.952 
L 508.534439 317.952 
L 508.534439 7.2 
L 8.566439 7.2 
z
" style="fill: #0d1117"/>
   </g>
   <g id="matplotlib.axis_1">
    <g id="xtick_1">
     <g id="line2d_1">
      <path d="M 19.331301 317.952 
L 19.331301 7.2 
" clip-path="url(#p8db0220dc6)" style="fill: none; stroke-dasharray: 1.48,0.64; stroke-dashoffset: 0; stroke: #21262d; stroke-width: 0.4"/>
     </g>
     <g id="line2d_2">
      <defs>
       <path id="m6295c030ca" d="M 0 0 
L 0 3.5 
" style="stroke: #000000; stroke-width: 0.8"/>
      </defs>
      <g>
       <use xlink:href="#m6295c030ca" x="19.331301" y="317.952" style="stroke: #000000; stroke-width: 0.8"/>
      </g>
     </g>
     <g id="text_1">
      <!-- Jun 24 -->
      <g transform="translate(11.575223 348.419106) rotate(-45) scale(0.09 -0.09)">
       <defs>
        <path id="SimHei-4a" d="M 2800 1550 
Q 2800 775 2462 425 
Q 2125 75 1550 75 
Q 1025 75 675 412 
Q 325 750 325 1500 
L 325 1775 
L 900 1775 
L 900 1425 
Q 900 975 1087 787 
Q 1275 600 1525 600 
Q 1875 600 2050 800 
Q 2225 1000 2225 1525 
L 2225 4400 
L 2800 4400 
L 2800 1550 
z
" transform="scale(0.015625)"/>
        <path id="SimHei-75" d="M 2800 125 
L 2300 125 
L 2300 650 
Q 2100 375 1862 225 
Q 1625 75 1250 75 
Q 800 75 575 325 
Q 350 575 350 950 
L 350 2925 
L 850 2925 
L 850 1125 
Q 850 825 1000 650 
Q 1150 475 1400 475 
Q 1725 475 2012 812 
Q 2300 1150 2300 1650 
L 2300 2925 
L 2800 2925 
L 2800 125 
z
" transform="scale(0.015625)"/>
        <path id="SimHei-6e" d="M 2800 125 
L 2300 125 
L 2300 1925 
Q 2300 2225 2150 2400 
Q 2000 2575 1750 2575 
Q 1425 2575 1137 2237 
Q 850 1900 850 1400 
L 850 125 
L 350 125 
L 350 2925 
L 850 2925 
L 850 2400 
Q 1050 2675 1287 2825 
Q 1525 2975 1900 2975 
Q 2350 2975 2575 2725 
Q 2800 2475 2800 2100 
L 2800 125 
z
" transform="scale(0.015625)"/>
        <path id="SimHei-20" transform="scale(0.015625)"/>
        <path id="SimHei-32" d="M 300 250 
Q 325 625 650 925 
Q 975 1225 1475 1862 
Q 1975 2500 2125 2850 
Q 2275 3200 2237 3450 
Q 2200 3700 2000 3862 
Q 1800 4025 1537 4000 
Q 1275 3975 1037 3800 
Q 800 3625 675 3275 
L 200 3350 
Q 400 3925 712 4187 
Q 1025 4450 1450 4475 
Q 1700 4500 1900 4462 
Q 2100 4425 2312 4287 
Q 2525 4150 2662 3875 
Q 2800 3600 2762 3212 
Q 2725 2825 2375 2287 
Q 2025 1750 1025 600 
L 2825 600 
L 2825 150 
L 300 150 
L 300 250 
z
" transform="scale(0.015625)"/>
        <path id="SimHei-34" d="M 2000 1100 
L 75 1100 
L 75 1525 
L 2100 4450 
L 2475 4450 
L 2475 1525 
L 3075 1525 
L 3075 1100 
L 2475 1100 
L 2475 150 
L 2000 150 
L 2000 1100 
z
M 2000 1525 
L 2000 3500 
L 600 1525 
L 2000 1525 
z
" transform="scale(0.015625)"/>
       </defs>
       <use xlink:href="#SimHei-4a"/>
       <use xlink:href="#SimHei-75" transform="translate(50 0)"/>
       <use xlink:href="#SimHei-6e" transform="translate(100 0)"/>
       <use xlink:href="#SimHei-20" transform="translate(150 0)"/>
       <use xlink:href="#SimHei-32" transform="translate(200 0)"/>
       <use xlink:href="#SimHei-34" transform="translate(250 0)"/>
      </g>
     </g>
    </g>
    <g id="xtick_2">
     <g id="line2d_3">
      <path d="M 82.283706 317.952 
L 82.283706 7.2 
" clip-path="url(#p8db0220dc6)" style="fill: none; stroke-dasharray: 1.48,0.64; stroke-dashoffset: 0; stroke: #21262d; stroke-width: 0.4"/>
     </g>
     <g id="line2d_4">
      <g>
       <use xlink:href="#m6295c030ca" x="82.283706" y="317.952" style="stroke: #000000; stroke-width: 0.8"/>
      </g>
     </g>
     <g id="text_2">
      <!-- Jun 26 -->
      <g transform="translate(74.527628 348.419106) rotate(-45) scale(0.09 -0.09)">
       <defs>
        <path id="SimHei-36" d="M 250 1612 
Q 275 1975 387 2225 
Q 500 2475 725 2850 
L 1750 4450 
L 2325 4450 
L 1275 2800 
Q 1950 2975 2350 2750 
Q 2750 2525 2887 2237 
Q 3025 1950 3037 1612 
Q 3050 1275 2937 950 
Q 2825 625 2537 362 
Q 2250 100 1737 75 
Q 1225 50 862 262 
Q 500 475 362 862 
Q 225 1250 250 1612 
z
M 1025 787 
Q 1250 550 1625 525 
Q 2000 500 2250 775 
Q 2500 1050 2500 1575 
Q 2500 2100 2187 2300 
Q 1875 2500 1487 2450 
Q 1100 2400 925 2075 
Q 750 1750 775 1387 
Q 800 1025 1025 787 
z
" transform="scale(0.015625)"/>
       </defs>
       <use xlink:href="#SimHei-4a"/>
       <use xlink:href="#SimHei-75" transform="translate(50 0)"/>
       <use xlink:href="#SimHei-6e" transform="translate(100 0)"/>
       <use xlink:href="#SimHei-20" transform="translate(150 0)"/>
       <use xlink:href="#SimHei-32" transform="translate(200 0)"/>
       <use xlink:href="#SimHei-36" transform="translate(250 0)"/>
      </g>
     </g>
    </g>
    <g id="xtick_3">
     <g id="line2d_5">
      <path d="M 145.236111 317.952 
L 145.236111 7.2 
" clip-path="url(#p8db0220dc6)" style="fill: none; stroke-dasharray: 1.48,0.64; stroke-dashoffset: 0; stroke: #21262d; stroke-width: 0.4"/>
     </g>
     <g id="line2d_6">
      <g>
       <use xlink:href="#m6295c030ca" x="145.236111" y="317.952" style="stroke: #000000; stroke-width: 0.8"/>
      </g>
     </g>
     <g id="text_3">
      <!-- Jul 01 -->
      <g transform="translate(137.480033 348.419106) rotate(-45) scale(0.09 -0.09)">
       <defs>
        <path id="SimHei-6c" d="M 1825 125 
L 1325 125 
L 1325 4400 
L 1825 4400 
L 1825 125 
z
" transform="scale(0.015625)"/>
        <path id="SimHei-30" d="M 225 2537 
Q 250 3200 412 3587 
Q 575 3975 875 4225 
Q 1175 4475 1612 4475 
Q 2050 4475 2375 4112 
Q 2700 3750 2800 3200 
Q 2900 2650 2862 1937 
Q 2825 1225 2612 775 
Q 2400 325 1975 150 
Q 1550 -25 1125 187 
Q 700 400 525 750 
Q 350 1100 275 1487 
Q 200 1875 225 2537 
z
M 750 2687 
Q 675 2000 800 1462 
Q 925 925 1212 700 
Q 1500 475 1800 612 
Q 2100 750 2237 1162 
Q 2375 1575 2375 2062 
Q 2375 2550 2337 2950 
Q 2300 3350 2112 3675 
Q 1925 4000 1612 4012 
Q 1300 4025 1062 3700 
Q 825 3375 750 2687 
z
" transform="scale(0.015625)"/>
        <path id="SimHei-31" d="M 1400 3600 
Q 1075 3275 575 2975 
L 575 3450 
Q 1200 3875 1600 4450 
L 1900 4450 
L 1900 150 
L 1400 150 
L 1400 3600 
z
" transform="scale(0.015625)"/>
       </defs>
       <use xlink:href="#SimHei-4a"/>
       <use xlink:href="#SimHei-75" transform="translate(50 0)"/>
       <use xlink:href="#SimHei-6c" transform="translate(100 0)"/>
       <use xlink:href="#SimHei-20" transform="translate(150 0)"/>
       <use xlink:href="#SimHei-30" transform="translate(200 0)"/>
       <use xlink:href="#SimHei-31" transform="translate(250 0)"/>
      </g>
     </g>
    </g>
    <g id="xtick_4">
     <g id="line2d_7">
      <path d="M 208.188516 317.952 
L 208.188516 7.2 
" clip-path="url(#p8db0220dc6)" style="fill: none; stroke-dasharray: 1.48,0.64; stroke-dashoffset: 0; stroke: #21262d; stroke-width: 0.4"/>
     </g>
     <g id="line2d_8">
      <g>
       <use xlink:href="#m6295c030ca" x="208.188516" y="317.952" style="stroke: #000000; stroke-width: 0.8"/>
      </g>
     </g>
     <g id="text_4">
      <!-- Jul 07 -->
      <g transform="translate(200.432438 348.419106) rotate(-45) scale(0.09 -0.09)">
       <defs>
        <path id="SimHei-37" d="M 850 150 
Q 1300 2050 2425 3925 
L 275 3925 
L 275 4375 
L 2950 4375 
L 2950 3950 
Q 1775 2050 1400 150 
L 850 150 
z
" transform="scale(0.015625)"/>
       </defs>
       <use xlink:href="#SimHei-4a"/>
       <use xlink:href="#SimHei-75" transform="translate(50 0)"/>
       <use xlink:href="#SimHei-6c" transform="translate(100 0)"/>
       <use xlink:href="#SimHei-20" transform="translate(150 0)"/>
       <use xlink:href="#SimHei-30" transform="translate(200 0)"/>
       <use xlink:href="#SimHei-37" transform="translate(250 0)"/>
      </g>
     </g>
    </g>
    <g id="xtick_5">
     <g id="line2d_9">
      <path d="M 271.14092 317.952 
L 271.14092 7.2 
" clip-path="url(#p8db0220dc6)" style="fill: none; stroke-dasharray: 1.48,0.64; stroke-dashoffset: 0; stroke: #21262d; stroke-width: 0.4"/>
     </g>
     <g id="line2d_10">
      <g>
       <use xlink:href="#m6295c030ca" x="271.14092" y="317.952" style="stroke: #000000; stroke-width: 0.8"/>
      </g>
     </g>
     <g id="text_5">
      <!-- Jul 09 -->
      <g transform="translate(263.384843 348.419106) rotate(-45) scale(0.09 -0.09)">
       <defs>
        <path id="SimHei-39" d="M 800 75 
Q 1350 1000 1700 1750 
Q 1075 1650 662 1912 
Q 250 2175 162 2625 
Q 75 3075 175 3437 
Q 275 3800 487 4037 
Q 700 4275 1000 4375 
Q 1300 4475 1537 4475 
Q 1775 4475 2025 4375 
Q 2275 4275 2475 4075 
Q 2675 3875 2750 3662 
Q 2825 3450 2825 3112 
Q 2825 2775 2575 2250 
Q 2325 1725 1350 75 
L 800 75 
z
M 662 2875 
Q 700 2550 937 2337 
Q 1175 2125 1450 2150 
Q 1725 2175 1887 2300 
Q 2050 2425 2200 2725 
Q 2300 3100 2250 3362 
Q 2200 3625 1987 3800 
Q 1775 3975 1525 3975 
Q 1375 4000 1137 3900 
Q 900 3800 762 3500 
Q 625 3200 662 2875 
z
" transform="scale(0.015625)"/>
       </defs>
       <use xlink:href="#SimHei-4a"/>
       <use xlink:href="#SimHei-75" transform="translate(50 0)"/>
       <use xlink:href="#SimHei-6c" transform="translate(100 0)"/>
       <use xlink:href="#SimHei-20" transform="translate(150 0)"/>
       <use xlink:href="#SimHei-30" transform="translate(200 0)"/>
       <use xlink:href="#SimHei-39" transform="translate(250 0)"/>
      </g>
     </g>
    </g>
    <g id="xtick_6">
     <g id="line2d_11">
      <path d="M 334.093325 317.952 
L 334.093325 7.2 
" clip-path="url(#p8db0220dc6)" style="fill: none; stroke-dasharray: 1.48,0.64; stroke-dashoffset: 0; stroke: #21262d; stroke-width: 0.4"/>
     </g>
     <g id="line2d_12">
      <g>
       <use xlink:href="#m6295c030ca" x="334.093325" y="317.952" style="stroke: #000000; stroke-width: 0.8"/>
      </g>
     </g>
     <g id="text_6">
      <!-- Jul 13 -->
      <g transform="translate(326.337248 348.419106) rotate(-45) scale(0.09 -0.09)">
       <defs>
        <path id="SimHei-33" d="M 250 1225 
L 700 1300 
Q 800 975 1025 762 
Q 1250 550 1587 562 
Q 1925 575 2125 837 
Q 2325 1100 2300 1437 
Q 2275 1775 2037 1962 
Q 1800 2150 1275 2225 
L 1275 2550 
Q 1800 2600 2037 2825 
Q 2275 3050 2250 3412 
Q 2225 3775 1925 3937 
Q 1625 4100 1287 3975 
Q 950 3850 750 3275 
L 300 3350 
Q 450 3800 712 4100 
Q 975 4400 1425 4450 
Q 1875 4500 2212 4337 
Q 2550 4175 2687 3837 
Q 2825 3500 2725 3100 
Q 2625 2700 2150 2400 
Q 2500 2250 2687 1950 
Q 2875 1650 2812 1162 
Q 2750 675 2375 375 
Q 2000 75 1525 87 
Q 1050 100 700 387 
Q 350 675 250 1225 
z
" transform="scale(0.015625)"/>
       </defs>
       <use xlink:href="#SimHei-4a"/>
       <use xlink:href="#SimHei-75" transform="translate(50 0)"/>
       <use xlink:href="#SimHei-6c" transform="translate(100 0)"/>
       <use xlink:href="#SimHei-20" transform="translate(150 0)"/>
       <use xlink:href="#SimHei-31" transform="translate(200 0)"/>
       <use xlink:href="#SimHei-33" transform="translate(250 0)"/>
      </g>
     </g>
    </g>
    <g id="xtick_7">
     <g id="line2d_13">
      <path d="M 397.04573 317.952 
L 397.04573 7.2 
" clip-path="url(#p8db0220dc6)" style="fill: none; stroke-dasharray: 1.48,0.64; stroke-dashoffset: 0; stroke: #21262d; stroke-width: 0.4"/>
     </g>
     <g id="line2d_14">
      <g>
       <use xlink:href="#m6295c030ca" x="397.04573" y="317.952" style="stroke: #000000; stroke-width: 0.8"/>
      </g>
     </g>
     <g id="text_7">
      <!-- Jul 16 -->
      <g transform="translate(389.289653 348.419106) rotate(-45) scale(0.09 -0.09)">
       <use xlink:href="#SimHei-4a"/>
       <use xlink:href="#SimHei-75" transform="translate(50 0)"/>
       <use xlink:href="#SimHei-6c" transform="translate(100 0)"/>
       <use xlink:href="#SimHei-20" transform="translate(150 0)"/>
       <use xlink:href="#SimHei-31" transform="translate(200 0)"/>
       <use xlink:href="#SimHei-36" transform="translate(250 0)"/>
      </g>
     </g>
    </g>
    <g id="xtick_8">
     <g id="line2d_15">
      <path d="M 459.998135 317.952 
L 459.998135 7.2 
" clip-path="url(#p8db0220dc6)" style="fill: none; stroke-dasharray: 1.48,0.64; stroke-dashoffset: 0; stroke: #21262d; stroke-width: 0.4"/>
     </g>
     <g id="line2d_16">
      <g>
       <use xlink:href="#m6295c030ca" x="459.998135" y="317.952" style="stroke: #000000; stroke-width: 0.8"/>
      </g>
     </g>
     <g id="text_8">
      <!-- Jul 21 -->
      <g transform="translate(452.242058 348.419106) rotate(-45) scale(0.09 -0.09)">
       <use xlink:href="#SimHei-4a"/>
       <use xlink:href="#SimHei-75" transform="translate(50 0)"/>
       <use xlink:href="#SimHei-6c" transform="translate(100 0)"/>
       <use xlink:href="#SimHei-20" transform="translate(150 0)"/>
       <use xlink:href="#SimHei-32" transform="translate(200 0)"/>
       <use xlink:href="#SimHei-31" transform="translate(250 0)"/>
      </g>
     </g>
    </g>
   </g>
   <g id="matplotlib.axis_2">
    <g id="ytick_1">
     <g id="line2d_17">
      <path d="M 8.566439 263.404965 
L 508.534439 263.404965 
" clip-path="url(#p8db0220dc6)" style="fill: none; stroke-dasharray: 1.48,0.64; stroke-dashoffset: 0; stroke: #21262d; stroke-width: 0.4"/>
     </g>
     <g id="line2d_18">
      <defs>
       <path id="m87014b754e" d="M 0 0 
L 3.5 0 
" style="stroke: #000000; stroke-width: 0.8"/>
      </defs>
      <g>
       <use xlink:href="#m87014b754e" x="508.534439" y="263.404965" style="stroke: #000000; stroke-width: 0.8"/>
      </g>
     </g>
     <g id="text_9">
      <!-- 97 -->
      <g transform="translate(515.534439 266.498715) scale(0.09 -0.09)">
       <use xlink:href="#SimHei-39"/>
       <use xlink:href="#SimHei-37" transform="translate(50 0)"/>
      </g>
     </g>
    </g>
    <g id="ytick_2">
     <g id="line2d_19">
      <path d="M 8.566439 201.356371 
L 508.534439 201.356371 
" clip-path="url(#p8db0220dc6)" style="fill: none; stroke-dasharray: 1.48,0.64; stroke-dashoffset: 0; stroke: #21262d; stroke-width: 0.4"/>
     </g>
     <g id="line2d_20">
      <g>
       <use xlink:href="#m87014b754e" x="508.534439" y="201.356371" style="stroke: #000000; stroke-width: 0.8"/>
      </g>
     </g>
     <g id="text_10">
      <!-- 98 -->
      <g transform="translate(515.534439 204.450121) scale(0.09 -0.09)">
       <defs>
        <path id="SimHei-38" d="M 175 1375 
Q 175 1675 325 1962 
Q 475 2250 825 2425 
Q 525 2600 425 2812 
Q 325 3025 312 3300 
Q 300 3575 387 3775 
Q 475 3975 650 4150 
Q 825 4325 1037 4387 
Q 1250 4450 1500 4450 
Q 1750 4450 1950 4400 
Q 2150 4350 2375 4187 
Q 2600 4025 2700 3725 
Q 2800 3425 2687 3025 
Q 2575 2625 2100 2400 
Q 2525 2275 2700 2012 
Q 2875 1750 2875 1375 
Q 2875 1000 2762 775 
Q 2650 550 2512 400 
Q 2375 250 2137 162 
Q 1900 75 1537 75 
Q 1175 75 912 162 
Q 650 250 475 425 
Q 300 600 237 837 
Q 175 1075 175 1375 
z
M 687 1400 
Q 675 1100 787 875 
Q 900 650 1200 587 
Q 1500 525 1825 600 
Q 2150 675 2275 950 
Q 2400 1225 2362 1500 
Q 2325 1775 2050 1962 
Q 1775 2150 1450 2125 
Q 1125 2100 912 1900 
Q 700 1700 687 1400 
z
M 775 3350 
Q 775 3100 950 2875 
Q 1125 2650 1500 2650 
Q 1875 2650 2062 2875 
Q 2250 3100 2237 3412 
Q 2225 3725 2012 3875 
Q 1800 4025 1437 4000 
Q 1075 3975 925 3787 
Q 775 3600 775 3350 
z
" transform="scale(0.015625)"/>
       </defs>
       <use xlink:href="#SimHei-39"/>
       <use xlink:href="#SimHei-38" transform="translate(50 0)"/>
      </g>
     </g>
    </g>
    <g id="ytick_3">
     <g id="line2d_21">
      <path d="M 8.566439 139.307777 
L 508.534439 139.307777 
" clip-path="url(#p8db0220dc6)" style="fill: none; stroke-dasharray: 1.48,0.64; stroke-dashoffset: 0; stroke: #21262d; stroke-width: 0.4"/>
     </g>
     <g id="line2d_22">
      <g>
       <use xlink:href="#m87014b754e" x="508.534439" y="139.307777" style="stroke: #000000; stroke-width: 0.8"/>
      </g>
     </g>
     <g id="text_11">
      <!-- 99 -->
      <g transform="translate(515.534439 142.401527) scale(0.09 -0.09)">
       <use xlink:href="#SimHei-39"/>
       <use xlink:href="#SimHei-39" transform="translate(50 0)"/>
      </g>
     </g>
    </g>
    <g id="ytick_4">
     <g id="line2d_23">
      <path d="M 8.566439 77.259183 
L 508.534439 77.259183 
" clip-path="url(#p8db0220dc6)" style="fill: none; stroke-dasharray: 1.48,0.64; stroke-dashoffset: 0; stroke: #21262d; stroke-width: 0.4"/>
     </g>
     <g id="line2d_24">
      <g>
       <use xlink:href="#m87014b754e" x="508.534439" y="77.259183" style="stroke: #000000; stroke-width: 0.8"/>
      </g>
     </g>
     <g id="text_12">
      <!-- 100 -->
      <g transform="translate(515.534439 80.352933) scale(0.09 -0.09)">
       <use xlink:href="#SimHei-31"/>
       <use xlink:href="#SimHei-30" transform="translate(50 0)"/>
       <use xlink:href="#SimHei-30" transform="translate(100 0)"/>
      </g>
     </g>
    </g>
    <g id="ytick_5">
     <g id="line2d_25">
      <path d="M 8.566439 15.210589 
L 508.534439 15.210589 
" clip-path="url(#p8db0220dc6)" style="fill: none; stroke-dasharray: 1.48,0.64; stroke-dashoffset: 0; stroke: #21262d; stroke-width: 0.4"/>
     </g>
     <g id="line2d_26">
      <g>
       <use xlink:href="#m87014b754e" x="508.534439" y="15.210589" style="stroke: #000000; stroke-width: 0.8"/>
      </g>
     </g>
     <g id="text_13">
      <!-- 101 -->
      <g transform="translate(515.534439 18.304339) scale(0.09 -0.09)">
       <use xlink:href="#SimHei-31"/>
       <use xlink:href="#SimHei-30" transform="translate(50 0)"/>
       <use xlink:href="#SimHei-31" transform="translate(100 0)"/>
      </g>
     </g>
    </g>
    <g id="text_14">
     <!-- 价格 -->
     <g transform="translate(541.556314 173.376) rotate(-90) scale(0.108 -0.108)">
      <defs>
       <path id="SimHei-4ef7" d="M 2200 4975 
Q 2050 4725 1650 3775 
L 1650 450 
Q 1650 -225 1675 -650 
L 1175 -650 
Q 1175 -225 1200 450 
L 1200 2975 
Q 900 2425 650 2100 
Q 525 2275 225 2450 
Q 750 3025 1125 3800 
Q 1500 4575 1625 5175 
Q 1950 5025 2200 4975 
z
M 4175 4700 
Q 4850 3525 6150 2950 
Q 5925 2750 5775 2500 
Q 4725 3100 3950 4300 
Q 3300 3125 2250 2350 
Q 2125 2525 1900 2725 
Q 2825 3325 3250 4050 
Q 3675 4775 3750 5150 
Q 4150 4950 4325 4900 
L 4175 4700 
z
M 3475 2650 
Q 3400 2075 3325 1087 
Q 3250 100 2325 -675 
Q 2175 -450 1925 -300 
Q 2850 350 2912 1262 
Q 2975 2175 2950 2700 
Q 3275 2650 3475 2650 
z
M 5075 2700 
Q 5050 2150 5050 1725 
L 5050 150 
Q 5050 -225 5075 -650 
L 4550 -650 
Q 4575 -225 4575 175 
L 4575 1875 
Q 4575 2150 4550 2700 
L 5075 2700 
z
" transform="scale(0.015625)"/>
       <path id="SimHei-683c" d="M 4075 4875 
Q 3975 4750 3750 4350 
L 5625 4350 
Q 5450 3850 5212 3437 
Q 4975 3025 4650 2650 
Q 4950 2450 5412 2287 
Q 5875 2125 6150 2100 
Q 5975 1900 5875 1600 
Q 5550 1725 5125 1912 
Q 4700 2100 4300 2400 
Q 3925 2125 3537 1937 
Q 3150 1750 2575 1550 
Q 2475 1775 2300 1925 
Q 2825 2050 3262 2250 
Q 3700 2450 3975 2675 
Q 3625 3050 3325 3575 
Q 3175 3350 2875 2950 
Q 2700 3100 2475 3200 
Q 2825 3550 3112 4075 
Q 3400 4600 3550 5100 
Q 3775 4950 4075 4875 
z
M 5575 1650 
Q 5550 1350 5550 575 
Q 5550 -200 5575 -575 
L 5050 -575 
L 5050 -175 
L 3500 -175 
L 3500 -600 
L 2975 -600 
Q 3000 -200 3000 550 
Q 3000 1325 2975 1650 
L 5575 1650 
z
M 1850 5100 
Q 1825 4775 1825 4475 
L 1825 3825 
Q 2300 3825 2525 3850 
L 2525 3400 
Q 2300 3425 1825 3425 
L 1825 2725 
Q 1950 2800 2125 2950 
Q 2350 2600 2550 2200 
Q 2350 2075 2175 1950 
Q 1975 2375 1825 2625 
L 1825 275 
Q 1825 -275 1850 -625 
L 1350 -625 
Q 1375 -275 1375 275 
L 1375 2425 
Q 1150 1850 625 850 
Q 475 1025 250 1150 
Q 650 1775 900 2375 
Q 1150 2975 1250 3425 
Q 900 3425 475 3400 
L 475 3850 
Q 925 3825 1375 3825 
L 1375 4475 
Q 1375 4750 1350 5100 
L 1850 5100 
z
M 5050 200 
L 5050 1275 
L 3500 1275 
L 3500 200 
L 5050 200 
z
M 4300 2925 
Q 4675 3300 4975 3975 
L 3550 3975 
Q 3850 3350 4300 2925 
z
" transform="scale(0.015625)"/>
      </defs>
      <use xlink:href="#SimHei-4ef7"/>
      <use xlink:href="#SimHei-683c" transform="translate(100 0)"/>
     </g>
    </g>
   </g>
   <g id="PolyCollection_1">
    <path d="M 11.147488 247.272198 
L 11.147488 262.784347 
L 27.515113 262.784347 
L 27.515113 247.272198 
z
" clip-path="url(#p8db0220dc6)" style="fill: #f85149; fill-opacity: 0.9; stroke: #f85149"/>
    <path d="M 36.32845 233.001287 
L 36.32845 251.615581 
L 52.696075 251.615581 
L 52.696075 233.001287 
z
" clip-path="url(#p8db0220dc6)" style="fill: #f85149; fill-opacity: 0.9; stroke: #f85149"/>
    <path d="M 61.509412 212.525137 
L 61.509412 159.783927 
L 77.877037 159.783927 
L 77.877037 212.525137 
z
" clip-path="url(#p8db0220dc6)" style="fill: #3fb950; fill-opacity: 0.9; stroke: #3fb950"/>
    <path d="M 86.690374 177.157457 
L 86.690374 192.048987 
L 103.057999 192.048987 
L 103.057999 177.157457 
z
" clip-path="url(#p8db0220dc6)" style="fill: #f85149; fill-opacity: 0.9; stroke: #f85149"/>
    <path d="M 111.871336 261.543583 
L 111.871336 298.772645 
L 128.238961 298.772645 
L 128.238961 261.543583 
z
" clip-path="url(#p8db0220dc6)" style="fill: #f85149; fill-opacity: 0.9; stroke: #f85149"/>
    <path d="M 137.052298 293.188499 
L 137.052298 274.573731 
L 153.419923 274.573731 
L 153.419923 293.188499 
z
" clip-path="url(#p8db0220dc6)" style="fill: #3fb950; fill-opacity: 0.9; stroke: #3fb950"/>
    <path d="M 162.23326 239.206051 
L 162.23326 200.115608 
L 178.600885 200.115608 
L 178.600885 239.206051 
z
" clip-path="url(#p8db0220dc6)" style="fill: #3fb950; fill-opacity: 0.9; stroke: #3fb950"/>
    <path d="M 187.414222 188.946842 
L 187.414222 248.513435 
L 203.781847 248.513435 
L 203.781847 188.946842 
z
" clip-path="url(#p8db0220dc6)" style="fill: #f85149; fill-opacity: 0.9; stroke: #f85149"/>
    <path d="M 212.595184 213.145756 
L 212.595184 176.536839 
L 228.962809 176.536839 
L 228.962809 213.145756 
z
" clip-path="url(#p8db0220dc6)" style="fill: #3fb950; fill-opacity: 0.9; stroke: #3fb950"/>
    <path d="M 237.776146 189.566987 
L 237.776146 275.814495 
L 254.143771 275.814495 
L 254.143771 189.566987 
z
" clip-path="url(#p8db0220dc6)" style="fill: #f85149; fill-opacity: 0.9; stroke: #f85149"/>
    <path d="M 262.957108 261.543583 
L 262.957108 257.820819 
L 279.324733 257.820819 
L 279.324733 261.543583 
z
" clip-path="url(#p8db0220dc6)" style="fill: #3fb950; fill-opacity: 0.9; stroke: #3fb950"/>
    <path d="M 288.13807 225.555285 
L 288.13807 243.549434 
L 304.505695 243.549434 
L 304.505695 225.555285 
z
" clip-path="url(#p8db0220dc6)" style="fill: #f85149; fill-opacity: 0.9; stroke: #f85149"/>
    <path d="M 313.319032 224.314521 
L 313.319032 211.904519 
L 329.686657 211.904519 
L 329.686657 224.314521 
z
" clip-path="url(#p8db0220dc6)" style="fill: #3fb950; fill-opacity: 0.9; stroke: #3fb950"/>
    <path d="M 338.499994 205.699754 
L 338.499994 228.037286 
L 354.867619 228.037286 
L 354.867619 205.699754 
z
" clip-path="url(#p8db0220dc6)" style="fill: #f85149; fill-opacity: 0.9; stroke: #f85149"/>
    <path d="M 363.680956 207.561136 
L 363.680956 210.043137 
L 380.048581 210.043137 
L 380.048581 207.561136 
z
" clip-path="url(#p8db0220dc6)" style="fill: #f85149; fill-opacity: 0.9; stroke: #f85149"/>
    <path d="M 388.861918 193.290224 
L 388.861918 72.915801 
L 405.229543 72.915801 
L 405.229543 193.290224 
z
" clip-path="url(#p8db0220dc6)" style="fill: #3fb950; fill-opacity: 0.9; stroke: #3fb950"/>
    <path d="M 414.04288 57.403652 
L 414.04288 76.01842 
L 430.410505 76.01842 
L 430.410505 57.403652 
z
" clip-path="url(#p8db0220dc6)" style="fill: #f85149; fill-opacity: 0.9; stroke: #f85149"/>
    <path d="M 439.223842 94.632714 
L 439.223842 109.524244 
L 455.591467 109.524244 
L 455.591467 94.632714 
z
" clip-path="url(#p8db0220dc6)" style="fill: #f85149; fill-opacity: 0.9; stroke: #f85149"/>
    <path d="M 464.404804 96.494096 
L 464.404804 107.042717 
L 480.772429 107.042717 
L 480.772429 96.494096 
z
" clip-path="url(#p8db0220dc6)" style="fill: #f85149; fill-opacity: 0.9; stroke: #f85149"/>
    <path d="M 489.585766 89.668713 
L 489.585766 138.067014 
L 505.953391 138.067014 
L 505.953391 89.668713 
z
" clip-path="url(#p8db0220dc6)" style="fill: #f85149; fill-opacity: 0.9; stroke: #f85149"/>
   </g>
   <g id="LineCollection_1">
    <path d="M 19.331301 292.56788 
L 19.331301 262.784347 
" clip-path="url(#p8db0220dc6)" style="fill: none; stroke: #f85149"/>
    <path d="M 44.512263 314.905412 
L 44.512263 251.615581 
" clip-path="url(#p8db0220dc6)" style="fill: none; stroke: #f85149"/>
    <path d="M 69.693225 225.555285 
L 69.693225 212.525137 
" clip-path="url(#p8db0220dc6)" style="fill: none; stroke: #3fb950"/>
    <path d="M 94.874187 245.410816 
L 94.874187 192.048987 
" clip-path="url(#p8db0220dc6)" style="fill: none; stroke: #f85149"/>
    <path d="M 120.055149 303.736646 
L 120.055149 298.772645 
" clip-path="url(#p8db0220dc6)" style="fill: none; stroke: #f85149"/>
    <path d="M 145.236111 295.049881 
L 145.236111 293.188499 
" clip-path="url(#p8db0220dc6)" style="fill: none; stroke: #3fb950"/>
    <path d="M 170.417073 252.236199 
L 170.417073 239.206051 
" clip-path="url(#p8db0220dc6)" style="fill: none; stroke: #3fb950"/>
    <path d="M 195.598035 265.886966 
L 195.598035 248.513435 
" clip-path="url(#p8db0220dc6)" style="fill: none; stroke: #f85149"/>
    <path d="M 220.778997 219.35052 
L 220.778997 213.145756 
" clip-path="url(#p8db0220dc6)" style="fill: none; stroke: #3fb950"/>
    <path d="M 245.959958 280.157877 
L 245.959958 275.814495 
" clip-path="url(#p8db0220dc6)" style="fill: none; stroke: #f85149"/>
    <path d="M 271.14092 278.917114 
L 271.14092 261.543583 
" clip-path="url(#p8db0220dc6)" style="fill: none; stroke: #3fb950"/>
    <path d="M 296.321882 290.08588 
L 296.321882 243.549434 
" clip-path="url(#p8db0220dc6)" style="fill: none; stroke: #f85149"/>
    <path d="M 321.502844 235.483287 
L 321.502844 224.314521 
" clip-path="url(#p8db0220dc6)" style="fill: none; stroke: #3fb950"/>
    <path d="M 346.683806 240.446815 
L 346.683806 228.037286 
" clip-path="url(#p8db0220dc6)" style="fill: none; stroke: #f85149"/>
    <path d="M 371.864768 231.76005 
L 371.864768 210.043137 
" clip-path="url(#p8db0220dc6)" style="fill: none; stroke: #f85149"/>
    <path d="M 397.04573 194.530988 
L 397.04573 193.290224 
" clip-path="url(#p8db0220dc6)" style="fill: none; stroke: #3fb950"/>
    <path d="M 422.226692 107.042717 
L 422.226692 76.01842 
" clip-path="url(#p8db0220dc6)" style="fill: none; stroke: #f85149"/>
    <path d="M 447.407654 131.861776 
L 447.407654 109.524244 
" clip-path="url(#p8db0220dc6)" style="fill: none; stroke: #f85149"/>
    <path d="M 472.588616 132.482394 
L 472.588616 107.042717 
" clip-path="url(#p8db0220dc6)" style="fill: none; stroke: #f85149"/>
    <path d="M 497.769578 149.545852 
L 497.769578 138.067014 
" clip-path="url(#p8db0220dc6)" style="fill: none; stroke: #f85149"/>
    <path d="M 19.331301 228.657904 
L 19.331301 247.272198 
" clip-path="url(#p8db0220dc6)" style="fill: none; stroke: #f85149"/>
    <path d="M 44.512263 226.175903 
L 44.512263 233.001287 
" clip-path="url(#p8db0220dc6)" style="fill: none; stroke: #f85149"/>
    <path d="M 69.693225 155.440544 
L 69.693225 159.783927 
" clip-path="url(#p8db0220dc6)" style="fill: none; stroke: #3fb950"/>
    <path d="M 94.874187 166.60931 
L 94.874187 177.157457 
" clip-path="url(#p8db0220dc6)" style="fill: none; stroke: #f85149"/>
    <path d="M 120.055149 238.585433 
L 120.055149 261.543583 
" clip-path="url(#p8db0220dc6)" style="fill: none; stroke: #f85149"/>
    <path d="M 145.236111 227.416667 
L 145.236111 274.573731 
" clip-path="url(#p8db0220dc6)" style="fill: none; stroke: #3fb950"/>
    <path d="M 170.417073 197.633607 
L 170.417073 200.115608 
" clip-path="url(#p8db0220dc6)" style="fill: none; stroke: #3fb950"/>
    <path d="M 195.598035 187.705605 
L 195.598035 188.946842 
" clip-path="url(#p8db0220dc6)" style="fill: none; stroke: #f85149"/>
    <path d="M 220.778997 136.205158 
L 220.778997 176.536839 
" clip-path="url(#p8db0220dc6)" style="fill: none; stroke: #3fb950"/>
    <path d="M 245.959958 184.603459 
L 245.959958 189.566987 
" clip-path="url(#p8db0220dc6)" style="fill: none; stroke: #f85149"/>
    <path d="M 271.14092 224.314521 
L 271.14092 257.820819 
" clip-path="url(#p8db0220dc6)" style="fill: none; stroke: #3fb950"/>
    <path d="M 296.321882 216.247901 
L 296.321882 225.555285 
" clip-path="url(#p8db0220dc6)" style="fill: none; stroke: #f85149"/>
    <path d="M 321.502844 178.398221 
L 321.502844 211.904519 
" clip-path="url(#p8db0220dc6)" style="fill: none; stroke: #3fb950"/>
    <path d="M 346.683806 188.326223 
L 346.683806 205.699754 
" clip-path="url(#p8db0220dc6)" style="fill: none; stroke: #f85149"/>
    <path d="M 371.864768 143.030541 
L 371.864768 207.561136 
" clip-path="url(#p8db0220dc6)" style="fill: none; stroke: #f85149"/>
    <path d="M 397.04573 69.193037 
L 397.04573 72.915801 
" clip-path="url(#p8db0220dc6)" style="fill: none; stroke: #3fb950"/>
    <path d="M 422.226692 10.246588 
L 422.226692 57.403652 
" clip-path="url(#p8db0220dc6)" style="fill: none; stroke: #f85149"/>
    <path d="M 447.407654 65.469799 
L 447.407654 94.632714 
" clip-path="url(#p8db0220dc6)" style="fill: none; stroke: #f85149"/>
    <path d="M 472.588616 89.048568 
L 472.588616 96.494096 
" clip-path="url(#p8db0220dc6)" style="fill: none; stroke: #f85149"/>
    <path d="M 497.769578 85.945949 
L 497.769578 89.668713 
" clip-path="url(#p8db0220dc6)" style="fill: none; stroke: #f85149"/>
   </g>
   <g id="patch_3">
    <path d="M 8.566439 317.952 
L 8.566439 7.2 
" style="fill: none; stroke: #30363d; stroke-width: 1.5; stroke-linejoin: miter; stroke-linecap: square"/>
   </g>
   <g id="patch_4">
    <path d="M 508.534439 317.952 
L 508.534439 7.2 
" style="fill: none; stroke: #30363d; stroke-width: 1.5; stroke-linejoin: miter; stroke-linecap: square"/>
   </g>
   <g id="patch_5">
    <path d="M 8.566439 317.952 
L 508.534439 317.952 
" style="fill: none; stroke: #30363d; stroke-width: 1.5; stroke-linejoin: miter; stroke-linecap: square"/>
   </g>
   <g id="patch_6">
    <path d="M 8.566439 7.2 
L 508.534439 7.2 
" style="fill: none; stroke: #30363d; stroke-width: 1.5; stroke-linejoin: miter; stroke-linecap: square"/>
   </g>
  </g>
  <g id="text_15">
   <!-- VNQ -->
   <g transform="translate(224.638439 34.812) scale(0.1296 -0.1296)">
    <defs>
     <path id="SimHei-56" d="M 3050 4400 
L 1800 75 
L 1300 75 
L 50 4400 
L 650 4400 
L 1525 1125 
L 1575 1125 
L 2450 4400 
L 3050 4400 
z
" transform="scale(0.015625)"/>
     <path id="SimHei-4e" d="M 2850 125 
L 2225 125 
L 850 3225 
L 825 3225 
L 825 125 
L 250 125 
L 250 4400 
L 875 4400 
L 2250 1300 
L 2275 1300 
L 2275 4400 
L 2850 4400 
L 2850 125 
z
" transform="scale(0.015625)"/>
     <path id="SimHei-51" d="M 2950 2275 
Q 2950 1675 2862 1262 
Q 2775 850 2575 600 
L 2775 225 
L 2375 -200 
L 2150 225 
Q 2050 150 1900 112 
Q 1750 75 1575 75 
Q 925 75 550 587 
Q 175 1100 175 2275 
Q 175 3450 550 3950 
Q 925 4450 1575 4450 
Q 2225 4450 2587 3950 
Q 2950 3450 2950 2275 
z
M 2350 2275 
Q 2350 3325 2125 3650 
Q 1900 3975 1575 3975 
Q 1250 3975 1012 3650 
Q 775 3325 775 2275 
Q 775 1225 1012 887 
Q 1250 550 1575 550 
Q 1700 550 1800 587 
Q 1900 625 1950 675 
L 1550 1450 
L 1900 1875 
L 2250 1200 
Q 2300 1450 2325 1650 
Q 2350 1850 2350 2275 
z
" transform="scale(0.015625)"/>
    </defs>
    <use xlink:href="#SimHei-56"/>
    <use xlink:href="#SimHei-4e" transform="translate(50 0)"/>
    <use xlink:href="#SimHei-51" transform="translate(100 0)"/>
   </g>
  </g>
 </g>
 <defs>
  <clipPath id="p8db0220dc6">
   <rect x="8.566439" y="7.2" width="499.968" height="310.752"/>
  </clipPath>
 </defs>
</svg>
